<svg xmlns="http://www.w3.org/2000/svg" width="1200" height="720" viewBox="0 0 1200 720">
<rect x="0" y="0" width="100%" height="100%" fill="#ffffff"/>
<text x="40" y="42" font-size="26" font-family="Arial, PingFang SC, Microsoft YaHei, sans-serif" fill="#222">分产品收入变化图</text>
<rect x="40" y="60" width="22" height="10" fill="#4E79A7"/>
<text x="68" y="70" font-size="16" font-family="Arial, PingFang SC, Microsoft YaHei, sans-serif" fill="#333">客运及客运相关服务</text>
<rect x="210" y="60" width="22" height="10" fill="#F28E2B"/>
<text x="238" y="70" font-size="16" font-family="Arial, PingFang SC, Microsoft YaHei, sans-serif" fill="#333">国外</text>
<rect x="380" y="60" width="22" height="10" fill="#E15759"/>
<text x="408" y="70" font-size="16" font-family="Arial, PingFang SC, Microsoft YaHei, sans-serif" fill="#333">货运及邮运</text>
<rect x="550" y="60" width="22" height="10" fill="#76B7B2"/>
<text x="578" y="70" font-size="16" font-family="Arial, PingFang SC, Microsoft YaHei, sans-serif" fill="#333">其他主营业务</text>
<rect x="720" y="60" width="22" height="10" fill="#59A14F"/>
<text x="748" y="70" font-size="16" font-family="Arial, PingFang SC, Microsoft YaHei, sans-serif" fill="#333">酒店及旅游业务</text>
<line x1="90" y1="130" x2="90" y2="630" stroke="#555" stroke-width="1"/>
<line x1="90" y1="630.0" x2="1130" y2="630.0" stroke="#555" stroke-width="1"/>
<line x1="90" y1="630.0" x2="1130" y2="630.0" stroke="#eee" stroke-width="1"/>
<text x="78" y="635.0" text-anchor="end" font-size="14" font-family="Arial, PingFang SC, Microsoft YaHei, sans-serif" fill="#666">0.00</text>
<line x1="90" y1="530.0" x2="1130" y2="530.0" stroke="#eee" stroke-width="1"/>
<text x="78" y="535.0" text-anchor="end" font-size="14" font-family="Arial, PingFang SC, Microsoft YaHei, sans-serif" fill="#666">459.52</text>
<line x1="90" y1="430.0" x2="1130" y2="430.0" stroke="#eee" stroke-width="1"/>
<text x="78" y="435.0" text-anchor="end" font-size="14" font-family="Arial, PingFang SC, Microsoft YaHei, sans-serif" fill="#666">919.04</text>
<line x1="90" y1="330.0" x2="1130" y2="330.0" stroke="#eee" stroke-width="1"/>
<text x="78" y="335.0" text-anchor="end" font-size="14" font-family="Arial, PingFang SC, Microsoft YaHei, sans-serif" fill="#666">1378.56</text>
<line x1="90" y1="230.0" x2="1130" y2="230.0" stroke="#eee" stroke-width="1"/>
<text x="78" y="235.0" text-anchor="end" font-size="14" font-family="Arial, PingFang SC, Microsoft YaHei, sans-serif" fill="#666">1838.08</text>
<line x1="90" y1="130.0" x2="1130" y2="130.0" stroke="#eee" stroke-width="1"/>
<text x="78" y="135.0" text-anchor="end" font-size="14" font-family="Arial, PingFang SC, Microsoft YaHei, sans-serif" fill="#666">2297.60</text>
<text x="194.0" y="658" text-anchor="middle" font-size="14" font-family="Arial, PingFang SC, Microsoft YaHei, sans-serif" fill="#666">2021</text>
<text x="402.0" y="658" text-anchor="middle" font-size="14" font-family="Arial, PingFang SC, Microsoft YaHei, sans-serif" fill="#666">2022</text>
<text x="610.0" y="658" text-anchor="middle" font-size="14" font-family="Arial, PingFang SC, Microsoft YaHei, sans-serif" fill="#666">2023</text>
<text x="818.0" y="658" text-anchor="middle" font-size="14" font-family="Arial, PingFang SC, Microsoft YaHei, sans-serif" fill="#666">2024</text>
<text x="1026.0" y="658" text-anchor="middle" font-size="14" font-family="Arial, PingFang SC, Microsoft YaHei, sans-serif" fill="#666">2025</text>
<rect x="123.28" y="379.56" width="26.02" height="250.44" fill="#4E79A7" opacity="0.85"/>
<rect x="331.28" y="441.22" width="26.02" height="188.78" fill="#4E79A7" opacity="0.85"/>
<rect x="539.28" y="194.13" width="26.02" height="435.87" fill="#4E79A7" opacity="0.85"/>
<rect x="747.28" y="148.03" width="26.02" height="481.97" fill="#4E79A7" opacity="0.85"/>
<rect x="955.28" y="130.00" width="26.02" height="500.00" fill="#4E79A7" opacity="0.85"/>
<rect x="151.57" y="552.56" width="26.02" height="77.44" fill="#F28E2B" opacity="0.85"/>
<rect x="359.57" y="534.90" width="26.02" height="95.10" fill="#F28E2B" opacity="0.85"/>
<rect x="567.57" y="522.86" width="26.02" height="107.14" fill="#F28E2B" opacity="0.85"/>
<rect x="775.57" y="470.98" width="26.02" height="159.02" fill="#F28E2B" opacity="0.85"/>
<rect x="983.57" y="448.45" width="26.02" height="181.55" fill="#F28E2B" opacity="0.85"/>
<rect x="179.86" y="567.43" width="26.02" height="62.57" fill="#E15759" opacity="0.85"/>
<rect x="387.86" y="560.30" width="26.02" height="69.70" fill="#E15759" opacity="0.85"/>
<rect x="595.86" y="581.13" width="26.02" height="48.87" fill="#E15759" opacity="0.85"/>
<rect x="803.86" y="570.32" width="26.02" height="59.68" fill="#E15759" opacity="0.85"/>
<rect x="1011.86" y="567.43" width="26.02" height="62.57" fill="#E15759" opacity="0.85"/>
<rect x="208.14" y="619.53" width="26.02" height="10.47" fill="#76B7B2" opacity="0.85"/>
<rect x="416.14" y="622.01" width="26.02" height="7.99" fill="#76B7B2" opacity="0.85"/>
<rect x="624.14" y="626.90" width="26.02" height="3.10" fill="#76B7B2" opacity="0.85"/>
<rect x="832.14" y="626.47" width="26.02" height="3.53" fill="#76B7B2" opacity="0.85"/>
<rect x="1040.14" y="616.92" width="26.02" height="13.08" fill="#76B7B2" opacity="0.85"/>
<rect x="236.43" y="630.00" width="26.02" height="0.00" fill="#59A14F" opacity="0.85"/>
<rect x="444.43" y="630.00" width="26.02" height="0.00" fill="#59A14F" opacity="0.85"/>
<rect x="652.43" y="630.00" width="26.02" height="0.00" fill="#59A14F" opacity="0.85"/>
<rect x="860.43" y="630.00" width="26.02" height="0.00" fill="#59A14F" opacity="0.85"/>
<rect x="1068.43" y="628.31" width="26.02" height="1.69" fill="#59A14F" opacity="0.85"/>
</svg>