<svg xmlns="http://www.w3.org/2000/svg" width="1200" height="720" viewBox="0 0 1200 720">
<rect x="0" y="0" width="100%" height="100%" fill="#ffffff"/>
<text x="40" y="42" font-size="26" font-family="Arial, PingFang SC, Microsoft YaHei, sans-serif" fill="#222">财务比率分析图</text>
<rect x="40" y="60" width="22" height="10" fill="#4E79A7"/>
<text x="68" y="70" font-size="16" font-family="Arial, PingFang SC, Microsoft YaHei, sans-serif" fill="#333">资产负债率</text>
<rect x="210" y="60" width="22" height="10" fill="#F28E2B"/>
<text x="238" y="70" font-size="16" font-family="Arial, PingFang SC, Microsoft YaHei, sans-serif" fill="#333">流动比率</text>
<rect x="380" y="60" width="22" height="10" fill="#E15759"/>
<text x="408" y="70" font-size="16" font-family="Arial, PingFang SC, Microsoft YaHei, sans-serif" fill="#333">速动比率</text>
<rect x="550" y="60" width="22" height="10" fill="#76B7B2"/>
<text x="578" y="70" font-size="16" font-family="Arial, PingFang SC, Microsoft YaHei, sans-serif" fill="#333">应收周转率</text>
<rect x="720" y="60" width="22" height="10" fill="#59A14F"/>
<text x="748" y="70" font-size="16" font-family="Arial, PingFang SC, Microsoft YaHei, sans-serif" fill="#333">存货周转率</text>
<line x1="90" y1="130" x2="90" y2="630" stroke="#555" stroke-width="1"/>
<line x1="90" y1="630.0" x2="1130" y2="630.0" stroke="#555" stroke-width="1"/>
<line x1="90" y1="630.0" x2="1130" y2="630.0" stroke="#eee" stroke-width="1"/>
<text x="78" y="635.0" text-anchor="end" font-size="14" font-family="Arial, PingFang SC, Microsoft YaHei, sans-serif" fill="#666">0.00</text>
<line x1="90" y1="530.0" x2="1130" y2="530.0" stroke="#eee" stroke-width="1"/>
<text x="78" y="535.0" text-anchor="end" font-size="14" font-family="Arial, PingFang SC, Microsoft YaHei, sans-serif" fill="#666">6.85</text>
<line x1="90" y1="430.0" x2="1130" y2="430.0" stroke="#eee" stroke-width="1"/>
<text x="78" y="435.0" text-anchor="end" font-size="14" font-family="Arial, PingFang SC, Microsoft YaHei, sans-serif" fill="#666">13.69</text>
<line x1="90" y1="329.99999999999994" x2="1130" y2="329.99999999999994" stroke="#eee" stroke-width="1"/>
<text x="78" y="334.99999999999994" text-anchor="end" font-size="14" font-family="Arial, PingFang SC, Microsoft YaHei, sans-serif" fill="#666">20.54</text>
<line x1="90" y1="230.0" x2="1130" y2="230.0" stroke="#eee" stroke-width="1"/>
<text x="78" y="235.0" text-anchor="end" font-size="14" font-family="Arial, PingFang SC, Microsoft YaHei, sans-serif" fill="#666">27.38</text>
<line x1="90" y1="130.0" x2="1130" y2="130.0" stroke="#eee" stroke-width="1"/>
<text x="78" y="135.0" text-anchor="end" font-size="14" font-family="Arial, PingFang SC, Microsoft YaHei, sans-serif" fill="#666">34.23</text>
<text x="194.0" y="658" text-anchor="middle" font-size="14" font-family="Arial, PingFang SC, Microsoft YaHei, sans-serif" fill="#666">2021</text>
<text x="402.0" y="658" text-anchor="middle" font-size="14" font-family="Arial, PingFang SC, Microsoft YaHei, sans-serif" fill="#666">2022</text>
<text x="610.0" y="658" text-anchor="middle" font-size="14" font-family="Arial, PingFang SC, Microsoft YaHei, sans-serif" fill="#666">2023</text>
<text x="818.0" y="658" text-anchor="middle" font-size="14" font-family="Arial, PingFang SC, Microsoft YaHei, sans-serif" fill="#666">2024</text>
<text x="1026.0" y="658" text-anchor="middle" font-size="14" font-family="Arial, PingFang SC, Microsoft YaHei, sans-serif" fill="#666">2025</text>
<rect x="123.28" y="553.61" width="65.06" height="76.39" fill="#4E79A7" opacity="0.85"/>
<rect x="331.28" y="561.64" width="65.06" height="68.36" fill="#4E79A7" opacity="0.85"/>
<rect x="539.28" y="573.32" width="65.06" height="56.68" fill="#4E79A7" opacity="0.85"/>
<rect x="747.28" y="568.65" width="65.06" height="61.35" fill="#4E79A7" opacity="0.85"/>
<rect x="955.28" y="558.86" width="65.06" height="71.14" fill="#4E79A7" opacity="0.85"/>
<rect x="194.00" y="576.39" width="65.06" height="53.61" fill="#F28E2B" opacity="0.85"/>
<rect x="402.00" y="589.83" width="65.06" height="40.17" fill="#F28E2B" opacity="0.85"/>
<rect x="610.00" y="596.55" width="65.06" height="33.45" fill="#F28E2B" opacity="0.85"/>
<rect x="818.00" y="593.92" width="65.06" height="36.08" fill="#F28E2B" opacity="0.85"/>
<rect x="1026.00" y="586.03" width="65.06" height="43.97" fill="#F28E2B" opacity="0.85"/>
<polyline fill="none" stroke="#E15759" stroke-width="3" points="194.00,265.70 402.00,195.88 610.00,254.89 818.00,215.74 1026.00,130.00"/>
<circle cx="194.00" cy="265.70" r="4" fill="#E15759"/>
<circle cx="402.00" cy="195.88" r="4" fill="#E15759"/>
<circle cx="610.00" cy="254.89" r="4" fill="#E15759"/>
<circle cx="818.00" cy="215.74" r="4" fill="#E15759"/>
<circle cx="1026.00" cy="130.00" r="4" fill="#E15759"/>
<polyline fill="none" stroke="#76B7B2" stroke-width="3" points="194.00,589.39 402.00,596.70 610.00,594.80 818.00,599.33 1026.00,604.73"/>
<circle cx="194.00" cy="589.39" r="4" fill="#76B7B2"/>
<circle cx="402.00" cy="596.70" r="4" fill="#76B7B2"/>
<circle cx="610.00" cy="594.80" r="4" fill="#76B7B2"/>
<circle cx="818.00" cy="599.33" r="4" fill="#76B7B2"/>
<circle cx="1026.00" cy="604.73" r="4" fill="#76B7B2"/>
<polyline fill="none" stroke="#59A14F" stroke-width="3" points="194.00,601.37 402.00,607.21 610.00,605.02 818.00,607.21 1026.00,610.86"/>
<circle cx="194.00" cy="601.37" r="4" fill="#59A14F"/>
<circle cx="402.00" cy="607.21" r="4" fill="#59A14F"/>
<circle cx="610.00" cy="605.02" r="4" fill="#59A14F"/>
<circle cx="818.00" cy="607.21" r="4" fill="#59A14F"/>
<circle cx="1026.00" cy="610.86" r="4" fill="#59A14F"/>
</svg>