<svg xmlns="http://www.w3.org/2000/svg" width="1200" height="720" viewBox="0 0 1200 720">
<rect x="0" y="0" width="100%" height="100%" fill="#ffffff"/>
<text x="40" y="42" font-size="26" font-family="Arial, PingFang SC, Microsoft YaHei, sans-serif" fill="#222">分产品收入变化图</text>
<rect x="40" y="60" width="22" height="10" fill="#4E79A7"/>
<text x="68" y="70" font-size="16" font-family="Arial, PingFang SC, Microsoft YaHei, sans-serif" fill="#333">电器机械及器材制造业</text>
<rect x="210" y="60" width="22" height="10" fill="#F28E2B"/>
<text x="238" y="70" font-size="16" font-family="Arial, PingFang SC, Microsoft YaHei, sans-serif" fill="#333">控制电机及其驱动系统产品</text>
<rect x="380" y="60" width="22" height="10" fill="#E15759"/>
<text x="408" y="70" font-size="16" font-family="Arial, PingFang SC, Microsoft YaHei, sans-serif" fill="#333">国外</text>
<rect x="550" y="60" width="22" height="10" fill="#76B7B2"/>
<text x="578" y="70" font-size="16" font-family="Arial, PingFang SC, Microsoft YaHei, sans-serif" fill="#333">贸易代理业务</text>
<rect x="720" y="60" width="22" height="10" fill="#59A14F"/>
<text x="748" y="70" font-size="16" font-family="Arial, PingFang SC, Microsoft YaHei, sans-serif" fill="#333">智能型照明控制与驱动</text>
<line x1="90" y1="130" x2="90" y2="630" stroke="#555" stroke-width="1"/>
<line x1="90" y1="630.0" x2="1130" y2="630.0" stroke="#555" stroke-width="1"/>
<line x1="90" y1="630.0" x2="1130" y2="630.0" stroke="#eee" stroke-width="1"/>
<text x="78" y="635.0" text-anchor="end" font-size="14" font-family="Arial, PingFang SC, Microsoft YaHei, sans-serif" fill="#666">0.00</text>
<line x1="90" y1="530.0" x2="1130" y2="530.0" stroke="#eee" stroke-width="1"/>
<text x="78" y="535.0" text-anchor="end" font-size="14" font-family="Arial, PingFang SC, Microsoft YaHei, sans-serif" fill="#666">6.78</text>
<line x1="90" y1="430.0" x2="1130" y2="430.0" stroke="#eee" stroke-width="1"/>
<text x="78" y="435.0" text-anchor="end" font-size="14" font-family="Arial, PingFang SC, Microsoft YaHei, sans-serif" fill="#666">13.57</text>
<line x1="90" y1="330.0" x2="1130" y2="330.0" stroke="#eee" stroke-width="1"/>
<text x="78" y="335.0" text-anchor="end" font-size="14" font-family="Arial, PingFang SC, Microsoft YaHei, sans-serif" fill="#666">20.35</text>
<line x1="90" y1="229.99999999999997" x2="1130" y2="229.99999999999997" stroke="#eee" stroke-width="1"/>
<text x="78" y="234.99999999999997" text-anchor="end" font-size="14" font-family="Arial, PingFang SC, Microsoft YaHei, sans-serif" fill="#666">27.14</text>
<line x1="90" y1="130.0" x2="1130" y2="130.0" stroke="#eee" stroke-width="1"/>
<text x="78" y="135.0" text-anchor="end" font-size="14" font-family="Arial, PingFang SC, Microsoft YaHei, sans-serif" fill="#666">33.92</text>
<text x="194.0" y="658" text-anchor="middle" font-size="14" font-family="Arial, PingFang SC, Microsoft YaHei, sans-serif" fill="#666">2021</text>
<text x="402.0" y="658" text-anchor="middle" font-size="14" font-family="Arial, PingFang SC, Microsoft YaHei, sans-serif" fill="#666">2022</text>
<text x="610.0" y="658" text-anchor="middle" font-size="14" font-family="Arial, PingFang SC, Microsoft YaHei, sans-serif" fill="#666">2023</text>
<text x="818.0" y="658" text-anchor="middle" font-size="14" font-family="Arial, PingFang SC, Microsoft YaHei, sans-serif" fill="#666">2024</text>
<text x="1026.0" y="658" text-anchor="middle" font-size="14" font-family="Arial, PingFang SC, Microsoft YaHei, sans-serif" fill="#666">2025</text>
<rect x="123.28" y="229.94" width="26.02" height="400.06" fill="#4E79A7" opacity="0.85"/>
<rect x="331.28" y="193.68" width="26.02" height="436.32" fill="#4E79A7" opacity="0.85"/>
<rect x="539.28" y="255.15" width="26.02" height="374.85" fill="#4E79A7" opacity="0.85"/>
<rect x="747.28" y="273.87" width="26.02" height="356.13" fill="#4E79A7" opacity="0.85"/>
<rect x="955.28" y="222.87" width="26.02" height="407.13" fill="#4E79A7" opacity="0.85"/>
<rect x="151.57" y="171.27" width="26.02" height="458.73" fill="#F28E2B" opacity="0.85"/>
<rect x="359.57" y="139.43" width="26.02" height="490.57" fill="#F28E2B" opacity="0.85"/>
<rect x="567.57" y="166.41" width="26.02" height="463.59" fill="#F28E2B" opacity="0.85"/>
<rect x="775.57" y="187.78" width="26.02" height="442.22" fill="#F28E2B" opacity="0.85"/>
<rect x="983.57" y="130.00" width="26.02" height="500.00" fill="#F28E2B" opacity="0.85"/>
<rect x="179.86" y="377.94" width="26.02" height="252.06" fill="#E15759" opacity="0.85"/>
<rect x="387.86" y="330.91" width="26.02" height="299.09" fill="#E15759" opacity="0.85"/>
<rect x="595.86" y="355.68" width="26.02" height="274.32" fill="#E15759" opacity="0.85"/>
<rect x="803.86" y="386.19" width="26.02" height="243.81" fill="#E15759" opacity="0.85"/>
<rect x="1011.86" y="359.95" width="26.02" height="270.05" fill="#E15759" opacity="0.85"/>
<rect x="208.14" y="549.81" width="26.02" height="80.19" fill="#76B7B2" opacity="0.85"/>
<rect x="416.14" y="556.15" width="26.02" height="73.85" fill="#76B7B2" opacity="0.85"/>
<rect x="624.14" y="572.66" width="26.02" height="57.34" fill="#76B7B2" opacity="0.85"/>
<rect x="832.14" y="577.97" width="26.02" height="52.03" fill="#76B7B2" opacity="0.85"/>
<rect x="1040.14" y="581.80" width="26.02" height="48.20" fill="#76B7B2" opacity="0.85"/>
<rect x="236.43" y="630.00" width="26.02" height="0.00" fill="#59A14F" opacity="0.85"/>
<rect x="444.43" y="597.42" width="26.02" height="32.58" fill="#59A14F" opacity="0.85"/>
<rect x="652.43" y="593.59" width="26.02" height="36.41" fill="#59A14F" opacity="0.85"/>
<rect x="860.43" y="590.20" width="26.02" height="39.80" fill="#59A14F" opacity="0.85"/>
<rect x="1068.43" y="587.40" width="26.02" height="42.60" fill="#59A14F" opacity="0.85"/>
</svg>