<svg xmlns="http://www.w3.org/2000/svg" width="1200" height="720" viewBox="0 0 1200 720">
<rect x="0" y="0" width="100%" height="100%" fill="#ffffff"/>
<text x="40" y="42" font-size="26" font-family="Arial, PingFang SC, Microsoft YaHei, sans-serif" fill="#222">分产品收入结构图</text>
<path d="M 380.00 390.00 L 380.00 170.00 A 220.00 220.00 0 0 1 500.09 574.33 Z" fill="#4E79A7" stroke="#fff" stroke-width="1"/>
<path d="M 380.00 390.00 L 500.09 574.33 A 220.00 220.00 0 0 1 160.04 394.29 Z" fill="#F28E2B" stroke="#fff" stroke-width="1"/>
<path d="M 380.00 390.00 L 160.04 394.29 A 220.00 220.00 0 0 1 287.39 190.44 Z" fill="#E15759" stroke="#fff" stroke-width="1"/>
<path d="M 380.00 390.00 L 287.39 190.44 A 220.00 220.00 0 0 1 329.20 175.95 Z" fill="#76B7B2" stroke="#fff" stroke-width="1"/>
<path d="M 380.00 390.00 L 329.20 175.95 A 220.00 220.00 0 0 1 369.18 170.27 Z" fill="#59A14F" stroke="#fff" stroke-width="1"/>
<path d="M 380.00 390.00 L 369.18 170.27 A 220.00 220.00 0 0 1 379.80 170.00 Z" fill="#EDC948" stroke="#fff" stroke-width="1"/>
<path d="M 380.00 390.00 L 379.80 170.00 A 220.00 220.00 0 0 1 380.00 170.00 Z" fill="#B07AA1" stroke="#fff" stroke-width="1"/>
<rect x="700" y="179" width="20" height="12" fill="#4E79A7"/>
<text x="728" y="190" font-size="14" font-family="Arial, PingFang SC, Microsoft YaHei, sans-serif" fill="#333">电器机械及器材制造业  27.62 (40.8%)</text>
<rect x="700" y="209" width="20" height="12" fill="#F28E2B"/>
<text x="728" y="220" font-size="14" font-family="Arial, PingFang SC, Microsoft YaHei, sans-serif" fill="#333">控制电机及其驱动系统产品  22.93 (33.9%)</text>
<rect x="700" y="239" width="20" height="12" fill="#E15759"/>
<text x="728" y="250" font-size="14" font-family="Arial, PingFang SC, Microsoft YaHei, sans-serif" fill="#333">国外  12.45 (18.4%)</text>
<rect x="700" y="269" width="20" height="12" fill="#76B7B2"/>
<text x="728" y="280" font-size="14" font-family="Arial, PingFang SC, Microsoft YaHei, sans-serif" fill="#333">贸易代理业务  2.17 (3.2%)</text>
<rect x="700" y="299" width="20" height="12" fill="#59A14F"/>
<text x="728" y="310" font-size="14" font-family="Arial, PingFang SC, Microsoft YaHei, sans-serif" fill="#333">智能型照明控制与驱动  1.98 (2.9%)</text>
<rect x="700" y="329" width="20" height="12" fill="#EDC948"/>
<text x="728" y="340" font-size="14" font-family="Arial, PingFang SC, Microsoft YaHei, sans-serif" fill="#333">设备状态管理系统产品  0.52 (0.8%)</text>
<rect x="700" y="359" width="20" height="12" fill="#B07AA1"/>
<text x="728" y="370" font-size="14" font-family="Arial, PingFang SC, Microsoft YaHei, sans-serif" fill="#333">其他业务  0.01 (0.0%)</text>
</svg>