<svg xmlns="http://www.w3.org/2000/svg" width="1200" height="720" viewBox="0 0 1200 720">
<rect x="0" y="0" width="100%" height="100%" fill="#ffffff"/>
<text x="40" y="42" font-size="26" font-family="Arial, PingFang SC, Microsoft YaHei, sans-serif" fill="#222">分产品利润结构图</text>
<rect x="40" y="60" width="22" height="10" fill="#4E79A7"/>
<text x="68" y="70" font-size="16" font-family="Arial, PingFang SC, Microsoft YaHei, sans-serif" fill="#333">利润</text>
<rect x="210" y="60" width="22" height="10" fill="#F28E2B"/>
<text x="238" y="70" font-size="16" font-family="Arial, PingFang SC, Microsoft YaHei, sans-serif" fill="#333">毛利率</text>
<line x1="90" y1="130" x2="90" y2="630" stroke="#555" stroke-width="1"/>
<line x1="90" y1="630.0" x2="1130" y2="630.0" stroke="#555" stroke-width="1"/>
<line x1="90" y1="630.0" x2="1130" y2="630.0" stroke="#eee" stroke-width="1"/>
<text x="78" y="635.0" text-anchor="end" font-size="14" font-family="Arial, PingFang SC, Microsoft YaHei, sans-serif" fill="#666">0.00</text>
<line x1="90" y1="530.0" x2="1130" y2="530.0" stroke="#eee" stroke-width="1"/>
<text x="78" y="535.0" text-anchor="end" font-size="14" font-family="Arial, PingFang SC, Microsoft YaHei, sans-serif" fill="#666">13.95</text>
<line x1="90" y1="430.0" x2="1130" y2="430.0" stroke="#eee" stroke-width="1"/>
<text x="78" y="435.0" text-anchor="end" font-size="14" font-family="Arial, PingFang SC, Microsoft YaHei, sans-serif" fill="#666">27.90</text>
<line x1="90" y1="329.99999999999994" x2="1130" y2="329.99999999999994" stroke="#eee" stroke-width="1"/>
<text x="78" y="334.99999999999994" text-anchor="end" font-size="14" font-family="Arial, PingFang SC, Microsoft YaHei, sans-serif" fill="#666">41.86</text>
<line x1="90" y1="229.99999999999997" x2="1130" y2="229.99999999999997" stroke="#eee" stroke-width="1"/>
<text x="78" y="234.99999999999997" text-anchor="end" font-size="14" font-family="Arial, PingFang SC, Microsoft YaHei, sans-serif" fill="#666">55.81</text>
<line x1="90" y1="130.0" x2="1130" y2="130.0" stroke="#eee" stroke-width="1"/>
<text x="78" y="135.0" text-anchor="end" font-size="14" font-family="Arial, PingFang SC, Microsoft YaHei, sans-serif" fill="#666">69.76</text>
<text x="164.28571428571428" y="658" text-anchor="middle" font-size="14" font-family="Arial, PingFang SC, Microsoft YaHei, sans-serif" fill="#666">电器机械及器材制造业</text>
<text x="312.8571428571429" y="658" text-anchor="middle" font-size="14" font-family="Arial, PingFang SC, Microsoft YaHei, sans-serif" fill="#666">控制电机及其驱动系统产品</text>
<text x="461.42857142857144" y="658" text-anchor="middle" font-size="14" font-family="Arial, PingFang SC, Microsoft YaHei, sans-serif" fill="#666">国外</text>
<text x="610.0" y="658" text-anchor="middle" font-size="14" font-family="Arial, PingFang SC, Microsoft YaHei, sans-serif" fill="#666">贸易代理业务</text>
<text x="758.5714285714287" y="658" text-anchor="middle" font-size="14" font-family="Arial, PingFang SC, Microsoft YaHei, sans-serif" fill="#666">智能型照明控制与驱动</text>
<text x="907.1428571428572" y="658" text-anchor="middle" font-size="14" font-family="Arial, PingFang SC, Microsoft YaHei, sans-serif" fill="#666">设备状态管理系统产品</text>
<text x="1055.7142857142858" y="658" text-anchor="middle" font-size="14" font-family="Arial, PingFang SC, Microsoft YaHei, sans-serif" fill="#666">其他业务</text>
<rect x="113.77" y="557.97" width="92.95" height="72.03" fill="#4E79A7" opacity="0.85"/>
<rect x="262.34" y="569.58" width="92.95" height="60.42" fill="#4E79A7" opacity="0.85"/>
<rect x="410.91" y="586.21" width="92.95" height="43.79" fill="#4E79A7" opacity="0.85"/>
<rect x="559.49" y="626.56" width="92.95" height="3.44" fill="#4E79A7" opacity="0.85"/>
<rect x="708.06" y="624.41" width="92.95" height="5.59" fill="#4E79A7" opacity="0.85"/>
<rect x="856.63" y="627.35" width="92.95" height="2.65" fill="#4E79A7" opacity="0.85"/>
<rect x="1005.20" y="630.00" width="92.95" height="0.00" fill="#4E79A7" opacity="0.85"/>
<polyline fill="none" stroke="#F28E2B" stroke-width="3" points="164.29,369.18 312.86,366.45 461.43,278.29 610.00,472.46 758.57,349.40 907.14,130.00 1055.71,574.31"/>
<circle cx="164.29" cy="369.18" r="4" fill="#F28E2B"/>
<circle cx="312.86" cy="366.45" r="4" fill="#F28E2B"/>
<circle cx="461.43" cy="278.29" r="4" fill="#F28E2B"/>
<circle cx="610.00" cy="472.46" r="4" fill="#F28E2B"/>
<circle cx="758.57" cy="349.40" r="4" fill="#F28E2B"/>
<circle cx="907.14" cy="130.00" r="4" fill="#F28E2B"/>
<circle cx="1055.71" cy="574.31" r="4" fill="#F28E2B"/>
</svg>