<svg xmlns="http://www.w3.org/2000/svg" width="1200" height="720" viewBox="0 0 1200 720">
<rect x="0" y="0" width="100%" height="100%" fill="#ffffff"/>
<text x="40" y="42" font-size="26" font-family="Arial, PingFang SC, Microsoft YaHei, sans-serif" fill="#222">分产品收入变化图</text>
<rect x="40" y="60" width="22" height="10" fill="#4E79A7"/>
<text x="68" y="70" font-size="16" font-family="Arial, PingFang SC, Microsoft YaHei, sans-serif" fill="#333">植物蛋白饮料</text>
<rect x="210" y="60" width="22" height="10" fill="#F28E2B"/>
<text x="238" y="70" font-size="16" font-family="Arial, PingFang SC, Microsoft YaHei, sans-serif" fill="#333">杏仁露</text>
<rect x="380" y="60" width="22" height="10" fill="#E15759"/>
<text x="408" y="70" font-size="16" font-family="Arial, PingFang SC, Microsoft YaHei, sans-serif" fill="#333">北部</text>
<rect x="550" y="60" width="22" height="10" fill="#76B7B2"/>
<text x="578" y="70" font-size="16" font-family="Arial, PingFang SC, Microsoft YaHei, sans-serif" fill="#333">中部</text>
<rect x="720" y="60" width="22" height="10" fill="#59A14F"/>
<text x="748" y="70" font-size="16" font-family="Arial, PingFang SC, Microsoft YaHei, sans-serif" fill="#333">果仁核桃露</text>
<line x1="90" y1="130" x2="90" y2="630" stroke="#555" stroke-width="1"/>
<line x1="90" y1="630.0" x2="1130" y2="630.0" stroke="#555" stroke-width="1"/>
<line x1="90" y1="630.0" x2="1130" y2="630.0" stroke="#eee" stroke-width="1"/>
<text x="78" y="635.0" text-anchor="end" font-size="14" font-family="Arial, PingFang SC, Microsoft YaHei, sans-serif" fill="#666">0.00</text>
<line x1="90" y1="530.0" x2="1130" y2="530.0" stroke="#eee" stroke-width="1"/>
<text x="78" y="535.0" text-anchor="end" font-size="14" font-family="Arial, PingFang SC, Microsoft YaHei, sans-serif" fill="#666">9.84</text>
<line x1="90" y1="430.0" x2="1130" y2="430.0" stroke="#eee" stroke-width="1"/>
<text x="78" y="435.0" text-anchor="end" font-size="14" font-family="Arial, PingFang SC, Microsoft YaHei, sans-serif" fill="#666">19.67</text>
<line x1="90" y1="330.0" x2="1130" y2="330.0" stroke="#eee" stroke-width="1"/>
<text x="78" y="335.0" text-anchor="end" font-size="14" font-family="Arial, PingFang SC, Microsoft YaHei, sans-serif" fill="#666">29.51</text>
<line x1="90" y1="230.0" x2="1130" y2="230.0" stroke="#eee" stroke-width="1"/>
<text x="78" y="235.0" text-anchor="end" font-size="14" font-family="Arial, PingFang SC, Microsoft YaHei, sans-serif" fill="#666">39.34</text>
<line x1="90" y1="130.0" x2="1130" y2="130.0" stroke="#eee" stroke-width="1"/>
<text x="78" y="135.0" text-anchor="end" font-size="14" font-family="Arial, PingFang SC, Microsoft YaHei, sans-serif" fill="#666">49.18</text>
<text x="194.0" y="658" text-anchor="middle" font-size="14" font-family="Arial, PingFang SC, Microsoft YaHei, sans-serif" fill="#666">2021</text>
<text x="402.0" y="658" text-anchor="middle" font-size="14" font-family="Arial, PingFang SC, Microsoft YaHei, sans-serif" fill="#666">2022</text>
<text x="610.0" y="658" text-anchor="middle" font-size="14" font-family="Arial, PingFang SC, Microsoft YaHei, sans-serif" fill="#666">2023</text>
<text x="818.0" y="658" text-anchor="middle" font-size="14" font-family="Arial, PingFang SC, Microsoft YaHei, sans-serif" fill="#666">2024</text>
<text x="1026.0" y="658" text-anchor="middle" font-size="14" font-family="Arial, PingFang SC, Microsoft YaHei, sans-serif" fill="#666">2025</text>
<rect x="123.28" y="235.43" width="26.02" height="394.57" fill="#4E79A7" opacity="0.85"/>
<rect x="331.28" y="207.98" width="26.02" height="422.02" fill="#4E79A7" opacity="0.85"/>
<rect x="539.28" y="177.99" width="26.02" height="452.01" fill="#4E79A7" opacity="0.85"/>
<rect x="747.28" y="130.00" width="26.02" height="500.00" fill="#4E79A7" opacity="0.85"/>
<rect x="955.28" y="167.01" width="26.02" height="462.99" fill="#4E79A7" opacity="0.85"/>
<rect x="151.57" y="242.55" width="26.02" height="387.45" fill="#F28E2B" opacity="0.85"/>
<rect x="359.57" y="215.40" width="26.02" height="414.60" fill="#F28E2B" opacity="0.85"/>
<rect x="567.57" y="190.90" width="26.02" height="439.10" fill="#F28E2B" opacity="0.85"/>
<rect x="775.57" y="144.95" width="26.02" height="485.05" fill="#F28E2B" opacity="0.85"/>
<rect x="983.57" y="193.64" width="26.02" height="436.36" fill="#F28E2B" opacity="0.85"/>
<rect x="179.86" y="266.74" width="26.02" height="363.26" fill="#E15759" opacity="0.85"/>
<rect x="387.86" y="239.39" width="26.02" height="390.61" fill="#E15759" opacity="0.85"/>
<rect x="595.86" y="219.98" width="26.02" height="410.02" fill="#E15759" opacity="0.85"/>
<rect x="803.86" y="174.73" width="26.02" height="455.27" fill="#E15759" opacity="0.85"/>
<rect x="1011.86" y="211.94" width="26.02" height="418.06" fill="#E15759" opacity="0.85"/>
<rect x="208.14" y="608.04" width="26.02" height="21.96" fill="#76B7B2" opacity="0.85"/>
<rect x="416.14" y="606.82" width="26.02" height="23.18" fill="#76B7B2" opacity="0.85"/>
<rect x="624.14" y="601.94" width="26.02" height="28.06" fill="#76B7B2" opacity="0.85"/>
<rect x="832.14" y="600.82" width="26.02" height="29.18" fill="#76B7B2" opacity="0.85"/>
<rect x="1040.14" y="603.46" width="26.02" height="26.54" fill="#76B7B2" opacity="0.85"/>
<rect x="236.43" y="622.88" width="26.02" height="7.12" fill="#59A14F" opacity="0.85"/>
<rect x="444.43" y="622.58" width="26.02" height="7.42" fill="#59A14F" opacity="0.85"/>
<rect x="652.43" y="617.70" width="26.02" height="12.30" fill="#59A14F" opacity="0.85"/>
<rect x="860.43" y="617.29" width="26.02" height="12.71" fill="#59A14F" opacity="0.85"/>
<rect x="1068.43" y="617.09" width="26.02" height="12.91" fill="#59A14F" opacity="0.85"/>
</svg>