<svg xmlns="http://www.w3.org/2000/svg" width="1200" height="720" viewBox="0 0 1200 720">
<rect x="0" y="0" width="100%" height="100%" fill="#ffffff"/>
<text x="40" y="42" font-size="26" font-family="Arial, PingFang SC, Microsoft YaHei, sans-serif" fill="#222">分产品收入变化图</text>
<rect x="40" y="60" width="22" height="10" fill="#4E79A7"/>
<text x="68" y="70" font-size="16" font-family="Arial, PingFang SC, Microsoft YaHei, sans-serif" fill="#333">汽车零部件</text>
<rect x="210" y="60" width="22" height="10" fill="#F28E2B"/>
<text x="238" y="70" font-size="16" font-family="Arial, PingFang SC, Microsoft YaHei, sans-serif" fill="#333">底盘零部件</text>
<rect x="380" y="60" width="22" height="10" fill="#E15759"/>
<text x="408" y="70" font-size="16" font-family="Arial, PingFang SC, Microsoft YaHei, sans-serif" fill="#333">空调压缩机</text>
<rect x="550" y="60" width="22" height="10" fill="#76B7B2"/>
<text x="578" y="70" font-size="16" font-family="Arial, PingFang SC, Microsoft YaHei, sans-serif" fill="#333">铝合金轻量化业务</text>
<rect x="720" y="60" width="22" height="10" fill="#59A14F"/>
<text x="748" y="70" font-size="16" font-family="Arial, PingFang SC, Microsoft YaHei, sans-serif" fill="#333">国外</text>
<line x1="90" y1="130" x2="90" y2="630" stroke="#555" stroke-width="1"/>
<line x1="90" y1="630.0" x2="1130" y2="630.0" stroke="#555" stroke-width="1"/>
<line x1="90" y1="630.0" x2="1130" y2="630.0" stroke="#eee" stroke-width="1"/>
<text x="78" y="635.0" text-anchor="end" font-size="14" font-family="Arial, PingFang SC, Microsoft YaHei, sans-serif" fill="#666">0.00</text>
<line x1="90" y1="530.0" x2="1130" y2="530.0" stroke="#eee" stroke-width="1"/>
<text x="78" y="535.0" text-anchor="end" font-size="14" font-family="Arial, PingFang SC, Microsoft YaHei, sans-serif" fill="#666">4.58</text>
<line x1="90" y1="430.0" x2="1130" y2="430.0" stroke="#eee" stroke-width="1"/>
<text x="78" y="435.0" text-anchor="end" font-size="14" font-family="Arial, PingFang SC, Microsoft YaHei, sans-serif" fill="#666">9.16</text>
<line x1="90" y1="330.0" x2="1130" y2="330.0" stroke="#eee" stroke-width="1"/>
<text x="78" y="335.0" text-anchor="end" font-size="14" font-family="Arial, PingFang SC, Microsoft YaHei, sans-serif" fill="#666">13.75</text>
<line x1="90" y1="230.0" x2="1130" y2="230.0" stroke="#eee" stroke-width="1"/>
<text x="78" y="235.0" text-anchor="end" font-size="14" font-family="Arial, PingFang SC, Microsoft YaHei, sans-serif" fill="#666">18.33</text>
<line x1="90" y1="130.0" x2="1130" y2="130.0" stroke="#eee" stroke-width="1"/>
<text x="78" y="135.0" text-anchor="end" font-size="14" font-family="Arial, PingFang SC, Microsoft YaHei, sans-serif" fill="#666">22.91</text>
<text x="194.0" y="658" text-anchor="middle" font-size="14" font-family="Arial, PingFang SC, Microsoft YaHei, sans-serif" fill="#666">2021</text>
<text x="402.0" y="658" text-anchor="middle" font-size="14" font-family="Arial, PingFang SC, Microsoft YaHei, sans-serif" fill="#666">2022</text>
<text x="610.0" y="658" text-anchor="middle" font-size="14" font-family="Arial, PingFang SC, Microsoft YaHei, sans-serif" fill="#666">2023</text>
<text x="818.0" y="658" text-anchor="middle" font-size="14" font-family="Arial, PingFang SC, Microsoft YaHei, sans-serif" fill="#666">2024</text>
<text x="1026.0" y="658" text-anchor="middle" font-size="14" font-family="Arial, PingFang SC, Microsoft YaHei, sans-serif" fill="#666">2025</text>
<rect x="123.28" y="257.24" width="26.02" height="372.76" fill="#4E79A7" opacity="0.85"/>
<rect x="331.28" y="264.88" width="26.02" height="365.12" fill="#4E79A7" opacity="0.85"/>
<rect x="539.28" y="225.15" width="26.02" height="404.85" fill="#4E79A7" opacity="0.85"/>
<rect x="747.28" y="194.60" width="26.02" height="435.40" fill="#4E79A7" opacity="0.85"/>
<rect x="955.28" y="130.00" width="26.02" height="500.00" fill="#4E79A7" opacity="0.85"/>
<rect x="151.57" y="314.64" width="26.02" height="315.36" fill="#F28E2B" opacity="0.85"/>
<rect x="359.57" y="292.37" width="26.02" height="337.63" fill="#F28E2B" opacity="0.85"/>
<rect x="567.57" y="273.61" width="26.02" height="356.39" fill="#F28E2B" opacity="0.85"/>
<rect x="775.57" y="200.27" width="26.02" height="429.73" fill="#F28E2B" opacity="0.85"/>
<rect x="983.57" y="157.50" width="26.02" height="472.50" fill="#F28E2B" opacity="0.85"/>
<rect x="179.86" y="410.23" width="26.02" height="219.77" fill="#E15759" opacity="0.85"/>
<rect x="387.86" y="492.29" width="26.02" height="137.71" fill="#E15759" opacity="0.85"/>
<rect x="595.86" y="483.12" width="26.02" height="146.88" fill="#E15759" opacity="0.85"/>
<rect x="803.86" y="475.26" width="26.02" height="154.74" fill="#E15759" opacity="0.85"/>
<rect x="1011.86" y="416.56" width="26.02" height="213.44" fill="#E15759" opacity="0.85"/>
<rect x="208.14" y="630.00" width="26.02" height="0.00" fill="#76B7B2" opacity="0.85"/>
<rect x="416.14" y="618.21" width="26.02" height="11.79" fill="#76B7B2" opacity="0.85"/>
<rect x="624.14" y="590.50" width="26.02" height="39.50" fill="#76B7B2" opacity="0.85"/>
<rect x="832.14" y="586.13" width="26.02" height="43.87" fill="#76B7B2" opacity="0.85"/>
<rect x="1040.14" y="566.05" width="26.02" height="63.95" fill="#76B7B2" opacity="0.85"/>
<rect x="236.43" y="614.29" width="26.02" height="15.71" fill="#59A14F" opacity="0.85"/>
<rect x="444.43" y="598.57" width="26.02" height="31.43" fill="#59A14F" opacity="0.85"/>
<rect x="652.43" y="588.32" width="26.02" height="41.68" fill="#59A14F" opacity="0.85"/>
<rect x="860.43" y="584.39" width="26.02" height="45.61" fill="#59A14F" opacity="0.85"/>
<rect x="1068.43" y="601.85" width="26.02" height="28.15" fill="#59A14F" opacity="0.85"/>
</svg>