<svg xmlns="http://www.w3.org/2000/svg" width="1200" height="720" viewBox="0 0 1200 720">
<rect x="0" y="0" width="100%" height="100%" fill="#ffffff"/>
<text x="40" y="42" font-size="26" font-family="Arial, PingFang SC, Microsoft YaHei, sans-serif" fill="#222">财务比率分析图</text>
<rect x="40" y="60" width="22" height="10" fill="#4E79A7"/>
<text x="68" y="70" font-size="16" font-family="Arial, PingFang SC, Microsoft YaHei, sans-serif" fill="#333">资产负债率</text>
<rect x="210" y="60" width="22" height="10" fill="#F28E2B"/>
<text x="238" y="70" font-size="16" font-family="Arial, PingFang SC, Microsoft YaHei, sans-serif" fill="#333">流动比率</text>
<rect x="380" y="60" width="22" height="10" fill="#E15759"/>
<text x="408" y="70" font-size="16" font-family="Arial, PingFang SC, Microsoft YaHei, sans-serif" fill="#333">速动比率</text>
<rect x="550" y="60" width="22" height="10" fill="#76B7B2"/>
<text x="578" y="70" font-size="16" font-family="Arial, PingFang SC, Microsoft YaHei, sans-serif" fill="#333">应收周转率</text>
<rect x="720" y="60" width="22" height="10" fill="#59A14F"/>
<text x="748" y="70" font-size="16" font-family="Arial, PingFang SC, Microsoft YaHei, sans-serif" fill="#333">存货周转率</text>
<line x1="90" y1="130" x2="90" y2="630" stroke="#555" stroke-width="1"/>
<line x1="90" y1="630.0" x2="1130" y2="630.0" stroke="#555" stroke-width="1"/>
<line x1="90" y1="630.0" x2="1130" y2="630.0" stroke="#eee" stroke-width="1"/>
<text x="78" y="635.0" text-anchor="end" font-size="14" font-family="Arial, PingFang SC, Microsoft YaHei, sans-serif" fill="#666">0.00</text>
<line x1="90" y1="530.0" x2="1130" y2="530.0" stroke="#eee" stroke-width="1"/>
<text x="78" y="535.0" text-anchor="end" font-size="14" font-family="Arial, PingFang SC, Microsoft YaHei, sans-serif" fill="#666">10.44</text>
<line x1="90" y1="430.0" x2="1130" y2="430.0" stroke="#eee" stroke-width="1"/>
<text x="78" y="435.0" text-anchor="end" font-size="14" font-family="Arial, PingFang SC, Microsoft YaHei, sans-serif" fill="#666">20.88</text>
<line x1="90" y1="330.0" x2="1130" y2="330.0" stroke="#eee" stroke-width="1"/>
<text x="78" y="335.0" text-anchor="end" font-size="14" font-family="Arial, PingFang SC, Microsoft YaHei, sans-serif" fill="#666">31.32</text>
<line x1="90" y1="229.99999999999997" x2="1130" y2="229.99999999999997" stroke="#eee" stroke-width="1"/>
<text x="78" y="234.99999999999997" text-anchor="end" font-size="14" font-family="Arial, PingFang SC, Microsoft YaHei, sans-serif" fill="#666">41.76</text>
<line x1="90" y1="130.0" x2="1130" y2="130.0" stroke="#eee" stroke-width="1"/>
<text x="78" y="135.0" text-anchor="end" font-size="14" font-family="Arial, PingFang SC, Microsoft YaHei, sans-serif" fill="#666">52.20</text>
<text x="194.0" y="658" text-anchor="middle" font-size="14" font-family="Arial, PingFang SC, Microsoft YaHei, sans-serif" fill="#666">2021</text>
<text x="402.0" y="658" text-anchor="middle" font-size="14" font-family="Arial, PingFang SC, Microsoft YaHei, sans-serif" fill="#666">2022</text>
<text x="610.0" y="658" text-anchor="middle" font-size="14" font-family="Arial, PingFang SC, Microsoft YaHei, sans-serif" fill="#666">2023</text>
<text x="818.0" y="658" text-anchor="middle" font-size="14" font-family="Arial, PingFang SC, Microsoft YaHei, sans-serif" fill="#666">2024</text>
<text x="1026.0" y="658" text-anchor="middle" font-size="14" font-family="Arial, PingFang SC, Microsoft YaHei, sans-serif" fill="#666">2025</text>
<rect x="123.28" y="596.57" width="65.06" height="33.43" fill="#4E79A7" opacity="0.85"/>
<rect x="331.28" y="597.24" width="65.06" height="32.76" fill="#4E79A7" opacity="0.85"/>
<rect x="539.28" y="596.09" width="65.06" height="33.91" fill="#4E79A7" opacity="0.85"/>
<rect x="747.28" y="596.76" width="65.06" height="33.24" fill="#4E79A7" opacity="0.85"/>
<rect x="955.28" y="595.33" width="65.06" height="34.67" fill="#4E79A7" opacity="0.85"/>
<rect x="194.00" y="598.30" width="65.06" height="31.70" fill="#F28E2B" opacity="0.85"/>
<rect x="402.00" y="602.70" width="65.06" height="27.30" fill="#F28E2B" opacity="0.85"/>
<rect x="610.00" y="600.98" width="65.06" height="29.02" fill="#F28E2B" opacity="0.85"/>
<rect x="818.00" y="599.44" width="65.06" height="30.56" fill="#F28E2B" opacity="0.85"/>
<rect x="1026.00" y="597.91" width="65.06" height="32.09" fill="#F28E2B" opacity="0.85"/>
<polyline fill="none" stroke="#E15759" stroke-width="3" points="194.00,159.69 402.00,161.51 610.00,160.08 818.00,172.43 1026.00,130.00"/>
<circle cx="194.00" cy="159.69" r="4" fill="#E15759"/>
<circle cx="402.00" cy="161.51" r="4" fill="#E15759"/>
<circle cx="610.00" cy="160.08" r="4" fill="#E15759"/>
<circle cx="818.00" cy="172.43" r="4" fill="#E15759"/>
<circle cx="1026.00" cy="130.00" r="4" fill="#E15759"/>
<polyline fill="none" stroke="#76B7B2" stroke-width="3" points="194.00,617.84 402.00,619.37 610.00,620.13 818.00,620.33 1026.00,619.94"/>
<circle cx="194.00" cy="617.84" r="4" fill="#76B7B2"/>
<circle cx="402.00" cy="619.37" r="4" fill="#76B7B2"/>
<circle cx="610.00" cy="620.13" r="4" fill="#76B7B2"/>
<circle cx="818.00" cy="620.33" r="4" fill="#76B7B2"/>
<circle cx="1026.00" cy="619.94" r="4" fill="#76B7B2"/>
<polyline fill="none" stroke="#59A14F" stroke-width="3" points="194.00,621.57 402.00,623.10 610.00,623.20 818.00,623.68 1026.00,622.91"/>
<circle cx="194.00" cy="621.57" r="4" fill="#59A14F"/>
<circle cx="402.00" cy="623.10" r="4" fill="#59A14F"/>
<circle cx="610.00" cy="623.20" r="4" fill="#59A14F"/>
<circle cx="818.00" cy="623.68" r="4" fill="#59A14F"/>
<circle cx="1026.00" cy="622.91" r="4" fill="#59A14F"/>
</svg>