<svg xmlns="http://www.w3.org/2000/svg" width="1200" height="720" viewBox="0 0 1200 720">
<rect x="0" y="0" width="100%" height="100%" fill="#ffffff"/>
<text x="40" y="42" font-size="26" font-family="Arial, PingFang SC, Microsoft YaHei, sans-serif" fill="#222">分产品收入变化图</text>
<rect x="40" y="60" width="22" height="10" fill="#4E79A7"/>
<text x="68" y="70" font-size="16" font-family="Arial, PingFang SC, Microsoft YaHei, sans-serif" fill="#333">酒类</text>
<rect x="210" y="60" width="22" height="10" fill="#F28E2B"/>
<text x="238" y="70" font-size="16" font-family="Arial, PingFang SC, Microsoft YaHei, sans-serif" fill="#333">中高档酒</text>
<rect x="380" y="60" width="22" height="10" fill="#E15759"/>
<text x="408" y="70" font-size="16" font-family="Arial, PingFang SC, Microsoft YaHei, sans-serif" fill="#333">其他酒类</text>
<rect x="550" y="60" width="22" height="10" fill="#76B7B2"/>
<text x="578" y="70" font-size="16" font-family="Arial, PingFang SC, Microsoft YaHei, sans-serif" fill="#333">国外</text>
<rect x="720" y="60" width="22" height="10" fill="#59A14F"/>
<text x="748" y="70" font-size="16" font-family="Arial, PingFang SC, Microsoft YaHei, sans-serif" fill="#333">其他(行业)</text>
<line x1="90" y1="130" x2="90" y2="630" stroke="#555" stroke-width="1"/>
<line x1="90" y1="630.0" x2="1130" y2="630.0" stroke="#555" stroke-width="1"/>
<line x1="90" y1="630.0" x2="1130" y2="630.0" stroke="#eee" stroke-width="1"/>
<text x="78" y="635.0" text-anchor="end" font-size="14" font-family="Arial, PingFang SC, Microsoft YaHei, sans-serif" fill="#666">0.00</text>
<line x1="90" y1="530.0" x2="1130" y2="530.0" stroke="#eee" stroke-width="1"/>
<text x="78" y="535.0" text-anchor="end" font-size="14" font-family="Arial, PingFang SC, Microsoft YaHei, sans-serif" fill="#666">95.78</text>
<line x1="90" y1="430.0" x2="1130" y2="430.0" stroke="#eee" stroke-width="1"/>
<text x="78" y="435.0" text-anchor="end" font-size="14" font-family="Arial, PingFang SC, Microsoft YaHei, sans-serif" fill="#666">191.56</text>
<line x1="90" y1="330.0" x2="1130" y2="330.0" stroke="#eee" stroke-width="1"/>
<text x="78" y="335.0" text-anchor="end" font-size="14" font-family="Arial, PingFang SC, Microsoft YaHei, sans-serif" fill="#666">287.35</text>
<line x1="90" y1="229.99999999999997" x2="1130" y2="229.99999999999997" stroke="#eee" stroke-width="1"/>
<text x="78" y="234.99999999999997" text-anchor="end" font-size="14" font-family="Arial, PingFang SC, Microsoft YaHei, sans-serif" fill="#666">383.13</text>
<line x1="90" y1="130.0" x2="1130" y2="130.0" stroke="#eee" stroke-width="1"/>
<text x="78" y="135.0" text-anchor="end" font-size="14" font-family="Arial, PingFang SC, Microsoft YaHei, sans-serif" fill="#666">478.91</text>
<text x="194.0" y="658" text-anchor="middle" font-size="14" font-family="Arial, PingFang SC, Microsoft YaHei, sans-serif" fill="#666">2021</text>
<text x="402.0" y="658" text-anchor="middle" font-size="14" font-family="Arial, PingFang SC, Microsoft YaHei, sans-serif" fill="#666">2022</text>
<text x="610.0" y="658" text-anchor="middle" font-size="14" font-family="Arial, PingFang SC, Microsoft YaHei, sans-serif" fill="#666">2023</text>
<text x="818.0" y="658" text-anchor="middle" font-size="14" font-family="Arial, PingFang SC, Microsoft YaHei, sans-serif" fill="#666">2024</text>
<text x="1026.0" y="658" text-anchor="middle" font-size="14" font-family="Arial, PingFang SC, Microsoft YaHei, sans-serif" fill="#666">2025</text>
<rect x="123.28" y="320.86" width="26.02" height="309.14" fill="#4E79A7" opacity="0.85"/>
<rect x="331.28" y="250.86" width="26.02" height="379.14" fill="#4E79A7" opacity="0.85"/>
<rect x="539.28" y="164.48" width="26.02" height="465.52" fill="#4E79A7" opacity="0.85"/>
<rect x="747.28" y="130.00" width="26.02" height="500.00" fill="#4E79A7" opacity="0.85"/>
<rect x="955.28" y="191.47" width="26.02" height="438.53" fill="#4E79A7" opacity="0.85"/>
<rect x="151.57" y="352.12" width="26.02" height="277.88" fill="#F28E2B" opacity="0.85"/>
<rect x="359.57" y="290.64" width="26.02" height="339.36" fill="#F28E2B" opacity="0.85"/>
<rect x="567.57" y="214.15" width="26.02" height="415.85" fill="#F28E2B" opacity="0.85"/>
<rect x="775.57" y="183.16" width="26.02" height="446.84" fill="#F28E2B" opacity="0.85"/>
<rect x="983.57" y="233.10" width="26.02" height="396.90" fill="#F28E2B" opacity="0.85"/>
<rect x="179.86" y="598.73" width="26.02" height="31.27" fill="#E15759" opacity="0.85"/>
<rect x="387.86" y="590.22" width="26.02" height="39.78" fill="#E15759" opacity="0.85"/>
<rect x="595.86" y="580.34" width="26.02" height="49.66" fill="#E15759" opacity="0.85"/>
<rect x="803.86" y="576.83" width="26.02" height="53.17" fill="#E15759" opacity="0.85"/>
<rect x="1011.86" y="588.37" width="26.02" height="41.63" fill="#E15759" opacity="0.85"/>
<rect x="208.14" y="628.58" width="26.02" height="1.42" fill="#76B7B2" opacity="0.85"/>
<rect x="416.14" y="627.42" width="26.02" height="2.58" fill="#76B7B2" opacity="0.85"/>
<rect x="624.14" y="627.35" width="26.02" height="2.65" fill="#76B7B2" opacity="0.85"/>
<rect x="832.14" y="627.08" width="26.02" height="2.92" fill="#76B7B2" opacity="0.85"/>
<rect x="1040.14" y="626.87" width="26.02" height="3.13" fill="#76B7B2" opacity="0.85"/>
<rect x="236.43" y="630.00" width="26.02" height="0.00" fill="#59A14F" opacity="0.85"/>
<rect x="444.43" y="630.00" width="26.02" height="0.00" fill="#59A14F" opacity="0.85"/>
<rect x="652.43" y="627.52" width="26.02" height="2.48" fill="#59A14F" opacity="0.85"/>
<rect x="860.43" y="627.81" width="26.02" height="2.19" fill="#59A14F" opacity="0.85"/>
<rect x="1068.43" y="628.10" width="26.02" height="1.90" fill="#59A14F" opacity="0.85"/>
</svg>