<svg xmlns="http://www.w3.org/2000/svg" width="1200" height="720" viewBox="0 0 1200 720">
<rect x="0" y="0" width="100%" height="100%" fill="#ffffff"/>
<text x="40" y="42" font-size="26" font-family="Arial, PingFang SC, Microsoft YaHei, sans-serif" fill="#222">财务比率分析图</text>
<rect x="40" y="60" width="22" height="10" fill="#4E79A7"/>
<text x="68" y="70" font-size="16" font-family="Arial, PingFang SC, Microsoft YaHei, sans-serif" fill="#333">资产负债率</text>
<rect x="210" y="60" width="22" height="10" fill="#F28E2B"/>
<text x="238" y="70" font-size="16" font-family="Arial, PingFang SC, Microsoft YaHei, sans-serif" fill="#333">流动比率</text>
<rect x="380" y="60" width="22" height="10" fill="#E15759"/>
<text x="408" y="70" font-size="16" font-family="Arial, PingFang SC, Microsoft YaHei, sans-serif" fill="#333">速动比率</text>
<rect x="550" y="60" width="22" height="10" fill="#76B7B2"/>
<text x="578" y="70" font-size="16" font-family="Arial, PingFang SC, Microsoft YaHei, sans-serif" fill="#333">应收周转率</text>
<rect x="720" y="60" width="22" height="10" fill="#59A14F"/>
<text x="748" y="70" font-size="16" font-family="Arial, PingFang SC, Microsoft YaHei, sans-serif" fill="#333">存货周转率</text>
<line x1="90" y1="130" x2="90" y2="630" stroke="#555" stroke-width="1"/>
<line x1="90" y1="630.0" x2="1130" y2="630.0" stroke="#555" stroke-width="1"/>
<line x1="90" y1="630.0" x2="1130" y2="630.0" stroke="#eee" stroke-width="1"/>
<text x="78" y="635.0" text-anchor="end" font-size="14" font-family="Arial, PingFang SC, Microsoft YaHei, sans-serif" fill="#666">0.00</text>
<line x1="90" y1="530.0" x2="1130" y2="530.0" stroke="#eee" stroke-width="1"/>
<text x="78" y="535.0" text-anchor="end" font-size="14" font-family="Arial, PingFang SC, Microsoft YaHei, sans-serif" fill="#666">2632.86</text>
<line x1="90" y1="430.0" x2="1130" y2="430.0" stroke="#eee" stroke-width="1"/>
<text x="78" y="435.0" text-anchor="end" font-size="14" font-family="Arial, PingFang SC, Microsoft YaHei, sans-serif" fill="#666">5265.71</text>
<line x1="90" y1="330.0" x2="1130" y2="330.0" stroke="#eee" stroke-width="1"/>
<text x="78" y="335.0" text-anchor="end" font-size="14" font-family="Arial, PingFang SC, Microsoft YaHei, sans-serif" fill="#666">7898.57</text>
<line x1="90" y1="230.0" x2="1130" y2="230.0" stroke="#eee" stroke-width="1"/>
<text x="78" y="235.0" text-anchor="end" font-size="14" font-family="Arial, PingFang SC, Microsoft YaHei, sans-serif" fill="#666">10531.42</text>
<line x1="90" y1="129.99999999999994" x2="1130" y2="129.99999999999994" stroke="#eee" stroke-width="1"/>
<text x="78" y="134.99999999999994" text-anchor="end" font-size="14" font-family="Arial, PingFang SC, Microsoft YaHei, sans-serif" fill="#666">13164.28</text>
<text x="194.0" y="658" text-anchor="middle" font-size="14" font-family="Arial, PingFang SC, Microsoft YaHei, sans-serif" fill="#666">2021</text>
<text x="402.0" y="658" text-anchor="middle" font-size="14" font-family="Arial, PingFang SC, Microsoft YaHei, sans-serif" fill="#666">2022</text>
<text x="610.0" y="658" text-anchor="middle" font-size="14" font-family="Arial, PingFang SC, Microsoft YaHei, sans-serif" fill="#666">2023</text>
<text x="818.0" y="658" text-anchor="middle" font-size="14" font-family="Arial, PingFang SC, Microsoft YaHei, sans-serif" fill="#666">2024</text>
<text x="1026.0" y="658" text-anchor="middle" font-size="14" font-family="Arial, PingFang SC, Microsoft YaHei, sans-serif" fill="#666">2025</text>
<rect x="123.28" y="130.00" width="65.06" height="500.00" fill="#4E79A7" opacity="0.85"/>
<rect x="331.28" y="377.81" width="65.06" height="252.19" fill="#4E79A7" opacity="0.85"/>
<rect x="539.28" y="531.86" width="65.06" height="98.14" fill="#4E79A7" opacity="0.85"/>
<rect x="747.28" y="546.80" width="65.06" height="83.20" fill="#4E79A7" opacity="0.85"/>
<rect x="955.28" y="515.68" width="65.06" height="114.32" fill="#4E79A7" opacity="0.85"/>
<rect x="194.00" y="629.98" width="65.06" height="0.02" fill="#F28E2B" opacity="0.85"/>
<rect x="402.00" y="629.99" width="65.06" height="0.01" fill="#F28E2B" opacity="0.85"/>
<rect x="610.00" y="629.99" width="65.06" height="0.01" fill="#F28E2B" opacity="0.85"/>
<rect x="818.00" y="629.99" width="65.06" height="0.01" fill="#F28E2B" opacity="0.85"/>
<rect x="1026.00" y="629.99" width="65.06" height="0.01" fill="#F28E2B" opacity="0.85"/>
<polyline fill="none" stroke="#E15759" stroke-width="3" points="194.00,628.67 402.00,628.74 610.00,628.69 818.00,628.84 1026.00,629.13"/>
<circle cx="194.00" cy="628.67" r="4" fill="#E15759"/>
<circle cx="402.00" cy="628.74" r="4" fill="#E15759"/>
<circle cx="610.00" cy="628.69" r="4" fill="#E15759"/>
<circle cx="818.00" cy="628.84" r="4" fill="#E15759"/>
<circle cx="1026.00" cy="629.13" r="4" fill="#E15759"/>
<polyline fill="none" stroke="#76B7B2" stroke-width="3" points="194.00,629.91 402.00,629.88 610.00,629.83 818.00,629.86 1026.00,629.85"/>
<circle cx="194.00" cy="629.91" r="4" fill="#76B7B2"/>
<circle cx="402.00" cy="629.88" r="4" fill="#76B7B2"/>
<circle cx="610.00" cy="629.83" r="4" fill="#76B7B2"/>
<circle cx="818.00" cy="629.86" r="4" fill="#76B7B2"/>
<circle cx="1026.00" cy="629.85" r="4" fill="#76B7B2"/>
<polyline fill="none" stroke="#59A14F" stroke-width="3" points="194.00,629.93 402.00,629.92 610.00,629.87 818.00,629.90 1026.00,629.90"/>
<circle cx="194.00" cy="629.93" r="4" fill="#59A14F"/>
<circle cx="402.00" cy="629.92" r="4" fill="#59A14F"/>
<circle cx="610.00" cy="629.87" r="4" fill="#59A14F"/>
<circle cx="818.00" cy="629.90" r="4" fill="#59A14F"/>
<circle cx="1026.00" cy="629.90" r="4" fill="#59A14F"/>
</svg>