<svg xmlns="http://www.w3.org/2000/svg" width="1200" height="720" viewBox="0 0 1200 720">
<rect x="0" y="0" width="100%" height="100%" fill="#ffffff"/>
<text x="40" y="42" font-size="26" font-family="Arial, PingFang SC, Microsoft YaHei, sans-serif" fill="#222">分产品收入变化图</text>
<rect x="40" y="60" width="22" height="10" fill="#4E79A7"/>
<text x="68" y="70" font-size="16" font-family="Arial, PingFang SC, Microsoft YaHei, sans-serif" fill="#333">集成电路</text>
<rect x="210" y="60" width="22" height="10" fill="#F28E2B"/>
<text x="238" y="70" font-size="16" font-family="Arial, PingFang SC, Microsoft YaHei, sans-serif" fill="#333">产品与方案</text>
<rect x="380" y="60" width="22" height="10" fill="#E15759"/>
<text x="408" y="70" font-size="16" font-family="Arial, PingFang SC, Microsoft YaHei, sans-serif" fill="#333">制造与服务</text>
<rect x="550" y="60" width="22" height="10" fill="#76B7B2"/>
<text x="578" y="70" font-size="16" font-family="Arial, PingFang SC, Microsoft YaHei, sans-serif" fill="#333">其他业务</text>
<rect x="720" y="60" width="22" height="10" fill="#59A14F"/>
<text x="748" y="70" font-size="16" font-family="Arial, PingFang SC, Microsoft YaHei, sans-serif" fill="#333">其他业务(行业)</text>
<line x1="90" y1="130" x2="90" y2="630" stroke="#555" stroke-width="1"/>
<line x1="90" y1="630.0" x2="1130" y2="630.0" stroke="#555" stroke-width="1"/>
<line x1="90" y1="630.0" x2="1130" y2="630.0" stroke="#eee" stroke-width="1"/>
<text x="78" y="635.0" text-anchor="end" font-size="14" font-family="Arial, PingFang SC, Microsoft YaHei, sans-serif" fill="#666">0.00</text>
<line x1="90" y1="530.0" x2="1130" y2="530.0" stroke="#eee" stroke-width="1"/>
<text x="78" y="535.0" text-anchor="end" font-size="14" font-family="Arial, PingFang SC, Microsoft YaHei, sans-serif" fill="#666">21.64</text>
<line x1="90" y1="429.99999999999994" x2="1130" y2="429.99999999999994" stroke="#eee" stroke-width="1"/>
<text x="78" y="434.99999999999994" text-anchor="end" font-size="14" font-family="Arial, PingFang SC, Microsoft YaHei, sans-serif" fill="#666">43.28</text>
<line x1="90" y1="330.0" x2="1130" y2="330.0" stroke="#eee" stroke-width="1"/>
<text x="78" y="335.0" text-anchor="end" font-size="14" font-family="Arial, PingFang SC, Microsoft YaHei, sans-serif" fill="#666">64.93</text>
<line x1="90" y1="230.0" x2="1130" y2="230.0" stroke="#eee" stroke-width="1"/>
<text x="78" y="235.0" text-anchor="end" font-size="14" font-family="Arial, PingFang SC, Microsoft YaHei, sans-serif" fill="#666">86.57</text>
<line x1="90" y1="130.0" x2="1130" y2="130.0" stroke="#eee" stroke-width="1"/>
<text x="78" y="135.0" text-anchor="end" font-size="14" font-family="Arial, PingFang SC, Microsoft YaHei, sans-serif" fill="#666">108.21</text>
<text x="194.0" y="658" text-anchor="middle" font-size="14" font-family="Arial, PingFang SC, Microsoft YaHei, sans-serif" fill="#666">2021</text>
<text x="402.0" y="658" text-anchor="middle" font-size="14" font-family="Arial, PingFang SC, Microsoft YaHei, sans-serif" fill="#666">2022</text>
<text x="610.0" y="658" text-anchor="middle" font-size="14" font-family="Arial, PingFang SC, Microsoft YaHei, sans-serif" fill="#666">2023</text>
<text x="818.0" y="658" text-anchor="middle" font-size="14" font-family="Arial, PingFang SC, Microsoft YaHei, sans-serif" fill="#666">2024</text>
<text x="1026.0" y="658" text-anchor="middle" font-size="14" font-family="Arial, PingFang SC, Microsoft YaHei, sans-serif" fill="#666">2025</text>
<rect x="123.28" y="206.84" width="26.02" height="423.16" fill="#4E79A7" opacity="0.85"/>
<rect x="331.28" y="172.74" width="26.02" height="457.26" fill="#4E79A7" opacity="0.85"/>
<rect x="539.28" y="179.49" width="26.02" height="450.51" fill="#4E79A7" opacity="0.85"/>
<rect x="747.28" y="175.28" width="26.02" height="454.72" fill="#4E79A7" opacity="0.85"/>
<rect x="955.28" y="130.00" width="26.02" height="500.00" fill="#4E79A7" opacity="0.85"/>
<rect x="151.57" y="334.23" width="26.02" height="295.77" fill="#F28E2B" opacity="0.85"/>
<rect x="359.57" y="401.42" width="26.02" height="228.58" fill="#F28E2B" opacity="0.85"/>
<rect x="567.57" y="414.22" width="26.02" height="215.78" fill="#F28E2B" opacity="0.85"/>
<rect x="775.57" y="391.90" width="26.02" height="238.10" fill="#F28E2B" opacity="0.85"/>
<rect x="983.57" y="351.47" width="26.02" height="278.53" fill="#F28E2B" opacity="0.85"/>
<rect x="179.86" y="298.05" width="26.02" height="331.95" fill="#E15759" opacity="0.85"/>
<rect x="387.86" y="401.32" width="26.02" height="228.68" fill="#E15759" opacity="0.85"/>
<rect x="595.86" y="395.27" width="26.02" height="234.73" fill="#E15759" opacity="0.85"/>
<rect x="803.86" y="413.38" width="26.02" height="216.62" fill="#E15759" opacity="0.85"/>
<rect x="1011.86" y="408.53" width="26.02" height="221.47" fill="#E15759" opacity="0.85"/>
<rect x="208.14" y="624.50" width="26.02" height="5.50" fill="#76B7B2" opacity="0.85"/>
<rect x="416.14" y="619.37" width="26.02" height="10.63" fill="#76B7B2" opacity="0.85"/>
<rect x="624.14" y="618.86" width="26.02" height="11.14" fill="#76B7B2" opacity="0.85"/>
<rect x="832.14" y="611.66" width="26.02" height="18.34" fill="#76B7B2" opacity="0.85"/>
<rect x="1040.14" y="612.63" width="26.02" height="17.37" fill="#76B7B2" opacity="0.85"/>
<rect x="236.43" y="630.00" width="26.02" height="0.00" fill="#59A14F" opacity="0.85"/>
<rect x="444.43" y="630.00" width="26.02" height="0.00" fill="#59A14F" opacity="0.85"/>
<rect x="652.43" y="630.00" width="26.02" height="0.00" fill="#59A14F" opacity="0.85"/>
<rect x="860.43" y="617.15" width="26.02" height="12.85" fill="#59A14F" opacity="0.85"/>
<rect x="1068.43" y="619.23" width="26.02" height="10.77" fill="#59A14F" opacity="0.85"/>
</svg>