<svg xmlns="http://www.w3.org/2000/svg" width="1200" height="720" viewBox="0 0 1200 720">
<rect x="0" y="0" width="100%" height="100%" fill="#ffffff"/>
<text x="40" y="42" font-size="26" font-family="Arial, PingFang SC, Microsoft YaHei, sans-serif" fill="#222">财务比率分析图</text>
<rect x="40" y="60" width="22" height="10" fill="#4E79A7"/>
<text x="68" y="70" font-size="16" font-family="Arial, PingFang SC, Microsoft YaHei, sans-serif" fill="#333">资产负债率</text>
<rect x="210" y="60" width="22" height="10" fill="#F28E2B"/>
<text x="238" y="70" font-size="16" font-family="Arial, PingFang SC, Microsoft YaHei, sans-serif" fill="#333">流动比率</text>
<rect x="380" y="60" width="22" height="10" fill="#E15759"/>
<text x="408" y="70" font-size="16" font-family="Arial, PingFang SC, Microsoft YaHei, sans-serif" fill="#333">速动比率</text>
<rect x="550" y="60" width="22" height="10" fill="#76B7B2"/>
<text x="578" y="70" font-size="16" font-family="Arial, PingFang SC, Microsoft YaHei, sans-serif" fill="#333">应收周转率</text>
<rect x="720" y="60" width="22" height="10" fill="#59A14F"/>
<text x="748" y="70" font-size="16" font-family="Arial, PingFang SC, Microsoft YaHei, sans-serif" fill="#333">存货周转率</text>
<line x1="90" y1="130" x2="90" y2="630" stroke="#555" stroke-width="1"/>
<line x1="90" y1="630.0" x2="1130" y2="630.0" stroke="#555" stroke-width="1"/>
<line x1="90" y1="630.0" x2="1130" y2="630.0" stroke="#eee" stroke-width="1"/>
<text x="78" y="635.0" text-anchor="end" font-size="14" font-family="Arial, PingFang SC, Microsoft YaHei, sans-serif" fill="#666">0.00</text>
<line x1="90" y1="530.0" x2="1130" y2="530.0" stroke="#eee" stroke-width="1"/>
<text x="78" y="535.0" text-anchor="end" font-size="14" font-family="Arial, PingFang SC, Microsoft YaHei, sans-serif" fill="#666">4.36</text>
<line x1="90" y1="430.0" x2="1130" y2="430.0" stroke="#eee" stroke-width="1"/>
<text x="78" y="435.0" text-anchor="end" font-size="14" font-family="Arial, PingFang SC, Microsoft YaHei, sans-serif" fill="#666">8.71</text>
<line x1="90" y1="330.0" x2="1130" y2="330.0" stroke="#eee" stroke-width="1"/>
<text x="78" y="335.0" text-anchor="end" font-size="14" font-family="Arial, PingFang SC, Microsoft YaHei, sans-serif" fill="#666">13.07</text>
<line x1="90" y1="230.00000000000003" x2="1130" y2="230.00000000000003" stroke="#eee" stroke-width="1"/>
<text x="78" y="235.00000000000003" text-anchor="end" font-size="14" font-family="Arial, PingFang SC, Microsoft YaHei, sans-serif" fill="#666">17.42</text>
<line x1="90" y1="130.0" x2="1130" y2="130.0" stroke="#eee" stroke-width="1"/>
<text x="78" y="135.0" text-anchor="end" font-size="14" font-family="Arial, PingFang SC, Microsoft YaHei, sans-serif" fill="#666">21.78</text>
<text x="194.0" y="658" text-anchor="middle" font-size="14" font-family="Arial, PingFang SC, Microsoft YaHei, sans-serif" fill="#666">2021</text>
<text x="402.0" y="658" text-anchor="middle" font-size="14" font-family="Arial, PingFang SC, Microsoft YaHei, sans-serif" fill="#666">2022</text>
<text x="610.0" y="658" text-anchor="middle" font-size="14" font-family="Arial, PingFang SC, Microsoft YaHei, sans-serif" fill="#666">2023</text>
<text x="818.0" y="658" text-anchor="middle" font-size="14" font-family="Arial, PingFang SC, Microsoft YaHei, sans-serif" fill="#666">2024</text>
<text x="1026.0" y="658" text-anchor="middle" font-size="14" font-family="Arial, PingFang SC, Microsoft YaHei, sans-serif" fill="#666">2025</text>
<rect x="123.28" y="409.16" width="65.06" height="220.84" fill="#4E79A7" opacity="0.85"/>
<rect x="331.28" y="403.88" width="65.06" height="226.12" fill="#4E79A7" opacity="0.85"/>
<rect x="539.28" y="434.64" width="65.06" height="195.36" fill="#4E79A7" opacity="0.85"/>
<rect x="747.28" y="461.50" width="65.06" height="168.50" fill="#4E79A7" opacity="0.85"/>
<rect x="955.28" y="476.19" width="65.06" height="153.81" fill="#4E79A7" opacity="0.85"/>
<rect x="194.00" y="532.43" width="65.06" height="97.57" fill="#F28E2B" opacity="0.85"/>
<rect x="402.00" y="544.60" width="65.06" height="85.40" fill="#F28E2B" opacity="0.85"/>
<rect x="610.00" y="549.88" width="65.06" height="80.12" fill="#F28E2B" opacity="0.85"/>
<rect x="818.00" y="546.67" width="65.06" height="83.33" fill="#F28E2B" opacity="0.85"/>
<rect x="1026.00" y="544.60" width="65.06" height="85.40" fill="#F28E2B" opacity="0.85"/>
<polyline fill="none" stroke="#E15759" stroke-width="3" points="194.00,144.69 402.00,130.00 610.00,191.07 818.00,250.52 1026.00,200.48"/>
<circle cx="194.00" cy="144.69" r="4" fill="#E15759"/>
<circle cx="402.00" cy="130.00" r="4" fill="#E15759"/>
<circle cx="610.00" cy="191.07" r="4" fill="#E15759"/>
<circle cx="818.00" cy="250.52" r="4" fill="#E15759"/>
<circle cx="1026.00" cy="200.48" r="4" fill="#E15759"/>
<polyline fill="none" stroke="#76B7B2" stroke-width="3" points="194.00,551.72 402.00,544.37 610.00,543.45 818.00,555.85 1026.00,562.28"/>
<circle cx="194.00" cy="551.72" r="4" fill="#76B7B2"/>
<circle cx="402.00" cy="544.37" r="4" fill="#76B7B2"/>
<circle cx="610.00" cy="543.45" r="4" fill="#76B7B2"/>
<circle cx="818.00" cy="555.85" r="4" fill="#76B7B2"/>
<circle cx="1026.00" cy="562.28" r="4" fill="#76B7B2"/>
<polyline fill="none" stroke="#59A14F" stroke-width="3" points="194.00,559.98 402.00,554.01 610.00,554.01 818.00,567.56 1026.00,572.61"/>
<circle cx="194.00" cy="559.98" r="4" fill="#59A14F"/>
<circle cx="402.00" cy="554.01" r="4" fill="#59A14F"/>
<circle cx="610.00" cy="554.01" r="4" fill="#59A14F"/>
<circle cx="818.00" cy="567.56" r="4" fill="#59A14F"/>
<circle cx="1026.00" cy="572.61" r="4" fill="#59A14F"/>
</svg>