<svg xmlns="http://www.w3.org/2000/svg" width="1200" height="720" viewBox="0 0 1200 720">
<rect x="0" y="0" width="100%" height="100%" fill="#ffffff"/>
<text x="40" y="42" font-size="26" font-family="Arial, PingFang SC, Microsoft YaHei, sans-serif" fill="#222">分产品收入变化图</text>
<rect x="40" y="60" width="22" height="10" fill="#4E79A7"/>
<text x="68" y="70" font-size="16" font-family="Arial, PingFang SC, Microsoft YaHei, sans-serif" fill="#333">总部及子公司</text>
<rect x="210" y="60" width="22" height="10" fill="#F28E2B"/>
<text x="238" y="70" font-size="16" font-family="Arial, PingFang SC, Microsoft YaHei, sans-serif" fill="#333">投资与交易业务</text>
<rect x="380" y="60" width="22" height="10" fill="#E15759"/>
<text x="408" y="70" font-size="16" font-family="Arial, PingFang SC, Microsoft YaHei, sans-serif" fill="#333">证券经纪业务</text>
<rect x="550" y="60" width="22" height="10" fill="#76B7B2"/>
<text x="578" y="70" font-size="16" font-family="Arial, PingFang SC, Microsoft YaHei, sans-serif" fill="#333">手续费及佣金收入:证券经纪业务:代理买卖证券业务</text>
<rect x="720" y="60" width="22" height="10" fill="#59A14F"/>
<text x="748" y="70" font-size="16" font-family="Arial, PingFang SC, Microsoft YaHei, sans-serif" fill="#333">江苏省内</text>
<line x1="90" y1="130" x2="90" y2="630" stroke="#555" stroke-width="1"/>
<line x1="90" y1="630.0" x2="1130" y2="630.0" stroke="#555" stroke-width="1"/>
<line x1="90" y1="630.0" x2="1130" y2="630.0" stroke="#eee" stroke-width="1"/>
<text x="78" y="635.0" text-anchor="end" font-size="14" font-family="Arial, PingFang SC, Microsoft YaHei, sans-serif" fill="#666">0.00</text>
<line x1="90" y1="530.0" x2="1130" y2="530.0" stroke="#eee" stroke-width="1"/>
<text x="78" y="535.0" text-anchor="end" font-size="14" font-family="Arial, PingFang SC, Microsoft YaHei, sans-serif" fill="#666">29.10</text>
<line x1="90" y1="430.0" x2="1130" y2="430.0" stroke="#eee" stroke-width="1"/>
<text x="78" y="435.0" text-anchor="end" font-size="14" font-family="Arial, PingFang SC, Microsoft YaHei, sans-serif" fill="#666">58.20</text>
<line x1="90" y1="330.0" x2="1130" y2="330.0" stroke="#eee" stroke-width="1"/>
<text x="78" y="335.0" text-anchor="end" font-size="14" font-family="Arial, PingFang SC, Microsoft YaHei, sans-serif" fill="#666">87.30</text>
<line x1="90" y1="229.99999999999997" x2="1130" y2="229.99999999999997" stroke="#eee" stroke-width="1"/>
<text x="78" y="234.99999999999997" text-anchor="end" font-size="14" font-family="Arial, PingFang SC, Microsoft YaHei, sans-serif" fill="#666">116.40</text>
<line x1="90" y1="130.0" x2="1130" y2="130.0" stroke="#eee" stroke-width="1"/>
<text x="78" y="135.0" text-anchor="end" font-size="14" font-family="Arial, PingFang SC, Microsoft YaHei, sans-serif" fill="#666">145.50</text>
<text x="194.0" y="658" text-anchor="middle" font-size="14" font-family="Arial, PingFang SC, Microsoft YaHei, sans-serif" fill="#666">2021</text>
<text x="402.0" y="658" text-anchor="middle" font-size="14" font-family="Arial, PingFang SC, Microsoft YaHei, sans-serif" fill="#666">2022</text>
<text x="610.0" y="658" text-anchor="middle" font-size="14" font-family="Arial, PingFang SC, Microsoft YaHei, sans-serif" fill="#666">2023</text>
<text x="818.0" y="658" text-anchor="middle" font-size="14" font-family="Arial, PingFang SC, Microsoft YaHei, sans-serif" fill="#666">2024</text>
<text x="1026.0" y="658" text-anchor="middle" font-size="14" font-family="Arial, PingFang SC, Microsoft YaHei, sans-serif" fill="#666">2025</text>
<rect x="123.28" y="254.09" width="26.02" height="375.91" fill="#4E79A7" opacity="0.85"/>
<rect x="331.28" y="198.45" width="26.02" height="431.55" fill="#4E79A7" opacity="0.85"/>
<rect x="539.28" y="130.00" width="26.02" height="500.00" fill="#4E79A7" opacity="0.85"/>
<rect x="747.28" y="140.24" width="26.02" height="489.76" fill="#4E79A7" opacity="0.85"/>
<rect x="955.28" y="276.91" width="26.02" height="353.09" fill="#4E79A7" opacity="0.85"/>
<rect x="151.57" y="426.67" width="26.02" height="203.33" fill="#F28E2B" opacity="0.85"/>
<rect x="359.57" y="360.07" width="26.02" height="269.93" fill="#F28E2B" opacity="0.85"/>
<rect x="567.57" y="298.04" width="26.02" height="331.96" fill="#F28E2B" opacity="0.85"/>
<rect x="775.57" y="280.89" width="26.02" height="349.11" fill="#F28E2B" opacity="0.85"/>
<rect x="983.57" y="423.88" width="26.02" height="206.12" fill="#F28E2B" opacity="0.85"/>
<rect x="179.86" y="477.29" width="26.02" height="152.71" fill="#E15759" opacity="0.85"/>
<rect x="387.86" y="468.18" width="26.02" height="161.82" fill="#E15759" opacity="0.85"/>
<rect x="595.86" y="474.50" width="26.02" height="155.50" fill="#E15759" opacity="0.85"/>
<rect x="803.86" y="477.49" width="26.02" height="152.51" fill="#E15759" opacity="0.85"/>
<rect x="1011.86" y="440.48" width="26.02" height="189.52" fill="#E15759" opacity="0.85"/>
<rect x="208.14" y="545.22" width="26.02" height="84.78" fill="#76B7B2" opacity="0.85"/>
<rect x="416.14" y="555.74" width="26.02" height="74.26" fill="#76B7B2" opacity="0.85"/>
<rect x="624.14" y="565.26" width="26.02" height="64.74" fill="#76B7B2" opacity="0.85"/>
<rect x="832.14" y="556.29" width="26.02" height="73.71" fill="#76B7B2" opacity="0.85"/>
<rect x="1040.14" y="517.32" width="26.02" height="112.68" fill="#76B7B2" opacity="0.85"/>
<rect x="236.43" y="566.22" width="26.02" height="63.78" fill="#59A14F" opacity="0.85"/>
<rect x="444.43" y="570.27" width="26.02" height="59.73" fill="#59A14F" opacity="0.85"/>
<rect x="652.43" y="573.81" width="26.02" height="56.19" fill="#59A14F" opacity="0.85"/>
<rect x="860.43" y="573.68" width="26.02" height="56.32" fill="#59A14F" opacity="0.85"/>
<rect x="1068.43" y="554.26" width="26.02" height="75.74" fill="#59A14F" opacity="0.85"/>
</svg>