<svg xmlns="http://www.w3.org/2000/svg" width="1200" height="720" viewBox="0 0 1200 720">
<rect x="0" y="0" width="100%" height="100%" fill="#ffffff"/>
<text x="40" y="42" font-size="26" font-family="Arial, PingFang SC, Microsoft YaHei, sans-serif" fill="#222">资产负债表关键数据图</text>
<rect x="40" y="60" width="22" height="10" fill="#4E79A7"/>
<text x="68" y="70" font-size="16" font-family="Arial, PingFang SC, Microsoft YaHei, sans-serif" fill="#333">总资产</text>
<rect x="210" y="60" width="22" height="10" fill="#F28E2B"/>
<text x="238" y="70" font-size="16" font-family="Arial, PingFang SC, Microsoft YaHei, sans-serif" fill="#333">总负债</text>
<rect x="380" y="60" width="22" height="10" fill="#E15759"/>
<text x="408" y="70" font-size="16" font-family="Arial, PingFang SC, Microsoft YaHei, sans-serif" fill="#333">股东权益</text>
<line x1="90" y1="130" x2="90" y2="630" stroke="#555" stroke-width="1"/>
<line x1="90" y1="630.0" x2="1130" y2="630.0" stroke="#555" stroke-width="1"/>
<line x1="90" y1="630.0" x2="1130" y2="630.0" stroke="#eee" stroke-width="1"/>
<text x="78" y="635.0" text-anchor="end" font-size="14" font-family="Arial, PingFang SC, Microsoft YaHei, sans-serif" fill="#666">0.00</text>
<line x1="90" y1="530.0" x2="1130" y2="530.0" stroke="#eee" stroke-width="1"/>
<text x="78" y="535.0" text-anchor="end" font-size="14" font-family="Arial, PingFang SC, Microsoft YaHei, sans-serif" fill="#666">432.44</text>
<line x1="90" y1="430.0" x2="1130" y2="430.0" stroke="#eee" stroke-width="1"/>
<text x="78" y="435.0" text-anchor="end" font-size="14" font-family="Arial, PingFang SC, Microsoft YaHei, sans-serif" fill="#666">864.88</text>
<line x1="90" y1="330.0" x2="1130" y2="330.0" stroke="#eee" stroke-width="1"/>
<text x="78" y="335.0" text-anchor="end" font-size="14" font-family="Arial, PingFang SC, Microsoft YaHei, sans-serif" fill="#666">1297.31</text>
<line x1="90" y1="230.0" x2="1130" y2="230.0" stroke="#eee" stroke-width="1"/>
<text x="78" y="235.0" text-anchor="end" font-size="14" font-family="Arial, PingFang SC, Microsoft YaHei, sans-serif" fill="#666">1729.75</text>
<line x1="90" y1="130.0" x2="1130" y2="130.0" stroke="#eee" stroke-width="1"/>
<text x="78" y="135.0" text-anchor="end" font-size="14" font-family="Arial, PingFang SC, Microsoft YaHei, sans-serif" fill="#666">2162.19</text>
<text x="194.0" y="658" text-anchor="middle" font-size="14" font-family="Arial, PingFang SC, Microsoft YaHei, sans-serif" fill="#666">2021</text>
<text x="402.0" y="658" text-anchor="middle" font-size="14" font-family="Arial, PingFang SC, Microsoft YaHei, sans-serif" fill="#666">2022</text>
<text x="610.0" y="658" text-anchor="middle" font-size="14" font-family="Arial, PingFang SC, Microsoft YaHei, sans-serif" fill="#666">2023</text>
<text x="818.0" y="658" text-anchor="middle" font-size="14" font-family="Arial, PingFang SC, Microsoft YaHei, sans-serif" fill="#666">2024</text>
<text x="1026.0" y="658" text-anchor="middle" font-size="14" font-family="Arial, PingFang SC, Microsoft YaHei, sans-serif" fill="#666">2025</text>
<rect x="123.28" y="342.52" width="65.06" height="287.48" fill="#4E79A7" opacity="0.85"/>
<rect x="331.28" y="315.60" width="65.06" height="314.40" fill="#4E79A7" opacity="0.85"/>
<rect x="539.28" y="265.80" width="65.06" height="364.20" fill="#4E79A7" opacity="0.85"/>
<rect x="747.28" y="218.83" width="65.06" height="411.17" fill="#4E79A7" opacity="0.85"/>
<rect x="955.28" y="130.00" width="65.06" height="500.00" fill="#4E79A7" opacity="0.85"/>
<rect x="194.00" y="429.16" width="65.06" height="200.84" fill="#F28E2B" opacity="0.85"/>
<rect x="402.00" y="404.81" width="65.06" height="225.19" fill="#F28E2B" opacity="0.85"/>
<rect x="610.00" y="358.97" width="65.06" height="271.03" fill="#F28E2B" opacity="0.85"/>
<rect x="818.00" y="316.55" width="65.06" height="313.45" fill="#F28E2B" opacity="0.85"/>
<rect x="1026.00" y="231.19" width="65.06" height="398.81" fill="#F28E2B" opacity="0.85"/>
<polyline fill="none" stroke="#E15759" stroke-width="3" points="194.00,543.36 402.00,540.79 610.00,536.83 818.00,532.28 1026.00,528.81"/>
<circle cx="194.00" cy="543.36" r="4" fill="#E15759"/>
<circle cx="402.00" cy="540.79" r="4" fill="#E15759"/>
<circle cx="610.00" cy="536.83" r="4" fill="#E15759"/>
<circle cx="818.00" cy="532.28" r="4" fill="#E15759"/>
<circle cx="1026.00" cy="528.81" r="4" fill="#E15759"/>
</svg>