<svg xmlns="http://www.w3.org/2000/svg" width="1480" height="760" viewBox="0 0 1480 760">
<rect width="100%" height="100%" fill="#ffffff"/>
<style>text{font-family:Arial, 'PingFang SC', 'Microsoft YaHei', sans-serif;} .axis{fill:#65707d;font-size:14px} .small{fill:#5f6875;font-size:14px} .label{fill:#424852;font-size:16px} .title{fill:#252a31;font-size:30px;font-weight:700} .note-title{fill:#252a31;font-size:20px;font-weight:700} .note{fill:#333b45;font-size:16px} .muted{fill:#6f7782;font-size:13px}</style>
<text x="78" y="48" class="title">贵州茅台 营业收入和销售商品、提供劳务收到的现金变化（亿元）</text>
<text x="78" y="78" class="muted">口径：营业收入 = 利润表 revenue；现金收入 = 现金流量表 c_fr_sale_sg。单位：亿元。</text>
<rect x="528" y="65" width="18" height="10" fill="#ef5350"/><text x="554" y="75" class="label">营业收入</text>
<rect x="668" y="65" width="18" height="10" fill="#f9bd00"/><text x="694" y="75" class="label">销售商品、提供劳务收到的现金</text>
<line x1="958" y1="70" x2="990" y2="70" stroke="#1e88e5" stroke-width="4"/><circle cx="974" cy="70" r="4" fill="#fff" stroke="#1e88e5" stroke-width="3"/><text x="1000" y="75" class="label">营业收入同比</text>
<line x1="78" y1="668.0" x2="1005" y2="668.0" stroke="#edf0f2" stroke-width="1"/>
<text x="64" y="673.0" text-anchor="end" class="axis">0</text>
<line x1="78" y1="588.6" x2="1005" y2="588.6" stroke="#edf0f2" stroke-width="1"/>
<text x="64" y="593.6" text-anchor="end" class="axis">300</text>
<line x1="78" y1="509.1" x2="1005" y2="509.1" stroke="#edf0f2" stroke-width="1"/>
<text x="64" y="514.1" text-anchor="end" class="axis">600</text>
<line x1="78" y1="429.7" x2="1005" y2="429.7" stroke="#edf0f2" stroke-width="1"/>
<text x="64" y="434.7" text-anchor="end" class="axis">900</text>
<line x1="78" y1="350.3" x2="1005" y2="350.3" stroke="#edf0f2" stroke-width="1"/>
<text x="64" y="355.3" text-anchor="end" class="axis">1,200</text>
<line x1="78" y1="270.9" x2="1005" y2="270.9" stroke="#edf0f2" stroke-width="1"/>
<text x="64" y="275.9" text-anchor="end" class="axis">1,500</text>
<line x1="78" y1="191.4" x2="1005" y2="191.4" stroke="#edf0f2" stroke-width="1"/>
<text x="64" y="196.4" text-anchor="end" class="axis">1,800</text>
<line x1="78" y1="112.0" x2="1005" y2="112.0" stroke="#edf0f2" stroke-width="1"/>
<text x="64" y="117.0" text-anchor="end" class="axis">2,100</text>
<line x1="78" y1="112" x2="78" y2="668" stroke="#87909a"/>
<line x1="78" y1="668" x2="1005" y2="668" stroke="#87909a"/>
<rect x="95.4" y="565.1" width="26.0" height="102.9" fill="#ef5350"/>
<rect x="127.3" y="506.5" width="26.0" height="161.5" fill="#f9bd00"/>
<text x="108.4" y="557.1" text-anchor="middle" class="small">389</text>
<text x="140.3" y="498.5" text-anchor="middle" class="small">610</text>
<text x="124.3" y="698" text-anchor="middle" class="axis">2016</text>
<rect x="188.1" y="513.9" width="26.0" height="154.1" fill="#ef5350"/>
<rect x="220.1" y="497.4" width="26.0" height="170.6" fill="#f9bd00"/>
<text x="201.1" y="505.9" text-anchor="middle" class="small">582</text>
<text x="233.0" y="489.4" text-anchor="middle" class="small">644</text>
<text x="217.1" y="698" text-anchor="middle" class="axis">2017</text>
<rect x="280.8" y="473.0" width="26.0" height="195.0" fill="#ef5350"/>
<rect x="312.8" y="444.9" width="26.0" height="223.1" fill="#f9bd00"/>
<text x="293.8" y="465.0" text-anchor="middle" class="small">736</text>
<text x="325.7" y="436.9" text-anchor="middle" class="small">843</text>
<text x="309.8" y="698" text-anchor="middle" class="axis">2018</text>
<rect x="373.5" y="441.8" width="26.0" height="226.2" fill="#ef5350"/>
<rect x="405.4" y="416.5" width="26.0" height="251.5" fill="#f9bd00"/>
<text x="386.5" y="433.8" text-anchor="middle" class="small">854</text>
<text x="418.4" y="408.5" text-anchor="middle" class="small">950</text>
<text x="402.4" y="698" text-anchor="middle" class="axis">2019</text>
<rect x="466.2" y="416.7" width="26.0" height="251.3" fill="#ef5350"/>
<rect x="498.2" y="384.6" width="26.0" height="283.4" fill="#f9bd00"/>
<text x="479.2" y="408.7" text-anchor="middle" class="small">949</text>
<text x="511.1" y="376.6" text-anchor="middle" class="small">1070</text>
<text x="495.2" y="698" text-anchor="middle" class="axis">2020</text>
<rect x="558.9" y="386.8" width="26.0" height="281.2" fill="#ef5350"/>
<rect x="590.9" y="352.1" width="26.0" height="315.9" fill="#f9bd00"/>
<text x="571.9" y="378.8" text-anchor="middle" class="small">1062</text>
<text x="603.8" y="344.1" text-anchor="middle" class="small">1193</text>
<text x="587.9" y="698" text-anchor="middle" class="axis">2021</text>
<rect x="651.6" y="339.4" width="26.0" height="328.6" fill="#ef5350"/>
<rect x="683.6" y="295.5" width="26.0" height="372.5" fill="#f9bd00"/>
<text x="664.6" y="331.4" text-anchor="middle" class="small">1241</text>
<text x="696.5" y="287.5" text-anchor="middle" class="small">1407</text>
<text x="680.6" y="698" text-anchor="middle" class="axis">2022</text>
<rect x="744.3" y="277.0" width="26.0" height="391.0" fill="#ef5350"/>
<rect x="776.2" y="234.6" width="26.0" height="433.4" fill="#f9bd00"/>
<text x="757.3" y="269.0" text-anchor="middle" class="small">1477</text>
<text x="789.2" y="226.6" text-anchor="middle" class="small">1637</text>
<text x="773.2" y="698" text-anchor="middle" class="axis">2023</text>
<rect x="837.0" y="215.5" width="26.0" height="452.5" fill="#ef5350"/>
<rect x="869.0" y="184.4" width="26.0" height="483.6" fill="#f9bd00"/>
<text x="850.0" y="207.5" text-anchor="middle" class="small">1709</text>
<text x="881.9" y="176.4" text-anchor="middle" class="small">1826</text>
<text x="866.0" y="698" text-anchor="middle" class="axis">2024</text>
<rect x="929.7" y="221.0" width="26.0" height="447.0" fill="#ef5350"/>
<rect x="961.6" y="180.9" width="26.0" height="487.1" fill="#f9bd00"/>
<text x="942.7" y="213.0" text-anchor="middle" class="small">1688</text>
<text x="974.6" y="172.9" text-anchor="middle" class="small">1840</text>
<text x="958.6" y="698" text-anchor="middle" class="axis">2025</text>
<polyline fill="none" stroke="#1e88e5" stroke-width="4" stroke-linejoin="round" stroke-linecap="round" points="124.3,445.7 217.1,160.1 309.8,376.2 402.4,473.3 495.2,518.8 587.9,511.6 680.6,465.4 773.2,445.5 866.0,476.1 958.6,632.8"/>
<circle cx="124.3" cy="445.7" r="5" fill="#fff" stroke="#1e88e5" stroke-width="3"/>
<text x="124.3" y="433.7" text-anchor="middle" font-size="15" font-weight="700" fill="#1e88e5">19%</text>
<circle cx="217.1" cy="160.1" r="5" fill="#fff" stroke="#1e88e5" stroke-width="3"/>
<text x="217.1" y="148.1" text-anchor="middle" font-size="15" font-weight="700" fill="#1e88e5">49.8%</text>
<circle cx="309.8" cy="376.2" r="5" fill="#fff" stroke="#1e88e5" stroke-width="3"/>
<text x="309.8" y="364.2" text-anchor="middle" font-size="15" font-weight="700" fill="#1e88e5">26.5%</text>
<circle cx="402.4" cy="473.3" r="5" fill="#fff" stroke="#1e88e5" stroke-width="3"/>
<text x="402.4" y="461.3" text-anchor="middle" font-size="15" font-weight="700" fill="#1e88e5">16%</text>
<circle cx="495.2" cy="518.8" r="5" fill="#fff" stroke="#1e88e5" stroke-width="3"/>
<text x="495.2" y="506.8" text-anchor="middle" font-size="15" font-weight="700" fill="#1e88e5">11.1%</text>
<circle cx="587.9" cy="511.6" r="5" fill="#fff" stroke="#1e88e5" stroke-width="3"/>
<text x="587.9" y="499.6" text-anchor="middle" font-size="15" font-weight="700" fill="#1e88e5">11.9%</text>
<circle cx="680.6" cy="465.4" r="5" fill="#fff" stroke="#1e88e5" stroke-width="3"/>
<text x="680.6" y="453.4" text-anchor="middle" font-size="15" font-weight="700" fill="#1e88e5">16.9%</text>
<circle cx="773.2" cy="445.5" r="5" fill="#fff" stroke="#1e88e5" stroke-width="3"/>
<text x="773.2" y="433.5" text-anchor="middle" font-size="15" font-weight="700" fill="#1e88e5">19%</text>
<circle cx="866.0" cy="476.1" r="5" fill="#fff" stroke="#1e88e5" stroke-width="3"/>
<text x="866.0" y="464.1" text-anchor="middle" font-size="15" font-weight="700" fill="#1e88e5">15.7%</text>
<circle cx="958.6" cy="632.8" r="5" fill="#fff" stroke="#1e88e5" stroke-width="3"/>
<text x="958.6" y="656.8" text-anchor="middle" font-size="15" font-weight="700" fill="#1e88e5">-1.2%</text>
<line x1="1015" y1="92" x2="1015" y2="690" stroke="#e3e7eb"/>
<text x="1039" y="118" class="note-title">解释</text>
<circle cx="1043" cy="156" r="4" fill="#ef5350"/>
<text x="1057" y="162" class="note">2025 年营业收入 1,688.38 亿元，同比</text>
<text x="1057" y="186" class="note"> -1.21%。</text>
<circle cx="1043" cy="222" r="4" fill="#c68b00"/>
<text x="1057" y="228" class="note">销售商品、提供劳务收到现金 1,839.90 亿元</text>
<text x="1057" y="252" class="note">，同比 +0.74%。</text>
<circle cx="1043" cy="288" r="4" fill="#1e88e5"/>
<text x="1057" y="294" class="note">现金收入/营业收入约 109.0%，回款仍高于会计</text>
<text x="1057" y="318" class="note">收入。</text>
<circle cx="1043" cy="354" r="4" fill="#333b45"/>
<text x="1057" y="360" class="note">收入下滑主要来自酱香系列酒产品结构调整；现金回款保</text>
<text x="1057" y="384" class="note">持韧性，说明渠道收现能力没有同步恶化。</text>
<text x="1039" y="634" class="muted">数据来源：</text>
<text x="1039" y="657" class="muted">2016-2024：Tushare 年报字段</text>
<text x="1039" y="680" class="muted">2025：上交所披露的 2025 年年度报告</text>
</svg>