<svg xmlns="http://www.w3.org/2000/svg" width="1200" height="720" viewBox="0 0 1200 720">
<rect x="0" y="0" width="100%" height="100%" fill="#ffffff"/>
<text x="40" y="42" font-size="26" font-family="Arial, PingFang SC, Microsoft YaHei, sans-serif" fill="#222">分产品收入变化图</text>
<rect x="40" y="60" width="22" height="10" fill="#4E79A7"/>
<text x="68" y="70" font-size="16" font-family="Arial, PingFang SC, Microsoft YaHei, sans-serif" fill="#333">酒类</text>
<rect x="210" y="60" width="22" height="10" fill="#F28E2B"/>
<text x="238" y="70" font-size="16" font-family="Arial, PingFang SC, Microsoft YaHei, sans-serif" fill="#333">茅台酒</text>
<rect x="380" y="60" width="22" height="10" fill="#E15759"/>
<text x="408" y="70" font-size="16" font-family="Arial, PingFang SC, Microsoft YaHei, sans-serif" fill="#333">其他酒系列</text>
<rect x="550" y="60" width="22" height="10" fill="#76B7B2"/>
<text x="578" y="70" font-size="16" font-family="Arial, PingFang SC, Microsoft YaHei, sans-serif" fill="#333">国外</text>
<rect x="720" y="60" width="22" height="10" fill="#59A14F"/>
<text x="748" y="70" font-size="16" font-family="Arial, PingFang SC, Microsoft YaHei, sans-serif" fill="#333">其他业务</text>
<line x1="90" y1="130" x2="90" y2="630" stroke="#555" stroke-width="1"/>
<line x1="90" y1="630.0" x2="1130" y2="630.0" stroke="#555" stroke-width="1"/>
<line x1="90" y1="630.0" x2="1130" y2="630.0" stroke="#eee" stroke-width="1"/>
<text x="78" y="635.0" text-anchor="end" font-size="14" font-family="Arial, PingFang SC, Microsoft YaHei, sans-serif" fill="#666">0.00</text>
<line x1="90" y1="530.0" x2="1130" y2="530.0" stroke="#eee" stroke-width="1"/>
<text x="78" y="535.0" text-anchor="end" font-size="14" font-family="Arial, PingFang SC, Microsoft YaHei, sans-serif" fill="#666">444.18</text>
<line x1="90" y1="430.0" x2="1130" y2="430.0" stroke="#eee" stroke-width="1"/>
<text x="78" y="435.0" text-anchor="end" font-size="14" font-family="Arial, PingFang SC, Microsoft YaHei, sans-serif" fill="#666">888.36</text>
<line x1="90" y1="329.99999999999994" x2="1130" y2="329.99999999999994" stroke="#eee" stroke-width="1"/>
<text x="78" y="334.99999999999994" text-anchor="end" font-size="14" font-family="Arial, PingFang SC, Microsoft YaHei, sans-serif" fill="#666">1332.54</text>
<line x1="90" y1="230.0" x2="1130" y2="230.0" stroke="#eee" stroke-width="1"/>
<text x="78" y="235.0" text-anchor="end" font-size="14" font-family="Arial, PingFang SC, Microsoft YaHei, sans-serif" fill="#666">1776.72</text>
<line x1="90" y1="130.0" x2="1130" y2="130.0" stroke="#eee" stroke-width="1"/>
<text x="78" y="135.0" text-anchor="end" font-size="14" font-family="Arial, PingFang SC, Microsoft YaHei, sans-serif" fill="#666">2220.90</text>
<text x="194.0" y="658" text-anchor="middle" font-size="14" font-family="Arial, PingFang SC, Microsoft YaHei, sans-serif" fill="#666">2021</text>
<text x="402.0" y="658" text-anchor="middle" font-size="14" font-family="Arial, PingFang SC, Microsoft YaHei, sans-serif" fill="#666">2022</text>
<text x="610.0" y="658" text-anchor="middle" font-size="14" font-family="Arial, PingFang SC, Microsoft YaHei, sans-serif" fill="#666">2023</text>
<text x="818.0" y="658" text-anchor="middle" font-size="14" font-family="Arial, PingFang SC, Microsoft YaHei, sans-serif" fill="#666">2024</text>
<text x="1026.0" y="658" text-anchor="middle" font-size="14" font-family="Arial, PingFang SC, Microsoft YaHei, sans-serif" fill="#666">2025</text>
<rect x="123.28" y="391.23" width="26.02" height="238.77" fill="#4E79A7" opacity="0.85"/>
<rect x="331.28" y="351.35" width="26.02" height="278.65" fill="#4E79A7" opacity="0.85"/>
<rect x="539.28" y="298.56" width="26.02" height="331.44" fill="#4E79A7" opacity="0.85"/>
<rect x="747.28" y="245.89" width="26.02" height="384.11" fill="#4E79A7" opacity="0.85"/>
<rect x="955.28" y="250.03" width="26.02" height="379.97" fill="#4E79A7" opacity="0.85"/>
<rect x="151.57" y="322.89" width="26.02" height="307.11" fill="#F28E2B" opacity="0.85"/>
<rect x="359.57" y="274.74" width="26.02" height="355.26" fill="#F28E2B" opacity="0.85"/>
<rect x="567.57" y="211.55" width="26.02" height="418.45" fill="#F28E2B" opacity="0.85"/>
<rect x="775.57" y="147.10" width="26.02" height="482.90" fill="#F28E2B" opacity="0.85"/>
<rect x="983.57" y="130.00" width="26.02" height="500.00" fill="#F28E2B" opacity="0.85"/>
<rect x="179.86" y="588.00" width="26.02" height="42.00" fill="#E15759" opacity="0.85"/>
<rect x="387.86" y="577.01" width="26.02" height="52.99" fill="#E15759" opacity="0.85"/>
<rect x="595.86" y="560.87" width="26.02" height="69.13" fill="#E15759" opacity="0.85"/>
<rect x="803.86" y="544.83" width="26.02" height="85.17" fill="#E15759" opacity="0.85"/>
<rect x="1011.86" y="548.87" width="26.02" height="81.13" fill="#E15759" opacity="0.85"/>
<rect x="208.14" y="621.40" width="26.02" height="8.60" fill="#76B7B2" opacity="0.85"/>
<rect x="416.14" y="615.80" width="26.02" height="14.20" fill="#76B7B2" opacity="0.85"/>
<rect x="624.14" y="615.59" width="26.02" height="14.41" fill="#76B7B2" opacity="0.85"/>
<rect x="832.14" y="613.30" width="26.02" height="16.70" fill="#76B7B2" opacity="0.85"/>
<rect x="1040.14" y="612.54" width="26.02" height="17.46" fill="#76B7B2" opacity="0.85"/>
<rect x="236.43" y="618.48" width="26.02" height="11.52" fill="#59A14F" opacity="0.85"/>
<rect x="444.43" y="617.25" width="26.02" height="12.75" fill="#59A14F" opacity="0.85"/>
<rect x="652.43" y="618.80" width="26.02" height="11.20" fill="#59A14F" opacity="0.85"/>
<rect x="860.43" y="618.14" width="26.02" height="11.86" fill="#59A14F" opacity="0.85"/>
<rect x="1068.43" y="618.70" width="26.02" height="11.30" fill="#59A14F" opacity="0.85"/>
</svg>