<svg xmlns="http://www.w3.org/2000/svg" width="1200" height="720" viewBox="0 0 1200 720">
<rect x="0" y="0" width="100%" height="100%" fill="#ffffff"/>
<text x="40" y="42" font-size="26" font-family="Arial, PingFang SC, Microsoft YaHei, sans-serif" fill="#222">分产品收入变化图</text>
<rect x="40" y="60" width="22" height="10" fill="#4E79A7"/>
<text x="68" y="70" font-size="16" font-family="Arial, PingFang SC, Microsoft YaHei, sans-serif" fill="#333">啤酒(行业)</text>
<rect x="210" y="60" width="22" height="10" fill="#F28E2B"/>
<text x="238" y="70" font-size="16" font-family="Arial, PingFang SC, Microsoft YaHei, sans-serif" fill="#333">本土品牌</text>
<rect x="380" y="60" width="22" height="10" fill="#E15759"/>
<text x="408" y="70" font-size="16" font-family="Arial, PingFang SC, Microsoft YaHei, sans-serif" fill="#333">中区</text>
<rect x="550" y="60" width="22" height="10" fill="#76B7B2"/>
<text x="578" y="70" font-size="16" font-family="Arial, PingFang SC, Microsoft YaHei, sans-serif" fill="#333">南区</text>
<rect x="720" y="60" width="22" height="10" fill="#59A14F"/>
<text x="748" y="70" font-size="16" font-family="Arial, PingFang SC, Microsoft YaHei, sans-serif" fill="#333">其他业务</text>
<line x1="90" y1="130" x2="90" y2="630" stroke="#555" stroke-width="1"/>
<line x1="90" y1="630.0" x2="1130" y2="630.0" stroke="#555" stroke-width="1"/>
<line x1="90" y1="630.0" x2="1130" y2="630.0" stroke="#eee" stroke-width="1"/>
<text x="78" y="635.0" text-anchor="end" font-size="14" font-family="Arial, PingFang SC, Microsoft YaHei, sans-serif" fill="#666">0.00</text>
<line x1="90" y1="530.0" x2="1130" y2="530.0" stroke="#eee" stroke-width="1"/>
<text x="78" y="535.0" text-anchor="end" font-size="14" font-family="Arial, PingFang SC, Microsoft YaHei, sans-serif" fill="#666">28.88</text>
<line x1="90" y1="430.0" x2="1130" y2="430.0" stroke="#eee" stroke-width="1"/>
<text x="78" y="435.0" text-anchor="end" font-size="14" font-family="Arial, PingFang SC, Microsoft YaHei, sans-serif" fill="#666">57.76</text>
<line x1="90" y1="330.0" x2="1130" y2="330.0" stroke="#eee" stroke-width="1"/>
<text x="78" y="335.0" text-anchor="end" font-size="14" font-family="Arial, PingFang SC, Microsoft YaHei, sans-serif" fill="#666">86.65</text>
<line x1="90" y1="230.0" x2="1130" y2="230.0" stroke="#eee" stroke-width="1"/>
<text x="78" y="235.0" text-anchor="end" font-size="14" font-family="Arial, PingFang SC, Microsoft YaHei, sans-serif" fill="#666">115.53</text>
<line x1="90" y1="130.0" x2="1130" y2="130.0" stroke="#eee" stroke-width="1"/>
<text x="78" y="135.0" text-anchor="end" font-size="14" font-family="Arial, PingFang SC, Microsoft YaHei, sans-serif" fill="#666">144.41</text>
<text x="194.0" y="658" text-anchor="middle" font-size="14" font-family="Arial, PingFang SC, Microsoft YaHei, sans-serif" fill="#666">2021</text>
<text x="402.0" y="658" text-anchor="middle" font-size="14" font-family="Arial, PingFang SC, Microsoft YaHei, sans-serif" fill="#666">2022</text>
<text x="610.0" y="658" text-anchor="middle" font-size="14" font-family="Arial, PingFang SC, Microsoft YaHei, sans-serif" fill="#666">2023</text>
<text x="818.0" y="658" text-anchor="middle" font-size="14" font-family="Arial, PingFang SC, Microsoft YaHei, sans-serif" fill="#666">2024</text>
<text x="1026.0" y="658" text-anchor="middle" font-size="14" font-family="Arial, PingFang SC, Microsoft YaHei, sans-serif" fill="#666">2025</text>
<rect x="123.28" y="185.61" width="26.02" height="444.39" fill="#4E79A7" opacity="0.85"/>
<rect x="331.28" y="155.79" width="26.02" height="474.21" fill="#4E79A7" opacity="0.85"/>
<rect x="539.28" y="130.00" width="26.02" height="500.00" fill="#4E79A7" opacity="0.85"/>
<rect x="747.28" y="139.38" width="26.02" height="490.62" fill="#4E79A7" opacity="0.85"/>
<rect x="955.28" y="134.95" width="26.02" height="495.05" fill="#4E79A7" opacity="0.85"/>
<rect x="151.57" y="341.93" width="26.02" height="288.07" fill="#F28E2B" opacity="0.85"/>
<rect x="359.57" y="324.52" width="26.02" height="305.48" fill="#F28E2B" opacity="0.85"/>
<rect x="567.57" y="312.71" width="26.02" height="317.29" fill="#F28E2B" opacity="0.85"/>
<rect x="775.57" y="323.17" width="26.02" height="306.83" fill="#F28E2B" opacity="0.85"/>
<rect x="983.57" y="325.14" width="26.02" height="304.86" fill="#F28E2B" opacity="0.85"/>
<rect x="179.86" y="343.94" width="26.02" height="286.06" fill="#E15759" opacity="0.85"/>
<rect x="387.86" y="309.66" width="26.02" height="320.34" fill="#E15759" opacity="0.85"/>
<rect x="595.86" y="299.62" width="26.02" height="330.38" fill="#E15759" opacity="0.85"/>
<rect x="803.86" y="300.18" width="26.02" height="329.82" fill="#E15759" opacity="0.85"/>
<rect x="1011.86" y="304.02" width="26.02" height="325.98" fill="#E15759" opacity="0.85"/>
<rect x="208.14" y="460.31" width="26.02" height="169.69" fill="#76B7B2" opacity="0.85"/>
<rect x="416.14" y="433.68" width="26.02" height="196.32" fill="#76B7B2" opacity="0.85"/>
<rect x="624.14" y="398.40" width="26.02" height="231.60" fill="#76B7B2" opacity="0.85"/>
<rect x="832.14" y="393.45" width="26.02" height="236.55" fill="#76B7B2" opacity="0.85"/>
<rect x="1040.14" y="392.24" width="26.02" height="237.76" fill="#76B7B2" opacity="0.85"/>
<rect x="236.43" y="615.53" width="26.02" height="14.47" fill="#59A14F" opacity="0.85"/>
<rect x="444.43" y="612.38" width="26.02" height="17.62" fill="#59A14F" opacity="0.85"/>
<rect x="652.43" y="610.92" width="26.02" height="19.08" fill="#59A14F" opacity="0.85"/>
<rect x="860.43" y="605.35" width="26.02" height="24.65" fill="#59A14F" opacity="0.85"/>
<rect x="1068.43" y="607.25" width="26.02" height="22.75" fill="#59A14F" opacity="0.85"/>
</svg>