<svg xmlns="http://www.w3.org/2000/svg" width="1200" height="720" viewBox="0 0 1200 720">
<rect x="0" y="0" width="100%" height="100%" fill="#ffffff"/>
<text x="40" y="42" font-size="26" font-family="Arial, PingFang SC, Microsoft YaHei, sans-serif" fill="#222">分产品收入变化图</text>
<rect x="40" y="60" width="22" height="10" fill="#4E79A7"/>
<text x="68" y="70" font-size="16" font-family="Arial, PingFang SC, Microsoft YaHei, sans-serif" fill="#333">储能(行业)</text>
<rect x="210" y="60" width="22" height="10" fill="#F28E2B"/>
<text x="238" y="70" font-size="16" font-family="Arial, PingFang SC, Microsoft YaHei, sans-serif" fill="#333">储能系统</text>
<rect x="380" y="60" width="22" height="10" fill="#E15759"/>
<text x="408" y="70" font-size="16" font-family="Arial, PingFang SC, Microsoft YaHei, sans-serif" fill="#333">国外</text>
<rect x="550" y="60" width="22" height="10" fill="#76B7B2"/>
<text x="578" y="70" font-size="16" font-family="Arial, PingFang SC, Microsoft YaHei, sans-serif" fill="#333">其他行业</text>
<rect x="720" y="60" width="22" height="10" fill="#59A14F"/>
<text x="748" y="70" font-size="16" font-family="Arial, PingFang SC, Microsoft YaHei, sans-serif" fill="#333">其他业务</text>
<line x1="90" y1="130" x2="90" y2="630" stroke="#555" stroke-width="1"/>
<line x1="90" y1="630.0" x2="1130" y2="630.0" stroke="#555" stroke-width="1"/>
<line x1="90" y1="630.0" x2="1130" y2="630.0" stroke="#eee" stroke-width="1"/>
<text x="78" y="635.0" text-anchor="end" font-size="14" font-family="Arial, PingFang SC, Microsoft YaHei, sans-serif" fill="#666">0.00</text>
<line x1="90" y1="530.0" x2="1130" y2="530.0" stroke="#eee" stroke-width="1"/>
<text x="78" y="535.0" text-anchor="end" font-size="14" font-family="Arial, PingFang SC, Microsoft YaHei, sans-serif" fill="#666">32.21</text>
<line x1="90" y1="430.0" x2="1130" y2="430.0" stroke="#eee" stroke-width="1"/>
<text x="78" y="435.0" text-anchor="end" font-size="14" font-family="Arial, PingFang SC, Microsoft YaHei, sans-serif" fill="#666">64.42</text>
<line x1="90" y1="330.0" x2="1130" y2="330.0" stroke="#eee" stroke-width="1"/>
<text x="78" y="335.0" text-anchor="end" font-size="14" font-family="Arial, PingFang SC, Microsoft YaHei, sans-serif" fill="#666">96.63</text>
<line x1="90" y1="230.0" x2="1130" y2="230.0" stroke="#eee" stroke-width="1"/>
<text x="78" y="235.0" text-anchor="end" font-size="14" font-family="Arial, PingFang SC, Microsoft YaHei, sans-serif" fill="#666">128.84</text>
<line x1="90" y1="130.0" x2="1130" y2="130.0" stroke="#eee" stroke-width="1"/>
<text x="78" y="135.0" text-anchor="end" font-size="14" font-family="Arial, PingFang SC, Microsoft YaHei, sans-serif" fill="#666">161.05</text>
<text x="263.33333333333337" y="658" text-anchor="middle" font-size="14" font-family="Arial, PingFang SC, Microsoft YaHei, sans-serif" fill="#666">2023</text>
<text x="610.0" y="658" text-anchor="middle" font-size="14" font-family="Arial, PingFang SC, Microsoft YaHei, sans-serif" fill="#666">2024</text>
<text x="956.6666666666667" y="658" text-anchor="middle" font-size="14" font-family="Arial, PingFang SC, Microsoft YaHei, sans-serif" fill="#666">2025</text>
<rect x="145.47" y="630.00" width="43.37" height="0.00" fill="#4E79A7" opacity="0.85"/>
<rect x="492.13" y="375.64" width="43.37" height="254.36" fill="#4E79A7" opacity="0.85"/>
<rect x="838.80" y="270.08" width="43.37" height="359.92" fill="#4E79A7" opacity="0.85"/>
<rect x="192.61" y="630.00" width="43.37" height="0.00" fill="#F28E2B" opacity="0.85"/>
<rect x="539.28" y="375.64" width="43.37" height="254.36" fill="#F28E2B" opacity="0.85"/>
<rect x="885.95" y="130.00" width="43.37" height="500.00" fill="#F28E2B" opacity="0.85"/>
<rect x="239.76" y="630.00" width="43.37" height="0.00" fill="#E15759" opacity="0.85"/>
<rect x="586.43" y="613.27" width="43.37" height="16.73" fill="#E15759" opacity="0.85"/>
<rect x="933.09" y="591.19" width="43.37" height="38.81" fill="#E15759" opacity="0.85"/>
<rect x="286.91" y="630.00" width="43.37" height="0.00" fill="#76B7B2" opacity="0.85"/>
<rect x="633.57" y="628.20" width="43.37" height="1.80" fill="#76B7B2" opacity="0.85"/>
<rect x="980.24" y="629.63" width="43.37" height="0.37" fill="#76B7B2" opacity="0.85"/>
<rect x="334.05" y="629.81" width="43.37" height="0.19" fill="#59A14F" opacity="0.85"/>
<rect x="680.72" y="629.41" width="43.37" height="0.59" fill="#59A14F" opacity="0.85"/>
<rect x="1027.39" y="629.69" width="43.37" height="0.31" fill="#59A14F" opacity="0.85"/>
</svg>