<svg xmlns="http://www.w3.org/2000/svg" width="1200" height="720" viewBox="0 0 1200 720">
<rect x="0" y="0" width="100%" height="100%" fill="#ffffff"/>
<text x="40" y="42" font-size="26" font-family="Arial, PingFang SC, Microsoft YaHei, sans-serif" fill="#222">ROE与ROA对比图</text>
<rect x="40" y="60" width="22" height="10" fill="#4E79A7"/>
<text x="68" y="70" font-size="16" font-family="Arial, PingFang SC, Microsoft YaHei, sans-serif" fill="#333">ROE</text>
<rect x="210" y="60" width="22" height="10" fill="#F28E2B"/>
<text x="238" y="70" font-size="16" font-family="Arial, PingFang SC, Microsoft YaHei, sans-serif" fill="#333">ROA</text>
<line x1="90" y1="130" x2="90" y2="630" stroke="#555" stroke-width="1"/>
<line x1="90" y1="630.0" x2="1130" y2="630.0" stroke="#555" stroke-width="1"/>
<line x1="90" y1="630.0" x2="1130" y2="630.0" stroke="#eee" stroke-width="1"/>
<text x="78" y="635.0" text-anchor="end" font-size="14" font-family="Arial, PingFang SC, Microsoft YaHei, sans-serif" fill="#666">0.00</text>
<line x1="90" y1="530.0" x2="1130" y2="530.0" stroke="#eee" stroke-width="1"/>
<text x="78" y="535.0" text-anchor="end" font-size="14" font-family="Arial, PingFang SC, Microsoft YaHei, sans-serif" fill="#666">5.71</text>
<line x1="90" y1="430.00000000000006" x2="1130" y2="430.00000000000006" stroke="#eee" stroke-width="1"/>
<text x="78" y="435.00000000000006" text-anchor="end" font-size="14" font-family="Arial, PingFang SC, Microsoft YaHei, sans-serif" fill="#666">11.42</text>
<line x1="90" y1="329.99999999999994" x2="1130" y2="329.99999999999994" stroke="#eee" stroke-width="1"/>
<text x="78" y="334.99999999999994" text-anchor="end" font-size="14" font-family="Arial, PingFang SC, Microsoft YaHei, sans-serif" fill="#666">17.13</text>
<line x1="90" y1="230.0" x2="1130" y2="230.0" stroke="#eee" stroke-width="1"/>
<text x="78" y="235.0" text-anchor="end" font-size="14" font-family="Arial, PingFang SC, Microsoft YaHei, sans-serif" fill="#666">22.84</text>
<line x1="90" y1="130.0" x2="1130" y2="130.0" stroke="#eee" stroke-width="1"/>
<text x="78" y="135.0" text-anchor="end" font-size="14" font-family="Arial, PingFang SC, Microsoft YaHei, sans-serif" fill="#666">28.55</text>
<text x="220.0" y="658" text-anchor="middle" font-size="14" font-family="Arial, PingFang SC, Microsoft YaHei, sans-serif" fill="#666">2022</text>
<text x="480.0" y="658" text-anchor="middle" font-size="14" font-family="Arial, PingFang SC, Microsoft YaHei, sans-serif" fill="#666">2023</text>
<text x="740.0" y="658" text-anchor="middle" font-size="14" font-family="Arial, PingFang SC, Microsoft YaHei, sans-serif" fill="#666">2024</text>
<text x="1000.0" y="658" text-anchor="middle" font-size="14" font-family="Arial, PingFang SC, Microsoft YaHei, sans-serif" fill="#666">2025</text>
<polyline fill="none" stroke="#4E79A7" stroke-width="3" points="220.00,431.40 480.00,130.00 740.00,219.32 1000.00,210.39"/>
<circle cx="220.00" cy="431.40" r="4" fill="#4E79A7"/>
<circle cx="480.00" cy="130.00" r="4" fill="#4E79A7"/>
<circle cx="740.00" cy="219.32" r="4" fill="#4E79A7"/>
<circle cx="1000.00" cy="210.39" r="4" fill="#4E79A7"/>
<polyline fill="none" stroke="#F28E2B" stroke-width="3" points="220.00,543.31 480.00,476.41 740.00,503.91 1000.00,483.24"/>
<circle cx="220.00" cy="543.31" r="4" fill="#F28E2B"/>
<circle cx="480.00" cy="476.41" r="4" fill="#F28E2B"/>
<circle cx="740.00" cy="503.91" r="4" fill="#F28E2B"/>
<circle cx="1000.00" cy="483.24" r="4" fill="#F28E2B"/>
</svg>