<svg xmlns="http://www.w3.org/2000/svg" width="1200" height="720" viewBox="0 0 1200 720">
<rect x="0" y="0" width="100%" height="100%" fill="#ffffff"/>
<text x="40" y="42" font-size="26" font-family="Arial, PingFang SC, Microsoft YaHei, sans-serif" fill="#222">分产品收入变化图</text>
<rect x="40" y="60" width="22" height="10" fill="#4E79A7"/>
<text x="68" y="70" font-size="16" font-family="Arial, PingFang SC, Microsoft YaHei, sans-serif" fill="#333">光伏行业</text>
<rect x="210" y="60" width="22" height="10" fill="#F28E2B"/>
<text x="238" y="70" font-size="16" font-family="Arial, PingFang SC, Microsoft YaHei, sans-serif" fill="#333">储能(行业)</text>
<rect x="380" y="60" width="22" height="10" fill="#E15759"/>
<text x="408" y="70" font-size="16" font-family="Arial, PingFang SC, Microsoft YaHei, sans-serif" fill="#333">储能系统</text>
<rect x="550" y="60" width="22" height="10" fill="#76B7B2"/>
<text x="578" y="70" font-size="16" font-family="Arial, PingFang SC, Microsoft YaHei, sans-serif" fill="#333">光伏逆变器等电力转换设备</text>
<rect x="720" y="60" width="22" height="10" fill="#59A14F"/>
<text x="748" y="70" font-size="16" font-family="Arial, PingFang SC, Microsoft YaHei, sans-serif" fill="#333">新能源建设开发</text>
<line x1="90" y1="130" x2="90" y2="630" stroke="#555" stroke-width="1"/>
<line x1="90" y1="630.0" x2="1130" y2="630.0" stroke="#555" stroke-width="1"/>
<line x1="90" y1="630.0" x2="1130" y2="630.0" stroke="#eee" stroke-width="1"/>
<text x="78" y="635.0" text-anchor="end" font-size="14" font-family="Arial, PingFang SC, Microsoft YaHei, sans-serif" fill="#666">0.00</text>
<line x1="90" y1="530.0" x2="1130" y2="530.0" stroke="#eee" stroke-width="1"/>
<text x="78" y="535.0" text-anchor="end" font-size="14" font-family="Arial, PingFang SC, Microsoft YaHei, sans-serif" fill="#666">138.76</text>
<line x1="90" y1="430.0" x2="1130" y2="430.0" stroke="#eee" stroke-width="1"/>
<text x="78" y="435.0" text-anchor="end" font-size="14" font-family="Arial, PingFang SC, Microsoft YaHei, sans-serif" fill="#666">277.51</text>
<line x1="90" y1="329.99999999999994" x2="1130" y2="329.99999999999994" stroke="#eee" stroke-width="1"/>
<text x="78" y="334.99999999999994" text-anchor="end" font-size="14" font-family="Arial, PingFang SC, Microsoft YaHei, sans-serif" fill="#666">416.27</text>
<line x1="90" y1="229.99999999999997" x2="1130" y2="229.99999999999997" stroke="#eee" stroke-width="1"/>
<text x="78" y="234.99999999999997" text-anchor="end" font-size="14" font-family="Arial, PingFang SC, Microsoft YaHei, sans-serif" fill="#666">555.02</text>
<line x1="90" y1="130.0" x2="1130" y2="130.0" stroke="#eee" stroke-width="1"/>
<text x="78" y="135.0" text-anchor="end" font-size="14" font-family="Arial, PingFang SC, Microsoft YaHei, sans-serif" fill="#666">693.78</text>
<text x="194.0" y="658" text-anchor="middle" font-size="14" font-family="Arial, PingFang SC, Microsoft YaHei, sans-serif" fill="#666">2021</text>
<text x="402.0" y="658" text-anchor="middle" font-size="14" font-family="Arial, PingFang SC, Microsoft YaHei, sans-serif" fill="#666">2022</text>
<text x="610.0" y="658" text-anchor="middle" font-size="14" font-family="Arial, PingFang SC, Microsoft YaHei, sans-serif" fill="#666">2023</text>
<text x="818.0" y="658" text-anchor="middle" font-size="14" font-family="Arial, PingFang SC, Microsoft YaHei, sans-serif" fill="#666">2024</text>
<text x="1026.0" y="658" text-anchor="middle" font-size="14" font-family="Arial, PingFang SC, Microsoft YaHei, sans-serif" fill="#666">2025</text>
<rect x="123.28" y="447.63" width="26.02" height="182.37" fill="#4E79A7" opacity="0.85"/>
<rect x="331.28" y="370.16" width="26.02" height="259.84" fill="#4E79A7" opacity="0.85"/>
<rect x="539.28" y="131.77" width="26.02" height="498.23" fill="#4E79A7" opacity="0.85"/>
<rect x="747.28" y="130.00" width="26.02" height="500.00" fill="#4E79A7" opacity="0.85"/>
<rect x="955.28" y="146.68" width="26.02" height="483.32" fill="#4E79A7" opacity="0.85"/>
<rect x="151.57" y="600.75" width="26.02" height="29.25" fill="#F28E2B" opacity="0.85"/>
<rect x="359.57" y="539.83" width="26.02" height="90.17" fill="#F28E2B" opacity="0.85"/>
<rect x="567.57" y="440.29" width="26.02" height="189.71" fill="#F28E2B" opacity="0.85"/>
<rect x="775.57" y="393.79" width="26.02" height="236.21" fill="#F28E2B" opacity="0.85"/>
<rect x="983.57" y="232.98" width="26.02" height="397.02" fill="#F28E2B" opacity="0.85"/>
<rect x="179.86" y="600.75" width="26.02" height="29.25" fill="#E15759" opacity="0.85"/>
<rect x="387.86" y="539.83" width="26.02" height="90.17" fill="#E15759" opacity="0.85"/>
<rect x="595.86" y="440.29" width="26.02" height="189.71" fill="#E15759" opacity="0.85"/>
<rect x="803.86" y="393.79" width="26.02" height="236.21" fill="#E15759" opacity="0.85"/>
<rect x="1011.86" y="232.98" width="26.02" height="397.02" fill="#E15759" opacity="0.85"/>
<rect x="208.14" y="538.89" width="26.02" height="91.11" fill="#76B7B2" opacity="0.85"/>
<rect x="416.14" y="473.97" width="26.02" height="156.03" fill="#76B7B2" opacity="0.85"/>
<rect x="624.14" y="346.93" width="26.02" height="283.07" fill="#76B7B2" opacity="0.85"/>
<rect x="832.14" y="325.72" width="26.02" height="304.28" fill="#76B7B2" opacity="0.85"/>
<rect x="1040.14" y="295.14" width="26.02" height="334.86" fill="#76B7B2" opacity="0.85"/>
<rect x="236.43" y="540.87" width="26.02" height="89.13" fill="#59A14F" opacity="0.85"/>
<rect x="444.43" y="525.64" width="26.02" height="104.36" fill="#59A14F" opacity="0.85"/>
<rect x="652.43" y="397.26" width="26.02" height="232.74" fill="#59A14F" opacity="0.85"/>
<rect x="860.43" y="414.10" width="26.02" height="215.90" fill="#59A14F" opacity="0.85"/>
<rect x="1068.43" y="450.14" width="26.02" height="179.86" fill="#59A14F" opacity="0.85"/>
</svg>