<svg xmlns="http://www.w3.org/2000/svg" width="1200" height="720" viewBox="0 0 1200 720">
<rect x="0" y="0" width="100%" height="100%" fill="#ffffff"/>
<text x="40" y="42" font-size="26" font-family="Arial, PingFang SC, Microsoft YaHei, sans-serif" fill="#222">分产品利润结构图</text>
<rect x="40" y="60" width="22" height="10" fill="#4E79A7"/>
<text x="68" y="70" font-size="16" font-family="Arial, PingFang SC, Microsoft YaHei, sans-serif" fill="#333">利润</text>
<rect x="210" y="60" width="22" height="10" fill="#F28E2B"/>
<text x="238" y="70" font-size="16" font-family="Arial, PingFang SC, Microsoft YaHei, sans-serif" fill="#333">毛利率</text>
<line x1="90" y1="130" x2="90" y2="630" stroke="#555" stroke-width="1"/>
<line x1="90" y1="630.0" x2="1130" y2="630.0" stroke="#555" stroke-width="1"/>
<line x1="90" y1="630.0" x2="1130" y2="630.0" stroke="#eee" stroke-width="1"/>
<text x="78" y="635.0" text-anchor="end" font-size="14" font-family="Arial, PingFang SC, Microsoft YaHei, sans-serif" fill="#666">0.00</text>
<line x1="90" y1="530.0" x2="1130" y2="530.0" stroke="#eee" stroke-width="1"/>
<text x="78" y="535.0" text-anchor="end" font-size="14" font-family="Arial, PingFang SC, Microsoft YaHei, sans-serif" fill="#666">7.24</text>
<line x1="90" y1="430.0" x2="1130" y2="430.0" stroke="#eee" stroke-width="1"/>
<text x="78" y="435.0" text-anchor="end" font-size="14" font-family="Arial, PingFang SC, Microsoft YaHei, sans-serif" fill="#666">14.48</text>
<line x1="90" y1="330.0" x2="1130" y2="330.0" stroke="#eee" stroke-width="1"/>
<text x="78" y="335.0" text-anchor="end" font-size="14" font-family="Arial, PingFang SC, Microsoft YaHei, sans-serif" fill="#666">21.72</text>
<line x1="90" y1="230.0" x2="1130" y2="230.0" stroke="#eee" stroke-width="1"/>
<text x="78" y="235.0" text-anchor="end" font-size="14" font-family="Arial, PingFang SC, Microsoft YaHei, sans-serif" fill="#666">28.96</text>
<line x1="90" y1="130.0" x2="1130" y2="130.0" stroke="#eee" stroke-width="1"/>
<text x="78" y="135.0" text-anchor="end" font-size="14" font-family="Arial, PingFang SC, Microsoft YaHei, sans-serif" fill="#666">36.20</text>
<text x="155.0" y="658" text-anchor="middle" font-size="14" font-family="Arial, PingFang SC, Microsoft YaHei, sans-serif" fill="#666">暖通电驱动系统解决方案</text>
<text x="285.0" y="658" text-anchor="middle" font-size="14" font-family="Arial, PingFang SC, Microsoft YaHei, sans-serif" fill="#666">防爆电驱动系统解决方案</text>
<text x="415.0" y="658" text-anchor="middle" font-size="14" font-family="Arial, PingFang SC, Microsoft YaHei, sans-serif" fill="#666">工业电驱动系统解决方案</text>
<text x="545.0" y="658" text-anchor="middle" font-size="14" font-family="Arial, PingFang SC, Microsoft YaHei, sans-serif" fill="#666">美洲</text>
<text x="675.0" y="658" text-anchor="middle" font-size="14" font-family="Arial, PingFang SC, Microsoft YaHei, sans-serif" fill="#666">机器人组件及系统应用</text>
<text x="805.0" y="658" text-anchor="middle" font-size="14" font-family="Arial, PingFang SC, Microsoft YaHei, sans-serif" fill="#666">其他主营业务</text>
<text x="935.0" y="658" text-anchor="middle" font-size="14" font-family="Arial, PingFang SC, Microsoft YaHei, sans-serif" fill="#666">新能源交通电驱动系统解决方案</text>
<text x="1065.0" y="658" text-anchor="middle" font-size="14" font-family="Arial, PingFang SC, Microsoft YaHei, sans-serif" fill="#666">其他业务</text>
<rect x="110.80" y="509.97" width="81.33" height="120.03" fill="#4E79A7" opacity="0.85"/>
<rect x="240.80" y="424.06" width="81.33" height="205.94" fill="#4E79A7" opacity="0.85"/>
<rect x="370.80" y="460.25" width="81.33" height="169.75" fill="#4E79A7" opacity="0.85"/>
<rect x="500.80" y="541.46" width="81.33" height="88.54" fill="#4E79A7" opacity="0.85"/>
<rect x="630.80" y="611.35" width="81.33" height="18.65" fill="#4E79A7" opacity="0.85"/>
<rect x="760.80" y="622.96" width="81.33" height="7.04" fill="#4E79A7" opacity="0.85"/>
<rect x="890.80" y="626.41" width="81.33" height="3.59" fill="#4E79A7" opacity="0.85"/>
<rect x="1020.80" y="613.56" width="81.33" height="16.44" fill="#4E79A7" opacity="0.85"/>
<polyline fill="none" stroke="#F28E2B" stroke-width="3" points="155.00,387.87 285.00,185.52 415.00,215.64 545.00,223.92 675.00,267.98 805.00,487.18 935.00,546.30 1065.00,130.00"/>
<circle cx="155.00" cy="387.87" r="4" fill="#F28E2B"/>
<circle cx="285.00" cy="185.52" r="4" fill="#F28E2B"/>
<circle cx="415.00" cy="215.64" r="4" fill="#F28E2B"/>
<circle cx="545.00" cy="223.92" r="4" fill="#F28E2B"/>
<circle cx="675.00" cy="267.98" r="4" fill="#F28E2B"/>
<circle cx="805.00" cy="487.18" r="4" fill="#F28E2B"/>
<circle cx="935.00" cy="546.30" r="4" fill="#F28E2B"/>
<circle cx="1065.00" cy="130.00" r="4" fill="#F28E2B"/>
</svg>