<svg xmlns="http://www.w3.org/2000/svg" width="1200" height="720" viewBox="0 0 1200 720">
<rect x="0" y="0" width="100%" height="100%" fill="#ffffff"/>
<text x="40" y="42" font-size="26" font-family="Arial, PingFang SC, Microsoft YaHei, sans-serif" fill="#222">分产品收入变化图</text>
<rect x="40" y="60" width="22" height="10" fill="#4E79A7"/>
<text x="68" y="70" font-size="16" font-family="Arial, PingFang SC, Microsoft YaHei, sans-serif" fill="#333">油气销售</text>
<rect x="210" y="60" width="22" height="10" fill="#F28E2B"/>
<text x="238" y="70" font-size="16" font-family="Arial, PingFang SC, Microsoft YaHei, sans-serif" fill="#333">国外</text>
<rect x="380" y="60" width="22" height="10" fill="#E15759"/>
<text x="408" y="70" font-size="16" font-family="Arial, PingFang SC, Microsoft YaHei, sans-serif" fill="#333">贸易</text>
<rect x="550" y="60" width="22" height="10" fill="#76B7B2"/>
<text x="578" y="70" font-size="16" font-family="Arial, PingFang SC, Microsoft YaHei, sans-serif" fill="#333">其他业务</text>
<line x1="90" y1="130" x2="90" y2="630" stroke="#555" stroke-width="1"/>
<line x1="90" y1="630.0" x2="1130" y2="630.0" stroke="#555" stroke-width="1"/>
<line x1="90" y1="630.0" x2="1130" y2="630.0" stroke="#eee" stroke-width="1"/>
<text x="78" y="635.0" text-anchor="end" font-size="14" font-family="Arial, PingFang SC, Microsoft YaHei, sans-serif" fill="#666">0.00</text>
<line x1="90" y1="530.0" x2="1130" y2="530.0" stroke="#eee" stroke-width="1"/>
<text x="78" y="535.0" text-anchor="end" font-size="14" font-family="Arial, PingFang SC, Microsoft YaHei, sans-serif" fill="#666">1081.45</text>
<line x1="90" y1="430.0" x2="1130" y2="430.0" stroke="#eee" stroke-width="1"/>
<text x="78" y="435.0" text-anchor="end" font-size="14" font-family="Arial, PingFang SC, Microsoft YaHei, sans-serif" fill="#666">2162.91</text>
<line x1="90" y1="330.0" x2="1130" y2="330.0" stroke="#eee" stroke-width="1"/>
<text x="78" y="335.0" text-anchor="end" font-size="14" font-family="Arial, PingFang SC, Microsoft YaHei, sans-serif" fill="#666">3244.36</text>
<line x1="90" y1="229.99999999999994" x2="1130" y2="229.99999999999994" stroke="#eee" stroke-width="1"/>
<text x="78" y="234.99999999999994" text-anchor="end" font-size="14" font-family="Arial, PingFang SC, Microsoft YaHei, sans-serif" fill="#666">4325.82</text>
<line x1="90" y1="130.0" x2="1130" y2="130.0" stroke="#eee" stroke-width="1"/>
<text x="78" y="135.0" text-anchor="end" font-size="14" font-family="Arial, PingFang SC, Microsoft YaHei, sans-serif" fill="#666">5407.27</text>
<text x="194.0" y="658" text-anchor="middle" font-size="14" font-family="Arial, PingFang SC, Microsoft YaHei, sans-serif" fill="#666">2021</text>
<text x="402.0" y="658" text-anchor="middle" font-size="14" font-family="Arial, PingFang SC, Microsoft YaHei, sans-serif" fill="#666">2022</text>
<text x="610.0" y="658" text-anchor="middle" font-size="14" font-family="Arial, PingFang SC, Microsoft YaHei, sans-serif" fill="#666">2023</text>
<text x="818.0" y="658" text-anchor="middle" font-size="14" font-family="Arial, PingFang SC, Microsoft YaHei, sans-serif" fill="#666">2024</text>
<text x="1026.0" y="658" text-anchor="middle" font-size="14" font-family="Arial, PingFang SC, Microsoft YaHei, sans-serif" fill="#666">2025</text>
<rect x="123.28" y="331.56" width="32.53" height="298.44" fill="#4E79A7" opacity="0.85"/>
<rect x="331.28" y="140.25" width="32.53" height="489.75" fill="#4E79A7" opacity="0.85"/>
<rect x="539.28" y="186.57" width="32.53" height="443.43" fill="#4E79A7" opacity="0.85"/>
<rect x="747.28" y="130.00" width="32.53" height="500.00" fill="#4E79A7" opacity="0.85"/>
<rect x="955.28" y="160.82" width="32.53" height="469.18" fill="#4E79A7" opacity="0.85"/>
<rect x="158.64" y="531.95" width="32.53" height="98.05" fill="#F28E2B" opacity="0.85"/>
<rect x="366.64" y="429.40" width="32.53" height="200.60" fill="#F28E2B" opacity="0.85"/>
<rect x="574.64" y="415.60" width="32.53" height="214.40" fill="#F28E2B" opacity="0.85"/>
<rect x="782.64" y="409.53" width="32.53" height="220.47" fill="#F28E2B" opacity="0.85"/>
<rect x="990.64" y="426.04" width="32.53" height="203.96" fill="#F28E2B" opacity="0.85"/>
<rect x="194.00" y="607.39" width="32.53" height="22.61" fill="#E15759" opacity="0.85"/>
<rect x="402.00" y="554.21" width="32.53" height="75.79" fill="#E15759" opacity="0.85"/>
<rect x="610.00" y="523.78" width="32.53" height="106.22" fill="#E15759" opacity="0.85"/>
<rect x="818.00" y="545.14" width="32.53" height="84.86" fill="#E15759" opacity="0.85"/>
<rect x="1026.00" y="551.64" width="32.53" height="78.36" fill="#E15759" opacity="0.85"/>
<rect x="229.36" y="621.55" width="32.53" height="8.45" fill="#76B7B2" opacity="0.85"/>
<rect x="437.36" y="617.99" width="32.53" height="12.01" fill="#76B7B2" opacity="0.85"/>
<rect x="645.36" y="616.83" width="32.53" height="13.17" fill="#76B7B2" opacity="0.85"/>
<rect x="853.36" y="616.34" width="32.53" height="13.66" fill="#76B7B2" opacity="0.85"/>
<rect x="1061.36" y="617.34" width="32.53" height="12.66" fill="#76B7B2" opacity="0.85"/>
</svg>