<svg xmlns="http://www.w3.org/2000/svg" width="1200" height="720" viewBox="0 0 1200 720">
<rect x="0" y="0" width="100%" height="100%" fill="#ffffff"/>
<text x="40" y="42" font-size="26" font-family="Arial, PingFang SC, Microsoft YaHei, sans-serif" fill="#222">财务比率分析图</text>
<rect x="40" y="60" width="22" height="10" fill="#4E79A7"/>
<text x="68" y="70" font-size="16" font-family="Arial, PingFang SC, Microsoft YaHei, sans-serif" fill="#333">资产负债率</text>
<rect x="210" y="60" width="22" height="10" fill="#F28E2B"/>
<text x="238" y="70" font-size="16" font-family="Arial, PingFang SC, Microsoft YaHei, sans-serif" fill="#333">流动比率</text>
<rect x="380" y="60" width="22" height="10" fill="#E15759"/>
<text x="408" y="70" font-size="16" font-family="Arial, PingFang SC, Microsoft YaHei, sans-serif" fill="#333">速动比率</text>
<rect x="550" y="60" width="22" height="10" fill="#76B7B2"/>
<text x="578" y="70" font-size="16" font-family="Arial, PingFang SC, Microsoft YaHei, sans-serif" fill="#333">应收周转率</text>
<rect x="720" y="60" width="22" height="10" fill="#59A14F"/>
<text x="748" y="70" font-size="16" font-family="Arial, PingFang SC, Microsoft YaHei, sans-serif" fill="#333">存货周转率</text>
<line x1="90" y1="130" x2="90" y2="630" stroke="#555" stroke-width="1"/>
<line x1="90" y1="630.0" x2="1130" y2="630.0" stroke="#555" stroke-width="1"/>
<line x1="90" y1="630.0" x2="1130" y2="630.0" stroke="#eee" stroke-width="1"/>
<text x="78" y="635.0" text-anchor="end" font-size="14" font-family="Arial, PingFang SC, Microsoft YaHei, sans-serif" fill="#666">0.00</text>
<line x1="90" y1="530.0" x2="1130" y2="530.0" stroke="#eee" stroke-width="1"/>
<text x="78" y="535.0" text-anchor="end" font-size="14" font-family="Arial, PingFang SC, Microsoft YaHei, sans-serif" fill="#666">7.74</text>
<line x1="90" y1="430.0" x2="1130" y2="430.0" stroke="#eee" stroke-width="1"/>
<text x="78" y="435.0" text-anchor="end" font-size="14" font-family="Arial, PingFang SC, Microsoft YaHei, sans-serif" fill="#666">15.49</text>
<line x1="90" y1="330.0" x2="1130" y2="330.0" stroke="#eee" stroke-width="1"/>
<text x="78" y="335.0" text-anchor="end" font-size="14" font-family="Arial, PingFang SC, Microsoft YaHei, sans-serif" fill="#666">23.23</text>
<line x1="90" y1="230.0" x2="1130" y2="230.0" stroke="#eee" stroke-width="1"/>
<text x="78" y="235.0" text-anchor="end" font-size="14" font-family="Arial, PingFang SC, Microsoft YaHei, sans-serif" fill="#666">30.98</text>
<line x1="90" y1="130.0" x2="1130" y2="130.0" stroke="#eee" stroke-width="1"/>
<text x="78" y="135.0" text-anchor="end" font-size="14" font-family="Arial, PingFang SC, Microsoft YaHei, sans-serif" fill="#666">38.72</text>
<text x="194.0" y="658" text-anchor="middle" font-size="14" font-family="Arial, PingFang SC, Microsoft YaHei, sans-serif" fill="#666">2021</text>
<text x="402.0" y="658" text-anchor="middle" font-size="14" font-family="Arial, PingFang SC, Microsoft YaHei, sans-serif" fill="#666">2022</text>
<text x="610.0" y="658" text-anchor="middle" font-size="14" font-family="Arial, PingFang SC, Microsoft YaHei, sans-serif" fill="#666">2023</text>
<text x="818.0" y="658" text-anchor="middle" font-size="14" font-family="Arial, PingFang SC, Microsoft YaHei, sans-serif" fill="#666">2024</text>
<text x="1026.0" y="658" text-anchor="middle" font-size="14" font-family="Arial, PingFang SC, Microsoft YaHei, sans-serif" fill="#666">2025</text>
<rect x="123.28" y="488.21" width="65.06" height="141.79" fill="#4E79A7" opacity="0.85"/>
<rect x="331.28" y="456.83" width="65.06" height="173.17" fill="#4E79A7" opacity="0.85"/>
<rect x="539.28" y="482.27" width="65.06" height="147.73" fill="#4E79A7" opacity="0.85"/>
<rect x="747.28" y="473.10" width="65.06" height="156.90" fill="#4E79A7" opacity="0.85"/>
<rect x="955.28" y="472.59" width="65.06" height="157.41" fill="#4E79A7" opacity="0.85"/>
<rect x="194.00" y="353.27" width="65.06" height="276.73" fill="#F28E2B" opacity="0.85"/>
<rect x="402.00" y="201.28" width="65.06" height="428.72" fill="#F28E2B" opacity="0.85"/>
<rect x="610.00" y="205.03" width="65.06" height="424.97" fill="#F28E2B" opacity="0.85"/>
<rect x="818.00" y="216.65" width="65.06" height="413.35" fill="#F28E2B" opacity="0.85"/>
<rect x="1026.00" y="207.74" width="65.06" height="422.26" fill="#F28E2B" opacity="0.85"/>
<polyline fill="none" stroke="#E15759" stroke-width="3" points="194.00,130.00 402.00,170.42 610.00,196.37 818.00,254.87 1026.00,285.09"/>
<circle cx="194.00" cy="130.00" r="4" fill="#E15759"/>
<circle cx="402.00" cy="170.42" r="4" fill="#E15759"/>
<circle cx="610.00" cy="196.37" r="4" fill="#E15759"/>
<circle cx="818.00" cy="254.87" r="4" fill="#E15759"/>
<circle cx="1026.00" cy="285.09" r="4" fill="#E15759"/>
<polyline fill="none" stroke="#76B7B2" stroke-width="3" points="194.00,601.46 402.00,599.91 610.00,603.92 818.00,601.20 1026.00,588.16"/>
<circle cx="194.00" cy="601.46" r="4" fill="#76B7B2"/>
<circle cx="402.00" cy="599.91" r="4" fill="#76B7B2"/>
<circle cx="610.00" cy="603.92" r="4" fill="#76B7B2"/>
<circle cx="818.00" cy="601.20" r="4" fill="#76B7B2"/>
<circle cx="1026.00" cy="588.16" r="4" fill="#76B7B2"/>
<polyline fill="none" stroke="#59A14F" stroke-width="3" points="194.00,602.24 402.00,600.56 610.00,604.56 818.00,601.85 1026.00,589.07"/>
<circle cx="194.00" cy="602.24" r="4" fill="#59A14F"/>
<circle cx="402.00" cy="600.56" r="4" fill="#59A14F"/>
<circle cx="610.00" cy="604.56" r="4" fill="#59A14F"/>
<circle cx="818.00" cy="601.85" r="4" fill="#59A14F"/>
<circle cx="1026.00" cy="589.07" r="4" fill="#59A14F"/>
</svg>