<svg xmlns="http://www.w3.org/2000/svg" width="1200" height="720" viewBox="0 0 1200 720">
<rect x="0" y="0" width="100%" height="100%" fill="#ffffff"/>
<text x="40" y="42" font-size="26" font-family="Arial, PingFang SC, Microsoft YaHei, sans-serif" fill="#222">分产品收入变化图</text>
<rect x="40" y="60" width="22" height="10" fill="#4E79A7"/>
<text x="68" y="70" font-size="16" font-family="Arial, PingFang SC, Microsoft YaHei, sans-serif" fill="#333">旅客及货邮相关收入</text>
<rect x="210" y="60" width="22" height="10" fill="#F28E2B"/>
<text x="238" y="70" font-size="16" font-family="Arial, PingFang SC, Microsoft YaHei, sans-serif" fill="#333">其他非航收入</text>
<rect x="380" y="60" width="22" height="10" fill="#E15759"/>
<text x="408" y="70" font-size="16" font-family="Arial, PingFang SC, Microsoft YaHei, sans-serif" fill="#333">架次相关收入</text>
<rect x="550" y="60" width="22" height="10" fill="#76B7B2"/>
<text x="578" y="70" font-size="16" font-family="Arial, PingFang SC, Microsoft YaHei, sans-serif" fill="#333">商业租赁</text>
<rect x="720" y="60" width="22" height="10" fill="#59A14F"/>
<text x="748" y="70" font-size="16" font-family="Arial, PingFang SC, Microsoft YaHei, sans-serif" fill="#333">商业餐饮收入</text>
<line x1="90" y1="130" x2="90" y2="630" stroke="#555" stroke-width="1"/>
<line x1="90" y1="630.0" x2="1130" y2="630.0" stroke="#555" stroke-width="1"/>
<line x1="90" y1="630.0" x2="1130" y2="630.0" stroke="#eee" stroke-width="1"/>
<text x="78" y="635.0" text-anchor="end" font-size="14" font-family="Arial, PingFang SC, Microsoft YaHei, sans-serif" fill="#666">0.00</text>
<line x1="90" y1="530.0" x2="1130" y2="530.0" stroke="#eee" stroke-width="1"/>
<text x="78" y="535.0" text-anchor="end" font-size="14" font-family="Arial, PingFang SC, Microsoft YaHei, sans-serif" fill="#666">9.69</text>
<line x1="90" y1="430.0" x2="1130" y2="430.0" stroke="#eee" stroke-width="1"/>
<text x="78" y="435.0" text-anchor="end" font-size="14" font-family="Arial, PingFang SC, Microsoft YaHei, sans-serif" fill="#666">19.38</text>
<line x1="90" y1="330.0" x2="1130" y2="330.0" stroke="#eee" stroke-width="1"/>
<text x="78" y="335.0" text-anchor="end" font-size="14" font-family="Arial, PingFang SC, Microsoft YaHei, sans-serif" fill="#666">29.07</text>
<line x1="90" y1="229.99999999999994" x2="1130" y2="229.99999999999994" stroke="#eee" stroke-width="1"/>
<text x="78" y="234.99999999999994" text-anchor="end" font-size="14" font-family="Arial, PingFang SC, Microsoft YaHei, sans-serif" fill="#666">38.76</text>
<line x1="90" y1="130.0" x2="1130" y2="130.0" stroke="#eee" stroke-width="1"/>
<text x="78" y="135.0" text-anchor="end" font-size="14" font-family="Arial, PingFang SC, Microsoft YaHei, sans-serif" fill="#666">48.45</text>
<text x="194.0" y="658" text-anchor="middle" font-size="14" font-family="Arial, PingFang SC, Microsoft YaHei, sans-serif" fill="#666">2021</text>
<text x="402.0" y="658" text-anchor="middle" font-size="14" font-family="Arial, PingFang SC, Microsoft YaHei, sans-serif" fill="#666">2022</text>
<text x="610.0" y="658" text-anchor="middle" font-size="14" font-family="Arial, PingFang SC, Microsoft YaHei, sans-serif" fill="#666">2023</text>
<text x="818.0" y="658" text-anchor="middle" font-size="14" font-family="Arial, PingFang SC, Microsoft YaHei, sans-serif" fill="#666">2024</text>
<text x="1026.0" y="658" text-anchor="middle" font-size="14" font-family="Arial, PingFang SC, Microsoft YaHei, sans-serif" fill="#666">2025</text>
<rect x="123.28" y="513.38" width="26.02" height="116.62" fill="#4E79A7" opacity="0.85"/>
<rect x="331.28" y="542.38" width="26.02" height="87.62" fill="#4E79A7" opacity="0.85"/>
<rect x="539.28" y="276.44" width="26.02" height="353.56" fill="#4E79A7" opacity="0.85"/>
<rect x="747.28" y="130.00" width="26.02" height="500.00" fill="#4E79A7" opacity="0.85"/>
<rect x="955.28" y="448.89" width="26.02" height="181.11" fill="#4E79A7" opacity="0.85"/>
<rect x="151.57" y="451.16" width="26.02" height="178.84" fill="#F28E2B" opacity="0.85"/>
<rect x="359.57" y="407.61" width="26.02" height="222.39" fill="#F28E2B" opacity="0.85"/>
<rect x="567.57" y="220.20" width="26.02" height="409.80" fill="#F28E2B" opacity="0.85"/>
<rect x="775.57" y="160.55" width="26.02" height="469.45" fill="#F28E2B" opacity="0.85"/>
<rect x="983.57" y="473.96" width="26.02" height="156.04" fill="#F28E2B" opacity="0.85"/>
<rect x="179.86" y="454.87" width="26.02" height="175.13" fill="#E15759" opacity="0.85"/>
<rect x="387.86" y="470.35" width="26.02" height="159.65" fill="#E15759" opacity="0.85"/>
<rect x="595.86" y="335.26" width="26.02" height="294.74" fill="#E15759" opacity="0.85"/>
<rect x="803.86" y="278.40" width="26.02" height="351.60" fill="#E15759" opacity="0.85"/>
<rect x="1011.86" y="510.19" width="26.02" height="119.81" fill="#E15759" opacity="0.85"/>
<rect x="208.14" y="529.79" width="26.02" height="100.21" fill="#76B7B2" opacity="0.85"/>
<rect x="416.14" y="555.08" width="26.02" height="74.92" fill="#76B7B2" opacity="0.85"/>
<rect x="624.14" y="265.71" width="26.02" height="364.29" fill="#76B7B2" opacity="0.85"/>
<rect x="832.14" y="307.92" width="26.02" height="322.08" fill="#76B7B2" opacity="0.85"/>
<rect x="1040.14" y="517.41" width="26.02" height="112.59" fill="#76B7B2" opacity="0.85"/>
<rect x="236.43" y="529.79" width="26.02" height="100.21" fill="#59A14F" opacity="0.85"/>
<rect x="444.43" y="555.08" width="26.02" height="74.92" fill="#59A14F" opacity="0.85"/>
<rect x="652.43" y="265.71" width="26.02" height="364.29" fill="#59A14F" opacity="0.85"/>
<rect x="860.43" y="307.92" width="26.02" height="322.08" fill="#59A14F" opacity="0.85"/>
<rect x="1068.43" y="517.41" width="26.02" height="112.59" fill="#59A14F" opacity="0.85"/>
</svg>