<svg xmlns="http://www.w3.org/2000/svg" width="1200" height="720" viewBox="0 0 1200 720">
<rect x="0" y="0" width="100%" height="100%" fill="#ffffff"/>
<text x="40" y="42" font-size="26" font-family="Arial, PingFang SC, Microsoft YaHei, sans-serif" fill="#222">分产品收入变化图</text>
<rect x="40" y="60" width="22" height="10" fill="#4E79A7"/>
<text x="68" y="70" font-size="16" font-family="Arial, PingFang SC, Microsoft YaHei, sans-serif" fill="#333">微型传动系统行业</text>
<rect x="210" y="60" width="22" height="10" fill="#F28E2B"/>
<text x="238" y="70" font-size="16" font-family="Arial, PingFang SC, Microsoft YaHei, sans-serif" fill="#333">微型传动系统</text>
<rect x="380" y="60" width="22" height="10" fill="#E15759"/>
<text x="408" y="70" font-size="16" font-family="Arial, PingFang SC, Microsoft YaHei, sans-serif" fill="#333">精密注塑件</text>
<rect x="550" y="60" width="22" height="10" fill="#76B7B2"/>
<text x="578" y="70" font-size="16" font-family="Arial, PingFang SC, Microsoft YaHei, sans-serif" fill="#333">国外</text>
<rect x="720" y="60" width="22" height="10" fill="#59A14F"/>
<text x="748" y="70" font-size="16" font-family="Arial, PingFang SC, Microsoft YaHei, sans-serif" fill="#333">精密模具及其他</text>
<line x1="90" y1="130" x2="90" y2="630" stroke="#555" stroke-width="1"/>
<line x1="90" y1="630.0" x2="1130" y2="630.0" stroke="#555" stroke-width="1"/>
<line x1="90" y1="630.0" x2="1130" y2="630.0" stroke="#eee" stroke-width="1"/>
<text x="78" y="635.0" text-anchor="end" font-size="14" font-family="Arial, PingFang SC, Microsoft YaHei, sans-serif" fill="#666">0.00</text>
<line x1="90" y1="530.0" x2="1130" y2="530.0" stroke="#eee" stroke-width="1"/>
<text x="78" y="535.0" text-anchor="end" font-size="14" font-family="Arial, PingFang SC, Microsoft YaHei, sans-serif" fill="#666">5.00</text>
<line x1="90" y1="430.0" x2="1130" y2="430.0" stroke="#eee" stroke-width="1"/>
<text x="78" y="435.0" text-anchor="end" font-size="14" font-family="Arial, PingFang SC, Microsoft YaHei, sans-serif" fill="#666">10.01</text>
<line x1="90" y1="330.0" x2="1130" y2="330.0" stroke="#eee" stroke-width="1"/>
<text x="78" y="335.0" text-anchor="end" font-size="14" font-family="Arial, PingFang SC, Microsoft YaHei, sans-serif" fill="#666">15.01</text>
<line x1="90" y1="230.00000000000003" x2="1130" y2="230.00000000000003" stroke="#eee" stroke-width="1"/>
<text x="78" y="235.00000000000003" text-anchor="end" font-size="14" font-family="Arial, PingFang SC, Microsoft YaHei, sans-serif" fill="#666">20.02</text>
<line x1="90" y1="130.0" x2="1130" y2="130.0" stroke="#eee" stroke-width="1"/>
<text x="78" y="135.0" text-anchor="end" font-size="14" font-family="Arial, PingFang SC, Microsoft YaHei, sans-serif" fill="#666">25.02</text>
<text x="194.0" y="658" text-anchor="middle" font-size="14" font-family="Arial, PingFang SC, Microsoft YaHei, sans-serif" fill="#666">2021</text>
<text x="402.0" y="658" text-anchor="middle" font-size="14" font-family="Arial, PingFang SC, Microsoft YaHei, sans-serif" fill="#666">2022</text>
<text x="610.0" y="658" text-anchor="middle" font-size="14" font-family="Arial, PingFang SC, Microsoft YaHei, sans-serif" fill="#666">2023</text>
<text x="818.0" y="658" text-anchor="middle" font-size="14" font-family="Arial, PingFang SC, Microsoft YaHei, sans-serif" fill="#666">2024</text>
<text x="1026.0" y="658" text-anchor="middle" font-size="14" font-family="Arial, PingFang SC, Microsoft YaHei, sans-serif" fill="#666">2025</text>
<rect x="123.28" y="295.27" width="26.02" height="334.73" fill="#4E79A7" opacity="0.85"/>
<rect x="331.28" y="306.06" width="26.02" height="323.94" fill="#4E79A7" opacity="0.85"/>
<rect x="539.28" y="288.27" width="26.02" height="341.73" fill="#4E79A7" opacity="0.85"/>
<rect x="747.28" y="196.35" width="26.02" height="433.65" fill="#4E79A7" opacity="0.85"/>
<rect x="955.28" y="130.00" width="26.02" height="500.00" fill="#4E79A7" opacity="0.85"/>
<rect x="151.57" y="410.38" width="26.02" height="219.62" fill="#F28E2B" opacity="0.85"/>
<rect x="359.57" y="428.16" width="26.02" height="201.84" fill="#F28E2B" opacity="0.85"/>
<rect x="567.57" y="412.97" width="26.02" height="217.03" fill="#F28E2B" opacity="0.85"/>
<rect x="775.57" y="354.42" width="26.02" height="275.58" fill="#F28E2B" opacity="0.85"/>
<rect x="983.57" y="324.44" width="26.02" height="305.56" fill="#F28E2B" opacity="0.85"/>
<rect x="179.86" y="529.08" width="26.02" height="100.92" fill="#E15759" opacity="0.85"/>
<rect x="387.86" y="523.29" width="26.02" height="106.71" fill="#E15759" opacity="0.85"/>
<rect x="595.86" y="524.28" width="26.02" height="105.72" fill="#E15759" opacity="0.85"/>
<rect x="803.86" y="495.51" width="26.02" height="134.49" fill="#E15759" opacity="0.85"/>
<rect x="1011.86" y="463.13" width="26.02" height="166.87" fill="#E15759" opacity="0.85"/>
<rect x="208.14" y="589.43" width="26.02" height="40.57" fill="#76B7B2" opacity="0.85"/>
<rect x="416.14" y="592.03" width="26.02" height="37.97" fill="#76B7B2" opacity="0.85"/>
<rect x="624.14" y="587.03" width="26.02" height="42.97" fill="#76B7B2" opacity="0.85"/>
<rect x="832.14" y="564.45" width="26.02" height="65.55" fill="#76B7B2" opacity="0.85"/>
<rect x="1040.14" y="571.25" width="26.02" height="58.75" fill="#76B7B2" opacity="0.85"/>
<rect x="236.43" y="615.61" width="26.02" height="14.39" fill="#59A14F" opacity="0.85"/>
<rect x="444.43" y="614.41" width="26.02" height="15.59" fill="#59A14F" opacity="0.85"/>
<rect x="652.43" y="611.02" width="26.02" height="18.98" fill="#59A14F" opacity="0.85"/>
<rect x="860.43" y="606.42" width="26.02" height="23.58" fill="#59A14F" opacity="0.85"/>
<rect x="1068.43" y="602.22" width="26.02" height="27.78" fill="#59A14F" opacity="0.85"/>
</svg>