<svg xmlns="http://www.w3.org/2000/svg" width="1200" height="720" viewBox="0 0 1200 720">
<rect x="0" y="0" width="100%" height="100%" fill="#ffffff"/>
<text x="40" y="42" font-size="26" font-family="Arial, PingFang SC, Microsoft YaHei, sans-serif" fill="#222">分产品收入变化图</text>
<rect x="40" y="60" width="22" height="10" fill="#4E79A7"/>
<text x="68" y="70" font-size="16" font-family="Arial, PingFang SC, Microsoft YaHei, sans-serif" fill="#333">游戏相关业务收入</text>
<rect x="210" y="60" width="22" height="10" fill="#F28E2B"/>
<text x="238" y="70" font-size="16" font-family="Arial, PingFang SC, Microsoft YaHei, sans-serif" fill="#333">移动端网络游戏收入</text>
<rect x="380" y="60" width="22" height="10" fill="#E15759"/>
<text x="408" y="70" font-size="16" font-family="Arial, PingFang SC, Microsoft YaHei, sans-serif" fill="#333">电脑端网络游戏收入</text>
<rect x="550" y="60" width="22" height="10" fill="#76B7B2"/>
<text x="578" y="70" font-size="16" font-family="Arial, PingFang SC, Microsoft YaHei, sans-serif" fill="#333">其他游戏相关业务收入</text>
<rect x="720" y="60" width="22" height="10" fill="#59A14F"/>
<text x="748" y="70" font-size="16" font-family="Arial, PingFang SC, Microsoft YaHei, sans-serif" fill="#333">国外</text>
<line x1="90" y1="130" x2="90" y2="630" stroke="#555" stroke-width="1"/>
<line x1="90" y1="630.0" x2="1130" y2="630.0" stroke="#555" stroke-width="1"/>
<line x1="90" y1="630.0" x2="1130" y2="630.0" stroke="#eee" stroke-width="1"/>
<text x="78" y="635.0" text-anchor="end" font-size="14" font-family="Arial, PingFang SC, Microsoft YaHei, sans-serif" fill="#666">0.00</text>
<line x1="90" y1="530.0" x2="1130" y2="530.0" stroke="#eee" stroke-width="1"/>
<text x="78" y="535.0" text-anchor="end" font-size="14" font-family="Arial, PingFang SC, Microsoft YaHei, sans-serif" fill="#666">13.39</text>
<line x1="90" y1="430.0" x2="1130" y2="430.0" stroke="#eee" stroke-width="1"/>
<text x="78" y="435.0" text-anchor="end" font-size="14" font-family="Arial, PingFang SC, Microsoft YaHei, sans-serif" fill="#666">26.77</text>
<line x1="90" y1="330.0" x2="1130" y2="330.0" stroke="#eee" stroke-width="1"/>
<text x="78" y="335.0" text-anchor="end" font-size="14" font-family="Arial, PingFang SC, Microsoft YaHei, sans-serif" fill="#666">40.16</text>
<line x1="90" y1="230.0" x2="1130" y2="230.0" stroke="#eee" stroke-width="1"/>
<text x="78" y="235.0" text-anchor="end" font-size="14" font-family="Arial, PingFang SC, Microsoft YaHei, sans-serif" fill="#666">53.54</text>
<line x1="90" y1="130.0" x2="1130" y2="130.0" stroke="#eee" stroke-width="1"/>
<text x="78" y="135.0" text-anchor="end" font-size="14" font-family="Arial, PingFang SC, Microsoft YaHei, sans-serif" fill="#666">66.93</text>
<text x="194.0" y="658" text-anchor="middle" font-size="14" font-family="Arial, PingFang SC, Microsoft YaHei, sans-serif" fill="#666">2021</text>
<text x="402.0" y="658" text-anchor="middle" font-size="14" font-family="Arial, PingFang SC, Microsoft YaHei, sans-serif" fill="#666">2022</text>
<text x="610.0" y="658" text-anchor="middle" font-size="14" font-family="Arial, PingFang SC, Microsoft YaHei, sans-serif" fill="#666">2023</text>
<text x="818.0" y="658" text-anchor="middle" font-size="14" font-family="Arial, PingFang SC, Microsoft YaHei, sans-serif" fill="#666">2024</text>
<text x="1026.0" y="658" text-anchor="middle" font-size="14" font-family="Arial, PingFang SC, Microsoft YaHei, sans-serif" fill="#666">2025</text>
<rect x="123.28" y="395.35" width="26.02" height="234.65" fill="#4E79A7" opacity="0.85"/>
<rect x="331.28" y="399.68" width="26.02" height="230.32" fill="#4E79A7" opacity="0.85"/>
<rect x="539.28" y="305.26" width="26.02" height="324.74" fill="#4E79A7" opacity="0.85"/>
<rect x="747.28" y="305.56" width="26.02" height="324.44" fill="#4E79A7" opacity="0.85"/>
<rect x="955.28" y="130.00" width="26.02" height="500.00" fill="#4E79A7" opacity="0.85"/>
<rect x="151.57" y="508.98" width="26.02" height="121.02" fill="#F28E2B" opacity="0.85"/>
<rect x="359.57" y="500.09" width="26.02" height="129.91" fill="#F28E2B" opacity="0.85"/>
<rect x="567.57" y="401.33" width="26.02" height="228.67" fill="#F28E2B" opacity="0.85"/>
<rect x="775.57" y="387.28" width="26.02" height="242.72" fill="#F28E2B" opacity="0.85"/>
<rect x="983.57" y="210.83" width="26.02" height="419.17" fill="#F28E2B" opacity="0.85"/>
<rect x="179.86" y="529.45" width="26.02" height="100.55" fill="#E15759" opacity="0.85"/>
<rect x="387.86" y="536.92" width="26.02" height="93.08" fill="#E15759" opacity="0.85"/>
<rect x="595.86" y="537.14" width="26.02" height="92.86" fill="#E15759" opacity="0.85"/>
<rect x="803.86" y="553.88" width="26.02" height="76.12" fill="#E15759" opacity="0.85"/>
<rect x="1011.86" y="559.40" width="26.02" height="70.60" fill="#E15759" opacity="0.85"/>
<rect x="208.14" y="618.42" width="26.02" height="11.58" fill="#76B7B2" opacity="0.85"/>
<rect x="416.14" y="624.55" width="26.02" height="5.45" fill="#76B7B2" opacity="0.85"/>
<rect x="624.14" y="627.53" width="26.02" height="2.47" fill="#76B7B2" opacity="0.85"/>
<rect x="832.14" y="624.55" width="26.02" height="5.45" fill="#76B7B2" opacity="0.85"/>
<rect x="1040.14" y="619.77" width="26.02" height="10.23" fill="#76B7B2" opacity="0.85"/>
<rect x="236.43" y="629.18" width="26.02" height="0.82" fill="#59A14F" opacity="0.85"/>
<rect x="444.43" y="628.88" width="26.02" height="1.12" fill="#59A14F" opacity="0.85"/>
<rect x="652.43" y="627.83" width="26.02" height="2.17" fill="#59A14F" opacity="0.85"/>
<rect x="860.43" y="628.66" width="26.02" height="1.34" fill="#59A14F" opacity="0.85"/>
<rect x="1068.43" y="627.91" width="26.02" height="2.09" fill="#59A14F" opacity="0.85"/>
</svg>