<svg xmlns="http://www.w3.org/2000/svg" width="1200" height="720" viewBox="0 0 1200 720">
<rect x="0" y="0" width="100%" height="100%" fill="#ffffff"/>
<text x="40" y="42" font-size="26" font-family="Arial, PingFang SC, Microsoft YaHei, sans-serif" fill="#222">财务比率分析图</text>
<rect x="40" y="60" width="22" height="10" fill="#4E79A7"/>
<text x="68" y="70" font-size="16" font-family="Arial, PingFang SC, Microsoft YaHei, sans-serif" fill="#333">资产负债率</text>
<rect x="210" y="60" width="22" height="10" fill="#F28E2B"/>
<text x="238" y="70" font-size="16" font-family="Arial, PingFang SC, Microsoft YaHei, sans-serif" fill="#333">流动比率</text>
<rect x="380" y="60" width="22" height="10" fill="#E15759"/>
<text x="408" y="70" font-size="16" font-family="Arial, PingFang SC, Microsoft YaHei, sans-serif" fill="#333">速动比率</text>
<rect x="550" y="60" width="22" height="10" fill="#76B7B2"/>
<text x="578" y="70" font-size="16" font-family="Arial, PingFang SC, Microsoft YaHei, sans-serif" fill="#333">应收周转率</text>
<rect x="720" y="60" width="22" height="10" fill="#59A14F"/>
<text x="748" y="70" font-size="16" font-family="Arial, PingFang SC, Microsoft YaHei, sans-serif" fill="#333">存货周转率</text>
<line x1="90" y1="130" x2="90" y2="630" stroke="#555" stroke-width="1"/>
<line x1="90" y1="630.0" x2="1130" y2="630.0" stroke="#555" stroke-width="1"/>
<line x1="90" y1="630.0" x2="1130" y2="630.0" stroke="#eee" stroke-width="1"/>
<text x="78" y="635.0" text-anchor="end" font-size="14" font-family="Arial, PingFang SC, Microsoft YaHei, sans-serif" fill="#666">0.00</text>
<line x1="90" y1="530.0" x2="1130" y2="530.0" stroke="#eee" stroke-width="1"/>
<text x="78" y="535.0" text-anchor="end" font-size="14" font-family="Arial, PingFang SC, Microsoft YaHei, sans-serif" fill="#666">154.12</text>
<line x1="90" y1="430.0" x2="1130" y2="430.0" stroke="#eee" stroke-width="1"/>
<text x="78" y="435.0" text-anchor="end" font-size="14" font-family="Arial, PingFang SC, Microsoft YaHei, sans-serif" fill="#666">308.24</text>
<line x1="90" y1="330.0" x2="1130" y2="330.0" stroke="#eee" stroke-width="1"/>
<text x="78" y="335.0" text-anchor="end" font-size="14" font-family="Arial, PingFang SC, Microsoft YaHei, sans-serif" fill="#666">462.37</text>
<line x1="90" y1="229.99999999999994" x2="1130" y2="229.99999999999994" stroke="#eee" stroke-width="1"/>
<text x="78" y="234.99999999999994" text-anchor="end" font-size="14" font-family="Arial, PingFang SC, Microsoft YaHei, sans-serif" fill="#666">616.49</text>
<line x1="90" y1="130.0" x2="1130" y2="130.0" stroke="#eee" stroke-width="1"/>
<text x="78" y="135.0" text-anchor="end" font-size="14" font-family="Arial, PingFang SC, Microsoft YaHei, sans-serif" fill="#666">770.61</text>
<text x="194.0" y="658" text-anchor="middle" font-size="14" font-family="Arial, PingFang SC, Microsoft YaHei, sans-serif" fill="#666">2021</text>
<text x="402.0" y="658" text-anchor="middle" font-size="14" font-family="Arial, PingFang SC, Microsoft YaHei, sans-serif" fill="#666">2022</text>
<text x="610.0" y="658" text-anchor="middle" font-size="14" font-family="Arial, PingFang SC, Microsoft YaHei, sans-serif" fill="#666">2023</text>
<text x="818.0" y="658" text-anchor="middle" font-size="14" font-family="Arial, PingFang SC, Microsoft YaHei, sans-serif" fill="#666">2024</text>
<text x="1026.0" y="658" text-anchor="middle" font-size="14" font-family="Arial, PingFang SC, Microsoft YaHei, sans-serif" fill="#666">2025</text>
<rect x="123.28" y="255.76" width="65.06" height="374.24" fill="#4E79A7" opacity="0.85"/>
<rect x="331.28" y="355.46" width="65.06" height="274.54" fill="#4E79A7" opacity="0.85"/>
<rect x="539.28" y="327.92" width="65.06" height="302.08" fill="#4E79A7" opacity="0.85"/>
<rect x="747.28" y="273.27" width="65.06" height="356.73" fill="#4E79A7" opacity="0.85"/>
<rect x="955.28" y="130.00" width="65.06" height="500.00" fill="#4E79A7" opacity="0.85"/>
<rect x="194.00" y="628.31" width="65.06" height="1.69" fill="#F28E2B" opacity="0.85"/>
<rect x="402.00" y="628.94" width="65.06" height="1.06" fill="#F28E2B" opacity="0.85"/>
<rect x="610.00" y="628.78" width="65.06" height="1.22" fill="#F28E2B" opacity="0.85"/>
<rect x="818.00" y="628.70" width="65.06" height="1.30" fill="#F28E2B" opacity="0.85"/>
<rect x="1026.00" y="628.57" width="65.06" height="1.43" fill="#F28E2B" opacity="0.85"/>
<polyline fill="none" stroke="#E15759" stroke-width="3" points="194.00,605.81 402.00,611.38 610.00,613.81 818.00,616.97 1026.00,618.01"/>
<circle cx="194.00" cy="605.81" r="4" fill="#E15759"/>
<circle cx="402.00" cy="611.38" r="4" fill="#E15759"/>
<circle cx="610.00" cy="613.81" r="4" fill="#E15759"/>
<circle cx="818.00" cy="616.97" r="4" fill="#E15759"/>
<circle cx="1026.00" cy="618.01" r="4" fill="#E15759"/>
<polyline fill="none" stroke="#76B7B2" stroke-width="3" points="194.00,628.54 402.00,627.88 610.00,627.53 818.00,626.69 1026.00,626.22"/>
<circle cx="194.00" cy="628.54" r="4" fill="#76B7B2"/>
<circle cx="402.00" cy="627.88" r="4" fill="#76B7B2"/>
<circle cx="610.00" cy="627.53" r="4" fill="#76B7B2"/>
<circle cx="818.00" cy="626.69" r="4" fill="#76B7B2"/>
<circle cx="1026.00" cy="626.22" r="4" fill="#76B7B2"/>
<polyline fill="none" stroke="#59A14F" stroke-width="3" points="194.00,629.29 402.00,628.91 610.00,628.42 818.00,627.72 1026.00,627.25"/>
<circle cx="194.00" cy="629.29" r="4" fill="#59A14F"/>
<circle cx="402.00" cy="628.91" r="4" fill="#59A14F"/>
<circle cx="610.00" cy="628.42" r="4" fill="#59A14F"/>
<circle cx="818.00" cy="627.72" r="4" fill="#59A14F"/>
<circle cx="1026.00" cy="627.25" r="4" fill="#59A14F"/>
</svg>