<svg xmlns="http://www.w3.org/2000/svg" width="1200" height="720" viewBox="0 0 1200 720">
<rect x="0" y="0" width="100%" height="100%" fill="#ffffff"/>
<text x="40" y="42" font-size="26" font-family="Arial, PingFang SC, Microsoft YaHei, sans-serif" fill="#222">分产品收入变化图</text>
<rect x="40" y="60" width="22" height="10" fill="#4E79A7"/>
<text x="68" y="70" font-size="16" font-family="Arial, PingFang SC, Microsoft YaHei, sans-serif" fill="#333">商品销售业</text>
<rect x="210" y="60" width="22" height="10" fill="#F28E2B"/>
<text x="238" y="70" font-size="16" font-family="Arial, PingFang SC, Microsoft YaHei, sans-serif" fill="#333">商品贸易-免税商品</text>
<rect x="380" y="60" width="22" height="10" fill="#E15759"/>
<text x="408" y="70" font-size="16" font-family="Arial, PingFang SC, Microsoft YaHei, sans-serif" fill="#333">海南</text>
<rect x="550" y="60" width="22" height="10" fill="#76B7B2"/>
<text x="578" y="70" font-size="16" font-family="Arial, PingFang SC, Microsoft YaHei, sans-serif" fill="#333">商品贸易-有税商品</text>
<rect x="720" y="60" width="22" height="10" fill="#59A14F"/>
<text x="748" y="70" font-size="16" font-family="Arial, PingFang SC, Microsoft YaHei, sans-serif" fill="#333">其他业务</text>
<line x1="90" y1="130" x2="90" y2="630" stroke="#555" stroke-width="1"/>
<line x1="90" y1="630.0" x2="1130" y2="630.0" stroke="#555" stroke-width="1"/>
<line x1="90" y1="630.0" x2="1130" y2="630.0" stroke="#eee" stroke-width="1"/>
<text x="78" y="635.0" text-anchor="end" font-size="14" font-family="Arial, PingFang SC, Microsoft YaHei, sans-serif" fill="#666">0.00</text>
<line x1="90" y1="530.0" x2="1130" y2="530.0" stroke="#eee" stroke-width="1"/>
<text x="78" y="535.0" text-anchor="end" font-size="14" font-family="Arial, PingFang SC, Microsoft YaHei, sans-serif" fill="#666">133.88</text>
<line x1="90" y1="430.0" x2="1130" y2="430.0" stroke="#eee" stroke-width="1"/>
<text x="78" y="435.0" text-anchor="end" font-size="14" font-family="Arial, PingFang SC, Microsoft YaHei, sans-serif" fill="#666">267.76</text>
<line x1="90" y1="330.0" x2="1130" y2="330.0" stroke="#eee" stroke-width="1"/>
<text x="78" y="335.0" text-anchor="end" font-size="14" font-family="Arial, PingFang SC, Microsoft YaHei, sans-serif" fill="#666">401.65</text>
<line x1="90" y1="229.99999999999994" x2="1130" y2="229.99999999999994" stroke="#eee" stroke-width="1"/>
<text x="78" y="234.99999999999994" text-anchor="end" font-size="14" font-family="Arial, PingFang SC, Microsoft YaHei, sans-serif" fill="#666">535.53</text>
<line x1="90" y1="130.0" x2="1130" y2="130.0" stroke="#eee" stroke-width="1"/>
<text x="78" y="135.0" text-anchor="end" font-size="14" font-family="Arial, PingFang SC, Microsoft YaHei, sans-serif" fill="#666">669.41</text>
<text x="194.0" y="658" text-anchor="middle" font-size="14" font-family="Arial, PingFang SC, Microsoft YaHei, sans-serif" fill="#666">2021</text>
<text x="402.0" y="658" text-anchor="middle" font-size="14" font-family="Arial, PingFang SC, Microsoft YaHei, sans-serif" fill="#666">2022</text>
<text x="610.0" y="658" text-anchor="middle" font-size="14" font-family="Arial, PingFang SC, Microsoft YaHei, sans-serif" fill="#666">2023</text>
<text x="818.0" y="658" text-anchor="middle" font-size="14" font-family="Arial, PingFang SC, Microsoft YaHei, sans-serif" fill="#666">2024</text>
<text x="1026.0" y="658" text-anchor="middle" font-size="14" font-family="Arial, PingFang SC, Microsoft YaHei, sans-serif" fill="#666">2025</text>
<rect x="123.28" y="130.00" width="26.02" height="500.00" fill="#4E79A7" opacity="0.85"/>
<rect x="331.28" y="226.61" width="26.02" height="403.39" fill="#4E79A7" opacity="0.85"/>
<rect x="539.28" y="132.73" width="26.02" height="497.27" fill="#4E79A7" opacity="0.85"/>
<rect x="747.28" y="213.51" width="26.02" height="416.49" fill="#4E79A7" opacity="0.85"/>
<rect x="955.28" y="237.47" width="26.02" height="392.53" fill="#4E79A7" opacity="0.85"/>
<rect x="151.57" y="309.30" width="26.02" height="320.70" fill="#F28E2B" opacity="0.85"/>
<rect x="359.57" y="435.56" width="26.02" height="194.44" fill="#F28E2B" opacity="0.85"/>
<rect x="567.57" y="299.63" width="26.02" height="330.37" fill="#F28E2B" opacity="0.85"/>
<rect x="775.57" y="179.33" width="26.02" height="450.67" fill="#F28E2B" opacity="0.85"/>
<rect x="983.57" y="185.52" width="26.02" height="444.48" fill="#F28E2B" opacity="0.85"/>
<rect x="179.86" y="278.23" width="26.02" height="351.77" fill="#E15759" opacity="0.85"/>
<rect x="387.86" y="370.78" width="26.02" height="259.22" fill="#E15759" opacity="0.85"/>
<rect x="595.86" y="333.84" width="26.02" height="296.16" fill="#E15759" opacity="0.85"/>
<rect x="803.86" y="288.83" width="26.02" height="341.17" fill="#E15759" opacity="0.85"/>
<rect x="1011.86" y="304.58" width="26.02" height="325.42" fill="#E15759" opacity="0.85"/>
<rect x="208.14" y="450.69" width="26.02" height="179.31" fill="#76B7B2" opacity="0.85"/>
<rect x="416.14" y="421.05" width="26.02" height="208.95" fill="#76B7B2" opacity="0.85"/>
<rect x="624.14" y="463.11" width="26.02" height="166.89" fill="#76B7B2" opacity="0.85"/>
<rect x="832.14" y="433.91" width="26.02" height="196.09" fill="#76B7B2" opacity="0.85"/>
<rect x="1040.14" y="476.31" width="26.02" height="153.69" fill="#76B7B2" opacity="0.85"/>
<rect x="236.43" y="624.52" width="26.02" height="5.48" fill="#59A14F" opacity="0.85"/>
<rect x="444.43" y="626.81" width="26.02" height="3.19" fill="#59A14F" opacity="0.85"/>
<rect x="652.43" y="622.80" width="26.02" height="7.20" fill="#59A14F" opacity="0.85"/>
<rect x="860.43" y="621.41" width="26.02" height="8.59" fill="#59A14F" opacity="0.85"/>
<rect x="1068.43" y="616.85" width="26.02" height="13.15" fill="#59A14F" opacity="0.85"/>
</svg>