<svg xmlns="http://www.w3.org/2000/svg" width="1200" height="720" viewBox="0 0 1200 720">
<rect x="0" y="0" width="100%" height="100%" fill="#ffffff"/>
<text x="40" y="42" font-size="26" font-family="Arial, PingFang SC, Microsoft YaHei, sans-serif" fill="#222">分产品收入变化图</text>
<rect x="40" y="60" width="22" height="10" fill="#4E79A7"/>
<text x="68" y="70" font-size="16" font-family="Arial, PingFang SC, Microsoft YaHei, sans-serif" fill="#333">食品制造业</text>
<rect x="210" y="60" width="22" height="10" fill="#F28E2B"/>
<text x="238" y="70" font-size="16" font-family="Arial, PingFang SC, Microsoft YaHei, sans-serif" fill="#333">酱油</text>
<rect x="380" y="60" width="22" height="10" fill="#E15759"/>
<text x="408" y="70" font-size="16" font-family="Arial, PingFang SC, Microsoft YaHei, sans-serif" fill="#333">北部</text>
<rect x="550" y="60" width="22" height="10" fill="#76B7B2"/>
<text x="578" y="70" font-size="16" font-family="Arial, PingFang SC, Microsoft YaHei, sans-serif" fill="#333">中部</text>
<rect x="720" y="60" width="22" height="10" fill="#59A14F"/>
<text x="748" y="70" font-size="16" font-family="Arial, PingFang SC, Microsoft YaHei, sans-serif" fill="#333">南部</text>
<line x1="90" y1="130" x2="90" y2="630" stroke="#555" stroke-width="1"/>
<line x1="90" y1="630.0" x2="1130" y2="630.0" stroke="#555" stroke-width="1"/>
<line x1="90" y1="630.0" x2="1130" y2="630.0" stroke="#eee" stroke-width="1"/>
<text x="78" y="635.0" text-anchor="end" font-size="14" font-family="Arial, PingFang SC, Microsoft YaHei, sans-serif" fill="#666">0.00</text>
<line x1="90" y1="530.0" x2="1130" y2="530.0" stroke="#eee" stroke-width="1"/>
<text x="78" y="535.0" text-anchor="end" font-size="14" font-family="Arial, PingFang SC, Microsoft YaHei, sans-serif" fill="#666">83.92</text>
<line x1="90" y1="430.0" x2="1130" y2="430.0" stroke="#eee" stroke-width="1"/>
<text x="78" y="435.0" text-anchor="end" font-size="14" font-family="Arial, PingFang SC, Microsoft YaHei, sans-serif" fill="#666">167.84</text>
<line x1="90" y1="330.0" x2="1130" y2="330.0" stroke="#eee" stroke-width="1"/>
<text x="78" y="335.0" text-anchor="end" font-size="14" font-family="Arial, PingFang SC, Microsoft YaHei, sans-serif" fill="#666">251.77</text>
<line x1="90" y1="230.00000000000003" x2="1130" y2="230.00000000000003" stroke="#eee" stroke-width="1"/>
<text x="78" y="235.00000000000003" text-anchor="end" font-size="14" font-family="Arial, PingFang SC, Microsoft YaHei, sans-serif" fill="#666">335.69</text>
<line x1="90" y1="130.0" x2="1130" y2="130.0" stroke="#eee" stroke-width="1"/>
<text x="78" y="135.0" text-anchor="end" font-size="14" font-family="Arial, PingFang SC, Microsoft YaHei, sans-serif" fill="#666">419.61</text>
<text x="194.0" y="658" text-anchor="middle" font-size="14" font-family="Arial, PingFang SC, Microsoft YaHei, sans-serif" fill="#666">2021</text>
<text x="402.0" y="658" text-anchor="middle" font-size="14" font-family="Arial, PingFang SC, Microsoft YaHei, sans-serif" fill="#666">2022</text>
<text x="610.0" y="658" text-anchor="middle" font-size="14" font-family="Arial, PingFang SC, Microsoft YaHei, sans-serif" fill="#666">2023</text>
<text x="818.0" y="658" text-anchor="middle" font-size="14" font-family="Arial, PingFang SC, Microsoft YaHei, sans-serif" fill="#666">2024</text>
<text x="1026.0" y="658" text-anchor="middle" font-size="14" font-family="Arial, PingFang SC, Microsoft YaHei, sans-serif" fill="#666">2025</text>
<rect x="123.28" y="208.86" width="26.02" height="421.14" fill="#4E79A7" opacity="0.85"/>
<rect x="331.28" y="195.29" width="26.02" height="434.71" fill="#4E79A7" opacity="0.85"/>
<rect x="539.28" y="214.10" width="26.02" height="415.90" fill="#4E79A7" opacity="0.85"/>
<rect x="747.28" y="173.48" width="26.02" height="456.52" fill="#4E79A7" opacity="0.85"/>
<rect x="955.28" y="130.00" width="26.02" height="500.00" fill="#4E79A7" opacity="0.85"/>
<rect x="151.57" y="256.00" width="26.02" height="374.00" fill="#F28E2B" opacity="0.85"/>
<rect x="359.57" y="375.54" width="26.02" height="254.46" fill="#F28E2B" opacity="0.85"/>
<rect x="567.57" y="398.40" width="26.02" height="231.60" fill="#F28E2B" opacity="0.85"/>
<rect x="775.57" y="379.51" width="26.02" height="250.49" fill="#F28E2B" opacity="0.85"/>
<rect x="983.57" y="357.58" width="26.02" height="272.42" fill="#F28E2B" opacity="0.85"/>
<rect x="179.86" y="467.89" width="26.02" height="162.11" fill="#E15759" opacity="0.85"/>
<rect x="387.86" y="514.54" width="26.02" height="115.46" fill="#E15759" opacity="0.85"/>
<rect x="595.86" y="521.52" width="26.02" height="108.48" fill="#E15759" opacity="0.85"/>
<rect x="803.86" y="513.48" width="26.02" height="116.52" fill="#E15759" opacity="0.85"/>
<rect x="1011.86" y="505.85" width="26.02" height="124.15" fill="#E15759" opacity="0.85"/>
<rect x="208.14" y="489.20" width="26.02" height="140.80" fill="#76B7B2" opacity="0.85"/>
<rect x="416.14" y="534.60" width="26.02" height="95.40" fill="#76B7B2" opacity="0.85"/>
<rect x="624.14" y="537.26" width="26.02" height="92.74" fill="#76B7B2" opacity="0.85"/>
<rect x="832.14" y="528.44" width="26.02" height="101.56" fill="#76B7B2" opacity="0.85"/>
<rect x="1040.14" y="519.98" width="26.02" height="110.02" fill="#76B7B2" opacity="0.85"/>
<rect x="236.43" y="513.78" width="26.02" height="116.22" fill="#59A14F" opacity="0.85"/>
<rect x="444.43" y="545.96" width="26.02" height="84.04" fill="#59A14F" opacity="0.85"/>
<rect x="652.43" y="549.43" width="26.02" height="80.57" fill="#59A14F" opacity="0.85"/>
<rect x="860.43" y="537.82" width="26.02" height="92.18" fill="#59A14F" opacity="0.85"/>
<rect x="1068.43" y="525.92" width="26.02" height="104.08" fill="#59A14F" opacity="0.85"/>
</svg>