<svg xmlns="http://www.w3.org/2000/svg" width="1200" height="720" viewBox="0 0 1200 720">
<rect x="0" y="0" width="100%" height="100%" fill="#ffffff"/>
<text x="40" y="42" font-size="26" font-family="Arial, PingFang SC, Microsoft YaHei, sans-serif" fill="#222">分产品利润结构图</text>
<rect x="40" y="60" width="22" height="10" fill="#4E79A7"/>
<text x="68" y="70" font-size="16" font-family="Arial, PingFang SC, Microsoft YaHei, sans-serif" fill="#333">利润</text>
<rect x="210" y="60" width="22" height="10" fill="#F28E2B"/>
<text x="238" y="70" font-size="16" font-family="Arial, PingFang SC, Microsoft YaHei, sans-serif" fill="#333">毛利率</text>
<line x1="90" y1="130" x2="90" y2="630" stroke="#555" stroke-width="1"/>
<line x1="90" y1="630.0" x2="1130" y2="630.0" stroke="#555" stroke-width="1"/>
<line x1="90" y1="630.0" x2="1130" y2="630.0" stroke="#eee" stroke-width="1"/>
<text x="78" y="635.0" text-anchor="end" font-size="14" font-family="Arial, PingFang SC, Microsoft YaHei, sans-serif" fill="#666">0.00</text>
<line x1="90" y1="530.0" x2="1130" y2="530.0" stroke="#eee" stroke-width="1"/>
<text x="78" y="535.0" text-anchor="end" font-size="14" font-family="Arial, PingFang SC, Microsoft YaHei, sans-serif" fill="#666">10.63</text>
<line x1="90" y1="430.0" x2="1130" y2="430.0" stroke="#eee" stroke-width="1"/>
<text x="78" y="435.0" text-anchor="end" font-size="14" font-family="Arial, PingFang SC, Microsoft YaHei, sans-serif" fill="#666">21.26</text>
<line x1="90" y1="329.99999999999994" x2="1130" y2="329.99999999999994" stroke="#eee" stroke-width="1"/>
<text x="78" y="334.99999999999994" text-anchor="end" font-size="14" font-family="Arial, PingFang SC, Microsoft YaHei, sans-serif" fill="#666">31.88</text>
<line x1="90" y1="230.0" x2="1130" y2="230.0" stroke="#eee" stroke-width="1"/>
<text x="78" y="235.0" text-anchor="end" font-size="14" font-family="Arial, PingFang SC, Microsoft YaHei, sans-serif" fill="#666">42.51</text>
<line x1="90" y1="130.0" x2="1130" y2="130.0" stroke="#eee" stroke-width="1"/>
<text x="78" y="135.0" text-anchor="end" font-size="14" font-family="Arial, PingFang SC, Microsoft YaHei, sans-serif" fill="#666">53.14</text>
<text x="155.0" y="658" text-anchor="middle" font-size="14" font-family="Arial, PingFang SC, Microsoft YaHei, sans-serif" fill="#666">仪器仪表</text>
<text x="285.0" y="658" text-anchor="middle" font-size="14" font-family="Arial, PingFang SC, Microsoft YaHei, sans-serif" fill="#666">力学传感器及仪表系列</text>
<text x="415.0" y="658" text-anchor="middle" font-size="14" font-family="Arial, PingFang SC, Microsoft YaHei, sans-serif" fill="#666">工业物联网及系统集成</text>
<text x="545.0" y="658" text-anchor="middle" font-size="14" font-family="Arial, PingFang SC, Microsoft YaHei, sans-serif" fill="#666">国外</text>
<text x="675.0" y="658" text-anchor="middle" font-size="14" font-family="Arial, PingFang SC, Microsoft YaHei, sans-serif" fill="#666">其他物理量传感器系列-温度</text>
<text x="805.0" y="658" text-anchor="middle" font-size="14" font-family="Arial, PingFang SC, Microsoft YaHei, sans-serif" fill="#666">其他业务</text>
<text x="935.0" y="658" text-anchor="middle" font-size="14" font-family="Arial, PingFang SC, Microsoft YaHei, sans-serif" fill="#666">其他业务(行业)</text>
<text x="1065.0" y="658" text-anchor="middle" font-size="14" font-family="Arial, PingFang SC, Microsoft YaHei, sans-serif" fill="#666">其他物理量传感器系列-光电</text>
<rect x="110.80" y="567.34" width="81.33" height="62.66" fill="#4E79A7" opacity="0.85"/>
<rect x="240.80" y="604.78" width="81.33" height="25.22" fill="#4E79A7" opacity="0.85"/>
<rect x="370.80" y="603.47" width="81.33" height="26.53" fill="#4E79A7" opacity="0.85"/>
<rect x="500.80" y="615.13" width="81.33" height="14.87" fill="#4E79A7" opacity="0.85"/>
<rect x="630.80" y="627.08" width="81.33" height="2.92" fill="#4E79A7" opacity="0.85"/>
<rect x="760.80" y="626.99" width="81.33" height="3.01" fill="#4E79A7" opacity="0.85"/>
<rect x="890.80" y="626.99" width="81.33" height="3.01" fill="#4E79A7" opacity="0.85"/>
<rect x="1020.80" y="626.61" width="81.33" height="3.39" fill="#4E79A7" opacity="0.85"/>
<polyline fill="none" stroke="#F28E2B" stroke-width="3" points="155.00,208.66 285.00,222.68 415.00,179.02 545.00,145.81 675.00,314.23 805.00,198.03 935.00,198.03 1065.00,130.00"/>
<circle cx="155.00" cy="208.66" r="4" fill="#F28E2B"/>
<circle cx="285.00" cy="222.68" r="4" fill="#F28E2B"/>
<circle cx="415.00" cy="179.02" r="4" fill="#F28E2B"/>
<circle cx="545.00" cy="145.81" r="4" fill="#F28E2B"/>
<circle cx="675.00" cy="314.23" r="4" fill="#F28E2B"/>
<circle cx="805.00" cy="198.03" r="4" fill="#F28E2B"/>
<circle cx="935.00" cy="198.03" r="4" fill="#F28E2B"/>
<circle cx="1065.00" cy="130.00" r="4" fill="#F28E2B"/>
</svg>