<svg xmlns="http://www.w3.org/2000/svg" width="1200" height="720" viewBox="0 0 1200 720">
<rect x="0" y="0" width="100%" height="100%" fill="#ffffff"/>
<text x="40" y="42" font-size="26" font-family="Arial, PingFang SC, Microsoft YaHei, sans-serif" fill="#222">财务比率分析图</text>
<rect x="40" y="60" width="22" height="10" fill="#4E79A7"/>
<text x="68" y="70" font-size="16" font-family="Arial, PingFang SC, Microsoft YaHei, sans-serif" fill="#333">资产负债率</text>
<rect x="210" y="60" width="22" height="10" fill="#F28E2B"/>
<text x="238" y="70" font-size="16" font-family="Arial, PingFang SC, Microsoft YaHei, sans-serif" fill="#333">流动比率</text>
<rect x="380" y="60" width="22" height="10" fill="#E15759"/>
<text x="408" y="70" font-size="16" font-family="Arial, PingFang SC, Microsoft YaHei, sans-serif" fill="#333">速动比率</text>
<rect x="550" y="60" width="22" height="10" fill="#76B7B2"/>
<text x="578" y="70" font-size="16" font-family="Arial, PingFang SC, Microsoft YaHei, sans-serif" fill="#333">应收周转率</text>
<rect x="720" y="60" width="22" height="10" fill="#59A14F"/>
<text x="748" y="70" font-size="16" font-family="Arial, PingFang SC, Microsoft YaHei, sans-serif" fill="#333">存货周转率</text>
<line x1="90" y1="130" x2="90" y2="630" stroke="#555" stroke-width="1"/>
<line x1="90" y1="630.0" x2="1130" y2="630.0" stroke="#555" stroke-width="1"/>
<line x1="90" y1="630.0" x2="1130" y2="630.0" stroke="#eee" stroke-width="1"/>
<text x="78" y="635.0" text-anchor="end" font-size="14" font-family="Arial, PingFang SC, Microsoft YaHei, sans-serif" fill="#666">0.00</text>
<line x1="90" y1="530.0" x2="1130" y2="530.0" stroke="#eee" stroke-width="1"/>
<text x="78" y="535.0" text-anchor="end" font-size="14" font-family="Arial, PingFang SC, Microsoft YaHei, sans-serif" fill="#666">6.38</text>
<line x1="90" y1="430.0" x2="1130" y2="430.0" stroke="#eee" stroke-width="1"/>
<text x="78" y="435.0" text-anchor="end" font-size="14" font-family="Arial, PingFang SC, Microsoft YaHei, sans-serif" fill="#666">12.76</text>
<line x1="90" y1="330.0" x2="1130" y2="330.0" stroke="#eee" stroke-width="1"/>
<text x="78" y="335.0" text-anchor="end" font-size="14" font-family="Arial, PingFang SC, Microsoft YaHei, sans-serif" fill="#666">19.15</text>
<line x1="90" y1="230.0" x2="1130" y2="230.0" stroke="#eee" stroke-width="1"/>
<text x="78" y="235.0" text-anchor="end" font-size="14" font-family="Arial, PingFang SC, Microsoft YaHei, sans-serif" fill="#666">25.53</text>
<line x1="90" y1="129.99999999999994" x2="1130" y2="129.99999999999994" stroke="#eee" stroke-width="1"/>
<text x="78" y="134.99999999999994" text-anchor="end" font-size="14" font-family="Arial, PingFang SC, Microsoft YaHei, sans-serif" fill="#666">31.91</text>
<text x="194.0" y="658" text-anchor="middle" font-size="14" font-family="Arial, PingFang SC, Microsoft YaHei, sans-serif" fill="#666">2021</text>
<text x="402.0" y="658" text-anchor="middle" font-size="14" font-family="Arial, PingFang SC, Microsoft YaHei, sans-serif" fill="#666">2022</text>
<text x="610.0" y="658" text-anchor="middle" font-size="14" font-family="Arial, PingFang SC, Microsoft YaHei, sans-serif" fill="#666">2023</text>
<text x="818.0" y="658" text-anchor="middle" font-size="14" font-family="Arial, PingFang SC, Microsoft YaHei, sans-serif" fill="#666">2024</text>
<text x="1026.0" y="658" text-anchor="middle" font-size="14" font-family="Arial, PingFang SC, Microsoft YaHei, sans-serif" fill="#666">2025</text>
<rect x="123.28" y="547.58" width="65.06" height="82.42" fill="#4E79A7" opacity="0.85"/>
<rect x="331.28" y="562.31" width="65.06" height="67.69" fill="#4E79A7" opacity="0.85"/>
<rect x="539.28" y="568.73" width="65.06" height="61.27" fill="#4E79A7" opacity="0.85"/>
<rect x="747.28" y="577.51" width="65.06" height="52.49" fill="#4E79A7" opacity="0.85"/>
<rect x="955.28" y="583.78" width="65.06" height="46.22" fill="#4E79A7" opacity="0.85"/>
<rect x="194.00" y="590.67" width="65.06" height="39.33" fill="#F28E2B" opacity="0.85"/>
<rect x="402.00" y="602.11" width="65.06" height="27.89" fill="#F28E2B" opacity="0.85"/>
<rect x="610.00" y="609.00" width="65.06" height="21.00" fill="#F28E2B" opacity="0.85"/>
<rect x="818.00" y="609.63" width="65.06" height="20.37" fill="#F28E2B" opacity="0.85"/>
<rect x="1026.00" y="609.47" width="65.06" height="20.53" fill="#F28E2B" opacity="0.85"/>
<polyline fill="none" stroke="#E15759" stroke-width="3" points="194.00,169.64 402.00,130.00 610.00,171.21 818.00,131.72 1026.00,139.87"/>
<circle cx="194.00" cy="169.64" r="4" fill="#E15759"/>
<circle cx="402.00" cy="130.00" r="4" fill="#E15759"/>
<circle cx="610.00" cy="171.21" r="4" fill="#E15759"/>
<circle cx="818.00" cy="131.72" r="4" fill="#E15759"/>
<circle cx="1026.00" cy="139.87" r="4" fill="#E15759"/>
<polyline fill="none" stroke="#76B7B2" stroke-width="3" points="194.00,591.92 402.00,596.00 610.00,596.94 818.00,597.57 1026.00,602.42"/>
<circle cx="194.00" cy="591.92" r="4" fill="#76B7B2"/>
<circle cx="402.00" cy="596.00" r="4" fill="#76B7B2"/>
<circle cx="610.00" cy="596.94" r="4" fill="#76B7B2"/>
<circle cx="818.00" cy="597.57" r="4" fill="#76B7B2"/>
<circle cx="1026.00" cy="602.42" r="4" fill="#76B7B2"/>
<polyline fill="none" stroke="#59A14F" stroke-width="3" points="194.00,597.09 402.00,602.11 610.00,603.99 818.00,605.24 1026.00,609.94"/>
<circle cx="194.00" cy="597.09" r="4" fill="#59A14F"/>
<circle cx="402.00" cy="602.11" r="4" fill="#59A14F"/>
<circle cx="610.00" cy="603.99" r="4" fill="#59A14F"/>
<circle cx="818.00" cy="605.24" r="4" fill="#59A14F"/>
<circle cx="1026.00" cy="609.94" r="4" fill="#59A14F"/>
</svg>