<svg xmlns="http://www.w3.org/2000/svg" width="1200" height="720" viewBox="0 0 1200 720">
<rect x="0" y="0" width="100%" height="100%" fill="#ffffff"/>
<text x="40" y="42" font-size="26" font-family="Arial, PingFang SC, Microsoft YaHei, sans-serif" fill="#222">分产品利润结构图</text>
<rect x="40" y="60" width="22" height="10" fill="#4E79A7"/>
<text x="68" y="70" font-size="16" font-family="Arial, PingFang SC, Microsoft YaHei, sans-serif" fill="#333">利润</text>
<rect x="210" y="60" width="22" height="10" fill="#F28E2B"/>
<text x="238" y="70" font-size="16" font-family="Arial, PingFang SC, Microsoft YaHei, sans-serif" fill="#333">毛利率</text>
<line x1="90" y1="130" x2="90" y2="630" stroke="#555" stroke-width="1"/>
<line x1="90" y1="630.0" x2="1130" y2="630.0" stroke="#555" stroke-width="1"/>
<line x1="90" y1="630.0" x2="1130" y2="630.0" stroke="#eee" stroke-width="1"/>
<text x="78" y="635.0" text-anchor="end" font-size="14" font-family="Arial, PingFang SC, Microsoft YaHei, sans-serif" fill="#666">0.00</text>
<line x1="90" y1="530.0" x2="1130" y2="530.0" stroke="#eee" stroke-width="1"/>
<text x="78" y="535.0" text-anchor="end" font-size="14" font-family="Arial, PingFang SC, Microsoft YaHei, sans-serif" fill="#666">7.93</text>
<line x1="90" y1="430.0" x2="1130" y2="430.0" stroke="#eee" stroke-width="1"/>
<text x="78" y="435.0" text-anchor="end" font-size="14" font-family="Arial, PingFang SC, Microsoft YaHei, sans-serif" fill="#666">15.87</text>
<line x1="90" y1="330.0" x2="1130" y2="330.0" stroke="#eee" stroke-width="1"/>
<text x="78" y="335.0" text-anchor="end" font-size="14" font-family="Arial, PingFang SC, Microsoft YaHei, sans-serif" fill="#666">23.80</text>
<line x1="90" y1="230.0" x2="1130" y2="230.0" stroke="#eee" stroke-width="1"/>
<text x="78" y="235.0" text-anchor="end" font-size="14" font-family="Arial, PingFang SC, Microsoft YaHei, sans-serif" fill="#666">31.74</text>
<line x1="90" y1="130.0" x2="1130" y2="130.0" stroke="#eee" stroke-width="1"/>
<text x="78" y="135.0" text-anchor="end" font-size="14" font-family="Arial, PingFang SC, Microsoft YaHei, sans-serif" fill="#666">39.67</text>
<text x="155.0" y="658" text-anchor="middle" font-size="14" font-family="Arial, PingFang SC, Microsoft YaHei, sans-serif" fill="#666">家用电器电机及组件</text>
<text x="285.0" y="658" text-anchor="middle" font-size="14" font-family="Arial, PingFang SC, Microsoft YaHei, sans-serif" fill="#666">国外</text>
<text x="415.0" y="658" text-anchor="middle" font-size="14" font-family="Arial, PingFang SC, Microsoft YaHei, sans-serif" fill="#666">步进电机</text>
<text x="545.0" y="658" text-anchor="middle" font-size="14" font-family="Arial, PingFang SC, Microsoft YaHei, sans-serif" fill="#666">MA-电机及组件</text>
<text x="675.0" y="658" text-anchor="middle" font-size="14" font-family="Arial, PingFang SC, Microsoft YaHei, sans-serif" fill="#666">汽车电机及零部件</text>
<text x="805.0" y="658" text-anchor="middle" font-size="14" font-family="Arial, PingFang SC, Microsoft YaHei, sans-serif" fill="#666">直流电机</text>
<text x="935.0" y="658" text-anchor="middle" font-size="14" font-family="Arial, PingFang SC, Microsoft YaHei, sans-serif" fill="#666">工业控制电机及组件</text>
<text x="1065.0" y="658" text-anchor="middle" font-size="14" font-family="Arial, PingFang SC, Microsoft YaHei, sans-serif" fill="#666">泵</text>
<rect x="110.80" y="562.57" width="81.33" height="67.43" fill="#4E79A7" opacity="0.85"/>
<rect x="240.80" y="553.87" width="81.33" height="76.13" fill="#4E79A7" opacity="0.85"/>
<rect x="370.80" y="584.88" width="81.33" height="45.12" fill="#4E79A7" opacity="0.85"/>
<rect x="500.80" y="592.31" width="81.33" height="37.69" fill="#4E79A7" opacity="0.85"/>
<rect x="630.80" y="607.19" width="81.33" height="22.81" fill="#4E79A7" opacity="0.85"/>
<rect x="760.80" y="613.24" width="81.33" height="16.76" fill="#4E79A7" opacity="0.85"/>
<rect x="890.80" y="603.15" width="81.33" height="26.85" fill="#4E79A7" opacity="0.85"/>
<rect x="1020.80" y="615.25" width="81.33" height="14.75" fill="#4E79A7" opacity="0.85"/>
<polyline fill="none" stroke="#F28E2B" stroke-width="3" points="155.00,337.34 285.00,209.53 415.00,252.64 545.00,264.11 675.00,387.88 805.00,385.23 935.00,130.00 1065.00,304.82"/>
<circle cx="155.00" cy="337.34" r="4" fill="#F28E2B"/>
<circle cx="285.00" cy="209.53" r="4" fill="#F28E2B"/>
<circle cx="415.00" cy="252.64" r="4" fill="#F28E2B"/>
<circle cx="545.00" cy="264.11" r="4" fill="#F28E2B"/>
<circle cx="675.00" cy="387.88" r="4" fill="#F28E2B"/>
<circle cx="805.00" cy="385.23" r="4" fill="#F28E2B"/>
<circle cx="935.00" cy="130.00" r="4" fill="#F28E2B"/>
<circle cx="1065.00" cy="304.82" r="4" fill="#F28E2B"/>
</svg>