<svg xmlns="http://www.w3.org/2000/svg" width="1200" height="720" viewBox="0 0 1200 720">
<rect x="0" y="0" width="100%" height="100%" fill="#ffffff"/>
<text x="40" y="42" font-size="26" font-family="Arial, PingFang SC, Microsoft YaHei, sans-serif" fill="#222">分产品收入变化图</text>
<rect x="40" y="60" width="22" height="10" fill="#4E79A7"/>
<text x="68" y="70" font-size="16" font-family="Arial, PingFang SC, Microsoft YaHei, sans-serif" fill="#333">家用电器电机及组件</text>
<rect x="210" y="60" width="22" height="10" fill="#F28E2B"/>
<text x="238" y="70" font-size="16" font-family="Arial, PingFang SC, Microsoft YaHei, sans-serif" fill="#333">国外</text>
<rect x="380" y="60" width="22" height="10" fill="#E15759"/>
<text x="408" y="70" font-size="16" font-family="Arial, PingFang SC, Microsoft YaHei, sans-serif" fill="#333">步进电机</text>
<rect x="550" y="60" width="22" height="10" fill="#76B7B2"/>
<text x="578" y="70" font-size="16" font-family="Arial, PingFang SC, Microsoft YaHei, sans-serif" fill="#333">MA-电机及组件</text>
<rect x="720" y="60" width="22" height="10" fill="#59A14F"/>
<text x="748" y="70" font-size="16" font-family="Arial, PingFang SC, Microsoft YaHei, sans-serif" fill="#333">汽车电机及零部件</text>
<line x1="90" y1="130" x2="90" y2="630" stroke="#555" stroke-width="1"/>
<line x1="90" y1="630.0" x2="1130" y2="630.0" stroke="#555" stroke-width="1"/>
<line x1="90" y1="630.0" x2="1130" y2="630.0" stroke="#eee" stroke-width="1"/>
<text x="78" y="635.0" text-anchor="end" font-size="14" font-family="Arial, PingFang SC, Microsoft YaHei, sans-serif" fill="#666">0.00</text>
<line x1="90" y1="530.0" x2="1130" y2="530.0" stroke="#eee" stroke-width="1"/>
<text x="78" y="535.0" text-anchor="end" font-size="14" font-family="Arial, PingFang SC, Microsoft YaHei, sans-serif" fill="#666">6.84</text>
<line x1="90" y1="430.0" x2="1130" y2="430.0" stroke="#eee" stroke-width="1"/>
<text x="78" y="435.0" text-anchor="end" font-size="14" font-family="Arial, PingFang SC, Microsoft YaHei, sans-serif" fill="#666">13.68</text>
<line x1="90" y1="330.0" x2="1130" y2="330.0" stroke="#eee" stroke-width="1"/>
<text x="78" y="335.0" text-anchor="end" font-size="14" font-family="Arial, PingFang SC, Microsoft YaHei, sans-serif" fill="#666">20.53</text>
<line x1="90" y1="229.99999999999997" x2="1130" y2="229.99999999999997" stroke="#eee" stroke-width="1"/>
<text x="78" y="234.99999999999997" text-anchor="end" font-size="14" font-family="Arial, PingFang SC, Microsoft YaHei, sans-serif" fill="#666">27.37</text>
<line x1="90" y1="130.0" x2="1130" y2="130.0" stroke="#eee" stroke-width="1"/>
<text x="78" y="135.0" text-anchor="end" font-size="14" font-family="Arial, PingFang SC, Microsoft YaHei, sans-serif" fill="#666">34.21</text>
<text x="194.0" y="658" text-anchor="middle" font-size="14" font-family="Arial, PingFang SC, Microsoft YaHei, sans-serif" fill="#666">2021</text>
<text x="402.0" y="658" text-anchor="middle" font-size="14" font-family="Arial, PingFang SC, Microsoft YaHei, sans-serif" fill="#666">2022</text>
<text x="610.0" y="658" text-anchor="middle" font-size="14" font-family="Arial, PingFang SC, Microsoft YaHei, sans-serif" fill="#666">2023</text>
<text x="818.0" y="658" text-anchor="middle" font-size="14" font-family="Arial, PingFang SC, Microsoft YaHei, sans-serif" fill="#666">2024</text>
<text x="1026.0" y="658" text-anchor="middle" font-size="14" font-family="Arial, PingFang SC, Microsoft YaHei, sans-serif" fill="#666">2025</text>
<rect x="123.28" y="630.00" width="26.02" height="0.00" fill="#4E79A7" opacity="0.85"/>
<rect x="331.28" y="630.00" width="26.02" height="0.00" fill="#4E79A7" opacity="0.85"/>
<rect x="539.28" y="630.00" width="26.02" height="0.00" fill="#4E79A7" opacity="0.85"/>
<rect x="747.28" y="314.45" width="26.02" height="315.55" fill="#4E79A7" opacity="0.85"/>
<rect x="955.28" y="130.00" width="26.02" height="500.00" fill="#4E79A7" opacity="0.85"/>
<rect x="151.57" y="436.78" width="26.02" height="193.22" fill="#F28E2B" opacity="0.85"/>
<rect x="359.57" y="424.80" width="26.02" height="205.20" fill="#F28E2B" opacity="0.85"/>
<rect x="567.57" y="426.84" width="26.02" height="203.16" fill="#F28E2B" opacity="0.85"/>
<rect x="775.57" y="280.10" width="26.02" height="349.90" fill="#F28E2B" opacity="0.85"/>
<rect x="983.57" y="231.14" width="26.02" height="398.86" fill="#F28E2B" opacity="0.85"/>
<rect x="179.86" y="360.93" width="26.02" height="269.07" fill="#E15759" opacity="0.85"/>
<rect x="387.86" y="365.02" width="26.02" height="264.98" fill="#E15759" opacity="0.85"/>
<rect x="595.86" y="368.82" width="26.02" height="261.18" fill="#E15759" opacity="0.85"/>
<rect x="803.86" y="373.06" width="26.02" height="256.94" fill="#E15759" opacity="0.85"/>
<rect x="1011.86" y="364.73" width="26.02" height="265.27" fill="#E15759" opacity="0.85"/>
<rect x="208.14" y="529.01" width="26.02" height="100.99" fill="#76B7B2" opacity="0.85"/>
<rect x="416.14" y="538.36" width="26.02" height="91.64" fill="#76B7B2" opacity="0.85"/>
<rect x="624.14" y="519.51" width="26.02" height="110.49" fill="#76B7B2" opacity="0.85"/>
<rect x="832.14" y="471.13" width="26.02" height="158.87" fill="#76B7B2" opacity="0.85"/>
<rect x="1040.14" y="414.71" width="26.02" height="215.29" fill="#76B7B2" opacity="0.85"/>
<rect x="236.43" y="582.35" width="26.02" height="47.65" fill="#59A14F" opacity="0.85"/>
<rect x="444.43" y="560.58" width="26.02" height="69.42" fill="#59A14F" opacity="0.85"/>
<rect x="652.43" y="535.14" width="26.02" height="94.86" fill="#59A14F" opacity="0.85"/>
<rect x="860.43" y="506.79" width="26.02" height="123.21" fill="#59A14F" opacity="0.85"/>
<rect x="1068.43" y="437.37" width="26.02" height="192.63" fill="#59A14F" opacity="0.85"/>
</svg>