<svg xmlns="http://www.w3.org/2000/svg" width="1200" height="720" viewBox="0 0 1200 720">
<rect x="0" y="0" width="100%" height="100%" fill="#ffffff"/>
<text x="40" y="42" font-size="26" font-family="Arial, PingFang SC, Microsoft YaHei, sans-serif" fill="#222">财务比率分析图</text>
<rect x="40" y="60" width="22" height="10" fill="#4E79A7"/>
<text x="68" y="70" font-size="16" font-family="Arial, PingFang SC, Microsoft YaHei, sans-serif" fill="#333">资产负债率</text>
<rect x="210" y="60" width="22" height="10" fill="#F28E2B"/>
<text x="238" y="70" font-size="16" font-family="Arial, PingFang SC, Microsoft YaHei, sans-serif" fill="#333">流动比率</text>
<rect x="380" y="60" width="22" height="10" fill="#E15759"/>
<text x="408" y="70" font-size="16" font-family="Arial, PingFang SC, Microsoft YaHei, sans-serif" fill="#333">速动比率</text>
<rect x="550" y="60" width="22" height="10" fill="#76B7B2"/>
<text x="578" y="70" font-size="16" font-family="Arial, PingFang SC, Microsoft YaHei, sans-serif" fill="#333">应收周转率</text>
<rect x="720" y="60" width="22" height="10" fill="#59A14F"/>
<text x="748" y="70" font-size="16" font-family="Arial, PingFang SC, Microsoft YaHei, sans-serif" fill="#333">存货周转率</text>
<line x1="90" y1="130" x2="90" y2="630" stroke="#555" stroke-width="1"/>
<line x1="90" y1="630.0" x2="1130" y2="630.0" stroke="#555" stroke-width="1"/>
<line x1="90" y1="630.0" x2="1130" y2="630.0" stroke="#eee" stroke-width="1"/>
<text x="78" y="635.0" text-anchor="end" font-size="14" font-family="Arial, PingFang SC, Microsoft YaHei, sans-serif" fill="#666">0.00</text>
<line x1="90" y1="530.0" x2="1130" y2="530.0" stroke="#eee" stroke-width="1"/>
<text x="78" y="535.0" text-anchor="end" font-size="14" font-family="Arial, PingFang SC, Microsoft YaHei, sans-serif" fill="#666">4.66</text>
<line x1="90" y1="430.0" x2="1130" y2="430.0" stroke="#eee" stroke-width="1"/>
<text x="78" y="435.0" text-anchor="end" font-size="14" font-family="Arial, PingFang SC, Microsoft YaHei, sans-serif" fill="#666">9.33</text>
<line x1="90" y1="330.0" x2="1130" y2="330.0" stroke="#eee" stroke-width="1"/>
<text x="78" y="335.0" text-anchor="end" font-size="14" font-family="Arial, PingFang SC, Microsoft YaHei, sans-serif" fill="#666">13.99</text>
<line x1="90" y1="230.00000000000003" x2="1130" y2="230.00000000000003" stroke="#eee" stroke-width="1"/>
<text x="78" y="235.00000000000003" text-anchor="end" font-size="14" font-family="Arial, PingFang SC, Microsoft YaHei, sans-serif" fill="#666">18.66</text>
<line x1="90" y1="130.0" x2="1130" y2="130.0" stroke="#eee" stroke-width="1"/>
<text x="78" y="135.0" text-anchor="end" font-size="14" font-family="Arial, PingFang SC, Microsoft YaHei, sans-serif" fill="#666">23.32</text>
<text x="194.0" y="658" text-anchor="middle" font-size="14" font-family="Arial, PingFang SC, Microsoft YaHei, sans-serif" fill="#666">2021</text>
<text x="402.0" y="658" text-anchor="middle" font-size="14" font-family="Arial, PingFang SC, Microsoft YaHei, sans-serif" fill="#666">2022</text>
<text x="610.0" y="658" text-anchor="middle" font-size="14" font-family="Arial, PingFang SC, Microsoft YaHei, sans-serif" fill="#666">2023</text>
<text x="818.0" y="658" text-anchor="middle" font-size="14" font-family="Arial, PingFang SC, Microsoft YaHei, sans-serif" fill="#666">2024</text>
<text x="1026.0" y="658" text-anchor="middle" font-size="14" font-family="Arial, PingFang SC, Microsoft YaHei, sans-serif" fill="#666">2025</text>
<rect x="123.28" y="205.90" width="65.06" height="424.10" fill="#4E79A7" opacity="0.85"/>
<rect x="331.28" y="256.29" width="65.06" height="373.71" fill="#4E79A7" opacity="0.85"/>
<rect x="539.28" y="355.13" width="65.06" height="274.87" fill="#4E79A7" opacity="0.85"/>
<rect x="747.28" y="383.22" width="65.06" height="246.78" fill="#4E79A7" opacity="0.85"/>
<rect x="955.28" y="392.86" width="65.06" height="237.14" fill="#4E79A7" opacity="0.85"/>
<rect x="194.00" y="540.38" width="65.06" height="89.62" fill="#F28E2B" opacity="0.85"/>
<rect x="402.00" y="538.66" width="65.06" height="91.34" fill="#F28E2B" opacity="0.85"/>
<rect x="610.00" y="550.24" width="65.06" height="79.76" fill="#F28E2B" opacity="0.85"/>
<rect x="818.00" y="550.45" width="65.06" height="79.55" fill="#F28E2B" opacity="0.85"/>
<rect x="1026.00" y="555.39" width="65.06" height="74.61" fill="#F28E2B" opacity="0.85"/>
<polyline fill="none" stroke="#E15759" stroke-width="3" points="194.00,130.00 402.00,170.09 610.00,176.53 818.00,178.24 1026.00,135.57"/>
<circle cx="194.00" cy="130.00" r="4" fill="#E15759"/>
<circle cx="402.00" cy="170.09" r="4" fill="#E15759"/>
<circle cx="610.00" cy="176.53" r="4" fill="#E15759"/>
<circle cx="818.00" cy="178.24" r="4" fill="#E15759"/>
<circle cx="1026.00" cy="135.57" r="4" fill="#E15759"/>
<polyline fill="none" stroke="#76B7B2" stroke-width="3" points="194.00,566.54 402.00,551.96 610.00,555.81 818.00,559.46 1026.00,568.89"/>
<circle cx="194.00" cy="566.54" r="4" fill="#76B7B2"/>
<circle cx="402.00" cy="551.96" r="4" fill="#76B7B2"/>
<circle cx="610.00" cy="555.81" r="4" fill="#76B7B2"/>
<circle cx="818.00" cy="559.46" r="4" fill="#76B7B2"/>
<circle cx="1026.00" cy="568.89" r="4" fill="#76B7B2"/>
<polyline fill="none" stroke="#59A14F" stroke-width="3" points="194.00,582.40 402.00,566.11 610.00,570.82 818.00,575.11 1026.00,582.19"/>
<circle cx="194.00" cy="582.40" r="4" fill="#59A14F"/>
<circle cx="402.00" cy="566.11" r="4" fill="#59A14F"/>
<circle cx="610.00" cy="570.82" r="4" fill="#59A14F"/>
<circle cx="818.00" cy="575.11" r="4" fill="#59A14F"/>
<circle cx="1026.00" cy="582.19" r="4" fill="#59A14F"/>
</svg>