<svg xmlns="http://www.w3.org/2000/svg" width="1200" height="720" viewBox="0 0 1200 720">
<rect x="0" y="0" width="100%" height="100%" fill="#ffffff"/>
<text x="40" y="42" font-size="26" font-family="Arial, PingFang SC, Microsoft YaHei, sans-serif" fill="#222">财务比率分析图</text>
<rect x="40" y="60" width="22" height="10" fill="#4E79A7"/>
<text x="68" y="70" font-size="16" font-family="Arial, PingFang SC, Microsoft YaHei, sans-serif" fill="#333">资产负债率</text>
<rect x="210" y="60" width="22" height="10" fill="#F28E2B"/>
<text x="238" y="70" font-size="16" font-family="Arial, PingFang SC, Microsoft YaHei, sans-serif" fill="#333">流动比率</text>
<rect x="380" y="60" width="22" height="10" fill="#E15759"/>
<text x="408" y="70" font-size="16" font-family="Arial, PingFang SC, Microsoft YaHei, sans-serif" fill="#333">速动比率</text>
<rect x="550" y="60" width="22" height="10" fill="#76B7B2"/>
<text x="578" y="70" font-size="16" font-family="Arial, PingFang SC, Microsoft YaHei, sans-serif" fill="#333">应收周转率</text>
<rect x="720" y="60" width="22" height="10" fill="#59A14F"/>
<text x="748" y="70" font-size="16" font-family="Arial, PingFang SC, Microsoft YaHei, sans-serif" fill="#333">存货周转率</text>
<line x1="90" y1="130" x2="90" y2="630" stroke="#555" stroke-width="1"/>
<line x1="90" y1="630.0" x2="1130" y2="630.0" stroke="#555" stroke-width="1"/>
<line x1="90" y1="630.0" x2="1130" y2="630.0" stroke="#eee" stroke-width="1"/>
<text x="78" y="635.0" text-anchor="end" font-size="14" font-family="Arial, PingFang SC, Microsoft YaHei, sans-serif" fill="#666">0.00</text>
<line x1="90" y1="530.0" x2="1130" y2="530.0" stroke="#eee" stroke-width="1"/>
<text x="78" y="535.0" text-anchor="end" font-size="14" font-family="Arial, PingFang SC, Microsoft YaHei, sans-serif" fill="#666">7.42</text>
<line x1="90" y1="430.0" x2="1130" y2="430.0" stroke="#eee" stroke-width="1"/>
<text x="78" y="435.0" text-anchor="end" font-size="14" font-family="Arial, PingFang SC, Microsoft YaHei, sans-serif" fill="#666">14.85</text>
<line x1="90" y1="330.0" x2="1130" y2="330.0" stroke="#eee" stroke-width="1"/>
<text x="78" y="335.0" text-anchor="end" font-size="14" font-family="Arial, PingFang SC, Microsoft YaHei, sans-serif" fill="#666">22.27</text>
<line x1="90" y1="230.0" x2="1130" y2="230.0" stroke="#eee" stroke-width="1"/>
<text x="78" y="235.0" text-anchor="end" font-size="14" font-family="Arial, PingFang SC, Microsoft YaHei, sans-serif" fill="#666">29.70</text>
<line x1="90" y1="130.0" x2="1130" y2="130.0" stroke="#eee" stroke-width="1"/>
<text x="78" y="135.0" text-anchor="end" font-size="14" font-family="Arial, PingFang SC, Microsoft YaHei, sans-serif" fill="#666">37.12</text>
<text x="194.0" y="658" text-anchor="middle" font-size="14" font-family="Arial, PingFang SC, Microsoft YaHei, sans-serif" fill="#666">2021</text>
<text x="402.0" y="658" text-anchor="middle" font-size="14" font-family="Arial, PingFang SC, Microsoft YaHei, sans-serif" fill="#666">2022</text>
<text x="610.0" y="658" text-anchor="middle" font-size="14" font-family="Arial, PingFang SC, Microsoft YaHei, sans-serif" fill="#666">2023</text>
<text x="818.0" y="658" text-anchor="middle" font-size="14" font-family="Arial, PingFang SC, Microsoft YaHei, sans-serif" fill="#666">2024</text>
<text x="1026.0" y="658" text-anchor="middle" font-size="14" font-family="Arial, PingFang SC, Microsoft YaHei, sans-serif" fill="#666">2025</text>
<rect x="123.28" y="567.77" width="65.06" height="62.23" fill="#4E79A7" opacity="0.85"/>
<rect x="331.28" y="577.20" width="65.06" height="52.80" fill="#4E79A7" opacity="0.85"/>
<rect x="539.28" y="580.70" width="65.06" height="49.30" fill="#4E79A7" opacity="0.85"/>
<rect x="747.28" y="588.92" width="65.06" height="41.08" fill="#4E79A7" opacity="0.85"/>
<rect x="955.28" y="592.15" width="65.06" height="37.85" fill="#4E79A7" opacity="0.85"/>
<rect x="194.00" y="588.65" width="65.06" height="41.35" fill="#F28E2B" opacity="0.85"/>
<rect x="402.00" y="594.57" width="65.06" height="35.43" fill="#F28E2B" opacity="0.85"/>
<rect x="610.00" y="581.64" width="65.06" height="48.36" fill="#F28E2B" opacity="0.85"/>
<rect x="818.00" y="579.22" width="65.06" height="50.78" fill="#F28E2B" opacity="0.85"/>
<rect x="1026.00" y="583.53" width="65.06" height="46.47" fill="#F28E2B" opacity="0.85"/>
<polyline fill="none" stroke="#E15759" stroke-width="3" points="194.00,203.41 402.00,179.30 610.00,307.53 818.00,209.47 1026.00,130.00"/>
<circle cx="194.00" cy="203.41" r="4" fill="#E15759"/>
<circle cx="402.00" cy="179.30" r="4" fill="#E15759"/>
<circle cx="610.00" cy="307.53" r="4" fill="#E15759"/>
<circle cx="818.00" cy="209.47" r="4" fill="#E15759"/>
<circle cx="1026.00" cy="130.00" r="4" fill="#E15759"/>
<polyline fill="none" stroke="#76B7B2" stroke-width="3" points="194.00,597.94 402.00,598.08 610.00,597.00 818.00,605.48 1026.00,602.93"/>
<circle cx="194.00" cy="597.94" r="4" fill="#76B7B2"/>
<circle cx="402.00" cy="598.08" r="4" fill="#76B7B2"/>
<circle cx="610.00" cy="597.00" r="4" fill="#76B7B2"/>
<circle cx="818.00" cy="605.48" r="4" fill="#76B7B2"/>
<circle cx="1026.00" cy="602.93" r="4" fill="#76B7B2"/>
<polyline fill="none" stroke="#59A14F" stroke-width="3" points="194.00,605.22 402.00,604.68 610.00,602.12 818.00,609.93 1026.00,606.83"/>
<circle cx="194.00" cy="605.22" r="4" fill="#59A14F"/>
<circle cx="402.00" cy="604.68" r="4" fill="#59A14F"/>
<circle cx="610.00" cy="602.12" r="4" fill="#59A14F"/>
<circle cx="818.00" cy="609.93" r="4" fill="#59A14F"/>
<circle cx="1026.00" cy="606.83" r="4" fill="#59A14F"/>
</svg>