<svg xmlns="http://www.w3.org/2000/svg" width="1200" height="720" viewBox="0 0 1200 720">
<rect x="0" y="0" width="100%" height="100%" fill="#ffffff"/>
<text x="40" y="42" font-size="26" font-family="Arial, PingFang SC, Microsoft YaHei, sans-serif" fill="#222">财务比率分析图</text>
<rect x="40" y="60" width="22" height="10" fill="#4E79A7"/>
<text x="68" y="70" font-size="16" font-family="Arial, PingFang SC, Microsoft YaHei, sans-serif" fill="#333">资产负债率</text>
<rect x="210" y="60" width="22" height="10" fill="#F28E2B"/>
<text x="238" y="70" font-size="16" font-family="Arial, PingFang SC, Microsoft YaHei, sans-serif" fill="#333">流动比率</text>
<rect x="380" y="60" width="22" height="10" fill="#E15759"/>
<text x="408" y="70" font-size="16" font-family="Arial, PingFang SC, Microsoft YaHei, sans-serif" fill="#333">速动比率</text>
<rect x="550" y="60" width="22" height="10" fill="#76B7B2"/>
<text x="578" y="70" font-size="16" font-family="Arial, PingFang SC, Microsoft YaHei, sans-serif" fill="#333">应收周转率</text>
<rect x="720" y="60" width="22" height="10" fill="#59A14F"/>
<text x="748" y="70" font-size="16" font-family="Arial, PingFang SC, Microsoft YaHei, sans-serif" fill="#333">存货周转率</text>
<line x1="90" y1="130" x2="90" y2="630" stroke="#555" stroke-width="1"/>
<line x1="90" y1="630.0" x2="1130" y2="630.0" stroke="#555" stroke-width="1"/>
<line x1="90" y1="630.0" x2="1130" y2="630.0" stroke="#eee" stroke-width="1"/>
<text x="78" y="635.0" text-anchor="end" font-size="14" font-family="Arial, PingFang SC, Microsoft YaHei, sans-serif" fill="#666">0.00</text>
<line x1="90" y1="530.0" x2="1130" y2="530.0" stroke="#eee" stroke-width="1"/>
<text x="78" y="535.0" text-anchor="end" font-size="14" font-family="Arial, PingFang SC, Microsoft YaHei, sans-serif" fill="#666">2.45</text>
<line x1="90" y1="430.0" x2="1130" y2="430.0" stroke="#eee" stroke-width="1"/>
<text x="78" y="435.0" text-anchor="end" font-size="14" font-family="Arial, PingFang SC, Microsoft YaHei, sans-serif" fill="#666">4.90</text>
<line x1="90" y1="330.0" x2="1130" y2="330.0" stroke="#eee" stroke-width="1"/>
<text x="78" y="335.0" text-anchor="end" font-size="14" font-family="Arial, PingFang SC, Microsoft YaHei, sans-serif" fill="#666">7.35</text>
<line x1="90" y1="229.99999999999997" x2="1130" y2="229.99999999999997" stroke="#eee" stroke-width="1"/>
<text x="78" y="234.99999999999997" text-anchor="end" font-size="14" font-family="Arial, PingFang SC, Microsoft YaHei, sans-serif" fill="#666">9.80</text>
<line x1="90" y1="130.0" x2="1130" y2="130.0" stroke="#eee" stroke-width="1"/>
<text x="78" y="135.0" text-anchor="end" font-size="14" font-family="Arial, PingFang SC, Microsoft YaHei, sans-serif" fill="#666">12.25</text>
<text x="194.0" y="658" text-anchor="middle" font-size="14" font-family="Arial, PingFang SC, Microsoft YaHei, sans-serif" fill="#666">2021</text>
<text x="402.0" y="658" text-anchor="middle" font-size="14" font-family="Arial, PingFang SC, Microsoft YaHei, sans-serif" fill="#666">2022</text>
<text x="610.0" y="658" text-anchor="middle" font-size="14" font-family="Arial, PingFang SC, Microsoft YaHei, sans-serif" fill="#666">2023</text>
<text x="818.0" y="658" text-anchor="middle" font-size="14" font-family="Arial, PingFang SC, Microsoft YaHei, sans-serif" fill="#666">2024</text>
<text x="1026.0" y="658" text-anchor="middle" font-size="14" font-family="Arial, PingFang SC, Microsoft YaHei, sans-serif" fill="#666">2025</text>
<rect x="123.28" y="412.04" width="65.06" height="217.96" fill="#4E79A7" opacity="0.85"/>
<rect x="331.28" y="465.10" width="65.06" height="164.90" fill="#4E79A7" opacity="0.85"/>
<rect x="539.28" y="461.84" width="65.06" height="168.16" fill="#4E79A7" opacity="0.85"/>
<rect x="747.28" y="403.88" width="65.06" height="226.12" fill="#4E79A7" opacity="0.85"/>
<rect x="955.28" y="373.27" width="65.06" height="256.73" fill="#4E79A7" opacity="0.85"/>
<rect x="194.00" y="556.94" width="65.06" height="73.06" fill="#F28E2B" opacity="0.85"/>
<rect x="402.00" y="571.22" width="65.06" height="58.78" fill="#F28E2B" opacity="0.85"/>
<rect x="610.00" y="569.59" width="65.06" height="60.41" fill="#F28E2B" opacity="0.85"/>
<rect x="818.00" y="563.47" width="65.06" height="66.53" fill="#F28E2B" opacity="0.85"/>
<rect x="1026.00" y="562.65" width="65.06" height="67.35" fill="#F28E2B" opacity="0.85"/>
<polyline fill="none" stroke="#E15759" stroke-width="3" points="194.00,245.92 402.00,250.00 610.00,373.67 818.00,300.61 1026.00,158.57"/>
<circle cx="194.00" cy="245.92" r="4" fill="#E15759"/>
<circle cx="402.00" cy="250.00" r="4" fill="#E15759"/>
<circle cx="610.00" cy="373.67" r="4" fill="#E15759"/>
<circle cx="818.00" cy="300.61" r="4" fill="#E15759"/>
<circle cx="1026.00" cy="158.57" r="4" fill="#E15759"/>
<polyline fill="none" stroke="#76B7B2" stroke-width="3" points="194.00,267.96 402.00,283.06 610.00,130.00 818.00,233.27 1026.00,300.20"/>
<circle cx="194.00" cy="267.96" r="4" fill="#76B7B2"/>
<circle cx="402.00" cy="283.06" r="4" fill="#76B7B2"/>
<circle cx="610.00" cy="130.00" r="4" fill="#76B7B2"/>
<circle cx="818.00" cy="233.27" r="4" fill="#76B7B2"/>
<circle cx="1026.00" cy="300.20" r="4" fill="#76B7B2"/>
<polyline fill="none" stroke="#59A14F" stroke-width="3" points="194.00,296.53 402.00,310.41 610.00,166.73 818.00,260.61 1026.00,318.57"/>
<circle cx="194.00" cy="296.53" r="4" fill="#59A14F"/>
<circle cx="402.00" cy="310.41" r="4" fill="#59A14F"/>
<circle cx="610.00" cy="166.73" r="4" fill="#59A14F"/>
<circle cx="818.00" cy="260.61" r="4" fill="#59A14F"/>
<circle cx="1026.00" cy="318.57" r="4" fill="#59A14F"/>
</svg>