<svg xmlns="http://www.w3.org/2000/svg" width="1200" height="720" viewBox="0 0 1200 720">
<rect x="0" y="0" width="100%" height="100%" fill="#ffffff"/>
<text x="40" y="42" font-size="26" font-family="Arial, PingFang SC, Microsoft YaHei, sans-serif" fill="#222">分产品收入变化图</text>
<rect x="40" y="60" width="22" height="10" fill="#4E79A7"/>
<text x="68" y="70" font-size="16" font-family="Arial, PingFang SC, Microsoft YaHei, sans-serif" fill="#333">国外</text>
<rect x="210" y="60" width="22" height="10" fill="#F28E2B"/>
<text x="238" y="70" font-size="16" font-family="Arial, PingFang SC, Microsoft YaHei, sans-serif" fill="#333">机械产品(行业)</text>
<rect x="380" y="60" width="22" height="10" fill="#E15759"/>
<text x="408" y="70" font-size="16" font-family="Arial, PingFang SC, Microsoft YaHei, sans-serif" fill="#333">建材机械</text>
<rect x="550" y="60" width="22" height="10" fill="#76B7B2"/>
<text x="578" y="70" font-size="16" font-family="Arial, PingFang SC, Microsoft YaHei, sans-serif" fill="#333">锂电池材料</text>
<rect x="720" y="60" width="22" height="10" fill="#59A14F"/>
<text x="748" y="70" font-size="16" font-family="Arial, PingFang SC, Microsoft YaHei, sans-serif" fill="#333">锂电池材料(行业)</text>
<line x1="90" y1="130" x2="90" y2="630" stroke="#555" stroke-width="1"/>
<line x1="90" y1="630.0" x2="1130" y2="630.0" stroke="#555" stroke-width="1"/>
<line x1="90" y1="630.0" x2="1130" y2="630.0" stroke="#eee" stroke-width="1"/>
<text x="78" y="635.0" text-anchor="end" font-size="14" font-family="Arial, PingFang SC, Microsoft YaHei, sans-serif" fill="#666">0.00</text>
<line x1="90" y1="530.0" x2="1130" y2="530.0" stroke="#eee" stroke-width="1"/>
<text x="78" y="535.0" text-anchor="end" font-size="14" font-family="Arial, PingFang SC, Microsoft YaHei, sans-serif" fill="#666">34.28</text>
<line x1="90" y1="430.0" x2="1130" y2="430.0" stroke="#eee" stroke-width="1"/>
<text x="78" y="435.0" text-anchor="end" font-size="14" font-family="Arial, PingFang SC, Microsoft YaHei, sans-serif" fill="#666">68.57</text>
<line x1="90" y1="329.99999999999994" x2="1130" y2="329.99999999999994" stroke="#eee" stroke-width="1"/>
<text x="78" y="334.99999999999994" text-anchor="end" font-size="14" font-family="Arial, PingFang SC, Microsoft YaHei, sans-serif" fill="#666">102.85</text>
<line x1="90" y1="229.99999999999997" x2="1130" y2="229.99999999999997" stroke="#eee" stroke-width="1"/>
<text x="78" y="234.99999999999997" text-anchor="end" font-size="14" font-family="Arial, PingFang SC, Microsoft YaHei, sans-serif" fill="#666">137.14</text>
<line x1="90" y1="130.0" x2="1130" y2="130.0" stroke="#eee" stroke-width="1"/>
<text x="78" y="135.0" text-anchor="end" font-size="14" font-family="Arial, PingFang SC, Microsoft YaHei, sans-serif" fill="#666">171.42</text>
<text x="194.0" y="658" text-anchor="middle" font-size="14" font-family="Arial, PingFang SC, Microsoft YaHei, sans-serif" fill="#666">2021</text>
<text x="402.0" y="658" text-anchor="middle" font-size="14" font-family="Arial, PingFang SC, Microsoft YaHei, sans-serif" fill="#666">2022</text>
<text x="610.0" y="658" text-anchor="middle" font-size="14" font-family="Arial, PingFang SC, Microsoft YaHei, sans-serif" fill="#666">2023</text>
<text x="818.0" y="658" text-anchor="middle" font-size="14" font-family="Arial, PingFang SC, Microsoft YaHei, sans-serif" fill="#666">2024</text>
<text x="1026.0" y="658" text-anchor="middle" font-size="14" font-family="Arial, PingFang SC, Microsoft YaHei, sans-serif" fill="#666">2025</text>
<rect x="123.28" y="439.15" width="26.02" height="190.85" fill="#4E79A7" opacity="0.85"/>
<rect x="331.28" y="366.44" width="26.02" height="263.56" fill="#4E79A7" opacity="0.85"/>
<rect x="539.28" y="374.81" width="26.02" height="255.19" fill="#4E79A7" opacity="0.85"/>
<rect x="747.28" y="295.85" width="26.02" height="334.15" fill="#4E79A7" opacity="0.85"/>
<rect x="955.28" y="130.00" width="26.02" height="500.00" fill="#4E79A7" opacity="0.85"/>
<rect x="151.57" y="458.05" width="26.02" height="171.95" fill="#F28E2B" opacity="0.85"/>
<rect x="359.57" y="463.80" width="26.02" height="166.20" fill="#F28E2B" opacity="0.85"/>
<rect x="567.57" y="495.83" width="26.02" height="134.17" fill="#F28E2B" opacity="0.85"/>
<rect x="775.57" y="434.02" width="26.02" height="195.98" fill="#F28E2B" opacity="0.85"/>
<rect x="983.57" y="441.22" width="26.02" height="188.78" fill="#F28E2B" opacity="0.85"/>
<rect x="179.86" y="378.19" width="26.02" height="251.81" fill="#E15759" opacity="0.85"/>
<rect x="387.86" y="380.99" width="26.02" height="249.01" fill="#E15759" opacity="0.85"/>
<rect x="595.86" y="438.22" width="26.02" height="191.78" fill="#E15759" opacity="0.85"/>
<rect x="803.86" y="387.58" width="26.02" height="242.42" fill="#E15759" opacity="0.85"/>
<rect x="1011.86" y="405.00" width="26.02" height="225.00" fill="#E15759" opacity="0.85"/>
<rect x="208.14" y="612.85" width="26.02" height="17.15" fill="#76B7B2" opacity="0.85"/>
<rect x="416.14" y="577.76" width="26.02" height="52.24" fill="#76B7B2" opacity="0.85"/>
<rect x="624.14" y="596.49" width="26.02" height="33.51" fill="#76B7B2" opacity="0.85"/>
<rect x="832.14" y="595.55" width="26.02" height="34.45" fill="#76B7B2" opacity="0.85"/>
<rect x="1040.14" y="533.40" width="26.02" height="96.60" fill="#76B7B2" opacity="0.85"/>
<rect x="236.43" y="617.40" width="26.02" height="12.60" fill="#59A14F" opacity="0.85"/>
<rect x="444.43" y="594.71" width="26.02" height="35.29" fill="#59A14F" opacity="0.85"/>
<rect x="652.43" y="608.42" width="26.02" height="21.58" fill="#59A14F" opacity="0.85"/>
<rect x="860.43" y="604.30" width="26.02" height="25.70" fill="#59A14F" opacity="0.85"/>
<rect x="1068.43" y="560.46" width="26.02" height="69.54" fill="#59A14F" opacity="0.85"/>
</svg>