<svg xmlns="http://www.w3.org/2000/svg" width="1200" height="720" viewBox="0 0 1200 720">
<rect x="0" y="0" width="100%" height="100%" fill="#ffffff"/>
<text x="40" y="42" font-size="26" font-family="Arial, PingFang SC, Microsoft YaHei, sans-serif" fill="#222">股东回报分析图</text>
<rect x="40" y="60" width="22" height="10" fill="#4E79A7"/>
<text x="68" y="70" font-size="16" font-family="Arial, PingFang SC, Microsoft YaHei, sans-serif" fill="#333">EPS</text>
<rect x="210" y="60" width="22" height="10" fill="#F28E2B"/>
<text x="238" y="70" font-size="16" font-family="Arial, PingFang SC, Microsoft YaHei, sans-serif" fill="#333">每股现金分红（已实施）</text>
<line x1="90" y1="130" x2="90" y2="630" stroke="#555" stroke-width="1"/>
<line x1="90" y1="630.0" x2="1130" y2="630.0" stroke="#555" stroke-width="1"/>
<line x1="90" y1="630.0" x2="1130" y2="630.0" stroke="#eee" stroke-width="1"/>
<text x="78" y="635.0" text-anchor="end" font-size="14" font-family="Arial, PingFang SC, Microsoft YaHei, sans-serif" fill="#666">0.00</text>
<line x1="90" y1="530.0" x2="1130" y2="530.0" stroke="#eee" stroke-width="1"/>
<text x="78" y="535.0" text-anchor="end" font-size="14" font-family="Arial, PingFang SC, Microsoft YaHei, sans-serif" fill="#666">0.45</text>
<line x1="90" y1="430.00000000000006" x2="1130" y2="430.00000000000006" stroke="#eee" stroke-width="1"/>
<text x="78" y="435.00000000000006" text-anchor="end" font-size="14" font-family="Arial, PingFang SC, Microsoft YaHei, sans-serif" fill="#666">0.89</text>
<line x1="90" y1="330.0" x2="1130" y2="330.0" stroke="#eee" stroke-width="1"/>
<text x="78" y="335.0" text-anchor="end" font-size="14" font-family="Arial, PingFang SC, Microsoft YaHei, sans-serif" fill="#666">1.34</text>
<line x1="90" y1="230.0" x2="1130" y2="230.0" stroke="#eee" stroke-width="1"/>
<text x="78" y="235.0" text-anchor="end" font-size="14" font-family="Arial, PingFang SC, Microsoft YaHei, sans-serif" fill="#666">1.78</text>
<line x1="90" y1="130.0" x2="1130" y2="130.0" stroke="#eee" stroke-width="1"/>
<text x="78" y="135.0" text-anchor="end" font-size="14" font-family="Arial, PingFang SC, Microsoft YaHei, sans-serif" fill="#666">2.23</text>
<text x="194.0" y="658" text-anchor="middle" font-size="14" font-family="Arial, PingFang SC, Microsoft YaHei, sans-serif" fill="#666">2021</text>
<text x="402.0" y="658" text-anchor="middle" font-size="14" font-family="Arial, PingFang SC, Microsoft YaHei, sans-serif" fill="#666">2022</text>
<text x="610.0" y="658" text-anchor="middle" font-size="14" font-family="Arial, PingFang SC, Microsoft YaHei, sans-serif" fill="#666">2023</text>
<text x="818.0" y="658" text-anchor="middle" font-size="14" font-family="Arial, PingFang SC, Microsoft YaHei, sans-serif" fill="#666">2024</text>
<text x="1026.0" y="658" text-anchor="middle" font-size="14" font-family="Arial, PingFang SC, Microsoft YaHei, sans-serif" fill="#666">2025</text>
<polyline fill="none" stroke="#4E79A7" stroke-width="3" points="194.00,511.17 402.00,130.00 610.00,385.61 818.00,511.17 1026.00,473.05"/>
<circle cx="194.00" cy="511.17" r="4" fill="#4E79A7"/>
<circle cx="402.00" cy="130.00" r="4" fill="#4E79A7"/>
<circle cx="610.00" cy="385.61" r="4" fill="#4E79A7"/>
<circle cx="818.00" cy="511.17" r="4" fill="#4E79A7"/>
<circle cx="1026.00" cy="473.05" r="4" fill="#4E79A7"/>
<polyline fill="none" stroke="#F28E2B" stroke-width="3" points="194.00,607.58 402.00,589.64 610.00,477.53 818.00,556.01 1026.00,585.16"/>
<circle cx="194.00" cy="607.58" r="4" fill="#F28E2B"/>
<circle cx="402.00" cy="589.64" r="4" fill="#F28E2B"/>
<circle cx="610.00" cy="477.53" r="4" fill="#F28E2B"/>
<circle cx="818.00" cy="556.01" r="4" fill="#F28E2B"/>
<circle cx="1026.00" cy="585.16" r="4" fill="#F28E2B"/>
</svg>