<svg xmlns="http://www.w3.org/2000/svg" width="1200" height="720" viewBox="0 0 1200 720">
<rect x="0" y="0" width="100%" height="100%" fill="#ffffff"/>
<text x="40" y="42" font-size="26" font-family="Arial, PingFang SC, Microsoft YaHei, sans-serif" fill="#222">财务比率分析图</text>
<rect x="40" y="60" width="22" height="10" fill="#4E79A7"/>
<text x="68" y="70" font-size="16" font-family="Arial, PingFang SC, Microsoft YaHei, sans-serif" fill="#333">资产负债率</text>
<rect x="210" y="60" width="22" height="10" fill="#F28E2B"/>
<text x="238" y="70" font-size="16" font-family="Arial, PingFang SC, Microsoft YaHei, sans-serif" fill="#333">流动比率</text>
<rect x="380" y="60" width="22" height="10" fill="#E15759"/>
<text x="408" y="70" font-size="16" font-family="Arial, PingFang SC, Microsoft YaHei, sans-serif" fill="#333">速动比率</text>
<rect x="550" y="60" width="22" height="10" fill="#76B7B2"/>
<text x="578" y="70" font-size="16" font-family="Arial, PingFang SC, Microsoft YaHei, sans-serif" fill="#333">应收周转率</text>
<rect x="720" y="60" width="22" height="10" fill="#59A14F"/>
<text x="748" y="70" font-size="16" font-family="Arial, PingFang SC, Microsoft YaHei, sans-serif" fill="#333">存货周转率</text>
<line x1="90" y1="130" x2="90" y2="630" stroke="#555" stroke-width="1"/>
<line x1="90" y1="630.0" x2="1130" y2="630.0" stroke="#555" stroke-width="1"/>
<line x1="90" y1="630.0" x2="1130" y2="630.0" stroke="#eee" stroke-width="1"/>
<text x="78" y="635.0" text-anchor="end" font-size="14" font-family="Arial, PingFang SC, Microsoft YaHei, sans-serif" fill="#666">0.00</text>
<line x1="90" y1="530.0" x2="1130" y2="530.0" stroke="#eee" stroke-width="1"/>
<text x="78" y="535.0" text-anchor="end" font-size="14" font-family="Arial, PingFang SC, Microsoft YaHei, sans-serif" fill="#666">7.09</text>
<line x1="90" y1="430.0" x2="1130" y2="430.0" stroke="#eee" stroke-width="1"/>
<text x="78" y="435.0" text-anchor="end" font-size="14" font-family="Arial, PingFang SC, Microsoft YaHei, sans-serif" fill="#666">14.17</text>
<line x1="90" y1="330.0" x2="1130" y2="330.0" stroke="#eee" stroke-width="1"/>
<text x="78" y="335.0" text-anchor="end" font-size="14" font-family="Arial, PingFang SC, Microsoft YaHei, sans-serif" fill="#666">21.26</text>
<line x1="90" y1="229.99999999999997" x2="1130" y2="229.99999999999997" stroke="#eee" stroke-width="1"/>
<text x="78" y="234.99999999999997" text-anchor="end" font-size="14" font-family="Arial, PingFang SC, Microsoft YaHei, sans-serif" fill="#666">28.34</text>
<line x1="90" y1="130.0" x2="1130" y2="130.0" stroke="#eee" stroke-width="1"/>
<text x="78" y="135.0" text-anchor="end" font-size="14" font-family="Arial, PingFang SC, Microsoft YaHei, sans-serif" fill="#666">35.43</text>
<text x="194.0" y="658" text-anchor="middle" font-size="14" font-family="Arial, PingFang SC, Microsoft YaHei, sans-serif" fill="#666">2021</text>
<text x="402.0" y="658" text-anchor="middle" font-size="14" font-family="Arial, PingFang SC, Microsoft YaHei, sans-serif" fill="#666">2022</text>
<text x="610.0" y="658" text-anchor="middle" font-size="14" font-family="Arial, PingFang SC, Microsoft YaHei, sans-serif" fill="#666">2023</text>
<text x="818.0" y="658" text-anchor="middle" font-size="14" font-family="Arial, PingFang SC, Microsoft YaHei, sans-serif" fill="#666">2024</text>
<text x="1026.0" y="658" text-anchor="middle" font-size="14" font-family="Arial, PingFang SC, Microsoft YaHei, sans-serif" fill="#666">2025</text>
<rect x="123.28" y="490.01" width="65.06" height="139.99" fill="#4E79A7" opacity="0.85"/>
<rect x="331.28" y="442.45" width="65.06" height="187.55" fill="#4E79A7" opacity="0.85"/>
<rect x="539.28" y="494.24" width="65.06" height="135.76" fill="#4E79A7" opacity="0.85"/>
<rect x="747.28" y="485.07" width="65.06" height="144.93" fill="#4E79A7" opacity="0.85"/>
<rect x="955.28" y="477.16" width="65.06" height="152.84" fill="#4E79A7" opacity="0.85"/>
<rect x="194.00" y="589.64" width="65.06" height="40.36" fill="#F28E2B" opacity="0.85"/>
<rect x="402.00" y="576.66" width="65.06" height="53.34" fill="#F28E2B" opacity="0.85"/>
<rect x="610.00" y="590.63" width="65.06" height="39.37" fill="#F28E2B" opacity="0.85"/>
<rect x="818.00" y="590.63" width="65.06" height="39.37" fill="#F28E2B" opacity="0.85"/>
<rect x="1026.00" y="589.22" width="65.06" height="40.78" fill="#F28E2B" opacity="0.85"/>
<polyline fill="none" stroke="#E15759" stroke-width="3" points="194.00,355.66 402.00,161.47 610.00,217.50 818.00,130.00 1026.00,161.33"/>
<circle cx="194.00" cy="355.66" r="4" fill="#E15759"/>
<circle cx="402.00" cy="161.47" r="4" fill="#E15759"/>
<circle cx="610.00" cy="217.50" r="4" fill="#E15759"/>
<circle cx="818.00" cy="130.00" r="4" fill="#E15759"/>
<circle cx="1026.00" cy="161.33" r="4" fill="#E15759"/>
<polyline fill="none" stroke="#76B7B2" stroke-width="3" points="194.00,559.58 402.00,598.81 610.00,595.14 818.00,608.41 1026.00,605.44"/>
<circle cx="194.00" cy="559.58" r="4" fill="#76B7B2"/>
<circle cx="402.00" cy="598.81" r="4" fill="#76B7B2"/>
<circle cx="610.00" cy="595.14" r="4" fill="#76B7B2"/>
<circle cx="818.00" cy="608.41" r="4" fill="#76B7B2"/>
<circle cx="1026.00" cy="605.44" r="4" fill="#76B7B2"/>
<polyline fill="none" stroke="#59A14F" stroke-width="3" points="194.00,570.45 402.00,602.76 610.00,599.80 818.00,613.63 1026.00,611.37"/>
<circle cx="194.00" cy="570.45" r="4" fill="#59A14F"/>
<circle cx="402.00" cy="602.76" r="4" fill="#59A14F"/>
<circle cx="610.00" cy="599.80" r="4" fill="#59A14F"/>
<circle cx="818.00" cy="613.63" r="4" fill="#59A14F"/>
<circle cx="1026.00" cy="611.37" r="4" fill="#59A14F"/>
</svg>