<svg xmlns="http://www.w3.org/2000/svg" width="1200" height="720" viewBox="0 0 1200 720">
<rect x="0" y="0" width="100%" height="100%" fill="#ffffff"/>
<text x="40" y="42" font-size="26" font-family="Arial, PingFang SC, Microsoft YaHei, sans-serif" fill="#222">分产品收入变化图</text>
<rect x="40" y="60" width="22" height="10" fill="#4E79A7"/>
<text x="68" y="70" font-size="16" font-family="Arial, PingFang SC, Microsoft YaHei, sans-serif" fill="#333">健康生活消费品(行业)</text>
<rect x="210" y="60" width="22" height="10" fill="#F28E2B"/>
<text x="238" y="70" font-size="16" font-family="Arial, PingFang SC, Microsoft YaHei, sans-serif" fill="#333">医用耗材(行业)</text>
<rect x="380" y="60" width="22" height="10" fill="#E15759"/>
<text x="408" y="70" font-size="16" font-family="Arial, PingFang SC, Microsoft YaHei, sans-serif" fill="#333">国外</text>
<rect x="550" y="60" width="22" height="10" fill="#76B7B2"/>
<text x="578" y="70" font-size="16" font-family="Arial, PingFang SC, Microsoft YaHei, sans-serif" fill="#333">干湿棉柔巾</text>
<rect x="720" y="60" width="22" height="10" fill="#59A14F"/>
<text x="748" y="70" font-size="16" font-family="Arial, PingFang SC, Microsoft YaHei, sans-serif" fill="#333">手术室耗材产品</text>
<line x1="90" y1="130" x2="90" y2="630" stroke="#555" stroke-width="1"/>
<line x1="90" y1="630.0" x2="1130" y2="630.0" stroke="#555" stroke-width="1"/>
<line x1="90" y1="630.0" x2="1130" y2="630.0" stroke="#eee" stroke-width="1"/>
<text x="78" y="635.0" text-anchor="end" font-size="14" font-family="Arial, PingFang SC, Microsoft YaHei, sans-serif" fill="#666">0.00</text>
<line x1="90" y1="530.0" x2="1130" y2="530.0" stroke="#eee" stroke-width="1"/>
<text x="78" y="535.0" text-anchor="end" font-size="14" font-family="Arial, PingFang SC, Microsoft YaHei, sans-serif" fill="#666">20.87</text>
<line x1="90" y1="430.0" x2="1130" y2="430.0" stroke="#eee" stroke-width="1"/>
<text x="78" y="435.0" text-anchor="end" font-size="14" font-family="Arial, PingFang SC, Microsoft YaHei, sans-serif" fill="#666">41.74</text>
<line x1="90" y1="330.0" x2="1130" y2="330.0" stroke="#eee" stroke-width="1"/>
<text x="78" y="335.0" text-anchor="end" font-size="14" font-family="Arial, PingFang SC, Microsoft YaHei, sans-serif" fill="#666">62.62</text>
<line x1="90" y1="230.0" x2="1130" y2="230.0" stroke="#eee" stroke-width="1"/>
<text x="78" y="235.0" text-anchor="end" font-size="14" font-family="Arial, PingFang SC, Microsoft YaHei, sans-serif" fill="#666">83.49</text>
<line x1="90" y1="130.00000000000006" x2="1130" y2="130.00000000000006" stroke="#eee" stroke-width="1"/>
<text x="78" y="135.00000000000006" text-anchor="end" font-size="14" font-family="Arial, PingFang SC, Microsoft YaHei, sans-serif" fill="#666">104.36</text>
<text x="194.0" y="658" text-anchor="middle" font-size="14" font-family="Arial, PingFang SC, Microsoft YaHei, sans-serif" fill="#666">2021</text>
<text x="402.0" y="658" text-anchor="middle" font-size="14" font-family="Arial, PingFang SC, Microsoft YaHei, sans-serif" fill="#666">2022</text>
<text x="610.0" y="658" text-anchor="middle" font-size="14" font-family="Arial, PingFang SC, Microsoft YaHei, sans-serif" fill="#666">2023</text>
<text x="818.0" y="658" text-anchor="middle" font-size="14" font-family="Arial, PingFang SC, Microsoft YaHei, sans-serif" fill="#666">2024</text>
<text x="1026.0" y="658" text-anchor="middle" font-size="14" font-family="Arial, PingFang SC, Microsoft YaHei, sans-serif" fill="#666">2025</text>
<rect x="123.28" y="349.96" width="26.02" height="280.04" fill="#4E79A7" opacity="0.85"/>
<rect x="331.28" y="345.60" width="26.02" height="284.40" fill="#4E79A7" opacity="0.85"/>
<rect x="539.28" y="326.91" width="26.02" height="303.09" fill="#4E79A7" opacity="0.85"/>
<rect x="747.28" y="281.54" width="26.02" height="348.46" fill="#4E79A7" opacity="0.85"/>
<rect x="955.28" y="223.04" width="26.02" height="406.96" fill="#4E79A7" opacity="0.85"/>
<rect x="151.57" y="340.19" width="26.02" height="289.81" fill="#F28E2B" opacity="0.85"/>
<rect x="359.57" y="130.00" width="26.02" height="500.00" fill="#F28E2B" opacity="0.85"/>
<rect x="567.57" y="340.86" width="26.02" height="289.14" fill="#F28E2B" opacity="0.85"/>
<rect x="775.57" y="358.97" width="26.02" height="271.03" fill="#F28E2B" opacity="0.85"/>
<rect x="983.57" y="264.44" width="26.02" height="365.56" fill="#F28E2B" opacity="0.85"/>
<rect x="179.86" y="495.71" width="26.02" height="134.29" fill="#E15759" opacity="0.85"/>
<rect x="387.86" y="531.64" width="26.02" height="98.36" fill="#E15759" opacity="0.85"/>
<rect x="595.86" y="520.09" width="26.02" height="109.91" fill="#E15759" opacity="0.85"/>
<rect x="803.86" y="486.12" width="26.02" height="143.88" fill="#E15759" opacity="0.85"/>
<rect x="1011.86" y="406.30" width="26.02" height="223.70" fill="#E15759" opacity="0.85"/>
<rect x="208.14" y="630.00" width="26.02" height="0.00" fill="#76B7B2" opacity="0.85"/>
<rect x="416.14" y="574.66" width="26.02" height="55.34" fill="#76B7B2" opacity="0.85"/>
<rect x="624.14" y="547.02" width="26.02" height="82.98" fill="#76B7B2" opacity="0.85"/>
<rect x="832.14" y="522.78" width="26.02" height="107.22" fill="#76B7B2" opacity="0.85"/>
<rect x="1040.14" y="506.68" width="26.02" height="123.32" fill="#76B7B2" opacity="0.85"/>
<rect x="236.43" y="630.00" width="26.02" height="0.00" fill="#59A14F" opacity="0.85"/>
<rect x="444.43" y="607.39" width="26.02" height="22.61" fill="#59A14F" opacity="0.85"/>
<rect x="652.43" y="590.43" width="26.02" height="39.57" fill="#59A14F" opacity="0.85"/>
<rect x="860.43" y="590.43" width="26.02" height="39.57" fill="#59A14F" opacity="0.85"/>
<rect x="1068.43" y="521.82" width="26.02" height="108.18" fill="#59A14F" opacity="0.85"/>
</svg>