<svg xmlns="http://www.w3.org/2000/svg" width="1200" height="720" viewBox="0 0 1200 720">
<rect x="0" y="0" width="100%" height="100%" fill="#ffffff"/>
<text x="40" y="42" font-size="26" font-family="Arial, PingFang SC, Microsoft YaHei, sans-serif" fill="#222">分产品收入变化图</text>
<rect x="40" y="60" width="22" height="10" fill="#4E79A7"/>
<text x="68" y="70" font-size="16" font-family="Arial, PingFang SC, Microsoft YaHei, sans-serif" fill="#333">化学原料及化学制品制造业</text>
<rect x="210" y="60" width="22" height="10" fill="#F28E2B"/>
<text x="238" y="70" font-size="16" font-family="Arial, PingFang SC, Microsoft YaHei, sans-serif" fill="#333">锂化合物及衍生品</text>
<rect x="380" y="60" width="22" height="10" fill="#E15759"/>
<text x="408" y="70" font-size="16" font-family="Arial, PingFang SC, Microsoft YaHei, sans-serif" fill="#333">采选冶炼行业</text>
<rect x="550" y="60" width="22" height="10" fill="#76B7B2"/>
<text x="578" y="70" font-size="16" font-family="Arial, PingFang SC, Microsoft YaHei, sans-serif" fill="#333">锂矿</text>
<rect x="720" y="60" width="22" height="10" fill="#59A14F"/>
<text x="748" y="70" font-size="16" font-family="Arial, PingFang SC, Microsoft YaHei, sans-serif" fill="#333">国外</text>
<line x1="90" y1="130" x2="90" y2="630" stroke="#555" stroke-width="1"/>
<line x1="90" y1="630.0" x2="1130" y2="630.0" stroke="#555" stroke-width="1"/>
<line x1="90" y1="630.0" x2="1130" y2="630.0" stroke="#eee" stroke-width="1"/>
<text x="78" y="635.0" text-anchor="end" font-size="14" font-family="Arial, PingFang SC, Microsoft YaHei, sans-serif" fill="#666">0.00</text>
<line x1="90" y1="530.0" x2="1130" y2="530.0" stroke="#eee" stroke-width="1"/>
<text x="78" y="535.0" text-anchor="end" font-size="14" font-family="Arial, PingFang SC, Microsoft YaHei, sans-serif" fill="#666">86.48</text>
<line x1="90" y1="430.0" x2="1130" y2="430.0" stroke="#eee" stroke-width="1"/>
<text x="78" y="435.0" text-anchor="end" font-size="14" font-family="Arial, PingFang SC, Microsoft YaHei, sans-serif" fill="#666">172.96</text>
<line x1="90" y1="329.99999999999994" x2="1130" y2="329.99999999999994" stroke="#eee" stroke-width="1"/>
<text x="78" y="334.99999999999994" text-anchor="end" font-size="14" font-family="Arial, PingFang SC, Microsoft YaHei, sans-serif" fill="#666">259.43</text>
<line x1="90" y1="230.0" x2="1130" y2="230.0" stroke="#eee" stroke-width="1"/>
<text x="78" y="235.0" text-anchor="end" font-size="14" font-family="Arial, PingFang SC, Microsoft YaHei, sans-serif" fill="#666">345.91</text>
<line x1="90" y1="130.0" x2="1130" y2="130.0" stroke="#eee" stroke-width="1"/>
<text x="78" y="135.0" text-anchor="end" font-size="14" font-family="Arial, PingFang SC, Microsoft YaHei, sans-serif" fill="#666">432.39</text>
<text x="194.0" y="658" text-anchor="middle" font-size="14" font-family="Arial, PingFang SC, Microsoft YaHei, sans-serif" fill="#666">2021</text>
<text x="402.0" y="658" text-anchor="middle" font-size="14" font-family="Arial, PingFang SC, Microsoft YaHei, sans-serif" fill="#666">2022</text>
<text x="610.0" y="658" text-anchor="middle" font-size="14" font-family="Arial, PingFang SC, Microsoft YaHei, sans-serif" fill="#666">2023</text>
<text x="818.0" y="658" text-anchor="middle" font-size="14" font-family="Arial, PingFang SC, Microsoft YaHei, sans-serif" fill="#666">2024</text>
<text x="1026.0" y="658" text-anchor="middle" font-size="14" font-family="Arial, PingFang SC, Microsoft YaHei, sans-serif" fill="#666">2025</text>
<rect x="123.28" y="554.78" width="26.02" height="75.22" fill="#4E79A7" opacity="0.85"/>
<rect x="331.28" y="227.17" width="26.02" height="402.83" fill="#4E79A7" opacity="0.85"/>
<rect x="539.28" y="374.74" width="26.02" height="255.26" fill="#4E79A7" opacity="0.85"/>
<rect x="747.28" y="492.17" width="26.02" height="137.83" fill="#4E79A7" opacity="0.85"/>
<rect x="955.28" y="535.88" width="26.02" height="94.12" fill="#4E79A7" opacity="0.85"/>
<rect x="151.57" y="554.78" width="26.02" height="75.22" fill="#F28E2B" opacity="0.85"/>
<rect x="359.57" y="227.17" width="26.02" height="402.83" fill="#F28E2B" opacity="0.85"/>
<rect x="567.57" y="374.74" width="26.02" height="255.26" fill="#F28E2B" opacity="0.85"/>
<rect x="775.57" y="492.17" width="26.02" height="137.83" fill="#F28E2B" opacity="0.85"/>
<rect x="983.57" y="535.88" width="26.02" height="94.12" fill="#F28E2B" opacity="0.85"/>
<rect x="179.86" y="589.45" width="26.02" height="40.55" fill="#E15759" opacity="0.85"/>
<rect x="387.86" y="399.83" width="26.02" height="230.17" fill="#E15759" opacity="0.85"/>
<rect x="595.86" y="130.00" width="26.02" height="500.00" fill="#E15759" opacity="0.85"/>
<rect x="803.86" y="542.69" width="26.02" height="87.31" fill="#E15759" opacity="0.85"/>
<rect x="1011.86" y="548.95" width="26.02" height="81.05" fill="#E15759" opacity="0.85"/>
<rect x="208.14" y="589.45" width="26.02" height="40.55" fill="#76B7B2" opacity="0.85"/>
<rect x="416.14" y="399.83" width="26.02" height="230.17" fill="#76B7B2" opacity="0.85"/>
<rect x="624.14" y="130.00" width="26.02" height="500.00" fill="#76B7B2" opacity="0.85"/>
<rect x="832.14" y="542.69" width="26.02" height="87.31" fill="#76B7B2" opacity="0.85"/>
<rect x="1040.14" y="548.95" width="26.02" height="81.05" fill="#76B7B2" opacity="0.85"/>
<rect x="236.43" y="613.49" width="26.02" height="16.51" fill="#59A14F" opacity="0.85"/>
<rect x="444.43" y="528.41" width="26.02" height="101.59" fill="#59A14F" opacity="0.85"/>
<rect x="652.43" y="510.14" width="26.02" height="119.86" fill="#59A14F" opacity="0.85"/>
<rect x="860.43" y="607.38" width="26.02" height="22.62" fill="#59A14F" opacity="0.85"/>
<rect x="1068.43" y="616.15" width="26.02" height="13.85" fill="#59A14F" opacity="0.85"/>
</svg>