<svg xmlns="http://www.w3.org/2000/svg" width="1200" height="720" viewBox="0 0 1200 720">
<rect x="0" y="0" width="100%" height="100%" fill="#ffffff"/>
<text x="40" y="42" font-size="26" font-family="Arial, PingFang SC, Microsoft YaHei, sans-serif" fill="#222">分产品利润结构图</text>
<rect x="40" y="60" width="22" height="10" fill="#4E79A7"/>
<text x="68" y="70" font-size="16" font-family="Arial, PingFang SC, Microsoft YaHei, sans-serif" fill="#333">利润</text>
<rect x="210" y="60" width="22" height="10" fill="#F28E2B"/>
<text x="238" y="70" font-size="16" font-family="Arial, PingFang SC, Microsoft YaHei, sans-serif" fill="#333">毛利率</text>
<line x1="90" y1="130" x2="90" y2="630" stroke="#555" stroke-width="1"/>
<line x1="90" y1="630.0" x2="1130" y2="630.0" stroke="#555" stroke-width="1"/>
<line x1="90" y1="630.0" x2="1130" y2="630.0" stroke="#eee" stroke-width="1"/>
<text x="78" y="635.0" text-anchor="end" font-size="14" font-family="Arial, PingFang SC, Microsoft YaHei, sans-serif" fill="#666">0.00</text>
<line x1="90" y1="530.0" x2="1130" y2="530.0" stroke="#eee" stroke-width="1"/>
<text x="78" y="535.0" text-anchor="end" font-size="14" font-family="Arial, PingFang SC, Microsoft YaHei, sans-serif" fill="#666">10.58</text>
<line x1="90" y1="430.0" x2="1130" y2="430.0" stroke="#eee" stroke-width="1"/>
<text x="78" y="435.0" text-anchor="end" font-size="14" font-family="Arial, PingFang SC, Microsoft YaHei, sans-serif" fill="#666">21.15</text>
<line x1="90" y1="330.0" x2="1130" y2="330.0" stroke="#eee" stroke-width="1"/>
<text x="78" y="335.0" text-anchor="end" font-size="14" font-family="Arial, PingFang SC, Microsoft YaHei, sans-serif" fill="#666">31.73</text>
<line x1="90" y1="230.0" x2="1130" y2="230.0" stroke="#eee" stroke-width="1"/>
<text x="78" y="235.0" text-anchor="end" font-size="14" font-family="Arial, PingFang SC, Microsoft YaHei, sans-serif" fill="#666">42.30</text>
<line x1="90" y1="129.99999999999994" x2="1130" y2="129.99999999999994" stroke="#eee" stroke-width="1"/>
<text x="78" y="134.99999999999994" text-anchor="end" font-size="14" font-family="Arial, PingFang SC, Microsoft YaHei, sans-serif" fill="#666">52.88</text>
<text x="164.28571428571428" y="658" text-anchor="middle" font-size="14" font-family="Arial, PingFang SC, Microsoft YaHei, sans-serif" fill="#666">化学原料及化学制品制造业</text>
<text x="312.8571428571429" y="658" text-anchor="middle" font-size="14" font-family="Arial, PingFang SC, Microsoft YaHei, sans-serif" fill="#666">锂化合物及衍生品</text>
<text x="461.42857142857144" y="658" text-anchor="middle" font-size="14" font-family="Arial, PingFang SC, Microsoft YaHei, sans-serif" fill="#666">采选冶炼行业</text>
<text x="610.0" y="658" text-anchor="middle" font-size="14" font-family="Arial, PingFang SC, Microsoft YaHei, sans-serif" fill="#666">锂矿</text>
<text x="758.5714285714287" y="658" text-anchor="middle" font-size="14" font-family="Arial, PingFang SC, Microsoft YaHei, sans-serif" fill="#666">国外</text>
<text x="907.1428571428572" y="658" text-anchor="middle" font-size="14" font-family="Arial, PingFang SC, Microsoft YaHei, sans-serif" fill="#666">其他(行业)</text>
<text x="1055.7142857142858" y="658" text-anchor="middle" font-size="14" font-family="Arial, PingFang SC, Microsoft YaHei, sans-serif" fill="#666">其他产品</text>
<rect x="113.77" y="476.07" width="92.95" height="153.93" fill="#4E79A7" opacity="0.85"/>
<rect x="262.34" y="476.07" width="92.95" height="153.93" fill="#4E79A7" opacity="0.85"/>
<rect x="410.91" y="398.53" width="92.95" height="231.47" fill="#4E79A7" opacity="0.85"/>
<rect x="559.49" y="398.53" width="92.95" height="231.47" fill="#4E79A7" opacity="0.85"/>
<rect x="708.06" y="627.35" width="92.95" height="2.65" fill="#4E79A7" opacity="0.85"/>
<rect x="856.63" y="629.24" width="92.95" height="0.76" fill="#4E79A7" opacity="0.85"/>
<rect x="1005.20" y="629.24" width="92.95" height="0.76" fill="#4E79A7" opacity="0.85"/>
<polyline fill="none" stroke="#F28E2B" stroke-width="3" points="164.29,359.67 312.86,359.67 461.43,130.00 610.00,130.00 758.57,599.65 907.14,277.79 1055.71,277.79"/>
<circle cx="164.29" cy="359.67" r="4" fill="#F28E2B"/>
<circle cx="312.86" cy="359.67" r="4" fill="#F28E2B"/>
<circle cx="461.43" cy="130.00" r="4" fill="#F28E2B"/>
<circle cx="610.00" cy="130.00" r="4" fill="#F28E2B"/>
<circle cx="758.57" cy="599.65" r="4" fill="#F28E2B"/>
<circle cx="907.14" cy="277.79" r="4" fill="#F28E2B"/>
<circle cx="1055.71" cy="277.79" r="4" fill="#F28E2B"/>
</svg>