<svg xmlns="http://www.w3.org/2000/svg" width="1200" height="720" viewBox="0 0 1200 720">
<rect x="0" y="0" width="100%" height="100%" fill="#ffffff"/>
<text x="40" y="42" font-size="26" font-family="Arial, PingFang SC, Microsoft YaHei, sans-serif" fill="#222">分产品收入变化图</text>
<rect x="40" y="60" width="22" height="10" fill="#4E79A7"/>
<text x="68" y="70" font-size="16" font-family="Arial, PingFang SC, Microsoft YaHei, sans-serif" fill="#333">集成电路及服务</text>
<rect x="210" y="60" width="22" height="10" fill="#F28E2B"/>
<text x="238" y="70" font-size="16" font-family="Arial, PingFang SC, Microsoft YaHei, sans-serif" fill="#333">存储芯片</text>
<rect x="380" y="60" width="22" height="10" fill="#E15759"/>
<text x="408" y="70" font-size="16" font-family="Arial, PingFang SC, Microsoft YaHei, sans-serif" fill="#333">微控制器</text>
<rect x="550" y="60" width="22" height="10" fill="#76B7B2"/>
<text x="578" y="70" font-size="16" font-family="Arial, PingFang SC, Microsoft YaHei, sans-serif" fill="#333">传感器</text>
<rect x="720" y="60" width="22" height="10" fill="#59A14F"/>
<text x="748" y="70" font-size="16" font-family="Arial, PingFang SC, Microsoft YaHei, sans-serif" fill="#333">模拟产品</text>
<line x1="90" y1="130" x2="90" y2="630" stroke="#555" stroke-width="1"/>
<line x1="90" y1="630.0" x2="1130" y2="630.0" stroke="#555" stroke-width="1"/>
<line x1="90" y1="630.0" x2="1130" y2="630.0" stroke="#eee" stroke-width="1"/>
<text x="78" y="635.0" text-anchor="end" font-size="14" font-family="Arial, PingFang SC, Microsoft YaHei, sans-serif" fill="#666">0.00</text>
<line x1="90" y1="530.0" x2="1130" y2="530.0" stroke="#eee" stroke-width="1"/>
<text x="78" y="535.0" text-anchor="end" font-size="14" font-family="Arial, PingFang SC, Microsoft YaHei, sans-serif" fill="#666">26.71</text>
<line x1="90" y1="430.0" x2="1130" y2="430.0" stroke="#eee" stroke-width="1"/>
<text x="78" y="435.0" text-anchor="end" font-size="14" font-family="Arial, PingFang SC, Microsoft YaHei, sans-serif" fill="#666">53.41</text>
<line x1="90" y1="329.99999999999994" x2="1130" y2="329.99999999999994" stroke="#eee" stroke-width="1"/>
<text x="78" y="334.99999999999994" text-anchor="end" font-size="14" font-family="Arial, PingFang SC, Microsoft YaHei, sans-serif" fill="#666">80.12</text>
<line x1="90" y1="230.0" x2="1130" y2="230.0" stroke="#eee" stroke-width="1"/>
<text x="78" y="235.0" text-anchor="end" font-size="14" font-family="Arial, PingFang SC, Microsoft YaHei, sans-serif" fill="#666">106.82</text>
<line x1="90" y1="130.0" x2="1130" y2="130.0" stroke="#eee" stroke-width="1"/>
<text x="78" y="135.0" text-anchor="end" font-size="14" font-family="Arial, PingFang SC, Microsoft YaHei, sans-serif" fill="#666">133.53</text>
<text x="194.0" y="658" text-anchor="middle" font-size="14" font-family="Arial, PingFang SC, Microsoft YaHei, sans-serif" fill="#666">2021</text>
<text x="402.0" y="658" text-anchor="middle" font-size="14" font-family="Arial, PingFang SC, Microsoft YaHei, sans-serif" fill="#666">2022</text>
<text x="610.0" y="658" text-anchor="middle" font-size="14" font-family="Arial, PingFang SC, Microsoft YaHei, sans-serif" fill="#666">2023</text>
<text x="818.0" y="658" text-anchor="middle" font-size="14" font-family="Arial, PingFang SC, Microsoft YaHei, sans-serif" fill="#666">2024</text>
<text x="1026.0" y="658" text-anchor="middle" font-size="14" font-family="Arial, PingFang SC, Microsoft YaHei, sans-serif" fill="#666">2025</text>
<rect x="123.28" y="311.49" width="26.02" height="318.51" fill="#4E79A7" opacity="0.85"/>
<rect x="331.28" y="325.61" width="26.02" height="304.39" fill="#4E79A7" opacity="0.85"/>
<rect x="539.28" y="303.26" width="26.02" height="326.74" fill="#4E79A7" opacity="0.85"/>
<rect x="747.28" y="219.42" width="26.02" height="410.58" fill="#4E79A7" opacity="0.85"/>
<rect x="955.28" y="130.00" width="26.02" height="500.00" fill="#4E79A7" opacity="0.85"/>
<rect x="151.57" y="328.61" width="26.02" height="301.39" fill="#F28E2B" opacity="0.85"/>
<rect x="359.57" y="344.67" width="26.02" height="285.33" fill="#F28E2B" opacity="0.85"/>
<rect x="567.57" y="401.96" width="26.02" height="228.04" fill="#F28E2B" opacity="0.85"/>
<rect x="775.57" y="337.97" width="26.02" height="292.03" fill="#F28E2B" opacity="0.85"/>
<rect x="983.57" y="277.61" width="26.02" height="352.39" fill="#F28E2B" opacity="0.85"/>
<rect x="179.86" y="508.19" width="26.02" height="121.81" fill="#E15759" opacity="0.85"/>
<rect x="387.86" y="458.69" width="26.02" height="171.31" fill="#E15759" opacity="0.85"/>
<rect x="595.86" y="551.78" width="26.02" height="78.22" fill="#E15759" opacity="0.85"/>
<rect x="803.86" y="535.98" width="26.02" height="94.02" fill="#E15759" opacity="0.85"/>
<rect x="1011.86" y="522.57" width="26.02" height="107.43" fill="#E15759" opacity="0.85"/>
<rect x="208.14" y="600.61" width="26.02" height="29.39" fill="#76B7B2" opacity="0.85"/>
<rect x="416.14" y="605.70" width="26.02" height="24.30" fill="#76B7B2" opacity="0.85"/>
<rect x="624.14" y="610.19" width="26.02" height="19.81" fill="#76B7B2" opacity="0.85"/>
<rect x="832.14" y="606.04" width="26.02" height="23.96" fill="#76B7B2" opacity="0.85"/>
<rect x="1040.14" y="608.17" width="26.02" height="21.83" fill="#76B7B2" opacity="0.85"/>
<rect x="236.43" y="630.00" width="26.02" height="0.00" fill="#59A14F" opacity="0.85"/>
<rect x="444.43" y="630.00" width="26.02" height="0.00" fill="#59A14F" opacity="0.85"/>
<rect x="652.43" y="630.00" width="26.02" height="0.00" fill="#59A14F" opacity="0.85"/>
<rect x="860.43" y="630.00" width="26.02" height="0.00" fill="#59A14F" opacity="0.85"/>
<rect x="1068.43" y="611.84" width="26.02" height="18.16" fill="#59A14F" opacity="0.85"/>
</svg>