<svg xmlns="http://www.w3.org/2000/svg" width="1200" height="720" viewBox="0 0 1200 720">
<rect x="0" y="0" width="100%" height="100%" fill="#ffffff"/>
<text x="40" y="42" font-size="26" font-family="Arial, PingFang SC, Microsoft YaHei, sans-serif" fill="#222">分产品利润结构图</text>
<rect x="40" y="60" width="22" height="10" fill="#4E79A7"/>
<text x="68" y="70" font-size="16" font-family="Arial, PingFang SC, Microsoft YaHei, sans-serif" fill="#333">利润</text>
<rect x="210" y="60" width="22" height="10" fill="#F28E2B"/>
<text x="238" y="70" font-size="16" font-family="Arial, PingFang SC, Microsoft YaHei, sans-serif" fill="#333">毛利率</text>
<line x1="90" y1="130" x2="90" y2="630" stroke="#555" stroke-width="1"/>
<line x1="90" y1="630.0" x2="1130" y2="630.0" stroke="#555" stroke-width="1"/>
<line x1="90" y1="630.0" x2="1130" y2="630.0" stroke="#eee" stroke-width="1"/>
<text x="78" y="635.0" text-anchor="end" font-size="14" font-family="Arial, PingFang SC, Microsoft YaHei, sans-serif" fill="#666">0.00</text>
<line x1="90" y1="530.0" x2="1130" y2="530.0" stroke="#eee" stroke-width="1"/>
<text x="78" y="535.0" text-anchor="end" font-size="14" font-family="Arial, PingFang SC, Microsoft YaHei, sans-serif" fill="#666">19.25</text>
<line x1="90" y1="430.0" x2="1130" y2="430.0" stroke="#eee" stroke-width="1"/>
<text x="78" y="435.0" text-anchor="end" font-size="14" font-family="Arial, PingFang SC, Microsoft YaHei, sans-serif" fill="#666">38.50</text>
<line x1="90" y1="330.0" x2="1130" y2="330.0" stroke="#eee" stroke-width="1"/>
<text x="78" y="335.0" text-anchor="end" font-size="14" font-family="Arial, PingFang SC, Microsoft YaHei, sans-serif" fill="#666">57.75</text>
<line x1="90" y1="230.0" x2="1130" y2="230.0" stroke="#eee" stroke-width="1"/>
<text x="78" y="235.0" text-anchor="end" font-size="14" font-family="Arial, PingFang SC, Microsoft YaHei, sans-serif" fill="#666">77.00</text>
<line x1="90" y1="130.0" x2="1130" y2="130.0" stroke="#eee" stroke-width="1"/>
<text x="78" y="135.0" text-anchor="end" font-size="14" font-family="Arial, PingFang SC, Microsoft YaHei, sans-serif" fill="#666">96.25</text>
<text x="164.28571428571428" y="658" text-anchor="middle" font-size="14" font-family="Arial, PingFang SC, Microsoft YaHei, sans-serif" fill="#666">集成电路及服务</text>
<text x="312.8571428571429" y="658" text-anchor="middle" font-size="14" font-family="Arial, PingFang SC, Microsoft YaHei, sans-serif" fill="#666">存储芯片</text>
<text x="461.42857142857144" y="658" text-anchor="middle" font-size="14" font-family="Arial, PingFang SC, Microsoft YaHei, sans-serif" fill="#666">微控制器</text>
<text x="610.0" y="658" text-anchor="middle" font-size="14" font-family="Arial, PingFang SC, Microsoft YaHei, sans-serif" fill="#666">传感器</text>
<text x="758.5714285714287" y="658" text-anchor="middle" font-size="14" font-family="Arial, PingFang SC, Microsoft YaHei, sans-serif" fill="#666">模拟产品</text>
<text x="907.1428571428572" y="658" text-anchor="middle" font-size="14" font-family="Arial, PingFang SC, Microsoft YaHei, sans-serif" fill="#666">技术服务及其他</text>
<text x="1055.7142857142858" y="658" text-anchor="middle" font-size="14" font-family="Arial, PingFang SC, Microsoft YaHei, sans-serif" fill="#666">其他业务(行业)</text>
<rect x="113.77" y="437.79" width="92.95" height="192.21" fill="#4E79A7" opacity="0.85"/>
<rect x="262.34" y="483.87" width="92.95" height="146.13" fill="#4E79A7" opacity="0.85"/>
<rect x="410.91" y="594.47" width="92.95" height="35.53" fill="#4E79A7" opacity="0.85"/>
<rect x="559.49" y="626.05" width="92.95" height="3.95" fill="#4E79A7" opacity="0.85"/>
<rect x="708.06" y="623.61" width="92.95" height="6.39" fill="#4E79A7" opacity="0.85"/>
<rect x="856.63" y="629.74" width="92.95" height="0.26" fill="#4E79A7" opacity="0.85"/>
<rect x="1005.20" y="629.95" width="92.95" height="0.05" fill="#4E79A7" opacity="0.85"/>
<polyline fill="none" stroke="#F28E2B" stroke-width="3" points="164.29,421.12 312.86,407.45 461.43,443.92 610.00,528.34 758.57,438.00 907.14,164.65 1055.71,130.00"/>
<circle cx="164.29" cy="421.12" r="4" fill="#F28E2B"/>
<circle cx="312.86" cy="407.45" r="4" fill="#F28E2B"/>
<circle cx="461.43" cy="443.92" r="4" fill="#F28E2B"/>
<circle cx="610.00" cy="528.34" r="4" fill="#F28E2B"/>
<circle cx="758.57" cy="438.00" r="4" fill="#F28E2B"/>
<circle cx="907.14" cy="164.65" r="4" fill="#F28E2B"/>
<circle cx="1055.71" cy="130.00" r="4" fill="#F28E2B"/>
</svg>