<svg xmlns="http://www.w3.org/2000/svg" width="1200" height="720" viewBox="0 0 1200 720">
<rect x="0" y="0" width="100%" height="100%" fill="#ffffff"/>
<text x="40" y="42" font-size="26" font-family="Arial, PingFang SC, Microsoft YaHei, sans-serif" fill="#222">资产负债表关键数据图</text>
<rect x="40" y="60" width="22" height="10" fill="#4E79A7"/>
<text x="68" y="70" font-size="16" font-family="Arial, PingFang SC, Microsoft YaHei, sans-serif" fill="#333">总资产</text>
<rect x="210" y="60" width="22" height="10" fill="#F28E2B"/>
<text x="238" y="70" font-size="16" font-family="Arial, PingFang SC, Microsoft YaHei, sans-serif" fill="#333">总负债</text>
<rect x="380" y="60" width="22" height="10" fill="#E15759"/>
<text x="408" y="70" font-size="16" font-family="Arial, PingFang SC, Microsoft YaHei, sans-serif" fill="#333">股东权益</text>
<line x1="90" y1="130" x2="90" y2="630" stroke="#555" stroke-width="1"/>
<line x1="90" y1="630.0" x2="1130" y2="630.0" stroke="#555" stroke-width="1"/>
<line x1="90" y1="630.0" x2="1130" y2="630.0" stroke="#eee" stroke-width="1"/>
<text x="78" y="635.0" text-anchor="end" font-size="14" font-family="Arial, PingFang SC, Microsoft YaHei, sans-serif" fill="#666">0.00</text>
<line x1="90" y1="530.0" x2="1130" y2="530.0" stroke="#eee" stroke-width="1"/>
<text x="78" y="535.0" text-anchor="end" font-size="14" font-family="Arial, PingFang SC, Microsoft YaHei, sans-serif" fill="#666">42.79</text>
<line x1="90" y1="430.0" x2="1130" y2="430.0" stroke="#eee" stroke-width="1"/>
<text x="78" y="435.0" text-anchor="end" font-size="14" font-family="Arial, PingFang SC, Microsoft YaHei, sans-serif" fill="#666">85.59</text>
<line x1="90" y1="330.0" x2="1130" y2="330.0" stroke="#eee" stroke-width="1"/>
<text x="78" y="335.0" text-anchor="end" font-size="14" font-family="Arial, PingFang SC, Microsoft YaHei, sans-serif" fill="#666">128.38</text>
<line x1="90" y1="230.00000000000003" x2="1130" y2="230.00000000000003" stroke="#eee" stroke-width="1"/>
<text x="78" y="235.00000000000003" text-anchor="end" font-size="14" font-family="Arial, PingFang SC, Microsoft YaHei, sans-serif" fill="#666">171.18</text>
<line x1="90" y1="130.00000000000006" x2="1130" y2="130.00000000000006" stroke="#eee" stroke-width="1"/>
<text x="78" y="135.00000000000006" text-anchor="end" font-size="14" font-family="Arial, PingFang SC, Microsoft YaHei, sans-serif" fill="#666">213.97</text>
<text x="194.0" y="658" text-anchor="middle" font-size="14" font-family="Arial, PingFang SC, Microsoft YaHei, sans-serif" fill="#666">2021</text>
<text x="402.0" y="658" text-anchor="middle" font-size="14" font-family="Arial, PingFang SC, Microsoft YaHei, sans-serif" fill="#666">2022</text>
<text x="610.0" y="658" text-anchor="middle" font-size="14" font-family="Arial, PingFang SC, Microsoft YaHei, sans-serif" fill="#666">2023</text>
<text x="818.0" y="658" text-anchor="middle" font-size="14" font-family="Arial, PingFang SC, Microsoft YaHei, sans-serif" fill="#666">2024</text>
<text x="1026.0" y="658" text-anchor="middle" font-size="14" font-family="Arial, PingFang SC, Microsoft YaHei, sans-serif" fill="#666">2025</text>
<rect x="123.28" y="269.72" width="65.06" height="360.28" fill="#4E79A7" opacity="0.85"/>
<rect x="331.28" y="241.04" width="65.06" height="388.96" fill="#4E79A7" opacity="0.85"/>
<rect x="539.28" y="245.46" width="65.06" height="384.54" fill="#4E79A7" opacity="0.85"/>
<rect x="747.28" y="180.66" width="65.06" height="449.34" fill="#4E79A7" opacity="0.85"/>
<rect x="955.28" y="130.00" width="65.06" height="500.00" fill="#4E79A7" opacity="0.85"/>
<rect x="194.00" y="584.78" width="65.06" height="45.22" fill="#F28E2B" opacity="0.85"/>
<rect x="402.00" y="595.88" width="65.06" height="34.12" fill="#F28E2B" opacity="0.85"/>
<rect x="610.00" y="600.65" width="65.06" height="29.35" fill="#F28E2B" opacity="0.85"/>
<rect x="818.00" y="570.41" width="65.06" height="59.59" fill="#F28E2B" opacity="0.85"/>
<rect x="1026.00" y="579.20" width="65.06" height="50.80" fill="#F28E2B" opacity="0.85"/>
<polyline fill="none" stroke="#E15759" stroke-width="3" points="194.00,314.93 402.00,275.14 610.00,274.81 818.00,240.25 1026.00,180.80"/>
<circle cx="194.00" cy="314.93" r="4" fill="#E15759"/>
<circle cx="402.00" cy="275.14" r="4" fill="#E15759"/>
<circle cx="610.00" cy="274.81" r="4" fill="#E15759"/>
<circle cx="818.00" cy="240.25" r="4" fill="#E15759"/>
<circle cx="1026.00" cy="180.80" r="4" fill="#E15759"/>
</svg>