<svg xmlns="http://www.w3.org/2000/svg" width="1200" height="720" viewBox="0 0 1200 720">
<rect x="0" y="0" width="100%" height="100%" fill="#ffffff"/>
<text x="40" y="42" font-size="26" font-family="Arial, PingFang SC, Microsoft YaHei, sans-serif" fill="#222">分产品收入变化图</text>
<rect x="40" y="60" width="22" height="10" fill="#4E79A7"/>
<text x="68" y="70" font-size="16" font-family="Arial, PingFang SC, Microsoft YaHei, sans-serif" fill="#333">沙发</text>
<rect x="210" y="60" width="22" height="10" fill="#F28E2B"/>
<text x="238" y="70" font-size="16" font-family="Arial, PingFang SC, Microsoft YaHei, sans-serif" fill="#333">卧室用品</text>
<rect x="380" y="60" width="22" height="10" fill="#E15759"/>
<text x="408" y="70" font-size="16" font-family="Arial, PingFang SC, Microsoft YaHei, sans-serif" fill="#333">集成产品</text>
<rect x="550" y="60" width="22" height="10" fill="#76B7B2"/>
<text x="578" y="70" font-size="16" font-family="Arial, PingFang SC, Microsoft YaHei, sans-serif" fill="#333">定制家具</text>
<rect x="720" y="60" width="22" height="10" fill="#59A14F"/>
<text x="748" y="70" font-size="16" font-family="Arial, PingFang SC, Microsoft YaHei, sans-serif" fill="#333">其他业务</text>
<line x1="90" y1="130" x2="90" y2="630" stroke="#555" stroke-width="1"/>
<line x1="90" y1="630.0" x2="1130" y2="630.0" stroke="#555" stroke-width="1"/>
<line x1="90" y1="630.0" x2="1130" y2="630.0" stroke="#eee" stroke-width="1"/>
<text x="78" y="635.0" text-anchor="end" font-size="14" font-family="Arial, PingFang SC, Microsoft YaHei, sans-serif" fill="#666">0.00</text>
<line x1="90" y1="530.0" x2="1130" y2="530.0" stroke="#eee" stroke-width="1"/>
<text x="78" y="535.0" text-anchor="end" font-size="14" font-family="Arial, PingFang SC, Microsoft YaHei, sans-serif" fill="#666">34.49</text>
<line x1="90" y1="430.0" x2="1130" y2="430.0" stroke="#eee" stroke-width="1"/>
<text x="78" y="435.0" text-anchor="end" font-size="14" font-family="Arial, PingFang SC, Microsoft YaHei, sans-serif" fill="#666">68.97</text>
<line x1="90" y1="330.0" x2="1130" y2="330.0" stroke="#eee" stroke-width="1"/>
<text x="78" y="335.0" text-anchor="end" font-size="14" font-family="Arial, PingFang SC, Microsoft YaHei, sans-serif" fill="#666">103.46</text>
<line x1="90" y1="229.99999999999994" x2="1130" y2="229.99999999999994" stroke="#eee" stroke-width="1"/>
<text x="78" y="234.99999999999994" text-anchor="end" font-size="14" font-family="Arial, PingFang SC, Microsoft YaHei, sans-serif" fill="#666">137.94</text>
<line x1="90" y1="130.0" x2="1130" y2="130.0" stroke="#eee" stroke-width="1"/>
<text x="78" y="135.0" text-anchor="end" font-size="14" font-family="Arial, PingFang SC, Microsoft YaHei, sans-serif" fill="#666">172.43</text>
<text x="194.0" y="658" text-anchor="middle" font-size="14" font-family="Arial, PingFang SC, Microsoft YaHei, sans-serif" fill="#666">2021</text>
<text x="402.0" y="658" text-anchor="middle" font-size="14" font-family="Arial, PingFang SC, Microsoft YaHei, sans-serif" fill="#666">2022</text>
<text x="610.0" y="658" text-anchor="middle" font-size="14" font-family="Arial, PingFang SC, Microsoft YaHei, sans-serif" fill="#666">2023</text>
<text x="818.0" y="658" text-anchor="middle" font-size="14" font-family="Arial, PingFang SC, Microsoft YaHei, sans-serif" fill="#666">2024</text>
<text x="1026.0" y="658" text-anchor="middle" font-size="14" font-family="Arial, PingFang SC, Microsoft YaHei, sans-serif" fill="#666">2025</text>
<rect x="123.28" y="241.87" width="26.02" height="388.13" fill="#4E79A7" opacity="0.85"/>
<rect x="331.28" y="233.29" width="26.02" height="396.71" fill="#4E79A7" opacity="0.85"/>
<rect x="539.28" y="233.43" width="26.02" height="396.57" fill="#4E79A7" opacity="0.85"/>
<rect x="747.28" y="190.81" width="26.02" height="439.19" fill="#4E79A7" opacity="0.85"/>
<rect x="955.28" y="130.00" width="26.02" height="500.00" fill="#4E79A7" opacity="0.85"/>
<rect x="151.57" y="533.21" width="26.02" height="96.79" fill="#F28E2B" opacity="0.85"/>
<rect x="359.57" y="476.89" width="26.02" height="153.11" fill="#F28E2B" opacity="0.85"/>
<rect x="567.57" y="455.47" width="26.02" height="174.53" fill="#F28E2B" opacity="0.85"/>
<rect x="775.57" y="491.28" width="26.02" height="138.72" fill="#F28E2B" opacity="0.85"/>
<rect x="983.57" y="480.40" width="26.02" height="149.60" fill="#F28E2B" opacity="0.85"/>
<rect x="179.86" y="498.61" width="26.02" height="131.39" fill="#E15759" opacity="0.85"/>
<rect x="387.86" y="500.24" width="26.02" height="129.76" fill="#E15759" opacity="0.85"/>
<rect x="595.86" y="497.69" width="26.02" height="132.31" fill="#E15759" opacity="0.85"/>
<rect x="803.86" y="522.59" width="26.02" height="107.41" fill="#E15759" opacity="0.85"/>
<rect x="1011.86" y="529.15" width="26.02" height="100.85" fill="#E15759" opacity="0.85"/>
<rect x="208.14" y="610.86" width="26.02" height="19.14" fill="#76B7B2" opacity="0.85"/>
<rect x="416.14" y="597.64" width="26.02" height="32.36" fill="#76B7B2" opacity="0.85"/>
<rect x="624.14" y="593.09" width="26.02" height="36.91" fill="#76B7B2" opacity="0.85"/>
<rect x="832.14" y="587.00" width="26.02" height="43.00" fill="#76B7B2" opacity="0.85"/>
<rect x="1040.14" y="584.10" width="26.02" height="45.90" fill="#76B7B2" opacity="0.85"/>
<rect x="236.43" y="609.38" width="26.02" height="20.62" fill="#59A14F" opacity="0.85"/>
<rect x="444.43" y="603.24" width="26.02" height="26.76" fill="#59A14F" opacity="0.85"/>
<rect x="652.43" y="602.37" width="26.02" height="27.63" fill="#59A14F" opacity="0.85"/>
<rect x="860.43" y="599.49" width="26.02" height="30.51" fill="#59A14F" opacity="0.85"/>
<rect x="1068.43" y="597.81" width="26.02" height="32.19" fill="#59A14F" opacity="0.85"/>
</svg>