<svg xmlns="http://www.w3.org/2000/svg" width="1200" height="720" viewBox="0 0 1200 720">
<rect x="0" y="0" width="100%" height="100%" fill="#ffffff"/>
<text x="40" y="42" font-size="26" font-family="Arial, PingFang SC, Microsoft YaHei, sans-serif" fill="#222">分产品利润结构图</text>
<rect x="40" y="60" width="22" height="10" fill="#4E79A7"/>
<text x="68" y="70" font-size="16" font-family="Arial, PingFang SC, Microsoft YaHei, sans-serif" fill="#333">利润</text>
<rect x="210" y="60" width="22" height="10" fill="#F28E2B"/>
<text x="238" y="70" font-size="16" font-family="Arial, PingFang SC, Microsoft YaHei, sans-serif" fill="#333">毛利率</text>
<line x1="90" y1="130" x2="90" y2="630" stroke="#555" stroke-width="1"/>
<line x1="90" y1="630.0" x2="1130" y2="630.0" stroke="#555" stroke-width="1"/>
<line x1="90" y1="630.0" x2="1130" y2="630.0" stroke="#eee" stroke-width="1"/>
<text x="78" y="635.0" text-anchor="end" font-size="14" font-family="Arial, PingFang SC, Microsoft YaHei, sans-serif" fill="#666">0.00</text>
<line x1="90" y1="530.0" x2="1130" y2="530.0" stroke="#eee" stroke-width="1"/>
<text x="78" y="535.0" text-anchor="end" font-size="14" font-family="Arial, PingFang SC, Microsoft YaHei, sans-serif" fill="#666">16.37</text>
<line x1="90" y1="430.00000000000006" x2="1130" y2="430.00000000000006" stroke="#eee" stroke-width="1"/>
<text x="78" y="435.00000000000006" text-anchor="end" font-size="14" font-family="Arial, PingFang SC, Microsoft YaHei, sans-serif" fill="#666">32.74</text>
<line x1="90" y1="330.0" x2="1130" y2="330.0" stroke="#eee" stroke-width="1"/>
<text x="78" y="335.0" text-anchor="end" font-size="14" font-family="Arial, PingFang SC, Microsoft YaHei, sans-serif" fill="#666">49.11</text>
<line x1="90" y1="230.00000000000003" x2="1130" y2="230.00000000000003" stroke="#eee" stroke-width="1"/>
<text x="78" y="235.00000000000003" text-anchor="end" font-size="14" font-family="Arial, PingFang SC, Microsoft YaHei, sans-serif" fill="#666">65.48</text>
<line x1="90" y1="130.0" x2="1130" y2="130.0" stroke="#eee" stroke-width="1"/>
<text x="78" y="135.0" text-anchor="end" font-size="14" font-family="Arial, PingFang SC, Microsoft YaHei, sans-serif" fill="#666">81.85</text>
<text x="155.0" y="658" text-anchor="middle" font-size="14" font-family="Arial, PingFang SC, Microsoft YaHei, sans-serif" fill="#666">沙发</text>
<text x="285.0" y="658" text-anchor="middle" font-size="14" font-family="Arial, PingFang SC, Microsoft YaHei, sans-serif" fill="#666">卧室用品</text>
<text x="415.0" y="658" text-anchor="middle" font-size="14" font-family="Arial, PingFang SC, Microsoft YaHei, sans-serif" fill="#666">集成产品</text>
<text x="545.0" y="658" text-anchor="middle" font-size="14" font-family="Arial, PingFang SC, Microsoft YaHei, sans-serif" fill="#666">定制家具</text>
<text x="675.0" y="658" text-anchor="middle" font-size="14" font-family="Arial, PingFang SC, Microsoft YaHei, sans-serif" fill="#666">其他业务</text>
<text x="805.0" y="658" text-anchor="middle" font-size="14" font-family="Arial, PingFang SC, Microsoft YaHei, sans-serif" fill="#666">信息技术服务</text>
<text x="935.0" y="658" text-anchor="middle" font-size="14" font-family="Arial, PingFang SC, Microsoft YaHei, sans-serif" fill="#666">其他主营业务</text>
<text x="1065.0" y="658" text-anchor="middle" font-size="14" font-family="Arial, PingFang SC, Microsoft YaHei, sans-serif" fill="#666">运输费</text>
<rect x="110.80" y="383.08" width="81.33" height="246.92" fill="#4E79A7" opacity="0.85"/>
<rect x="240.80" y="539.16" width="81.33" height="90.84" fill="#4E79A7" opacity="0.85"/>
<rect x="370.80" y="588.09" width="81.33" height="41.91" fill="#4E79A7" opacity="0.85"/>
<rect x="500.80" y="611.92" width="81.33" height="18.08" fill="#4E79A7" opacity="0.85"/>
<rect x="630.80" y="608.68" width="81.33" height="21.32" fill="#4E79A7" opacity="0.85"/>
<rect x="760.80" y="593.41" width="81.33" height="36.59" fill="#4E79A7" opacity="0.85"/>
<rect x="890.80" y="629.63" width="81.33" height="0.37" fill="#4E79A7" opacity="0.85"/>
<rect x="1020.80" y="630.00" width="81.33" height="0.00" fill="#4E79A7" opacity="0.85"/>
<polyline fill="none" stroke="#F28E2B" stroke-width="3" points="155.00,416.74 285.00,367.87 415.00,448.94 545.00,454.50 675.00,360.54 805.00,130.00 935.00,605.02 1065.00,630.00"/>
<circle cx="155.00" cy="416.74" r="4" fill="#F28E2B"/>
<circle cx="285.00" cy="367.87" r="4" fill="#F28E2B"/>
<circle cx="415.00" cy="448.94" r="4" fill="#F28E2B"/>
<circle cx="545.00" cy="454.50" r="4" fill="#F28E2B"/>
<circle cx="675.00" cy="360.54" r="4" fill="#F28E2B"/>
<circle cx="805.00" cy="130.00" r="4" fill="#F28E2B"/>
<circle cx="935.00" cy="605.02" r="4" fill="#F28E2B"/>
<circle cx="1065.00" cy="630.00" r="4" fill="#F28E2B"/>
</svg>