<svg xmlns="http://www.w3.org/2000/svg" width="1200" height="720" viewBox="0 0 1200 720">
<rect x="0" y="0" width="100%" height="100%" fill="#ffffff"/>
<text x="40" y="42" font-size="26" font-family="Arial, PingFang SC, Microsoft YaHei, sans-serif" fill="#222">分产品收入变化图</text>
<rect x="40" y="60" width="22" height="10" fill="#4E79A7"/>
<text x="68" y="70" font-size="16" font-family="Arial, PingFang SC, Microsoft YaHei, sans-serif" fill="#333">集成电路(行业)</text>
<rect x="210" y="60" width="22" height="10" fill="#F28E2B"/>
<text x="238" y="70" font-size="16" font-family="Arial, PingFang SC, Microsoft YaHei, sans-serif" fill="#333">云端产品线</text>
<rect x="380" y="60" width="22" height="10" fill="#E15759"/>
<text x="408" y="70" font-size="16" font-family="Arial, PingFang SC, Microsoft YaHei, sans-serif" fill="#333">其他主营业务</text>
<rect x="550" y="60" width="22" height="10" fill="#76B7B2"/>
<text x="578" y="70" font-size="16" font-family="Arial, PingFang SC, Microsoft YaHei, sans-serif" fill="#333">边缘产品线</text>
<rect x="720" y="60" width="22" height="10" fill="#59A14F"/>
<text x="748" y="70" font-size="16" font-family="Arial, PingFang SC, Microsoft YaHei, sans-serif" fill="#333">IP授权及软件</text>
<line x1="90" y1="130" x2="90" y2="630" stroke="#555" stroke-width="1"/>
<line x1="90" y1="630.0" x2="1130" y2="630.0" stroke="#555" stroke-width="1"/>
<line x1="90" y1="630.0" x2="1130" y2="630.0" stroke="#eee" stroke-width="1"/>
<text x="78" y="635.0" text-anchor="end" font-size="14" font-family="Arial, PingFang SC, Microsoft YaHei, sans-serif" fill="#666">0.00</text>
<line x1="90" y1="530.0" x2="1130" y2="530.0" stroke="#eee" stroke-width="1"/>
<text x="78" y="535.0" text-anchor="end" font-size="14" font-family="Arial, PingFang SC, Microsoft YaHei, sans-serif" fill="#666">18.76</text>
<line x1="90" y1="430.0" x2="1130" y2="430.0" stroke="#eee" stroke-width="1"/>
<text x="78" y="435.0" text-anchor="end" font-size="14" font-family="Arial, PingFang SC, Microsoft YaHei, sans-serif" fill="#666">37.51</text>
<line x1="90" y1="329.99999999999994" x2="1130" y2="329.99999999999994" stroke="#eee" stroke-width="1"/>
<text x="78" y="334.99999999999994" text-anchor="end" font-size="14" font-family="Arial, PingFang SC, Microsoft YaHei, sans-serif" fill="#666">56.27</text>
<line x1="90" y1="230.0" x2="1130" y2="230.0" stroke="#eee" stroke-width="1"/>
<text x="78" y="235.0" text-anchor="end" font-size="14" font-family="Arial, PingFang SC, Microsoft YaHei, sans-serif" fill="#666">75.02</text>
<line x1="90" y1="130.0" x2="1130" y2="130.0" stroke="#eee" stroke-width="1"/>
<text x="78" y="135.0" text-anchor="end" font-size="14" font-family="Arial, PingFang SC, Microsoft YaHei, sans-serif" fill="#666">93.78</text>
<text x="194.0" y="658" text-anchor="middle" font-size="14" font-family="Arial, PingFang SC, Microsoft YaHei, sans-serif" fill="#666">2021</text>
<text x="402.0" y="658" text-anchor="middle" font-size="14" font-family="Arial, PingFang SC, Microsoft YaHei, sans-serif" fill="#666">2022</text>
<text x="610.0" y="658" text-anchor="middle" font-size="14" font-family="Arial, PingFang SC, Microsoft YaHei, sans-serif" fill="#666">2023</text>
<text x="818.0" y="658" text-anchor="middle" font-size="14" font-family="Arial, PingFang SC, Microsoft YaHei, sans-serif" fill="#666">2024</text>
<text x="1026.0" y="658" text-anchor="middle" font-size="14" font-family="Arial, PingFang SC, Microsoft YaHei, sans-serif" fill="#666">2025</text>
<rect x="123.28" y="591.67" width="26.02" height="38.33" fill="#4E79A7" opacity="0.85"/>
<rect x="331.28" y="591.45" width="26.02" height="38.55" fill="#4E79A7" opacity="0.85"/>
<rect x="539.28" y="592.31" width="26.02" height="37.69" fill="#4E79A7" opacity="0.85"/>
<rect x="747.28" y="563.94" width="26.02" height="66.06" fill="#4E79A7" opacity="0.85"/>
<rect x="955.28" y="130.00" width="26.02" height="500.00" fill="#4E79A7" opacity="0.85"/>
<rect x="151.57" y="624.72" width="26.02" height="5.28" fill="#F28E2B" opacity="0.85"/>
<rect x="359.57" y="611.34" width="26.02" height="18.66" fill="#F28E2B" opacity="0.85"/>
<rect x="567.57" y="619.39" width="26.02" height="10.61" fill="#F28E2B" opacity="0.85"/>
<rect x="775.57" y="564.58" width="26.02" height="65.42" fill="#F28E2B" opacity="0.85"/>
<rect x="983.57" y="131.65" width="26.02" height="498.35" fill="#F28E2B" opacity="0.85"/>
<rect x="179.86" y="629.89" width="26.02" height="0.11" fill="#E15759" opacity="0.85"/>
<rect x="387.86" y="629.68" width="26.02" height="0.32" fill="#E15759" opacity="0.85"/>
<rect x="595.86" y="630.00" width="26.02" height="0.00" fill="#E15759" opacity="0.85"/>
<rect x="803.86" y="630.00" width="26.02" height="0.00" fill="#E15759" opacity="0.85"/>
<rect x="1011.86" y="629.20" width="26.02" height="0.80" fill="#E15759" opacity="0.85"/>
<rect x="208.14" y="616.19" width="26.02" height="13.81" fill="#76B7B2" opacity="0.85"/>
<rect x="416.14" y="626.16" width="26.02" height="3.84" fill="#76B7B2" opacity="0.85"/>
<rect x="624.14" y="629.15" width="26.02" height="0.85" fill="#76B7B2" opacity="0.85"/>
<rect x="832.14" y="629.47" width="26.02" height="0.53" fill="#76B7B2" opacity="0.85"/>
<rect x="1040.14" y="629.73" width="26.02" height="0.27" fill="#76B7B2" opacity="0.85"/>
<rect x="236.43" y="629.31" width="26.02" height="0.69" fill="#59A14F" opacity="0.85"/>
<rect x="444.43" y="629.89" width="26.02" height="0.11" fill="#59A14F" opacity="0.85"/>
<rect x="652.43" y="630.00" width="26.02" height="0.00" fill="#59A14F" opacity="0.85"/>
<rect x="860.43" y="629.95" width="26.02" height="0.05" fill="#59A14F" opacity="0.85"/>
<rect x="1068.43" y="629.89" width="26.02" height="0.11" fill="#59A14F" opacity="0.85"/>
</svg>