<svg xmlns="http://www.w3.org/2000/svg" width="1200" height="720" viewBox="0 0 1200 720">
<rect x="0" y="0" width="100%" height="100%" fill="#ffffff"/>
<text x="40" y="42" font-size="26" font-family="Arial, PingFang SC, Microsoft YaHei, sans-serif" fill="#222">财务比率分析图</text>
<rect x="40" y="60" width="22" height="10" fill="#4E79A7"/>
<text x="68" y="70" font-size="16" font-family="Arial, PingFang SC, Microsoft YaHei, sans-serif" fill="#333">资产负债率</text>
<rect x="210" y="60" width="22" height="10" fill="#F28E2B"/>
<text x="238" y="70" font-size="16" font-family="Arial, PingFang SC, Microsoft YaHei, sans-serif" fill="#333">流动比率</text>
<rect x="380" y="60" width="22" height="10" fill="#E15759"/>
<text x="408" y="70" font-size="16" font-family="Arial, PingFang SC, Microsoft YaHei, sans-serif" fill="#333">速动比率</text>
<rect x="550" y="60" width="22" height="10" fill="#76B7B2"/>
<text x="578" y="70" font-size="16" font-family="Arial, PingFang SC, Microsoft YaHei, sans-serif" fill="#333">应收周转率</text>
<rect x="720" y="60" width="22" height="10" fill="#59A14F"/>
<text x="748" y="70" font-size="16" font-family="Arial, PingFang SC, Microsoft YaHei, sans-serif" fill="#333">存货周转率</text>
<line x1="90" y1="130" x2="90" y2="630" stroke="#555" stroke-width="1"/>
<line x1="90" y1="630.0" x2="1130" y2="630.0" stroke="#555" stroke-width="1"/>
<line x1="90" y1="630.0" x2="1130" y2="630.0" stroke="#eee" stroke-width="1"/>
<text x="78" y="635.0" text-anchor="end" font-size="14" font-family="Arial, PingFang SC, Microsoft YaHei, sans-serif" fill="#666">0.00</text>
<line x1="90" y1="530.0" x2="1130" y2="530.0" stroke="#eee" stroke-width="1"/>
<text x="78" y="535.0" text-anchor="end" font-size="14" font-family="Arial, PingFang SC, Microsoft YaHei, sans-serif" fill="#666">6.04</text>
<line x1="90" y1="430.0" x2="1130" y2="430.0" stroke="#eee" stroke-width="1"/>
<text x="78" y="435.0" text-anchor="end" font-size="14" font-family="Arial, PingFang SC, Microsoft YaHei, sans-serif" fill="#666">12.07</text>
<line x1="90" y1="330.0" x2="1130" y2="330.0" stroke="#eee" stroke-width="1"/>
<text x="78" y="335.0" text-anchor="end" font-size="14" font-family="Arial, PingFang SC, Microsoft YaHei, sans-serif" fill="#666">18.11</text>
<line x1="90" y1="230.0" x2="1130" y2="230.0" stroke="#eee" stroke-width="1"/>
<text x="78" y="235.0" text-anchor="end" font-size="14" font-family="Arial, PingFang SC, Microsoft YaHei, sans-serif" fill="#666">24.14</text>
<line x1="90" y1="130.0" x2="1130" y2="130.0" stroke="#eee" stroke-width="1"/>
<text x="78" y="135.0" text-anchor="end" font-size="14" font-family="Arial, PingFang SC, Microsoft YaHei, sans-serif" fill="#666">30.18</text>
<text x="194.0" y="658" text-anchor="middle" font-size="14" font-family="Arial, PingFang SC, Microsoft YaHei, sans-serif" fill="#666">2021</text>
<text x="402.0" y="658" text-anchor="middle" font-size="14" font-family="Arial, PingFang SC, Microsoft YaHei, sans-serif" fill="#666">2022</text>
<text x="610.0" y="658" text-anchor="middle" font-size="14" font-family="Arial, PingFang SC, Microsoft YaHei, sans-serif" fill="#666">2023</text>
<text x="818.0" y="658" text-anchor="middle" font-size="14" font-family="Arial, PingFang SC, Microsoft YaHei, sans-serif" fill="#666">2024</text>
<text x="1026.0" y="658" text-anchor="middle" font-size="14" font-family="Arial, PingFang SC, Microsoft YaHei, sans-serif" fill="#666">2025</text>
<rect x="123.28" y="557.44" width="65.06" height="72.56" fill="#4E79A7" opacity="0.85"/>
<rect x="331.28" y="538.88" width="65.06" height="91.12" fill="#4E79A7" opacity="0.85"/>
<rect x="539.28" y="543.19" width="65.06" height="86.81" fill="#4E79A7" opacity="0.85"/>
<rect x="747.28" y="519.99" width="65.06" height="110.01" fill="#4E79A7" opacity="0.85"/>
<rect x="955.28" y="513.53" width="65.06" height="116.47" fill="#4E79A7" opacity="0.85"/>
<rect x="194.00" y="604.98" width="65.06" height="25.02" fill="#F28E2B" opacity="0.85"/>
<rect x="402.00" y="600.68" width="65.06" height="29.32" fill="#F28E2B" opacity="0.85"/>
<rect x="610.00" y="600.84" width="65.06" height="29.16" fill="#F28E2B" opacity="0.85"/>
<rect x="818.00" y="583.94" width="65.06" height="46.06" fill="#F28E2B" opacity="0.85"/>
<rect x="1026.00" y="592.72" width="65.06" height="37.28" fill="#F28E2B" opacity="0.85"/>
<polyline fill="none" stroke="#E15759" stroke-width="3" points="194.00,133.81 402.00,180.86 610.00,196.77 818.00,137.95 1026.00,130.00"/>
<circle cx="194.00" cy="133.81" r="4" fill="#E15759"/>
<circle cx="402.00" cy="180.86" r="4" fill="#E15759"/>
<circle cx="610.00" cy="196.77" r="4" fill="#E15759"/>
<circle cx="818.00" cy="137.95" r="4" fill="#E15759"/>
<circle cx="1026.00" cy="130.00" r="4" fill="#E15759"/>
<polyline fill="none" stroke="#76B7B2" stroke-width="3" points="194.00,577.48 402.00,581.29 610.00,586.93 818.00,583.61 1026.00,585.43"/>
<circle cx="194.00" cy="577.48" r="4" fill="#76B7B2"/>
<circle cx="402.00" cy="581.29" r="4" fill="#76B7B2"/>
<circle cx="610.00" cy="586.93" r="4" fill="#76B7B2"/>
<circle cx="818.00" cy="583.61" r="4" fill="#76B7B2"/>
<circle cx="1026.00" cy="585.43" r="4" fill="#76B7B2"/>
<polyline fill="none" stroke="#59A14F" stroke-width="3" points="194.00,597.36 402.00,601.01 610.00,603.33 818.00,601.50 1026.00,603.66"/>
<circle cx="194.00" cy="597.36" r="4" fill="#59A14F"/>
<circle cx="402.00" cy="601.01" r="4" fill="#59A14F"/>
<circle cx="610.00" cy="603.33" r="4" fill="#59A14F"/>
<circle cx="818.00" cy="601.50" r="4" fill="#59A14F"/>
<circle cx="1026.00" cy="603.66" r="4" fill="#59A14F"/>
</svg>