<svg xmlns="http://www.w3.org/2000/svg" width="1200" height="720" viewBox="0 0 1200 720">
<rect x="0" y="0" width="100%" height="100%" fill="#ffffff"/>
<text x="40" y="42" font-size="26" font-family="Arial, PingFang SC, Microsoft YaHei, sans-serif" fill="#222">分产品利润结构图</text>
<rect x="40" y="60" width="22" height="10" fill="#4E79A7"/>
<text x="68" y="70" font-size="16" font-family="Arial, PingFang SC, Microsoft YaHei, sans-serif" fill="#333">利润</text>
<rect x="210" y="60" width="22" height="10" fill="#F28E2B"/>
<text x="238" y="70" font-size="16" font-family="Arial, PingFang SC, Microsoft YaHei, sans-serif" fill="#333">毛利率</text>
<line x1="90" y1="130" x2="90" y2="630" stroke="#555" stroke-width="1"/>
<line x1="90" y1="563.5701598579042" x2="1130" y2="563.5701598579042" stroke="#555" stroke-width="1"/>
<line x1="90" y1="630.0" x2="1130" y2="630.0" stroke="#eee" stroke-width="1"/>
<text x="78" y="635.0" text-anchor="end" font-size="14" font-family="Arial, PingFang SC, Microsoft YaHei, sans-serif" fill="#666">-14.96</text>
<line x1="90" y1="530.0" x2="1130" y2="530.0" stroke="#eee" stroke-width="1"/>
<text x="78" y="535.0" text-anchor="end" font-size="14" font-family="Arial, PingFang SC, Microsoft YaHei, sans-serif" fill="#666">7.56</text>
<line x1="90" y1="430.00000000000006" x2="1130" y2="430.00000000000006" stroke="#eee" stroke-width="1"/>
<text x="78" y="435.00000000000006" text-anchor="end" font-size="14" font-family="Arial, PingFang SC, Microsoft YaHei, sans-serif" fill="#666">30.08</text>
<line x1="90" y1="330.00000000000006" x2="1130" y2="330.00000000000006" stroke="#eee" stroke-width="1"/>
<text x="78" y="335.00000000000006" text-anchor="end" font-size="14" font-family="Arial, PingFang SC, Microsoft YaHei, sans-serif" fill="#666">52.60</text>
<line x1="90" y1="230.0" x2="1130" y2="230.0" stroke="#eee" stroke-width="1"/>
<text x="78" y="235.0" text-anchor="end" font-size="14" font-family="Arial, PingFang SC, Microsoft YaHei, sans-serif" fill="#666">75.12</text>
<line x1="90" y1="130.00000000000006" x2="1130" y2="130.00000000000006" stroke="#eee" stroke-width="1"/>
<text x="78" y="135.00000000000006" text-anchor="end" font-size="14" font-family="Arial, PingFang SC, Microsoft YaHei, sans-serif" fill="#666">97.64</text>
<text x="155.0" y="658" text-anchor="middle" font-size="14" font-family="Arial, PingFang SC, Microsoft YaHei, sans-serif" fill="#666">游戏收入</text>
<text x="285.0" y="658" text-anchor="middle" font-size="14" font-family="Arial, PingFang SC, Microsoft YaHei, sans-serif" fill="#666">自主运营</text>
<text x="415.0" y="658" text-anchor="middle" font-size="14" font-family="Arial, PingFang SC, Microsoft YaHei, sans-serif" fill="#666">联合运营</text>
<text x="545.0" y="658" text-anchor="middle" font-size="14" font-family="Arial, PingFang SC, Microsoft YaHei, sans-serif" fill="#666">授权运营</text>
<text x="675.0" y="658" text-anchor="middle" font-size="14" font-family="Arial, PingFang SC, Microsoft YaHei, sans-serif" fill="#666">其他(行业)</text>
<text x="805.0" y="658" text-anchor="middle" font-size="14" font-family="Arial, PingFang SC, Microsoft YaHei, sans-serif" fill="#666">其他主营业务</text>
<text x="935.0" y="658" text-anchor="middle" font-size="14" font-family="Arial, PingFang SC, Microsoft YaHei, sans-serif" fill="#666">其他业务</text>
<text x="1065.0" y="658" text-anchor="middle" font-size="14" font-family="Arial, PingFang SC, Microsoft YaHei, sans-serif" fill="#666">其他业务(行业)</text>
<rect x="110.80" y="305.22" width="81.33" height="258.35" fill="#4E79A7" opacity="0.85"/>
<rect x="240.80" y="399.76" width="81.33" height="163.81" fill="#4E79A7" opacity="0.85"/>
<rect x="370.80" y="481.20" width="81.33" height="82.37" fill="#4E79A7" opacity="0.85"/>
<rect x="500.80" y="551.40" width="81.33" height="12.17" fill="#4E79A7" opacity="0.85"/>
<rect x="630.80" y="563.13" width="81.33" height="0.44" fill="#4E79A7" opacity="0.85"/>
<rect x="760.80" y="563.13" width="81.33" height="0.44" fill="#4E79A7" opacity="0.85"/>
<rect x="890.80" y="563.57" width="81.33" height="0.09" fill="#4E79A7" opacity="0.85"/>
<rect x="1020.80" y="563.57" width="81.33" height="0.09" fill="#4E79A7" opacity="0.85"/>
<polyline fill="none" stroke="#F28E2B" stroke-width="3" points="155.00,144.83 285.00,142.74 415.00,151.05 545.00,130.00 675.00,350.78 805.00,350.78 935.00,630.00 1065.00,630.00"/>
<circle cx="155.00" cy="144.83" r="4" fill="#F28E2B"/>
<circle cx="285.00" cy="142.74" r="4" fill="#F28E2B"/>
<circle cx="415.00" cy="151.05" r="4" fill="#F28E2B"/>
<circle cx="545.00" cy="130.00" r="4" fill="#F28E2B"/>
<circle cx="675.00" cy="350.78" r="4" fill="#F28E2B"/>
<circle cx="805.00" cy="350.78" r="4" fill="#F28E2B"/>
<circle cx="935.00" cy="630.00" r="4" fill="#F28E2B"/>
<circle cx="1065.00" cy="630.00" r="4" fill="#F28E2B"/>
</svg>