<svg xmlns="http://www.w3.org/2000/svg" width="1200" height="720" viewBox="0 0 1200 720">
<rect x="0" y="0" width="100%" height="100%" fill="#ffffff"/>
<text x="40" y="42" font-size="26" font-family="Arial, PingFang SC, Microsoft YaHei, sans-serif" fill="#222">财务比率分析图</text>
<rect x="40" y="60" width="22" height="10" fill="#4E79A7"/>
<text x="68" y="70" font-size="16" font-family="Arial, PingFang SC, Microsoft YaHei, sans-serif" fill="#333">资产负债率</text>
<rect x="210" y="60" width="22" height="10" fill="#F28E2B"/>
<text x="238" y="70" font-size="16" font-family="Arial, PingFang SC, Microsoft YaHei, sans-serif" fill="#333">流动比率</text>
<rect x="380" y="60" width="22" height="10" fill="#E15759"/>
<text x="408" y="70" font-size="16" font-family="Arial, PingFang SC, Microsoft YaHei, sans-serif" fill="#333">速动比率</text>
<rect x="550" y="60" width="22" height="10" fill="#76B7B2"/>
<text x="578" y="70" font-size="16" font-family="Arial, PingFang SC, Microsoft YaHei, sans-serif" fill="#333">应收周转率</text>
<rect x="720" y="60" width="22" height="10" fill="#59A14F"/>
<text x="748" y="70" font-size="16" font-family="Arial, PingFang SC, Microsoft YaHei, sans-serif" fill="#333">存货周转率</text>
<line x1="90" y1="130" x2="90" y2="630" stroke="#555" stroke-width="1"/>
<line x1="90" y1="630.0" x2="1130" y2="630.0" stroke="#555" stroke-width="1"/>
<line x1="90" y1="630.0" x2="1130" y2="630.0" stroke="#eee" stroke-width="1"/>
<text x="78" y="635.0" text-anchor="end" font-size="14" font-family="Arial, PingFang SC, Microsoft YaHei, sans-serif" fill="#666">0.00</text>
<line x1="90" y1="530.0" x2="1130" y2="530.0" stroke="#eee" stroke-width="1"/>
<text x="78" y="535.0" text-anchor="end" font-size="14" font-family="Arial, PingFang SC, Microsoft YaHei, sans-serif" fill="#666">11.13</text>
<line x1="90" y1="430.0" x2="1130" y2="430.0" stroke="#eee" stroke-width="1"/>
<text x="78" y="435.0" text-anchor="end" font-size="14" font-family="Arial, PingFang SC, Microsoft YaHei, sans-serif" fill="#666">22.26</text>
<line x1="90" y1="330.0" x2="1130" y2="330.0" stroke="#eee" stroke-width="1"/>
<text x="78" y="335.0" text-anchor="end" font-size="14" font-family="Arial, PingFang SC, Microsoft YaHei, sans-serif" fill="#666">33.38</text>
<line x1="90" y1="230.0" x2="1130" y2="230.0" stroke="#eee" stroke-width="1"/>
<text x="78" y="235.0" text-anchor="end" font-size="14" font-family="Arial, PingFang SC, Microsoft YaHei, sans-serif" fill="#666">44.51</text>
<line x1="90" y1="130.0" x2="1130" y2="130.0" stroke="#eee" stroke-width="1"/>
<text x="78" y="135.0" text-anchor="end" font-size="14" font-family="Arial, PingFang SC, Microsoft YaHei, sans-serif" fill="#666">55.64</text>
<text x="194.0" y="658" text-anchor="middle" font-size="14" font-family="Arial, PingFang SC, Microsoft YaHei, sans-serif" fill="#666">2021</text>
<text x="402.0" y="658" text-anchor="middle" font-size="14" font-family="Arial, PingFang SC, Microsoft YaHei, sans-serif" fill="#666">2022</text>
<text x="610.0" y="658" text-anchor="middle" font-size="14" font-family="Arial, PingFang SC, Microsoft YaHei, sans-serif" fill="#666">2023</text>
<text x="818.0" y="658" text-anchor="middle" font-size="14" font-family="Arial, PingFang SC, Microsoft YaHei, sans-serif" fill="#666">2024</text>
<text x="1026.0" y="658" text-anchor="middle" font-size="14" font-family="Arial, PingFang SC, Microsoft YaHei, sans-serif" fill="#666">2025</text>
<rect x="123.28" y="600.79" width="65.06" height="29.21" fill="#4E79A7" opacity="0.85"/>
<rect x="331.28" y="609.42" width="65.06" height="20.58" fill="#4E79A7" opacity="0.85"/>
<rect x="539.28" y="612.57" width="65.06" height="17.43" fill="#4E79A7" opacity="0.85"/>
<rect x="747.28" y="613.20" width="65.06" height="16.80" fill="#4E79A7" opacity="0.85"/>
<rect x="955.28" y="609.96" width="65.06" height="20.04" fill="#4E79A7" opacity="0.85"/>
<rect x="194.00" y="610.32" width="65.06" height="19.68" fill="#F28E2B" opacity="0.85"/>
<rect x="402.00" y="613.64" width="65.06" height="16.36" fill="#F28E2B" opacity="0.85"/>
<rect x="610.00" y="613.73" width="65.06" height="16.27" fill="#F28E2B" opacity="0.85"/>
<rect x="818.00" y="610.77" width="65.06" height="19.23" fill="#F28E2B" opacity="0.85"/>
<rect x="1026.00" y="607.80" width="65.06" height="22.20" fill="#F28E2B" opacity="0.85"/>
<polyline fill="none" stroke="#E15759" stroke-width="3" points="194.00,130.00 402.00,165.50 610.00,161.81 818.00,190.75 1026.00,176.01"/>
<circle cx="194.00" cy="130.00" r="4" fill="#E15759"/>
<circle cx="402.00" cy="165.50" r="4" fill="#E15759"/>
<circle cx="610.00" cy="161.81" r="4" fill="#E15759"/>
<circle cx="818.00" cy="190.75" r="4" fill="#E15759"/>
<circle cx="1026.00" cy="176.01" r="4" fill="#E15759"/>
<polyline fill="none" stroke="#76B7B2" stroke-width="3" points="194.00,615.71 402.00,611.67 610.00,615.17 818.00,613.73 1026.00,615.80"/>
<circle cx="194.00" cy="615.71" r="4" fill="#76B7B2"/>
<circle cx="402.00" cy="611.67" r="4" fill="#76B7B2"/>
<circle cx="610.00" cy="615.17" r="4" fill="#76B7B2"/>
<circle cx="818.00" cy="613.73" r="4" fill="#76B7B2"/>
<circle cx="1026.00" cy="615.80" r="4" fill="#76B7B2"/>
<polyline fill="none" stroke="#59A14F" stroke-width="3" points="194.00,619.49 402.00,615.17 610.00,617.87 818.00,616.52 1026.00,618.68"/>
<circle cx="194.00" cy="619.49" r="4" fill="#59A14F"/>
<circle cx="402.00" cy="615.17" r="4" fill="#59A14F"/>
<circle cx="610.00" cy="617.87" r="4" fill="#59A14F"/>
<circle cx="818.00" cy="616.52" r="4" fill="#59A14F"/>
<circle cx="1026.00" cy="618.68" r="4" fill="#59A14F"/>
</svg>