<svg xmlns="http://www.w3.org/2000/svg" width="1200" height="720" viewBox="0 0 1200 720">
<rect x="0" y="0" width="100%" height="100%" fill="#ffffff"/>
<text x="40" y="42" font-size="26" font-family="Arial, PingFang SC, Microsoft YaHei, sans-serif" fill="#222">财务比率分析图</text>
<rect x="40" y="60" width="22" height="10" fill="#4E79A7"/>
<text x="68" y="70" font-size="16" font-family="Arial, PingFang SC, Microsoft YaHei, sans-serif" fill="#333">资产负债率</text>
<rect x="210" y="60" width="22" height="10" fill="#F28E2B"/>
<text x="238" y="70" font-size="16" font-family="Arial, PingFang SC, Microsoft YaHei, sans-serif" fill="#333">流动比率</text>
<rect x="380" y="60" width="22" height="10" fill="#E15759"/>
<text x="408" y="70" font-size="16" font-family="Arial, PingFang SC, Microsoft YaHei, sans-serif" fill="#333">速动比率</text>
<rect x="550" y="60" width="22" height="10" fill="#76B7B2"/>
<text x="578" y="70" font-size="16" font-family="Arial, PingFang SC, Microsoft YaHei, sans-serif" fill="#333">应收周转率</text>
<rect x="720" y="60" width="22" height="10" fill="#59A14F"/>
<text x="748" y="70" font-size="16" font-family="Arial, PingFang SC, Microsoft YaHei, sans-serif" fill="#333">存货周转率</text>
<line x1="90" y1="130" x2="90" y2="630" stroke="#555" stroke-width="1"/>
<line x1="90" y1="630.0" x2="1130" y2="630.0" stroke="#555" stroke-width="1"/>
<line x1="90" y1="630.0" x2="1130" y2="630.0" stroke="#eee" stroke-width="1"/>
<text x="78" y="635.0" text-anchor="end" font-size="14" font-family="Arial, PingFang SC, Microsoft YaHei, sans-serif" fill="#666">0.00</text>
<line x1="90" y1="530.0" x2="1130" y2="530.0" stroke="#eee" stroke-width="1"/>
<text x="78" y="535.0" text-anchor="end" font-size="14" font-family="Arial, PingFang SC, Microsoft YaHei, sans-serif" fill="#666">15.79</text>
<line x1="90" y1="430.0" x2="1130" y2="430.0" stroke="#eee" stroke-width="1"/>
<text x="78" y="435.0" text-anchor="end" font-size="14" font-family="Arial, PingFang SC, Microsoft YaHei, sans-serif" fill="#666">31.58</text>
<line x1="90" y1="330.0" x2="1130" y2="330.0" stroke="#eee" stroke-width="1"/>
<text x="78" y="335.0" text-anchor="end" font-size="14" font-family="Arial, PingFang SC, Microsoft YaHei, sans-serif" fill="#666">47.36</text>
<line x1="90" y1="229.99999999999997" x2="1130" y2="229.99999999999997" stroke="#eee" stroke-width="1"/>
<text x="78" y="234.99999999999997" text-anchor="end" font-size="14" font-family="Arial, PingFang SC, Microsoft YaHei, sans-serif" fill="#666">63.15</text>
<line x1="90" y1="130.0" x2="1130" y2="130.0" stroke="#eee" stroke-width="1"/>
<text x="78" y="135.0" text-anchor="end" font-size="14" font-family="Arial, PingFang SC, Microsoft YaHei, sans-serif" fill="#666">78.94</text>
<text x="194.0" y="658" text-anchor="middle" font-size="14" font-family="Arial, PingFang SC, Microsoft YaHei, sans-serif" fill="#666">2021</text>
<text x="402.0" y="658" text-anchor="middle" font-size="14" font-family="Arial, PingFang SC, Microsoft YaHei, sans-serif" fill="#666">2022</text>
<text x="610.0" y="658" text-anchor="middle" font-size="14" font-family="Arial, PingFang SC, Microsoft YaHei, sans-serif" fill="#666">2023</text>
<text x="818.0" y="658" text-anchor="middle" font-size="14" font-family="Arial, PingFang SC, Microsoft YaHei, sans-serif" fill="#666">2024</text>
<text x="1026.0" y="658" text-anchor="middle" font-size="14" font-family="Arial, PingFang SC, Microsoft YaHei, sans-serif" fill="#666">2025</text>
<rect x="123.28" y="378.35" width="65.06" height="251.65" fill="#4E79A7" opacity="0.85"/>
<rect x="331.28" y="437.01" width="65.06" height="192.99" fill="#4E79A7" opacity="0.85"/>
<rect x="539.28" y="481.28" width="65.06" height="148.72" fill="#4E79A7" opacity="0.85"/>
<rect x="747.28" y="503.83" width="65.06" height="126.17" fill="#4E79A7" opacity="0.85"/>
<rect x="955.28" y="514.79" width="65.06" height="115.21" fill="#4E79A7" opacity="0.85"/>
<rect x="194.00" y="130.00" width="65.06" height="500.00" fill="#F28E2B" opacity="0.85"/>
<rect x="402.00" y="158.63" width="65.06" height="471.37" fill="#F28E2B" opacity="0.85"/>
<rect x="610.00" y="165.28" width="65.06" height="464.72" fill="#F28E2B" opacity="0.85"/>
<rect x="818.00" y="221.40" width="65.06" height="408.60" fill="#F28E2B" opacity="0.85"/>
<rect x="1026.00" y="174.84" width="65.06" height="455.16" fill="#F28E2B" opacity="0.85"/>
<polyline fill="none" stroke="#E15759" stroke-width="3" points="194.00,398.56 402.00,441.25 610.00,431.37 818.00,443.21 1026.00,475.58"/>
<circle cx="194.00" cy="398.56" r="4" fill="#E15759"/>
<circle cx="402.00" cy="441.25" r="4" fill="#E15759"/>
<circle cx="610.00" cy="431.37" r="4" fill="#E15759"/>
<circle cx="818.00" cy="443.21" r="4" fill="#E15759"/>
<circle cx="1026.00" cy="475.58" r="4" fill="#E15759"/>
<polyline fill="none" stroke="#76B7B2" stroke-width="3" points="194.00,619.68 402.00,615.24 610.00,620.50 818.00,619.36 1026.00,620.56"/>
<circle cx="194.00" cy="619.68" r="4" fill="#76B7B2"/>
<circle cx="402.00" cy="615.24" r="4" fill="#76B7B2"/>
<circle cx="610.00" cy="620.50" r="4" fill="#76B7B2"/>
<circle cx="818.00" cy="619.36" r="4" fill="#76B7B2"/>
<circle cx="1026.00" cy="620.56" r="4" fill="#76B7B2"/>
<polyline fill="none" stroke="#59A14F" stroke-width="3" points="194.00,619.87 402.00,615.56 610.00,620.75 818.00,619.74 1026.00,620.75"/>
<circle cx="194.00" cy="619.87" r="4" fill="#59A14F"/>
<circle cx="402.00" cy="615.56" r="4" fill="#59A14F"/>
<circle cx="610.00" cy="620.75" r="4" fill="#59A14F"/>
<circle cx="818.00" cy="619.74" r="4" fill="#59A14F"/>
<circle cx="1026.00" cy="620.75" r="4" fill="#59A14F"/>
</svg>