<svg xmlns="http://www.w3.org/2000/svg" width="1200" height="720" viewBox="0 0 1200 720">
<rect x="0" y="0" width="100%" height="100%" fill="#ffffff"/>
<text x="40" y="42" font-size="26" font-family="Arial, PingFang SC, Microsoft YaHei, sans-serif" fill="#222">分产品收入变化图</text>
<rect x="40" y="60" width="22" height="10" fill="#4E79A7"/>
<text x="68" y="70" font-size="16" font-family="Arial, PingFang SC, Microsoft YaHei, sans-serif" fill="#333">医疗服务</text>
<rect x="210" y="60" width="22" height="10" fill="#F28E2B"/>
<text x="238" y="70" font-size="16" font-family="Arial, PingFang SC, Microsoft YaHei, sans-serif" fill="#333">医疗服务(行业)</text>
<rect x="380" y="60" width="22" height="10" fill="#E15759"/>
<text x="408" y="70" font-size="16" font-family="Arial, PingFang SC, Microsoft YaHei, sans-serif" fill="#333">浙江</text>
<rect x="550" y="60" width="22" height="10" fill="#76B7B2"/>
<text x="578" y="70" font-size="16" font-family="Arial, PingFang SC, Microsoft YaHei, sans-serif" fill="#333">浙江省外</text>
<rect x="720" y="60" width="22" height="10" fill="#59A14F"/>
<text x="748" y="70" font-size="16" font-family="Arial, PingFang SC, Microsoft YaHei, sans-serif" fill="#333">产品销售</text>
<line x1="90" y1="130" x2="90" y2="630" stroke="#555" stroke-width="1"/>
<line x1="90" y1="630.0" x2="1130" y2="630.0" stroke="#555" stroke-width="1"/>
<line x1="90" y1="630.0" x2="1130" y2="630.0" stroke="#eee" stroke-width="1"/>
<text x="78" y="635.0" text-anchor="end" font-size="14" font-family="Arial, PingFang SC, Microsoft YaHei, sans-serif" fill="#666">0.00</text>
<line x1="90" y1="530.0" x2="1130" y2="530.0" stroke="#eee" stroke-width="1"/>
<text x="78" y="535.0" text-anchor="end" font-size="14" font-family="Arial, PingFang SC, Microsoft YaHei, sans-serif" fill="#666">8.22</text>
<line x1="90" y1="430.00000000000006" x2="1130" y2="430.00000000000006" stroke="#eee" stroke-width="1"/>
<text x="78" y="435.00000000000006" text-anchor="end" font-size="14" font-family="Arial, PingFang SC, Microsoft YaHei, sans-serif" fill="#666">16.44</text>
<line x1="90" y1="330.0" x2="1130" y2="330.0" stroke="#eee" stroke-width="1"/>
<text x="78" y="335.0" text-anchor="end" font-size="14" font-family="Arial, PingFang SC, Microsoft YaHei, sans-serif" fill="#666">24.65</text>
<line x1="90" y1="230.00000000000003" x2="1130" y2="230.00000000000003" stroke="#eee" stroke-width="1"/>
<text x="78" y="235.00000000000003" text-anchor="end" font-size="14" font-family="Arial, PingFang SC, Microsoft YaHei, sans-serif" fill="#666">32.87</text>
<line x1="90" y1="130.0" x2="1130" y2="130.0" stroke="#eee" stroke-width="1"/>
<text x="78" y="135.0" text-anchor="end" font-size="14" font-family="Arial, PingFang SC, Microsoft YaHei, sans-serif" fill="#666">41.09</text>
<text x="194.0" y="658" text-anchor="middle" font-size="14" font-family="Arial, PingFang SC, Microsoft YaHei, sans-serif" fill="#666">2021</text>
<text x="402.0" y="658" text-anchor="middle" font-size="14" font-family="Arial, PingFang SC, Microsoft YaHei, sans-serif" fill="#666">2022</text>
<text x="610.0" y="658" text-anchor="middle" font-size="14" font-family="Arial, PingFang SC, Microsoft YaHei, sans-serif" fill="#666">2023</text>
<text x="818.0" y="658" text-anchor="middle" font-size="14" font-family="Arial, PingFang SC, Microsoft YaHei, sans-serif" fill="#666">2024</text>
<text x="1026.0" y="658" text-anchor="middle" font-size="14" font-family="Arial, PingFang SC, Microsoft YaHei, sans-serif" fill="#666">2025</text>
<rect x="123.28" y="154.95" width="26.02" height="475.05" fill="#4E79A7" opacity="0.85"/>
<rect x="331.28" y="316.91" width="26.02" height="313.09" fill="#4E79A7" opacity="0.85"/>
<rect x="539.28" y="147.89" width="26.02" height="482.11" fill="#4E79A7" opacity="0.85"/>
<rect x="747.28" y="137.67" width="26.02" height="492.33" fill="#4E79A7" opacity="0.85"/>
<rect x="955.28" y="130.00" width="26.02" height="500.00" fill="#4E79A7" opacity="0.85"/>
<rect x="151.57" y="157.50" width="26.02" height="472.50" fill="#F28E2B" opacity="0.85"/>
<rect x="359.57" y="165.29" width="26.02" height="464.71" fill="#F28E2B" opacity="0.85"/>
<rect x="567.57" y="147.16" width="26.02" height="482.84" fill="#F28E2B" opacity="0.85"/>
<rect x="775.57" y="137.67" width="26.02" height="492.33" fill="#F28E2B" opacity="0.85"/>
<rect x="983.57" y="130.00" width="26.02" height="500.00" fill="#F28E2B" opacity="0.85"/>
<rect x="179.86" y="182.93" width="26.02" height="447.07" fill="#E15759" opacity="0.85"/>
<rect x="387.86" y="181.72" width="26.02" height="448.28" fill="#E15759" opacity="0.85"/>
<rect x="595.86" y="163.71" width="26.02" height="466.29" fill="#E15759" opacity="0.85"/>
<rect x="803.86" y="157.87" width="26.02" height="472.13" fill="#E15759" opacity="0.85"/>
<rect x="1011.86" y="145.45" width="26.02" height="484.55" fill="#E15759" opacity="0.85"/>
<rect x="208.14" y="581.57" width="26.02" height="48.43" fill="#76B7B2" opacity="0.85"/>
<rect x="416.14" y="590.33" width="26.02" height="39.67" fill="#76B7B2" opacity="0.85"/>
<rect x="624.14" y="584.98" width="26.02" height="45.02" fill="#76B7B2" opacity="0.85"/>
<rect x="832.14" y="580.84" width="26.02" height="49.16" fill="#76B7B2" opacity="0.85"/>
<rect x="1040.14" y="583.88" width="26.02" height="46.12" fill="#76B7B2" opacity="0.85"/>
<rect x="236.43" y="600.67" width="26.02" height="29.33" fill="#59A14F" opacity="0.85"/>
<rect x="444.43" y="615.88" width="26.02" height="14.12" fill="#59A14F" opacity="0.85"/>
<rect x="652.43" y="605.91" width="26.02" height="24.09" fill="#59A14F" opacity="0.85"/>
<rect x="860.43" y="612.48" width="26.02" height="17.52" fill="#59A14F" opacity="0.85"/>
<rect x="1068.43" y="612.36" width="26.02" height="17.64" fill="#59A14F" opacity="0.85"/>
</svg>