<svg xmlns="http://www.w3.org/2000/svg" width="1200" height="720" viewBox="0 0 1200 720">
<rect x="0" y="0" width="100%" height="100%" fill="#ffffff"/>
<text x="40" y="42" font-size="26" font-family="Arial, PingFang SC, Microsoft YaHei, sans-serif" fill="#222">分产品利润结构图</text>
<rect x="40" y="60" width="22" height="10" fill="#4E79A7"/>
<text x="68" y="70" font-size="16" font-family="Arial, PingFang SC, Microsoft YaHei, sans-serif" fill="#333">利润</text>
<rect x="210" y="60" width="22" height="10" fill="#F28E2B"/>
<text x="238" y="70" font-size="16" font-family="Arial, PingFang SC, Microsoft YaHei, sans-serif" fill="#333">毛利率</text>
<line x1="90" y1="130" x2="90" y2="630" stroke="#555" stroke-width="1"/>
<line x1="90" y1="630.0" x2="1130" y2="630.0" stroke="#555" stroke-width="1"/>
<line x1="90" y1="630.0" x2="1130" y2="630.0" stroke="#eee" stroke-width="1"/>
<text x="78" y="635.0" text-anchor="end" font-size="14" font-family="Arial, PingFang SC, Microsoft YaHei, sans-serif" fill="#666">0.00</text>
<line x1="90" y1="530.0" x2="1130" y2="530.0" stroke="#eee" stroke-width="1"/>
<text x="78" y="535.0" text-anchor="end" font-size="14" font-family="Arial, PingFang SC, Microsoft YaHei, sans-serif" fill="#666">4.66</text>
<line x1="90" y1="430.0" x2="1130" y2="430.0" stroke="#eee" stroke-width="1"/>
<text x="78" y="435.0" text-anchor="end" font-size="14" font-family="Arial, PingFang SC, Microsoft YaHei, sans-serif" fill="#666">9.31</text>
<line x1="90" y1="330.0" x2="1130" y2="330.0" stroke="#eee" stroke-width="1"/>
<text x="78" y="335.0" text-anchor="end" font-size="14" font-family="Arial, PingFang SC, Microsoft YaHei, sans-serif" fill="#666">13.97</text>
<line x1="90" y1="229.99999999999994" x2="1130" y2="229.99999999999994" stroke="#eee" stroke-width="1"/>
<text x="78" y="234.99999999999994" text-anchor="end" font-size="14" font-family="Arial, PingFang SC, Microsoft YaHei, sans-serif" fill="#666">18.62</text>
<line x1="90" y1="130.0" x2="1130" y2="130.0" stroke="#eee" stroke-width="1"/>
<text x="78" y="135.0" text-anchor="end" font-size="14" font-family="Arial, PingFang SC, Microsoft YaHei, sans-serif" fill="#666">23.28</text>
<text x="155.0" y="658" text-anchor="middle" font-size="14" font-family="Arial, PingFang SC, Microsoft YaHei, sans-serif" fill="#666">光伏行业</text>
<text x="285.0" y="658" text-anchor="middle" font-size="14" font-family="Arial, PingFang SC, Microsoft YaHei, sans-serif" fill="#666">光伏逆变器</text>
<text x="415.0" y="658" text-anchor="middle" font-size="14" font-family="Arial, PingFang SC, Microsoft YaHei, sans-serif" fill="#666">储能(行业)</text>
<text x="545.0" y="658" text-anchor="middle" font-size="14" font-family="Arial, PingFang SC, Microsoft YaHei, sans-serif" fill="#666">储能双向变流器及储能系统集成产品</text>
<text x="675.0" y="658" text-anchor="middle" font-size="14" font-family="Arial, PingFang SC, Microsoft YaHei, sans-serif" fill="#666">备件及技术服务</text>
<text x="805.0" y="658" text-anchor="middle" font-size="14" font-family="Arial, PingFang SC, Microsoft YaHei, sans-serif" fill="#666">备件及技术服务(行业)</text>
<text x="935.0" y="658" text-anchor="middle" font-size="14" font-family="Arial, PingFang SC, Microsoft YaHei, sans-serif" fill="#666">电能质量治理产品</text>
<text x="1065.0" y="658" text-anchor="middle" font-size="14" font-family="Arial, PingFang SC, Microsoft YaHei, sans-serif" fill="#666">电能质量治理行业</text>
<rect x="110.80" y="459.90" width="81.33" height="170.10" fill="#4E79A7" opacity="0.85"/>
<rect x="240.80" y="459.90" width="81.33" height="170.10" fill="#4E79A7" opacity="0.85"/>
<rect x="370.80" y="528.20" width="81.33" height="101.80" fill="#4E79A7" opacity="0.85"/>
<rect x="500.80" y="528.20" width="81.33" height="101.80" fill="#4E79A7" opacity="0.85"/>
<rect x="630.80" y="630.00" width="81.33" height="0.00" fill="#4E79A7" opacity="0.85"/>
<rect x="760.80" y="630.00" width="81.33" height="0.00" fill="#4E79A7" opacity="0.85"/>
<rect x="890.80" y="630.00" width="81.33" height="0.00" fill="#4E79A7" opacity="0.85"/>
<rect x="1020.80" y="630.00" width="81.33" height="0.00" fill="#4E79A7" opacity="0.85"/>
<polyline fill="none" stroke="#F28E2B" stroke-width="3" points="155.00,140.31 285.00,140.31 415.00,130.00 545.00,130.00 675.00,630.00 805.00,630.00 935.00,630.00 1065.00,630.00"/>
<circle cx="155.00" cy="140.31" r="4" fill="#F28E2B"/>
<circle cx="285.00" cy="140.31" r="4" fill="#F28E2B"/>
<circle cx="415.00" cy="130.00" r="4" fill="#F28E2B"/>
<circle cx="545.00" cy="130.00" r="4" fill="#F28E2B"/>
<circle cx="675.00" cy="630.00" r="4" fill="#F28E2B"/>
<circle cx="805.00" cy="630.00" r="4" fill="#F28E2B"/>
<circle cx="935.00" cy="630.00" r="4" fill="#F28E2B"/>
<circle cx="1065.00" cy="630.00" r="4" fill="#F28E2B"/>
</svg>