<svg xmlns="http://www.w3.org/2000/svg" width="1200" height="720" viewBox="0 0 1200 720">
<rect x="0" y="0" width="100%" height="100%" fill="#ffffff"/>
<text x="40" y="42" font-size="26" font-family="Arial, PingFang SC, Microsoft YaHei, sans-serif" fill="#222">分产品收入变化图</text>
<rect x="40" y="60" width="22" height="10" fill="#4E79A7"/>
<text x="68" y="70" font-size="16" font-family="Arial, PingFang SC, Microsoft YaHei, sans-serif" fill="#333">光伏行业</text>
<rect x="210" y="60" width="22" height="10" fill="#F28E2B"/>
<text x="238" y="70" font-size="16" font-family="Arial, PingFang SC, Microsoft YaHei, sans-serif" fill="#333">光伏逆变器</text>
<rect x="380" y="60" width="22" height="10" fill="#E15759"/>
<text x="408" y="70" font-size="16" font-family="Arial, PingFang SC, Microsoft YaHei, sans-serif" fill="#333">储能(行业)</text>
<rect x="550" y="60" width="22" height="10" fill="#76B7B2"/>
<text x="578" y="70" font-size="16" font-family="Arial, PingFang SC, Microsoft YaHei, sans-serif" fill="#333">储能双向变流器及储能系统集成产品</text>
<rect x="720" y="60" width="22" height="10" fill="#59A14F"/>
<text x="748" y="70" font-size="16" font-family="Arial, PingFang SC, Microsoft YaHei, sans-serif" fill="#333">备件及技术服务</text>
<line x1="90" y1="130" x2="90" y2="630" stroke="#555" stroke-width="1"/>
<line x1="90" y1="630.0" x2="1130" y2="630.0" stroke="#555" stroke-width="1"/>
<line x1="90" y1="630.0" x2="1130" y2="630.0" stroke="#eee" stroke-width="1"/>
<text x="78" y="635.0" text-anchor="end" font-size="14" font-family="Arial, PingFang SC, Microsoft YaHei, sans-serif" fill="#666">0.00</text>
<line x1="90" y1="530.0" x2="1130" y2="530.0" stroke="#eee" stroke-width="1"/>
<text x="78" y="535.0" text-anchor="end" font-size="14" font-family="Arial, PingFang SC, Microsoft YaHei, sans-serif" fill="#666">10.10</text>
<line x1="90" y1="430.0" x2="1130" y2="430.0" stroke="#eee" stroke-width="1"/>
<text x="78" y="435.0" text-anchor="end" font-size="14" font-family="Arial, PingFang SC, Microsoft YaHei, sans-serif" fill="#666">20.21</text>
<line x1="90" y1="330.0" x2="1130" y2="330.0" stroke="#eee" stroke-width="1"/>
<text x="78" y="335.0" text-anchor="end" font-size="14" font-family="Arial, PingFang SC, Microsoft YaHei, sans-serif" fill="#666">30.31</text>
<line x1="90" y1="230.0" x2="1130" y2="230.0" stroke="#eee" stroke-width="1"/>
<text x="78" y="235.0" text-anchor="end" font-size="14" font-family="Arial, PingFang SC, Microsoft YaHei, sans-serif" fill="#666">40.42</text>
<line x1="90" y1="130.0" x2="1130" y2="130.0" stroke="#eee" stroke-width="1"/>
<text x="78" y="135.0" text-anchor="end" font-size="14" font-family="Arial, PingFang SC, Microsoft YaHei, sans-serif" fill="#666">50.52</text>
<text x="194.0" y="658" text-anchor="middle" font-size="14" font-family="Arial, PingFang SC, Microsoft YaHei, sans-serif" fill="#666">2021</text>
<text x="402.0" y="658" text-anchor="middle" font-size="14" font-family="Arial, PingFang SC, Microsoft YaHei, sans-serif" fill="#666">2022</text>
<text x="610.0" y="658" text-anchor="middle" font-size="14" font-family="Arial, PingFang SC, Microsoft YaHei, sans-serif" fill="#666">2023</text>
<text x="818.0" y="658" text-anchor="middle" font-size="14" font-family="Arial, PingFang SC, Microsoft YaHei, sans-serif" fill="#666">2024</text>
<text x="1026.0" y="658" text-anchor="middle" font-size="14" font-family="Arial, PingFang SC, Microsoft YaHei, sans-serif" fill="#666">2025</text>
<rect x="123.28" y="508.46" width="26.02" height="121.54" fill="#4E79A7" opacity="0.85"/>
<rect x="331.28" y="474.52" width="26.02" height="155.48" fill="#4E79A7" opacity="0.85"/>
<rect x="539.28" y="216.20" width="26.02" height="413.80" fill="#4E79A7" opacity="0.85"/>
<rect x="747.28" y="220.86" width="26.02" height="409.14" fill="#4E79A7" opacity="0.85"/>
<rect x="955.28" y="130.00" width="26.02" height="500.00" fill="#4E79A7" opacity="0.85"/>
<rect x="151.57" y="508.46" width="26.02" height="121.54" fill="#F28E2B" opacity="0.85"/>
<rect x="359.57" y="474.52" width="26.02" height="155.48" fill="#F28E2B" opacity="0.85"/>
<rect x="567.57" y="216.20" width="26.02" height="413.80" fill="#F28E2B" opacity="0.85"/>
<rect x="775.57" y="220.86" width="26.02" height="409.14" fill="#F28E2B" opacity="0.85"/>
<rect x="983.57" y="130.00" width="26.02" height="500.00" fill="#F28E2B" opacity="0.85"/>
<rect x="179.86" y="612.98" width="26.02" height="17.02" fill="#E15759" opacity="0.85"/>
<rect x="387.86" y="525.09" width="26.02" height="104.91" fill="#E15759" opacity="0.85"/>
<rect x="595.86" y="358.42" width="26.02" height="271.58" fill="#E15759" opacity="0.85"/>
<rect x="803.86" y="388.91" width="26.02" height="241.09" fill="#E15759" opacity="0.85"/>
<rect x="1011.86" y="372.97" width="26.02" height="257.03" fill="#E15759" opacity="0.85"/>
<rect x="208.14" y="612.98" width="26.02" height="17.02" fill="#76B7B2" opacity="0.85"/>
<rect x="416.14" y="525.09" width="26.02" height="104.91" fill="#76B7B2" opacity="0.85"/>
<rect x="624.14" y="358.42" width="26.02" height="271.58" fill="#76B7B2" opacity="0.85"/>
<rect x="832.14" y="388.91" width="26.02" height="241.09" fill="#76B7B2" opacity="0.85"/>
<rect x="1040.14" y="372.97" width="26.02" height="257.03" fill="#76B7B2" opacity="0.85"/>
<rect x="236.43" y="626.73" width="26.02" height="3.27" fill="#59A14F" opacity="0.85"/>
<rect x="444.43" y="626.34" width="26.02" height="3.66" fill="#59A14F" opacity="0.85"/>
<rect x="652.43" y="625.55" width="26.02" height="4.45" fill="#59A14F" opacity="0.85"/>
<rect x="860.43" y="624.75" width="26.02" height="5.25" fill="#59A14F" opacity="0.85"/>
<rect x="1068.43" y="622.28" width="26.02" height="7.72" fill="#59A14F" opacity="0.85"/>
</svg>