<svg xmlns="http://www.w3.org/2000/svg" width="1200" height="720" viewBox="0 0 1200 720">
<rect x="0" y="0" width="100%" height="100%" fill="#ffffff"/>
<text x="40" y="42" font-size="26" font-family="Arial, PingFang SC, Microsoft YaHei, sans-serif" fill="#222">财务比率分析图</text>
<rect x="40" y="60" width="22" height="10" fill="#4E79A7"/>
<text x="68" y="70" font-size="16" font-family="Arial, PingFang SC, Microsoft YaHei, sans-serif" fill="#333">资产负债率</text>
<rect x="210" y="60" width="22" height="10" fill="#F28E2B"/>
<text x="238" y="70" font-size="16" font-family="Arial, PingFang SC, Microsoft YaHei, sans-serif" fill="#333">流动比率</text>
<rect x="380" y="60" width="22" height="10" fill="#E15759"/>
<text x="408" y="70" font-size="16" font-family="Arial, PingFang SC, Microsoft YaHei, sans-serif" fill="#333">速动比率</text>
<rect x="550" y="60" width="22" height="10" fill="#76B7B2"/>
<text x="578" y="70" font-size="16" font-family="Arial, PingFang SC, Microsoft YaHei, sans-serif" fill="#333">应收周转率</text>
<rect x="720" y="60" width="22" height="10" fill="#59A14F"/>
<text x="748" y="70" font-size="16" font-family="Arial, PingFang SC, Microsoft YaHei, sans-serif" fill="#333">存货周转率</text>
<line x1="90" y1="130" x2="90" y2="630" stroke="#555" stroke-width="1"/>
<line x1="90" y1="630.0" x2="1130" y2="630.0" stroke="#555" stroke-width="1"/>
<line x1="90" y1="630.0" x2="1130" y2="630.0" stroke="#eee" stroke-width="1"/>
<text x="78" y="635.0" text-anchor="end" font-size="14" font-family="Arial, PingFang SC, Microsoft YaHei, sans-serif" fill="#666">0.00</text>
<line x1="90" y1="530.0" x2="1130" y2="530.0" stroke="#eee" stroke-width="1"/>
<text x="78" y="535.0" text-anchor="end" font-size="14" font-family="Arial, PingFang SC, Microsoft YaHei, sans-serif" fill="#666">12.57</text>
<line x1="90" y1="430.0" x2="1130" y2="430.0" stroke="#eee" stroke-width="1"/>
<text x="78" y="435.0" text-anchor="end" font-size="14" font-family="Arial, PingFang SC, Microsoft YaHei, sans-serif" fill="#666">25.14</text>
<line x1="90" y1="330.0" x2="1130" y2="330.0" stroke="#eee" stroke-width="1"/>
<text x="78" y="335.0" text-anchor="end" font-size="14" font-family="Arial, PingFang SC, Microsoft YaHei, sans-serif" fill="#666">37.70</text>
<line x1="90" y1="229.99999999999997" x2="1130" y2="229.99999999999997" stroke="#eee" stroke-width="1"/>
<text x="78" y="234.99999999999997" text-anchor="end" font-size="14" font-family="Arial, PingFang SC, Microsoft YaHei, sans-serif" fill="#666">50.27</text>
<line x1="90" y1="129.99999999999994" x2="1130" y2="129.99999999999994" stroke="#eee" stroke-width="1"/>
<text x="78" y="134.99999999999994" text-anchor="end" font-size="14" font-family="Arial, PingFang SC, Microsoft YaHei, sans-serif" fill="#666">62.84</text>
<text x="194.0" y="658" text-anchor="middle" font-size="14" font-family="Arial, PingFang SC, Microsoft YaHei, sans-serif" fill="#666">2021</text>
<text x="402.0" y="658" text-anchor="middle" font-size="14" font-family="Arial, PingFang SC, Microsoft YaHei, sans-serif" fill="#666">2022</text>
<text x="610.0" y="658" text-anchor="middle" font-size="14" font-family="Arial, PingFang SC, Microsoft YaHei, sans-serif" fill="#666">2023</text>
<text x="818.0" y="658" text-anchor="middle" font-size="14" font-family="Arial, PingFang SC, Microsoft YaHei, sans-serif" fill="#666">2024</text>
<text x="1026.0" y="658" text-anchor="middle" font-size="14" font-family="Arial, PingFang SC, Microsoft YaHei, sans-serif" fill="#666">2025</text>
<rect x="123.28" y="599.53" width="65.06" height="30.47" fill="#4E79A7" opacity="0.85"/>
<rect x="331.28" y="605.73" width="65.06" height="24.27" fill="#4E79A7" opacity="0.85"/>
<rect x="539.28" y="609.31" width="65.06" height="20.69" fill="#4E79A7" opacity="0.85"/>
<rect x="747.28" y="608.20" width="65.06" height="21.80" fill="#4E79A7" opacity="0.85"/>
<rect x="955.28" y="605.57" width="65.06" height="24.43" fill="#4E79A7" opacity="0.85"/>
<rect x="194.00" y="609.55" width="65.06" height="20.45" fill="#F28E2B" opacity="0.85"/>
<rect x="402.00" y="610.43" width="65.06" height="19.57" fill="#F28E2B" opacity="0.85"/>
<rect x="610.00" y="609.63" width="65.06" height="20.37" fill="#F28E2B" opacity="0.85"/>
<rect x="818.00" y="609.47" width="65.06" height="20.53" fill="#F28E2B" opacity="0.85"/>
<rect x="1026.00" y="609.23" width="65.06" height="20.77" fill="#F28E2B" opacity="0.85"/>
<polyline fill="none" stroke="#E15759" stroke-width="3" points="194.00,305.45 402.00,130.00 610.00,269.32 818.00,321.20 1026.00,292.87"/>
<circle cx="194.00" cy="305.45" r="4" fill="#E15759"/>
<circle cx="402.00" cy="130.00" r="4" fill="#E15759"/>
<circle cx="610.00" cy="269.32" r="4" fill="#E15759"/>
<circle cx="818.00" cy="321.20" r="4" fill="#E15759"/>
<circle cx="1026.00" cy="292.87" r="4" fill="#E15759"/>
<polyline fill="none" stroke="#76B7B2" stroke-width="3" points="194.00,610.82 402.00,621.57 610.00,612.10 818.00,617.67 1026.00,619.10"/>
<circle cx="194.00" cy="610.82" r="4" fill="#76B7B2"/>
<circle cx="402.00" cy="621.57" r="4" fill="#76B7B2"/>
<circle cx="610.00" cy="612.10" r="4" fill="#76B7B2"/>
<circle cx="818.00" cy="617.67" r="4" fill="#76B7B2"/>
<circle cx="1026.00" cy="619.10" r="4" fill="#76B7B2"/>
<polyline fill="none" stroke="#59A14F" stroke-width="3" points="194.00,617.43 402.00,624.35 610.00,615.04 818.00,621.49 1026.00,622.60"/>
<circle cx="194.00" cy="617.43" r="4" fill="#59A14F"/>
<circle cx="402.00" cy="624.35" r="4" fill="#59A14F"/>
<circle cx="610.00" cy="615.04" r="4" fill="#59A14F"/>
<circle cx="818.00" cy="621.49" r="4" fill="#59A14F"/>
<circle cx="1026.00" cy="622.60" r="4" fill="#59A14F"/>
</svg>