<svg xmlns="http://www.w3.org/2000/svg" width="1200" height="720" viewBox="0 0 1200 720">
<rect x="0" y="0" width="100%" height="100%" fill="#ffffff"/>
<text x="40" y="42" font-size="26" font-family="Arial, PingFang SC, Microsoft YaHei, sans-serif" fill="#222">分产品利润结构图</text>
<rect x="40" y="60" width="22" height="10" fill="#4E79A7"/>
<text x="68" y="70" font-size="16" font-family="Arial, PingFang SC, Microsoft YaHei, sans-serif" fill="#333">利润</text>
<rect x="210" y="60" width="22" height="10" fill="#F28E2B"/>
<text x="238" y="70" font-size="16" font-family="Arial, PingFang SC, Microsoft YaHei, sans-serif" fill="#333">毛利率</text>
<line x1="90" y1="130" x2="90" y2="630" stroke="#555" stroke-width="1"/>
<line x1="90" y1="630.0" x2="1130" y2="630.0" stroke="#555" stroke-width="1"/>
<line x1="90" y1="630.0" x2="1130" y2="630.0" stroke="#eee" stroke-width="1"/>
<text x="78" y="635.0" text-anchor="end" font-size="14" font-family="Arial, PingFang SC, Microsoft YaHei, sans-serif" fill="#666">0.00</text>
<line x1="90" y1="530.0" x2="1130" y2="530.0" stroke="#eee" stroke-width="1"/>
<text x="78" y="535.0" text-anchor="end" font-size="14" font-family="Arial, PingFang SC, Microsoft YaHei, sans-serif" fill="#666">17.53</text>
<line x1="90" y1="430.0" x2="1130" y2="430.0" stroke="#eee" stroke-width="1"/>
<text x="78" y="435.0" text-anchor="end" font-size="14" font-family="Arial, PingFang SC, Microsoft YaHei, sans-serif" fill="#666">35.06</text>
<line x1="90" y1="329.99999999999994" x2="1130" y2="329.99999999999994" stroke="#eee" stroke-width="1"/>
<text x="78" y="334.99999999999994" text-anchor="end" font-size="14" font-family="Arial, PingFang SC, Microsoft YaHei, sans-serif" fill="#666">52.60</text>
<line x1="90" y1="229.99999999999997" x2="1130" y2="229.99999999999997" stroke="#eee" stroke-width="1"/>
<text x="78" y="234.99999999999997" text-anchor="end" font-size="14" font-family="Arial, PingFang SC, Microsoft YaHei, sans-serif" fill="#666">70.13</text>
<line x1="90" y1="130.0" x2="1130" y2="130.0" stroke="#eee" stroke-width="1"/>
<text x="78" y="135.0" text-anchor="end" font-size="14" font-family="Arial, PingFang SC, Microsoft YaHei, sans-serif" fill="#666">87.66</text>
<text x="176.66666666666669" y="658" text-anchor="middle" font-size="14" font-family="Arial, PingFang SC, Microsoft YaHei, sans-serif" fill="#666">敏感元件及传感器制造</text>
<text x="350.0" y="658" text-anchor="middle" font-size="14" font-family="Arial, PingFang SC, Microsoft YaHei, sans-serif" fill="#666">压力传感器</text>
<text x="523.3333333333334" y="658" text-anchor="middle" font-size="14" font-family="Arial, PingFang SC, Microsoft YaHei, sans-serif" fill="#666">热敏电阻及温度传感器</text>
<text x="696.6666666666667" y="658" text-anchor="middle" font-size="14" font-family="Arial, PingFang SC, Microsoft YaHei, sans-serif" fill="#666">国外</text>
<text x="870.0" y="658" text-anchor="middle" font-size="14" font-family="Arial, PingFang SC, Microsoft YaHei, sans-serif" fill="#666">氧传感器及其他</text>
<text x="1043.3333333333335" y="658" text-anchor="middle" font-size="14" font-family="Arial, PingFang SC, Microsoft YaHei, sans-serif" fill="#666">其他业务(行业)</text>
<rect x="117.73" y="610.44" width="108.44" height="19.56" fill="#4E79A7" opacity="0.85"/>
<rect x="291.07" y="618.76" width="108.44" height="11.24" fill="#4E79A7" opacity="0.85"/>
<rect x="464.40" y="621.79" width="108.44" height="8.21" fill="#4E79A7" opacity="0.85"/>
<rect x="637.73" y="625.55" width="108.44" height="4.45" fill="#4E79A7" opacity="0.85"/>
<rect x="811.07" y="629.83" width="108.44" height="0.17" fill="#4E79A7" opacity="0.85"/>
<rect x="984.40" y="629.94" width="108.44" height="0.06" fill="#4E79A7" opacity="0.85"/>
<polyline fill="none" stroke="#F28E2B" stroke-width="3" points="176.67,464.47 350.00,463.16 523.33,462.14 696.67,368.76 870.00,550.66 1043.33,130.00"/>
<circle cx="176.67" cy="464.47" r="4" fill="#F28E2B"/>
<circle cx="350.00" cy="463.16" r="4" fill="#F28E2B"/>
<circle cx="523.33" cy="462.14" r="4" fill="#F28E2B"/>
<circle cx="696.67" cy="368.76" r="4" fill="#F28E2B"/>
<circle cx="870.00" cy="550.66" r="4" fill="#F28E2B"/>
<circle cx="1043.33" cy="130.00" r="4" fill="#F28E2B"/>
</svg>