<svg xmlns="http://www.w3.org/2000/svg" width="1200" height="720" viewBox="0 0 1200 720">
<rect x="0" y="0" width="100%" height="100%" fill="#ffffff"/>
<text x="40" y="42" font-size="26" font-family="Arial, PingFang SC, Microsoft YaHei, sans-serif" fill="#222">分产品收入变化图</text>
<rect x="40" y="60" width="22" height="10" fill="#4E79A7"/>
<text x="68" y="70" font-size="16" font-family="Arial, PingFang SC, Microsoft YaHei, sans-serif" fill="#333">化工行业</text>
<rect x="210" y="60" width="22" height="10" fill="#F28E2B"/>
<text x="238" y="70" font-size="16" font-family="Arial, PingFang SC, Microsoft YaHei, sans-serif" fill="#333">国外</text>
<rect x="380" y="60" width="22" height="10" fill="#E15759"/>
<text x="408" y="70" font-size="16" font-family="Arial, PingFang SC, Microsoft YaHei, sans-serif" fill="#333">石化系列</text>
<rect x="550" y="60" width="22" height="10" fill="#76B7B2"/>
<text x="578" y="70" font-size="16" font-family="Arial, PingFang SC, Microsoft YaHei, sans-serif" fill="#333">聚氨酯系列</text>
<rect x="720" y="60" width="22" height="10" fill="#59A14F"/>
<text x="748" y="70" font-size="16" font-family="Arial, PingFang SC, Microsoft YaHei, sans-serif" fill="#333">精细化学品及新材料系列</text>
<line x1="90" y1="130" x2="90" y2="630" stroke="#555" stroke-width="1"/>
<line x1="90" y1="630.0" x2="1130" y2="630.0" stroke="#555" stroke-width="1"/>
<line x1="90" y1="630.0" x2="1130" y2="630.0" stroke="#eee" stroke-width="1"/>
<text x="78" y="635.0" text-anchor="end" font-size="14" font-family="Arial, PingFang SC, Microsoft YaHei, sans-serif" fill="#666">0.00</text>
<line x1="90" y1="530.0" x2="1130" y2="530.0" stroke="#eee" stroke-width="1"/>
<text x="78" y="535.0" text-anchor="end" font-size="14" font-family="Arial, PingFang SC, Microsoft YaHei, sans-serif" fill="#666">581.98</text>
<line x1="90" y1="430.0" x2="1130" y2="430.0" stroke="#eee" stroke-width="1"/>
<text x="78" y="435.0" text-anchor="end" font-size="14" font-family="Arial, PingFang SC, Microsoft YaHei, sans-serif" fill="#666">1163.96</text>
<line x1="90" y1="330.0" x2="1130" y2="330.0" stroke="#eee" stroke-width="1"/>
<text x="78" y="335.0" text-anchor="end" font-size="14" font-family="Arial, PingFang SC, Microsoft YaHei, sans-serif" fill="#666">1745.94</text>
<line x1="90" y1="230.0" x2="1130" y2="230.0" stroke="#eee" stroke-width="1"/>
<text x="78" y="235.0" text-anchor="end" font-size="14" font-family="Arial, PingFang SC, Microsoft YaHei, sans-serif" fill="#666">2327.92</text>
<line x1="90" y1="130.0" x2="1130" y2="130.0" stroke="#eee" stroke-width="1"/>
<text x="78" y="135.0" text-anchor="end" font-size="14" font-family="Arial, PingFang SC, Microsoft YaHei, sans-serif" fill="#666">2909.90</text>
<text x="194.0" y="658" text-anchor="middle" font-size="14" font-family="Arial, PingFang SC, Microsoft YaHei, sans-serif" fill="#666">2021</text>
<text x="402.0" y="658" text-anchor="middle" font-size="14" font-family="Arial, PingFang SC, Microsoft YaHei, sans-serif" fill="#666">2022</text>
<text x="610.0" y="658" text-anchor="middle" font-size="14" font-family="Arial, PingFang SC, Microsoft YaHei, sans-serif" fill="#666">2023</text>
<text x="818.0" y="658" text-anchor="middle" font-size="14" font-family="Arial, PingFang SC, Microsoft YaHei, sans-serif" fill="#666">2024</text>
<text x="1026.0" y="658" text-anchor="middle" font-size="14" font-family="Arial, PingFang SC, Microsoft YaHei, sans-serif" fill="#666">2025</text>
<rect x="123.28" y="267.98" width="26.02" height="362.02" fill="#4E79A7" opacity="0.85"/>
<rect x="331.28" y="198.05" width="26.02" height="431.95" fill="#4E79A7" opacity="0.85"/>
<rect x="539.28" y="186.96" width="26.02" height="443.04" fill="#4E79A7" opacity="0.85"/>
<rect x="747.28" y="158.08" width="26.02" height="471.92" fill="#4E79A7" opacity="0.85"/>
<rect x="955.28" y="130.00" width="26.02" height="500.00" fill="#4E79A7" opacity="0.85"/>
<rect x="151.57" y="449.75" width="26.02" height="180.25" fill="#F28E2B" opacity="0.85"/>
<rect x="359.57" y="410.98" width="26.02" height="219.02" fill="#F28E2B" opacity="0.85"/>
<rect x="567.57" y="419.95" width="26.02" height="210.05" fill="#F28E2B" opacity="0.85"/>
<rect x="775.57" y="422.23" width="26.02" height="207.77" fill="#F28E2B" opacity="0.85"/>
<rect x="983.57" y="391.93" width="26.02" height="238.07" fill="#F28E2B" opacity="0.85"/>
<rect x="179.86" y="404.64" width="26.02" height="225.36" fill="#E15759" opacity="0.85"/>
<rect x="387.86" y="442.97" width="26.02" height="187.03" fill="#E15759" opacity="0.85"/>
<rect x="595.86" y="448.79" width="26.02" height="181.21" fill="#E15759" opacity="0.85"/>
<rect x="803.86" y="437.39" width="26.02" height="192.61" fill="#E15759" opacity="0.85"/>
<rect x="1011.86" y="425.29" width="26.02" height="204.71" fill="#E15759" opacity="0.85"/>
<rect x="208.14" y="401.46" width="26.02" height="228.54" fill="#76B7B2" opacity="0.85"/>
<rect x="416.14" y="464.80" width="26.02" height="165.20" fill="#76B7B2" opacity="0.85"/>
<rect x="624.14" y="457.90" width="26.02" height="172.10" fill="#76B7B2" opacity="0.85"/>
<rect x="832.14" y="438.76" width="26.02" height="191.24" fill="#76B7B2" opacity="0.85"/>
<rect x="1040.14" y="437.65" width="26.02" height="192.35" fill="#76B7B2" opacity="0.85"/>
<rect x="236.43" y="573.54" width="26.02" height="56.46" fill="#59A14F" opacity="0.85"/>
<rect x="444.43" y="577.48" width="26.02" height="52.52" fill="#59A14F" opacity="0.85"/>
<rect x="652.43" y="569.69" width="26.02" height="60.31" fill="#59A14F" opacity="0.85"/>
<rect x="860.43" y="559.12" width="26.02" height="70.88" fill="#59A14F" opacity="0.85"/>
<rect x="1068.43" y="546.12" width="26.02" height="83.88" fill="#59A14F" opacity="0.85"/>
</svg>