<svg xmlns="http://www.w3.org/2000/svg" width="1200" height="720" viewBox="0 0 1200 720">
<rect x="0" y="0" width="100%" height="100%" fill="#ffffff"/>
<text x="40" y="42" font-size="26" font-family="Arial, PingFang SC, Microsoft YaHei, sans-serif" fill="#222">分产品收入变化图</text>
<rect x="40" y="60" width="22" height="10" fill="#4E79A7"/>
<text x="68" y="70" font-size="16" font-family="Arial, PingFang SC, Microsoft YaHei, sans-serif" fill="#333">医药制造</text>
<rect x="210" y="60" width="22" height="10" fill="#F28E2B"/>
<text x="238" y="70" font-size="16" font-family="Arial, PingFang SC, Microsoft YaHei, sans-serif" fill="#333">原料药及中间体产品</text>
<rect x="380" y="60" width="22" height="10" fill="#E15759"/>
<text x="408" y="70" font-size="16" font-family="Arial, PingFang SC, Microsoft YaHei, sans-serif" fill="#333">促性激素产品</text>
<rect x="550" y="60" width="22" height="10" fill="#76B7B2"/>
<text x="578" y="70" font-size="16" font-family="Arial, PingFang SC, Microsoft YaHei, sans-serif" fill="#333">消化道产品</text>
<rect x="720" y="60" width="22" height="10" fill="#59A14F"/>
<text x="748" y="70" font-size="16" font-family="Arial, PingFang SC, Microsoft YaHei, sans-serif" fill="#333">国外</text>
<line x1="90" y1="130" x2="90" y2="630" stroke="#555" stroke-width="1"/>
<line x1="90" y1="630.0" x2="1130" y2="630.0" stroke="#555" stroke-width="1"/>
<line x1="90" y1="630.0" x2="1130" y2="630.0" stroke="#eee" stroke-width="1"/>
<text x="78" y="635.0" text-anchor="end" font-size="14" font-family="Arial, PingFang SC, Microsoft YaHei, sans-serif" fill="#666">0.00</text>
<line x1="90" y1="530.0" x2="1130" y2="530.0" stroke="#eee" stroke-width="1"/>
<text x="78" y="535.0" text-anchor="end" font-size="14" font-family="Arial, PingFang SC, Microsoft YaHei, sans-serif" fill="#666">38.24</text>
<line x1="90" y1="430.0" x2="1130" y2="430.0" stroke="#eee" stroke-width="1"/>
<text x="78" y="435.0" text-anchor="end" font-size="14" font-family="Arial, PingFang SC, Microsoft YaHei, sans-serif" fill="#666">76.48</text>
<line x1="90" y1="330.0" x2="1130" y2="330.0" stroke="#eee" stroke-width="1"/>
<text x="78" y="335.0" text-anchor="end" font-size="14" font-family="Arial, PingFang SC, Microsoft YaHei, sans-serif" fill="#666">114.72</text>
<line x1="90" y1="230.00000000000003" x2="1130" y2="230.00000000000003" stroke="#eee" stroke-width="1"/>
<text x="78" y="235.00000000000003" text-anchor="end" font-size="14" font-family="Arial, PingFang SC, Microsoft YaHei, sans-serif" fill="#666">152.96</text>
<line x1="90" y1="130.0" x2="1130" y2="130.0" stroke="#eee" stroke-width="1"/>
<text x="78" y="135.0" text-anchor="end" font-size="14" font-family="Arial, PingFang SC, Microsoft YaHei, sans-serif" fill="#666">191.20</text>
<text x="194.0" y="658" text-anchor="middle" font-size="14" font-family="Arial, PingFang SC, Microsoft YaHei, sans-serif" fill="#666">2021</text>
<text x="402.0" y="658" text-anchor="middle" font-size="14" font-family="Arial, PingFang SC, Microsoft YaHei, sans-serif" fill="#666">2022</text>
<text x="610.0" y="658" text-anchor="middle" font-size="14" font-family="Arial, PingFang SC, Microsoft YaHei, sans-serif" fill="#666">2023</text>
<text x="818.0" y="658" text-anchor="middle" font-size="14" font-family="Arial, PingFang SC, Microsoft YaHei, sans-serif" fill="#666">2024</text>
<text x="1026.0" y="658" text-anchor="middle" font-size="14" font-family="Arial, PingFang SC, Microsoft YaHei, sans-serif" fill="#666">2025</text>
<rect x="123.28" y="156.10" width="26.02" height="473.90" fill="#4E79A7" opacity="0.85"/>
<rect x="331.28" y="139.34" width="26.02" height="490.66" fill="#4E79A7" opacity="0.85"/>
<rect x="539.28" y="130.00" width="26.02" height="500.00" fill="#4E79A7" opacity="0.85"/>
<rect x="747.28" y="156.80" width="26.02" height="473.20" fill="#4E79A7" opacity="0.85"/>
<rect x="955.28" y="151.65" width="26.02" height="478.35" fill="#4E79A7" opacity="0.85"/>
<rect x="151.57" y="515.70" width="26.02" height="114.30" fill="#F28E2B" opacity="0.85"/>
<rect x="359.57" y="502.70" width="26.02" height="127.30" fill="#F28E2B" opacity="0.85"/>
<rect x="567.57" y="498.33" width="26.02" height="131.67" fill="#F28E2B" opacity="0.85"/>
<rect x="775.57" y="498.83" width="26.02" height="131.17" fill="#F28E2B" opacity="0.85"/>
<rect x="983.57" y="505.03" width="26.02" height="124.97" fill="#F28E2B" opacity="0.85"/>
<rect x="179.86" y="532.93" width="26.02" height="97.07" fill="#E15759" opacity="0.85"/>
<rect x="387.86" y="527.10" width="26.02" height="102.90" fill="#E15759" opacity="0.85"/>
<rect x="595.86" y="521.66" width="26.02" height="108.34" fill="#E15759" opacity="0.85"/>
<rect x="803.86" y="515.96" width="26.02" height="114.04" fill="#E15759" opacity="0.85"/>
<rect x="1011.86" y="514.07" width="26.02" height="115.93" fill="#E15759" opacity="0.85"/>
<rect x="208.14" y="482.07" width="26.02" height="147.93" fill="#76B7B2" opacity="0.85"/>
<rect x="416.14" y="493.60" width="26.02" height="136.40" fill="#76B7B2" opacity="0.85"/>
<rect x="624.14" y="511.59" width="26.02" height="118.41" fill="#76B7B2" opacity="0.85"/>
<rect x="832.14" y="528.88" width="26.02" height="101.12" fill="#76B7B2" opacity="0.85"/>
<rect x="1040.14" y="528.77" width="26.02" height="101.23" fill="#76B7B2" opacity="0.85"/>
<rect x="236.43" y="569.20" width="26.02" height="60.80" fill="#59A14F" opacity="0.85"/>
<rect x="444.43" y="566.72" width="26.02" height="63.28" fill="#59A14F" opacity="0.85"/>
<rect x="652.43" y="566.61" width="26.02" height="63.39" fill="#59A14F" opacity="0.85"/>
<rect x="860.43" y="562.74" width="26.02" height="67.26" fill="#59A14F" opacity="0.85"/>
<rect x="1068.43" y="553.27" width="26.02" height="76.73" fill="#59A14F" opacity="0.85"/>
</svg>