<svg xmlns="http://www.w3.org/2000/svg" width="1200" height="720" viewBox="0 0 1200 720">
<rect x="0" y="0" width="100%" height="100%" fill="#ffffff"/>
<text x="40" y="42" font-size="26" font-family="Arial, PingFang SC, Microsoft YaHei, sans-serif" fill="#222">财务比率分析图</text>
<rect x="40" y="60" width="22" height="10" fill="#4E79A7"/>
<text x="68" y="70" font-size="16" font-family="Arial, PingFang SC, Microsoft YaHei, sans-serif" fill="#333">资产负债率</text>
<rect x="210" y="60" width="22" height="10" fill="#F28E2B"/>
<text x="238" y="70" font-size="16" font-family="Arial, PingFang SC, Microsoft YaHei, sans-serif" fill="#333">流动比率</text>
<rect x="380" y="60" width="22" height="10" fill="#E15759"/>
<text x="408" y="70" font-size="16" font-family="Arial, PingFang SC, Microsoft YaHei, sans-serif" fill="#333">速动比率</text>
<rect x="550" y="60" width="22" height="10" fill="#76B7B2"/>
<text x="578" y="70" font-size="16" font-family="Arial, PingFang SC, Microsoft YaHei, sans-serif" fill="#333">应收周转率</text>
<rect x="720" y="60" width="22" height="10" fill="#59A14F"/>
<text x="748" y="70" font-size="16" font-family="Arial, PingFang SC, Microsoft YaHei, sans-serif" fill="#333">存货周转率</text>
<line x1="90" y1="130" x2="90" y2="630" stroke="#555" stroke-width="1"/>
<line x1="90" y1="630.0" x2="1130" y2="630.0" stroke="#555" stroke-width="1"/>
<line x1="90" y1="630.0" x2="1130" y2="630.0" stroke="#eee" stroke-width="1"/>
<text x="78" y="635.0" text-anchor="end" font-size="14" font-family="Arial, PingFang SC, Microsoft YaHei, sans-serif" fill="#666">0.00</text>
<line x1="90" y1="530.0" x2="1130" y2="530.0" stroke="#eee" stroke-width="1"/>
<text x="78" y="535.0" text-anchor="end" font-size="14" font-family="Arial, PingFang SC, Microsoft YaHei, sans-serif" fill="#666">8.21</text>
<line x1="90" y1="430.0" x2="1130" y2="430.0" stroke="#eee" stroke-width="1"/>
<text x="78" y="435.0" text-anchor="end" font-size="14" font-family="Arial, PingFang SC, Microsoft YaHei, sans-serif" fill="#666">16.42</text>
<line x1="90" y1="329.99999999999994" x2="1130" y2="329.99999999999994" stroke="#eee" stroke-width="1"/>
<text x="78" y="334.99999999999994" text-anchor="end" font-size="14" font-family="Arial, PingFang SC, Microsoft YaHei, sans-serif" fill="#666">24.62</text>
<line x1="90" y1="229.99999999999997" x2="1130" y2="229.99999999999997" stroke="#eee" stroke-width="1"/>
<text x="78" y="234.99999999999997" text-anchor="end" font-size="14" font-family="Arial, PingFang SC, Microsoft YaHei, sans-serif" fill="#666">32.83</text>
<line x1="90" y1="130.0" x2="1130" y2="130.0" stroke="#eee" stroke-width="1"/>
<text x="78" y="135.0" text-anchor="end" font-size="14" font-family="Arial, PingFang SC, Microsoft YaHei, sans-serif" fill="#666">41.04</text>
<text x="194.0" y="658" text-anchor="middle" font-size="14" font-family="Arial, PingFang SC, Microsoft YaHei, sans-serif" fill="#666">2021</text>
<text x="402.0" y="658" text-anchor="middle" font-size="14" font-family="Arial, PingFang SC, Microsoft YaHei, sans-serif" fill="#666">2022</text>
<text x="610.0" y="658" text-anchor="middle" font-size="14" font-family="Arial, PingFang SC, Microsoft YaHei, sans-serif" fill="#666">2023</text>
<text x="818.0" y="658" text-anchor="middle" font-size="14" font-family="Arial, PingFang SC, Microsoft YaHei, sans-serif" fill="#666">2024</text>
<text x="1026.0" y="658" text-anchor="middle" font-size="14" font-family="Arial, PingFang SC, Microsoft YaHei, sans-serif" fill="#666">2025</text>
<rect x="123.28" y="550.44" width="65.06" height="79.56" fill="#4E79A7" opacity="0.85"/>
<rect x="331.28" y="559.58" width="65.06" height="70.42" fill="#4E79A7" opacity="0.85"/>
<rect x="539.28" y="563.11" width="65.06" height="66.89" fill="#4E79A7" opacity="0.85"/>
<rect x="747.28" y="558.97" width="65.06" height="71.03" fill="#4E79A7" opacity="0.85"/>
<rect x="955.28" y="559.95" width="65.06" height="70.05" fill="#4E79A7" opacity="0.85"/>
<rect x="194.00" y="597.11" width="65.06" height="32.89" fill="#F28E2B" opacity="0.85"/>
<rect x="402.00" y="600.64" width="65.06" height="29.36" fill="#F28E2B" opacity="0.85"/>
<rect x="610.00" y="603.44" width="65.06" height="26.56" fill="#F28E2B" opacity="0.85"/>
<rect x="818.00" y="605.51" width="65.06" height="24.49" fill="#F28E2B" opacity="0.85"/>
<rect x="1026.00" y="601.98" width="65.06" height="28.02" fill="#F28E2B" opacity="0.85"/>
<polyline fill="none" stroke="#E15759" stroke-width="3" points="194.00,191.04 402.00,143.52 610.00,130.00 818.00,154.24 1026.00,201.39"/>
<circle cx="194.00" cy="191.04" r="4" fill="#E15759"/>
<circle cx="402.00" cy="143.52" r="4" fill="#E15759"/>
<circle cx="610.00" cy="130.00" r="4" fill="#E15759"/>
<circle cx="818.00" cy="154.24" r="4" fill="#E15759"/>
<circle cx="1026.00" cy="201.39" r="4" fill="#E15759"/>
<polyline fill="none" stroke="#76B7B2" stroke-width="3" points="194.00,604.17 402.00,601.98 610.00,604.05 818.00,603.81 1026.00,602.83"/>
<circle cx="194.00" cy="604.17" r="4" fill="#76B7B2"/>
<circle cx="402.00" cy="601.98" r="4" fill="#76B7B2"/>
<circle cx="610.00" cy="604.05" r="4" fill="#76B7B2"/>
<circle cx="818.00" cy="603.81" r="4" fill="#76B7B2"/>
<circle cx="1026.00" cy="602.83" r="4" fill="#76B7B2"/>
<polyline fill="none" stroke="#59A14F" stroke-width="3" points="194.00,607.10 402.00,605.39 610.00,607.10 818.00,606.97 1026.00,605.39"/>
<circle cx="194.00" cy="607.10" r="4" fill="#59A14F"/>
<circle cx="402.00" cy="605.39" r="4" fill="#59A14F"/>
<circle cx="610.00" cy="607.10" r="4" fill="#59A14F"/>
<circle cx="818.00" cy="606.97" r="4" fill="#59A14F"/>
<circle cx="1026.00" cy="605.39" r="4" fill="#59A14F"/>
</svg>