<svg xmlns="http://www.w3.org/2000/svg" width="1200" height="720" viewBox="0 0 1200 720">
<rect x="0" y="0" width="100%" height="100%" fill="#ffffff"/>
<text x="40" y="42" font-size="26" font-family="Arial, PingFang SC, Microsoft YaHei, sans-serif" fill="#222">资产负债表关键数据图</text>
<rect x="40" y="60" width="22" height="10" fill="#4E79A7"/>
<text x="68" y="70" font-size="16" font-family="Arial, PingFang SC, Microsoft YaHei, sans-serif" fill="#333">总资产</text>
<rect x="210" y="60" width="22" height="10" fill="#F28E2B"/>
<text x="238" y="70" font-size="16" font-family="Arial, PingFang SC, Microsoft YaHei, sans-serif" fill="#333">总负债</text>
<rect x="380" y="60" width="22" height="10" fill="#E15759"/>
<text x="408" y="70" font-size="16" font-family="Arial, PingFang SC, Microsoft YaHei, sans-serif" fill="#333">股东权益</text>
<line x1="90" y1="130" x2="90" y2="630" stroke="#555" stroke-width="1"/>
<line x1="90" y1="630.0" x2="1130" y2="630.0" stroke="#555" stroke-width="1"/>
<line x1="90" y1="630.0" x2="1130" y2="630.0" stroke="#eee" stroke-width="1"/>
<text x="78" y="635.0" text-anchor="end" font-size="14" font-family="Arial, PingFang SC, Microsoft YaHei, sans-serif" fill="#666">0.00</text>
<line x1="90" y1="530.0" x2="1130" y2="530.0" stroke="#eee" stroke-width="1"/>
<text x="78" y="535.0" text-anchor="end" font-size="14" font-family="Arial, PingFang SC, Microsoft YaHei, sans-serif" fill="#666">785.87</text>
<line x1="90" y1="430.00000000000006" x2="1130" y2="430.00000000000006" stroke="#eee" stroke-width="1"/>
<text x="78" y="435.00000000000006" text-anchor="end" font-size="14" font-family="Arial, PingFang SC, Microsoft YaHei, sans-serif" fill="#666">1571.74</text>
<line x1="90" y1="330.0" x2="1130" y2="330.0" stroke="#eee" stroke-width="1"/>
<text x="78" y="335.0" text-anchor="end" font-size="14" font-family="Arial, PingFang SC, Microsoft YaHei, sans-serif" fill="#666">2357.60</text>
<line x1="90" y1="230.0" x2="1130" y2="230.0" stroke="#eee" stroke-width="1"/>
<text x="78" y="235.0" text-anchor="end" font-size="14" font-family="Arial, PingFang SC, Microsoft YaHei, sans-serif" fill="#666">3143.47</text>
<line x1="90" y1="130.0" x2="1130" y2="130.0" stroke="#eee" stroke-width="1"/>
<text x="78" y="135.0" text-anchor="end" font-size="14" font-family="Arial, PingFang SC, Microsoft YaHei, sans-serif" fill="#666">3929.34</text>
<text x="194.0" y="658" text-anchor="middle" font-size="14" font-family="Arial, PingFang SC, Microsoft YaHei, sans-serif" fill="#666">2021</text>
<text x="402.0" y="658" text-anchor="middle" font-size="14" font-family="Arial, PingFang SC, Microsoft YaHei, sans-serif" fill="#666">2022</text>
<text x="610.0" y="658" text-anchor="middle" font-size="14" font-family="Arial, PingFang SC, Microsoft YaHei, sans-serif" fill="#666">2023</text>
<text x="818.0" y="658" text-anchor="middle" font-size="14" font-family="Arial, PingFang SC, Microsoft YaHei, sans-serif" fill="#666">2024</text>
<text x="1026.0" y="658" text-anchor="middle" font-size="14" font-family="Arial, PingFang SC, Microsoft YaHei, sans-serif" fill="#666">2025</text>
<rect x="123.28" y="394.57" width="65.06" height="235.43" fill="#4E79A7" opacity="0.85"/>
<rect x="331.28" y="360.39" width="65.06" height="269.61" fill="#4E79A7" opacity="0.85"/>
<rect x="539.28" y="325.14" width="65.06" height="304.86" fill="#4E79A7" opacity="0.85"/>
<rect x="747.28" y="240.15" width="65.06" height="389.85" fill="#4E79A7" opacity="0.85"/>
<rect x="955.28" y="130.00" width="65.06" height="500.00" fill="#4E79A7" opacity="0.85"/>
<rect x="194.00" y="450.61" width="65.06" height="179.39" fill="#F28E2B" opacity="0.85"/>
<rect x="402.00" y="443.31" width="65.06" height="186.69" fill="#F28E2B" opacity="0.85"/>
<rect x="610.00" y="416.71" width="65.06" height="213.29" fill="#F28E2B" opacity="0.85"/>
<rect x="818.00" y="342.88" width="65.06" height="287.12" fill="#F28E2B" opacity="0.85"/>
<rect x="1026.00" y="246.91" width="65.06" height="383.09" fill="#F28E2B" opacity="0.85"/>
<polyline fill="none" stroke="#E15759" stroke-width="3" points="194.00,573.96 402.00,547.08 610.00,538.43 818.00,527.28 1026.00,513.09"/>
<circle cx="194.00" cy="573.96" r="4" fill="#E15759"/>
<circle cx="402.00" cy="547.08" r="4" fill="#E15759"/>
<circle cx="610.00" cy="538.43" r="4" fill="#E15759"/>
<circle cx="818.00" cy="527.28" r="4" fill="#E15759"/>
<circle cx="1026.00" cy="513.09" r="4" fill="#E15759"/>
</svg>