<svg xmlns="http://www.w3.org/2000/svg" width="1200" height="720" viewBox="0 0 1200 720">
<rect x="0" y="0" width="100%" height="100%" fill="#ffffff"/>
<text x="40" y="42" font-size="26" font-family="Arial, PingFang SC, Microsoft YaHei, sans-serif" fill="#222">财务比率分析图</text>
<rect x="40" y="60" width="22" height="10" fill="#4E79A7"/>
<text x="68" y="70" font-size="16" font-family="Arial, PingFang SC, Microsoft YaHei, sans-serif" fill="#333">资产负债率</text>
<rect x="210" y="60" width="22" height="10" fill="#F28E2B"/>
<text x="238" y="70" font-size="16" font-family="Arial, PingFang SC, Microsoft YaHei, sans-serif" fill="#333">流动比率</text>
<rect x="380" y="60" width="22" height="10" fill="#E15759"/>
<text x="408" y="70" font-size="16" font-family="Arial, PingFang SC, Microsoft YaHei, sans-serif" fill="#333">速动比率</text>
<rect x="550" y="60" width="22" height="10" fill="#76B7B2"/>
<text x="578" y="70" font-size="16" font-family="Arial, PingFang SC, Microsoft YaHei, sans-serif" fill="#333">应收周转率</text>
<rect x="720" y="60" width="22" height="10" fill="#59A14F"/>
<text x="748" y="70" font-size="16" font-family="Arial, PingFang SC, Microsoft YaHei, sans-serif" fill="#333">存货周转率</text>
<line x1="90" y1="130" x2="90" y2="630" stroke="#555" stroke-width="1"/>
<line x1="90" y1="630.0" x2="1130" y2="630.0" stroke="#555" stroke-width="1"/>
<line x1="90" y1="630.0" x2="1130" y2="630.0" stroke="#eee" stroke-width="1"/>
<text x="78" y="635.0" text-anchor="end" font-size="14" font-family="Arial, PingFang SC, Microsoft YaHei, sans-serif" fill="#666">0.00</text>
<line x1="90" y1="530.0" x2="1130" y2="530.0" stroke="#eee" stroke-width="1"/>
<text x="78" y="535.0" text-anchor="end" font-size="14" font-family="Arial, PingFang SC, Microsoft YaHei, sans-serif" fill="#666">15.32</text>
<line x1="90" y1="430.0" x2="1130" y2="430.0" stroke="#eee" stroke-width="1"/>
<text x="78" y="435.0" text-anchor="end" font-size="14" font-family="Arial, PingFang SC, Microsoft YaHei, sans-serif" fill="#666">30.65</text>
<line x1="90" y1="330.0" x2="1130" y2="330.0" stroke="#eee" stroke-width="1"/>
<text x="78" y="335.0" text-anchor="end" font-size="14" font-family="Arial, PingFang SC, Microsoft YaHei, sans-serif" fill="#666">45.97</text>
<line x1="90" y1="229.99999999999997" x2="1130" y2="229.99999999999997" stroke="#eee" stroke-width="1"/>
<text x="78" y="234.99999999999997" text-anchor="end" font-size="14" font-family="Arial, PingFang SC, Microsoft YaHei, sans-serif" fill="#666">61.30</text>
<line x1="90" y1="130.0" x2="1130" y2="130.0" stroke="#eee" stroke-width="1"/>
<text x="78" y="135.0" text-anchor="end" font-size="14" font-family="Arial, PingFang SC, Microsoft YaHei, sans-serif" fill="#666">76.62</text>
<text x="194.0" y="658" text-anchor="middle" font-size="14" font-family="Arial, PingFang SC, Microsoft YaHei, sans-serif" fill="#666">2021</text>
<text x="402.0" y="658" text-anchor="middle" font-size="14" font-family="Arial, PingFang SC, Microsoft YaHei, sans-serif" fill="#666">2022</text>
<text x="610.0" y="658" text-anchor="middle" font-size="14" font-family="Arial, PingFang SC, Microsoft YaHei, sans-serif" fill="#666">2023</text>
<text x="818.0" y="658" text-anchor="middle" font-size="14" font-family="Arial, PingFang SC, Microsoft YaHei, sans-serif" fill="#666">2024</text>
<text x="1026.0" y="658" text-anchor="middle" font-size="14" font-family="Arial, PingFang SC, Microsoft YaHei, sans-serif" fill="#666">2025</text>
<rect x="123.28" y="602.27" width="65.06" height="27.73" fill="#4E79A7" opacity="0.85"/>
<rect x="331.28" y="608.92" width="65.06" height="21.08" fill="#4E79A7" opacity="0.85"/>
<rect x="539.28" y="602.46" width="65.06" height="27.54" fill="#4E79A7" opacity="0.85"/>
<rect x="747.28" y="603.51" width="65.06" height="26.49" fill="#4E79A7" opacity="0.85"/>
<rect x="955.28" y="602.20" width="65.06" height="27.80" fill="#4E79A7" opacity="0.85"/>
<rect x="194.00" y="630.00" width="65.06" height="0.00" fill="#F28E2B" opacity="0.85"/>
<rect x="402.00" y="630.00" width="65.06" height="0.00" fill="#F28E2B" opacity="0.85"/>
<rect x="610.00" y="630.00" width="65.06" height="0.00" fill="#F28E2B" opacity="0.85"/>
<rect x="818.00" y="630.00" width="65.06" height="0.00" fill="#F28E2B" opacity="0.85"/>
<rect x="1026.00" y="630.00" width="65.06" height="0.00" fill="#F28E2B" opacity="0.85"/>
<polyline fill="none" stroke="#E15759" stroke-width="3" points="194.00,132.74 402.00,178.16 610.00,173.46 818.00,149.38 1026.00,130.00"/>
<circle cx="194.00" cy="132.74" r="4" fill="#E15759"/>
<circle cx="402.00" cy="178.16" r="4" fill="#E15759"/>
<circle cx="610.00" cy="173.46" r="4" fill="#E15759"/>
<circle cx="818.00" cy="149.38" r="4" fill="#E15759"/>
<circle cx="1026.00" cy="130.00" r="4" fill="#E15759"/>
<polyline fill="none" stroke="#76B7B2" stroke-width="3" points="194.00,621.19 402.00,620.47 610.00,620.60 818.00,621.26 1026.00,621.13"/>
<circle cx="194.00" cy="621.19" r="4" fill="#76B7B2"/>
<circle cx="402.00" cy="620.47" r="4" fill="#76B7B2"/>
<circle cx="610.00" cy="620.60" r="4" fill="#76B7B2"/>
<circle cx="818.00" cy="621.26" r="4" fill="#76B7B2"/>
<circle cx="1026.00" cy="621.13" r="4" fill="#76B7B2"/>
<polyline fill="none" stroke="#59A14F" stroke-width="3" points="194.00,621.19 402.00,620.47 610.00,620.60 818.00,621.26 1026.00,621.13"/>
<circle cx="194.00" cy="621.19" r="4" fill="#59A14F"/>
<circle cx="402.00" cy="620.47" r="4" fill="#59A14F"/>
<circle cx="610.00" cy="620.60" r="4" fill="#59A14F"/>
<circle cx="818.00" cy="621.26" r="4" fill="#59A14F"/>
<circle cx="1026.00" cy="621.13" r="4" fill="#59A14F"/>
</svg>