<svg xmlns="http://www.w3.org/2000/svg" width="1200" height="720" viewBox="0 0 1200 720">
<rect x="0" y="0" width="100%" height="100%" fill="#ffffff"/>
<text x="40" y="42" font-size="26" font-family="Arial, PingFang SC, Microsoft YaHei, sans-serif" fill="#222">分产品收入变化图</text>
<rect x="40" y="60" width="22" height="10" fill="#4E79A7"/>
<text x="68" y="70" font-size="16" font-family="Arial, PingFang SC, Microsoft YaHei, sans-serif" fill="#333">证券业</text>
<rect x="210" y="60" width="22" height="10" fill="#F28E2B"/>
<text x="238" y="70" font-size="16" font-family="Arial, PingFang SC, Microsoft YaHei, sans-serif" fill="#333">证券经纪业务</text>
<rect x="380" y="60" width="22" height="10" fill="#E15759"/>
<text x="408" y="70" font-size="16" font-family="Arial, PingFang SC, Microsoft YaHei, sans-serif" fill="#333">信息技术服务业</text>
<rect x="550" y="60" width="22" height="10" fill="#76B7B2"/>
<text x="578" y="70" font-size="16" font-family="Arial, PingFang SC, Microsoft YaHei, sans-serif" fill="#333">利息净收入</text>
<rect x="720" y="60" width="22" height="10" fill="#59A14F"/>
<text x="748" y="70" font-size="16" font-family="Arial, PingFang SC, Microsoft YaHei, sans-serif" fill="#333">金融电子商务服务</text>
<line x1="90" y1="130" x2="90" y2="630" stroke="#555" stroke-width="1"/>
<line x1="90" y1="630.0" x2="1130" y2="630.0" stroke="#555" stroke-width="1"/>
<line x1="90" y1="630.0" x2="1130" y2="630.0" stroke="#eee" stroke-width="1"/>
<text x="78" y="635.0" text-anchor="end" font-size="14" font-family="Arial, PingFang SC, Microsoft YaHei, sans-serif" fill="#666">0.00</text>
<line x1="90" y1="530.0" x2="1130" y2="530.0" stroke="#eee" stroke-width="1"/>
<text x="78" y="535.0" text-anchor="end" font-size="14" font-family="Arial, PingFang SC, Microsoft YaHei, sans-serif" fill="#666">35.63</text>
<line x1="90" y1="430.0" x2="1130" y2="430.0" stroke="#eee" stroke-width="1"/>
<text x="78" y="435.0" text-anchor="end" font-size="14" font-family="Arial, PingFang SC, Microsoft YaHei, sans-serif" fill="#666">71.26</text>
<line x1="90" y1="330.0" x2="1130" y2="330.0" stroke="#eee" stroke-width="1"/>
<text x="78" y="335.0" text-anchor="end" font-size="14" font-family="Arial, PingFang SC, Microsoft YaHei, sans-serif" fill="#666">106.88</text>
<line x1="90" y1="229.99999999999994" x2="1130" y2="229.99999999999994" stroke="#eee" stroke-width="1"/>
<text x="78" y="234.99999999999994" text-anchor="end" font-size="14" font-family="Arial, PingFang SC, Microsoft YaHei, sans-serif" fill="#666">142.51</text>
<line x1="90" y1="130.0" x2="1130" y2="130.0" stroke="#eee" stroke-width="1"/>
<text x="78" y="135.0" text-anchor="end" font-size="14" font-family="Arial, PingFang SC, Microsoft YaHei, sans-serif" fill="#666">178.14</text>
<text x="194.0" y="658" text-anchor="middle" font-size="14" font-family="Arial, PingFang SC, Microsoft YaHei, sans-serif" fill="#666">2021</text>
<text x="402.0" y="658" text-anchor="middle" font-size="14" font-family="Arial, PingFang SC, Microsoft YaHei, sans-serif" fill="#666">2022</text>
<text x="610.0" y="658" text-anchor="middle" font-size="14" font-family="Arial, PingFang SC, Microsoft YaHei, sans-serif" fill="#666">2023</text>
<text x="818.0" y="658" text-anchor="middle" font-size="14" font-family="Arial, PingFang SC, Microsoft YaHei, sans-serif" fill="#666">2024</text>
<text x="1026.0" y="658" text-anchor="middle" font-size="14" font-family="Arial, PingFang SC, Microsoft YaHei, sans-serif" fill="#666">2025</text>
<rect x="123.28" y="323.78" width="26.02" height="306.22" fill="#4E79A7" opacity="0.85"/>
<rect x="331.28" y="409.47" width="26.02" height="220.53" fill="#4E79A7" opacity="0.85"/>
<rect x="539.28" y="326.76" width="26.02" height="303.24" fill="#4E79A7" opacity="0.85"/>
<rect x="747.28" y="295.54" width="26.02" height="334.46" fill="#4E79A7" opacity="0.85"/>
<rect x="955.28" y="130.00" width="26.02" height="500.00" fill="#4E79A7" opacity="0.85"/>
<rect x="151.57" y="447.39" width="26.02" height="182.61" fill="#F28E2B" opacity="0.85"/>
<rect x="359.57" y="427.04" width="26.02" height="202.96" fill="#F28E2B" opacity="0.85"/>
<rect x="567.57" y="447.42" width="26.02" height="182.58" fill="#F28E2B" opacity="0.85"/>
<rect x="775.57" y="429.65" width="26.02" height="200.35" fill="#F28E2B" opacity="0.85"/>
<rect x="983.57" y="319.21" width="26.02" height="310.79" fill="#F28E2B" opacity="0.85"/>
<rect x="179.86" y="406.95" width="26.02" height="223.05" fill="#E15759" opacity="0.85"/>
<rect x="387.86" y="500.27" width="26.02" height="129.73" fill="#E15759" opacity="0.85"/>
<rect x="595.86" y="461.03" width="26.02" height="168.97" fill="#E15759" opacity="0.85"/>
<rect x="803.86" y="500.19" width="26.02" height="129.81" fill="#E15759" opacity="0.85"/>
<rect x="1011.86" y="486.77" width="26.02" height="143.23" fill="#E15759" opacity="0.85"/>
<rect x="208.14" y="537.07" width="26.02" height="92.93" fill="#76B7B2" opacity="0.85"/>
<rect x="416.14" y="528.31" width="26.02" height="101.69" fill="#76B7B2" opacity="0.85"/>
<rect x="624.14" y="536.17" width="26.02" height="93.83" fill="#76B7B2" opacity="0.85"/>
<rect x="832.14" y="534.34" width="26.02" height="95.66" fill="#76B7B2" opacity="0.85"/>
<rect x="1040.14" y="493.39" width="26.02" height="136.61" fill="#76B7B2" opacity="0.85"/>
<rect x="236.43" y="420.33" width="26.02" height="209.67" fill="#59A14F" opacity="0.85"/>
<rect x="444.43" y="446.80" width="26.02" height="183.20" fill="#59A14F" opacity="0.85"/>
<rect x="652.43" y="471.87" width="26.02" height="158.13" fill="#59A14F" opacity="0.85"/>
<rect x="860.43" y="510.63" width="26.02" height="119.37" fill="#59A14F" opacity="0.85"/>
<rect x="1068.43" y="500.94" width="26.02" height="129.06" fill="#59A14F" opacity="0.85"/>
</svg>