<svg xmlns="http://www.w3.org/2000/svg" width="1200" height="720" viewBox="0 0 1200 720">
<rect x="0" y="0" width="100%" height="100%" fill="#ffffff"/>
<text x="40" y="42" font-size="26" font-family="Arial, PingFang SC, Microsoft YaHei, sans-serif" fill="#222">财务比率分析图</text>
<rect x="40" y="60" width="22" height="10" fill="#4E79A7"/>
<text x="68" y="70" font-size="16" font-family="Arial, PingFang SC, Microsoft YaHei, sans-serif" fill="#333">资产负债率</text>
<rect x="210" y="60" width="22" height="10" fill="#F28E2B"/>
<text x="238" y="70" font-size="16" font-family="Arial, PingFang SC, Microsoft YaHei, sans-serif" fill="#333">流动比率</text>
<rect x="380" y="60" width="22" height="10" fill="#E15759"/>
<text x="408" y="70" font-size="16" font-family="Arial, PingFang SC, Microsoft YaHei, sans-serif" fill="#333">速动比率</text>
<rect x="550" y="60" width="22" height="10" fill="#76B7B2"/>
<text x="578" y="70" font-size="16" font-family="Arial, PingFang SC, Microsoft YaHei, sans-serif" fill="#333">应收周转率</text>
<rect x="720" y="60" width="22" height="10" fill="#59A14F"/>
<text x="748" y="70" font-size="16" font-family="Arial, PingFang SC, Microsoft YaHei, sans-serif" fill="#333">存货周转率</text>
<line x1="90" y1="130" x2="90" y2="630" stroke="#555" stroke-width="1"/>
<line x1="90" y1="630.0" x2="1130" y2="630.0" stroke="#555" stroke-width="1"/>
<line x1="90" y1="630.0" x2="1130" y2="630.0" stroke="#eee" stroke-width="1"/>
<text x="78" y="635.0" text-anchor="end" font-size="14" font-family="Arial, PingFang SC, Microsoft YaHei, sans-serif" fill="#666">0.00</text>
<line x1="90" y1="530.0" x2="1130" y2="530.0" stroke="#eee" stroke-width="1"/>
<text x="78" y="535.0" text-anchor="end" font-size="14" font-family="Arial, PingFang SC, Microsoft YaHei, sans-serif" fill="#666">7.47</text>
<line x1="90" y1="430.0" x2="1130" y2="430.0" stroke="#eee" stroke-width="1"/>
<text x="78" y="435.0" text-anchor="end" font-size="14" font-family="Arial, PingFang SC, Microsoft YaHei, sans-serif" fill="#666">14.94</text>
<line x1="90" y1="329.99999999999994" x2="1130" y2="329.99999999999994" stroke="#eee" stroke-width="1"/>
<text x="78" y="334.99999999999994" text-anchor="end" font-size="14" font-family="Arial, PingFang SC, Microsoft YaHei, sans-serif" fill="#666">22.41</text>
<line x1="90" y1="229.99999999999997" x2="1130" y2="229.99999999999997" stroke="#eee" stroke-width="1"/>
<text x="78" y="234.99999999999997" text-anchor="end" font-size="14" font-family="Arial, PingFang SC, Microsoft YaHei, sans-serif" fill="#666">29.88</text>
<line x1="90" y1="130.0" x2="1130" y2="130.0" stroke="#eee" stroke-width="1"/>
<text x="78" y="135.0" text-anchor="end" font-size="14" font-family="Arial, PingFang SC, Microsoft YaHei, sans-serif" fill="#666">37.35</text>
<text x="194.0" y="658" text-anchor="middle" font-size="14" font-family="Arial, PingFang SC, Microsoft YaHei, sans-serif" fill="#666">2021</text>
<text x="402.0" y="658" text-anchor="middle" font-size="14" font-family="Arial, PingFang SC, Microsoft YaHei, sans-serif" fill="#666">2022</text>
<text x="610.0" y="658" text-anchor="middle" font-size="14" font-family="Arial, PingFang SC, Microsoft YaHei, sans-serif" fill="#666">2023</text>
<text x="818.0" y="658" text-anchor="middle" font-size="14" font-family="Arial, PingFang SC, Microsoft YaHei, sans-serif" fill="#666">2024</text>
<text x="1026.0" y="658" text-anchor="middle" font-size="14" font-family="Arial, PingFang SC, Microsoft YaHei, sans-serif" fill="#666">2025</text>
<rect x="123.28" y="592.65" width="65.06" height="37.35" fill="#4E79A7" opacity="0.85"/>
<rect x="331.28" y="593.19" width="65.06" height="36.81" fill="#4E79A7" opacity="0.85"/>
<rect x="539.28" y="588.63" width="65.06" height="41.37" fill="#4E79A7" opacity="0.85"/>
<rect x="747.28" y="590.91" width="65.06" height="39.09" fill="#4E79A7" opacity="0.85"/>
<rect x="955.28" y="592.92" width="65.06" height="37.08" fill="#4E79A7" opacity="0.85"/>
<rect x="194.00" y="581.27" width="65.06" height="48.73" fill="#F28E2B" opacity="0.85"/>
<rect x="402.00" y="593.99" width="65.06" height="36.01" fill="#F28E2B" opacity="0.85"/>
<rect x="610.00" y="590.91" width="65.06" height="39.09" fill="#F28E2B" opacity="0.85"/>
<rect x="818.00" y="587.70" width="65.06" height="42.30" fill="#F28E2B" opacity="0.85"/>
<rect x="1026.00" y="584.08" width="65.06" height="45.92" fill="#F28E2B" opacity="0.85"/>
<polyline fill="none" stroke="#E15759" stroke-width="3" points="194.00,170.56 402.00,130.00 610.00,372.44 818.00,405.10 1026.00,411.79"/>
<circle cx="194.00" cy="170.56" r="4" fill="#E15759"/>
<circle cx="402.00" cy="130.00" r="4" fill="#E15759"/>
<circle cx="610.00" cy="372.44" r="4" fill="#E15759"/>
<circle cx="818.00" cy="405.10" r="4" fill="#E15759"/>
<circle cx="1026.00" cy="411.79" r="4" fill="#E15759"/>
<polyline fill="none" stroke="#76B7B2" stroke-width="3" points="194.00,578.19 402.00,585.15 610.00,573.24 818.00,568.55 1026.00,573.78"/>
<circle cx="194.00" cy="578.19" r="4" fill="#76B7B2"/>
<circle cx="402.00" cy="585.15" r="4" fill="#76B7B2"/>
<circle cx="610.00" cy="573.24" r="4" fill="#76B7B2"/>
<circle cx="818.00" cy="568.55" r="4" fill="#76B7B2"/>
<circle cx="1026.00" cy="573.78" r="4" fill="#76B7B2"/>
<polyline fill="none" stroke="#59A14F" stroke-width="3" points="194.00,585.42 402.00,593.05 610.00,582.07 818.00,577.52 1026.00,583.41"/>
<circle cx="194.00" cy="585.42" r="4" fill="#59A14F"/>
<circle cx="402.00" cy="593.05" r="4" fill="#59A14F"/>
<circle cx="610.00" cy="582.07" r="4" fill="#59A14F"/>
<circle cx="818.00" cy="577.52" r="4" fill="#59A14F"/>
<circle cx="1026.00" cy="583.41" r="4" fill="#59A14F"/>
</svg>