<svg xmlns="http://www.w3.org/2000/svg" width="1200" height="720" viewBox="0 0 1200 720">
<rect x="0" y="0" width="100%" height="100%" fill="#ffffff"/>
<text x="40" y="42" font-size="26" font-family="Arial, PingFang SC, Microsoft YaHei, sans-serif" fill="#222">分产品利润结构图</text>
<rect x="40" y="60" width="22" height="10" fill="#4E79A7"/>
<text x="68" y="70" font-size="16" font-family="Arial, PingFang SC, Microsoft YaHei, sans-serif" fill="#333">利润</text>
<rect x="210" y="60" width="22" height="10" fill="#F28E2B"/>
<text x="238" y="70" font-size="16" font-family="Arial, PingFang SC, Microsoft YaHei, sans-serif" fill="#333">毛利率</text>
<line x1="90" y1="130" x2="90" y2="630" stroke="#555" stroke-width="1"/>
<line x1="90" y1="428.567645642754" x2="1130" y2="428.567645642754" stroke="#555" stroke-width="1"/>
<line x1="90" y1="630.0" x2="1130" y2="630.0" stroke="#eee" stroke-width="1"/>
<text x="78" y="635.0" text-anchor="end" font-size="14" font-family="Arial, PingFang SC, Microsoft YaHei, sans-serif" fill="#666">-66.94</text>
<line x1="90" y1="530.0" x2="1130" y2="530.0" stroke="#eee" stroke-width="1"/>
<text x="78" y="535.0" text-anchor="end" font-size="14" font-family="Arial, PingFang SC, Microsoft YaHei, sans-serif" fill="#666">-33.71</text>
<line x1="90" y1="430.0" x2="1130" y2="430.0" stroke="#eee" stroke-width="1"/>
<text x="78" y="435.0" text-anchor="end" font-size="14" font-family="Arial, PingFang SC, Microsoft YaHei, sans-serif" fill="#666">-0.48</text>
<line x1="90" y1="330.0" x2="1130" y2="330.0" stroke="#eee" stroke-width="1"/>
<text x="78" y="335.0" text-anchor="end" font-size="14" font-family="Arial, PingFang SC, Microsoft YaHei, sans-serif" fill="#666">32.76</text>
<line x1="90" y1="230.0" x2="1130" y2="230.0" stroke="#eee" stroke-width="1"/>
<text x="78" y="235.0" text-anchor="end" font-size="14" font-family="Arial, PingFang SC, Microsoft YaHei, sans-serif" fill="#666">65.99</text>
<line x1="90" y1="130.0" x2="1130" y2="130.0" stroke="#eee" stroke-width="1"/>
<text x="78" y="135.0" text-anchor="end" font-size="14" font-family="Arial, PingFang SC, Microsoft YaHei, sans-serif" fill="#666">99.22</text>
<text x="155.0" y="658" text-anchor="middle" font-size="14" font-family="Arial, PingFang SC, Microsoft YaHei, sans-serif" fill="#666">汽车行业</text>
<text x="285.0" y="658" text-anchor="middle" font-size="14" font-family="Arial, PingFang SC, Microsoft YaHei, sans-serif" fill="#666">汽车零部件</text>
<text x="415.0" y="658" text-anchor="middle" font-size="14" font-family="Arial, PingFang SC, Microsoft YaHei, sans-serif" fill="#666">国外</text>
<text x="545.0" y="658" text-anchor="middle" font-size="14" font-family="Arial, PingFang SC, Microsoft YaHei, sans-serif" fill="#666">非汽车行业</text>
<text x="675.0" y="658" text-anchor="middle" font-size="14" font-family="Arial, PingFang SC, Microsoft YaHei, sans-serif" fill="#666">智能装备业务</text>
<text x="805.0" y="658" text-anchor="middle" font-size="14" font-family="Arial, PingFang SC, Microsoft YaHei, sans-serif" fill="#666">非标设备制造行业</text>
<text x="935.0" y="658" text-anchor="middle" font-size="14" font-family="Arial, PingFang SC, Microsoft YaHei, sans-serif" fill="#666">其他业务</text>
<text x="1065.0" y="658" text-anchor="middle" font-size="14" font-family="Arial, PingFang SC, Microsoft YaHei, sans-serif" fill="#666">其他零部件</text>
<rect x="110.80" y="414.79" width="81.33" height="13.78" fill="#4E79A7" opacity="0.85"/>
<rect x="240.80" y="414.79" width="81.33" height="13.78" fill="#4E79A7" opacity="0.85"/>
<rect x="370.80" y="422.40" width="81.33" height="6.17" fill="#4E79A7" opacity="0.85"/>
<rect x="500.80" y="427.66" width="81.33" height="0.90" fill="#4E79A7" opacity="0.85"/>
<rect x="630.80" y="428.21" width="81.33" height="0.36" fill="#4E79A7" opacity="0.85"/>
<rect x="760.80" y="428.21" width="81.33" height="0.36" fill="#4E79A7" opacity="0.85"/>
<rect x="890.80" y="427.42" width="81.33" height="1.14" fill="#4E79A7" opacity="0.85"/>
<rect x="1020.80" y="428.57" width="81.33" height="0.24" fill="#4E79A7" opacity="0.85"/>
<polyline fill="none" stroke="#F28E2B" stroke-width="3" points="155.00,330.44 285.00,330.44 415.00,312.32 545.00,253.04 675.00,353.10 805.00,353.10 935.00,130.00 1065.00,630.00"/>
<circle cx="155.00" cy="330.44" r="4" fill="#F28E2B"/>
<circle cx="285.00" cy="330.44" r="4" fill="#F28E2B"/>
<circle cx="415.00" cy="312.32" r="4" fill="#F28E2B"/>
<circle cx="545.00" cy="253.04" r="4" fill="#F28E2B"/>
<circle cx="675.00" cy="353.10" r="4" fill="#F28E2B"/>
<circle cx="805.00" cy="353.10" r="4" fill="#F28E2B"/>
<circle cx="935.00" cy="130.00" r="4" fill="#F28E2B"/>
<circle cx="1065.00" cy="630.00" r="4" fill="#F28E2B"/>
</svg>