<svg xmlns="http://www.w3.org/2000/svg" width="1200" height="720" viewBox="0 0 1200 720">
<rect x="0" y="0" width="100%" height="100%" fill="#ffffff"/>
<text x="40" y="42" font-size="26" font-family="Arial, PingFang SC, Microsoft YaHei, sans-serif" fill="#222">分产品收入结构图</text>
<path d="M 380.00 390.00 L 380.00 170.00 A 220.00 220.00 0 0 1 513.20 565.10 Z" fill="#4E79A7" stroke="#fff" stroke-width="1"/>
<path d="M 380.00 390.00 L 513.20 565.10 A 220.00 220.00 0 0 1 167.98 331.29 Z" fill="#F28E2B" stroke="#fff" stroke-width="1"/>
<path d="M 380.00 390.00 L 167.98 331.29 A 220.00 220.00 0 0 1 302.82 183.98 Z" fill="#E15759" stroke="#fff" stroke-width="1"/>
<path d="M 380.00 390.00 L 302.82 183.98 A 220.00 220.00 0 0 1 321.76 177.85 Z" fill="#76B7B2" stroke="#fff" stroke-width="1"/>
<path d="M 380.00 390.00 L 321.76 177.85 A 220.00 220.00 0 0 1 340.78 173.52 Z" fill="#59A14F" stroke="#fff" stroke-width="1"/>
<path d="M 380.00 390.00 L 340.78 173.52 A 220.00 220.00 0 0 1 360.12 170.90 Z" fill="#EDC948" stroke="#fff" stroke-width="1"/>
<path d="M 380.00 390.00 L 360.12 170.90 A 220.00 220.00 0 0 1 374.93 170.06 Z" fill="#B07AA1" stroke="#fff" stroke-width="1"/>
<path d="M 380.00 390.00 L 374.93 170.06 A 220.00 220.00 0 0 1 380.00 170.00 Z" fill="#FF9DA7" stroke="#fff" stroke-width="1"/>
<rect x="700" y="179" width="20" height="12" fill="#4E79A7"/>
<text x="728" y="190" font-size="14" font-family="Arial, PingFang SC, Microsoft YaHei, sans-serif" fill="#333">汽车行业  14.04 (39.6%)</text>
<rect x="700" y="209" width="20" height="12" fill="#F28E2B"/>
<text x="728" y="220" font-size="14" font-family="Arial, PingFang SC, Microsoft YaHei, sans-serif" fill="#333">汽车零部件  14.04 (39.6%)</text>
<rect x="700" y="239" width="20" height="12" fill="#E15759"/>
<text x="728" y="250" font-size="14" font-family="Arial, PingFang SC, Microsoft YaHei, sans-serif" fill="#333">国外  5.31 (15.0%)</text>
<rect x="700" y="269" width="20" height="12" fill="#76B7B2"/>
<text x="728" y="280" font-size="14" font-family="Arial, PingFang SC, Microsoft YaHei, sans-serif" fill="#333">非汽车行业  0.51 (1.4%)</text>
<rect x="700" y="299" width="20" height="12" fill="#59A14F"/>
<text x="728" y="310" font-size="14" font-family="Arial, PingFang SC, Microsoft YaHei, sans-serif" fill="#333">智能装备业务  0.50 (1.4%)</text>
<rect x="700" y="329" width="20" height="12" fill="#EDC948"/>
<text x="728" y="340" font-size="14" font-family="Arial, PingFang SC, Microsoft YaHei, sans-serif" fill="#333">非标设备制造行业  0.50 (1.4%)</text>
<rect x="700" y="359" width="20" height="12" fill="#B07AA1"/>
<text x="728" y="370" font-size="14" font-family="Arial, PingFang SC, Microsoft YaHei, sans-serif" fill="#333">其他业务  0.38 (1.1%)</text>
<rect x="700" y="389" width="20" height="12" fill="#FF9DA7"/>
<text x="728" y="400" font-size="14" font-family="Arial, PingFang SC, Microsoft YaHei, sans-serif" fill="#333">其他零部件  0.13 (0.4%)</text>
</svg>