<svg xmlns="http://www.w3.org/2000/svg" width="1200" height="720" viewBox="0 0 1200 720">
<rect x="0" y="0" width="100%" height="100%" fill="#ffffff"/>
<text x="40" y="42" font-size="26" font-family="Arial, PingFang SC, Microsoft YaHei, sans-serif" fill="#222">财务比率分析图</text>
<rect x="40" y="60" width="22" height="10" fill="#4E79A7"/>
<text x="68" y="70" font-size="16" font-family="Arial, PingFang SC, Microsoft YaHei, sans-serif" fill="#333">资产负债率</text>
<rect x="210" y="60" width="22" height="10" fill="#F28E2B"/>
<text x="238" y="70" font-size="16" font-family="Arial, PingFang SC, Microsoft YaHei, sans-serif" fill="#333">流动比率</text>
<rect x="380" y="60" width="22" height="10" fill="#E15759"/>
<text x="408" y="70" font-size="16" font-family="Arial, PingFang SC, Microsoft YaHei, sans-serif" fill="#333">速动比率</text>
<rect x="550" y="60" width="22" height="10" fill="#76B7B2"/>
<text x="578" y="70" font-size="16" font-family="Arial, PingFang SC, Microsoft YaHei, sans-serif" fill="#333">应收周转率</text>
<rect x="720" y="60" width="22" height="10" fill="#59A14F"/>
<text x="748" y="70" font-size="16" font-family="Arial, PingFang SC, Microsoft YaHei, sans-serif" fill="#333">存货周转率</text>
<line x1="90" y1="130" x2="90" y2="630" stroke="#555" stroke-width="1"/>
<line x1="90" y1="630.0" x2="1130" y2="630.0" stroke="#555" stroke-width="1"/>
<line x1="90" y1="630.0" x2="1130" y2="630.0" stroke="#eee" stroke-width="1"/>
<text x="78" y="635.0" text-anchor="end" font-size="14" font-family="Arial, PingFang SC, Microsoft YaHei, sans-serif" fill="#666">0.00</text>
<line x1="90" y1="530.0" x2="1130" y2="530.0" stroke="#eee" stroke-width="1"/>
<text x="78" y="535.0" text-anchor="end" font-size="14" font-family="Arial, PingFang SC, Microsoft YaHei, sans-serif" fill="#666">9.84</text>
<line x1="90" y1="430.0" x2="1130" y2="430.0" stroke="#eee" stroke-width="1"/>
<text x="78" y="435.0" text-anchor="end" font-size="14" font-family="Arial, PingFang SC, Microsoft YaHei, sans-serif" fill="#666">19.67</text>
<line x1="90" y1="330.0" x2="1130" y2="330.0" stroke="#eee" stroke-width="1"/>
<text x="78" y="335.0" text-anchor="end" font-size="14" font-family="Arial, PingFang SC, Microsoft YaHei, sans-serif" fill="#666">29.51</text>
<line x1="90" y1="230.0" x2="1130" y2="230.0" stroke="#eee" stroke-width="1"/>
<text x="78" y="235.0" text-anchor="end" font-size="14" font-family="Arial, PingFang SC, Microsoft YaHei, sans-serif" fill="#666">39.34</text>
<line x1="90" y1="130.0" x2="1130" y2="130.0" stroke="#eee" stroke-width="1"/>
<text x="78" y="135.0" text-anchor="end" font-size="14" font-family="Arial, PingFang SC, Microsoft YaHei, sans-serif" fill="#666">49.18</text>
<text x="194.0" y="658" text-anchor="middle" font-size="14" font-family="Arial, PingFang SC, Microsoft YaHei, sans-serif" fill="#666">2021</text>
<text x="402.0" y="658" text-anchor="middle" font-size="14" font-family="Arial, PingFang SC, Microsoft YaHei, sans-serif" fill="#666">2022</text>
<text x="610.0" y="658" text-anchor="middle" font-size="14" font-family="Arial, PingFang SC, Microsoft YaHei, sans-serif" fill="#666">2023</text>
<text x="818.0" y="658" text-anchor="middle" font-size="14" font-family="Arial, PingFang SC, Microsoft YaHei, sans-serif" fill="#666">2024</text>
<text x="1026.0" y="658" text-anchor="middle" font-size="14" font-family="Arial, PingFang SC, Microsoft YaHei, sans-serif" fill="#666">2025</text>
<rect x="123.28" y="539.31" width="65.06" height="90.69" fill="#4E79A7" opacity="0.85"/>
<rect x="331.28" y="554.16" width="65.06" height="75.84" fill="#4E79A7" opacity="0.85"/>
<rect x="539.28" y="564.63" width="65.06" height="65.37" fill="#4E79A7" opacity="0.85"/>
<rect x="747.28" y="564.53" width="65.06" height="65.47" fill="#4E79A7" opacity="0.85"/>
<rect x="955.28" y="630.00" width="65.06" height="0.00" fill="#4E79A7" opacity="0.85"/>
<rect x="194.00" y="607.12" width="65.06" height="22.88" fill="#F28E2B" opacity="0.85"/>
<rect x="402.00" y="616.58" width="65.06" height="13.42" fill="#F28E2B" opacity="0.85"/>
<rect x="610.00" y="612.11" width="65.06" height="17.89" fill="#F28E2B" opacity="0.85"/>
<rect x="818.00" y="602.24" width="65.06" height="27.76" fill="#F28E2B" opacity="0.85"/>
<rect x="1026.00" y="630.00" width="65.06" height="0.00" fill="#F28E2B" opacity="0.85"/>
<polyline fill="none" stroke="#E15759" stroke-width="3" points="194.00,130.00 402.00,136.30 610.00,192.32 818.00,244.78 1026.00,630.00"/>
<circle cx="194.00" cy="130.00" r="4" fill="#E15759"/>
<circle cx="402.00" cy="136.30" r="4" fill="#E15759"/>
<circle cx="610.00" cy="192.32" r="4" fill="#E15759"/>
<circle cx="818.00" cy="244.78" r="4" fill="#E15759"/>
<circle cx="1026.00" cy="630.00" r="4" fill="#E15759"/>
<polyline fill="none" stroke="#76B7B2" stroke-width="3" points="194.00,606.31 402.00,610.78 610.00,607.33 818.00,600.82 1026.00,630.00"/>
<circle cx="194.00" cy="606.31" r="4" fill="#76B7B2"/>
<circle cx="402.00" cy="610.78" r="4" fill="#76B7B2"/>
<circle cx="610.00" cy="607.33" r="4" fill="#76B7B2"/>
<circle cx="818.00" cy="600.82" r="4" fill="#76B7B2"/>
<circle cx="1026.00" cy="630.00" r="4" fill="#76B7B2"/>
<polyline fill="none" stroke="#59A14F" stroke-width="3" points="194.00,616.58 402.00,622.88 610.00,614.34 818.00,610.17 1026.00,630.00"/>
<circle cx="194.00" cy="616.58" r="4" fill="#59A14F"/>
<circle cx="402.00" cy="622.88" r="4" fill="#59A14F"/>
<circle cx="610.00" cy="614.34" r="4" fill="#59A14F"/>
<circle cx="818.00" cy="610.17" r="4" fill="#59A14F"/>
<circle cx="1026.00" cy="630.00" r="4" fill="#59A14F"/>
</svg>