<svg xmlns="http://www.w3.org/2000/svg" width="1200" height="720" viewBox="0 0 1200 720">
<rect x="0" y="0" width="100%" height="100%" fill="#ffffff"/>
<text x="40" y="42" font-size="26" font-family="Arial, PingFang SC, Microsoft YaHei, sans-serif" fill="#222">分产品收入变化图</text>
<rect x="40" y="60" width="22" height="10" fill="#4E79A7"/>
<text x="68" y="70" font-size="16" font-family="Arial, PingFang SC, Microsoft YaHei, sans-serif" fill="#333">半导体设计及销售(行业)</text>
<rect x="210" y="60" width="22" height="10" fill="#F28E2B"/>
<text x="238" y="70" font-size="16" font-family="Arial, PingFang SC, Microsoft YaHei, sans-serif" fill="#333">国外</text>
<rect x="380" y="60" width="22" height="10" fill="#E15759"/>
<text x="408" y="70" font-size="16" font-family="Arial, PingFang SC, Microsoft YaHei, sans-serif" fill="#333">CMOS图像传感器</text>
<rect x="550" y="60" width="22" height="10" fill="#76B7B2"/>
<text x="578" y="70" font-size="16" font-family="Arial, PingFang SC, Microsoft YaHei, sans-serif" fill="#333">代理销售</text>
<rect x="720" y="60" width="22" height="10" fill="#59A14F"/>
<text x="748" y="70" font-size="16" font-family="Arial, PingFang SC, Microsoft YaHei, sans-serif" fill="#333">代理销售业务(行业)</text>
<line x1="90" y1="130" x2="90" y2="630" stroke="#555" stroke-width="1"/>
<line x1="90" y1="630.0" x2="1130" y2="630.0" stroke="#555" stroke-width="1"/>
<line x1="90" y1="630.0" x2="1130" y2="630.0" stroke="#eee" stroke-width="1"/>
<text x="78" y="635.0" text-anchor="end" font-size="14" font-family="Arial, PingFang SC, Microsoft YaHei, sans-serif" fill="#666">0.00</text>
<line x1="90" y1="530.0" x2="1130" y2="530.0" stroke="#eee" stroke-width="1"/>
<text x="78" y="535.0" text-anchor="end" font-size="14" font-family="Arial, PingFang SC, Microsoft YaHei, sans-serif" fill="#666">71.08</text>
<line x1="90" y1="430.0" x2="1130" y2="430.0" stroke="#eee" stroke-width="1"/>
<text x="78" y="435.0" text-anchor="end" font-size="14" font-family="Arial, PingFang SC, Microsoft YaHei, sans-serif" fill="#666">142.16</text>
<line x1="90" y1="330.0" x2="1130" y2="330.0" stroke="#eee" stroke-width="1"/>
<text x="78" y="335.0" text-anchor="end" font-size="14" font-family="Arial, PingFang SC, Microsoft YaHei, sans-serif" fill="#666">213.24</text>
<line x1="90" y1="229.99999999999997" x2="1130" y2="229.99999999999997" stroke="#eee" stroke-width="1"/>
<text x="78" y="234.99999999999997" text-anchor="end" font-size="14" font-family="Arial, PingFang SC, Microsoft YaHei, sans-serif" fill="#666">284.32</text>
<line x1="90" y1="130.0" x2="1130" y2="130.0" stroke="#eee" stroke-width="1"/>
<text x="78" y="135.0" text-anchor="end" font-size="14" font-family="Arial, PingFang SC, Microsoft YaHei, sans-serif" fill="#666">355.40</text>
<text x="194.0" y="658" text-anchor="middle" font-size="14" font-family="Arial, PingFang SC, Microsoft YaHei, sans-serif" fill="#666">2021</text>
<text x="402.0" y="658" text-anchor="middle" font-size="14" font-family="Arial, PingFang SC, Microsoft YaHei, sans-serif" fill="#666">2022</text>
<text x="610.0" y="658" text-anchor="middle" font-size="14" font-family="Arial, PingFang SC, Microsoft YaHei, sans-serif" fill="#666">2023</text>
<text x="818.0" y="658" text-anchor="middle" font-size="14" font-family="Arial, PingFang SC, Microsoft YaHei, sans-serif" fill="#666">2024</text>
<text x="1026.0" y="658" text-anchor="middle" font-size="14" font-family="Arial, PingFang SC, Microsoft YaHei, sans-serif" fill="#666">2025</text>
<rect x="123.28" y="194.27" width="26.02" height="435.73" fill="#4E79A7" opacity="0.85"/>
<rect x="331.28" y="270.66" width="26.02" height="359.34" fill="#4E79A7" opacity="0.85"/>
<rect x="539.28" y="273.33" width="26.02" height="356.67" fill="#4E79A7" opacity="0.85"/>
<rect x="747.28" y="177.95" width="26.02" height="452.05" fill="#4E79A7" opacity="0.85"/>
<rect x="955.28" y="130.00" width="26.02" height="500.00" fill="#4E79A7" opacity="0.85"/>
<rect x="151.57" y="345.35" width="26.02" height="284.65" fill="#F28E2B" opacity="0.85"/>
<rect x="359.57" y="399.44" width="26.02" height="230.56" fill="#F28E2B" opacity="0.85"/>
<rect x="567.57" y="372.11" width="26.02" height="257.89" fill="#F28E2B" opacity="0.85"/>
<rect x="775.57" y="335.09" width="26.02" height="294.91" fill="#F28E2B" opacity="0.85"/>
<rect x="983.57" y="305.55" width="26.02" height="324.45" fill="#F28E2B" opacity="0.85"/>
<rect x="179.86" y="401.19" width="26.02" height="228.81" fill="#E15759" opacity="0.85"/>
<rect x="387.86" y="454.40" width="26.02" height="175.60" fill="#E15759" opacity="0.85"/>
<rect x="595.86" y="411.43" width="26.02" height="218.57" fill="#E15759" opacity="0.85"/>
<rect x="803.86" y="360.02" width="26.02" height="269.98" fill="#E15759" opacity="0.85"/>
<rect x="1011.86" y="331.10" width="26.02" height="298.90" fill="#E15759" opacity="0.85"/>
<rect x="208.14" y="578.51" width="26.02" height="51.49" fill="#76B7B2" opacity="0.85"/>
<rect x="416.14" y="579.85" width="26.02" height="50.15" fill="#76B7B2" opacity="0.85"/>
<rect x="624.14" y="588.22" width="26.02" height="41.78" fill="#76B7B2" opacity="0.85"/>
<rect x="832.14" y="574.58" width="26.02" height="55.42" fill="#76B7B2" opacity="0.85"/>
<rect x="1040.14" y="560.99" width="26.02" height="69.01" fill="#76B7B2" opacity="0.85"/>
<rect x="236.43" y="531.94" width="26.02" height="98.06" fill="#59A14F" opacity="0.85"/>
<rect x="444.43" y="539.90" width="26.02" height="90.10" fill="#59A14F" opacity="0.85"/>
<rect x="652.43" y="558.71" width="26.02" height="71.29" fill="#59A14F" opacity="0.85"/>
<rect x="860.43" y="534.91" width="26.02" height="95.09" fill="#59A14F" opacity="0.85"/>
<rect x="1068.43" y="498.49" width="26.02" height="131.51" fill="#59A14F" opacity="0.85"/>
</svg>