<svg xmlns="http://www.w3.org/2000/svg" width="1200" height="720" viewBox="0 0 1200 720">
<rect x="0" y="0" width="100%" height="100%" fill="#ffffff"/>
<text x="40" y="42" font-size="26" font-family="Arial, PingFang SC, Microsoft YaHei, sans-serif" fill="#222">分产品利润结构图</text>
<rect x="40" y="60" width="22" height="10" fill="#4E79A7"/>
<text x="68" y="70" font-size="16" font-family="Arial, PingFang SC, Microsoft YaHei, sans-serif" fill="#333">利润</text>
<rect x="210" y="60" width="22" height="10" fill="#F28E2B"/>
<text x="238" y="70" font-size="16" font-family="Arial, PingFang SC, Microsoft YaHei, sans-serif" fill="#333">毛利率</text>
<line x1="90" y1="130" x2="90" y2="630" stroke="#555" stroke-width="1"/>
<line x1="90" y1="630.0" x2="1130" y2="630.0" stroke="#555" stroke-width="1"/>
<line x1="90" y1="630.0" x2="1130" y2="630.0" stroke="#eee" stroke-width="1"/>
<text x="78" y="635.0" text-anchor="end" font-size="14" font-family="Arial, PingFang SC, Microsoft YaHei, sans-serif" fill="#666">0.00</text>
<line x1="90" y1="530.0" x2="1130" y2="530.0" stroke="#eee" stroke-width="1"/>
<text x="78" y="535.0" text-anchor="end" font-size="14" font-family="Arial, PingFang SC, Microsoft YaHei, sans-serif" fill="#666">19.54</text>
<line x1="90" y1="430.0" x2="1130" y2="430.0" stroke="#eee" stroke-width="1"/>
<text x="78" y="435.0" text-anchor="end" font-size="14" font-family="Arial, PingFang SC, Microsoft YaHei, sans-serif" fill="#666">39.08</text>
<line x1="90" y1="330.0" x2="1130" y2="330.0" stroke="#eee" stroke-width="1"/>
<text x="78" y="335.0" text-anchor="end" font-size="14" font-family="Arial, PingFang SC, Microsoft YaHei, sans-serif" fill="#666">58.62</text>
<line x1="90" y1="230.00000000000003" x2="1130" y2="230.00000000000003" stroke="#eee" stroke-width="1"/>
<text x="78" y="235.00000000000003" text-anchor="end" font-size="14" font-family="Arial, PingFang SC, Microsoft YaHei, sans-serif" fill="#666">78.16</text>
<line x1="90" y1="130.0" x2="1130" y2="130.0" stroke="#eee" stroke-width="1"/>
<text x="78" y="135.0" text-anchor="end" font-size="14" font-family="Arial, PingFang SC, Microsoft YaHei, sans-serif" fill="#666">97.70</text>
<text x="155.0" y="658" text-anchor="middle" font-size="14" font-family="Arial, PingFang SC, Microsoft YaHei, sans-serif" fill="#666">半导体设计及销售(行业)</text>
<text x="285.0" y="658" text-anchor="middle" font-size="14" font-family="Arial, PingFang SC, Microsoft YaHei, sans-serif" fill="#666">国外</text>
<text x="415.0" y="658" text-anchor="middle" font-size="14" font-family="Arial, PingFang SC, Microsoft YaHei, sans-serif" fill="#666">CMOS图像传感器</text>
<text x="545.0" y="658" text-anchor="middle" font-size="14" font-family="Arial, PingFang SC, Microsoft YaHei, sans-serif" fill="#666">代理销售</text>
<text x="675.0" y="658" text-anchor="middle" font-size="14" font-family="Arial, PingFang SC, Microsoft YaHei, sans-serif" fill="#666">代理销售业务(行业)</text>
<text x="805.0" y="658" text-anchor="middle" font-size="14" font-family="Arial, PingFang SC, Microsoft YaHei, sans-serif" fill="#666">解决方案产品</text>
<text x="935.0" y="658" text-anchor="middle" font-size="14" font-family="Arial, PingFang SC, Microsoft YaHei, sans-serif" fill="#666">触控与显示产品</text>
<text x="1065.0" y="658" text-anchor="middle" font-size="14" font-family="Arial, PingFang SC, Microsoft YaHei, sans-serif" fill="#666">半导体产品设计</text>
<rect x="110.80" y="204.10" width="81.33" height="425.90" fill="#4E79A7" opacity="0.85"/>
<rect x="240.80" y="238.24" width="81.33" height="391.76" fill="#4E79A7" opacity="0.85"/>
<rect x="370.80" y="238.80" width="81.33" height="391.20" fill="#4E79A7" opacity="0.85"/>
<rect x="500.80" y="610.30" width="81.33" height="19.70" fill="#4E79A7" opacity="0.85"/>
<rect x="630.80" y="610.30" width="81.33" height="19.70" fill="#4E79A7" opacity="0.85"/>
<rect x="760.80" y="602.16" width="81.33" height="27.84" fill="#4E79A7" opacity="0.85"/>
<rect x="890.80" y="623.09" width="81.33" height="6.91" fill="#4E79A7" opacity="0.85"/>
<rect x="1020.80" y="624.52" width="81.33" height="5.48" fill="#4E79A7" opacity="0.85"/>
<polyline fill="none" stroke="#F28E2B" stroke-width="3" points="155.00,451.03 285.00,460.09 415.00,445.86 545.00,589.83 675.00,589.83 805.00,457.48 935.00,556.87 1065.00,130.00"/>
<circle cx="155.00" cy="451.03" r="4" fill="#F28E2B"/>
<circle cx="285.00" cy="460.09" r="4" fill="#F28E2B"/>
<circle cx="415.00" cy="445.86" r="4" fill="#F28E2B"/>
<circle cx="545.00" cy="589.83" r="4" fill="#F28E2B"/>
<circle cx="675.00" cy="589.83" r="4" fill="#F28E2B"/>
<circle cx="805.00" cy="457.48" r="4" fill="#F28E2B"/>
<circle cx="935.00" cy="556.87" r="4" fill="#F28E2B"/>
<circle cx="1065.00" cy="130.00" r="4" fill="#F28E2B"/>
</svg>