<svg xmlns="http://www.w3.org/2000/svg" width="1200" height="720" viewBox="0 0 1200 720">
<rect x="0" y="0" width="100%" height="100%" fill="#ffffff"/>
<text x="40" y="42" font-size="26" font-family="Arial, PingFang SC, Microsoft YaHei, sans-serif" fill="#222">财务比率分析图</text>
<rect x="40" y="60" width="22" height="10" fill="#4E79A7"/>
<text x="68" y="70" font-size="16" font-family="Arial, PingFang SC, Microsoft YaHei, sans-serif" fill="#333">资产负债率</text>
<rect x="210" y="60" width="22" height="10" fill="#F28E2B"/>
<text x="238" y="70" font-size="16" font-family="Arial, PingFang SC, Microsoft YaHei, sans-serif" fill="#333">流动比率</text>
<rect x="380" y="60" width="22" height="10" fill="#E15759"/>
<text x="408" y="70" font-size="16" font-family="Arial, PingFang SC, Microsoft YaHei, sans-serif" fill="#333">速动比率</text>
<rect x="550" y="60" width="22" height="10" fill="#76B7B2"/>
<text x="578" y="70" font-size="16" font-family="Arial, PingFang SC, Microsoft YaHei, sans-serif" fill="#333">应收周转率</text>
<rect x="720" y="60" width="22" height="10" fill="#59A14F"/>
<text x="748" y="70" font-size="16" font-family="Arial, PingFang SC, Microsoft YaHei, sans-serif" fill="#333">存货周转率</text>
<line x1="90" y1="130" x2="90" y2="630" stroke="#555" stroke-width="1"/>
<line x1="90" y1="630.0" x2="1130" y2="630.0" stroke="#555" stroke-width="1"/>
<line x1="90" y1="630.0" x2="1130" y2="630.0" stroke="#eee" stroke-width="1"/>
<text x="78" y="635.0" text-anchor="end" font-size="14" font-family="Arial, PingFang SC, Microsoft YaHei, sans-serif" fill="#666">0.00</text>
<line x1="90" y1="530.0" x2="1130" y2="530.0" stroke="#eee" stroke-width="1"/>
<text x="78" y="535.0" text-anchor="end" font-size="14" font-family="Arial, PingFang SC, Microsoft YaHei, sans-serif" fill="#666">12.72</text>
<line x1="90" y1="430.0" x2="1130" y2="430.0" stroke="#eee" stroke-width="1"/>
<text x="78" y="435.0" text-anchor="end" font-size="14" font-family="Arial, PingFang SC, Microsoft YaHei, sans-serif" fill="#666">25.44</text>
<line x1="90" y1="330.0" x2="1130" y2="330.0" stroke="#eee" stroke-width="1"/>
<text x="78" y="335.0" text-anchor="end" font-size="14" font-family="Arial, PingFang SC, Microsoft YaHei, sans-serif" fill="#666">38.17</text>
<line x1="90" y1="230.0" x2="1130" y2="230.0" stroke="#eee" stroke-width="1"/>
<text x="78" y="235.0" text-anchor="end" font-size="14" font-family="Arial, PingFang SC, Microsoft YaHei, sans-serif" fill="#666">50.89</text>
<line x1="90" y1="130.0" x2="1130" y2="130.0" stroke="#eee" stroke-width="1"/>
<text x="78" y="135.0" text-anchor="end" font-size="14" font-family="Arial, PingFang SC, Microsoft YaHei, sans-serif" fill="#666">63.61</text>
<text x="194.0" y="658" text-anchor="middle" font-size="14" font-family="Arial, PingFang SC, Microsoft YaHei, sans-serif" fill="#666">2021</text>
<text x="402.0" y="658" text-anchor="middle" font-size="14" font-family="Arial, PingFang SC, Microsoft YaHei, sans-serif" fill="#666">2022</text>
<text x="610.0" y="658" text-anchor="middle" font-size="14" font-family="Arial, PingFang SC, Microsoft YaHei, sans-serif" fill="#666">2023</text>
<text x="818.0" y="658" text-anchor="middle" font-size="14" font-family="Arial, PingFang SC, Microsoft YaHei, sans-serif" fill="#666">2024</text>
<text x="1026.0" y="658" text-anchor="middle" font-size="14" font-family="Arial, PingFang SC, Microsoft YaHei, sans-serif" fill="#666">2025</text>
<rect x="123.28" y="606.03" width="65.06" height="23.97" fill="#4E79A7" opacity="0.85"/>
<rect x="331.28" y="598.64" width="65.06" height="31.36" fill="#4E79A7" opacity="0.85"/>
<rect x="539.28" y="598.01" width="65.06" height="31.99" fill="#4E79A7" opacity="0.85"/>
<rect x="747.28" y="595.73" width="65.06" height="34.27" fill="#4E79A7" opacity="0.85"/>
<rect x="955.28" y="586.77" width="65.06" height="43.23" fill="#4E79A7" opacity="0.85"/>
<rect x="194.00" y="628.66" width="65.06" height="1.34" fill="#F28E2B" opacity="0.85"/>
<rect x="402.00" y="627.25" width="65.06" height="2.75" fill="#F28E2B" opacity="0.85"/>
<rect x="610.00" y="627.80" width="65.06" height="2.20" fill="#F28E2B" opacity="0.85"/>
<rect x="818.00" y="628.03" width="65.06" height="1.97" fill="#F28E2B" opacity="0.85"/>
<rect x="1026.00" y="626.54" width="65.06" height="3.46" fill="#F28E2B" opacity="0.85"/>
<polyline fill="none" stroke="#E15759" stroke-width="3" points="194.00,408.10 402.00,214.97 610.00,291.77 818.00,171.66 1026.00,130.00"/>
<circle cx="194.00" cy="408.10" r="4" fill="#E15759"/>
<circle cx="402.00" cy="214.97" r="4" fill="#E15759"/>
<circle cx="610.00" cy="291.77" r="4" fill="#E15759"/>
<circle cx="818.00" cy="171.66" r="4" fill="#E15759"/>
<circle cx="1026.00" cy="130.00" r="4" fill="#E15759"/>
<polyline fill="none" stroke="#76B7B2" stroke-width="3" points="194.00,601.00 402.00,616.09 610.00,612.55 818.00,615.22 1026.00,616.56"/>
<circle cx="194.00" cy="601.00" r="4" fill="#76B7B2"/>
<circle cx="402.00" cy="616.09" r="4" fill="#76B7B2"/>
<circle cx="610.00" cy="612.55" r="4" fill="#76B7B2"/>
<circle cx="818.00" cy="615.22" r="4" fill="#76B7B2"/>
<circle cx="1026.00" cy="616.56" r="4" fill="#76B7B2"/>
<polyline fill="none" stroke="#59A14F" stroke-width="3" points="194.00,602.10 402.00,617.11 610.00,613.34 818.00,616.32 1026.00,617.50"/>
<circle cx="194.00" cy="602.10" r="4" fill="#59A14F"/>
<circle cx="402.00" cy="617.11" r="4" fill="#59A14F"/>
<circle cx="610.00" cy="613.34" r="4" fill="#59A14F"/>
<circle cx="818.00" cy="616.32" r="4" fill="#59A14F"/>
<circle cx="1026.00" cy="617.50" r="4" fill="#59A14F"/>
</svg>