<svg xmlns="http://www.w3.org/2000/svg" width="1200" height="720" viewBox="0 0 1200 720">
<rect x="0" y="0" width="100%" height="100%" fill="#ffffff"/>
<text x="40" y="42" font-size="26" font-family="Arial, PingFang SC, Microsoft YaHei, sans-serif" fill="#222">财务比率分析图</text>
<rect x="40" y="60" width="22" height="10" fill="#4E79A7"/>
<text x="68" y="70" font-size="16" font-family="Arial, PingFang SC, Microsoft YaHei, sans-serif" fill="#333">资产负债率</text>
<rect x="210" y="60" width="22" height="10" fill="#F28E2B"/>
<text x="238" y="70" font-size="16" font-family="Arial, PingFang SC, Microsoft YaHei, sans-serif" fill="#333">流动比率</text>
<rect x="380" y="60" width="22" height="10" fill="#E15759"/>
<text x="408" y="70" font-size="16" font-family="Arial, PingFang SC, Microsoft YaHei, sans-serif" fill="#333">速动比率</text>
<rect x="550" y="60" width="22" height="10" fill="#76B7B2"/>
<text x="578" y="70" font-size="16" font-family="Arial, PingFang SC, Microsoft YaHei, sans-serif" fill="#333">应收周转率</text>
<rect x="720" y="60" width="22" height="10" fill="#59A14F"/>
<text x="748" y="70" font-size="16" font-family="Arial, PingFang SC, Microsoft YaHei, sans-serif" fill="#333">存货周转率</text>
<line x1="90" y1="130" x2="90" y2="630" stroke="#555" stroke-width="1"/>
<line x1="90" y1="630.0" x2="1130" y2="630.0" stroke="#555" stroke-width="1"/>
<line x1="90" y1="630.0" x2="1130" y2="630.0" stroke="#eee" stroke-width="1"/>
<text x="78" y="635.0" text-anchor="end" font-size="14" font-family="Arial, PingFang SC, Microsoft YaHei, sans-serif" fill="#666">0.00</text>
<line x1="90" y1="530.0" x2="1130" y2="530.0" stroke="#eee" stroke-width="1"/>
<text x="78" y="535.0" text-anchor="end" font-size="14" font-family="Arial, PingFang SC, Microsoft YaHei, sans-serif" fill="#666">9.68</text>
<line x1="90" y1="430.0" x2="1130" y2="430.0" stroke="#eee" stroke-width="1"/>
<text x="78" y="435.0" text-anchor="end" font-size="14" font-family="Arial, PingFang SC, Microsoft YaHei, sans-serif" fill="#666">19.36</text>
<line x1="90" y1="330.0" x2="1130" y2="330.0" stroke="#eee" stroke-width="1"/>
<text x="78" y="335.0" text-anchor="end" font-size="14" font-family="Arial, PingFang SC, Microsoft YaHei, sans-serif" fill="#666">29.04</text>
<line x1="90" y1="230.0" x2="1130" y2="230.0" stroke="#eee" stroke-width="1"/>
<text x="78" y="235.0" text-anchor="end" font-size="14" font-family="Arial, PingFang SC, Microsoft YaHei, sans-serif" fill="#666">38.72</text>
<line x1="90" y1="130.0" x2="1130" y2="130.0" stroke="#eee" stroke-width="1"/>
<text x="78" y="135.0" text-anchor="end" font-size="14" font-family="Arial, PingFang SC, Microsoft YaHei, sans-serif" fill="#666">48.40</text>
<text x="194.0" y="658" text-anchor="middle" font-size="14" font-family="Arial, PingFang SC, Microsoft YaHei, sans-serif" fill="#666">2021</text>
<text x="402.0" y="658" text-anchor="middle" font-size="14" font-family="Arial, PingFang SC, Microsoft YaHei, sans-serif" fill="#666">2022</text>
<text x="610.0" y="658" text-anchor="middle" font-size="14" font-family="Arial, PingFang SC, Microsoft YaHei, sans-serif" fill="#666">2023</text>
<text x="818.0" y="658" text-anchor="middle" font-size="14" font-family="Arial, PingFang SC, Microsoft YaHei, sans-serif" fill="#666">2024</text>
<text x="1026.0" y="658" text-anchor="middle" font-size="14" font-family="Arial, PingFang SC, Microsoft YaHei, sans-serif" fill="#666">2025</text>
<rect x="123.28" y="527.62" width="65.06" height="102.38" fill="#4E79A7" opacity="0.85"/>
<rect x="331.28" y="536.61" width="65.06" height="93.39" fill="#4E79A7" opacity="0.85"/>
<rect x="539.28" y="530.41" width="65.06" height="99.59" fill="#4E79A7" opacity="0.85"/>
<rect x="747.28" y="538.78" width="65.06" height="91.22" fill="#4E79A7" opacity="0.85"/>
<rect x="955.28" y="534.75" width="65.06" height="95.25" fill="#4E79A7" opacity="0.85"/>
<rect x="194.00" y="602.21" width="65.06" height="27.79" fill="#F28E2B" opacity="0.85"/>
<rect x="402.00" y="607.69" width="65.06" height="22.31" fill="#F28E2B" opacity="0.85"/>
<rect x="610.00" y="599.32" width="65.06" height="30.68" fill="#F28E2B" opacity="0.85"/>
<rect x="818.00" y="600.04" width="65.06" height="29.96" fill="#F28E2B" opacity="0.85"/>
<rect x="1026.00" y="602.31" width="65.06" height="27.69" fill="#F28E2B" opacity="0.85"/>
<polyline fill="none" stroke="#E15759" stroke-width="3" points="194.00,130.00 402.00,330.62 610.00,306.14 818.00,337.44 1026.00,267.09"/>
<circle cx="194.00" cy="130.00" r="4" fill="#E15759"/>
<circle cx="402.00" cy="330.62" r="4" fill="#E15759"/>
<circle cx="610.00" cy="306.14" r="4" fill="#E15759"/>
<circle cx="818.00" cy="337.44" r="4" fill="#E15759"/>
<circle cx="1026.00" cy="267.09" r="4" fill="#E15759"/>
<polyline fill="none" stroke="#76B7B2" stroke-width="3" points="194.00,608.62 402.00,605.83 610.00,611.71 818.00,612.44 1026.00,618.43"/>
<circle cx="194.00" cy="608.62" r="4" fill="#76B7B2"/>
<circle cx="402.00" cy="605.83" r="4" fill="#76B7B2"/>
<circle cx="610.00" cy="611.71" r="4" fill="#76B7B2"/>
<circle cx="818.00" cy="612.44" r="4" fill="#76B7B2"/>
<circle cx="1026.00" cy="618.43" r="4" fill="#76B7B2"/>
<polyline fill="none" stroke="#59A14F" stroke-width="3" points="194.00,616.78 402.00,616.16 610.00,618.02 818.00,619.57 1026.00,624.11"/>
<circle cx="194.00" cy="616.78" r="4" fill="#59A14F"/>
<circle cx="402.00" cy="616.16" r="4" fill="#59A14F"/>
<circle cx="610.00" cy="618.02" r="4" fill="#59A14F"/>
<circle cx="818.00" cy="619.57" r="4" fill="#59A14F"/>
<circle cx="1026.00" cy="624.11" r="4" fill="#59A14F"/>
</svg>