<svg xmlns="http://www.w3.org/2000/svg" width="1200" height="720" viewBox="0 0 1200 720">
<rect x="0" y="0" width="100%" height="100%" fill="#ffffff"/>
<text x="40" y="42" font-size="26" font-family="Arial, PingFang SC, Microsoft YaHei, sans-serif" fill="#222">分产品收入变化图</text>
<rect x="40" y="60" width="22" height="10" fill="#4E79A7"/>
<text x="68" y="70" font-size="16" font-family="Arial, PingFang SC, Microsoft YaHei, sans-serif" fill="#333">通用设备制造业</text>
<rect x="210" y="60" width="22" height="10" fill="#F28E2B"/>
<text x="238" y="70" font-size="16" font-family="Arial, PingFang SC, Microsoft YaHei, sans-serif" fill="#333">智能执行单元</text>
<rect x="380" y="60" width="22" height="10" fill="#E15759"/>
<text x="408" y="70" font-size="16" font-family="Arial, PingFang SC, Microsoft YaHei, sans-serif" fill="#333">减速电机</text>
<rect x="550" y="60" width="22" height="10" fill="#76B7B2"/>
<text x="578" y="70" font-size="16" font-family="Arial, PingFang SC, Microsoft YaHei, sans-serif" fill="#333">精密减速器</text>
<rect x="720" y="60" width="22" height="10" fill="#59A14F"/>
<text x="748" y="70" font-size="16" font-family="Arial, PingFang SC, Microsoft YaHei, sans-serif" fill="#333">国外</text>
<line x1="90" y1="130" x2="90" y2="630" stroke="#555" stroke-width="1"/>
<line x1="90" y1="630.0" x2="1130" y2="630.0" stroke="#555" stroke-width="1"/>
<line x1="90" y1="630.0" x2="1130" y2="630.0" stroke="#eee" stroke-width="1"/>
<text x="78" y="635.0" text-anchor="end" font-size="14" font-family="Arial, PingFang SC, Microsoft YaHei, sans-serif" fill="#666">0.00</text>
<line x1="90" y1="530.0" x2="1130" y2="530.0" stroke="#eee" stroke-width="1"/>
<text x="78" y="535.0" text-anchor="end" font-size="14" font-family="Arial, PingFang SC, Microsoft YaHei, sans-serif" fill="#666">3.25</text>
<line x1="90" y1="430.0" x2="1130" y2="430.0" stroke="#eee" stroke-width="1"/>
<text x="78" y="435.0" text-anchor="end" font-size="14" font-family="Arial, PingFang SC, Microsoft YaHei, sans-serif" fill="#666">6.50</text>
<line x1="90" y1="330.0" x2="1130" y2="330.0" stroke="#eee" stroke-width="1"/>
<text x="78" y="335.0" text-anchor="end" font-size="14" font-family="Arial, PingFang SC, Microsoft YaHei, sans-serif" fill="#666">9.76</text>
<line x1="90" y1="230.0" x2="1130" y2="230.0" stroke="#eee" stroke-width="1"/>
<text x="78" y="235.0" text-anchor="end" font-size="14" font-family="Arial, PingFang SC, Microsoft YaHei, sans-serif" fill="#666">13.01</text>
<line x1="90" y1="130.0" x2="1130" y2="130.0" stroke="#eee" stroke-width="1"/>
<text x="78" y="135.0" text-anchor="end" font-size="14" font-family="Arial, PingFang SC, Microsoft YaHei, sans-serif" fill="#666">16.26</text>
<text x="194.0" y="658" text-anchor="middle" font-size="14" font-family="Arial, PingFang SC, Microsoft YaHei, sans-serif" fill="#666">2021</text>
<text x="402.0" y="658" text-anchor="middle" font-size="14" font-family="Arial, PingFang SC, Microsoft YaHei, sans-serif" fill="#666">2022</text>
<text x="610.0" y="658" text-anchor="middle" font-size="14" font-family="Arial, PingFang SC, Microsoft YaHei, sans-serif" fill="#666">2023</text>
<text x="818.0" y="658" text-anchor="middle" font-size="14" font-family="Arial, PingFang SC, Microsoft YaHei, sans-serif" fill="#666">2024</text>
<text x="1026.0" y="658" text-anchor="middle" font-size="14" font-family="Arial, PingFang SC, Microsoft YaHei, sans-serif" fill="#666">2025</text>
<rect x="123.28" y="185.66" width="26.02" height="444.34" fill="#4E79A7" opacity="0.85"/>
<rect x="331.28" y="214.56" width="26.02" height="415.44" fill="#4E79A7" opacity="0.85"/>
<rect x="539.28" y="130.00" width="26.02" height="500.00" fill="#4E79A7" opacity="0.85"/>
<rect x="747.28" y="174.28" width="26.02" height="455.72" fill="#4E79A7" opacity="0.85"/>
<rect x="955.28" y="151.22" width="26.02" height="478.78" fill="#4E79A7" opacity="0.85"/>
<rect x="151.57" y="584.80" width="26.02" height="45.20" fill="#F28E2B" opacity="0.85"/>
<rect x="359.57" y="494.39" width="26.02" height="135.61" fill="#F28E2B" opacity="0.85"/>
<rect x="567.57" y="406.75" width="26.02" height="223.25" fill="#F28E2B" opacity="0.85"/>
<rect x="775.57" y="452.88" width="26.02" height="177.12" fill="#F28E2B" opacity="0.85"/>
<rect x="983.57" y="448.57" width="26.02" height="181.43" fill="#F28E2B" opacity="0.85"/>
<rect x="179.86" y="355.40" width="26.02" height="274.60" fill="#E15759" opacity="0.85"/>
<rect x="387.86" y="453.49" width="26.02" height="176.51" fill="#E15759" opacity="0.85"/>
<rect x="595.86" y="473.17" width="26.02" height="156.83" fill="#E15759" opacity="0.85"/>
<rect x="803.86" y="473.17" width="26.02" height="156.83" fill="#E15759" opacity="0.85"/>
<rect x="1011.86" y="456.57" width="26.02" height="173.43" fill="#E15759" opacity="0.85"/>
<rect x="208.14" y="551.89" width="26.02" height="78.11" fill="#76B7B2" opacity="0.85"/>
<rect x="416.14" y="533.14" width="26.02" height="96.86" fill="#76B7B2" opacity="0.85"/>
<rect x="624.14" y="518.38" width="26.02" height="111.62" fill="#76B7B2" opacity="0.85"/>
<rect x="832.14" y="516.53" width="26.02" height="113.47" fill="#76B7B2" opacity="0.85"/>
<rect x="1040.14" y="516.84" width="26.02" height="113.16" fill="#76B7B2" opacity="0.85"/>
<rect x="236.43" y="598.63" width="26.02" height="31.37" fill="#59A14F" opacity="0.85"/>
<rect x="444.43" y="586.95" width="26.02" height="43.05" fill="#59A14F" opacity="0.85"/>
<rect x="652.43" y="601.71" width="26.02" height="28.29" fill="#59A14F" opacity="0.85"/>
<rect x="860.43" y="600.17" width="26.02" height="29.83" fill="#59A14F" opacity="0.85"/>
<rect x="1068.43" y="585.10" width="26.02" height="44.90" fill="#59A14F" opacity="0.85"/>
</svg>