<svg xmlns="http://www.w3.org/2000/svg" width="1200" height="720" viewBox="0 0 1200 720">
<rect x="0" y="0" width="100%" height="100%" fill="#ffffff"/>
<text x="40" y="42" font-size="26" font-family="Arial, PingFang SC, Microsoft YaHei, sans-serif" fill="#222">财务比率分析图</text>
<rect x="40" y="60" width="22" height="10" fill="#4E79A7"/>
<text x="68" y="70" font-size="16" font-family="Arial, PingFang SC, Microsoft YaHei, sans-serif" fill="#333">资产负债率</text>
<rect x="210" y="60" width="22" height="10" fill="#F28E2B"/>
<text x="238" y="70" font-size="16" font-family="Arial, PingFang SC, Microsoft YaHei, sans-serif" fill="#333">流动比率</text>
<rect x="380" y="60" width="22" height="10" fill="#E15759"/>
<text x="408" y="70" font-size="16" font-family="Arial, PingFang SC, Microsoft YaHei, sans-serif" fill="#333">速动比率</text>
<rect x="550" y="60" width="22" height="10" fill="#76B7B2"/>
<text x="578" y="70" font-size="16" font-family="Arial, PingFang SC, Microsoft YaHei, sans-serif" fill="#333">应收周转率</text>
<rect x="720" y="60" width="22" height="10" fill="#59A14F"/>
<text x="748" y="70" font-size="16" font-family="Arial, PingFang SC, Microsoft YaHei, sans-serif" fill="#333">存货周转率</text>
<line x1="90" y1="130" x2="90" y2="630" stroke="#555" stroke-width="1"/>
<line x1="90" y1="630.0" x2="1130" y2="630.0" stroke="#555" stroke-width="1"/>
<line x1="90" y1="630.0" x2="1130" y2="630.0" stroke="#eee" stroke-width="1"/>
<text x="78" y="635.0" text-anchor="end" font-size="14" font-family="Arial, PingFang SC, Microsoft YaHei, sans-serif" fill="#666">0.00</text>
<line x1="90" y1="530.0" x2="1130" y2="530.0" stroke="#eee" stroke-width="1"/>
<text x="78" y="535.0" text-anchor="end" font-size="14" font-family="Arial, PingFang SC, Microsoft YaHei, sans-serif" fill="#666">8.57</text>
<line x1="90" y1="430.0" x2="1130" y2="430.0" stroke="#eee" stroke-width="1"/>
<text x="78" y="435.0" text-anchor="end" font-size="14" font-family="Arial, PingFang SC, Microsoft YaHei, sans-serif" fill="#666">17.13</text>
<line x1="90" y1="330.0" x2="1130" y2="330.0" stroke="#eee" stroke-width="1"/>
<text x="78" y="335.0" text-anchor="end" font-size="14" font-family="Arial, PingFang SC, Microsoft YaHei, sans-serif" fill="#666">25.70</text>
<line x1="90" y1="230.00000000000003" x2="1130" y2="230.00000000000003" stroke="#eee" stroke-width="1"/>
<text x="78" y="235.00000000000003" text-anchor="end" font-size="14" font-family="Arial, PingFang SC, Microsoft YaHei, sans-serif" fill="#666">34.26</text>
<line x1="90" y1="130.0" x2="1130" y2="130.0" stroke="#eee" stroke-width="1"/>
<text x="78" y="135.0" text-anchor="end" font-size="14" font-family="Arial, PingFang SC, Microsoft YaHei, sans-serif" fill="#666">42.83</text>
<text x="194.0" y="658" text-anchor="middle" font-size="14" font-family="Arial, PingFang SC, Microsoft YaHei, sans-serif" fill="#666">2021</text>
<text x="402.0" y="658" text-anchor="middle" font-size="14" font-family="Arial, PingFang SC, Microsoft YaHei, sans-serif" fill="#666">2022</text>
<text x="610.0" y="658" text-anchor="middle" font-size="14" font-family="Arial, PingFang SC, Microsoft YaHei, sans-serif" fill="#666">2023</text>
<text x="818.0" y="658" text-anchor="middle" font-size="14" font-family="Arial, PingFang SC, Microsoft YaHei, sans-serif" fill="#666">2024</text>
<text x="1026.0" y="658" text-anchor="middle" font-size="14" font-family="Arial, PingFang SC, Microsoft YaHei, sans-serif" fill="#666">2025</text>
<rect x="123.28" y="473.92" width="65.06" height="156.08" fill="#4E79A7" opacity="0.85"/>
<rect x="331.28" y="148.21" width="65.06" height="481.79" fill="#4E79A7" opacity="0.85"/>
<rect x="539.28" y="130.00" width="65.06" height="500.00" fill="#4E79A7" opacity="0.85"/>
<rect x="747.28" y="253.16" width="65.06" height="376.84" fill="#4E79A7" opacity="0.85"/>
<rect x="955.28" y="252.34" width="65.06" height="377.66" fill="#4E79A7" opacity="0.85"/>
<rect x="194.00" y="581.79" width="65.06" height="48.21" fill="#F28E2B" opacity="0.85"/>
<rect x="402.00" y="568.13" width="65.06" height="61.87" fill="#F28E2B" opacity="0.85"/>
<rect x="610.00" y="584.59" width="65.06" height="45.41" fill="#F28E2B" opacity="0.85"/>
<rect x="818.00" y="578.75" width="65.06" height="51.25" fill="#F28E2B" opacity="0.85"/>
<rect x="1026.00" y="578.05" width="65.06" height="51.95" fill="#F28E2B" opacity="0.85"/>
<polyline fill="none" stroke="#E15759" stroke-width="3" points="194.00,471.00 402.00,473.45 610.00,472.40 818.00,507.19 1026.00,478.82"/>
<circle cx="194.00" cy="471.00" r="4" fill="#E15759"/>
<circle cx="402.00" cy="473.45" r="4" fill="#E15759"/>
<circle cx="610.00" cy="472.40" r="4" fill="#E15759"/>
<circle cx="818.00" cy="507.19" r="4" fill="#E15759"/>
<circle cx="1026.00" cy="478.82" r="4" fill="#E15759"/>
<polyline fill="none" stroke="#76B7B2" stroke-width="3" points="194.00,566.73 402.00,561.24 610.00,557.04 818.00,531.94 1026.00,553.18"/>
<circle cx="194.00" cy="566.73" r="4" fill="#76B7B2"/>
<circle cx="402.00" cy="561.24" r="4" fill="#76B7B2"/>
<circle cx="610.00" cy="557.04" r="4" fill="#76B7B2"/>
<circle cx="818.00" cy="531.94" r="4" fill="#76B7B2"/>
<circle cx="1026.00" cy="553.18" r="4" fill="#76B7B2"/>
<polyline fill="none" stroke="#59A14F" stroke-width="3" points="194.00,569.41 402.00,563.11 610.00,558.67 818.00,533.92 1026.00,554.82"/>
<circle cx="194.00" cy="569.41" r="4" fill="#59A14F"/>
<circle cx="402.00" cy="563.11" r="4" fill="#59A14F"/>
<circle cx="610.00" cy="558.67" r="4" fill="#59A14F"/>
<circle cx="818.00" cy="533.92" r="4" fill="#59A14F"/>
<circle cx="1026.00" cy="554.82" r="4" fill="#59A14F"/>
</svg>