<svg xmlns="http://www.w3.org/2000/svg" width="1200" height="720" viewBox="0 0 1200 720">
<rect x="0" y="0" width="100%" height="100%" fill="#ffffff"/>
<text x="40" y="42" font-size="26" font-family="Arial, PingFang SC, Microsoft YaHei, sans-serif" fill="#222">分产品收入变化图</text>
<rect x="40" y="60" width="22" height="10" fill="#4E79A7"/>
<text x="68" y="70" font-size="16" font-family="Arial, PingFang SC, Microsoft YaHei, sans-serif" fill="#333">游戏(行业)</text>
<rect x="210" y="60" width="22" height="10" fill="#F28E2B"/>
<text x="238" y="70" font-size="16" font-family="Arial, PingFang SC, Microsoft YaHei, sans-serif" fill="#333">PC端网络游戏</text>
<rect x="380" y="60" width="22" height="10" fill="#E15759"/>
<text x="408" y="70" font-size="16" font-family="Arial, PingFang SC, Microsoft YaHei, sans-serif" fill="#333">移动网络游戏</text>
<rect x="550" y="60" width="22" height="10" fill="#76B7B2"/>
<text x="578" y="70" font-size="16" font-family="Arial, PingFang SC, Microsoft YaHei, sans-serif" fill="#333">影视剧(行业)</text>
<rect x="720" y="60" width="22" height="10" fill="#59A14F"/>
<text x="748" y="70" font-size="16" font-family="Arial, PingFang SC, Microsoft YaHei, sans-serif" fill="#333">电视剧及短剧</text>
<line x1="90" y1="130" x2="90" y2="630" stroke="#555" stroke-width="1"/>
<line x1="90" y1="630.0" x2="1130" y2="630.0" stroke="#555" stroke-width="1"/>
<line x1="90" y1="630.0" x2="1130" y2="630.0" stroke="#eee" stroke-width="1"/>
<text x="78" y="635.0" text-anchor="end" font-size="14" font-family="Arial, PingFang SC, Microsoft YaHei, sans-serif" fill="#666">0.00</text>
<line x1="90" y1="530.0" x2="1130" y2="530.0" stroke="#eee" stroke-width="1"/>
<text x="78" y="535.0" text-anchor="end" font-size="14" font-family="Arial, PingFang SC, Microsoft YaHei, sans-serif" fill="#666">21.96</text>
<line x1="90" y1="430.0" x2="1130" y2="430.0" stroke="#eee" stroke-width="1"/>
<text x="78" y="435.0" text-anchor="end" font-size="14" font-family="Arial, PingFang SC, Microsoft YaHei, sans-serif" fill="#666">43.92</text>
<line x1="90" y1="330.0" x2="1130" y2="330.0" stroke="#eee" stroke-width="1"/>
<text x="78" y="335.0" text-anchor="end" font-size="14" font-family="Arial, PingFang SC, Microsoft YaHei, sans-serif" fill="#666">65.87</text>
<line x1="90" y1="230.0" x2="1130" y2="230.0" stroke="#eee" stroke-width="1"/>
<text x="78" y="235.0" text-anchor="end" font-size="14" font-family="Arial, PingFang SC, Microsoft YaHei, sans-serif" fill="#666">87.83</text>
<line x1="90" y1="130.0" x2="1130" y2="130.0" stroke="#eee" stroke-width="1"/>
<text x="78" y="135.0" text-anchor="end" font-size="14" font-family="Arial, PingFang SC, Microsoft YaHei, sans-serif" fill="#666">109.79</text>
<text x="194.0" y="658" text-anchor="middle" font-size="14" font-family="Arial, PingFang SC, Microsoft YaHei, sans-serif" fill="#666">2021</text>
<text x="402.0" y="658" text-anchor="middle" font-size="14" font-family="Arial, PingFang SC, Microsoft YaHei, sans-serif" fill="#666">2022</text>
<text x="610.0" y="658" text-anchor="middle" font-size="14" font-family="Arial, PingFang SC, Microsoft YaHei, sans-serif" fill="#666">2023</text>
<text x="818.0" y="658" text-anchor="middle" font-size="14" font-family="Arial, PingFang SC, Microsoft YaHei, sans-serif" fill="#666">2024</text>
<text x="1026.0" y="658" text-anchor="middle" font-size="14" font-family="Arial, PingFang SC, Microsoft YaHei, sans-serif" fill="#666">2025</text>
<rect x="123.28" y="136.79" width="26.02" height="493.21" fill="#4E79A7" opacity="0.85"/>
<rect x="331.28" y="130.00" width="26.02" height="500.00" fill="#4E79A7" opacity="0.85"/>
<rect x="539.28" y="160.33" width="26.02" height="469.67" fill="#4E79A7" opacity="0.85"/>
<rect x="747.28" y="273.36" width="26.02" height="356.64" fill="#4E79A7" opacity="0.85"/>
<rect x="955.28" y="237.57" width="26.02" height="392.43" fill="#4E79A7" opacity="0.85"/>
<rect x="151.57" y="461.13" width="26.02" height="168.87" fill="#F28E2B" opacity="0.85"/>
<rect x="359.57" y="498.79" width="26.02" height="131.21" fill="#F28E2B" opacity="0.85"/>
<rect x="567.57" y="477.30" width="26.02" height="152.70" fill="#F28E2B" opacity="0.85"/>
<rect x="775.57" y="473.11" width="26.02" height="156.89" fill="#F28E2B" opacity="0.85"/>
<rect x="983.57" y="386.49" width="26.02" height="243.51" fill="#F28E2B" opacity="0.85"/>
<rect x="179.86" y="340.13" width="26.02" height="289.87" fill="#E15759" opacity="0.85"/>
<rect x="387.86" y="280.01" width="26.02" height="349.99" fill="#E15759" opacity="0.85"/>
<rect x="595.86" y="337.17" width="26.02" height="292.83" fill="#E15759" opacity="0.85"/>
<rect x="803.86" y="447.93" width="26.02" height="182.07" fill="#E15759" opacity="0.85"/>
<rect x="1011.86" y="492.56" width="26.02" height="137.44" fill="#E15759" opacity="0.85"/>
<rect x="208.14" y="553.40" width="26.02" height="76.60" fill="#76B7B2" opacity="0.85"/>
<rect x="416.14" y="609.92" width="26.02" height="20.08" fill="#76B7B2" opacity="0.85"/>
<rect x="624.14" y="548.07" width="26.02" height="81.93" fill="#76B7B2" opacity="0.85"/>
<rect x="832.14" y="610.01" width="26.02" height="19.99" fill="#76B7B2" opacity="0.85"/>
<rect x="1040.14" y="553.13" width="26.02" height="76.87" fill="#76B7B2" opacity="0.85"/>
<rect x="236.43" y="556.91" width="26.02" height="73.09" fill="#59A14F" opacity="0.85"/>
<rect x="444.43" y="611.51" width="26.02" height="18.49" fill="#59A14F" opacity="0.85"/>
<rect x="652.43" y="549.62" width="26.02" height="80.38" fill="#59A14F" opacity="0.85"/>
<rect x="860.43" y="613.70" width="26.02" height="16.30" fill="#59A14F" opacity="0.85"/>
<rect x="1068.43" y="554.86" width="26.02" height="75.14" fill="#59A14F" opacity="0.85"/>
</svg>