<svg xmlns="http://www.w3.org/2000/svg" width="1200" height="720" viewBox="0 0 1200 720">
<rect x="0" y="0" width="100%" height="100%" fill="#ffffff"/>
<text x="40" y="42" font-size="26" font-family="Arial, PingFang SC, Microsoft YaHei, sans-serif" fill="#222">分产品利润结构图</text>
<rect x="40" y="60" width="22" height="10" fill="#4E79A7"/>
<text x="68" y="70" font-size="16" font-family="Arial, PingFang SC, Microsoft YaHei, sans-serif" fill="#333">利润</text>
<rect x="210" y="60" width="22" height="10" fill="#F28E2B"/>
<text x="238" y="70" font-size="16" font-family="Arial, PingFang SC, Microsoft YaHei, sans-serif" fill="#333">毛利率</text>
<line x1="90" y1="130" x2="90" y2="630" stroke="#555" stroke-width="1"/>
<line x1="90" y1="630.0" x2="1130" y2="630.0" stroke="#555" stroke-width="1"/>
<line x1="90" y1="630.0" x2="1130" y2="630.0" stroke="#eee" stroke-width="1"/>
<text x="78" y="635.0" text-anchor="end" font-size="14" font-family="Arial, PingFang SC, Microsoft YaHei, sans-serif" fill="#666">0.00</text>
<line x1="90" y1="530.0" x2="1130" y2="530.0" stroke="#eee" stroke-width="1"/>
<text x="78" y="535.0" text-anchor="end" font-size="14" font-family="Arial, PingFang SC, Microsoft YaHei, sans-serif" fill="#666">14.72</text>
<line x1="90" y1="430.0" x2="1130" y2="430.0" stroke="#eee" stroke-width="1"/>
<text x="78" y="435.0" text-anchor="end" font-size="14" font-family="Arial, PingFang SC, Microsoft YaHei, sans-serif" fill="#666">29.44</text>
<line x1="90" y1="330.0" x2="1130" y2="330.0" stroke="#eee" stroke-width="1"/>
<text x="78" y="335.0" text-anchor="end" font-size="14" font-family="Arial, PingFang SC, Microsoft YaHei, sans-serif" fill="#666">44.17</text>
<line x1="90" y1="230.0" x2="1130" y2="230.0" stroke="#eee" stroke-width="1"/>
<text x="78" y="235.0" text-anchor="end" font-size="14" font-family="Arial, PingFang SC, Microsoft YaHei, sans-serif" fill="#666">58.89</text>
<line x1="90" y1="130.0" x2="1130" y2="130.0" stroke="#eee" stroke-width="1"/>
<text x="78" y="135.0" text-anchor="end" font-size="14" font-family="Arial, PingFang SC, Microsoft YaHei, sans-serif" fill="#666">73.61</text>
<text x="155.0" y="658" text-anchor="middle" font-size="14" font-family="Arial, PingFang SC, Microsoft YaHei, sans-serif" fill="#666">游戏(行业)</text>
<text x="285.0" y="658" text-anchor="middle" font-size="14" font-family="Arial, PingFang SC, Microsoft YaHei, sans-serif" fill="#666">PC端网络游戏</text>
<text x="415.0" y="658" text-anchor="middle" font-size="14" font-family="Arial, PingFang SC, Microsoft YaHei, sans-serif" fill="#666">移动网络游戏</text>
<text x="545.0" y="658" text-anchor="middle" font-size="14" font-family="Arial, PingFang SC, Microsoft YaHei, sans-serif" fill="#666">影视剧(行业)</text>
<text x="675.0" y="658" text-anchor="middle" font-size="14" font-family="Arial, PingFang SC, Microsoft YaHei, sans-serif" fill="#666">电视剧及短剧</text>
<text x="805.0" y="658" text-anchor="middle" font-size="14" font-family="Arial, PingFang SC, Microsoft YaHei, sans-serif" fill="#666">国外</text>
<text x="935.0" y="658" text-anchor="middle" font-size="14" font-family="Arial, PingFang SC, Microsoft YaHei, sans-serif" fill="#666">游戏相关其他收入</text>
<text x="1065.0" y="658" text-anchor="middle" font-size="14" font-family="Arial, PingFang SC, Microsoft YaHei, sans-serif" fill="#666">主机游戏</text>
<rect x="110.80" y="365.36" width="81.33" height="264.64" fill="#4E79A7" opacity="0.85"/>
<rect x="240.80" y="471.26" width="81.33" height="158.74" fill="#4E79A7" opacity="0.85"/>
<rect x="370.80" y="527.50" width="81.33" height="102.50" fill="#4E79A7" opacity="0.85"/>
<rect x="500.80" y="622.46" width="81.33" height="7.54" fill="#4E79A7" opacity="0.85"/>
<rect x="630.80" y="622.66" width="81.33" height="7.34" fill="#4E79A7" opacity="0.85"/>
<rect x="760.80" y="609.01" width="81.33" height="20.99" fill="#4E79A7" opacity="0.85"/>
<rect x="890.80" y="627.96" width="81.33" height="2.04" fill="#4E79A7" opacity="0.85"/>
<rect x="1020.80" y="628.57" width="81.33" height="1.43" fill="#4E79A7" opacity="0.85"/>
<polyline fill="none" stroke="#F28E2B" stroke-width="3" points="155.00,166.68 285.00,175.85 415.00,130.00 545.00,548.42 675.00,548.83 805.00,145.83 935.00,482.67 1065.00,163.96"/>
<circle cx="155.00" cy="166.68" r="4" fill="#F28E2B"/>
<circle cx="285.00" cy="175.85" r="4" fill="#F28E2B"/>
<circle cx="415.00" cy="130.00" r="4" fill="#F28E2B"/>
<circle cx="545.00" cy="548.42" r="4" fill="#F28E2B"/>
<circle cx="675.00" cy="548.83" r="4" fill="#F28E2B"/>
<circle cx="805.00" cy="145.83" r="4" fill="#F28E2B"/>
<circle cx="935.00" cy="482.67" r="4" fill="#F28E2B"/>
<circle cx="1065.00" cy="163.96" r="4" fill="#F28E2B"/>
</svg>