<svg xmlns="http://www.w3.org/2000/svg" width="1200" height="720" viewBox="0 0 1200 720">
<rect x="0" y="0" width="100%" height="100%" fill="#ffffff"/>
<text x="40" y="42" font-size="26" font-family="Arial, PingFang SC, Microsoft YaHei, sans-serif" fill="#222">分产品收入变化图</text>
<rect x="40" y="60" width="22" height="10" fill="#4E79A7"/>
<text x="68" y="70" font-size="16" font-family="Arial, PingFang SC, Microsoft YaHei, sans-serif" fill="#333">有色金属</text>
<rect x="210" y="60" width="22" height="10" fill="#F28E2B"/>
<text x="238" y="70" font-size="16" font-family="Arial, PingFang SC, Microsoft YaHei, sans-serif" fill="#333">铝加工</text>
<rect x="380" y="60" width="22" height="10" fill="#E15759"/>
<text x="408" y="70" font-size="16" font-family="Arial, PingFang SC, Microsoft YaHei, sans-serif" fill="#333">国外</text>
<rect x="550" y="60" width="22" height="10" fill="#76B7B2"/>
<text x="578" y="70" font-size="16" font-family="Arial, PingFang SC, Microsoft YaHei, sans-serif" fill="#333">电解铝</text>
<rect x="720" y="60" width="22" height="10" fill="#59A14F"/>
<text x="748" y="70" font-size="16" font-family="Arial, PingFang SC, Microsoft YaHei, sans-serif" fill="#333">电力</text>
<line x1="90" y1="130" x2="90" y2="630" stroke="#555" stroke-width="1"/>
<line x1="90" y1="630.0" x2="1130" y2="630.0" stroke="#555" stroke-width="1"/>
<line x1="90" y1="630.0" x2="1130" y2="630.0" stroke="#eee" stroke-width="1"/>
<text x="78" y="635.0" text-anchor="end" font-size="14" font-family="Arial, PingFang SC, Microsoft YaHei, sans-serif" fill="#666">0.00</text>
<line x1="90" y1="530.0" x2="1130" y2="530.0" stroke="#eee" stroke-width="1"/>
<text x="78" y="535.0" text-anchor="end" font-size="14" font-family="Arial, PingFang SC, Microsoft YaHei, sans-serif" fill="#666">63.65</text>
<line x1="90" y1="430.0" x2="1130" y2="430.0" stroke="#eee" stroke-width="1"/>
<text x="78" y="435.0" text-anchor="end" font-size="14" font-family="Arial, PingFang SC, Microsoft YaHei, sans-serif" fill="#666">127.30</text>
<line x1="90" y1="330.0" x2="1130" y2="330.0" stroke="#eee" stroke-width="1"/>
<text x="78" y="335.0" text-anchor="end" font-size="14" font-family="Arial, PingFang SC, Microsoft YaHei, sans-serif" fill="#666">190.95</text>
<line x1="90" y1="230.0" x2="1130" y2="230.0" stroke="#eee" stroke-width="1"/>
<text x="78" y="235.0" text-anchor="end" font-size="14" font-family="Arial, PingFang SC, Microsoft YaHei, sans-serif" fill="#666">254.60</text>
<line x1="90" y1="130.0" x2="1130" y2="130.0" stroke="#eee" stroke-width="1"/>
<text x="78" y="135.0" text-anchor="end" font-size="14" font-family="Arial, PingFang SC, Microsoft YaHei, sans-serif" fill="#666">318.25</text>
<text x="194.0" y="658" text-anchor="middle" font-size="14" font-family="Arial, PingFang SC, Microsoft YaHei, sans-serif" fill="#666">2021</text>
<text x="402.0" y="658" text-anchor="middle" font-size="14" font-family="Arial, PingFang SC, Microsoft YaHei, sans-serif" fill="#666">2022</text>
<text x="610.0" y="658" text-anchor="middle" font-size="14" font-family="Arial, PingFang SC, Microsoft YaHei, sans-serif" fill="#666">2023</text>
<text x="818.0" y="658" text-anchor="middle" font-size="14" font-family="Arial, PingFang SC, Microsoft YaHei, sans-serif" fill="#666">2024</text>
<text x="1026.0" y="658" text-anchor="middle" font-size="14" font-family="Arial, PingFang SC, Microsoft YaHei, sans-serif" fill="#666">2025</text>
<rect x="123.28" y="318.88" width="26.02" height="311.12" fill="#4E79A7" opacity="0.85"/>
<rect x="331.28" y="243.31" width="26.02" height="386.69" fill="#4E79A7" opacity="0.85"/>
<rect x="539.28" y="233.44" width="26.02" height="396.56" fill="#4E79A7" opacity="0.85"/>
<rect x="747.28" y="130.00" width="26.02" height="500.00" fill="#4E79A7" opacity="0.85"/>
<rect x="955.28" y="130.31" width="26.02" height="499.69" fill="#4E79A7" opacity="0.85"/>
<rect x="151.57" y="392.09" width="26.02" height="237.91" fill="#F28E2B" opacity="0.85"/>
<rect x="359.57" y="332.06" width="26.02" height="297.94" fill="#F28E2B" opacity="0.85"/>
<rect x="567.57" y="471.82" width="26.02" height="158.18" fill="#F28E2B" opacity="0.85"/>
<rect x="775.57" y="406.07" width="26.02" height="223.93" fill="#F28E2B" opacity="0.85"/>
<rect x="983.57" y="403.61" width="26.02" height="226.39" fill="#F28E2B" opacity="0.85"/>
<rect x="179.86" y="524.67" width="26.02" height="105.33" fill="#E15759" opacity="0.85"/>
<rect x="387.86" y="444.31" width="26.02" height="185.69" fill="#E15759" opacity="0.85"/>
<rect x="595.86" y="547.19" width="26.02" height="82.81" fill="#E15759" opacity="0.85"/>
<rect x="803.86" y="484.19" width="26.02" height="145.81" fill="#E15759" opacity="0.85"/>
<rect x="1011.86" y="487.14" width="26.02" height="142.86" fill="#E15759" opacity="0.85"/>
<rect x="208.14" y="556.77" width="26.02" height="73.23" fill="#76B7B2" opacity="0.85"/>
<rect x="416.14" y="541.23" width="26.02" height="88.77" fill="#76B7B2" opacity="0.85"/>
<rect x="624.14" y="517.42" width="26.02" height="112.58" fill="#76B7B2" opacity="0.85"/>
<rect x="832.14" y="517.18" width="26.02" height="112.82" fill="#76B7B2" opacity="0.85"/>
<rect x="1040.14" y="514.12" width="26.02" height="115.88" fill="#76B7B2" opacity="0.85"/>
<rect x="236.43" y="618.12" width="26.02" height="11.88" fill="#59A14F" opacity="0.85"/>
<rect x="444.43" y="618.08" width="26.02" height="11.92" fill="#59A14F" opacity="0.85"/>
<rect x="652.43" y="601.58" width="26.02" height="28.42" fill="#59A14F" opacity="0.85"/>
<rect x="860.43" y="602.95" width="26.02" height="27.05" fill="#59A14F" opacity="0.85"/>
<rect x="1068.43" y="604.20" width="26.02" height="25.80" fill="#59A14F" opacity="0.85"/>
</svg>