<svg xmlns="http://www.w3.org/2000/svg" width="1200" height="720" viewBox="0 0 1200 720">
<rect x="0" y="0" width="100%" height="100%" fill="#ffffff"/>
<text x="40" y="42" font-size="26" font-family="Arial, PingFang SC, Microsoft YaHei, sans-serif" fill="#222">财务比率分析图</text>
<rect x="40" y="60" width="22" height="10" fill="#4E79A7"/>
<text x="68" y="70" font-size="16" font-family="Arial, PingFang SC, Microsoft YaHei, sans-serif" fill="#333">资产负债率</text>
<rect x="210" y="60" width="22" height="10" fill="#F28E2B"/>
<text x="238" y="70" font-size="16" font-family="Arial, PingFang SC, Microsoft YaHei, sans-serif" fill="#333">流动比率</text>
<rect x="380" y="60" width="22" height="10" fill="#E15759"/>
<text x="408" y="70" font-size="16" font-family="Arial, PingFang SC, Microsoft YaHei, sans-serif" fill="#333">速动比率</text>
<rect x="550" y="60" width="22" height="10" fill="#76B7B2"/>
<text x="578" y="70" font-size="16" font-family="Arial, PingFang SC, Microsoft YaHei, sans-serif" fill="#333">应收周转率</text>
<rect x="720" y="60" width="22" height="10" fill="#59A14F"/>
<text x="748" y="70" font-size="16" font-family="Arial, PingFang SC, Microsoft YaHei, sans-serif" fill="#333">存货周转率</text>
<line x1="90" y1="130" x2="90" y2="630" stroke="#555" stroke-width="1"/>
<line x1="90" y1="630.0" x2="1130" y2="630.0" stroke="#555" stroke-width="1"/>
<line x1="90" y1="630.0" x2="1130" y2="630.0" stroke="#eee" stroke-width="1"/>
<text x="78" y="635.0" text-anchor="end" font-size="14" font-family="Arial, PingFang SC, Microsoft YaHei, sans-serif" fill="#666">0.00</text>
<line x1="90" y1="530.0" x2="1130" y2="530.0" stroke="#eee" stroke-width="1"/>
<text x="78" y="535.0" text-anchor="end" font-size="14" font-family="Arial, PingFang SC, Microsoft YaHei, sans-serif" fill="#666">9.36</text>
<line x1="90" y1="430.0" x2="1130" y2="430.0" stroke="#eee" stroke-width="1"/>
<text x="78" y="435.0" text-anchor="end" font-size="14" font-family="Arial, PingFang SC, Microsoft YaHei, sans-serif" fill="#666">18.72</text>
<line x1="90" y1="330.0" x2="1130" y2="330.0" stroke="#eee" stroke-width="1"/>
<text x="78" y="335.0" text-anchor="end" font-size="14" font-family="Arial, PingFang SC, Microsoft YaHei, sans-serif" fill="#666">28.08</text>
<line x1="90" y1="230.0" x2="1130" y2="230.0" stroke="#eee" stroke-width="1"/>
<text x="78" y="235.0" text-anchor="end" font-size="14" font-family="Arial, PingFang SC, Microsoft YaHei, sans-serif" fill="#666">37.44</text>
<line x1="90" y1="130.0" x2="1130" y2="130.0" stroke="#eee" stroke-width="1"/>
<text x="78" y="135.0" text-anchor="end" font-size="14" font-family="Arial, PingFang SC, Microsoft YaHei, sans-serif" fill="#666">46.80</text>
<text x="194.0" y="658" text-anchor="middle" font-size="14" font-family="Arial, PingFang SC, Microsoft YaHei, sans-serif" fill="#666">2021</text>
<text x="402.0" y="658" text-anchor="middle" font-size="14" font-family="Arial, PingFang SC, Microsoft YaHei, sans-serif" fill="#666">2022</text>
<text x="610.0" y="658" text-anchor="middle" font-size="14" font-family="Arial, PingFang SC, Microsoft YaHei, sans-serif" fill="#666">2023</text>
<text x="818.0" y="658" text-anchor="middle" font-size="14" font-family="Arial, PingFang SC, Microsoft YaHei, sans-serif" fill="#666">2024</text>
<text x="1026.0" y="658" text-anchor="middle" font-size="14" font-family="Arial, PingFang SC, Microsoft YaHei, sans-serif" fill="#666">2025</text>
<rect x="123.28" y="340.04" width="65.06" height="289.96" fill="#4E79A7" opacity="0.85"/>
<rect x="331.28" y="343.35" width="65.06" height="286.65" fill="#4E79A7" opacity="0.85"/>
<rect x="539.28" y="397.41" width="65.06" height="232.59" fill="#4E79A7" opacity="0.85"/>
<rect x="747.28" y="467.29" width="65.06" height="162.71" fill="#4E79A7" opacity="0.85"/>
<rect x="955.28" y="521.56" width="65.06" height="108.44" fill="#4E79A7" opacity="0.85"/>
<rect x="194.00" y="550.94" width="65.06" height="79.06" fill="#F28E2B" opacity="0.85"/>
<rect x="402.00" y="552.01" width="65.06" height="77.99" fill="#F28E2B" opacity="0.85"/>
<rect x="610.00" y="555.75" width="65.06" height="74.25" fill="#F28E2B" opacity="0.85"/>
<rect x="818.00" y="538.97" width="65.06" height="91.03" fill="#F28E2B" opacity="0.85"/>
<rect x="1026.00" y="552.12" width="65.06" height="77.88" fill="#F28E2B" opacity="0.85"/>
<polyline fill="none" stroke="#E15759" stroke-width="3" points="194.00,130.00 402.00,198.27 610.00,261.94 818.00,276.69 1026.00,317.61"/>
<circle cx="194.00" cy="130.00" r="4" fill="#E15759"/>
<circle cx="402.00" cy="198.27" r="4" fill="#E15759"/>
<circle cx="610.00" cy="261.94" r="4" fill="#E15759"/>
<circle cx="818.00" cy="276.69" r="4" fill="#E15759"/>
<circle cx="1026.00" cy="317.61" r="4" fill="#E15759"/>
<polyline fill="none" stroke="#76B7B2" stroke-width="3" points="194.00,619.64 402.00,619.21 610.00,617.82 818.00,616.86 1026.00,613.76"/>
<circle cx="194.00" cy="619.64" r="4" fill="#76B7B2"/>
<circle cx="402.00" cy="619.21" r="4" fill="#76B7B2"/>
<circle cx="610.00" cy="617.82" r="4" fill="#76B7B2"/>
<circle cx="818.00" cy="616.86" r="4" fill="#76B7B2"/>
<circle cx="1026.00" cy="613.76" r="4" fill="#76B7B2"/>
<polyline fill="none" stroke="#59A14F" stroke-width="3" points="194.00,622.84 402.00,623.16 610.00,623.38 818.00,621.88 1026.00,620.38"/>
<circle cx="194.00" cy="622.84" r="4" fill="#59A14F"/>
<circle cx="402.00" cy="623.16" r="4" fill="#59A14F"/>
<circle cx="610.00" cy="623.38" r="4" fill="#59A14F"/>
<circle cx="818.00" cy="621.88" r="4" fill="#59A14F"/>
<circle cx="1026.00" cy="620.38" r="4" fill="#59A14F"/>
</svg>