<svg xmlns="http://www.w3.org/2000/svg" width="1200" height="720" viewBox="0 0 1200 720">
<rect x="0" y="0" width="100%" height="100%" fill="#ffffff"/>
<text x="40" y="42" font-size="26" font-family="Arial, PingFang SC, Microsoft YaHei, sans-serif" fill="#222">财务比率分析图</text>
<rect x="40" y="60" width="22" height="10" fill="#4E79A7"/>
<text x="68" y="70" font-size="16" font-family="Arial, PingFang SC, Microsoft YaHei, sans-serif" fill="#333">资产负债率</text>
<rect x="210" y="60" width="22" height="10" fill="#F28E2B"/>
<text x="238" y="70" font-size="16" font-family="Arial, PingFang SC, Microsoft YaHei, sans-serif" fill="#333">流动比率</text>
<rect x="380" y="60" width="22" height="10" fill="#E15759"/>
<text x="408" y="70" font-size="16" font-family="Arial, PingFang SC, Microsoft YaHei, sans-serif" fill="#333">速动比率</text>
<rect x="550" y="60" width="22" height="10" fill="#76B7B2"/>
<text x="578" y="70" font-size="16" font-family="Arial, PingFang SC, Microsoft YaHei, sans-serif" fill="#333">应收周转率</text>
<rect x="720" y="60" width="22" height="10" fill="#59A14F"/>
<text x="748" y="70" font-size="16" font-family="Arial, PingFang SC, Microsoft YaHei, sans-serif" fill="#333">存货周转率</text>
<line x1="90" y1="130" x2="90" y2="630" stroke="#555" stroke-width="1"/>
<line x1="90" y1="630.0" x2="1130" y2="630.0" stroke="#555" stroke-width="1"/>
<line x1="90" y1="630.0" x2="1130" y2="630.0" stroke="#eee" stroke-width="1"/>
<text x="78" y="635.0" text-anchor="end" font-size="14" font-family="Arial, PingFang SC, Microsoft YaHei, sans-serif" fill="#666">0.00</text>
<line x1="90" y1="530.0" x2="1130" y2="530.0" stroke="#eee" stroke-width="1"/>
<text x="78" y="535.0" text-anchor="end" font-size="14" font-family="Arial, PingFang SC, Microsoft YaHei, sans-serif" fill="#666">9.32</text>
<line x1="90" y1="430.0" x2="1130" y2="430.0" stroke="#eee" stroke-width="1"/>
<text x="78" y="435.0" text-anchor="end" font-size="14" font-family="Arial, PingFang SC, Microsoft YaHei, sans-serif" fill="#666">18.65</text>
<line x1="90" y1="330.0" x2="1130" y2="330.0" stroke="#eee" stroke-width="1"/>
<text x="78" y="335.0" text-anchor="end" font-size="14" font-family="Arial, PingFang SC, Microsoft YaHei, sans-serif" fill="#666">27.97</text>
<line x1="90" y1="230.0" x2="1130" y2="230.0" stroke="#eee" stroke-width="1"/>
<text x="78" y="235.0" text-anchor="end" font-size="14" font-family="Arial, PingFang SC, Microsoft YaHei, sans-serif" fill="#666">37.30</text>
<line x1="90" y1="130.0" x2="1130" y2="130.0" stroke="#eee" stroke-width="1"/>
<text x="78" y="135.0" text-anchor="end" font-size="14" font-family="Arial, PingFang SC, Microsoft YaHei, sans-serif" fill="#666">46.62</text>
<text x="194.0" y="658" text-anchor="middle" font-size="14" font-family="Arial, PingFang SC, Microsoft YaHei, sans-serif" fill="#666">2021</text>
<text x="402.0" y="658" text-anchor="middle" font-size="14" font-family="Arial, PingFang SC, Microsoft YaHei, sans-serif" fill="#666">2022</text>
<text x="610.0" y="658" text-anchor="middle" font-size="14" font-family="Arial, PingFang SC, Microsoft YaHei, sans-serif" fill="#666">2023</text>
<text x="818.0" y="658" text-anchor="middle" font-size="14" font-family="Arial, PingFang SC, Microsoft YaHei, sans-serif" fill="#666">2024</text>
<text x="1026.0" y="658" text-anchor="middle" font-size="14" font-family="Arial, PingFang SC, Microsoft YaHei, sans-serif" fill="#666">2025</text>
<rect x="123.28" y="492.40" width="65.06" height="137.60" fill="#4E79A7" opacity="0.85"/>
<rect x="331.28" y="497.87" width="65.06" height="132.13" fill="#4E79A7" opacity="0.85"/>
<rect x="539.28" y="493.47" width="65.06" height="136.53" fill="#4E79A7" opacity="0.85"/>
<rect x="747.28" y="463.44" width="65.06" height="166.56" fill="#4E79A7" opacity="0.85"/>
<rect x="955.28" y="444.46" width="65.06" height="185.54" fill="#4E79A7" opacity="0.85"/>
<rect x="194.00" y="582.49" width="65.06" height="47.51" fill="#F28E2B" opacity="0.85"/>
<rect x="402.00" y="577.13" width="65.06" height="52.87" fill="#F28E2B" opacity="0.85"/>
<rect x="610.00" y="575.52" width="65.06" height="54.48" fill="#F28E2B" opacity="0.85"/>
<rect x="818.00" y="577.13" width="65.06" height="52.87" fill="#F28E2B" opacity="0.85"/>
<rect x="1026.00" y="586.35" width="65.06" height="43.65" fill="#F28E2B" opacity="0.85"/>
<polyline fill="none" stroke="#E15759" stroke-width="3" points="194.00,334.85 402.00,292.59 610.00,242.61 818.00,148.23 1026.00,130.00"/>
<circle cx="194.00" cy="334.85" r="4" fill="#E15759"/>
<circle cx="402.00" cy="292.59" r="4" fill="#E15759"/>
<circle cx="610.00" cy="242.61" r="4" fill="#E15759"/>
<circle cx="818.00" cy="148.23" r="4" fill="#E15759"/>
<circle cx="1026.00" cy="130.00" r="4" fill="#E15759"/>
<polyline fill="none" stroke="#76B7B2" stroke-width="3" points="194.00,588.92 402.00,594.93 610.00,601.26 818.00,607.48 1026.00,604.47"/>
<circle cx="194.00" cy="588.92" r="4" fill="#76B7B2"/>
<circle cx="402.00" cy="594.93" r="4" fill="#76B7B2"/>
<circle cx="610.00" cy="601.26" r="4" fill="#76B7B2"/>
<circle cx="818.00" cy="607.48" r="4" fill="#76B7B2"/>
<circle cx="1026.00" cy="604.47" r="4" fill="#76B7B2"/>
<polyline fill="none" stroke="#59A14F" stroke-width="3" points="194.00,600.94 402.00,602.33 610.00,608.76 818.00,613.38 1026.00,612.41"/>
<circle cx="194.00" cy="600.94" r="4" fill="#59A14F"/>
<circle cx="402.00" cy="602.33" r="4" fill="#59A14F"/>
<circle cx="610.00" cy="608.76" r="4" fill="#59A14F"/>
<circle cx="818.00" cy="613.38" r="4" fill="#59A14F"/>
<circle cx="1026.00" cy="612.41" r="4" fill="#59A14F"/>
</svg>