<svg xmlns="http://www.w3.org/2000/svg" width="1200" height="720" viewBox="0 0 1200 720">
<rect x="0" y="0" width="100%" height="100%" fill="#ffffff"/>
<text x="40" y="42" font-size="26" font-family="Arial, PingFang SC, Microsoft YaHei, sans-serif" fill="#222">财务比率分析图</text>
<rect x="40" y="60" width="22" height="10" fill="#4E79A7"/>
<text x="68" y="70" font-size="16" font-family="Arial, PingFang SC, Microsoft YaHei, sans-serif" fill="#333">资产负债率</text>
<rect x="210" y="60" width="22" height="10" fill="#F28E2B"/>
<text x="238" y="70" font-size="16" font-family="Arial, PingFang SC, Microsoft YaHei, sans-serif" fill="#333">流动比率</text>
<rect x="380" y="60" width="22" height="10" fill="#E15759"/>
<text x="408" y="70" font-size="16" font-family="Arial, PingFang SC, Microsoft YaHei, sans-serif" fill="#333">速动比率</text>
<rect x="550" y="60" width="22" height="10" fill="#76B7B2"/>
<text x="578" y="70" font-size="16" font-family="Arial, PingFang SC, Microsoft YaHei, sans-serif" fill="#333">应收周转率</text>
<rect x="720" y="60" width="22" height="10" fill="#59A14F"/>
<text x="748" y="70" font-size="16" font-family="Arial, PingFang SC, Microsoft YaHei, sans-serif" fill="#333">存货周转率</text>
<line x1="90" y1="130" x2="90" y2="630" stroke="#555" stroke-width="1"/>
<line x1="90" y1="630.0" x2="1130" y2="630.0" stroke="#555" stroke-width="1"/>
<line x1="90" y1="630.0" x2="1130" y2="630.0" stroke="#eee" stroke-width="1"/>
<text x="78" y="635.0" text-anchor="end" font-size="14" font-family="Arial, PingFang SC, Microsoft YaHei, sans-serif" fill="#666">0.00</text>
<line x1="90" y1="530.0" x2="1130" y2="530.0" stroke="#eee" stroke-width="1"/>
<text x="78" y="535.0" text-anchor="end" font-size="14" font-family="Arial, PingFang SC, Microsoft YaHei, sans-serif" fill="#666">4.31</text>
<line x1="90" y1="430.0" x2="1130" y2="430.0" stroke="#eee" stroke-width="1"/>
<text x="78" y="435.0" text-anchor="end" font-size="14" font-family="Arial, PingFang SC, Microsoft YaHei, sans-serif" fill="#666">8.62</text>
<line x1="90" y1="330.0" x2="1130" y2="330.0" stroke="#eee" stroke-width="1"/>
<text x="78" y="335.0" text-anchor="end" font-size="14" font-family="Arial, PingFang SC, Microsoft YaHei, sans-serif" fill="#666">12.94</text>
<line x1="90" y1="230.00000000000003" x2="1130" y2="230.00000000000003" stroke="#eee" stroke-width="1"/>
<text x="78" y="235.00000000000003" text-anchor="end" font-size="14" font-family="Arial, PingFang SC, Microsoft YaHei, sans-serif" fill="#666">17.25</text>
<line x1="90" y1="130.0" x2="1130" y2="130.0" stroke="#eee" stroke-width="1"/>
<text x="78" y="135.0" text-anchor="end" font-size="14" font-family="Arial, PingFang SC, Microsoft YaHei, sans-serif" fill="#666">21.56</text>
<text x="194.0" y="658" text-anchor="middle" font-size="14" font-family="Arial, PingFang SC, Microsoft YaHei, sans-serif" fill="#666">2021</text>
<text x="402.0" y="658" text-anchor="middle" font-size="14" font-family="Arial, PingFang SC, Microsoft YaHei, sans-serif" fill="#666">2022</text>
<text x="610.0" y="658" text-anchor="middle" font-size="14" font-family="Arial, PingFang SC, Microsoft YaHei, sans-serif" fill="#666">2023</text>
<text x="818.0" y="658" text-anchor="middle" font-size="14" font-family="Arial, PingFang SC, Microsoft YaHei, sans-serif" fill="#666">2024</text>
<text x="1026.0" y="658" text-anchor="middle" font-size="14" font-family="Arial, PingFang SC, Microsoft YaHei, sans-serif" fill="#666">2025</text>
<rect x="123.28" y="479.95" width="65.06" height="150.05" fill="#4E79A7" opacity="0.85"/>
<rect x="331.28" y="463.49" width="65.06" height="166.51" fill="#4E79A7" opacity="0.85"/>
<rect x="539.28" y="468.59" width="65.06" height="161.41" fill="#4E79A7" opacity="0.85"/>
<rect x="747.28" y="486.68" width="65.06" height="143.32" fill="#4E79A7" opacity="0.85"/>
<rect x="955.28" y="493.87" width="65.06" height="136.13" fill="#4E79A7" opacity="0.85"/>
<rect x="194.00" y="499.67" width="65.06" height="130.33" fill="#F28E2B" opacity="0.85"/>
<rect x="402.00" y="521.00" width="65.06" height="109.00" fill="#F28E2B" opacity="0.85"/>
<rect x="610.00" y="507.55" width="65.06" height="122.45" fill="#F28E2B" opacity="0.85"/>
<rect x="818.00" y="498.97" width="65.06" height="131.03" fill="#F28E2B" opacity="0.85"/>
<rect x="1026.00" y="506.39" width="65.06" height="123.61" fill="#F28E2B" opacity="0.85"/>
<polyline fill="none" stroke="#E15759" stroke-width="3" points="194.00,267.52 402.00,319.24 610.00,238.77 818.00,130.00 1026.00,248.51"/>
<circle cx="194.00" cy="267.52" r="4" fill="#E15759"/>
<circle cx="402.00" cy="319.24" r="4" fill="#E15759"/>
<circle cx="610.00" cy="238.77" r="4" fill="#E15759"/>
<circle cx="818.00" cy="130.00" r="4" fill="#E15759"/>
<circle cx="1026.00" cy="248.51" r="4" fill="#E15759"/>
<polyline fill="none" stroke="#76B7B2" stroke-width="3" points="194.00,505.00 402.00,486.91 610.00,536.54 818.00,562.98 1026.00,541.64"/>
<circle cx="194.00" cy="505.00" r="4" fill="#76B7B2"/>
<circle cx="402.00" cy="486.91" r="4" fill="#76B7B2"/>
<circle cx="610.00" cy="536.54" r="4" fill="#76B7B2"/>
<circle cx="818.00" cy="562.98" r="4" fill="#76B7B2"/>
<circle cx="1026.00" cy="541.64" r="4" fill="#76B7B2"/>
<polyline fill="none" stroke="#59A14F" stroke-width="3" points="194.00,520.54 402.00,505.23 610.00,547.67 818.00,573.18 1026.00,553.70"/>
<circle cx="194.00" cy="520.54" r="4" fill="#59A14F"/>
<circle cx="402.00" cy="505.23" r="4" fill="#59A14F"/>
<circle cx="610.00" cy="547.67" r="4" fill="#59A14F"/>
<circle cx="818.00" cy="573.18" r="4" fill="#59A14F"/>
<circle cx="1026.00" cy="553.70" r="4" fill="#59A14F"/>
</svg>