<svg xmlns="http://www.w3.org/2000/svg" width="1200" height="720" viewBox="0 0 1200 720">
<rect x="0" y="0" width="100%" height="100%" fill="#ffffff"/>
<text x="40" y="42" font-size="26" font-family="Arial, PingFang SC, Microsoft YaHei, sans-serif" fill="#222">分产品收入变化图</text>
<rect x="40" y="60" width="22" height="10" fill="#4E79A7"/>
<text x="68" y="70" font-size="16" font-family="Arial, PingFang SC, Microsoft YaHei, sans-serif" fill="#333">医药化工</text>
<rect x="210" y="60" width="22" height="10" fill="#F28E2B"/>
<text x="238" y="70" font-size="16" font-family="Arial, PingFang SC, Microsoft YaHei, sans-serif" fill="#333">营养品</text>
<rect x="380" y="60" width="22" height="10" fill="#E15759"/>
<text x="408" y="70" font-size="16" font-family="Arial, PingFang SC, Microsoft YaHei, sans-serif" fill="#333">国外</text>
<rect x="550" y="60" width="22" height="10" fill="#76B7B2"/>
<text x="578" y="70" font-size="16" font-family="Arial, PingFang SC, Microsoft YaHei, sans-serif" fill="#333">香精香料类</text>
<rect x="720" y="60" width="22" height="10" fill="#59A14F"/>
<text x="748" y="70" font-size="16" font-family="Arial, PingFang SC, Microsoft YaHei, sans-serif" fill="#333">其他(行业)</text>
<line x1="90" y1="130" x2="90" y2="630" stroke="#555" stroke-width="1"/>
<line x1="90" y1="630.0" x2="1130" y2="630.0" stroke="#555" stroke-width="1"/>
<line x1="90" y1="630.0" x2="1130" y2="630.0" stroke="#eee" stroke-width="1"/>
<text x="78" y="635.0" text-anchor="end" font-size="14" font-family="Arial, PingFang SC, Microsoft YaHei, sans-serif" fill="#666">0.00</text>
<line x1="90" y1="530.0" x2="1130" y2="530.0" stroke="#eee" stroke-width="1"/>
<text x="78" y="535.0" text-anchor="end" font-size="14" font-family="Arial, PingFang SC, Microsoft YaHei, sans-serif" fill="#666">60.11</text>
<line x1="90" y1="430.0" x2="1130" y2="430.0" stroke="#eee" stroke-width="1"/>
<text x="78" y="435.0" text-anchor="end" font-size="14" font-family="Arial, PingFang SC, Microsoft YaHei, sans-serif" fill="#666">120.21</text>
<line x1="90" y1="330.0" x2="1130" y2="330.0" stroke="#eee" stroke-width="1"/>
<text x="78" y="335.0" text-anchor="end" font-size="14" font-family="Arial, PingFang SC, Microsoft YaHei, sans-serif" fill="#666">180.32</text>
<line x1="90" y1="230.0" x2="1130" y2="230.0" stroke="#eee" stroke-width="1"/>
<text x="78" y="235.0" text-anchor="end" font-size="14" font-family="Arial, PingFang SC, Microsoft YaHei, sans-serif" fill="#666">240.42</text>
<line x1="90" y1="130.0" x2="1130" y2="130.0" stroke="#eee" stroke-width="1"/>
<text x="78" y="135.0" text-anchor="end" font-size="14" font-family="Arial, PingFang SC, Microsoft YaHei, sans-serif" fill="#666">300.53</text>
<text x="194.0" y="658" text-anchor="middle" font-size="14" font-family="Arial, PingFang SC, Microsoft YaHei, sans-serif" fill="#666">2021</text>
<text x="402.0" y="658" text-anchor="middle" font-size="14" font-family="Arial, PingFang SC, Microsoft YaHei, sans-serif" fill="#666">2022</text>
<text x="610.0" y="658" text-anchor="middle" font-size="14" font-family="Arial, PingFang SC, Microsoft YaHei, sans-serif" fill="#666">2023</text>
<text x="818.0" y="658" text-anchor="middle" font-size="14" font-family="Arial, PingFang SC, Microsoft YaHei, sans-serif" fill="#666">2024</text>
<text x="1026.0" y="658" text-anchor="middle" font-size="14" font-family="Arial, PingFang SC, Microsoft YaHei, sans-serif" fill="#666">2025</text>
<rect x="123.28" y="288.19" width="26.02" height="341.81" fill="#4E79A7" opacity="0.85"/>
<rect x="331.28" y="259.69" width="26.02" height="370.31" fill="#4E79A7" opacity="0.85"/>
<rect x="539.28" y="287.79" width="26.02" height="342.21" fill="#4E79A7" opacity="0.85"/>
<rect x="747.28" y="148.87" width="26.02" height="481.13" fill="#4E79A7" opacity="0.85"/>
<rect x="955.28" y="130.00" width="26.02" height="500.00" fill="#4E79A7" opacity="0.85"/>
<rect x="151.57" y="354.15" width="26.02" height="275.85" fill="#F28E2B" opacity="0.85"/>
<rect x="359.57" y="351.81" width="26.02" height="278.19" fill="#F28E2B" opacity="0.85"/>
<rect x="567.57" y="385.48" width="26.02" height="244.52" fill="#F28E2B" opacity="0.85"/>
<rect x="775.57" y="268.39" width="26.02" height="361.61" fill="#F28E2B" opacity="0.85"/>
<rect x="983.57" y="264.25" width="26.02" height="365.75" fill="#F28E2B" opacity="0.85"/>
<rect x="179.86" y="436.46" width="26.02" height="193.54" fill="#E15759" opacity="0.85"/>
<rect x="387.86" y="433.31" width="26.02" height="196.69" fill="#E15759" opacity="0.85"/>
<rect x="595.86" y="436.03" width="26.02" height="193.97" fill="#E15759" opacity="0.85"/>
<rect x="803.86" y="338.95" width="26.02" height="291.05" fill="#E15759" opacity="0.85"/>
<rect x="1011.86" y="307.67" width="26.02" height="322.33" fill="#E15759" opacity="0.85"/>
<rect x="208.14" y="574.00" width="26.02" height="56.00" fill="#76B7B2" opacity="0.85"/>
<rect x="416.14" y="555.30" width="26.02" height="74.70" fill="#76B7B2" opacity="0.85"/>
<rect x="624.14" y="548.38" width="26.02" height="81.62" fill="#76B7B2" opacity="0.85"/>
<rect x="832.14" y="532.82" width="26.02" height="97.18" fill="#76B7B2" opacity="0.85"/>
<rect x="1040.14" y="530.68" width="26.02" height="99.32" fill="#76B7B2" opacity="0.85"/>
<rect x="236.43" y="604.93" width="26.02" height="25.07" fill="#59A14F" opacity="0.85"/>
<rect x="444.43" y="598.54" width="26.02" height="31.46" fill="#59A14F" opacity="0.85"/>
<rect x="652.43" y="597.29" width="26.02" height="32.71" fill="#59A14F" opacity="0.85"/>
<rect x="860.43" y="587.81" width="26.02" height="42.19" fill="#59A14F" opacity="0.85"/>
<rect x="1068.43" y="575.11" width="26.02" height="54.89" fill="#59A14F" opacity="0.85"/>
</svg>