<svg xmlns="http://www.w3.org/2000/svg" width="1200" height="720" viewBox="0 0 1200 720">
<rect x="0" y="0" width="100%" height="100%" fill="#ffffff"/>
<text x="40" y="42" font-size="26" font-family="Arial, PingFang SC, Microsoft YaHei, sans-serif" fill="#222">分产品收入变化图</text>
<rect x="40" y="60" width="22" height="10" fill="#4E79A7"/>
<text x="68" y="70" font-size="16" font-family="Arial, PingFang SC, Microsoft YaHei, sans-serif" fill="#333">公司贷款业务</text>
<rect x="210" y="60" width="22" height="10" fill="#F28E2B"/>
<text x="238" y="70" font-size="16" font-family="Arial, PingFang SC, Microsoft YaHei, sans-serif" fill="#333">利息收入:发放贷款及垫款:公司贷款业务(产品)</text>
<rect x="380" y="60" width="22" height="10" fill="#E15759"/>
<text x="408" y="70" font-size="16" font-family="Arial, PingFang SC, Microsoft YaHei, sans-serif" fill="#333">投资类</text>
<rect x="550" y="60" width="22" height="10" fill="#76B7B2"/>
<text x="578" y="70" font-size="16" font-family="Arial, PingFang SC, Microsoft YaHei, sans-serif" fill="#333">利息收入:债券投资(产品)</text>
<rect x="720" y="60" width="22" height="10" fill="#59A14F"/>
<text x="748" y="70" font-size="16" font-family="Arial, PingFang SC, Microsoft YaHei, sans-serif" fill="#333">个人贷款业务</text>
<line x1="90" y1="130" x2="90" y2="630" stroke="#555" stroke-width="1"/>
<line x1="90" y1="630.0" x2="1130" y2="630.0" stroke="#555" stroke-width="1"/>
<line x1="90" y1="630.0" x2="1130" y2="630.0" stroke="#eee" stroke-width="1"/>
<text x="78" y="635.0" text-anchor="end" font-size="14" font-family="Arial, PingFang SC, Microsoft YaHei, sans-serif" fill="#666">0.00</text>
<line x1="90" y1="530.0" x2="1130" y2="530.0" stroke="#eee" stroke-width="1"/>
<text x="78" y="535.0" text-anchor="end" font-size="14" font-family="Arial, PingFang SC, Microsoft YaHei, sans-serif" fill="#666">119.55</text>
<line x1="90" y1="430.0" x2="1130" y2="430.0" stroke="#eee" stroke-width="1"/>
<text x="78" y="435.0" text-anchor="end" font-size="14" font-family="Arial, PingFang SC, Microsoft YaHei, sans-serif" fill="#666">239.10</text>
<line x1="90" y1="330.0" x2="1130" y2="330.0" stroke="#eee" stroke-width="1"/>
<text x="78" y="335.0" text-anchor="end" font-size="14" font-family="Arial, PingFang SC, Microsoft YaHei, sans-serif" fill="#666">358.66</text>
<line x1="90" y1="230.0" x2="1130" y2="230.0" stroke="#eee" stroke-width="1"/>
<text x="78" y="235.0" text-anchor="end" font-size="14" font-family="Arial, PingFang SC, Microsoft YaHei, sans-serif" fill="#666">478.21</text>
<line x1="90" y1="130.0" x2="1130" y2="130.0" stroke="#eee" stroke-width="1"/>
<text x="78" y="135.0" text-anchor="end" font-size="14" font-family="Arial, PingFang SC, Microsoft YaHei, sans-serif" fill="#666">597.76</text>
<text x="194.0" y="658" text-anchor="middle" font-size="14" font-family="Arial, PingFang SC, Microsoft YaHei, sans-serif" fill="#666">2021</text>
<text x="402.0" y="658" text-anchor="middle" font-size="14" font-family="Arial, PingFang SC, Microsoft YaHei, sans-serif" fill="#666">2022</text>
<text x="610.0" y="658" text-anchor="middle" font-size="14" font-family="Arial, PingFang SC, Microsoft YaHei, sans-serif" fill="#666">2023</text>
<text x="818.0" y="658" text-anchor="middle" font-size="14" font-family="Arial, PingFang SC, Microsoft YaHei, sans-serif" fill="#666">2024</text>
<text x="1026.0" y="658" text-anchor="middle" font-size="14" font-family="Arial, PingFang SC, Microsoft YaHei, sans-serif" fill="#666">2025</text>
<rect x="123.28" y="379.04" width="26.02" height="250.96" fill="#4E79A7" opacity="0.85"/>
<rect x="331.28" y="329.57" width="26.02" height="300.43" fill="#4E79A7" opacity="0.85"/>
<rect x="539.28" y="277.03" width="26.02" height="352.97" fill="#4E79A7" opacity="0.85"/>
<rect x="747.28" y="204.76" width="26.02" height="425.24" fill="#4E79A7" opacity="0.85"/>
<rect x="955.28" y="130.00" width="26.02" height="500.00" fill="#4E79A7" opacity="0.85"/>
<rect x="151.57" y="379.04" width="26.02" height="250.96" fill="#F28E2B" opacity="0.85"/>
<rect x="359.57" y="329.57" width="26.02" height="300.43" fill="#F28E2B" opacity="0.85"/>
<rect x="567.57" y="277.03" width="26.02" height="352.97" fill="#F28E2B" opacity="0.85"/>
<rect x="775.57" y="204.76" width="26.02" height="425.24" fill="#F28E2B" opacity="0.85"/>
<rect x="983.57" y="130.00" width="26.02" height="500.00" fill="#F28E2B" opacity="0.85"/>
<rect x="179.86" y="469.18" width="26.02" height="160.82" fill="#E15759" opacity="0.85"/>
<rect x="387.86" y="413.47" width="26.02" height="216.53" fill="#E15759" opacity="0.85"/>
<rect x="595.86" y="368.93" width="26.02" height="261.07" fill="#E15759" opacity="0.85"/>
<rect x="803.86" y="317.91" width="26.02" height="312.09" fill="#E15759" opacity="0.85"/>
<rect x="1011.86" y="279.72" width="26.02" height="350.28" fill="#E15759" opacity="0.85"/>
<rect x="208.14" y="469.18" width="26.02" height="160.82" fill="#76B7B2" opacity="0.85"/>
<rect x="416.14" y="413.47" width="26.02" height="216.53" fill="#76B7B2" opacity="0.85"/>
<rect x="624.14" y="368.93" width="26.02" height="261.07" fill="#76B7B2" opacity="0.85"/>
<rect x="832.14" y="317.91" width="26.02" height="312.09" fill="#76B7B2" opacity="0.85"/>
<rect x="1040.14" y="279.72" width="26.02" height="350.28" fill="#76B7B2" opacity="0.85"/>
<rect x="236.43" y="359.07" width="26.02" height="270.93" fill="#59A14F" opacity="0.85"/>
<rect x="444.43" y="324.76" width="26.02" height="305.24" fill="#59A14F" opacity="0.85"/>
<rect x="652.43" y="284.40" width="26.02" height="345.60" fill="#59A14F" opacity="0.85"/>
<rect x="860.43" y="247.34" width="26.02" height="382.66" fill="#59A14F" opacity="0.85"/>
<rect x="1068.43" y="293.95" width="26.02" height="336.05" fill="#59A14F" opacity="0.85"/>
</svg>