<svg xmlns="http://www.w3.org/2000/svg" width="1200" height="720" viewBox="0 0 1200 720">
<rect x="0" y="0" width="100%" height="100%" fill="#ffffff"/>
<text x="40" y="42" font-size="26" font-family="Arial, PingFang SC, Microsoft YaHei, sans-serif" fill="#222">分产品利润结构图</text>
<rect x="40" y="60" width="22" height="10" fill="#4E79A7"/>
<text x="68" y="70" font-size="16" font-family="Arial, PingFang SC, Microsoft YaHei, sans-serif" fill="#333">利润</text>
<rect x="210" y="60" width="22" height="10" fill="#F28E2B"/>
<text x="238" y="70" font-size="16" font-family="Arial, PingFang SC, Microsoft YaHei, sans-serif" fill="#333">毛利率</text>
<line x1="90" y1="130" x2="90" y2="630" stroke="#555" stroke-width="1"/>
<line x1="90" y1="630.0" x2="1130" y2="630.0" stroke="#555" stroke-width="1"/>
<line x1="90" y1="630.0" x2="1130" y2="630.0" stroke="#eee" stroke-width="1"/>
<text x="78" y="635.0" text-anchor="end" font-size="14" font-family="Arial, PingFang SC, Microsoft YaHei, sans-serif" fill="#666">0.00</text>
<line x1="90" y1="530.0" x2="1130" y2="530.0" stroke="#eee" stroke-width="1"/>
<text x="78" y="535.0" text-anchor="end" font-size="14" font-family="Arial, PingFang SC, Microsoft YaHei, sans-serif" fill="#666">5.77</text>
<line x1="90" y1="430.00000000000006" x2="1130" y2="430.00000000000006" stroke="#eee" stroke-width="1"/>
<text x="78" y="435.00000000000006" text-anchor="end" font-size="14" font-family="Arial, PingFang SC, Microsoft YaHei, sans-serif" fill="#666">11.54</text>
<line x1="90" y1="330.0" x2="1130" y2="330.0" stroke="#eee" stroke-width="1"/>
<text x="78" y="335.0" text-anchor="end" font-size="14" font-family="Arial, PingFang SC, Microsoft YaHei, sans-serif" fill="#666">17.30</text>
<line x1="90" y1="230.0" x2="1130" y2="230.0" stroke="#eee" stroke-width="1"/>
<text x="78" y="235.0" text-anchor="end" font-size="14" font-family="Arial, PingFang SC, Microsoft YaHei, sans-serif" fill="#666">23.07</text>
<line x1="90" y1="130.00000000000006" x2="1130" y2="130.00000000000006" stroke="#eee" stroke-width="1"/>
<text x="78" y="135.00000000000006" text-anchor="end" font-size="14" font-family="Arial, PingFang SC, Microsoft YaHei, sans-serif" fill="#666">28.84</text>
<text x="176.66666666666669" y="658" text-anchor="middle" font-size="14" font-family="Arial, PingFang SC, Microsoft YaHei, sans-serif" fill="#666">制造业务</text>
<text x="350.0" y="658" text-anchor="middle" font-size="14" font-family="Arial, PingFang SC, Microsoft YaHei, sans-serif" fill="#666">驱动器产品</text>
<text x="523.3333333333334" y="658" text-anchor="middle" font-size="14" font-family="Arial, PingFang SC, Microsoft YaHei, sans-serif" fill="#666">国外</text>
<text x="696.6666666666667" y="658" text-anchor="middle" font-size="14" font-family="Arial, PingFang SC, Microsoft YaHei, sans-serif" fill="#666">电子产品</text>
<text x="870.0" y="658" text-anchor="middle" font-size="14" font-family="Arial, PingFang SC, Microsoft YaHei, sans-serif" fill="#666">其他主营业务</text>
<text x="1043.3333333333335" y="658" text-anchor="middle" font-size="14" font-family="Arial, PingFang SC, Microsoft YaHei, sans-serif" fill="#666">其他业务(行业)</text>
<rect x="117.73" y="594.81" width="108.44" height="35.19" fill="#4E79A7" opacity="0.85"/>
<rect x="291.07" y="599.83" width="108.44" height="30.17" fill="#4E79A7" opacity="0.85"/>
<rect x="464.40" y="610.24" width="108.44" height="19.76" fill="#4E79A7" opacity="0.85"/>
<rect x="637.73" y="626.19" width="108.44" height="3.81" fill="#4E79A7" opacity="0.85"/>
<rect x="811.07" y="627.75" width="108.44" height="2.25" fill="#4E79A7" opacity="0.85"/>
<rect x="984.40" y="628.79" width="108.44" height="1.21" fill="#4E79A7" opacity="0.85"/>
<polyline fill="none" stroke="#F28E2B" stroke-width="3" points="176.67,218.25 350.00,183.92 523.33,130.00 696.67,391.79 870.00,333.02 1043.33,441.20"/>
<circle cx="176.67" cy="218.25" r="4" fill="#F28E2B"/>
<circle cx="350.00" cy="183.92" r="4" fill="#F28E2B"/>
<circle cx="523.33" cy="130.00" r="4" fill="#F28E2B"/>
<circle cx="696.67" cy="391.79" r="4" fill="#F28E2B"/>
<circle cx="870.00" cy="333.02" r="4" fill="#F28E2B"/>
<circle cx="1043.33" cy="441.20" r="4" fill="#F28E2B"/>
</svg>