<svg xmlns="http://www.w3.org/2000/svg" width="1200" height="720" viewBox="0 0 1200 720">
<rect x="0" y="0" width="100%" height="100%" fill="#ffffff"/>
<text x="40" y="42" font-size="26" font-family="Arial, PingFang SC, Microsoft YaHei, sans-serif" fill="#222">分产品收入变化图</text>
<rect x="40" y="60" width="22" height="10" fill="#4E79A7"/>
<text x="68" y="70" font-size="16" font-family="Arial, PingFang SC, Microsoft YaHei, sans-serif" fill="#333">湖北</text>
<rect x="210" y="60" width="22" height="10" fill="#F28E2B"/>
<text x="238" y="70" font-size="16" font-family="Arial, PingFang SC, Microsoft YaHei, sans-serif" fill="#333">电力</text>
<rect x="380" y="60" width="22" height="10" fill="#E15759"/>
<text x="408" y="70" font-size="16" font-family="Arial, PingFang SC, Microsoft YaHei, sans-serif" fill="#333">电力行业</text>
<rect x="550" y="60" width="22" height="10" fill="#76B7B2"/>
<text x="578" y="70" font-size="16" font-family="Arial, PingFang SC, Microsoft YaHei, sans-serif" fill="#333">热力</text>
<rect x="720" y="60" width="22" height="10" fill="#59A14F"/>
<text x="748" y="70" font-size="16" font-family="Arial, PingFang SC, Microsoft YaHei, sans-serif" fill="#333">热力(行业)</text>
<line x1="90" y1="130" x2="90" y2="630" stroke="#555" stroke-width="1"/>
<line x1="90" y1="630.0" x2="1130" y2="630.0" stroke="#555" stroke-width="1"/>
<line x1="90" y1="630.0" x2="1130" y2="630.0" stroke="#eee" stroke-width="1"/>
<text x="78" y="635.0" text-anchor="end" font-size="14" font-family="Arial, PingFang SC, Microsoft YaHei, sans-serif" fill="#666">0.00</text>
<line x1="90" y1="530.0" x2="1130" y2="530.0" stroke="#eee" stroke-width="1"/>
<text x="78" y="535.0" text-anchor="end" font-size="14" font-family="Arial, PingFang SC, Microsoft YaHei, sans-serif" fill="#666">50.68</text>
<line x1="90" y1="430.0" x2="1130" y2="430.0" stroke="#eee" stroke-width="1"/>
<text x="78" y="435.0" text-anchor="end" font-size="14" font-family="Arial, PingFang SC, Microsoft YaHei, sans-serif" fill="#666">101.35</text>
<line x1="90" y1="330.0" x2="1130" y2="330.0" stroke="#eee" stroke-width="1"/>
<text x="78" y="335.0" text-anchor="end" font-size="14" font-family="Arial, PingFang SC, Microsoft YaHei, sans-serif" fill="#666">152.03</text>
<line x1="90" y1="229.99999999999997" x2="1130" y2="229.99999999999997" stroke="#eee" stroke-width="1"/>
<text x="78" y="234.99999999999997" text-anchor="end" font-size="14" font-family="Arial, PingFang SC, Microsoft YaHei, sans-serif" fill="#666">202.70</text>
<line x1="90" y1="129.99999999999994" x2="1130" y2="129.99999999999994" stroke="#eee" stroke-width="1"/>
<text x="78" y="134.99999999999994" text-anchor="end" font-size="14" font-family="Arial, PingFang SC, Microsoft YaHei, sans-serif" fill="#666">253.38</text>
<text x="194.0" y="658" text-anchor="middle" font-size="14" font-family="Arial, PingFang SC, Microsoft YaHei, sans-serif" fill="#666">2021</text>
<text x="402.0" y="658" text-anchor="middle" font-size="14" font-family="Arial, PingFang SC, Microsoft YaHei, sans-serif" fill="#666">2022</text>
<text x="610.0" y="658" text-anchor="middle" font-size="14" font-family="Arial, PingFang SC, Microsoft YaHei, sans-serif" fill="#666">2023</text>
<text x="818.0" y="658" text-anchor="middle" font-size="14" font-family="Arial, PingFang SC, Microsoft YaHei, sans-serif" fill="#666">2024</text>
<text x="1026.0" y="658" text-anchor="middle" font-size="14" font-family="Arial, PingFang SC, Microsoft YaHei, sans-serif" fill="#666">2025</text>
<rect x="123.28" y="272.97" width="26.02" height="357.03" fill="#4E79A7" opacity="0.85"/>
<rect x="331.28" y="214.52" width="26.02" height="415.48" fill="#4E79A7" opacity="0.85"/>
<rect x="539.28" y="208.14" width="26.02" height="421.86" fill="#4E79A7" opacity="0.85"/>
<rect x="747.28" y="130.00" width="26.02" height="500.00" fill="#4E79A7" opacity="0.85"/>
<rect x="955.28" y="232.53" width="26.02" height="397.47" fill="#4E79A7" opacity="0.85"/>
<rect x="151.57" y="306.93" width="26.02" height="323.07" fill="#F28E2B" opacity="0.85"/>
<rect x="359.57" y="252.11" width="26.02" height="377.89" fill="#F28E2B" opacity="0.85"/>
<rect x="567.57" y="251.14" width="26.02" height="378.86" fill="#F28E2B" opacity="0.85"/>
<rect x="775.57" y="177.66" width="26.02" height="452.34" fill="#F28E2B" opacity="0.85"/>
<rect x="983.57" y="276.72" width="26.02" height="353.28" fill="#F28E2B" opacity="0.85"/>
<rect x="179.86" y="306.93" width="26.02" height="323.07" fill="#E15759" opacity="0.85"/>
<rect x="387.86" y="252.11" width="26.02" height="377.89" fill="#E15759" opacity="0.85"/>
<rect x="595.86" y="251.14" width="26.02" height="378.86" fill="#E15759" opacity="0.85"/>
<rect x="803.86" y="177.66" width="26.02" height="452.34" fill="#E15759" opacity="0.85"/>
<rect x="1011.86" y="276.72" width="26.02" height="353.28" fill="#E15759" opacity="0.85"/>
<rect x="208.14" y="605.57" width="26.02" height="24.43" fill="#76B7B2" opacity="0.85"/>
<rect x="416.14" y="599.87" width="26.02" height="30.13" fill="#76B7B2" opacity="0.85"/>
<rect x="624.14" y="592.43" width="26.02" height="37.57" fill="#76B7B2" opacity="0.85"/>
<rect x="832.14" y="587.22" width="26.02" height="42.78" fill="#76B7B2" opacity="0.85"/>
<rect x="1040.14" y="590.61" width="26.02" height="39.39" fill="#76B7B2" opacity="0.85"/>
<rect x="236.43" y="605.57" width="26.02" height="24.43" fill="#59A14F" opacity="0.85"/>
<rect x="444.43" y="599.87" width="26.02" height="30.13" fill="#59A14F" opacity="0.85"/>
<rect x="652.43" y="592.43" width="26.02" height="37.57" fill="#59A14F" opacity="0.85"/>
<rect x="860.43" y="587.22" width="26.02" height="42.78" fill="#59A14F" opacity="0.85"/>
<rect x="1068.43" y="590.61" width="26.02" height="39.39" fill="#59A14F" opacity="0.85"/>
</svg>