<svg xmlns="http://www.w3.org/2000/svg" width="1200" height="720" viewBox="0 0 1200 720">
<rect x="0" y="0" width="100%" height="100%" fill="#ffffff"/>
<text x="40" y="42" font-size="26" font-family="Arial, PingFang SC, Microsoft YaHei, sans-serif" fill="#222">财务比率分析图</text>
<rect x="40" y="60" width="22" height="10" fill="#4E79A7"/>
<text x="68" y="70" font-size="16" font-family="Arial, PingFang SC, Microsoft YaHei, sans-serif" fill="#333">资产负债率</text>
<rect x="210" y="60" width="22" height="10" fill="#F28E2B"/>
<text x="238" y="70" font-size="16" font-family="Arial, PingFang SC, Microsoft YaHei, sans-serif" fill="#333">流动比率</text>
<rect x="380" y="60" width="22" height="10" fill="#E15759"/>
<text x="408" y="70" font-size="16" font-family="Arial, PingFang SC, Microsoft YaHei, sans-serif" fill="#333">速动比率</text>
<rect x="550" y="60" width="22" height="10" fill="#76B7B2"/>
<text x="578" y="70" font-size="16" font-family="Arial, PingFang SC, Microsoft YaHei, sans-serif" fill="#333">应收周转率</text>
<rect x="720" y="60" width="22" height="10" fill="#59A14F"/>
<text x="748" y="70" font-size="16" font-family="Arial, PingFang SC, Microsoft YaHei, sans-serif" fill="#333">存货周转率</text>
<line x1="90" y1="130" x2="90" y2="630" stroke="#555" stroke-width="1"/>
<line x1="90" y1="630.0" x2="1130" y2="630.0" stroke="#555" stroke-width="1"/>
<line x1="90" y1="630.0" x2="1130" y2="630.0" stroke="#eee" stroke-width="1"/>
<text x="78" y="635.0" text-anchor="end" font-size="14" font-family="Arial, PingFang SC, Microsoft YaHei, sans-serif" fill="#666">0.00</text>
<line x1="90" y1="530.0" x2="1130" y2="530.0" stroke="#eee" stroke-width="1"/>
<text x="78" y="535.0" text-anchor="end" font-size="14" font-family="Arial, PingFang SC, Microsoft YaHei, sans-serif" fill="#666">14.52</text>
<line x1="90" y1="430.0" x2="1130" y2="430.0" stroke="#eee" stroke-width="1"/>
<text x="78" y="435.0" text-anchor="end" font-size="14" font-family="Arial, PingFang SC, Microsoft YaHei, sans-serif" fill="#666">29.05</text>
<line x1="90" y1="330.0" x2="1130" y2="330.0" stroke="#eee" stroke-width="1"/>
<text x="78" y="335.0" text-anchor="end" font-size="14" font-family="Arial, PingFang SC, Microsoft YaHei, sans-serif" fill="#666">43.57</text>
<line x1="90" y1="230.0" x2="1130" y2="230.0" stroke="#eee" stroke-width="1"/>
<text x="78" y="235.0" text-anchor="end" font-size="14" font-family="Arial, PingFang SC, Microsoft YaHei, sans-serif" fill="#666">58.10</text>
<line x1="90" y1="130.0" x2="1130" y2="130.0" stroke="#eee" stroke-width="1"/>
<text x="78" y="135.0" text-anchor="end" font-size="14" font-family="Arial, PingFang SC, Microsoft YaHei, sans-serif" fill="#666">72.62</text>
<text x="194.0" y="658" text-anchor="middle" font-size="14" font-family="Arial, PingFang SC, Microsoft YaHei, sans-serif" fill="#666">2021</text>
<text x="402.0" y="658" text-anchor="middle" font-size="14" font-family="Arial, PingFang SC, Microsoft YaHei, sans-serif" fill="#666">2022</text>
<text x="610.0" y="658" text-anchor="middle" font-size="14" font-family="Arial, PingFang SC, Microsoft YaHei, sans-serif" fill="#666">2023</text>
<text x="818.0" y="658" text-anchor="middle" font-size="14" font-family="Arial, PingFang SC, Microsoft YaHei, sans-serif" fill="#666">2024</text>
<text x="1026.0" y="658" text-anchor="middle" font-size="14" font-family="Arial, PingFang SC, Microsoft YaHei, sans-serif" fill="#666">2025</text>
<rect x="123.28" y="536.77" width="65.06" height="93.23" fill="#4E79A7" opacity="0.85"/>
<rect x="331.28" y="566.38" width="65.06" height="63.62" fill="#4E79A7" opacity="0.85"/>
<rect x="539.28" y="579.81" width="65.06" height="50.19" fill="#4E79A7" opacity="0.85"/>
<rect x="747.28" y="574.37" width="65.06" height="55.63" fill="#4E79A7" opacity="0.85"/>
<rect x="955.28" y="580.50" width="65.06" height="49.50" fill="#4E79A7" opacity="0.85"/>
<rect x="194.00" y="453.81" width="65.06" height="176.19" fill="#F28E2B" opacity="0.85"/>
<rect x="402.00" y="494.29" width="65.06" height="135.71" fill="#F28E2B" opacity="0.85"/>
<rect x="610.00" y="489.34" width="65.06" height="140.66" fill="#F28E2B" opacity="0.85"/>
<rect x="818.00" y="501.94" width="65.06" height="128.06" fill="#F28E2B" opacity="0.85"/>
<rect x="1026.00" y="543.80" width="65.06" height="86.20" fill="#F28E2B" opacity="0.85"/>
<polyline fill="none" stroke="#E15759" stroke-width="3" points="194.00,222.74 402.00,161.47 610.00,130.00 818.00,179.71 1026.00,169.45"/>
<circle cx="194.00" cy="222.74" r="4" fill="#E15759"/>
<circle cx="402.00" cy="161.47" r="4" fill="#E15759"/>
<circle cx="610.00" cy="130.00" r="4" fill="#E15759"/>
<circle cx="818.00" cy="179.71" r="4" fill="#E15759"/>
<circle cx="1026.00" cy="169.45" r="4" fill="#E15759"/>
<polyline fill="none" stroke="#76B7B2" stroke-width="3" points="194.00,626.83 402.00,627.45 610.00,627.38 818.00,626.70 1026.00,628.14"/>
<circle cx="194.00" cy="626.83" r="4" fill="#76B7B2"/>
<circle cx="402.00" cy="627.45" r="4" fill="#76B7B2"/>
<circle cx="610.00" cy="627.38" r="4" fill="#76B7B2"/>
<circle cx="818.00" cy="626.70" r="4" fill="#76B7B2"/>
<circle cx="1026.00" cy="628.14" r="4" fill="#76B7B2"/>
<polyline fill="none" stroke="#59A14F" stroke-width="3" points="194.00,627.45 402.00,627.87 610.00,627.80 818.00,627.31 1026.00,628.62"/>
<circle cx="194.00" cy="627.45" r="4" fill="#59A14F"/>
<circle cx="402.00" cy="627.87" r="4" fill="#59A14F"/>
<circle cx="610.00" cy="627.80" r="4" fill="#59A14F"/>
<circle cx="818.00" cy="627.31" r="4" fill="#59A14F"/>
<circle cx="1026.00" cy="628.62" r="4" fill="#59A14F"/>
</svg>