<svg xmlns="http://www.w3.org/2000/svg" width="1200" height="720" viewBox="0 0 1200 720">
<rect x="0" y="0" width="100%" height="100%" fill="#ffffff"/>
<text x="40" y="42" font-size="26" font-family="Arial, PingFang SC, Microsoft YaHei, sans-serif" fill="#222">资产负债表关键数据图</text>
<rect x="40" y="60" width="22" height="10" fill="#4E79A7"/>
<text x="68" y="70" font-size="16" font-family="Arial, PingFang SC, Microsoft YaHei, sans-serif" fill="#333">总资产</text>
<rect x="210" y="60" width="22" height="10" fill="#F28E2B"/>
<text x="238" y="70" font-size="16" font-family="Arial, PingFang SC, Microsoft YaHei, sans-serif" fill="#333">总负债</text>
<rect x="380" y="60" width="22" height="10" fill="#E15759"/>
<text x="408" y="70" font-size="16" font-family="Arial, PingFang SC, Microsoft YaHei, sans-serif" fill="#333">股东权益</text>
<line x1="90" y1="130" x2="90" y2="630" stroke="#555" stroke-width="1"/>
<line x1="90" y1="630.0" x2="1130" y2="630.0" stroke="#555" stroke-width="1"/>
<line x1="90" y1="630.0" x2="1130" y2="630.0" stroke="#eee" stroke-width="1"/>
<text x="78" y="635.0" text-anchor="end" font-size="14" font-family="Arial, PingFang SC, Microsoft YaHei, sans-serif" fill="#666">0.00</text>
<line x1="90" y1="530.0" x2="1130" y2="530.0" stroke="#eee" stroke-width="1"/>
<text x="78" y="535.0" text-anchor="end" font-size="14" font-family="Arial, PingFang SC, Microsoft YaHei, sans-serif" fill="#666">34.86</text>
<line x1="90" y1="430.0" x2="1130" y2="430.0" stroke="#eee" stroke-width="1"/>
<text x="78" y="435.0" text-anchor="end" font-size="14" font-family="Arial, PingFang SC, Microsoft YaHei, sans-serif" fill="#666">69.73</text>
<line x1="90" y1="329.99999999999994" x2="1130" y2="329.99999999999994" stroke="#eee" stroke-width="1"/>
<text x="78" y="334.99999999999994" text-anchor="end" font-size="14" font-family="Arial, PingFang SC, Microsoft YaHei, sans-serif" fill="#666">104.59</text>
<line x1="90" y1="230.0" x2="1130" y2="230.0" stroke="#eee" stroke-width="1"/>
<text x="78" y="235.0" text-anchor="end" font-size="14" font-family="Arial, PingFang SC, Microsoft YaHei, sans-serif" fill="#666">139.46</text>
<line x1="90" y1="130.0" x2="1130" y2="130.0" stroke="#eee" stroke-width="1"/>
<text x="78" y="135.0" text-anchor="end" font-size="14" font-family="Arial, PingFang SC, Microsoft YaHei, sans-serif" fill="#666">174.32</text>
<text x="194.0" y="658" text-anchor="middle" font-size="14" font-family="Arial, PingFang SC, Microsoft YaHei, sans-serif" fill="#666">2021</text>
<text x="402.0" y="658" text-anchor="middle" font-size="14" font-family="Arial, PingFang SC, Microsoft YaHei, sans-serif" fill="#666">2022</text>
<text x="610.0" y="658" text-anchor="middle" font-size="14" font-family="Arial, PingFang SC, Microsoft YaHei, sans-serif" fill="#666">2023</text>
<text x="818.0" y="658" text-anchor="middle" font-size="14" font-family="Arial, PingFang SC, Microsoft YaHei, sans-serif" fill="#666">2024</text>
<text x="1026.0" y="658" text-anchor="middle" font-size="14" font-family="Arial, PingFang SC, Microsoft YaHei, sans-serif" fill="#666">2025</text>
<rect x="123.28" y="322.52" width="65.06" height="307.48" fill="#4E79A7" opacity="0.85"/>
<rect x="331.28" y="248.23" width="65.06" height="381.77" fill="#4E79A7" opacity="0.85"/>
<rect x="539.28" y="246.02" width="65.06" height="383.98" fill="#4E79A7" opacity="0.85"/>
<rect x="747.28" y="199.01" width="65.06" height="430.99" fill="#4E79A7" opacity="0.85"/>
<rect x="955.28" y="130.00" width="65.06" height="500.00" fill="#4E79A7" opacity="0.85"/>
<rect x="194.00" y="468.97" width="65.06" height="161.03" fill="#F28E2B" opacity="0.85"/>
<rect x="402.00" y="432.69" width="65.06" height="197.31" fill="#F28E2B" opacity="0.85"/>
<rect x="610.00" y="433.84" width="65.06" height="196.16" fill="#F28E2B" opacity="0.85"/>
<rect x="818.00" y="405.44" width="65.06" height="224.56" fill="#F28E2B" opacity="0.85"/>
<rect x="1026.00" y="389.38" width="65.06" height="240.62" fill="#F28E2B" opacity="0.85"/>
<polyline fill="none" stroke="#E15759" stroke-width="3" points="194.00,483.55 402.00,445.54 610.00,442.18 818.00,423.57 1026.00,370.62"/>
<circle cx="194.00" cy="483.55" r="4" fill="#E15759"/>
<circle cx="402.00" cy="445.54" r="4" fill="#E15759"/>
<circle cx="610.00" cy="442.18" r="4" fill="#E15759"/>
<circle cx="818.00" cy="423.57" r="4" fill="#E15759"/>
<circle cx="1026.00" cy="370.62" r="4" fill="#E15759"/>
</svg>