<svg xmlns="http://www.w3.org/2000/svg" width="1200" height="720" viewBox="0 0 1200 720">
<rect x="0" y="0" width="100%" height="100%" fill="#ffffff"/>
<text x="40" y="42" font-size="26" font-family="Arial, PingFang SC, Microsoft YaHei, sans-serif" fill="#222">分产品收入变化图</text>
<rect x="40" y="60" width="22" height="10" fill="#4E79A7"/>
<text x="68" y="70" font-size="16" font-family="Arial, PingFang SC, Microsoft YaHei, sans-serif" fill="#333">家电行业</text>
<rect x="210" y="60" width="22" height="10" fill="#F28E2B"/>
<text x="238" y="70" font-size="16" font-family="Arial, PingFang SC, Microsoft YaHei, sans-serif" fill="#333">服务机器人</text>
<rect x="380" y="60" width="22" height="10" fill="#E15759"/>
<text x="408" y="70" font-size="16" font-family="Arial, PingFang SC, Microsoft YaHei, sans-serif" fill="#333">国外</text>
<rect x="550" y="60" width="22" height="10" fill="#76B7B2"/>
<text x="578" y="70" font-size="16" font-family="Arial, PingFang SC, Microsoft YaHei, sans-serif" fill="#333">生活电器产品</text>
<rect x="720" y="60" width="22" height="10" fill="#59A14F"/>
<text x="748" y="70" font-size="16" font-family="Arial, PingFang SC, Microsoft YaHei, sans-serif" fill="#333">其他业务</text>
<line x1="90" y1="130" x2="90" y2="630" stroke="#555" stroke-width="1"/>
<line x1="90" y1="630.0" x2="1130" y2="630.0" stroke="#555" stroke-width="1"/>
<line x1="90" y1="630.0" x2="1130" y2="630.0" stroke="#eee" stroke-width="1"/>
<text x="78" y="635.0" text-anchor="end" font-size="14" font-family="Arial, PingFang SC, Microsoft YaHei, sans-serif" fill="#666">0.00</text>
<line x1="90" y1="530.0" x2="1130" y2="530.0" stroke="#eee" stroke-width="1"/>
<text x="78" y="535.0" text-anchor="end" font-size="14" font-family="Arial, PingFang SC, Microsoft YaHei, sans-serif" fill="#666">38.08</text>
<line x1="90" y1="430.0" x2="1130" y2="430.0" stroke="#eee" stroke-width="1"/>
<text x="78" y="435.0" text-anchor="end" font-size="14" font-family="Arial, PingFang SC, Microsoft YaHei, sans-serif" fill="#666">76.16</text>
<line x1="90" y1="330.0" x2="1130" y2="330.0" stroke="#eee" stroke-width="1"/>
<text x="78" y="335.0" text-anchor="end" font-size="14" font-family="Arial, PingFang SC, Microsoft YaHei, sans-serif" fill="#666">114.24</text>
<line x1="90" y1="230.00000000000003" x2="1130" y2="230.00000000000003" stroke="#eee" stroke-width="1"/>
<text x="78" y="235.00000000000003" text-anchor="end" font-size="14" font-family="Arial, PingFang SC, Microsoft YaHei, sans-serif" fill="#666">152.32</text>
<line x1="90" y1="130.0" x2="1130" y2="130.0" stroke="#eee" stroke-width="1"/>
<text x="78" y="135.0" text-anchor="end" font-size="14" font-family="Arial, PingFang SC, Microsoft YaHei, sans-serif" fill="#666">190.40</text>
<text x="194.0" y="658" text-anchor="middle" font-size="14" font-family="Arial, PingFang SC, Microsoft YaHei, sans-serif" fill="#666">2021</text>
<text x="402.0" y="658" text-anchor="middle" font-size="14" font-family="Arial, PingFang SC, Microsoft YaHei, sans-serif" fill="#666">2022</text>
<text x="610.0" y="658" text-anchor="middle" font-size="14" font-family="Arial, PingFang SC, Microsoft YaHei, sans-serif" fill="#666">2023</text>
<text x="818.0" y="658" text-anchor="middle" font-size="14" font-family="Arial, PingFang SC, Microsoft YaHei, sans-serif" fill="#666">2024</text>
<text x="1026.0" y="658" text-anchor="middle" font-size="14" font-family="Arial, PingFang SC, Microsoft YaHei, sans-serif" fill="#666">2025</text>
<rect x="123.28" y="286.36" width="26.02" height="343.64" fill="#4E79A7" opacity="0.85"/>
<rect x="331.28" y="227.56" width="26.02" height="402.44" fill="#4E79A7" opacity="0.85"/>
<rect x="539.28" y="222.91" width="26.02" height="407.09" fill="#4E79A7" opacity="0.85"/>
<rect x="747.28" y="195.60" width="26.02" height="434.40" fill="#4E79A7" opacity="0.85"/>
<rect x="955.28" y="130.00" width="26.02" height="500.00" fill="#4E79A7" opacity="0.85"/>
<rect x="151.57" y="380.89" width="26.02" height="249.11" fill="#F28E2B" opacity="0.85"/>
<rect x="359.57" y="330.60" width="26.02" height="299.40" fill="#F28E2B" opacity="0.85"/>
<rect x="567.57" y="333.36" width="26.02" height="296.64" fill="#F28E2B" opacity="0.85"/>
<rect x="775.57" y="328.56" width="26.02" height="301.44" fill="#F28E2B" opacity="0.85"/>
<rect x="983.57" y="222.20" width="26.02" height="407.80" fill="#F28E2B" opacity="0.85"/>
<rect x="179.86" y="506.10" width="26.02" height="123.90" fill="#E15759" opacity="0.85"/>
<rect x="387.86" y="493.81" width="26.02" height="136.19" fill="#E15759" opacity="0.85"/>
<rect x="595.86" y="458.73" width="26.02" height="171.27" fill="#E15759" opacity="0.85"/>
<rect x="803.86" y="368.52" width="26.02" height="261.48" fill="#E15759" opacity="0.85"/>
<rect x="1011.86" y="304.92" width="26.02" height="325.08" fill="#E15759" opacity="0.85"/>
<rect x="208.14" y="404.32" width="26.02" height="225.68" fill="#76B7B2" opacity="0.85"/>
<rect x="416.14" y="353.32" width="26.02" height="276.68" fill="#76B7B2" opacity="0.85"/>
<rect x="624.14" y="336.67" width="26.02" height="293.33" fill="#76B7B2" opacity="0.85"/>
<rect x="832.14" y="319.42" width="26.02" height="310.58" fill="#76B7B2" opacity="0.85"/>
<rect x="1040.14" y="316.29" width="26.02" height="313.71" fill="#76B7B2" opacity="0.85"/>
<rect x="236.43" y="620.41" width="26.02" height="9.59" fill="#59A14F" opacity="0.85"/>
<rect x="444.43" y="624.46" width="26.02" height="5.54" fill="#59A14F" opacity="0.85"/>
<rect x="652.43" y="625.27" width="26.02" height="4.73" fill="#59A14F" opacity="0.85"/>
<rect x="860.43" y="624.41" width="26.02" height="5.59" fill="#59A14F" opacity="0.85"/>
<rect x="1068.43" y="623.67" width="26.02" height="6.33" fill="#59A14F" opacity="0.85"/>
</svg>