<svg xmlns="http://www.w3.org/2000/svg" width="1200" height="720" viewBox="0 0 1200 720">
<rect x="0" y="0" width="100%" height="100%" fill="#ffffff"/>
<text x="40" y="42" font-size="26" font-family="Arial, PingFang SC, Microsoft YaHei, sans-serif" fill="#222">财务比率分析图</text>
<rect x="40" y="60" width="22" height="10" fill="#4E79A7"/>
<text x="68" y="70" font-size="16" font-family="Arial, PingFang SC, Microsoft YaHei, sans-serif" fill="#333">资产负债率</text>
<rect x="210" y="60" width="22" height="10" fill="#F28E2B"/>
<text x="238" y="70" font-size="16" font-family="Arial, PingFang SC, Microsoft YaHei, sans-serif" fill="#333">流动比率</text>
<rect x="380" y="60" width="22" height="10" fill="#E15759"/>
<text x="408" y="70" font-size="16" font-family="Arial, PingFang SC, Microsoft YaHei, sans-serif" fill="#333">速动比率</text>
<rect x="550" y="60" width="22" height="10" fill="#76B7B2"/>
<text x="578" y="70" font-size="16" font-family="Arial, PingFang SC, Microsoft YaHei, sans-serif" fill="#333">应收周转率</text>
<rect x="720" y="60" width="22" height="10" fill="#59A14F"/>
<text x="748" y="70" font-size="16" font-family="Arial, PingFang SC, Microsoft YaHei, sans-serif" fill="#333">存货周转率</text>
<line x1="90" y1="130" x2="90" y2="630" stroke="#555" stroke-width="1"/>
<line x1="90" y1="630.0" x2="1130" y2="630.0" stroke="#555" stroke-width="1"/>
<line x1="90" y1="630.0" x2="1130" y2="630.0" stroke="#eee" stroke-width="1"/>
<text x="78" y="635.0" text-anchor="end" font-size="14" font-family="Arial, PingFang SC, Microsoft YaHei, sans-serif" fill="#666">0.00</text>
<line x1="90" y1="530.0" x2="1130" y2="530.0" stroke="#eee" stroke-width="1"/>
<text x="78" y="535.0" text-anchor="end" font-size="14" font-family="Arial, PingFang SC, Microsoft YaHei, sans-serif" fill="#666">10.47</text>
<line x1="90" y1="430.0" x2="1130" y2="430.0" stroke="#eee" stroke-width="1"/>
<text x="78" y="435.0" text-anchor="end" font-size="14" font-family="Arial, PingFang SC, Microsoft YaHei, sans-serif" fill="#666">20.94</text>
<line x1="90" y1="330.0" x2="1130" y2="330.0" stroke="#eee" stroke-width="1"/>
<text x="78" y="335.0" text-anchor="end" font-size="14" font-family="Arial, PingFang SC, Microsoft YaHei, sans-serif" fill="#666">31.42</text>
<line x1="90" y1="230.0" x2="1130" y2="230.0" stroke="#eee" stroke-width="1"/>
<text x="78" y="235.0" text-anchor="end" font-size="14" font-family="Arial, PingFang SC, Microsoft YaHei, sans-serif" fill="#666">41.89</text>
<line x1="90" y1="130.0" x2="1130" y2="130.0" stroke="#eee" stroke-width="1"/>
<text x="78" y="135.0" text-anchor="end" font-size="14" font-family="Arial, PingFang SC, Microsoft YaHei, sans-serif" fill="#666">52.36</text>
<text x="194.0" y="658" text-anchor="middle" font-size="14" font-family="Arial, PingFang SC, Microsoft YaHei, sans-serif" fill="#666">2021</text>
<text x="402.0" y="658" text-anchor="middle" font-size="14" font-family="Arial, PingFang SC, Microsoft YaHei, sans-serif" fill="#666">2022</text>
<text x="610.0" y="658" text-anchor="middle" font-size="14" font-family="Arial, PingFang SC, Microsoft YaHei, sans-serif" fill="#666">2023</text>
<text x="818.0" y="658" text-anchor="middle" font-size="14" font-family="Arial, PingFang SC, Microsoft YaHei, sans-serif" fill="#666">2024</text>
<text x="1026.0" y="658" text-anchor="middle" font-size="14" font-family="Arial, PingFang SC, Microsoft YaHei, sans-serif" fill="#666">2025</text>
<rect x="123.28" y="548.64" width="65.06" height="81.36" fill="#4E79A7" opacity="0.85"/>
<rect x="331.28" y="551.70" width="65.06" height="78.30" fill="#4E79A7" opacity="0.85"/>
<rect x="539.28" y="548.35" width="65.06" height="81.65" fill="#4E79A7" opacity="0.85"/>
<rect x="747.28" y="561.34" width="65.06" height="68.66" fill="#4E79A7" opacity="0.85"/>
<rect x="955.28" y="561.05" width="65.06" height="68.95" fill="#4E79A7" opacity="0.85"/>
<rect x="194.00" y="597.15" width="65.06" height="32.85" fill="#F28E2B" opacity="0.85"/>
<rect x="402.00" y="603.36" width="65.06" height="26.64" fill="#F28E2B" opacity="0.85"/>
<rect x="610.00" y="602.98" width="65.06" height="27.02" fill="#F28E2B" opacity="0.85"/>
<rect x="818.00" y="597.63" width="65.06" height="32.37" fill="#F28E2B" opacity="0.85"/>
<rect x="1026.00" y="596.86" width="65.06" height="33.14" fill="#F28E2B" opacity="0.85"/>
<polyline fill="none" stroke="#E15759" stroke-width="3" points="194.00,130.00 402.00,136.40 610.00,142.13 818.00,132.48 1026.00,170.49"/>
<circle cx="194.00" cy="130.00" r="4" fill="#E15759"/>
<circle cx="402.00" cy="136.40" r="4" fill="#E15759"/>
<circle cx="610.00" cy="142.13" r="4" fill="#E15759"/>
<circle cx="818.00" cy="132.48" r="4" fill="#E15759"/>
<circle cx="1026.00" cy="170.49" r="4" fill="#E15759"/>
<polyline fill="none" stroke="#76B7B2" stroke-width="3" points="194.00,611.38 402.00,611.67 610.00,612.14 818.00,613.67 1026.00,612.72"/>
<circle cx="194.00" cy="611.38" r="4" fill="#76B7B2"/>
<circle cx="402.00" cy="611.67" r="4" fill="#76B7B2"/>
<circle cx="610.00" cy="612.14" r="4" fill="#76B7B2"/>
<circle cx="818.00" cy="613.67" r="4" fill="#76B7B2"/>
<circle cx="1026.00" cy="612.72" r="4" fill="#76B7B2"/>
<polyline fill="none" stroke="#59A14F" stroke-width="3" points="194.00,616.34 402.00,616.44 610.00,617.01 818.00,617.01 1026.00,617.01"/>
<circle cx="194.00" cy="616.34" r="4" fill="#59A14F"/>
<circle cx="402.00" cy="616.44" r="4" fill="#59A14F"/>
<circle cx="610.00" cy="617.01" r="4" fill="#59A14F"/>
<circle cx="818.00" cy="617.01" r="4" fill="#59A14F"/>
<circle cx="1026.00" cy="617.01" r="4" fill="#59A14F"/>
</svg>