<svg xmlns="http://www.w3.org/2000/svg" width="1200" height="720" viewBox="0 0 1200 720">
<rect x="0" y="0" width="100%" height="100%" fill="#ffffff"/>
<text x="40" y="42" font-size="26" font-family="Arial, PingFang SC, Microsoft YaHei, sans-serif" fill="#222">自由现金流与经营现金流对比图</text>
<rect x="40" y="60" width="22" height="10" fill="#4E79A7"/>
<text x="68" y="70" font-size="16" font-family="Arial, PingFang SC, Microsoft YaHei, sans-serif" fill="#333">经营现金流</text>
<rect x="210" y="60" width="22" height="10" fill="#F28E2B"/>
<text x="238" y="70" font-size="16" font-family="Arial, PingFang SC, Microsoft YaHei, sans-serif" fill="#333">自由现金流</text>
<line x1="90" y1="130" x2="90" y2="630" stroke="#555" stroke-width="1"/>
<line x1="90" y1="551.4242417439328" x2="1130" y2="551.4242417439328" stroke="#555" stroke-width="1"/>
<line x1="90" y1="630.0" x2="1130" y2="630.0" stroke="#eee" stroke-width="1"/>
<text x="78" y="635.0" text-anchor="end" font-size="14" font-family="Arial, PingFang SC, Microsoft YaHei, sans-serif" fill="#666">-70.00</text>
<line x1="90" y1="530.0" x2="1130" y2="530.0" stroke="#eee" stroke-width="1"/>
<text x="78" y="535.0" text-anchor="end" font-size="14" font-family="Arial, PingFang SC, Microsoft YaHei, sans-serif" fill="#666">19.09</text>
<line x1="90" y1="430.00000000000006" x2="1130" y2="430.00000000000006" stroke="#eee" stroke-width="1"/>
<text x="78" y="435.00000000000006" text-anchor="end" font-size="14" font-family="Arial, PingFang SC, Microsoft YaHei, sans-serif" fill="#666">108.17</text>
<line x1="90" y1="330.0" x2="1130" y2="330.0" stroke="#eee" stroke-width="1"/>
<text x="78" y="335.0" text-anchor="end" font-size="14" font-family="Arial, PingFang SC, Microsoft YaHei, sans-serif" fill="#666">197.26</text>
<line x1="90" y1="230.0" x2="1130" y2="230.0" stroke="#eee" stroke-width="1"/>
<text x="78" y="235.0" text-anchor="end" font-size="14" font-family="Arial, PingFang SC, Microsoft YaHei, sans-serif" fill="#666">286.34</text>
<line x1="90" y1="130.0" x2="1130" y2="130.0" stroke="#eee" stroke-width="1"/>
<text x="78" y="135.0" text-anchor="end" font-size="14" font-family="Arial, PingFang SC, Microsoft YaHei, sans-serif" fill="#666">375.43</text>
<text x="194.0" y="658" text-anchor="middle" font-size="14" font-family="Arial, PingFang SC, Microsoft YaHei, sans-serif" fill="#666">2021</text>
<text x="402.0" y="658" text-anchor="middle" font-size="14" font-family="Arial, PingFang SC, Microsoft YaHei, sans-serif" fill="#666">2022</text>
<text x="610.0" y="658" text-anchor="middle" font-size="14" font-family="Arial, PingFang SC, Microsoft YaHei, sans-serif" fill="#666">2023</text>
<text x="818.0" y="658" text-anchor="middle" font-size="14" font-family="Arial, PingFang SC, Microsoft YaHei, sans-serif" fill="#666">2024</text>
<text x="1026.0" y="658" text-anchor="middle" font-size="14" font-family="Arial, PingFang SC, Microsoft YaHei, sans-serif" fill="#666">2025</text>
<polyline fill="none" stroke="#4E79A7" stroke-width="3" points="194.00,368.51 402.00,293.12 610.00,440.37 818.00,130.00 1026.00,214.04"/>
<circle cx="194.00" cy="368.51" r="4" fill="#4E79A7"/>
<circle cx="402.00" cy="293.12" r="4" fill="#4E79A7"/>
<circle cx="610.00" cy="440.37" r="4" fill="#4E79A7"/>
<circle cx="818.00" cy="130.00" r="4" fill="#4E79A7"/>
<circle cx="1026.00" cy="214.04" r="4" fill="#4E79A7"/>
<polyline fill="none" stroke="#F28E2B" stroke-width="3" points="194.00,600.12 402.00,530.79 610.00,630.00 818.00,551.42 1026.00,346.66"/>
<circle cx="194.00" cy="600.12" r="4" fill="#F28E2B"/>
<circle cx="402.00" cy="530.79" r="4" fill="#F28E2B"/>
<circle cx="610.00" cy="630.00" r="4" fill="#F28E2B"/>
<circle cx="818.00" cy="551.42" r="4" fill="#F28E2B"/>
<circle cx="1026.00" cy="346.66" r="4" fill="#F28E2B"/>
</svg>