<svg xmlns="http://www.w3.org/2000/svg" width="1200" height="720" viewBox="0 0 1200 720">
<rect x="0" y="0" width="100%" height="100%" fill="#ffffff"/>
<text x="40" y="42" font-size="26" font-family="Arial, PingFang SC, Microsoft YaHei, sans-serif" fill="#222">分产品收入变化图</text>
<rect x="40" y="60" width="22" height="10" fill="#4E79A7"/>
<text x="68" y="70" font-size="16" font-family="Arial, PingFang SC, Microsoft YaHei, sans-serif" fill="#333">普通机械制造业</text>
<rect x="210" y="60" width="22" height="10" fill="#F28E2B"/>
<text x="238" y="70" font-size="16" font-family="Arial, PingFang SC, Microsoft YaHei, sans-serif" fill="#333">乘用车齿轮</text>
<rect x="380" y="60" width="22" height="10" fill="#E15759"/>
<text x="408" y="70" font-size="16" font-family="Arial, PingFang SC, Microsoft YaHei, sans-serif" fill="#333">国外</text>
<rect x="550" y="60" width="22" height="10" fill="#76B7B2"/>
<text x="578" y="70" font-size="16" font-family="Arial, PingFang SC, Microsoft YaHei, sans-serif" fill="#333">智能执行机构</text>
<rect x="720" y="60" width="22" height="10" fill="#59A14F"/>
<text x="748" y="70" font-size="16" font-family="Arial, PingFang SC, Microsoft YaHei, sans-serif" fill="#333">减速器及其他</text>
<line x1="90" y1="130" x2="90" y2="630" stroke="#555" stroke-width="1"/>
<line x1="90" y1="630.0" x2="1130" y2="630.0" stroke="#555" stroke-width="1"/>
<line x1="90" y1="630.0" x2="1130" y2="630.0" stroke="#eee" stroke-width="1"/>
<text x="78" y="635.0" text-anchor="end" font-size="14" font-family="Arial, PingFang SC, Microsoft YaHei, sans-serif" fill="#666">0.00</text>
<line x1="90" y1="530.0" x2="1130" y2="530.0" stroke="#eee" stroke-width="1"/>
<text x="78" y="535.0" text-anchor="end" font-size="14" font-family="Arial, PingFang SC, Microsoft YaHei, sans-serif" fill="#666">26.68</text>
<line x1="90" y1="430.0" x2="1130" y2="430.0" stroke="#eee" stroke-width="1"/>
<text x="78" y="435.0" text-anchor="end" font-size="14" font-family="Arial, PingFang SC, Microsoft YaHei, sans-serif" fill="#666">53.36</text>
<line x1="90" y1="330.0" x2="1130" y2="330.0" stroke="#eee" stroke-width="1"/>
<text x="78" y="335.0" text-anchor="end" font-size="14" font-family="Arial, PingFang SC, Microsoft YaHei, sans-serif" fill="#666">80.03</text>
<line x1="90" y1="230.0" x2="1130" y2="230.0" stroke="#eee" stroke-width="1"/>
<text x="78" y="235.0" text-anchor="end" font-size="14" font-family="Arial, PingFang SC, Microsoft YaHei, sans-serif" fill="#666">106.71</text>
<line x1="90" y1="130.0" x2="1130" y2="130.0" stroke="#eee" stroke-width="1"/>
<text x="78" y="135.0" text-anchor="end" font-size="14" font-family="Arial, PingFang SC, Microsoft YaHei, sans-serif" fill="#666">133.39</text>
<text x="194.0" y="658" text-anchor="middle" font-size="14" font-family="Arial, PingFang SC, Microsoft YaHei, sans-serif" fill="#666">2021</text>
<text x="402.0" y="658" text-anchor="middle" font-size="14" font-family="Arial, PingFang SC, Microsoft YaHei, sans-serif" fill="#666">2022</text>
<text x="610.0" y="658" text-anchor="middle" font-size="14" font-family="Arial, PingFang SC, Microsoft YaHei, sans-serif" fill="#666">2023</text>
<text x="818.0" y="658" text-anchor="middle" font-size="14" font-family="Arial, PingFang SC, Microsoft YaHei, sans-serif" fill="#666">2024</text>
<text x="1026.0" y="658" text-anchor="middle" font-size="14" font-family="Arial, PingFang SC, Microsoft YaHei, sans-serif" fill="#666">2025</text>
<rect x="123.28" y="375.56" width="26.02" height="254.44" fill="#4E79A7" opacity="0.85"/>
<rect x="331.28" y="314.46" width="26.02" height="315.54" fill="#4E79A7" opacity="0.85"/>
<rect x="539.28" y="251.52" width="26.02" height="378.48" fill="#4E79A7" opacity="0.85"/>
<rect x="747.28" y="182.48" width="26.02" height="447.52" fill="#4E79A7" opacity="0.85"/>
<rect x="955.28" y="130.00" width="26.02" height="500.00" fill="#4E79A7" opacity="0.85"/>
<rect x="151.57" y="499.48" width="26.02" height="130.52" fill="#F28E2B" opacity="0.85"/>
<rect x="359.57" y="432.68" width="26.02" height="197.32" fill="#F28E2B" opacity="0.85"/>
<rect x="567.57" y="402.81" width="26.02" height="227.19" fill="#F28E2B" opacity="0.85"/>
<rect x="775.57" y="341.82" width="26.02" height="288.18" fill="#F28E2B" opacity="0.85"/>
<rect x="983.57" y="304.90" width="26.02" height="325.10" fill="#F28E2B" opacity="0.85"/>
<rect x="179.86" y="588.06" width="26.02" height="41.94" fill="#E15759" opacity="0.85"/>
<rect x="387.86" y="578.38" width="26.02" height="51.62" fill="#E15759" opacity="0.85"/>
<rect x="595.86" y="570.51" width="26.02" height="59.49" fill="#E15759" opacity="0.85"/>
<rect x="803.86" y="557.84" width="26.02" height="72.16" fill="#E15759" opacity="0.85"/>
<rect x="1011.86" y="525.72" width="26.02" height="104.28" fill="#E15759" opacity="0.85"/>
<rect x="208.14" y="630.00" width="26.02" height="0.00" fill="#76B7B2" opacity="0.85"/>
<rect x="416.14" y="630.00" width="26.02" height="0.00" fill="#76B7B2" opacity="0.85"/>
<rect x="624.14" y="630.00" width="26.02" height="0.00" fill="#76B7B2" opacity="0.85"/>
<rect x="832.14" y="595.40" width="26.02" height="34.60" fill="#76B7B2" opacity="0.85"/>
<rect x="1040.14" y="584.16" width="26.02" height="45.84" fill="#76B7B2" opacity="0.85"/>
<rect x="236.43" y="617.93" width="26.02" height="12.07" fill="#59A14F" opacity="0.85"/>
<rect x="444.43" y="610.10" width="26.02" height="19.90" fill="#59A14F" opacity="0.85"/>
<rect x="652.43" y="598.89" width="26.02" height="31.11" fill="#59A14F" opacity="0.85"/>
<rect x="860.43" y="595.78" width="26.02" height="34.22" fill="#59A14F" opacity="0.85"/>
<rect x="1068.43" y="587.12" width="26.02" height="42.88" fill="#59A14F" opacity="0.85"/>
</svg>