<svg xmlns="http://www.w3.org/2000/svg" width="1200" height="720" viewBox="0 0 1200 720">
<rect x="0" y="0" width="100%" height="100%" fill="#ffffff"/>
<text x="40" y="42" font-size="26" font-family="Arial, PingFang SC, Microsoft YaHei, sans-serif" fill="#222">分产品利润结构图</text>
<rect x="40" y="60" width="22" height="10" fill="#4E79A7"/>
<text x="68" y="70" font-size="16" font-family="Arial, PingFang SC, Microsoft YaHei, sans-serif" fill="#333">利润</text>
<rect x="210" y="60" width="22" height="10" fill="#F28E2B"/>
<text x="238" y="70" font-size="16" font-family="Arial, PingFang SC, Microsoft YaHei, sans-serif" fill="#333">毛利率</text>
<line x1="90" y1="130" x2="90" y2="630" stroke="#555" stroke-width="1"/>
<line x1="90" y1="630.0" x2="1130" y2="630.0" stroke="#555" stroke-width="1"/>
<line x1="90" y1="630.0" x2="1130" y2="630.0" stroke="#eee" stroke-width="1"/>
<text x="78" y="635.0" text-anchor="end" font-size="14" font-family="Arial, PingFang SC, Microsoft YaHei, sans-serif" fill="#666">0.00</text>
<line x1="90" y1="530.0" x2="1130" y2="530.0" stroke="#eee" stroke-width="1"/>
<text x="78" y="535.0" text-anchor="end" font-size="14" font-family="Arial, PingFang SC, Microsoft YaHei, sans-serif" fill="#666">7.69</text>
<line x1="90" y1="430.0" x2="1130" y2="430.0" stroke="#eee" stroke-width="1"/>
<text x="78" y="435.0" text-anchor="end" font-size="14" font-family="Arial, PingFang SC, Microsoft YaHei, sans-serif" fill="#666">15.37</text>
<line x1="90" y1="330.0" x2="1130" y2="330.0" stroke="#eee" stroke-width="1"/>
<text x="78" y="335.0" text-anchor="end" font-size="14" font-family="Arial, PingFang SC, Microsoft YaHei, sans-serif" fill="#666">23.06</text>
<line x1="90" y1="230.0" x2="1130" y2="230.0" stroke="#eee" stroke-width="1"/>
<text x="78" y="235.0" text-anchor="end" font-size="14" font-family="Arial, PingFang SC, Microsoft YaHei, sans-serif" fill="#666">30.74</text>
<line x1="90" y1="130.0" x2="1130" y2="130.0" stroke="#eee" stroke-width="1"/>
<text x="78" y="135.0" text-anchor="end" font-size="14" font-family="Arial, PingFang SC, Microsoft YaHei, sans-serif" fill="#666">38.43</text>
<text x="155.0" y="658" text-anchor="middle" font-size="14" font-family="Arial, PingFang SC, Microsoft YaHei, sans-serif" fill="#666">普通机械制造业</text>
<text x="285.0" y="658" text-anchor="middle" font-size="14" font-family="Arial, PingFang SC, Microsoft YaHei, sans-serif" fill="#666">乘用车齿轮</text>
<text x="415.0" y="658" text-anchor="middle" font-size="14" font-family="Arial, PingFang SC, Microsoft YaHei, sans-serif" fill="#666">国外</text>
<text x="545.0" y="658" text-anchor="middle" font-size="14" font-family="Arial, PingFang SC, Microsoft YaHei, sans-serif" fill="#666">智能执行机构</text>
<text x="675.0" y="658" text-anchor="middle" font-size="14" font-family="Arial, PingFang SC, Microsoft YaHei, sans-serif" fill="#666">减速器及其他</text>
<text x="805.0" y="658" text-anchor="middle" font-size="14" font-family="Arial, PingFang SC, Microsoft YaHei, sans-serif" fill="#666">商用车齿轮</text>
<text x="935.0" y="658" text-anchor="middle" font-size="14" font-family="Arial, PingFang SC, Microsoft YaHei, sans-serif" fill="#666">工程机械齿轮</text>
<text x="1065.0" y="658" text-anchor="middle" font-size="14" font-family="Arial, PingFang SC, Microsoft YaHei, sans-serif" fill="#666">电动工具齿轮</text>
<rect x="110.80" y="306.03" width="81.33" height="323.97" fill="#4E79A7" opacity="0.85"/>
<rect x="240.80" y="423.91" width="81.33" height="206.09" fill="#4E79A7" opacity="0.85"/>
<rect x="370.80" y="559.87" width="81.33" height="70.13" fill="#4E79A7" opacity="0.85"/>
<rect x="500.80" y="609.83" width="81.33" height="20.17" fill="#4E79A7" opacity="0.85"/>
<rect x="630.80" y="590.19" width="81.33" height="39.81" fill="#4E79A7" opacity="0.85"/>
<rect x="760.80" y="605.02" width="81.33" height="24.98" fill="#4E79A7" opacity="0.85"/>
<rect x="890.80" y="603.59" width="81.33" height="26.41" fill="#4E79A7" opacity="0.85"/>
<rect x="1020.80" y="625.71" width="81.33" height="4.29" fill="#4E79A7" opacity="0.85"/>
<polyline fill="none" stroke="#F28E2B" stroke-width="3" points="155.00,274.29 285.00,286.91 415.00,291.98 545.00,376.81 675.00,130.00 805.00,257.63 935.00,213.40 1065.00,309.29"/>
<circle cx="155.00" cy="274.29" r="4" fill="#F28E2B"/>
<circle cx="285.00" cy="286.91" r="4" fill="#F28E2B"/>
<circle cx="415.00" cy="291.98" r="4" fill="#F28E2B"/>
<circle cx="545.00" cy="376.81" r="4" fill="#F28E2B"/>
<circle cx="675.00" cy="130.00" r="4" fill="#F28E2B"/>
<circle cx="805.00" cy="257.63" r="4" fill="#F28E2B"/>
<circle cx="935.00" cy="213.40" r="4" fill="#F28E2B"/>
<circle cx="1065.00" cy="309.29" r="4" fill="#F28E2B"/>
</svg>