<svg xmlns="http://www.w3.org/2000/svg" width="1200" height="720" viewBox="0 0 1200 720">
<rect x="0" y="0" width="100%" height="100%" fill="#ffffff"/>
<text x="40" y="42" font-size="26" font-family="Arial, PingFang SC, Microsoft YaHei, sans-serif" fill="#222">分产品收入变化图</text>
<rect x="40" y="60" width="22" height="10" fill="#4E79A7"/>
<text x="68" y="70" font-size="16" font-family="Arial, PingFang SC, Microsoft YaHei, sans-serif" fill="#333">酒类</text>
<rect x="210" y="60" width="22" height="10" fill="#F28E2B"/>
<text x="238" y="70" font-size="16" font-family="Arial, PingFang SC, Microsoft YaHei, sans-serif" fill="#333">白酒</text>
<rect x="380" y="60" width="22" height="10" fill="#E15759"/>
<text x="408" y="70" font-size="16" font-family="Arial, PingFang SC, Microsoft YaHei, sans-serif" fill="#333">省外</text>
<rect x="550" y="60" width="22" height="10" fill="#76B7B2"/>
<text x="578" y="70" font-size="16" font-family="Arial, PingFang SC, Microsoft YaHei, sans-serif" fill="#333">省内</text>
<rect x="720" y="60" width="22" height="10" fill="#59A14F"/>
<text x="748" y="70" font-size="16" font-family="Arial, PingFang SC, Microsoft YaHei, sans-serif" fill="#333">其他业务</text>
<line x1="90" y1="130" x2="90" y2="630" stroke="#555" stroke-width="1"/>
<line x1="90" y1="630.0" x2="1130" y2="630.0" stroke="#555" stroke-width="1"/>
<line x1="90" y1="630.0" x2="1130" y2="630.0" stroke="#eee" stroke-width="1"/>
<text x="78" y="635.0" text-anchor="end" font-size="14" font-family="Arial, PingFang SC, Microsoft YaHei, sans-serif" fill="#666">0.00</text>
<line x1="90" y1="530.0" x2="1130" y2="530.0" stroke="#eee" stroke-width="1"/>
<text x="78" y="535.0" text-anchor="end" font-size="14" font-family="Arial, PingFang SC, Microsoft YaHei, sans-serif" fill="#666">107.89</text>
<line x1="90" y1="430.00000000000006" x2="1130" y2="430.00000000000006" stroke="#eee" stroke-width="1"/>
<text x="78" y="435.00000000000006" text-anchor="end" font-size="14" font-family="Arial, PingFang SC, Microsoft YaHei, sans-serif" fill="#666">215.78</text>
<line x1="90" y1="330.0" x2="1130" y2="330.0" stroke="#eee" stroke-width="1"/>
<text x="78" y="335.0" text-anchor="end" font-size="14" font-family="Arial, PingFang SC, Microsoft YaHei, sans-serif" fill="#666">323.68</text>
<line x1="90" y1="230.0" x2="1130" y2="230.0" stroke="#eee" stroke-width="1"/>
<text x="78" y="235.0" text-anchor="end" font-size="14" font-family="Arial, PingFang SC, Microsoft YaHei, sans-serif" fill="#666">431.57</text>
<line x1="90" y1="130.0" x2="1130" y2="130.0" stroke="#eee" stroke-width="1"/>
<text x="78" y="135.0" text-anchor="end" font-size="14" font-family="Arial, PingFang SC, Microsoft YaHei, sans-serif" fill="#666">539.46</text>
<text x="194.0" y="658" text-anchor="middle" font-size="14" font-family="Arial, PingFang SC, Microsoft YaHei, sans-serif" fill="#666">2021</text>
<text x="402.0" y="658" text-anchor="middle" font-size="14" font-family="Arial, PingFang SC, Microsoft YaHei, sans-serif" fill="#666">2022</text>
<text x="610.0" y="658" text-anchor="middle" font-size="14" font-family="Arial, PingFang SC, Microsoft YaHei, sans-serif" fill="#666">2023</text>
<text x="818.0" y="658" text-anchor="middle" font-size="14" font-family="Arial, PingFang SC, Microsoft YaHei, sans-serif" fill="#666">2024</text>
<text x="1026.0" y="658" text-anchor="middle" font-size="14" font-family="Arial, PingFang SC, Microsoft YaHei, sans-serif" fill="#666">2025</text>
<rect x="123.28" y="261.18" width="26.02" height="368.82" fill="#4E79A7" opacity="0.85"/>
<rect x="331.28" y="184.95" width="26.02" height="445.05" fill="#4E79A7" opacity="0.85"/>
<rect x="539.28" y="130.00" width="26.02" height="500.00" fill="#4E79A7" opacity="0.85"/>
<rect x="747.28" y="159.71" width="26.02" height="470.29" fill="#4E79A7" opacity="0.85"/>
<rect x="955.28" y="321.46" width="26.02" height="308.54" fill="#4E79A7" opacity="0.85"/>
<rect x="151.57" y="263.86" width="26.02" height="366.14" fill="#F28E2B" opacity="0.85"/>
<rect x="359.57" y="187.41" width="26.02" height="442.59" fill="#F28E2B" opacity="0.85"/>
<rect x="567.57" y="131.54" width="26.02" height="498.46" fill="#F28E2B" opacity="0.85"/>
<rect x="775.57" y="160.90" width="26.02" height="469.10" fill="#F28E2B" opacity="0.85"/>
<rect x="983.57" y="321.90" width="26.02" height="308.10" fill="#F28E2B" opacity="0.85"/>
<rect x="179.86" y="435.24" width="26.02" height="194.76" fill="#E15759" opacity="0.85"/>
<rect x="387.86" y="388.18" width="26.02" height="241.82" fill="#E15759" opacity="0.85"/>
<rect x="595.86" y="351.09" width="26.02" height="278.91" fill="#E15759" opacity="0.85"/>
<rect x="803.86" y="366.81" width="26.02" height="263.19" fill="#E15759" opacity="0.85"/>
<rect x="1011.86" y="467.35" width="26.02" height="162.65" fill="#E15759" opacity="0.85"/>
<rect x="208.14" y="455.94" width="26.02" height="174.06" fill="#76B7B2" opacity="0.85"/>
<rect x="416.14" y="426.77" width="26.02" height="203.23" fill="#76B7B2" opacity="0.85"/>
<rect x="624.14" y="408.91" width="26.02" height="221.09" fill="#76B7B2" opacity="0.85"/>
<rect x="832.14" y="422.90" width="26.02" height="207.10" fill="#76B7B2" opacity="0.85"/>
<rect x="1040.14" y="484.11" width="26.02" height="145.89" fill="#76B7B2" opacity="0.85"/>
<rect x="236.43" y="619.80" width="26.02" height="10.20" fill="#59A14F" opacity="0.85"/>
<rect x="444.43" y="620.77" width="26.02" height="9.23" fill="#59A14F" opacity="0.85"/>
<rect x="652.43" y="620.24" width="26.02" height="9.76" fill="#59A14F" opacity="0.85"/>
<rect x="860.43" y="620.61" width="26.02" height="9.39" fill="#59A14F" opacity="0.85"/>
<rect x="1068.43" y="623.35" width="26.02" height="6.65" fill="#59A14F" opacity="0.85"/>
</svg>