<svg xmlns="http://www.w3.org/2000/svg" width="1200" height="720" viewBox="0 0 1200 720">
<rect x="0" y="0" width="100%" height="100%" fill="#ffffff"/>
<text x="40" y="42" font-size="26" font-family="Arial, PingFang SC, Microsoft YaHei, sans-serif" fill="#222">分产品利润结构图</text>
<rect x="40" y="60" width="22" height="10" fill="#4E79A7"/>
<text x="68" y="70" font-size="16" font-family="Arial, PingFang SC, Microsoft YaHei, sans-serif" fill="#333">利润</text>
<rect x="210" y="60" width="22" height="10" fill="#F28E2B"/>
<text x="238" y="70" font-size="16" font-family="Arial, PingFang SC, Microsoft YaHei, sans-serif" fill="#333">毛利率</text>
<line x1="90" y1="130" x2="90" y2="630" stroke="#555" stroke-width="1"/>
<line x1="90" y1="630.0" x2="1130" y2="630.0" stroke="#555" stroke-width="1"/>
<line x1="90" y1="630.0" x2="1130" y2="630.0" stroke="#eee" stroke-width="1"/>
<text x="78" y="635.0" text-anchor="end" font-size="14" font-family="Arial, PingFang SC, Microsoft YaHei, sans-serif" fill="#666">0.00</text>
<line x1="90" y1="530.0" x2="1130" y2="530.0" stroke="#eee" stroke-width="1"/>
<text x="78" y="535.0" text-anchor="end" font-size="14" font-family="Arial, PingFang SC, Microsoft YaHei, sans-serif" fill="#666">12.87</text>
<line x1="90" y1="430.0" x2="1130" y2="430.0" stroke="#eee" stroke-width="1"/>
<text x="78" y="435.0" text-anchor="end" font-size="14" font-family="Arial, PingFang SC, Microsoft YaHei, sans-serif" fill="#666">25.75</text>
<line x1="90" y1="330.0" x2="1130" y2="330.0" stroke="#eee" stroke-width="1"/>
<text x="78" y="335.0" text-anchor="end" font-size="14" font-family="Arial, PingFang SC, Microsoft YaHei, sans-serif" fill="#666">38.62</text>
<line x1="90" y1="230.0" x2="1130" y2="230.0" stroke="#eee" stroke-width="1"/>
<text x="78" y="235.0" text-anchor="end" font-size="14" font-family="Arial, PingFang SC, Microsoft YaHei, sans-serif" fill="#666">51.50</text>
<line x1="90" y1="130.0" x2="1130" y2="130.0" stroke="#eee" stroke-width="1"/>
<text x="78" y="135.0" text-anchor="end" font-size="14" font-family="Arial, PingFang SC, Microsoft YaHei, sans-serif" fill="#666">64.37</text>
<text x="155.0" y="658" text-anchor="middle" font-size="14" font-family="Arial, PingFang SC, Microsoft YaHei, sans-serif" fill="#666">国外</text>
<text x="285.0" y="658" text-anchor="middle" font-size="14" font-family="Arial, PingFang SC, Microsoft YaHei, sans-serif" fill="#666">医疗</text>
<text x="415.0" y="658" text-anchor="middle" font-size="14" font-family="Arial, PingFang SC, Microsoft YaHei, sans-serif" fill="#666">呼吸管理与监护类</text>
<text x="545.0" y="658" text-anchor="middle" font-size="14" font-family="Arial, PingFang SC, Microsoft YaHei, sans-serif" fill="#666">非医疗行业</text>
<text x="675.0" y="658" text-anchor="middle" font-size="14" font-family="Arial, PingFang SC, Microsoft YaHei, sans-serif" fill="#666">家用及消费电子组件</text>
<text x="805.0" y="658" text-anchor="middle" font-size="14" font-family="Arial, PingFang SC, Microsoft YaHei, sans-serif" fill="#666">贸易类其他医疗器械产品</text>
<text x="935.0" y="658" text-anchor="middle" font-size="14" font-family="Arial, PingFang SC, Microsoft YaHei, sans-serif" fill="#666">五官及神经类</text>
<text x="1065.0" y="658" text-anchor="middle" font-size="14" font-family="Arial, PingFang SC, Microsoft YaHei, sans-serif" fill="#666">智能装备与技术服务</text>
<rect x="110.80" y="583.16" width="81.33" height="46.84" fill="#4E79A7" opacity="0.85"/>
<rect x="240.80" y="585.72" width="81.33" height="44.28" fill="#4E79A7" opacity="0.85"/>
<rect x="370.80" y="595.98" width="81.33" height="34.02" fill="#4E79A7" opacity="0.85"/>
<rect x="500.80" y="623.63" width="81.33" height="6.37" fill="#4E79A7" opacity="0.85"/>
<rect x="630.80" y="624.87" width="81.33" height="5.13" fill="#4E79A7" opacity="0.85"/>
<rect x="760.80" y="625.88" width="81.33" height="4.12" fill="#4E79A7" opacity="0.85"/>
<rect x="890.80" y="623.86" width="81.33" height="6.14" fill="#4E79A7" opacity="0.85"/>
<rect x="1020.80" y="629.07" width="81.33" height="0.93" fill="#4E79A7" opacity="0.85"/>
<polyline fill="none" stroke="#F28E2B" stroke-width="3" points="155.00,287.92 285.00,287.45 415.00,289.86 545.00,439.31 675.00,410.10 805.00,387.96 935.00,130.00 1065.00,528.48"/>
<circle cx="155.00" cy="287.92" r="4" fill="#F28E2B"/>
<circle cx="285.00" cy="287.45" r="4" fill="#F28E2B"/>
<circle cx="415.00" cy="289.86" r="4" fill="#F28E2B"/>
<circle cx="545.00" cy="439.31" r="4" fill="#F28E2B"/>
<circle cx="675.00" cy="410.10" r="4" fill="#F28E2B"/>
<circle cx="805.00" cy="387.96" r="4" fill="#F28E2B"/>
<circle cx="935.00" cy="130.00" r="4" fill="#F28E2B"/>
<circle cx="1065.00" cy="528.48" r="4" fill="#F28E2B"/>
</svg>