<svg xmlns="http://www.w3.org/2000/svg" width="1200" height="720" viewBox="0 0 1200 720">
<rect x="0" y="0" width="100%" height="100%" fill="#ffffff"/>
<text x="40" y="42" font-size="26" font-family="Arial, PingFang SC, Microsoft YaHei, sans-serif" fill="#222">财务比率分析图</text>
<rect x="40" y="60" width="22" height="10" fill="#4E79A7"/>
<text x="68" y="70" font-size="16" font-family="Arial, PingFang SC, Microsoft YaHei, sans-serif" fill="#333">资产负债率</text>
<rect x="210" y="60" width="22" height="10" fill="#F28E2B"/>
<text x="238" y="70" font-size="16" font-family="Arial, PingFang SC, Microsoft YaHei, sans-serif" fill="#333">流动比率</text>
<rect x="380" y="60" width="22" height="10" fill="#E15759"/>
<text x="408" y="70" font-size="16" font-family="Arial, PingFang SC, Microsoft YaHei, sans-serif" fill="#333">速动比率</text>
<rect x="550" y="60" width="22" height="10" fill="#76B7B2"/>
<text x="578" y="70" font-size="16" font-family="Arial, PingFang SC, Microsoft YaHei, sans-serif" fill="#333">应收周转率</text>
<rect x="720" y="60" width="22" height="10" fill="#59A14F"/>
<text x="748" y="70" font-size="16" font-family="Arial, PingFang SC, Microsoft YaHei, sans-serif" fill="#333">存货周转率</text>
<line x1="90" y1="130" x2="90" y2="630" stroke="#555" stroke-width="1"/>
<line x1="90" y1="630.0" x2="1130" y2="630.0" stroke="#555" stroke-width="1"/>
<line x1="90" y1="630.0" x2="1130" y2="630.0" stroke="#eee" stroke-width="1"/>
<text x="78" y="635.0" text-anchor="end" font-size="14" font-family="Arial, PingFang SC, Microsoft YaHei, sans-serif" fill="#666">0.00</text>
<line x1="90" y1="530.0" x2="1130" y2="530.0" stroke="#eee" stroke-width="1"/>
<text x="78" y="535.0" text-anchor="end" font-size="14" font-family="Arial, PingFang SC, Microsoft YaHei, sans-serif" fill="#666">5.36</text>
<line x1="90" y1="429.99999999999994" x2="1130" y2="429.99999999999994" stroke="#eee" stroke-width="1"/>
<text x="78" y="434.99999999999994" text-anchor="end" font-size="14" font-family="Arial, PingFang SC, Microsoft YaHei, sans-serif" fill="#666">10.72</text>
<line x1="90" y1="330.0" x2="1130" y2="330.0" stroke="#eee" stroke-width="1"/>
<text x="78" y="335.0" text-anchor="end" font-size="14" font-family="Arial, PingFang SC, Microsoft YaHei, sans-serif" fill="#666">16.08</text>
<line x1="90" y1="230.0" x2="1130" y2="230.0" stroke="#eee" stroke-width="1"/>
<text x="78" y="235.0" text-anchor="end" font-size="14" font-family="Arial, PingFang SC, Microsoft YaHei, sans-serif" fill="#666">21.44</text>
<line x1="90" y1="130.0" x2="1130" y2="130.0" stroke="#eee" stroke-width="1"/>
<text x="78" y="135.0" text-anchor="end" font-size="14" font-family="Arial, PingFang SC, Microsoft YaHei, sans-serif" fill="#666">26.80</text>
<text x="194.0" y="658" text-anchor="middle" font-size="14" font-family="Arial, PingFang SC, Microsoft YaHei, sans-serif" fill="#666">2021</text>
<text x="402.0" y="658" text-anchor="middle" font-size="14" font-family="Arial, PingFang SC, Microsoft YaHei, sans-serif" fill="#666">2022</text>
<text x="610.0" y="658" text-anchor="middle" font-size="14" font-family="Arial, PingFang SC, Microsoft YaHei, sans-serif" fill="#666">2023</text>
<text x="818.0" y="658" text-anchor="middle" font-size="14" font-family="Arial, PingFang SC, Microsoft YaHei, sans-serif" fill="#666">2024</text>
<text x="1026.0" y="658" text-anchor="middle" font-size="14" font-family="Arial, PingFang SC, Microsoft YaHei, sans-serif" fill="#666">2025</text>
<rect x="123.28" y="512.65" width="65.06" height="117.35" fill="#4E79A7" opacity="0.85"/>
<rect x="331.28" y="504.07" width="65.06" height="125.93" fill="#4E79A7" opacity="0.85"/>
<rect x="539.28" y="510.04" width="65.06" height="119.96" fill="#4E79A7" opacity="0.85"/>
<rect x="747.28" y="523.47" width="65.06" height="106.53" fill="#4E79A7" opacity="0.85"/>
<rect x="955.28" y="545.86" width="65.06" height="84.14" fill="#4E79A7" opacity="0.85"/>
<rect x="194.00" y="578.13" width="65.06" height="51.87" fill="#F28E2B" opacity="0.85"/>
<rect x="402.00" y="589.70" width="65.06" height="40.30" fill="#F28E2B" opacity="0.85"/>
<rect x="610.00" y="593.62" width="65.06" height="36.38" fill="#F28E2B" opacity="0.85"/>
<rect x="818.00" y="581.12" width="65.06" height="48.88" fill="#F28E2B" opacity="0.85"/>
<rect x="1026.00" y="578.69" width="65.06" height="51.31" fill="#F28E2B" opacity="0.85"/>
<polyline fill="none" stroke="#E15759" stroke-width="3" points="194.00,130.00 402.00,427.95 610.00,449.40 818.00,419.74 1026.00,409.48"/>
<circle cx="194.00" cy="130.00" r="4" fill="#E15759"/>
<circle cx="402.00" cy="427.95" r="4" fill="#E15759"/>
<circle cx="610.00" cy="449.40" r="4" fill="#E15759"/>
<circle cx="818.00" cy="419.74" r="4" fill="#E15759"/>
<circle cx="1026.00" cy="409.48" r="4" fill="#E15759"/>
<polyline fill="none" stroke="#76B7B2" stroke-width="3" points="194.00,577.76 402.00,482.80 610.00,468.43 818.00,506.68 1026.00,523.47"/>
<circle cx="194.00" cy="577.76" r="4" fill="#76B7B2"/>
<circle cx="402.00" cy="482.80" r="4" fill="#76B7B2"/>
<circle cx="610.00" cy="468.43" r="4" fill="#76B7B2"/>
<circle cx="818.00" cy="506.68" r="4" fill="#76B7B2"/>
<circle cx="1026.00" cy="523.47" r="4" fill="#76B7B2"/>
<polyline fill="none" stroke="#59A14F" stroke-width="3" points="194.00,593.43 402.00,509.10 610.00,493.99 818.00,523.28 1026.00,539.89"/>
<circle cx="194.00" cy="593.43" r="4" fill="#59A14F"/>
<circle cx="402.00" cy="509.10" r="4" fill="#59A14F"/>
<circle cx="610.00" cy="493.99" r="4" fill="#59A14F"/>
<circle cx="818.00" cy="523.28" r="4" fill="#59A14F"/>
<circle cx="1026.00" cy="539.89" r="4" fill="#59A14F"/>
</svg>