<svg xmlns="http://www.w3.org/2000/svg" width="1200" height="720" viewBox="0 0 1200 720">
<rect x="0" y="0" width="100%" height="100%" fill="#ffffff"/>
<text x="40" y="42" font-size="26" font-family="Arial, PingFang SC, Microsoft YaHei, sans-serif" fill="#222">分产品收入变化图</text>
<rect x="40" y="60" width="22" height="10" fill="#4E79A7"/>
<text x="68" y="70" font-size="16" font-family="Arial, PingFang SC, Microsoft YaHei, sans-serif" fill="#333">工业自动化(行业)</text>
<rect x="210" y="60" width="22" height="10" fill="#F28E2B"/>
<text x="238" y="70" font-size="16" font-family="Arial, PingFang SC, Microsoft YaHei, sans-serif" fill="#333">驱动系统</text>
<rect x="380" y="60" width="22" height="10" fill="#E15759"/>
<text x="408" y="70" font-size="16" font-family="Arial, PingFang SC, Microsoft YaHei, sans-serif" fill="#333">控制系统</text>
<rect x="550" y="60" width="22" height="10" fill="#76B7B2"/>
<text x="578" y="70" font-size="16" font-family="Arial, PingFang SC, Microsoft YaHei, sans-serif" fill="#333">国外</text>
<rect x="720" y="60" width="22" height="10" fill="#59A14F"/>
<text x="748" y="70" font-size="16" font-family="Arial, PingFang SC, Microsoft YaHei, sans-serif" fill="#333">其他业务</text>
<line x1="90" y1="130" x2="90" y2="630" stroke="#555" stroke-width="1"/>
<line x1="90" y1="630.0" x2="1130" y2="630.0" stroke="#555" stroke-width="1"/>
<line x1="90" y1="630.0" x2="1130" y2="630.0" stroke="#eee" stroke-width="1"/>
<text x="78" y="635.0" text-anchor="end" font-size="14" font-family="Arial, PingFang SC, Microsoft YaHei, sans-serif" fill="#666">0.00</text>
<line x1="90" y1="530.0" x2="1130" y2="530.0" stroke="#eee" stroke-width="1"/>
<text x="78" y="535.0" text-anchor="end" font-size="14" font-family="Arial, PingFang SC, Microsoft YaHei, sans-serif" fill="#666">1.46</text>
<line x1="90" y1="430.0" x2="1130" y2="430.0" stroke="#eee" stroke-width="1"/>
<text x="78" y="435.0" text-anchor="end" font-size="14" font-family="Arial, PingFang SC, Microsoft YaHei, sans-serif" fill="#666">2.91</text>
<line x1="90" y1="330.0" x2="1130" y2="330.0" stroke="#eee" stroke-width="1"/>
<text x="78" y="335.0" text-anchor="end" font-size="14" font-family="Arial, PingFang SC, Microsoft YaHei, sans-serif" fill="#666">4.37</text>
<line x1="90" y1="230.0" x2="1130" y2="230.0" stroke="#eee" stroke-width="1"/>
<text x="78" y="235.0" text-anchor="end" font-size="14" font-family="Arial, PingFang SC, Microsoft YaHei, sans-serif" fill="#666">5.82</text>
<line x1="90" y1="130.00000000000006" x2="1130" y2="130.00000000000006" stroke="#eee" stroke-width="1"/>
<text x="78" y="135.00000000000006" text-anchor="end" font-size="14" font-family="Arial, PingFang SC, Microsoft YaHei, sans-serif" fill="#666">7.28</text>
<text x="194.0" y="658" text-anchor="middle" font-size="14" font-family="Arial, PingFang SC, Microsoft YaHei, sans-serif" fill="#666">2021</text>
<text x="402.0" y="658" text-anchor="middle" font-size="14" font-family="Arial, PingFang SC, Microsoft YaHei, sans-serif" fill="#666">2022</text>
<text x="610.0" y="658" text-anchor="middle" font-size="14" font-family="Arial, PingFang SC, Microsoft YaHei, sans-serif" fill="#666">2023</text>
<text x="818.0" y="658" text-anchor="middle" font-size="14" font-family="Arial, PingFang SC, Microsoft YaHei, sans-serif" fill="#666">2024</text>
<text x="1026.0" y="658" text-anchor="middle" font-size="14" font-family="Arial, PingFang SC, Microsoft YaHei, sans-serif" fill="#666">2025</text>
<rect x="123.28" y="263.24" width="26.02" height="366.76" fill="#4E79A7" opacity="0.85"/>
<rect x="331.28" y="261.87" width="26.02" height="368.13" fill="#4E79A7" opacity="0.85"/>
<rect x="539.28" y="284.53" width="26.02" height="345.47" fill="#4E79A7" opacity="0.85"/>
<rect x="747.28" y="255.69" width="26.02" height="374.31" fill="#4E79A7" opacity="0.85"/>
<rect x="955.28" y="135.49" width="26.02" height="494.51" fill="#4E79A7" opacity="0.85"/>
<rect x="151.57" y="307.88" width="26.02" height="322.12" fill="#F28E2B" opacity="0.85"/>
<rect x="359.57" y="294.84" width="26.02" height="335.16" fill="#F28E2B" opacity="0.85"/>
<rect x="567.57" y="316.81" width="26.02" height="313.19" fill="#F28E2B" opacity="0.85"/>
<rect x="775.57" y="272.17" width="26.02" height="357.83" fill="#F28E2B" opacity="0.85"/>
<rect x="983.57" y="130.00" width="26.02" height="500.00" fill="#F28E2B" opacity="0.85"/>
<rect x="179.86" y="425.33" width="26.02" height="204.67" fill="#E15759" opacity="0.85"/>
<rect x="387.86" y="431.51" width="26.02" height="198.49" fill="#E15759" opacity="0.85"/>
<rect x="595.86" y="442.50" width="26.02" height="187.50" fill="#E15759" opacity="0.85"/>
<rect x="803.86" y="440.44" width="26.02" height="189.56" fill="#E15759" opacity="0.85"/>
<rect x="1011.86" y="426.02" width="26.02" height="203.98" fill="#E15759" opacity="0.85"/>
<rect x="208.14" y="549.64" width="26.02" height="80.36" fill="#76B7B2" opacity="0.85"/>
<rect x="416.14" y="529.73" width="26.02" height="100.27" fill="#76B7B2" opacity="0.85"/>
<rect x="624.14" y="540.71" width="26.02" height="89.29" fill="#76B7B2" opacity="0.85"/>
<rect x="832.14" y="533.16" width="26.02" height="96.84" fill="#76B7B2" opacity="0.85"/>
<rect x="1040.14" y="522.86" width="26.02" height="107.14" fill="#76B7B2" opacity="0.85"/>
<rect x="236.43" y="626.57" width="26.02" height="3.43" fill="#59A14F" opacity="0.85"/>
<rect x="444.43" y="627.25" width="26.02" height="2.75" fill="#59A14F" opacity="0.85"/>
<rect x="652.43" y="627.25" width="26.02" height="2.75" fill="#59A14F" opacity="0.85"/>
<rect x="860.43" y="627.25" width="26.02" height="2.75" fill="#59A14F" opacity="0.85"/>
<rect x="1068.43" y="627.25" width="26.02" height="2.75" fill="#59A14F" opacity="0.85"/>
</svg>