<svg xmlns="http://www.w3.org/2000/svg" width="1200" height="720" viewBox="0 0 1200 720">
<rect x="0" y="0" width="100%" height="100%" fill="#ffffff"/>
<text x="40" y="42" font-size="26" font-family="Arial, PingFang SC, Microsoft YaHei, sans-serif" fill="#222">财务比率分析图</text>
<rect x="40" y="60" width="22" height="10" fill="#4E79A7"/>
<text x="68" y="70" font-size="16" font-family="Arial, PingFang SC, Microsoft YaHei, sans-serif" fill="#333">资产负债率</text>
<rect x="210" y="60" width="22" height="10" fill="#F28E2B"/>
<text x="238" y="70" font-size="16" font-family="Arial, PingFang SC, Microsoft YaHei, sans-serif" fill="#333">流动比率</text>
<rect x="380" y="60" width="22" height="10" fill="#E15759"/>
<text x="408" y="70" font-size="16" font-family="Arial, PingFang SC, Microsoft YaHei, sans-serif" fill="#333">速动比率</text>
<rect x="550" y="60" width="22" height="10" fill="#76B7B2"/>
<text x="578" y="70" font-size="16" font-family="Arial, PingFang SC, Microsoft YaHei, sans-serif" fill="#333">应收周转率</text>
<rect x="720" y="60" width="22" height="10" fill="#59A14F"/>
<text x="748" y="70" font-size="16" font-family="Arial, PingFang SC, Microsoft YaHei, sans-serif" fill="#333">存货周转率</text>
<line x1="90" y1="130" x2="90" y2="630" stroke="#555" stroke-width="1"/>
<line x1="90" y1="630.0" x2="1130" y2="630.0" stroke="#555" stroke-width="1"/>
<line x1="90" y1="630.0" x2="1130" y2="630.0" stroke="#eee" stroke-width="1"/>
<text x="78" y="635.0" text-anchor="end" font-size="14" font-family="Arial, PingFang SC, Microsoft YaHei, sans-serif" fill="#666">0.00</text>
<line x1="90" y1="530.0" x2="1130" y2="530.0" stroke="#eee" stroke-width="1"/>
<text x="78" y="535.0" text-anchor="end" font-size="14" font-family="Arial, PingFang SC, Microsoft YaHei, sans-serif" fill="#666">4.81</text>
<line x1="90" y1="430.0" x2="1130" y2="430.0" stroke="#eee" stroke-width="1"/>
<text x="78" y="435.0" text-anchor="end" font-size="14" font-family="Arial, PingFang SC, Microsoft YaHei, sans-serif" fill="#666">9.62</text>
<line x1="90" y1="330.0" x2="1130" y2="330.0" stroke="#eee" stroke-width="1"/>
<text x="78" y="335.0" text-anchor="end" font-size="14" font-family="Arial, PingFang SC, Microsoft YaHei, sans-serif" fill="#666">14.43</text>
<line x1="90" y1="229.99999999999994" x2="1130" y2="229.99999999999994" stroke="#eee" stroke-width="1"/>
<text x="78" y="234.99999999999994" text-anchor="end" font-size="14" font-family="Arial, PingFang SC, Microsoft YaHei, sans-serif" fill="#666">19.24</text>
<line x1="90" y1="130.0" x2="1130" y2="130.0" stroke="#eee" stroke-width="1"/>
<text x="78" y="135.0" text-anchor="end" font-size="14" font-family="Arial, PingFang SC, Microsoft YaHei, sans-serif" fill="#666">24.05</text>
<text x="194.0" y="658" text-anchor="middle" font-size="14" font-family="Arial, PingFang SC, Microsoft YaHei, sans-serif" fill="#666">2021</text>
<text x="402.0" y="658" text-anchor="middle" font-size="14" font-family="Arial, PingFang SC, Microsoft YaHei, sans-serif" fill="#666">2022</text>
<text x="610.0" y="658" text-anchor="middle" font-size="14" font-family="Arial, PingFang SC, Microsoft YaHei, sans-serif" fill="#666">2023</text>
<text x="818.0" y="658" text-anchor="middle" font-size="14" font-family="Arial, PingFang SC, Microsoft YaHei, sans-serif" fill="#666">2024</text>
<text x="1026.0" y="658" text-anchor="middle" font-size="14" font-family="Arial, PingFang SC, Microsoft YaHei, sans-serif" fill="#666">2025</text>
<rect x="123.28" y="460.35" width="65.06" height="169.65" fill="#4E79A7" opacity="0.85"/>
<rect x="331.28" y="505.88" width="65.06" height="124.12" fill="#4E79A7" opacity="0.85"/>
<rect x="539.28" y="525.01" width="65.06" height="104.99" fill="#4E79A7" opacity="0.85"/>
<rect x="747.28" y="525.01" width="65.06" height="104.99" fill="#4E79A7" opacity="0.85"/>
<rect x="955.28" y="524.59" width="65.06" height="105.41" fill="#4E79A7" opacity="0.85"/>
<rect x="194.00" y="570.54" width="65.06" height="59.46" fill="#F28E2B" opacity="0.85"/>
<rect x="402.00" y="579.69" width="65.06" height="50.31" fill="#F28E2B" opacity="0.85"/>
<rect x="610.00" y="576.36" width="65.06" height="53.64" fill="#F28E2B" opacity="0.85"/>
<rect x="818.00" y="567.21" width="65.06" height="62.79" fill="#F28E2B" opacity="0.85"/>
<rect x="1026.00" y="564.51" width="65.06" height="65.49" fill="#F28E2B" opacity="0.85"/>
<polyline fill="none" stroke="#E15759" stroke-width="3" points="194.00,319.40 402.00,241.23 610.00,194.45 818.00,130.00 1026.00,203.60"/>
<circle cx="194.00" cy="319.40" r="4" fill="#E15759"/>
<circle cx="402.00" cy="241.23" r="4" fill="#E15759"/>
<circle cx="610.00" cy="194.45" r="4" fill="#E15759"/>
<circle cx="818.00" cy="130.00" r="4" fill="#E15759"/>
<circle cx="1026.00" cy="203.60" r="4" fill="#E15759"/>
<polyline fill="none" stroke="#76B7B2" stroke-width="3" points="194.00,500.27 402.00,527.92 610.00,537.28 818.00,565.14 1026.00,551.41"/>
<circle cx="194.00" cy="500.27" r="4" fill="#76B7B2"/>
<circle cx="402.00" cy="527.92" r="4" fill="#76B7B2"/>
<circle cx="610.00" cy="537.28" r="4" fill="#76B7B2"/>
<circle cx="818.00" cy="565.14" r="4" fill="#76B7B2"/>
<circle cx="1026.00" cy="551.41" r="4" fill="#76B7B2"/>
<polyline fill="none" stroke="#59A14F" stroke-width="3" points="194.00,528.13 402.00,545.38 610.00,551.21 818.00,575.53 1026.00,562.64"/>
<circle cx="194.00" cy="528.13" r="4" fill="#59A14F"/>
<circle cx="402.00" cy="545.38" r="4" fill="#59A14F"/>
<circle cx="610.00" cy="551.21" r="4" fill="#59A14F"/>
<circle cx="818.00" cy="575.53" r="4" fill="#59A14F"/>
<circle cx="1026.00" cy="562.64" r="4" fill="#59A14F"/>
</svg>