<svg xmlns="http://www.w3.org/2000/svg" width="1200" height="720" viewBox="0 0 1200 720">
<rect x="0" y="0" width="100%" height="100%" fill="#ffffff"/>
<text x="40" y="42" font-size="26" font-family="Arial, PingFang SC, Microsoft YaHei, sans-serif" fill="#222">分产品收入结构图</text>
<path d="M 380.00 390.00 L 380.00 170.00 A 220.00 220.00 0 0 1 567.04 505.84 Z" fill="#4E79A7" stroke="#fff" stroke-width="1"/>
<path d="M 380.00 390.00 L 567.04 505.84 A 220.00 220.00 0 0 1 349.05 607.81 Z" fill="#F28E2B" stroke="#fff" stroke-width="1"/>
<path d="M 380.00 390.00 L 349.05 607.81 A 220.00 220.00 0 0 1 190.85 502.35 Z" fill="#E15759" stroke="#fff" stroke-width="1"/>
<path d="M 380.00 390.00 L 190.85 502.35 A 220.00 220.00 0 0 1 164.52 345.63 Z" fill="#76B7B2" stroke="#fff" stroke-width="1"/>
<path d="M 380.00 390.00 L 164.52 345.63 A 220.00 220.00 0 0 1 222.27 236.63 Z" fill="#59A14F" stroke="#fff" stroke-width="1"/>
<path d="M 380.00 390.00 L 222.27 236.63 A 220.00 220.00 0 0 1 322.47 177.66 Z" fill="#EDC948" stroke="#fff" stroke-width="1"/>
<path d="M 380.00 390.00 L 322.47 177.66 A 220.00 220.00 0 0 1 374.66 170.06 Z" fill="#B07AA1" stroke="#fff" stroke-width="1"/>
<path d="M 380.00 390.00 L 374.66 170.06 A 220.00 220.00 0 0 1 380.00 170.00 Z" fill="#FF9DA7" stroke="#fff" stroke-width="1"/>
<rect x="700" y="179" width="20" height="12" fill="#4E79A7"/>
<text x="728" y="190" font-size="14" font-family="Arial, PingFang SC, Microsoft YaHei, sans-serif" fill="#333">国外  1545.45 (33.8%)</text>
<rect x="700" y="209" width="20" height="12" fill="#F28E2B"/>
<text x="728" y="220" font-size="14" font-family="Arial, PingFang SC, Microsoft YaHei, sans-serif" fill="#333">电冰箱  841.65 (18.4%)</text>
<rect x="700" y="239" width="20" height="12" fill="#E15759"/>
<text x="728" y="250" font-size="14" font-family="Arial, PingFang SC, Microsoft YaHei, sans-serif" fill="#333">洗衣机  649.85 (14.2%)</text>
<rect x="700" y="269" width="20" height="12" fill="#76B7B2"/>
<text x="728" y="280" font-size="14" font-family="Arial, PingFang SC, Microsoft YaHei, sans-serif" fill="#333">空调  537.42 (11.8%)</text>
<rect x="700" y="299" width="20" height="12" fill="#59A14F"/>
<text x="728" y="310" font-size="14" font-family="Arial, PingFang SC, Microsoft YaHei, sans-serif" fill="#333">厨卫电器  413.23 (9.0%)</text>
<rect x="700" y="329" width="20" height="12" fill="#EDC948"/>
<text x="728" y="340" font-size="14" font-family="Arial, PingFang SC, Microsoft YaHei, sans-serif" fill="#333">渠道综合服务及其他  388.93 (8.5%)</text>
<rect x="700" y="359" width="20" height="12" fill="#B07AA1"/>
<text x="728" y="370" font-size="14" font-family="Arial, PingFang SC, Microsoft YaHei, sans-serif" fill="#333">水家电  174.74 (3.8%)</text>
<rect x="700" y="389" width="20" height="12" fill="#FF9DA7"/>
<text x="728" y="400" font-size="14" font-family="Arial, PingFang SC, Microsoft YaHei, sans-serif" fill="#333">其他业务  17.65 (0.4%)</text>
</svg>