<svg xmlns="http://www.w3.org/2000/svg" width="1200" height="720" viewBox="0 0 1200 720">
<rect x="0" y="0" width="100%" height="100%" fill="#ffffff"/>
<text x="40" y="42" font-size="26" font-family="Arial, PingFang SC, Microsoft YaHei, sans-serif" fill="#222">财务比率分析图</text>
<rect x="40" y="60" width="22" height="10" fill="#4E79A7"/>
<text x="68" y="70" font-size="16" font-family="Arial, PingFang SC, Microsoft YaHei, sans-serif" fill="#333">资产负债率</text>
<rect x="210" y="60" width="22" height="10" fill="#F28E2B"/>
<text x="238" y="70" font-size="16" font-family="Arial, PingFang SC, Microsoft YaHei, sans-serif" fill="#333">流动比率</text>
<rect x="380" y="60" width="22" height="10" fill="#E15759"/>
<text x="408" y="70" font-size="16" font-family="Arial, PingFang SC, Microsoft YaHei, sans-serif" fill="#333">速动比率</text>
<rect x="550" y="60" width="22" height="10" fill="#76B7B2"/>
<text x="578" y="70" font-size="16" font-family="Arial, PingFang SC, Microsoft YaHei, sans-serif" fill="#333">应收周转率</text>
<rect x="720" y="60" width="22" height="10" fill="#59A14F"/>
<text x="748" y="70" font-size="16" font-family="Arial, PingFang SC, Microsoft YaHei, sans-serif" fill="#333">存货周转率</text>
<line x1="90" y1="130" x2="90" y2="630" stroke="#555" stroke-width="1"/>
<line x1="90" y1="630.0" x2="1130" y2="630.0" stroke="#555" stroke-width="1"/>
<line x1="90" y1="630.0" x2="1130" y2="630.0" stroke="#eee" stroke-width="1"/>
<text x="78" y="635.0" text-anchor="end" font-size="14" font-family="Arial, PingFang SC, Microsoft YaHei, sans-serif" fill="#666">0.00</text>
<line x1="90" y1="530.0" x2="1130" y2="530.0" stroke="#eee" stroke-width="1"/>
<text x="78" y="535.0" text-anchor="end" font-size="14" font-family="Arial, PingFang SC, Microsoft YaHei, sans-serif" fill="#666">12.54</text>
<line x1="90" y1="430.00000000000006" x2="1130" y2="430.00000000000006" stroke="#eee" stroke-width="1"/>
<text x="78" y="435.00000000000006" text-anchor="end" font-size="14" font-family="Arial, PingFang SC, Microsoft YaHei, sans-serif" fill="#666">25.08</text>
<line x1="90" y1="330.0" x2="1130" y2="330.0" stroke="#eee" stroke-width="1"/>
<text x="78" y="335.0" text-anchor="end" font-size="14" font-family="Arial, PingFang SC, Microsoft YaHei, sans-serif" fill="#666">37.63</text>
<line x1="90" y1="230.0" x2="1130" y2="230.0" stroke="#eee" stroke-width="1"/>
<text x="78" y="235.0" text-anchor="end" font-size="14" font-family="Arial, PingFang SC, Microsoft YaHei, sans-serif" fill="#666">50.17</text>
<line x1="90" y1="130.0" x2="1130" y2="130.0" stroke="#eee" stroke-width="1"/>
<text x="78" y="135.0" text-anchor="end" font-size="14" font-family="Arial, PingFang SC, Microsoft YaHei, sans-serif" fill="#666">62.71</text>
<text x="194.0" y="658" text-anchor="middle" font-size="14" font-family="Arial, PingFang SC, Microsoft YaHei, sans-serif" fill="#666">2021</text>
<text x="402.0" y="658" text-anchor="middle" font-size="14" font-family="Arial, PingFang SC, Microsoft YaHei, sans-serif" fill="#666">2022</text>
<text x="610.0" y="658" text-anchor="middle" font-size="14" font-family="Arial, PingFang SC, Microsoft YaHei, sans-serif" fill="#666">2023</text>
<text x="818.0" y="658" text-anchor="middle" font-size="14" font-family="Arial, PingFang SC, Microsoft YaHei, sans-serif" fill="#666">2024</text>
<text x="1026.0" y="658" text-anchor="middle" font-size="14" font-family="Arial, PingFang SC, Microsoft YaHei, sans-serif" fill="#666">2025</text>
<rect x="123.28" y="511.28" width="65.06" height="118.72" fill="#4E79A7" opacity="0.85"/>
<rect x="331.28" y="502.91" width="65.06" height="127.09" fill="#4E79A7" opacity="0.85"/>
<rect x="539.28" y="514.79" width="65.06" height="115.21" fill="#4E79A7" opacity="0.85"/>
<rect x="747.28" y="532.41" width="65.06" height="97.59" fill="#4E79A7" opacity="0.85"/>
<rect x="955.28" y="539.98" width="65.06" height="90.02" fill="#4E79A7" opacity="0.85"/>
<rect x="194.00" y="594.28" width="65.06" height="35.72" fill="#F28E2B" opacity="0.85"/>
<rect x="402.00" y="597.47" width="65.06" height="32.53" fill="#F28E2B" opacity="0.85"/>
<rect x="610.00" y="595.00" width="65.06" height="35.00" fill="#F28E2B" opacity="0.85"/>
<rect x="818.00" y="590.69" width="65.06" height="39.31" fill="#F28E2B" opacity="0.85"/>
<rect x="1026.00" y="591.49" width="65.06" height="38.51" fill="#F28E2B" opacity="0.85"/>
<polyline fill="none" stroke="#E15759" stroke-width="3" points="194.00,130.00 402.00,152.88 610.00,165.96 818.00,158.07 1026.00,172.26"/>
<circle cx="194.00" cy="130.00" r="4" fill="#E15759"/>
<circle cx="402.00" cy="152.88" r="4" fill="#E15759"/>
<circle cx="610.00" cy="165.96" r="4" fill="#E15759"/>
<circle cx="818.00" cy="158.07" r="4" fill="#E15759"/>
<circle cx="1026.00" cy="172.26" r="4" fill="#E15759"/>
<polyline fill="none" stroke="#76B7B2" stroke-width="3" points="194.00,622.11 402.00,621.23 610.00,621.15 818.00,621.95 1026.00,621.47"/>
<circle cx="194.00" cy="622.11" r="4" fill="#76B7B2"/>
<circle cx="402.00" cy="621.23" r="4" fill="#76B7B2"/>
<circle cx="610.00" cy="621.15" r="4" fill="#76B7B2"/>
<circle cx="818.00" cy="621.95" r="4" fill="#76B7B2"/>
<circle cx="1026.00" cy="621.47" r="4" fill="#76B7B2"/>
<polyline fill="none" stroke="#59A14F" stroke-width="3" points="194.00,624.66 402.00,624.02 610.00,623.78 818.00,624.18 1026.00,624.10"/>
<circle cx="194.00" cy="624.66" r="4" fill="#59A14F"/>
<circle cx="402.00" cy="624.02" r="4" fill="#59A14F"/>
<circle cx="610.00" cy="623.78" r="4" fill="#59A14F"/>
<circle cx="818.00" cy="624.18" r="4" fill="#59A14F"/>
<circle cx="1026.00" cy="624.10" r="4" fill="#59A14F"/>
</svg>