<svg xmlns="http://www.w3.org/2000/svg" width="1200" height="720" viewBox="0 0 1200 720">
<rect x="0" y="0" width="100%" height="100%" fill="#ffffff"/>
<text x="40" y="42" font-size="26" font-family="Arial, PingFang SC, Microsoft YaHei, sans-serif" fill="#222">分产品收入变化图</text>
<rect x="40" y="60" width="22" height="10" fill="#4E79A7"/>
<text x="68" y="70" font-size="16" font-family="Arial, PingFang SC, Microsoft YaHei, sans-serif" fill="#333">国外</text>
<rect x="210" y="60" width="22" height="10" fill="#F28E2B"/>
<text x="238" y="70" font-size="16" font-family="Arial, PingFang SC, Microsoft YaHei, sans-serif" fill="#333">电冰箱</text>
<rect x="380" y="60" width="22" height="10" fill="#E15759"/>
<text x="408" y="70" font-size="16" font-family="Arial, PingFang SC, Microsoft YaHei, sans-serif" fill="#333">洗衣机</text>
<rect x="550" y="60" width="22" height="10" fill="#76B7B2"/>
<text x="578" y="70" font-size="16" font-family="Arial, PingFang SC, Microsoft YaHei, sans-serif" fill="#333">空调</text>
<rect x="720" y="60" width="22" height="10" fill="#59A14F"/>
<text x="748" y="70" font-size="16" font-family="Arial, PingFang SC, Microsoft YaHei, sans-serif" fill="#333">厨卫电器</text>
<line x1="90" y1="130" x2="90" y2="630" stroke="#555" stroke-width="1"/>
<line x1="90" y1="630.0" x2="1130" y2="630.0" stroke="#555" stroke-width="1"/>
<line x1="90" y1="630.0" x2="1130" y2="630.0" stroke="#eee" stroke-width="1"/>
<text x="78" y="635.0" text-anchor="end" font-size="14" font-family="Arial, PingFang SC, Microsoft YaHei, sans-serif" fill="#666">0.00</text>
<line x1="90" y1="530.0" x2="1130" y2="530.0" stroke="#eee" stroke-width="1"/>
<text x="78" y="535.0" text-anchor="end" font-size="14" font-family="Arial, PingFang SC, Microsoft YaHei, sans-serif" fill="#666">309.09</text>
<line x1="90" y1="430.0" x2="1130" y2="430.0" stroke="#eee" stroke-width="1"/>
<text x="78" y="435.0" text-anchor="end" font-size="14" font-family="Arial, PingFang SC, Microsoft YaHei, sans-serif" fill="#666">618.18</text>
<line x1="90" y1="330.0" x2="1130" y2="330.0" stroke="#eee" stroke-width="1"/>
<text x="78" y="335.0" text-anchor="end" font-size="14" font-family="Arial, PingFang SC, Microsoft YaHei, sans-serif" fill="#666">927.27</text>
<line x1="90" y1="229.99999999999994" x2="1130" y2="229.99999999999994" stroke="#eee" stroke-width="1"/>
<text x="78" y="234.99999999999994" text-anchor="end" font-size="14" font-family="Arial, PingFang SC, Microsoft YaHei, sans-serif" fill="#666">1236.36</text>
<line x1="90" y1="130.0" x2="1130" y2="130.0" stroke="#eee" stroke-width="1"/>
<text x="78" y="135.0" text-anchor="end" font-size="14" font-family="Arial, PingFang SC, Microsoft YaHei, sans-serif" fill="#666">1545.45</text>
<text x="194.0" y="658" text-anchor="middle" font-size="14" font-family="Arial, PingFang SC, Microsoft YaHei, sans-serif" fill="#666">2021</text>
<text x="402.0" y="658" text-anchor="middle" font-size="14" font-family="Arial, PingFang SC, Microsoft YaHei, sans-serif" fill="#666">2022</text>
<text x="610.0" y="658" text-anchor="middle" font-size="14" font-family="Arial, PingFang SC, Microsoft YaHei, sans-serif" fill="#666">2023</text>
<text x="818.0" y="658" text-anchor="middle" font-size="14" font-family="Arial, PingFang SC, Microsoft YaHei, sans-serif" fill="#666">2024</text>
<text x="1026.0" y="658" text-anchor="middle" font-size="14" font-family="Arial, PingFang SC, Microsoft YaHei, sans-serif" fill="#666">2025</text>
<rect x="123.28" y="258.83" width="26.02" height="371.17" fill="#4E79A7" opacity="0.85"/>
<rect x="331.28" y="222.02" width="26.02" height="407.98" fill="#4E79A7" opacity="0.85"/>
<rect x="539.28" y="191.04" width="26.02" height="438.96" fill="#4E79A7" opacity="0.85"/>
<rect x="747.28" y="167.67" width="26.02" height="462.33" fill="#4E79A7" opacity="0.85"/>
<rect x="955.28" y="130.00" width="26.02" height="500.00" fill="#4E79A7" opacity="0.85"/>
<rect x="151.57" y="289.62" width="26.02" height="340.38" fill="#F28E2B" opacity="0.85"/>
<rect x="359.57" y="256.16" width="26.02" height="373.84" fill="#F28E2B" opacity="0.85"/>
<rect x="567.57" y="235.48" width="26.02" height="394.52" fill="#F28E2B" opacity="0.85"/>
<rect x="775.57" y="228.50" width="26.02" height="401.50" fill="#F28E2B" opacity="0.85"/>
<rect x="983.57" y="220.15" width="26.02" height="409.85" fill="#F28E2B" opacity="0.85"/>
<rect x="179.86" y="371.99" width="26.02" height="258.01" fill="#E15759" opacity="0.85"/>
<rect x="387.86" y="357.46" width="26.02" height="272.54" fill="#E15759" opacity="0.85"/>
<rect x="595.86" y="340.77" width="26.02" height="289.23" fill="#E15759" opacity="0.85"/>
<rect x="803.86" y="330.88" width="26.02" height="299.12" fill="#E15759" opacity="0.85"/>
<rect x="1011.86" y="317.37" width="26.02" height="312.63" fill="#E15759" opacity="0.85"/>
<rect x="208.14" y="438.61" width="26.02" height="191.39" fill="#76B7B2" opacity="0.85"/>
<rect x="416.14" y="423.81" width="26.02" height="206.19" fill="#76B7B2" opacity="0.85"/>
<rect x="624.14" y="391.72" width="26.02" height="238.28" fill="#76B7B2" opacity="0.85"/>
<rect x="832.14" y="377.43" width="26.02" height="252.57" fill="#76B7B2" opacity="0.85"/>
<rect x="1040.14" y="350.10" width="26.02" height="279.90" fill="#76B7B2" opacity="0.85"/>
<rect x="236.43" y="461.24" width="26.02" height="168.76" fill="#59A14F" opacity="0.85"/>
<rect x="444.43" y="444.00" width="26.02" height="186.00" fill="#59A14F" opacity="0.85"/>
<rect x="652.43" y="431.71" width="26.02" height="198.29" fill="#59A14F" opacity="0.85"/>
<rect x="860.43" y="431.89" width="26.02" height="198.11" fill="#59A14F" opacity="0.85"/>
<rect x="1068.43" y="429.96" width="26.02" height="200.04" fill="#59A14F" opacity="0.85"/>
</svg>