<svg xmlns="http://www.w3.org/2000/svg" width="1200" height="720" viewBox="0 0 1200 720">
<rect x="0" y="0" width="100%" height="100%" fill="#ffffff"/>
<text x="40" y="42" font-size="26" font-family="Arial, PingFang SC, Microsoft YaHei, sans-serif" fill="#222">分产品利润结构图</text>
<rect x="40" y="60" width="22" height="10" fill="#4E79A7"/>
<text x="68" y="70" font-size="16" font-family="Arial, PingFang SC, Microsoft YaHei, sans-serif" fill="#333">利润</text>
<rect x="210" y="60" width="22" height="10" fill="#F28E2B"/>
<text x="238" y="70" font-size="16" font-family="Arial, PingFang SC, Microsoft YaHei, sans-serif" fill="#333">毛利率</text>
<line x1="90" y1="130" x2="90" y2="630" stroke="#555" stroke-width="1"/>
<line x1="90" y1="630.0" x2="1130" y2="630.0" stroke="#555" stroke-width="1"/>
<line x1="90" y1="630.0" x2="1130" y2="630.0" stroke="#eee" stroke-width="1"/>
<text x="78" y="635.0" text-anchor="end" font-size="14" font-family="Arial, PingFang SC, Microsoft YaHei, sans-serif" fill="#666">0.00</text>
<line x1="90" y1="530.0" x2="1130" y2="530.0" stroke="#eee" stroke-width="1"/>
<text x="78" y="535.0" text-anchor="end" font-size="14" font-family="Arial, PingFang SC, Microsoft YaHei, sans-serif" fill="#666">75.98</text>
<line x1="90" y1="430.0" x2="1130" y2="430.0" stroke="#eee" stroke-width="1"/>
<text x="78" y="435.0" text-anchor="end" font-size="14" font-family="Arial, PingFang SC, Microsoft YaHei, sans-serif" fill="#666">151.95</text>
<line x1="90" y1="330.0" x2="1130" y2="330.0" stroke="#eee" stroke-width="1"/>
<text x="78" y="335.0" text-anchor="end" font-size="14" font-family="Arial, PingFang SC, Microsoft YaHei, sans-serif" fill="#666">227.93</text>
<line x1="90" y1="230.0" x2="1130" y2="230.0" stroke="#eee" stroke-width="1"/>
<text x="78" y="235.0" text-anchor="end" font-size="14" font-family="Arial, PingFang SC, Microsoft YaHei, sans-serif" fill="#666">303.90</text>
<line x1="90" y1="130.0" x2="1130" y2="130.0" stroke="#eee" stroke-width="1"/>
<text x="78" y="135.0" text-anchor="end" font-size="14" font-family="Arial, PingFang SC, Microsoft YaHei, sans-serif" fill="#666">379.88</text>
<text x="155.0" y="658" text-anchor="middle" font-size="14" font-family="Arial, PingFang SC, Microsoft YaHei, sans-serif" fill="#666">国外</text>
<text x="285.0" y="658" text-anchor="middle" font-size="14" font-family="Arial, PingFang SC, Microsoft YaHei, sans-serif" fill="#666">电冰箱</text>
<text x="415.0" y="658" text-anchor="middle" font-size="14" font-family="Arial, PingFang SC, Microsoft YaHei, sans-serif" fill="#666">洗衣机</text>
<text x="545.0" y="658" text-anchor="middle" font-size="14" font-family="Arial, PingFang SC, Microsoft YaHei, sans-serif" fill="#666">空调</text>
<text x="675.0" y="658" text-anchor="middle" font-size="14" font-family="Arial, PingFang SC, Microsoft YaHei, sans-serif" fill="#666">厨卫电器</text>
<text x="805.0" y="658" text-anchor="middle" font-size="14" font-family="Arial, PingFang SC, Microsoft YaHei, sans-serif" fill="#666">渠道综合服务及其他</text>
<text x="935.0" y="658" text-anchor="middle" font-size="14" font-family="Arial, PingFang SC, Microsoft YaHei, sans-serif" fill="#666">水家电</text>
<text x="1065.0" y="658" text-anchor="middle" font-size="14" font-family="Arial, PingFang SC, Microsoft YaHei, sans-serif" fill="#666">其他业务</text>
<rect x="110.80" y="130.00" width="81.33" height="500.00" fill="#4E79A7" opacity="0.85"/>
<rect x="240.80" y="295.99" width="81.33" height="334.01" fill="#4E79A7" opacity="0.85"/>
<rect x="370.80" y="365.67" width="81.33" height="264.33" fill="#4E79A7" opacity="0.85"/>
<rect x="500.80" y="471.29" width="81.33" height="158.71" fill="#4E79A7" opacity="0.85"/>
<rect x="630.80" y="474.60" width="81.33" height="155.40" fill="#4E79A7" opacity="0.85"/>
<rect x="760.80" y="582.20" width="81.33" height="47.80" fill="#4E79A7" opacity="0.85"/>
<rect x="890.80" y="536.44" width="81.33" height="93.56" fill="#4E79A7" opacity="0.85"/>
<rect x="1020.80" y="622.87" width="81.33" height="7.13" fill="#4E79A7" opacity="0.85"/>
<polyline fill="none" stroke="#F28E2B" stroke-width="3" points="155.00,597.65 285.00,590.32 415.00,589.33 545.00,600.46 675.00,592.40 805.00,617.71 935.00,576.46 1065.00,589.59"/>
<circle cx="155.00" cy="597.65" r="4" fill="#F28E2B"/>
<circle cx="285.00" cy="590.32" r="4" fill="#F28E2B"/>
<circle cx="415.00" cy="589.33" r="4" fill="#F28E2B"/>
<circle cx="545.00" cy="600.46" r="4" fill="#F28E2B"/>
<circle cx="675.00" cy="592.40" r="4" fill="#F28E2B"/>
<circle cx="805.00" cy="617.71" r="4" fill="#F28E2B"/>
<circle cx="935.00" cy="576.46" r="4" fill="#F28E2B"/>
<circle cx="1065.00" cy="589.59" r="4" fill="#F28E2B"/>
</svg>