<svg xmlns="http://www.w3.org/2000/svg" width="1200" height="720" viewBox="0 0 1200 720">
<rect x="0" y="0" width="100%" height="100%" fill="#ffffff"/>
<text x="40" y="42" font-size="26" font-family="Arial, PingFang SC, Microsoft YaHei, sans-serif" fill="#222">分产品收入变化图</text>
<rect x="40" y="60" width="22" height="10" fill="#4E79A7"/>
<text x="68" y="70" font-size="16" font-family="Arial, PingFang SC, Microsoft YaHei, sans-serif" fill="#333">线性驱动产品</text>
<rect x="210" y="60" width="22" height="10" fill="#F28E2B"/>
<text x="238" y="70" font-size="16" font-family="Arial, PingFang SC, Microsoft YaHei, sans-serif" fill="#333">线性驱动行业</text>
<rect x="380" y="60" width="22" height="10" fill="#E15759"/>
<text x="408" y="70" font-size="16" font-family="Arial, PingFang SC, Microsoft YaHei, sans-serif" fill="#333">国外</text>
<rect x="550" y="60" width="22" height="10" fill="#76B7B2"/>
<text x="578" y="70" font-size="16" font-family="Arial, PingFang SC, Microsoft YaHei, sans-serif" fill="#333">其他业务</text>
<rect x="720" y="60" width="22" height="10" fill="#59A14F"/>
<text x="748" y="70" font-size="16" font-family="Arial, PingFang SC, Microsoft YaHei, sans-serif" fill="#333">其他业务(行业)</text>
<line x1="90" y1="130" x2="90" y2="630" stroke="#555" stroke-width="1"/>
<line x1="90" y1="630.0" x2="1130" y2="630.0" stroke="#555" stroke-width="1"/>
<line x1="90" y1="630.0" x2="1130" y2="630.0" stroke="#eee" stroke-width="1"/>
<text x="78" y="635.0" text-anchor="end" font-size="14" font-family="Arial, PingFang SC, Microsoft YaHei, sans-serif" fill="#666">0.00</text>
<line x1="90" y1="530.0" x2="1130" y2="530.0" stroke="#eee" stroke-width="1"/>
<text x="78" y="535.0" text-anchor="end" font-size="14" font-family="Arial, PingFang SC, Microsoft YaHei, sans-serif" fill="#666">12.04</text>
<line x1="90" y1="430.0" x2="1130" y2="430.0" stroke="#eee" stroke-width="1"/>
<text x="78" y="435.0" text-anchor="end" font-size="14" font-family="Arial, PingFang SC, Microsoft YaHei, sans-serif" fill="#666">24.09</text>
<line x1="90" y1="330.0" x2="1130" y2="330.0" stroke="#eee" stroke-width="1"/>
<text x="78" y="335.0" text-anchor="end" font-size="14" font-family="Arial, PingFang SC, Microsoft YaHei, sans-serif" fill="#666">36.13</text>
<line x1="90" y1="229.99999999999997" x2="1130" y2="229.99999999999997" stroke="#eee" stroke-width="1"/>
<text x="78" y="234.99999999999997" text-anchor="end" font-size="14" font-family="Arial, PingFang SC, Microsoft YaHei, sans-serif" fill="#666">48.18</text>
<line x1="90" y1="129.99999999999994" x2="1130" y2="129.99999999999994" stroke="#eee" stroke-width="1"/>
<text x="78" y="134.99999999999994" text-anchor="end" font-size="14" font-family="Arial, PingFang SC, Microsoft YaHei, sans-serif" fill="#666">60.22</text>
<text x="194.0" y="658" text-anchor="middle" font-size="14" font-family="Arial, PingFang SC, Microsoft YaHei, sans-serif" fill="#666">2021</text>
<text x="402.0" y="658" text-anchor="middle" font-size="14" font-family="Arial, PingFang SC, Microsoft YaHei, sans-serif" fill="#666">2022</text>
<text x="610.0" y="658" text-anchor="middle" font-size="14" font-family="Arial, PingFang SC, Microsoft YaHei, sans-serif" fill="#666">2023</text>
<text x="818.0" y="658" text-anchor="middle" font-size="14" font-family="Arial, PingFang SC, Microsoft YaHei, sans-serif" fill="#666">2024</text>
<text x="1026.0" y="658" text-anchor="middle" font-size="14" font-family="Arial, PingFang SC, Microsoft YaHei, sans-serif" fill="#666">2025</text>
<rect x="123.28" y="411.38" width="26.02" height="218.62" fill="#4E79A7" opacity="0.85"/>
<rect x="331.28" y="381.49" width="26.02" height="248.51" fill="#4E79A7" opacity="0.85"/>
<rect x="539.28" y="379.25" width="26.02" height="250.75" fill="#4E79A7" opacity="0.85"/>
<rect x="747.28" y="196.92" width="26.02" height="433.08" fill="#4E79A7" opacity="0.85"/>
<rect x="955.28" y="130.00" width="26.02" height="500.00" fill="#4E79A7" opacity="0.85"/>
<rect x="151.57" y="411.38" width="26.02" height="218.62" fill="#F28E2B" opacity="0.85"/>
<rect x="359.57" y="381.49" width="26.02" height="248.51" fill="#F28E2B" opacity="0.85"/>
<rect x="567.57" y="379.25" width="26.02" height="250.75" fill="#F28E2B" opacity="0.85"/>
<rect x="775.57" y="327.44" width="26.02" height="302.56" fill="#F28E2B" opacity="0.85"/>
<rect x="983.57" y="296.06" width="26.02" height="333.94" fill="#F28E2B" opacity="0.85"/>
<rect x="179.86" y="460.21" width="26.02" height="169.79" fill="#E15759" opacity="0.85"/>
<rect x="387.86" y="439.95" width="26.02" height="190.05" fill="#E15759" opacity="0.85"/>
<rect x="595.86" y="452.90" width="26.02" height="177.10" fill="#E15759" opacity="0.85"/>
<rect x="803.86" y="419.52" width="26.02" height="210.48" fill="#E15759" opacity="0.85"/>
<rect x="1011.86" y="279.45" width="26.02" height="350.55" fill="#E15759" opacity="0.85"/>
<rect x="208.14" y="629.67" width="26.02" height="0.33" fill="#76B7B2" opacity="0.85"/>
<rect x="416.14" y="628.92" width="26.02" height="1.08" fill="#76B7B2" opacity="0.85"/>
<rect x="624.14" y="630.00" width="26.02" height="0.00" fill="#76B7B2" opacity="0.85"/>
<rect x="832.14" y="628.92" width="26.02" height="1.08" fill="#76B7B2" opacity="0.85"/>
<rect x="1040.14" y="628.26" width="26.02" height="1.74" fill="#76B7B2" opacity="0.85"/>
<rect x="236.43" y="630.00" width="26.02" height="0.00" fill="#59A14F" opacity="0.85"/>
<rect x="444.43" y="630.00" width="26.02" height="0.00" fill="#59A14F" opacity="0.85"/>
<rect x="652.43" y="630.00" width="26.02" height="0.00" fill="#59A14F" opacity="0.85"/>
<rect x="860.43" y="629.34" width="26.02" height="0.66" fill="#59A14F" opacity="0.85"/>
<rect x="1068.43" y="628.84" width="26.02" height="1.16" fill="#59A14F" opacity="0.85"/>
</svg>