<svg xmlns="http://www.w3.org/2000/svg" width="1200" height="720" viewBox="0 0 1200 720">
<rect x="0" y="0" width="100%" height="100%" fill="#ffffff"/>
<text x="40" y="42" font-size="26" font-family="Arial, PingFang SC, Microsoft YaHei, sans-serif" fill="#222">ROE与ROIC</text>
<rect x="40" y="60" width="22" height="10" fill="#4E79A7"/>
<text x="68" y="70" font-size="16" font-family="Arial, PingFang SC, Microsoft YaHei, sans-serif" fill="#333">ROE</text>
<rect x="210" y="60" width="22" height="10" fill="#F28E2B"/>
<text x="238" y="70" font-size="16" font-family="Arial, PingFang SC, Microsoft YaHei, sans-serif" fill="#333">ROIC</text>
<line x1="90" y1="130" x2="90" y2="630" stroke="#555" stroke-width="1"/>
<line x1="90" y1="217.38862234407128" x2="1130" y2="217.38862234407128" stroke="#555" stroke-width="1"/>
<line x1="90" y1="630.0" x2="1130" y2="630.0" stroke="#eee" stroke-width="1"/>
<text x="78" y="635.0" text-anchor="end" font-size="14" font-family="Arial, PingFang SC, Microsoft YaHei, sans-serif" fill="#666">-36.12</text>
<line x1="90" y1="530.0" x2="1130" y2="530.0" stroke="#eee" stroke-width="1"/>
<text x="78" y="535.0" text-anchor="end" font-size="14" font-family="Arial, PingFang SC, Microsoft YaHei, sans-serif" fill="#666">-27.37</text>
<line x1="90" y1="430.00000000000006" x2="1130" y2="430.00000000000006" stroke="#eee" stroke-width="1"/>
<text x="78" y="435.00000000000006" text-anchor="end" font-size="14" font-family="Arial, PingFang SC, Microsoft YaHei, sans-serif" fill="#666">-18.61</text>
<line x1="90" y1="329.99999999999994" x2="1130" y2="329.99999999999994" stroke="#eee" stroke-width="1"/>
<text x="78" y="334.99999999999994" text-anchor="end" font-size="14" font-family="Arial, PingFang SC, Microsoft YaHei, sans-serif" fill="#666">-9.86</text>
<line x1="90" y1="230.0" x2="1130" y2="230.0" stroke="#eee" stroke-width="1"/>
<text x="78" y="235.0" text-anchor="end" font-size="14" font-family="Arial, PingFang SC, Microsoft YaHei, sans-serif" fill="#666">-1.10</text>
<line x1="90" y1="130.00000000000003" x2="1130" y2="130.00000000000003" stroke="#eee" stroke-width="1"/>
<text x="78" y="135.00000000000003" text-anchor="end" font-size="14" font-family="Arial, PingFang SC, Microsoft YaHei, sans-serif" fill="#666">7.65</text>
<text x="176.66666666666669" y="658" text-anchor="middle" font-size="14" font-family="Arial, PingFang SC, Microsoft YaHei, sans-serif" fill="#666">2020</text>
<text x="350.0" y="658" text-anchor="middle" font-size="14" font-family="Arial, PingFang SC, Microsoft YaHei, sans-serif" fill="#666">2021</text>
<text x="523.3333333333334" y="658" text-anchor="middle" font-size="14" font-family="Arial, PingFang SC, Microsoft YaHei, sans-serif" fill="#666">2022</text>
<text x="696.6666666666667" y="658" text-anchor="middle" font-size="14" font-family="Arial, PingFang SC, Microsoft YaHei, sans-serif" fill="#666">2023</text>
<text x="870.0" y="658" text-anchor="middle" font-size="14" font-family="Arial, PingFang SC, Microsoft YaHei, sans-serif" fill="#666">2024</text>
<text x="1043.3333333333335" y="658" text-anchor="middle" font-size="14" font-family="Arial, PingFang SC, Microsoft YaHei, sans-serif" fill="#666">2025</text>
<polyline fill="none" stroke="#4E79A7" stroke-width="3" points="176.67,130.00 350.00,152.96 523.33,146.56 696.67,160.96 870.00,630.00 1043.33,189.97"/>
<circle cx="176.67" cy="130.00" r="4" fill="#4E79A7"/>
<circle cx="350.00" cy="152.96" r="4" fill="#4E79A7"/>
<circle cx="523.33" cy="146.56" r="4" fill="#4E79A7"/>
<circle cx="696.67" cy="160.96" r="4" fill="#4E79A7"/>
<circle cx="870.00" cy="630.00" r="4" fill="#4E79A7"/>
<circle cx="1043.33" cy="189.97" r="4" fill="#4E79A7"/>
<polyline fill="none" stroke="#F28E2B" stroke-width="3" points="176.67,146.45 350.00,163.93 523.33,170.67 696.67,178.55 870.00,340.53 1043.33,192.71"/>
<circle cx="176.67" cy="146.45" r="4" fill="#F28E2B"/>
<circle cx="350.00" cy="163.93" r="4" fill="#F28E2B"/>
<circle cx="523.33" cy="170.67" r="4" fill="#F28E2B"/>
<circle cx="696.67" cy="178.55" r="4" fill="#F28E2B"/>
<circle cx="870.00" cy="340.53" r="4" fill="#F28E2B"/>
<circle cx="1043.33" cy="192.71" r="4" fill="#F28E2B"/>
</svg>