<svg xmlns="http://www.w3.org/2000/svg" width="1200" height="720" viewBox="0 0 1200 720">
<rect x="0" y="0" width="100%" height="100%" fill="#ffffff"/>
<text x="40" y="42" font-size="26" font-family="Arial, PingFang SC, Microsoft YaHei, sans-serif" fill="#222">分产品收入变化图</text>
<rect x="40" y="60" width="22" height="10" fill="#4E79A7"/>
<text x="68" y="70" font-size="16" font-family="Arial, PingFang SC, Microsoft YaHei, sans-serif" fill="#333">家电行业</text>
<rect x="210" y="60" width="22" height="10" fill="#F28E2B"/>
<text x="238" y="70" font-size="16" font-family="Arial, PingFang SC, Microsoft YaHei, sans-serif" fill="#333">IT产品</text>
<rect x="380" y="60" width="22" height="10" fill="#E15759"/>
<text x="408" y="70" font-size="16" font-family="Arial, PingFang SC, Microsoft YaHei, sans-serif" fill="#333">IT产品(行业)</text>
<rect x="550" y="60" width="22" height="10" fill="#76B7B2"/>
<text x="578" y="70" font-size="16" font-family="Arial, PingFang SC, Microsoft YaHei, sans-serif" fill="#333">国外</text>
<rect x="720" y="60" width="22" height="10" fill="#59A14F"/>
<text x="748" y="70" font-size="16" font-family="Arial, PingFang SC, Microsoft YaHei, sans-serif" fill="#333">空调</text>
<line x1="90" y1="130" x2="90" y2="630" stroke="#555" stroke-width="1"/>
<line x1="90" y1="630.0" x2="1130" y2="630.0" stroke="#555" stroke-width="1"/>
<line x1="90" y1="630.0" x2="1130" y2="630.0" stroke="#eee" stroke-width="1"/>
<text x="78" y="635.0" text-anchor="end" font-size="14" font-family="Arial, PingFang SC, Microsoft YaHei, sans-serif" fill="#666">0.00</text>
<line x1="90" y1="530.0" x2="1130" y2="530.0" stroke="#eee" stroke-width="1"/>
<text x="78" y="535.0" text-anchor="end" font-size="14" font-family="Arial, PingFang SC, Microsoft YaHei, sans-serif" fill="#666">210.34</text>
<line x1="90" y1="430.0" x2="1130" y2="430.0" stroke="#eee" stroke-width="1"/>
<text x="78" y="435.0" text-anchor="end" font-size="14" font-family="Arial, PingFang SC, Microsoft YaHei, sans-serif" fill="#666">420.68</text>
<line x1="90" y1="330.0" x2="1130" y2="330.0" stroke="#eee" stroke-width="1"/>
<text x="78" y="335.0" text-anchor="end" font-size="14" font-family="Arial, PingFang SC, Microsoft YaHei, sans-serif" fill="#666">631.01</text>
<line x1="90" y1="229.99999999999997" x2="1130" y2="229.99999999999997" stroke="#eee" stroke-width="1"/>
<text x="78" y="234.99999999999997" text-anchor="end" font-size="14" font-family="Arial, PingFang SC, Microsoft YaHei, sans-serif" fill="#666">841.35</text>
<line x1="90" y1="130.0" x2="1130" y2="130.0" stroke="#eee" stroke-width="1"/>
<text x="78" y="135.0" text-anchor="end" font-size="14" font-family="Arial, PingFang SC, Microsoft YaHei, sans-serif" fill="#666">1051.69</text>
<text x="194.0" y="658" text-anchor="middle" font-size="14" font-family="Arial, PingFang SC, Microsoft YaHei, sans-serif" fill="#666">2021</text>
<text x="402.0" y="658" text-anchor="middle" font-size="14" font-family="Arial, PingFang SC, Microsoft YaHei, sans-serif" fill="#666">2022</text>
<text x="610.0" y="658" text-anchor="middle" font-size="14" font-family="Arial, PingFang SC, Microsoft YaHei, sans-serif" fill="#666">2023</text>
<text x="818.0" y="658" text-anchor="middle" font-size="14" font-family="Arial, PingFang SC, Microsoft YaHei, sans-serif" fill="#666">2024</text>
<text x="1026.0" y="658" text-anchor="middle" font-size="14" font-family="Arial, PingFang SC, Microsoft YaHei, sans-serif" fill="#666">2025</text>
<rect x="123.28" y="130.00" width="26.02" height="500.00" fill="#4E79A7" opacity="0.85"/>
<rect x="331.28" y="148.63" width="26.02" height="481.37" fill="#4E79A7" opacity="0.85"/>
<rect x="539.28" y="353.66" width="26.02" height="276.34" fill="#4E79A7" opacity="0.85"/>
<rect x="747.28" y="309.24" width="26.02" height="320.76" fill="#4E79A7" opacity="0.85"/>
<rect x="955.28" y="294.70" width="26.02" height="335.30" fill="#4E79A7" opacity="0.85"/>
<rect x="151.57" y="361.38" width="26.02" height="268.62" fill="#F28E2B" opacity="0.85"/>
<rect x="359.57" y="399.37" width="26.02" height="230.63" fill="#F28E2B" opacity="0.85"/>
<rect x="567.57" y="395.62" width="26.02" height="234.38" fill="#F28E2B" opacity="0.85"/>
<rect x="775.57" y="370.38" width="26.02" height="259.62" fill="#F28E2B" opacity="0.85"/>
<rect x="983.57" y="343.10" width="26.02" height="286.90" fill="#F28E2B" opacity="0.85"/>
<rect x="179.86" y="630.00" width="26.02" height="0.00" fill="#E15759" opacity="0.85"/>
<rect x="387.86" y="630.00" width="26.02" height="0.00" fill="#E15759" opacity="0.85"/>
<rect x="595.86" y="395.62" width="26.02" height="234.38" fill="#E15759" opacity="0.85"/>
<rect x="803.86" y="370.38" width="26.02" height="259.62" fill="#E15759" opacity="0.85"/>
<rect x="1011.86" y="343.10" width="26.02" height="286.90" fill="#E15759" opacity="0.85"/>
<rect x="208.14" y="483.77" width="26.02" height="146.23" fill="#76B7B2" opacity="0.85"/>
<rect x="416.14" y="483.83" width="26.02" height="146.17" fill="#76B7B2" opacity="0.85"/>
<rect x="624.14" y="477.57" width="26.02" height="152.43" fill="#76B7B2" opacity="0.85"/>
<rect x="832.14" y="447.53" width="26.02" height="182.47" fill="#76B7B2" opacity="0.85"/>
<rect x="1040.14" y="440.50" width="26.02" height="189.50" fill="#76B7B2" opacity="0.85"/>
<rect x="236.43" y="630.00" width="26.02" height="0.00" fill="#59A14F" opacity="0.85"/>
<rect x="444.43" y="630.00" width="26.02" height="0.00" fill="#59A14F" opacity="0.85"/>
<rect x="652.43" y="540.95" width="26.02" height="89.05" fill="#59A14F" opacity="0.85"/>
<rect x="860.43" y="515.34" width="26.02" height="114.66" fill="#59A14F" opacity="0.85"/>
<rect x="1068.43" y="492.03" width="26.02" height="137.97" fill="#59A14F" opacity="0.85"/>
</svg>