<svg xmlns="http://www.w3.org/2000/svg" width="1200" height="720" viewBox="0 0 1200 720">
<rect x="0" y="0" width="100%" height="100%" fill="#ffffff"/>
<text x="40" y="42" font-size="26" font-family="Arial, PingFang SC, Microsoft YaHei, sans-serif" fill="#222">分产品收入变化图</text>
<rect x="40" y="60" width="22" height="10" fill="#4E79A7"/>
<text x="68" y="70" font-size="16" font-family="Arial, PingFang SC, Microsoft YaHei, sans-serif" fill="#333">个人寿险</text>
<rect x="210" y="60" width="22" height="10" fill="#F28E2B"/>
<text x="238" y="70" font-size="16" font-family="Arial, PingFang SC, Microsoft YaHei, sans-serif" fill="#333">传统寿险</text>
<rect x="380" y="60" width="22" height="10" fill="#E15759"/>
<text x="408" y="70" font-size="16" font-family="Arial, PingFang SC, Microsoft YaHei, sans-serif" fill="#333">机动车辆保险</text>
<rect x="550" y="60" width="22" height="10" fill="#76B7B2"/>
<text x="578" y="70" font-size="16" font-family="Arial, PingFang SC, Microsoft YaHei, sans-serif" fill="#333">客户贷款</text>
<rect x="720" y="60" width="22" height="10" fill="#59A14F"/>
<text x="748" y="70" font-size="16" font-family="Arial, PingFang SC, Microsoft YaHei, sans-serif" fill="#333">广东</text>
<line x1="90" y1="130" x2="90" y2="630" stroke="#555" stroke-width="1"/>
<line x1="90" y1="630.0" x2="1130" y2="630.0" stroke="#555" stroke-width="1"/>
<line x1="90" y1="630.0" x2="1130" y2="630.0" stroke="#eee" stroke-width="1"/>
<text x="78" y="635.0" text-anchor="end" font-size="14" font-family="Arial, PingFang SC, Microsoft YaHei, sans-serif" fill="#666">0.00</text>
<line x1="90" y1="530.0" x2="1130" y2="530.0" stroke="#eee" stroke-width="1"/>
<text x="78" y="535.0" text-anchor="end" font-size="14" font-family="Arial, PingFang SC, Microsoft YaHei, sans-serif" fill="#666">3942.28</text>
<line x1="90" y1="430.00000000000006" x2="1130" y2="430.00000000000006" stroke="#eee" stroke-width="1"/>
<text x="78" y="435.00000000000006" text-anchor="end" font-size="14" font-family="Arial, PingFang SC, Microsoft YaHei, sans-serif" fill="#666">7884.55</text>
<line x1="90" y1="330.0" x2="1130" y2="330.0" stroke="#eee" stroke-width="1"/>
<text x="78" y="335.0" text-anchor="end" font-size="14" font-family="Arial, PingFang SC, Microsoft YaHei, sans-serif" fill="#666">11826.83</text>
<line x1="90" y1="230.0" x2="1130" y2="230.0" stroke="#eee" stroke-width="1"/>
<text x="78" y="235.0" text-anchor="end" font-size="14" font-family="Arial, PingFang SC, Microsoft YaHei, sans-serif" fill="#666">15769.10</text>
<line x1="90" y1="130.0" x2="1130" y2="130.0" stroke="#eee" stroke-width="1"/>
<text x="78" y="135.0" text-anchor="end" font-size="14" font-family="Arial, PingFang SC, Microsoft YaHei, sans-serif" fill="#666">19711.38</text>
<text x="194.0" y="658" text-anchor="middle" font-size="14" font-family="Arial, PingFang SC, Microsoft YaHei, sans-serif" fill="#666">2021</text>
<text x="402.0" y="658" text-anchor="middle" font-size="14" font-family="Arial, PingFang SC, Microsoft YaHei, sans-serif" fill="#666">2022</text>
<text x="610.0" y="658" text-anchor="middle" font-size="14" font-family="Arial, PingFang SC, Microsoft YaHei, sans-serif" fill="#666">2023</text>
<text x="818.0" y="658" text-anchor="middle" font-size="14" font-family="Arial, PingFang SC, Microsoft YaHei, sans-serif" fill="#666">2024</text>
<text x="1026.0" y="658" text-anchor="middle" font-size="14" font-family="Arial, PingFang SC, Microsoft YaHei, sans-serif" fill="#666">2025</text>
<rect x="123.28" y="188.81" width="26.02" height="441.19" fill="#4E79A7" opacity="0.85"/>
<rect x="331.28" y="204.27" width="26.02" height="425.73" fill="#4E79A7" opacity="0.85"/>
<rect x="539.28" y="148.04" width="26.02" height="481.96" fill="#4E79A7" opacity="0.85"/>
<rect x="747.28" y="130.00" width="26.02" height="500.00" fill="#4E79A7" opacity="0.85"/>
<rect x="955.28" y="273.73" width="26.02" height="356.27" fill="#4E79A7" opacity="0.85"/>
<rect x="151.57" y="584.97" width="26.02" height="45.03" fill="#F28E2B" opacity="0.85"/>
<rect x="359.57" y="582.94" width="26.02" height="47.06" fill="#F28E2B" opacity="0.85"/>
<rect x="567.57" y="564.02" width="26.02" height="65.98" fill="#F28E2B" opacity="0.85"/>
<rect x="775.57" y="545.06" width="26.02" height="84.94" fill="#F28E2B" opacity="0.85"/>
<rect x="983.57" y="536.92" width="26.02" height="93.08" fill="#F28E2B" opacity="0.85"/>
<rect x="179.86" y="559.46" width="26.02" height="70.54" fill="#E15759" opacity="0.85"/>
<rect x="387.86" y="554.66" width="26.02" height="75.34" fill="#E15759" opacity="0.85"/>
<rect x="595.86" y="550.05" width="26.02" height="79.95" fill="#E15759" opacity="0.85"/>
<rect x="803.86" y="546.77" width="26.02" height="83.23" fill="#E15759" opacity="0.85"/>
<rect x="1011.86" y="544.02" width="26.02" height="85.98" fill="#E15759" opacity="0.85"/>
<rect x="208.14" y="565.32" width="26.02" height="64.68" fill="#76B7B2" opacity="0.85"/>
<rect x="416.14" y="558.69" width="26.02" height="71.31" fill="#76B7B2" opacity="0.85"/>
<rect x="624.14" y="559.35" width="26.02" height="70.65" fill="#76B7B2" opacity="0.85"/>
<rect x="832.14" y="570.36" width="26.02" height="59.64" fill="#76B7B2" opacity="0.85"/>
<rect x="1040.14" y="579.88" width="26.02" height="50.12" fill="#76B7B2" opacity="0.85"/>
<rect x="236.43" y="589.98" width="26.02" height="40.02" fill="#59A14F" opacity="0.85"/>
<rect x="444.43" y="591.42" width="26.02" height="38.58" fill="#59A14F" opacity="0.85"/>
<rect x="652.43" y="587.52" width="26.02" height="42.48" fill="#59A14F" opacity="0.85"/>
<rect x="860.43" y="585.61" width="26.02" height="44.39" fill="#59A14F" opacity="0.85"/>
<rect x="1068.43" y="583.13" width="26.02" height="46.87" fill="#59A14F" opacity="0.85"/>
</svg>