<svg xmlns="http://www.w3.org/2000/svg" width="1200" height="720" viewBox="0 0 1200 720">
<rect x="0" y="0" width="100%" height="100%" fill="#ffffff"/>
<text x="40" y="42" font-size="26" font-family="Arial, PingFang SC, Microsoft YaHei, sans-serif" fill="#222">分产品利润结构图</text>
<rect x="40" y="60" width="22" height="10" fill="#4E79A7"/>
<text x="68" y="70" font-size="16" font-family="Arial, PingFang SC, Microsoft YaHei, sans-serif" fill="#333">利润</text>
<rect x="210" y="60" width="22" height="10" fill="#F28E2B"/>
<text x="238" y="70" font-size="16" font-family="Arial, PingFang SC, Microsoft YaHei, sans-serif" fill="#333">毛利率</text>
<line x1="90" y1="130" x2="90" y2="630" stroke="#555" stroke-width="1"/>
<line x1="90" y1="630.0" x2="1130" y2="630.0" stroke="#555" stroke-width="1"/>
<line x1="90" y1="630.0" x2="1130" y2="630.0" stroke="#eee" stroke-width="1"/>
<text x="78" y="635.0" text-anchor="end" font-size="14" font-family="Arial, PingFang SC, Microsoft YaHei, sans-serif" fill="#666">0.00</text>
<line x1="90" y1="530.0" x2="1130" y2="530.0" stroke="#eee" stroke-width="1"/>
<text x="78" y="535.0" text-anchor="end" font-size="14" font-family="Arial, PingFang SC, Microsoft YaHei, sans-serif" fill="#666">4.34</text>
<line x1="90" y1="430.0" x2="1130" y2="430.0" stroke="#eee" stroke-width="1"/>
<text x="78" y="435.0" text-anchor="end" font-size="14" font-family="Arial, PingFang SC, Microsoft YaHei, sans-serif" fill="#666">8.69</text>
<line x1="90" y1="330.0" x2="1130" y2="330.0" stroke="#eee" stroke-width="1"/>
<text x="78" y="335.0" text-anchor="end" font-size="14" font-family="Arial, PingFang SC, Microsoft YaHei, sans-serif" fill="#666">13.03</text>
<line x1="90" y1="230.00000000000003" x2="1130" y2="230.00000000000003" stroke="#eee" stroke-width="1"/>
<text x="78" y="235.00000000000003" text-anchor="end" font-size="14" font-family="Arial, PingFang SC, Microsoft YaHei, sans-serif" fill="#666">17.38</text>
<line x1="90" y1="130.0" x2="1130" y2="130.0" stroke="#eee" stroke-width="1"/>
<text x="78" y="135.0" text-anchor="end" font-size="14" font-family="Arial, PingFang SC, Microsoft YaHei, sans-serif" fill="#666">21.72</text>
<text x="176.66666666666669" y="658" text-anchor="middle" font-size="14" font-family="Arial, PingFang SC, Microsoft YaHei, sans-serif" fill="#666">锂系列产品</text>
<text x="350.0" y="658" text-anchor="middle" font-size="14" font-family="Arial, PingFang SC, Microsoft YaHei, sans-serif" fill="#666">基础化学材料</text>
<text x="523.3333333333334" y="658" text-anchor="middle" font-size="14" font-family="Arial, PingFang SC, Microsoft YaHei, sans-serif" fill="#666">锂电池、电芯</text>
<text x="696.6666666666667" y="658" text-anchor="middle" font-size="14" font-family="Arial, PingFang SC, Microsoft YaHei, sans-serif" fill="#666">锂电池系列产品</text>
<text x="870.0" y="658" text-anchor="middle" font-size="14" font-family="Arial, PingFang SC, Microsoft YaHei, sans-serif" fill="#666">其他主营业务</text>
<text x="1043.3333333333335" y="658" text-anchor="middle" font-size="14" font-family="Arial, PingFang SC, Microsoft YaHei, sans-serif" fill="#666">其他(行业)</text>
<rect x="117.73" y="169.83" width="108.44" height="460.17" fill="#4E79A7" opacity="0.85"/>
<rect x="291.07" y="169.83" width="108.44" height="460.17" fill="#4E79A7" opacity="0.85"/>
<rect x="464.40" y="353.30" width="108.44" height="276.70" fill="#4E79A7" opacity="0.85"/>
<rect x="637.73" y="353.30" width="108.44" height="276.70" fill="#4E79A7" opacity="0.85"/>
<rect x="811.07" y="531.47" width="108.44" height="98.53" fill="#4E79A7" opacity="0.85"/>
<rect x="984.40" y="531.47" width="108.44" height="98.53" fill="#4E79A7" opacity="0.85"/>
<polyline fill="none" stroke="#F28E2B" stroke-width="3" points="176.67,272.73 350.00,272.73 523.33,293.90 696.67,293.90 870.00,130.00 1043.33,130.00"/>
<circle cx="176.67" cy="272.73" r="4" fill="#F28E2B"/>
<circle cx="350.00" cy="272.73" r="4" fill="#F28E2B"/>
<circle cx="523.33" cy="293.90" r="4" fill="#F28E2B"/>
<circle cx="696.67" cy="293.90" r="4" fill="#F28E2B"/>
<circle cx="870.00" cy="130.00" r="4" fill="#F28E2B"/>
<circle cx="1043.33" cy="130.00" r="4" fill="#F28E2B"/>
</svg>