<svg xmlns="http://www.w3.org/2000/svg" width="1200" height="720" viewBox="0 0 1200 720">
<rect x="0" y="0" width="100%" height="100%" fill="#ffffff"/>
<text x="40" y="42" font-size="26" font-family="Arial, PingFang SC, Microsoft YaHei, sans-serif" fill="#222">财务比率分析图</text>
<rect x="40" y="60" width="22" height="10" fill="#4E79A7"/>
<text x="68" y="70" font-size="16" font-family="Arial, PingFang SC, Microsoft YaHei, sans-serif" fill="#333">资产负债率</text>
<rect x="210" y="60" width="22" height="10" fill="#F28E2B"/>
<text x="238" y="70" font-size="16" font-family="Arial, PingFang SC, Microsoft YaHei, sans-serif" fill="#333">流动比率</text>
<rect x="380" y="60" width="22" height="10" fill="#E15759"/>
<text x="408" y="70" font-size="16" font-family="Arial, PingFang SC, Microsoft YaHei, sans-serif" fill="#333">速动比率</text>
<rect x="550" y="60" width="22" height="10" fill="#76B7B2"/>
<text x="578" y="70" font-size="16" font-family="Arial, PingFang SC, Microsoft YaHei, sans-serif" fill="#333">应收周转率</text>
<rect x="720" y="60" width="22" height="10" fill="#59A14F"/>
<text x="748" y="70" font-size="16" font-family="Arial, PingFang SC, Microsoft YaHei, sans-serif" fill="#333">存货周转率</text>
<line x1="90" y1="130" x2="90" y2="630" stroke="#555" stroke-width="1"/>
<line x1="90" y1="630.0" x2="1130" y2="630.0" stroke="#555" stroke-width="1"/>
<line x1="90" y1="630.0" x2="1130" y2="630.0" stroke="#eee" stroke-width="1"/>
<text x="78" y="635.0" text-anchor="end" font-size="14" font-family="Arial, PingFang SC, Microsoft YaHei, sans-serif" fill="#666">0.00</text>
<line x1="90" y1="530.0" x2="1130" y2="530.0" stroke="#eee" stroke-width="1"/>
<text x="78" y="535.0" text-anchor="end" font-size="14" font-family="Arial, PingFang SC, Microsoft YaHei, sans-serif" fill="#666">10.85</text>
<line x1="90" y1="430.0" x2="1130" y2="430.0" stroke="#eee" stroke-width="1"/>
<text x="78" y="435.0" text-anchor="end" font-size="14" font-family="Arial, PingFang SC, Microsoft YaHei, sans-serif" fill="#666">21.69</text>
<line x1="90" y1="330.0" x2="1130" y2="330.0" stroke="#eee" stroke-width="1"/>
<text x="78" y="335.0" text-anchor="end" font-size="14" font-family="Arial, PingFang SC, Microsoft YaHei, sans-serif" fill="#666">32.54</text>
<line x1="90" y1="229.99999999999997" x2="1130" y2="229.99999999999997" stroke="#eee" stroke-width="1"/>
<text x="78" y="234.99999999999997" text-anchor="end" font-size="14" font-family="Arial, PingFang SC, Microsoft YaHei, sans-serif" fill="#666">43.38</text>
<line x1="90" y1="130.0" x2="1130" y2="130.0" stroke="#eee" stroke-width="1"/>
<text x="78" y="135.0" text-anchor="end" font-size="14" font-family="Arial, PingFang SC, Microsoft YaHei, sans-serif" fill="#666">54.23</text>
<text x="194.0" y="658" text-anchor="middle" font-size="14" font-family="Arial, PingFang SC, Microsoft YaHei, sans-serif" fill="#666">2021</text>
<text x="402.0" y="658" text-anchor="middle" font-size="14" font-family="Arial, PingFang SC, Microsoft YaHei, sans-serif" fill="#666">2022</text>
<text x="610.0" y="658" text-anchor="middle" font-size="14" font-family="Arial, PingFang SC, Microsoft YaHei, sans-serif" fill="#666">2023</text>
<text x="818.0" y="658" text-anchor="middle" font-size="14" font-family="Arial, PingFang SC, Microsoft YaHei, sans-serif" fill="#666">2024</text>
<text x="1026.0" y="658" text-anchor="middle" font-size="14" font-family="Arial, PingFang SC, Microsoft YaHei, sans-serif" fill="#666">2025</text>
<rect x="123.28" y="576.62" width="65.06" height="53.38" fill="#4E79A7" opacity="0.85"/>
<rect x="331.28" y="555.78" width="65.06" height="74.22" fill="#4E79A7" opacity="0.85"/>
<rect x="539.28" y="582.70" width="65.06" height="47.30" fill="#4E79A7" opacity="0.85"/>
<rect x="747.28" y="590.91" width="65.06" height="39.09" fill="#4E79A7" opacity="0.85"/>
<rect x="955.28" y="590.35" width="65.06" height="39.65" fill="#4E79A7" opacity="0.85"/>
<rect x="194.00" y="607.50" width="65.06" height="22.50" fill="#F28E2B" opacity="0.85"/>
<rect x="402.00" y="600.96" width="65.06" height="29.04" fill="#F28E2B" opacity="0.85"/>
<rect x="610.00" y="601.51" width="65.06" height="28.49" fill="#F28E2B" opacity="0.85"/>
<rect x="818.00" y="611.56" width="65.06" height="18.44" fill="#F28E2B" opacity="0.85"/>
<rect x="1026.00" y="613.40" width="65.06" height="16.60" fill="#F28E2B" opacity="0.85"/>
<polyline fill="none" stroke="#E15759" stroke-width="3" points="194.00,325.74 402.00,277.15 610.00,234.00 818.00,143.18 1026.00,130.00"/>
<circle cx="194.00" cy="325.74" r="4" fill="#E15759"/>
<circle cx="402.00" cy="277.15" r="4" fill="#E15759"/>
<circle cx="610.00" cy="234.00" r="4" fill="#E15759"/>
<circle cx="818.00" cy="143.18" r="4" fill="#E15759"/>
<circle cx="1026.00" cy="130.00" r="4" fill="#E15759"/>
<polyline fill="none" stroke="#76B7B2" stroke-width="3" points="194.00,613.59 402.00,614.23 610.00,617.18 818.00,623.64 1026.00,621.52"/>
<circle cx="194.00" cy="613.59" r="4" fill="#76B7B2"/>
<circle cx="402.00" cy="614.23" r="4" fill="#76B7B2"/>
<circle cx="610.00" cy="617.18" r="4" fill="#76B7B2"/>
<circle cx="818.00" cy="623.64" r="4" fill="#76B7B2"/>
<circle cx="1026.00" cy="621.52" r="4" fill="#76B7B2"/>
<polyline fill="none" stroke="#59A14F" stroke-width="3" points="194.00,617.28 402.00,619.21 610.00,620.96 818.00,626.13 1026.00,624.65"/>
<circle cx="194.00" cy="617.28" r="4" fill="#59A14F"/>
<circle cx="402.00" cy="619.21" r="4" fill="#59A14F"/>
<circle cx="610.00" cy="620.96" r="4" fill="#59A14F"/>
<circle cx="818.00" cy="626.13" r="4" fill="#59A14F"/>
<circle cx="1026.00" cy="624.65" r="4" fill="#59A14F"/>
</svg>