<svg xmlns="http://www.w3.org/2000/svg" width="1200" height="720" viewBox="0 0 1200 720">
<rect x="0" y="0" width="100%" height="100%" fill="#ffffff"/>
<text x="40" y="42" font-size="26" font-family="Arial, PingFang SC, Microsoft YaHei, sans-serif" fill="#222">分产品收入变化图</text>
<rect x="40" y="60" width="22" height="10" fill="#4E79A7"/>
<text x="68" y="70" font-size="16" font-family="Arial, PingFang SC, Microsoft YaHei, sans-serif" fill="#333">锂系列产品</text>
<rect x="210" y="60" width="22" height="10" fill="#F28E2B"/>
<text x="238" y="70" font-size="16" font-family="Arial, PingFang SC, Microsoft YaHei, sans-serif" fill="#333">基础化学材料</text>
<rect x="380" y="60" width="22" height="10" fill="#E15759"/>
<text x="408" y="70" font-size="16" font-family="Arial, PingFang SC, Microsoft YaHei, sans-serif" fill="#333">锂电池、电芯</text>
<rect x="550" y="60" width="22" height="10" fill="#76B7B2"/>
<text x="578" y="70" font-size="16" font-family="Arial, PingFang SC, Microsoft YaHei, sans-serif" fill="#333">锂电池系列产品</text>
<rect x="720" y="60" width="22" height="10" fill="#59A14F"/>
<text x="748" y="70" font-size="16" font-family="Arial, PingFang SC, Microsoft YaHei, sans-serif" fill="#333">其他主营业务</text>
<line x1="90" y1="130" x2="90" y2="630" stroke="#555" stroke-width="1"/>
<line x1="90" y1="630.0" x2="1130" y2="630.0" stroke="#555" stroke-width="1"/>
<line x1="90" y1="630.0" x2="1130" y2="630.0" stroke="#eee" stroke-width="1"/>
<text x="78" y="635.0" text-anchor="end" font-size="14" font-family="Arial, PingFang SC, Microsoft YaHei, sans-serif" fill="#666">0.00</text>
<line x1="90" y1="530.0" x2="1130" y2="530.0" stroke="#eee" stroke-width="1"/>
<text x="78" y="535.0" text-anchor="end" font-size="14" font-family="Arial, PingFang SC, Microsoft YaHei, sans-serif" fill="#666">93.44</text>
<line x1="90" y1="430.0" x2="1130" y2="430.0" stroke="#eee" stroke-width="1"/>
<text x="78" y="435.0" text-anchor="end" font-size="14" font-family="Arial, PingFang SC, Microsoft YaHei, sans-serif" fill="#666">186.87</text>
<line x1="90" y1="330.0" x2="1130" y2="330.0" stroke="#eee" stroke-width="1"/>
<text x="78" y="335.0" text-anchor="end" font-size="14" font-family="Arial, PingFang SC, Microsoft YaHei, sans-serif" fill="#666">280.31</text>
<line x1="90" y1="229.99999999999997" x2="1130" y2="229.99999999999997" stroke="#eee" stroke-width="1"/>
<text x="78" y="234.99999999999997" text-anchor="end" font-size="14" font-family="Arial, PingFang SC, Microsoft YaHei, sans-serif" fill="#666">373.74</text>
<line x1="90" y1="130.0" x2="1130" y2="130.0" stroke="#eee" stroke-width="1"/>
<text x="78" y="135.0" text-anchor="end" font-size="14" font-family="Arial, PingFang SC, Microsoft YaHei, sans-serif" fill="#666">467.18</text>
<text x="194.0" y="658" text-anchor="middle" font-size="14" font-family="Arial, PingFang SC, Microsoft YaHei, sans-serif" fill="#666">2021</text>
<text x="402.0" y="658" text-anchor="middle" font-size="14" font-family="Arial, PingFang SC, Microsoft YaHei, sans-serif" fill="#666">2022</text>
<text x="610.0" y="658" text-anchor="middle" font-size="14" font-family="Arial, PingFang SC, Microsoft YaHei, sans-serif" fill="#666">2023</text>
<text x="818.0" y="658" text-anchor="middle" font-size="14" font-family="Arial, PingFang SC, Microsoft YaHei, sans-serif" fill="#666">2024</text>
<text x="1026.0" y="658" text-anchor="middle" font-size="14" font-family="Arial, PingFang SC, Microsoft YaHei, sans-serif" fill="#666">2025</text>
<rect x="123.28" y="509.23" width="26.02" height="120.77" fill="#4E79A7" opacity="0.85"/>
<rect x="331.28" y="130.00" width="26.02" height="500.00" fill="#4E79A7" opacity="0.85"/>
<rect x="539.28" y="221.37" width="26.02" height="408.63" fill="#4E79A7" opacity="0.85"/>
<rect x="747.28" y="431.52" width="26.02" height="198.48" fill="#4E79A7" opacity="0.85"/>
<rect x="955.28" y="441.29" width="26.02" height="188.71" fill="#4E79A7" opacity="0.85"/>
<rect x="151.57" y="509.23" width="26.02" height="120.77" fill="#F28E2B" opacity="0.85"/>
<rect x="359.57" y="130.00" width="26.02" height="500.00" fill="#F28E2B" opacity="0.85"/>
<rect x="567.57" y="221.37" width="26.02" height="408.63" fill="#F28E2B" opacity="0.85"/>
<rect x="775.57" y="431.52" width="26.02" height="198.48" fill="#F28E2B" opacity="0.85"/>
<rect x="983.57" y="441.29" width="26.02" height="188.71" fill="#F28E2B" opacity="0.85"/>
<rect x="179.86" y="600.18" width="26.02" height="29.82" fill="#E15759" opacity="0.85"/>
<rect x="387.86" y="540.55" width="26.02" height="89.45" fill="#E15759" opacity="0.85"/>
<rect x="595.86" y="503.79" width="26.02" height="126.21" fill="#E15759" opacity="0.85"/>
<rect x="803.86" y="537.92" width="26.02" height="92.08" fill="#E15759" opacity="0.85"/>
<rect x="1011.86" y="510.04" width="26.02" height="119.96" fill="#E15759" opacity="0.85"/>
<rect x="208.14" y="600.18" width="26.02" height="29.82" fill="#76B7B2" opacity="0.85"/>
<rect x="416.14" y="540.55" width="26.02" height="89.45" fill="#76B7B2" opacity="0.85"/>
<rect x="624.14" y="503.79" width="26.02" height="126.21" fill="#76B7B2" opacity="0.85"/>
<rect x="832.14" y="537.92" width="26.02" height="92.08" fill="#76B7B2" opacity="0.85"/>
<rect x="1040.14" y="510.04" width="26.02" height="119.96" fill="#76B7B2" opacity="0.85"/>
<rect x="236.43" y="617.63" width="26.02" height="12.37" fill="#59A14F" opacity="0.85"/>
<rect x="444.43" y="617.26" width="26.02" height="12.74" fill="#59A14F" opacity="0.85"/>
<rect x="652.43" y="617.77" width="26.02" height="12.23" fill="#59A14F" opacity="0.85"/>
<rect x="860.43" y="615.59" width="26.02" height="14.41" fill="#59A14F" opacity="0.85"/>
<rect x="1068.43" y="601.99" width="26.02" height="28.01" fill="#59A14F" opacity="0.85"/>
</svg>