<svg xmlns="http://www.w3.org/2000/svg" width="1200" height="720" viewBox="0 0 1200 720">
<rect x="0" y="0" width="100%" height="100%" fill="#ffffff"/>
<text x="40" y="42" font-size="26" font-family="Arial, PingFang SC, Microsoft YaHei, sans-serif" fill="#222">分产品收入变化图</text>
<rect x="40" y="60" width="22" height="10" fill="#4E79A7"/>
<text x="68" y="70" font-size="16" font-family="Arial, PingFang SC, Microsoft YaHei, sans-serif" fill="#333">制药业(行业)</text>
<rect x="210" y="60" width="22" height="10" fill="#F28E2B"/>
<text x="238" y="70" font-size="16" font-family="Arial, PingFang SC, Microsoft YaHei, sans-serif" fill="#333">基因工程药品\生物类药品</text>
<rect x="380" y="60" width="22" height="10" fill="#E15759"/>
<text x="408" y="70" font-size="16" font-family="Arial, PingFang SC, Microsoft YaHei, sans-serif" fill="#333">房地产</text>
<rect x="550" y="60" width="22" height="10" fill="#76B7B2"/>
<text x="578" y="70" font-size="16" font-family="Arial, PingFang SC, Microsoft YaHei, sans-serif" fill="#333">房地产(行业)</text>
<rect x="720" y="60" width="22" height="10" fill="#59A14F"/>
<text x="748" y="70" font-size="16" font-family="Arial, PingFang SC, Microsoft YaHei, sans-serif" fill="#333">中成药</text>
<line x1="90" y1="130" x2="90" y2="630" stroke="#555" stroke-width="1"/>
<line x1="90" y1="630.0" x2="1130" y2="630.0" stroke="#555" stroke-width="1"/>
<line x1="90" y1="630.0" x2="1130" y2="630.0" stroke="#eee" stroke-width="1"/>
<text x="78" y="635.0" text-anchor="end" font-size="14" font-family="Arial, PingFang SC, Microsoft YaHei, sans-serif" fill="#666">0.00</text>
<line x1="90" y1="530.0" x2="1130" y2="530.0" stroke="#eee" stroke-width="1"/>
<text x="78" y="535.0" text-anchor="end" font-size="14" font-family="Arial, PingFang SC, Microsoft YaHei, sans-serif" fill="#666">39.33</text>
<line x1="90" y1="430.0" x2="1130" y2="430.0" stroke="#eee" stroke-width="1"/>
<text x="78" y="435.0" text-anchor="end" font-size="14" font-family="Arial, PingFang SC, Microsoft YaHei, sans-serif" fill="#666">78.67</text>
<line x1="90" y1="330.0" x2="1130" y2="330.0" stroke="#eee" stroke-width="1"/>
<text x="78" y="335.0" text-anchor="end" font-size="14" font-family="Arial, PingFang SC, Microsoft YaHei, sans-serif" fill="#666">118.00</text>
<line x1="90" y1="230.0" x2="1130" y2="230.0" stroke="#eee" stroke-width="1"/>
<text x="78" y="235.0" text-anchor="end" font-size="14" font-family="Arial, PingFang SC, Microsoft YaHei, sans-serif" fill="#666">157.34</text>
<line x1="90" y1="130.0" x2="1130" y2="130.0" stroke="#eee" stroke-width="1"/>
<text x="78" y="135.0" text-anchor="end" font-size="14" font-family="Arial, PingFang SC, Microsoft YaHei, sans-serif" fill="#666">196.67</text>
<text x="194.0" y="658" text-anchor="middle" font-size="14" font-family="Arial, PingFang SC, Microsoft YaHei, sans-serif" fill="#666">2021</text>
<text x="402.0" y="658" text-anchor="middle" font-size="14" font-family="Arial, PingFang SC, Microsoft YaHei, sans-serif" fill="#666">2022</text>
<text x="610.0" y="658" text-anchor="middle" font-size="14" font-family="Arial, PingFang SC, Microsoft YaHei, sans-serif" fill="#666">2023</text>
<text x="818.0" y="658" text-anchor="middle" font-size="14" font-family="Arial, PingFang SC, Microsoft YaHei, sans-serif" fill="#666">2024</text>
<text x="1026.0" y="658" text-anchor="middle" font-size="14" font-family="Arial, PingFang SC, Microsoft YaHei, sans-serif" fill="#666">2025</text>
<rect x="123.28" y="255.69" width="26.02" height="374.31" fill="#4E79A7" opacity="0.85"/>
<rect x="331.28" y="181.10" width="26.02" height="448.90" fill="#4E79A7" opacity="0.85"/>
<rect x="539.28" y="130.00" width="26.02" height="500.00" fill="#4E79A7" opacity="0.85"/>
<rect x="747.28" y="151.30" width="26.02" height="478.70" fill="#4E79A7" opacity="0.85"/>
<rect x="955.28" y="190.15" width="26.02" height="439.85" fill="#4E79A7" opacity="0.85"/>
<rect x="151.57" y="279.74" width="26.02" height="350.26" fill="#F28E2B" opacity="0.85"/>
<rect x="359.57" y="205.58" width="26.02" height="424.42" fill="#F28E2B" opacity="0.85"/>
<rect x="567.57" y="156.87" width="26.02" height="473.13" fill="#F28E2B" opacity="0.85"/>
<rect x="775.57" y="180.62" width="26.02" height="449.38" fill="#F28E2B" opacity="0.85"/>
<rect x="983.57" y="218.98" width="26.02" height="411.02" fill="#F28E2B" opacity="0.85"/>
<rect x="179.86" y="606.28" width="26.02" height="23.72" fill="#E15759" opacity="0.85"/>
<rect x="387.86" y="610.88" width="26.02" height="19.12" fill="#E15759" opacity="0.85"/>
<rect x="595.86" y="604.30" width="26.02" height="25.70" fill="#E15759" opacity="0.85"/>
<rect x="803.86" y="599.19" width="26.02" height="30.81" fill="#E15759" opacity="0.85"/>
<rect x="1011.86" y="597.81" width="26.02" height="32.19" fill="#E15759" opacity="0.85"/>
<rect x="208.14" y="606.28" width="26.02" height="23.72" fill="#76B7B2" opacity="0.85"/>
<rect x="416.14" y="610.88" width="26.02" height="19.12" fill="#76B7B2" opacity="0.85"/>
<rect x="624.14" y="604.30" width="26.02" height="25.70" fill="#76B7B2" opacity="0.85"/>
<rect x="832.14" y="599.19" width="26.02" height="30.81" fill="#76B7B2" opacity="0.85"/>
<rect x="1040.14" y="597.81" width="26.02" height="32.19" fill="#76B7B2" opacity="0.85"/>
<rect x="236.43" y="605.95" width="26.02" height="24.05" fill="#59A14F" opacity="0.85"/>
<rect x="444.43" y="605.52" width="26.02" height="24.48" fill="#59A14F" opacity="0.85"/>
<rect x="652.43" y="603.13" width="26.02" height="26.87" fill="#59A14F" opacity="0.85"/>
<rect x="860.43" y="600.69" width="26.02" height="29.31" fill="#59A14F" opacity="0.85"/>
<rect x="1068.43" y="601.20" width="26.02" height="28.80" fill="#59A14F" opacity="0.85"/>
</svg>