<svg xmlns="http://www.w3.org/2000/svg" width="1200" height="720" viewBox="0 0 1200 720">
<rect x="0" y="0" width="100%" height="100%" fill="#ffffff"/>
<text x="40" y="42" font-size="26" font-family="Arial, PingFang SC, Microsoft YaHei, sans-serif" fill="#222">分产品收入变化图</text>
<rect x="40" y="60" width="22" height="10" fill="#4E79A7"/>
<text x="68" y="70" font-size="16" font-family="Arial, PingFang SC, Microsoft YaHei, sans-serif" fill="#333">制造业</text>
<rect x="210" y="60" width="22" height="10" fill="#F28E2B"/>
<text x="238" y="70" font-size="16" font-family="Arial, PingFang SC, Microsoft YaHei, sans-serif" fill="#333">智能家居</text>
<rect x="380" y="60" width="22" height="10" fill="#E15759"/>
<text x="408" y="70" font-size="16" font-family="Arial, PingFang SC, Microsoft YaHei, sans-serif" fill="#333">国外</text>
<rect x="550" y="60" width="22" height="10" fill="#76B7B2"/>
<text x="578" y="70" font-size="16" font-family="Arial, PingFang SC, Microsoft YaHei, sans-serif" fill="#333">其他(行业)</text>
<rect x="720" y="60" width="22" height="10" fill="#59A14F"/>
<text x="748" y="70" font-size="16" font-family="Arial, PingFang SC, Microsoft YaHei, sans-serif" fill="#333">其他业务</text>
<line x1="90" y1="130" x2="90" y2="630" stroke="#555" stroke-width="1"/>
<line x1="90" y1="630.0" x2="1130" y2="630.0" stroke="#555" stroke-width="1"/>
<line x1="90" y1="630.0" x2="1130" y2="630.0" stroke="#eee" stroke-width="1"/>
<text x="78" y="635.0" text-anchor="end" font-size="14" font-family="Arial, PingFang SC, Microsoft YaHei, sans-serif" fill="#666">0.00</text>
<line x1="90" y1="530.0" x2="1130" y2="530.0" stroke="#eee" stroke-width="1"/>
<text x="78" y="535.0" text-anchor="end" font-size="14" font-family="Arial, PingFang SC, Microsoft YaHei, sans-serif" fill="#666">1268.54</text>
<line x1="90" y1="430.0" x2="1130" y2="430.0" stroke="#eee" stroke-width="1"/>
<text x="78" y="435.0" text-anchor="end" font-size="14" font-family="Arial, PingFang SC, Microsoft YaHei, sans-serif" fill="#666">2537.08</text>
<line x1="90" y1="330.0" x2="1130" y2="330.0" stroke="#eee" stroke-width="1"/>
<text x="78" y="335.0" text-anchor="end" font-size="14" font-family="Arial, PingFang SC, Microsoft YaHei, sans-serif" fill="#666">3805.62</text>
<line x1="90" y1="230.0" x2="1130" y2="230.0" stroke="#eee" stroke-width="1"/>
<text x="78" y="235.0" text-anchor="end" font-size="14" font-family="Arial, PingFang SC, Microsoft YaHei, sans-serif" fill="#666">5074.16</text>
<line x1="90" y1="130.0" x2="1130" y2="130.0" stroke="#eee" stroke-width="1"/>
<text x="78" y="135.0" text-anchor="end" font-size="14" font-family="Arial, PingFang SC, Microsoft YaHei, sans-serif" fill="#666">6342.70</text>
<text x="194.0" y="658" text-anchor="middle" font-size="14" font-family="Arial, PingFang SC, Microsoft YaHei, sans-serif" fill="#666">2021</text>
<text x="402.0" y="658" text-anchor="middle" font-size="14" font-family="Arial, PingFang SC, Microsoft YaHei, sans-serif" fill="#666">2022</text>
<text x="610.0" y="658" text-anchor="middle" font-size="14" font-family="Arial, PingFang SC, Microsoft YaHei, sans-serif" fill="#666">2023</text>
<text x="818.0" y="658" text-anchor="middle" font-size="14" font-family="Arial, PingFang SC, Microsoft YaHei, sans-serif" fill="#666">2024</text>
<text x="1026.0" y="658" text-anchor="middle" font-size="14" font-family="Arial, PingFang SC, Microsoft YaHei, sans-serif" fill="#666">2025</text>
<rect x="123.28" y="271.25" width="26.02" height="358.75" fill="#4E79A7" opacity="0.85"/>
<rect x="331.28" y="260.20" width="26.02" height="369.80" fill="#4E79A7" opacity="0.85"/>
<rect x="539.28" y="227.60" width="26.02" height="402.40" fill="#4E79A7" opacity="0.85"/>
<rect x="747.28" y="190.48" width="26.02" height="439.52" fill="#4E79A7" opacity="0.85"/>
<rect x="955.28" y="130.00" width="26.02" height="500.00" fill="#4E79A7" opacity="0.85"/>
<rect x="151.57" y="630.00" width="26.02" height="0.00" fill="#F28E2B" opacity="0.85"/>
<rect x="359.57" y="630.00" width="26.02" height="0.00" fill="#F28E2B" opacity="0.85"/>
<rect x="567.57" y="630.00" width="26.02" height="0.00" fill="#F28E2B" opacity="0.85"/>
<rect x="775.57" y="417.53" width="26.02" height="212.47" fill="#F28E2B" opacity="0.85"/>
<rect x="983.57" y="261.76" width="26.02" height="368.24" fill="#F28E2B" opacity="0.85"/>
<rect x="179.86" y="463.18" width="26.02" height="166.82" fill="#E15759" opacity="0.85"/>
<rect x="387.86" y="456.19" width="26.02" height="173.81" fill="#E15759" opacity="0.85"/>
<rect x="595.86" y="447.55" width="26.02" height="182.45" fill="#E15759" opacity="0.85"/>
<rect x="803.86" y="424.95" width="26.02" height="205.05" fill="#E15759" opacity="0.85"/>
<rect x="1011.86" y="391.03" width="26.02" height="238.97" fill="#E15759" opacity="0.85"/>
<rect x="208.14" y="630.00" width="26.02" height="0.00" fill="#76B7B2" opacity="0.85"/>
<rect x="416.14" y="630.00" width="26.02" height="0.00" fill="#76B7B2" opacity="0.85"/>
<rect x="624.14" y="630.00" width="26.02" height="0.00" fill="#76B7B2" opacity="0.85"/>
<rect x="832.14" y="594.92" width="26.02" height="35.08" fill="#76B7B2" opacity="0.85"/>
<rect x="1040.14" y="572.21" width="26.02" height="57.79" fill="#76B7B2" opacity="0.85"/>
<rect x="236.43" y="588.32" width="26.02" height="41.68" fill="#59A14F" opacity="0.85"/>
<rect x="444.43" y="594.20" width="26.02" height="35.80" fill="#59A14F" opacity="0.85"/>
<rect x="652.43" y="594.77" width="26.02" height="35.23" fill="#59A14F" opacity="0.85"/>
<rect x="860.43" y="588.85" width="26.02" height="41.15" fill="#59A14F" opacity="0.85"/>
<rect x="1068.43" y="585.53" width="26.02" height="44.47" fill="#59A14F" opacity="0.85"/>
</svg>