<svg xmlns="http://www.w3.org/2000/svg" width="1200" height="720" viewBox="0 0 1200 720">
<rect x="0" y="0" width="100%" height="100%" fill="#ffffff"/>
<text x="40" y="42" font-size="26" font-family="Arial, PingFang SC, Microsoft YaHei, sans-serif" fill="#222">财务比率分析图</text>
<rect x="40" y="60" width="22" height="10" fill="#4E79A7"/>
<text x="68" y="70" font-size="16" font-family="Arial, PingFang SC, Microsoft YaHei, sans-serif" fill="#333">资产负债率</text>
<rect x="210" y="60" width="22" height="10" fill="#F28E2B"/>
<text x="238" y="70" font-size="16" font-family="Arial, PingFang SC, Microsoft YaHei, sans-serif" fill="#333">流动比率</text>
<rect x="380" y="60" width="22" height="10" fill="#E15759"/>
<text x="408" y="70" font-size="16" font-family="Arial, PingFang SC, Microsoft YaHei, sans-serif" fill="#333">速动比率</text>
<rect x="550" y="60" width="22" height="10" fill="#76B7B2"/>
<text x="578" y="70" font-size="16" font-family="Arial, PingFang SC, Microsoft YaHei, sans-serif" fill="#333">应收周转率</text>
<rect x="720" y="60" width="22" height="10" fill="#59A14F"/>
<text x="748" y="70" font-size="16" font-family="Arial, PingFang SC, Microsoft YaHei, sans-serif" fill="#333">存货周转率</text>
<line x1="90" y1="130" x2="90" y2="630" stroke="#555" stroke-width="1"/>
<line x1="90" y1="630.0" x2="1130" y2="630.0" stroke="#555" stroke-width="1"/>
<line x1="90" y1="630.0" x2="1130" y2="630.0" stroke="#eee" stroke-width="1"/>
<text x="78" y="635.0" text-anchor="end" font-size="14" font-family="Arial, PingFang SC, Microsoft YaHei, sans-serif" fill="#666">0.00</text>
<line x1="90" y1="530.0" x2="1130" y2="530.0" stroke="#eee" stroke-width="1"/>
<text x="78" y="535.0" text-anchor="end" font-size="14" font-family="Arial, PingFang SC, Microsoft YaHei, sans-serif" fill="#666">13.05</text>
<line x1="90" y1="430.0" x2="1130" y2="430.0" stroke="#eee" stroke-width="1"/>
<text x="78" y="435.0" text-anchor="end" font-size="14" font-family="Arial, PingFang SC, Microsoft YaHei, sans-serif" fill="#666">26.10</text>
<line x1="90" y1="330.0" x2="1130" y2="330.0" stroke="#eee" stroke-width="1"/>
<text x="78" y="335.0" text-anchor="end" font-size="14" font-family="Arial, PingFang SC, Microsoft YaHei, sans-serif" fill="#666">39.15</text>
<line x1="90" y1="229.99999999999997" x2="1130" y2="229.99999999999997" stroke="#eee" stroke-width="1"/>
<text x="78" y="234.99999999999997" text-anchor="end" font-size="14" font-family="Arial, PingFang SC, Microsoft YaHei, sans-serif" fill="#666">52.20</text>
<line x1="90" y1="130.0" x2="1130" y2="130.0" stroke="#eee" stroke-width="1"/>
<text x="78" y="135.0" text-anchor="end" font-size="14" font-family="Arial, PingFang SC, Microsoft YaHei, sans-serif" fill="#666">65.25</text>
<text x="194.0" y="658" text-anchor="middle" font-size="14" font-family="Arial, PingFang SC, Microsoft YaHei, sans-serif" fill="#666">2021</text>
<text x="402.0" y="658" text-anchor="middle" font-size="14" font-family="Arial, PingFang SC, Microsoft YaHei, sans-serif" fill="#666">2022</text>
<text x="610.0" y="658" text-anchor="middle" font-size="14" font-family="Arial, PingFang SC, Microsoft YaHei, sans-serif" fill="#666">2023</text>
<text x="818.0" y="658" text-anchor="middle" font-size="14" font-family="Arial, PingFang SC, Microsoft YaHei, sans-serif" fill="#666">2024</text>
<text x="1026.0" y="658" text-anchor="middle" font-size="14" font-family="Arial, PingFang SC, Microsoft YaHei, sans-serif" fill="#666">2025</text>
<rect x="123.28" y="520.19" width="65.06" height="109.81" fill="#4E79A7" opacity="0.85"/>
<rect x="331.28" y="530.31" width="65.06" height="99.69" fill="#4E79A7" opacity="0.85"/>
<rect x="539.28" y="536.74" width="65.06" height="93.26" fill="#4E79A7" opacity="0.85"/>
<rect x="747.28" y="539.12" width="65.06" height="90.88" fill="#4E79A7" opacity="0.85"/>
<rect x="955.28" y="538.28" width="65.06" height="91.72" fill="#4E79A7" opacity="0.85"/>
<rect x="194.00" y="581.80" width="65.06" height="48.20" fill="#F28E2B" opacity="0.85"/>
<rect x="402.00" y="590.15" width="65.06" height="39.85" fill="#F28E2B" opacity="0.85"/>
<rect x="610.00" y="588.85" width="65.06" height="41.15" fill="#F28E2B" opacity="0.85"/>
<rect x="818.00" y="591.15" width="65.06" height="38.85" fill="#F28E2B" opacity="0.85"/>
<rect x="1026.00" y="592.07" width="65.06" height="37.93" fill="#F28E2B" opacity="0.85"/>
<polyline fill="none" stroke="#E15759" stroke-width="3" points="194.00,130.00 402.00,139.20 610.00,138.51 818.00,152.38 1026.00,161.34"/>
<circle cx="194.00" cy="130.00" r="4" fill="#E15759"/>
<circle cx="402.00" cy="139.20" r="4" fill="#E15759"/>
<circle cx="610.00" cy="138.51" r="4" fill="#E15759"/>
<circle cx="818.00" cy="152.38" r="4" fill="#E15759"/>
<circle cx="1026.00" cy="161.34" r="4" fill="#E15759"/>
<polyline fill="none" stroke="#76B7B2" stroke-width="3" points="194.00,621.42 402.00,620.27 610.00,621.42 818.00,621.49 1026.00,620.73"/>
<circle cx="194.00" cy="621.42" r="4" fill="#76B7B2"/>
<circle cx="402.00" cy="620.27" r="4" fill="#76B7B2"/>
<circle cx="610.00" cy="621.42" r="4" fill="#76B7B2"/>
<circle cx="818.00" cy="621.49" r="4" fill="#76B7B2"/>
<circle cx="1026.00" cy="620.73" r="4" fill="#76B7B2"/>
<polyline fill="none" stroke="#59A14F" stroke-width="3" points="194.00,623.03 402.00,622.03 610.00,622.87 818.00,622.87 1026.00,622.11"/>
<circle cx="194.00" cy="623.03" r="4" fill="#59A14F"/>
<circle cx="402.00" cy="622.03" r="4" fill="#59A14F"/>
<circle cx="610.00" cy="622.87" r="4" fill="#59A14F"/>
<circle cx="818.00" cy="622.87" r="4" fill="#59A14F"/>
<circle cx="1026.00" cy="622.11" r="4" fill="#59A14F"/>
</svg>