<svg xmlns="http://www.w3.org/2000/svg" width="1200" height="720" viewBox="0 0 1200 720">
<rect x="0" y="0" width="100%" height="100%" fill="#ffffff"/>
<text x="40" y="42" font-size="26" font-family="Arial, PingFang SC, Microsoft YaHei, sans-serif" fill="#222">分产品利润结构图</text>
<rect x="40" y="60" width="22" height="10" fill="#4E79A7"/>
<text x="68" y="70" font-size="16" font-family="Arial, PingFang SC, Microsoft YaHei, sans-serif" fill="#333">利润</text>
<rect x="210" y="60" width="22" height="10" fill="#F28E2B"/>
<text x="238" y="70" font-size="16" font-family="Arial, PingFang SC, Microsoft YaHei, sans-serif" fill="#333">毛利率</text>
<line x1="90" y1="130" x2="90" y2="630" stroke="#555" stroke-width="1"/>
<line x1="90" y1="623.9789801897696" x2="1130" y2="623.9789801897696" stroke="#555" stroke-width="1"/>
<line x1="90" y1="630.0" x2="1130" y2="630.0" stroke="#eee" stroke-width="1"/>
<text x="78" y="635.0" text-anchor="end" font-size="14" font-family="Arial, PingFang SC, Microsoft YaHei, sans-serif" fill="#666">-4.48</text>
<line x1="90" y1="530.0" x2="1130" y2="530.0" stroke="#eee" stroke-width="1"/>
<text x="78" y="535.0" text-anchor="end" font-size="14" font-family="Arial, PingFang SC, Microsoft YaHei, sans-serif" fill="#666">69.93</text>
<line x1="90" y1="430.0" x2="1130" y2="430.0" stroke="#eee" stroke-width="1"/>
<text x="78" y="435.0" text-anchor="end" font-size="14" font-family="Arial, PingFang SC, Microsoft YaHei, sans-serif" fill="#666">144.33</text>
<line x1="90" y1="329.99999999999994" x2="1130" y2="329.99999999999994" stroke="#eee" stroke-width="1"/>
<text x="78" y="334.99999999999994" text-anchor="end" font-size="14" font-family="Arial, PingFang SC, Microsoft YaHei, sans-serif" fill="#666">218.74</text>
<line x1="90" y1="230.0" x2="1130" y2="230.0" stroke="#eee" stroke-width="1"/>
<text x="78" y="235.0" text-anchor="end" font-size="14" font-family="Arial, PingFang SC, Microsoft YaHei, sans-serif" fill="#666">293.14</text>
<line x1="90" y1="130.0" x2="1130" y2="130.0" stroke="#eee" stroke-width="1"/>
<text x="78" y="135.0" text-anchor="end" font-size="14" font-family="Arial, PingFang SC, Microsoft YaHei, sans-serif" fill="#666">367.55</text>
<text x="155.0" y="658" text-anchor="middle" font-size="14" font-family="Arial, PingFang SC, Microsoft YaHei, sans-serif" fill="#666">石化行业</text>
<text x="285.0" y="658" text-anchor="middle" font-size="14" font-family="Arial, PingFang SC, Microsoft YaHei, sans-serif" fill="#666">化工</text>
<text x="415.0" y="658" text-anchor="middle" font-size="14" font-family="Arial, PingFang SC, Microsoft YaHei, sans-serif" fill="#666">炼油产品</text>
<text x="545.0" y="658" text-anchor="middle" font-size="14" font-family="Arial, PingFang SC, Microsoft YaHei, sans-serif" fill="#666">国外</text>
<text x="675.0" y="658" text-anchor="middle" font-size="14" font-family="Arial, PingFang SC, Microsoft YaHei, sans-serif" fill="#666">PTA</text>
<text x="805.0" y="658" text-anchor="middle" font-size="14" font-family="Arial, PingFang SC, Microsoft YaHei, sans-serif" fill="#666">其他主营业务</text>
<text x="935.0" y="658" text-anchor="middle" font-size="14" font-family="Arial, PingFang SC, Microsoft YaHei, sans-serif" fill="#666">贸易及其他(行业)</text>
<text x="1065.0" y="658" text-anchor="middle" font-size="14" font-family="Arial, PingFang SC, Microsoft YaHei, sans-serif" fill="#666">聚酯化纤行业</text>
<rect x="110.80" y="130.00" width="81.33" height="493.98" fill="#4E79A7" opacity="0.85"/>
<rect x="240.80" y="451.52" width="81.33" height="172.46" fill="#4E79A7" opacity="0.85"/>
<rect x="370.80" y="296.45" width="81.33" height="327.53" fill="#4E79A7" opacity="0.85"/>
<rect x="500.80" y="613.51" width="81.33" height="10.47" fill="#4E79A7" opacity="0.85"/>
<rect x="630.80" y="623.98" width="81.33" height="6.02" fill="#4E79A7" opacity="0.85"/>
<rect x="760.80" y="614.76" width="81.33" height="9.22" fill="#4E79A7" opacity="0.85"/>
<rect x="890.80" y="614.76" width="81.33" height="9.22" fill="#4E79A7" opacity="0.85"/>
<rect x="1020.80" y="620.51" width="81.33" height="3.47" fill="#4E79A7" opacity="0.85"/>
<polyline fill="none" stroke="#F28E2B" stroke-width="3" points="155.00,604.64 285.00,609.26 415.00,593.18 545.00,621.96 675.00,625.86 805.00,620.87 935.00,620.87 1065.00,622.50"/>
<circle cx="155.00" cy="604.64" r="4" fill="#F28E2B"/>
<circle cx="285.00" cy="609.26" r="4" fill="#F28E2B"/>
<circle cx="415.00" cy="593.18" r="4" fill="#F28E2B"/>
<circle cx="545.00" cy="621.96" r="4" fill="#F28E2B"/>
<circle cx="675.00" cy="625.86" r="4" fill="#F28E2B"/>
<circle cx="805.00" cy="620.87" r="4" fill="#F28E2B"/>
<circle cx="935.00" cy="620.87" r="4" fill="#F28E2B"/>
<circle cx="1065.00" cy="622.50" r="4" fill="#F28E2B"/>
</svg>