<svg xmlns="http://www.w3.org/2000/svg" width="1200" height="720" viewBox="0 0 1200 720">
<rect x="0" y="0" width="100%" height="100%" fill="#ffffff"/>
<text x="40" y="42" font-size="26" font-family="Arial, PingFang SC, Microsoft YaHei, sans-serif" fill="#222">财务比率分析图</text>
<rect x="40" y="60" width="22" height="10" fill="#4E79A7"/>
<text x="68" y="70" font-size="16" font-family="Arial, PingFang SC, Microsoft YaHei, sans-serif" fill="#333">资产负债率</text>
<rect x="210" y="60" width="22" height="10" fill="#F28E2B"/>
<text x="238" y="70" font-size="16" font-family="Arial, PingFang SC, Microsoft YaHei, sans-serif" fill="#333">流动比率</text>
<rect x="380" y="60" width="22" height="10" fill="#E15759"/>
<text x="408" y="70" font-size="16" font-family="Arial, PingFang SC, Microsoft YaHei, sans-serif" fill="#333">速动比率</text>
<rect x="550" y="60" width="22" height="10" fill="#76B7B2"/>
<text x="578" y="70" font-size="16" font-family="Arial, PingFang SC, Microsoft YaHei, sans-serif" fill="#333">应收周转率</text>
<rect x="720" y="60" width="22" height="10" fill="#59A14F"/>
<text x="748" y="70" font-size="16" font-family="Arial, PingFang SC, Microsoft YaHei, sans-serif" fill="#333">存货周转率</text>
<line x1="90" y1="130" x2="90" y2="630" stroke="#555" stroke-width="1"/>
<line x1="90" y1="630.0" x2="1130" y2="630.0" stroke="#555" stroke-width="1"/>
<line x1="90" y1="630.0" x2="1130" y2="630.0" stroke="#eee" stroke-width="1"/>
<text x="78" y="635.0" text-anchor="end" font-size="14" font-family="Arial, PingFang SC, Microsoft YaHei, sans-serif" fill="#666">0.00</text>
<line x1="90" y1="530.0" x2="1130" y2="530.0" stroke="#eee" stroke-width="1"/>
<text x="78" y="535.0" text-anchor="end" font-size="14" font-family="Arial, PingFang SC, Microsoft YaHei, sans-serif" fill="#666">14.98</text>
<line x1="90" y1="430.0" x2="1130" y2="430.0" stroke="#eee" stroke-width="1"/>
<text x="78" y="435.0" text-anchor="end" font-size="14" font-family="Arial, PingFang SC, Microsoft YaHei, sans-serif" fill="#666">29.96</text>
<line x1="90" y1="330.0" x2="1130" y2="330.0" stroke="#eee" stroke-width="1"/>
<text x="78" y="335.0" text-anchor="end" font-size="14" font-family="Arial, PingFang SC, Microsoft YaHei, sans-serif" fill="#666">44.95</text>
<line x1="90" y1="230.0" x2="1130" y2="230.0" stroke="#eee" stroke-width="1"/>
<text x="78" y="235.0" text-anchor="end" font-size="14" font-family="Arial, PingFang SC, Microsoft YaHei, sans-serif" fill="#666">59.93</text>
<line x1="90" y1="130.0" x2="1130" y2="130.0" stroke="#eee" stroke-width="1"/>
<text x="78" y="135.0" text-anchor="end" font-size="14" font-family="Arial, PingFang SC, Microsoft YaHei, sans-serif" fill="#666">74.91</text>
<text x="194.0" y="658" text-anchor="middle" font-size="14" font-family="Arial, PingFang SC, Microsoft YaHei, sans-serif" fill="#666">2021</text>
<text x="402.0" y="658" text-anchor="middle" font-size="14" font-family="Arial, PingFang SC, Microsoft YaHei, sans-serif" fill="#666">2022</text>
<text x="610.0" y="658" text-anchor="middle" font-size="14" font-family="Arial, PingFang SC, Microsoft YaHei, sans-serif" fill="#666">2023</text>
<text x="818.0" y="658" text-anchor="middle" font-size="14" font-family="Arial, PingFang SC, Microsoft YaHei, sans-serif" fill="#666">2024</text>
<text x="1026.0" y="658" text-anchor="middle" font-size="14" font-family="Arial, PingFang SC, Microsoft YaHei, sans-serif" fill="#666">2025</text>
<rect x="123.28" y="280.45" width="65.06" height="349.55" fill="#4E79A7" opacity="0.85"/>
<rect x="331.28" y="322.23" width="65.06" height="307.77" fill="#4E79A7" opacity="0.85"/>
<rect x="539.28" y="264.23" width="65.06" height="365.77" fill="#4E79A7" opacity="0.85"/>
<rect x="747.28" y="253.01" width="65.06" height="376.99" fill="#4E79A7" opacity="0.85"/>
<rect x="955.28" y="217.64" width="65.06" height="412.36" fill="#4E79A7" opacity="0.85"/>
<rect x="194.00" y="605.44" width="65.06" height="24.56" fill="#F28E2B" opacity="0.85"/>
<rect x="402.00" y="598.10" width="65.06" height="31.90" fill="#F28E2B" opacity="0.85"/>
<rect x="610.00" y="598.63" width="65.06" height="31.37" fill="#F28E2B" opacity="0.85"/>
<rect x="818.00" y="593.69" width="65.06" height="36.31" fill="#F28E2B" opacity="0.85"/>
<rect x="1026.00" y="583.74" width="65.06" height="46.26" fill="#F28E2B" opacity="0.85"/>
<polyline fill="none" stroke="#E15759" stroke-width="3" points="194.00,151.09 402.00,141.41 610.00,131.07 818.00,130.07 1026.00,130.00"/>
<circle cx="194.00" cy="151.09" r="4" fill="#E15759"/>
<circle cx="402.00" cy="141.41" r="4" fill="#E15759"/>
<circle cx="610.00" cy="131.07" r="4" fill="#E15759"/>
<circle cx="818.00" cy="130.07" r="4" fill="#E15759"/>
<circle cx="1026.00" cy="130.00" r="4" fill="#E15759"/>
<polyline fill="none" stroke="#76B7B2" stroke-width="3" points="194.00,625.33 402.00,625.06 610.00,626.00 818.00,626.80 1026.00,627.40"/>
<circle cx="194.00" cy="625.33" r="4" fill="#76B7B2"/>
<circle cx="402.00" cy="625.06" r="4" fill="#76B7B2"/>
<circle cx="610.00" cy="626.00" r="4" fill="#76B7B2"/>
<circle cx="818.00" cy="626.80" r="4" fill="#76B7B2"/>
<circle cx="1026.00" cy="627.40" r="4" fill="#76B7B2"/>
<polyline fill="none" stroke="#59A14F" stroke-width="3" points="194.00,627.80 402.00,628.20 610.00,628.73 818.00,628.60 1026.00,628.73"/>
<circle cx="194.00" cy="627.80" r="4" fill="#59A14F"/>
<circle cx="402.00" cy="628.20" r="4" fill="#59A14F"/>
<circle cx="610.00" cy="628.73" r="4" fill="#59A14F"/>
<circle cx="818.00" cy="628.60" r="4" fill="#59A14F"/>
<circle cx="1026.00" cy="628.73" r="4" fill="#59A14F"/>
</svg>