<svg xmlns="http://www.w3.org/2000/svg" width="1200" height="720" viewBox="0 0 1200 720">
<rect x="0" y="0" width="100%" height="100%" fill="#ffffff"/>
<text x="40" y="42" font-size="26" font-family="Arial, PingFang SC, Microsoft YaHei, sans-serif" fill="#222">财务比率分析图</text>
<rect x="40" y="60" width="22" height="10" fill="#4E79A7"/>
<text x="68" y="70" font-size="16" font-family="Arial, PingFang SC, Microsoft YaHei, sans-serif" fill="#333">资产负债率</text>
<rect x="210" y="60" width="22" height="10" fill="#F28E2B"/>
<text x="238" y="70" font-size="16" font-family="Arial, PingFang SC, Microsoft YaHei, sans-serif" fill="#333">流动比率</text>
<rect x="380" y="60" width="22" height="10" fill="#E15759"/>
<text x="408" y="70" font-size="16" font-family="Arial, PingFang SC, Microsoft YaHei, sans-serif" fill="#333">速动比率</text>
<rect x="550" y="60" width="22" height="10" fill="#76B7B2"/>
<text x="578" y="70" font-size="16" font-family="Arial, PingFang SC, Microsoft YaHei, sans-serif" fill="#333">应收周转率</text>
<rect x="720" y="60" width="22" height="10" fill="#59A14F"/>
<text x="748" y="70" font-size="16" font-family="Arial, PingFang SC, Microsoft YaHei, sans-serif" fill="#333">存货周转率</text>
<line x1="90" y1="130" x2="90" y2="630" stroke="#555" stroke-width="1"/>
<line x1="90" y1="630.0" x2="1130" y2="630.0" stroke="#555" stroke-width="1"/>
<line x1="90" y1="630.0" x2="1130" y2="630.0" stroke="#eee" stroke-width="1"/>
<text x="78" y="635.0" text-anchor="end" font-size="14" font-family="Arial, PingFang SC, Microsoft YaHei, sans-serif" fill="#666">0.00</text>
<line x1="90" y1="530.0" x2="1130" y2="530.0" stroke="#eee" stroke-width="1"/>
<text x="78" y="535.0" text-anchor="end" font-size="14" font-family="Arial, PingFang SC, Microsoft YaHei, sans-serif" fill="#666">15.18</text>
<line x1="90" y1="430.0" x2="1130" y2="430.0" stroke="#eee" stroke-width="1"/>
<text x="78" y="435.0" text-anchor="end" font-size="14" font-family="Arial, PingFang SC, Microsoft YaHei, sans-serif" fill="#666">30.36</text>
<line x1="90" y1="329.99999999999994" x2="1130" y2="329.99999999999994" stroke="#eee" stroke-width="1"/>
<text x="78" y="334.99999999999994" text-anchor="end" font-size="14" font-family="Arial, PingFang SC, Microsoft YaHei, sans-serif" fill="#666">45.53</text>
<line x1="90" y1="229.99999999999997" x2="1130" y2="229.99999999999997" stroke="#eee" stroke-width="1"/>
<text x="78" y="234.99999999999997" text-anchor="end" font-size="14" font-family="Arial, PingFang SC, Microsoft YaHei, sans-serif" fill="#666">60.71</text>
<line x1="90" y1="130.0" x2="1130" y2="130.0" stroke="#eee" stroke-width="1"/>
<text x="78" y="135.0" text-anchor="end" font-size="14" font-family="Arial, PingFang SC, Microsoft YaHei, sans-serif" fill="#666">75.89</text>
<text x="194.0" y="658" text-anchor="middle" font-size="14" font-family="Arial, PingFang SC, Microsoft YaHei, sans-serif" fill="#666">2021</text>
<text x="402.0" y="658" text-anchor="middle" font-size="14" font-family="Arial, PingFang SC, Microsoft YaHei, sans-serif" fill="#666">2022</text>
<text x="610.0" y="658" text-anchor="middle" font-size="14" font-family="Arial, PingFang SC, Microsoft YaHei, sans-serif" fill="#666">2023</text>
<text x="818.0" y="658" text-anchor="middle" font-size="14" font-family="Arial, PingFang SC, Microsoft YaHei, sans-serif" fill="#666">2024</text>
<text x="1026.0" y="658" text-anchor="middle" font-size="14" font-family="Arial, PingFang SC, Microsoft YaHei, sans-serif" fill="#666">2025</text>
<rect x="123.28" y="592.91" width="65.06" height="37.09" fill="#4E79A7" opacity="0.85"/>
<rect x="331.28" y="595.15" width="65.06" height="34.85" fill="#4E79A7" opacity="0.85"/>
<rect x="539.28" y="606.15" width="65.06" height="23.85" fill="#4E79A7" opacity="0.85"/>
<rect x="747.28" y="610.63" width="65.06" height="19.37" fill="#4E79A7" opacity="0.85"/>
<rect x="955.28" y="612.34" width="65.06" height="17.66" fill="#4E79A7" opacity="0.85"/>
<rect x="194.00" y="592.45" width="65.06" height="37.55" fill="#F28E2B" opacity="0.85"/>
<rect x="402.00" y="587.57" width="65.06" height="42.43" fill="#F28E2B" opacity="0.85"/>
<rect x="610.00" y="591.00" width="65.06" height="39.00" fill="#F28E2B" opacity="0.85"/>
<rect x="818.00" y="586.98" width="65.06" height="43.02" fill="#F28E2B" opacity="0.85"/>
<rect x="1026.00" y="582.37" width="65.06" height="47.63" fill="#F28E2B" opacity="0.85"/>
<polyline fill="none" stroke="#E15759" stroke-width="3" points="194.00,204.38 402.00,172.89 610.00,130.00 818.00,143.77 1026.00,195.88"/>
<circle cx="194.00" cy="204.38" r="4" fill="#E15759"/>
<circle cx="402.00" cy="172.89" r="4" fill="#E15759"/>
<circle cx="610.00" cy="130.00" r="4" fill="#E15759"/>
<circle cx="818.00" cy="143.77" r="4" fill="#E15759"/>
<circle cx="1026.00" cy="195.88" r="4" fill="#E15759"/>
<polyline fill="none" stroke="#76B7B2" stroke-width="3" points="194.00,623.08 402.00,623.15 610.00,622.75 818.00,622.69 1026.00,622.49"/>
<circle cx="194.00" cy="623.08" r="4" fill="#76B7B2"/>
<circle cx="402.00" cy="623.15" r="4" fill="#76B7B2"/>
<circle cx="610.00" cy="622.75" r="4" fill="#76B7B2"/>
<circle cx="818.00" cy="622.69" r="4" fill="#76B7B2"/>
<circle cx="1026.00" cy="622.49" r="4" fill="#76B7B2"/>
<polyline fill="none" stroke="#59A14F" stroke-width="3" points="194.00,624.73 402.00,624.53 610.00,623.68 818.00,623.81 1026.00,623.74"/>
<circle cx="194.00" cy="624.73" r="4" fill="#59A14F"/>
<circle cx="402.00" cy="624.53" r="4" fill="#59A14F"/>
<circle cx="610.00" cy="623.68" r="4" fill="#59A14F"/>
<circle cx="818.00" cy="623.81" r="4" fill="#59A14F"/>
<circle cx="1026.00" cy="623.74" r="4" fill="#59A14F"/>
</svg>