<svg xmlns="http://www.w3.org/2000/svg" width="1200" height="720" viewBox="0 0 1200 720">
<rect x="0" y="0" width="100%" height="100%" fill="#ffffff"/>
<text x="40" y="42" font-size="26" font-family="Arial, PingFang SC, Microsoft YaHei, sans-serif" fill="#222">分产品收入变化图</text>
<rect x="40" y="60" width="22" height="10" fill="#4E79A7"/>
<text x="68" y="70" font-size="16" font-family="Arial, PingFang SC, Microsoft YaHei, sans-serif" fill="#333">医疗器械行业</text>
<rect x="210" y="60" width="22" height="10" fill="#F28E2B"/>
<text x="238" y="70" font-size="16" font-family="Arial, PingFang SC, Microsoft YaHei, sans-serif" fill="#333">体外诊断类产品</text>
<rect x="380" y="60" width="22" height="10" fill="#E15759"/>
<text x="408" y="70" font-size="16" font-family="Arial, PingFang SC, Microsoft YaHei, sans-serif" fill="#333">生命信息与支持类产品</text>
<rect x="550" y="60" width="22" height="10" fill="#76B7B2"/>
<text x="578" y="70" font-size="16" font-family="Arial, PingFang SC, Microsoft YaHei, sans-serif" fill="#333">医学影像类产品</text>
<rect x="720" y="60" width="22" height="10" fill="#59A14F"/>
<text x="748" y="70" font-size="16" font-family="Arial, PingFang SC, Microsoft YaHei, sans-serif" fill="#333">新兴业务</text>
<line x1="90" y1="130" x2="90" y2="630" stroke="#555" stroke-width="1"/>
<line x1="90" y1="630.0" x2="1130" y2="630.0" stroke="#555" stroke-width="1"/>
<line x1="90" y1="630.0" x2="1130" y2="630.0" stroke="#eee" stroke-width="1"/>
<text x="78" y="635.0" text-anchor="end" font-size="14" font-family="Arial, PingFang SC, Microsoft YaHei, sans-serif" fill="#666">0.00</text>
<line x1="90" y1="530.0" x2="1130" y2="530.0" stroke="#eee" stroke-width="1"/>
<text x="78" y="535.0" text-anchor="end" font-size="14" font-family="Arial, PingFang SC, Microsoft YaHei, sans-serif" fill="#666">73.25</text>
<line x1="90" y1="430.0" x2="1130" y2="430.0" stroke="#eee" stroke-width="1"/>
<text x="78" y="435.0" text-anchor="end" font-size="14" font-family="Arial, PingFang SC, Microsoft YaHei, sans-serif" fill="#666">146.50</text>
<line x1="90" y1="330.0" x2="1130" y2="330.0" stroke="#eee" stroke-width="1"/>
<text x="78" y="335.0" text-anchor="end" font-size="14" font-family="Arial, PingFang SC, Microsoft YaHei, sans-serif" fill="#666">219.74</text>
<line x1="90" y1="229.99999999999997" x2="1130" y2="229.99999999999997" stroke="#eee" stroke-width="1"/>
<text x="78" y="234.99999999999997" text-anchor="end" font-size="14" font-family="Arial, PingFang SC, Microsoft YaHei, sans-serif" fill="#666">292.99</text>
<line x1="90" y1="130.0" x2="1130" y2="130.0" stroke="#eee" stroke-width="1"/>
<text x="78" y="135.0" text-anchor="end" font-size="14" font-family="Arial, PingFang SC, Microsoft YaHei, sans-serif" fill="#666">366.24</text>
<text x="194.0" y="658" text-anchor="middle" font-size="14" font-family="Arial, PingFang SC, Microsoft YaHei, sans-serif" fill="#666">2021</text>
<text x="402.0" y="658" text-anchor="middle" font-size="14" font-family="Arial, PingFang SC, Microsoft YaHei, sans-serif" fill="#666">2022</text>
<text x="610.0" y="658" text-anchor="middle" font-size="14" font-family="Arial, PingFang SC, Microsoft YaHei, sans-serif" fill="#666">2023</text>
<text x="818.0" y="658" text-anchor="middle" font-size="14" font-family="Arial, PingFang SC, Microsoft YaHei, sans-serif" fill="#666">2024</text>
<text x="1026.0" y="658" text-anchor="middle" font-size="14" font-family="Arial, PingFang SC, Microsoft YaHei, sans-serif" fill="#666">2025</text>
<rect x="123.28" y="285.17" width="26.02" height="344.83" fill="#4E79A7" opacity="0.85"/>
<rect x="331.28" y="215.60" width="26.02" height="414.40" fill="#4E79A7" opacity="0.85"/>
<rect x="539.28" y="153.88" width="26.02" height="476.12" fill="#4E79A7" opacity="0.85"/>
<rect x="747.28" y="130.00" width="26.02" height="500.00" fill="#4E79A7" opacity="0.85"/>
<rect x="955.28" y="177.13" width="26.02" height="452.87" fill="#4E79A7" opacity="0.85"/>
<rect x="151.57" y="460.58" width="26.02" height="169.42" fill="#F28E2B" opacity="0.85"/>
<rect x="359.57" y="419.78" width="26.02" height="210.22" fill="#F28E2B" opacity="0.85"/>
<rect x="567.57" y="378.85" width="26.02" height="251.15" fill="#F28E2B" opacity="0.85"/>
<rect x="775.57" y="337.53" width="26.02" height="292.47" fill="#F28E2B" opacity="0.85"/>
<rect x="983.57" y="375.19" width="26.02" height="254.81" fill="#F28E2B" opacity="0.85"/>
<rect x="179.86" y="395.54" width="26.02" height="234.46" fill="#E15759" opacity="0.85"/>
<rect x="387.86" y="354.59" width="26.02" height="275.41" fill="#E15759" opacity="0.85"/>
<rect x="595.86" y="303.45" width="26.02" height="326.55" fill="#E15759" opacity="0.85"/>
<rect x="803.86" y="335.56" width="26.02" height="294.44" fill="#E15759" opacity="0.85"/>
<rect x="1011.86" y="420.90" width="26.02" height="209.10" fill="#E15759" opacity="0.85"/>
<rect x="208.14" y="519.47" width="26.02" height="110.53" fill="#76B7B2" opacity="0.85"/>
<rect x="416.14" y="497.19" width="26.02" height="132.81" fill="#76B7B2" opacity="0.85"/>
<rect x="624.14" y="483.44" width="26.02" height="146.56" fill="#76B7B2" opacity="0.85"/>
<rect x="832.14" y="469.29" width="26.02" height="160.71" fill="#76B7B2" opacity="0.85"/>
<rect x="1040.14" y="506.73" width="26.02" height="123.27" fill="#76B7B2" opacity="0.85"/>
<rect x="236.43" y="630.00" width="26.02" height="0.00" fill="#59A14F" opacity="0.85"/>
<rect x="444.43" y="630.00" width="26.02" height="0.00" fill="#59A14F" opacity="0.85"/>
<rect x="652.43" y="630.00" width="26.02" height="0.00" fill="#59A14F" opacity="0.85"/>
<rect x="860.43" y="630.00" width="26.02" height="0.00" fill="#59A14F" opacity="0.85"/>
<rect x="1068.43" y="556.58" width="26.02" height="73.42" fill="#59A14F" opacity="0.85"/>
</svg>