<svg xmlns="http://www.w3.org/2000/svg" width="1200" height="720" viewBox="0 0 1200 720">
<rect x="0" y="0" width="100%" height="100%" fill="#ffffff"/>
<text x="40" y="42" font-size="26" font-family="Arial, PingFang SC, Microsoft YaHei, sans-serif" fill="#222">财务比率分析图</text>
<rect x="40" y="60" width="22" height="10" fill="#4E79A7"/>
<text x="68" y="70" font-size="16" font-family="Arial, PingFang SC, Microsoft YaHei, sans-serif" fill="#333">资产负债率</text>
<rect x="210" y="60" width="22" height="10" fill="#F28E2B"/>
<text x="238" y="70" font-size="16" font-family="Arial, PingFang SC, Microsoft YaHei, sans-serif" fill="#333">流动比率</text>
<rect x="380" y="60" width="22" height="10" fill="#E15759"/>
<text x="408" y="70" font-size="16" font-family="Arial, PingFang SC, Microsoft YaHei, sans-serif" fill="#333">速动比率</text>
<rect x="550" y="60" width="22" height="10" fill="#76B7B2"/>
<text x="578" y="70" font-size="16" font-family="Arial, PingFang SC, Microsoft YaHei, sans-serif" fill="#333">应收周转率</text>
<rect x="720" y="60" width="22" height="10" fill="#59A14F"/>
<text x="748" y="70" font-size="16" font-family="Arial, PingFang SC, Microsoft YaHei, sans-serif" fill="#333">存货周转率</text>
<line x1="90" y1="130" x2="90" y2="630" stroke="#555" stroke-width="1"/>
<line x1="90" y1="630.0" x2="1130" y2="630.0" stroke="#555" stroke-width="1"/>
<line x1="90" y1="630.0" x2="1130" y2="630.0" stroke="#eee" stroke-width="1"/>
<text x="78" y="635.0" text-anchor="end" font-size="14" font-family="Arial, PingFang SC, Microsoft YaHei, sans-serif" fill="#666">0.00</text>
<line x1="90" y1="530.0" x2="1130" y2="530.0" stroke="#eee" stroke-width="1"/>
<text x="78" y="535.0" text-anchor="end" font-size="14" font-family="Arial, PingFang SC, Microsoft YaHei, sans-serif" fill="#666">7.47</text>
<line x1="90" y1="430.00000000000006" x2="1130" y2="430.00000000000006" stroke="#eee" stroke-width="1"/>
<text x="78" y="435.00000000000006" text-anchor="end" font-size="14" font-family="Arial, PingFang SC, Microsoft YaHei, sans-serif" fill="#666">14.94</text>
<line x1="90" y1="330.0" x2="1130" y2="330.0" stroke="#eee" stroke-width="1"/>
<text x="78" y="335.0" text-anchor="end" font-size="14" font-family="Arial, PingFang SC, Microsoft YaHei, sans-serif" fill="#666">22.40</text>
<line x1="90" y1="230.0" x2="1130" y2="230.0" stroke="#eee" stroke-width="1"/>
<text x="78" y="235.0" text-anchor="end" font-size="14" font-family="Arial, PingFang SC, Microsoft YaHei, sans-serif" fill="#666">29.87</text>
<line x1="90" y1="130.0" x2="1130" y2="130.0" stroke="#eee" stroke-width="1"/>
<text x="78" y="135.0" text-anchor="end" font-size="14" font-family="Arial, PingFang SC, Microsoft YaHei, sans-serif" fill="#666">37.34</text>
<text x="263.33333333333337" y="658" text-anchor="middle" font-size="14" font-family="Arial, PingFang SC, Microsoft YaHei, sans-serif" fill="#666">2023</text>
<text x="610.0" y="658" text-anchor="middle" font-size="14" font-family="Arial, PingFang SC, Microsoft YaHei, sans-serif" fill="#666">2024</text>
<text x="956.6666666666667" y="658" text-anchor="middle" font-size="14" font-family="Arial, PingFang SC, Microsoft YaHei, sans-serif" fill="#666">2025</text>
<rect x="145.47" y="567.73" width="108.44" height="62.27" fill="#4E79A7" opacity="0.85"/>
<rect x="492.13" y="569.61" width="108.44" height="60.39" fill="#4E79A7" opacity="0.85"/>
<rect x="838.80" y="555.82" width="108.44" height="74.18" fill="#4E79A7" opacity="0.85"/>
<rect x="263.33" y="568.81" width="108.44" height="61.19" fill="#F28E2B" opacity="0.85"/>
<rect x="610.00" y="578.71" width="108.44" height="51.29" fill="#F28E2B" opacity="0.85"/>
<rect x="956.67" y="583.27" width="108.44" height="46.73" fill="#F28E2B" opacity="0.85"/>
<polyline fill="none" stroke="#E15759" stroke-width="3" points="263.33,130.00 610.00,186.11 956.67,145.67"/>
<circle cx="263.33" cy="130.00" r="4" fill="#E15759"/>
<circle cx="610.00" cy="186.11" r="4" fill="#E15759"/>
<circle cx="956.67" cy="145.67" r="4" fill="#E15759"/>
<polyline fill="none" stroke="#76B7B2" stroke-width="3" points="263.33,604.42 610.00,580.32 956.67,599.34"/>
<circle cx="263.33" cy="604.42" r="4" fill="#76B7B2"/>
<circle cx="610.00" cy="580.32" r="4" fill="#76B7B2"/>
<circle cx="956.67" cy="599.34" r="4" fill="#76B7B2"/>
<polyline fill="none" stroke="#59A14F" stroke-width="3" points="263.33,607.77 610.00,586.08 956.67,603.89"/>
<circle cx="263.33" cy="607.77" r="4" fill="#59A14F"/>
<circle cx="610.00" cy="586.08" r="4" fill="#59A14F"/>
<circle cx="956.67" cy="603.89" r="4" fill="#59A14F"/>
</svg>