<svg xmlns="http://www.w3.org/2000/svg" width="1200" height="720" viewBox="0 0 1200 720">
<rect x="0" y="0" width="100%" height="100%" fill="#ffffff"/>
<text x="40" y="42" font-size="26" font-family="Arial, PingFang SC, Microsoft YaHei, sans-serif" fill="#222">财务比率分析图</text>
<rect x="40" y="60" width="22" height="10" fill="#4E79A7"/>
<text x="68" y="70" font-size="16" font-family="Arial, PingFang SC, Microsoft YaHei, sans-serif" fill="#333">资产负债率</text>
<rect x="210" y="60" width="22" height="10" fill="#F28E2B"/>
<text x="238" y="70" font-size="16" font-family="Arial, PingFang SC, Microsoft YaHei, sans-serif" fill="#333">流动比率</text>
<rect x="380" y="60" width="22" height="10" fill="#E15759"/>
<text x="408" y="70" font-size="16" font-family="Arial, PingFang SC, Microsoft YaHei, sans-serif" fill="#333">速动比率</text>
<rect x="550" y="60" width="22" height="10" fill="#76B7B2"/>
<text x="578" y="70" font-size="16" font-family="Arial, PingFang SC, Microsoft YaHei, sans-serif" fill="#333">应收周转率</text>
<rect x="720" y="60" width="22" height="10" fill="#59A14F"/>
<text x="748" y="70" font-size="16" font-family="Arial, PingFang SC, Microsoft YaHei, sans-serif" fill="#333">存货周转率</text>
<line x1="90" y1="130" x2="90" y2="630" stroke="#555" stroke-width="1"/>
<line x1="90" y1="630.0" x2="1130" y2="630.0" stroke="#555" stroke-width="1"/>
<line x1="90" y1="630.0" x2="1130" y2="630.0" stroke="#eee" stroke-width="1"/>
<text x="78" y="635.0" text-anchor="end" font-size="14" font-family="Arial, PingFang SC, Microsoft YaHei, sans-serif" fill="#666">0.00</text>
<line x1="90" y1="530.0" x2="1130" y2="530.0" stroke="#eee" stroke-width="1"/>
<text x="78" y="535.0" text-anchor="end" font-size="14" font-family="Arial, PingFang SC, Microsoft YaHei, sans-serif" fill="#666">14.92</text>
<line x1="90" y1="430.0" x2="1130" y2="430.0" stroke="#eee" stroke-width="1"/>
<text x="78" y="435.0" text-anchor="end" font-size="14" font-family="Arial, PingFang SC, Microsoft YaHei, sans-serif" fill="#666">29.84</text>
<line x1="90" y1="330.0" x2="1130" y2="330.0" stroke="#eee" stroke-width="1"/>
<text x="78" y="335.0" text-anchor="end" font-size="14" font-family="Arial, PingFang SC, Microsoft YaHei, sans-serif" fill="#666">44.76</text>
<line x1="90" y1="230.0" x2="1130" y2="230.0" stroke="#eee" stroke-width="1"/>
<text x="78" y="235.0" text-anchor="end" font-size="14" font-family="Arial, PingFang SC, Microsoft YaHei, sans-serif" fill="#666">59.68</text>
<line x1="90" y1="130.0" x2="1130" y2="130.0" stroke="#eee" stroke-width="1"/>
<text x="78" y="135.0" text-anchor="end" font-size="14" font-family="Arial, PingFang SC, Microsoft YaHei, sans-serif" fill="#666">74.60</text>
<text x="194.0" y="658" text-anchor="middle" font-size="14" font-family="Arial, PingFang SC, Microsoft YaHei, sans-serif" fill="#666">2021</text>
<text x="402.0" y="658" text-anchor="middle" font-size="14" font-family="Arial, PingFang SC, Microsoft YaHei, sans-serif" fill="#666">2022</text>
<text x="610.0" y="658" text-anchor="middle" font-size="14" font-family="Arial, PingFang SC, Microsoft YaHei, sans-serif" fill="#666">2023</text>
<text x="818.0" y="658" text-anchor="middle" font-size="14" font-family="Arial, PingFang SC, Microsoft YaHei, sans-serif" fill="#666">2024</text>
<text x="1026.0" y="658" text-anchor="middle" font-size="14" font-family="Arial, PingFang SC, Microsoft YaHei, sans-serif" fill="#666">2025</text>
<rect x="123.28" y="574.64" width="65.06" height="55.36" fill="#4E79A7" opacity="0.85"/>
<rect x="331.28" y="578.73" width="65.06" height="51.27" fill="#4E79A7" opacity="0.85"/>
<rect x="539.28" y="587.17" width="65.06" height="42.83" fill="#4E79A7" opacity="0.85"/>
<rect x="747.28" y="588.18" width="65.06" height="41.82" fill="#4E79A7" opacity="0.85"/>
<rect x="955.28" y="595.48" width="65.06" height="34.52" fill="#4E79A7" opacity="0.85"/>
<rect x="194.00" y="603.19" width="65.06" height="26.81" fill="#F28E2B" opacity="0.85"/>
<rect x="402.00" y="608.02" width="65.06" height="21.98" fill="#F28E2B" opacity="0.85"/>
<rect x="610.00" y="612.57" width="65.06" height="17.43" fill="#F28E2B" opacity="0.85"/>
<rect x="818.00" y="611.70" width="65.06" height="18.30" fill="#F28E2B" opacity="0.85"/>
<rect x="1026.00" y="616.13" width="65.06" height="13.87" fill="#F28E2B" opacity="0.85"/>
<polyline fill="none" stroke="#E15759" stroke-width="3" points="194.00,242.33 402.00,232.75 610.00,130.00 818.00,143.34 1026.00,323.63"/>
<circle cx="194.00" cy="242.33" r="4" fill="#E15759"/>
<circle cx="402.00" cy="232.75" r="4" fill="#E15759"/>
<circle cx="610.00" cy="130.00" r="4" fill="#E15759"/>
<circle cx="818.00" cy="143.34" r="4" fill="#E15759"/>
<circle cx="1026.00" cy="323.63" r="4" fill="#E15759"/>
<polyline fill="none" stroke="#76B7B2" stroke-width="3" points="194.00,620.21 402.00,619.75 610.00,618.61 818.00,620.55 1026.00,612.44"/>
<circle cx="194.00" cy="620.21" r="4" fill="#76B7B2"/>
<circle cx="402.00" cy="619.75" r="4" fill="#76B7B2"/>
<circle cx="610.00" cy="618.61" r="4" fill="#76B7B2"/>
<circle cx="818.00" cy="620.55" r="4" fill="#76B7B2"/>
<circle cx="1026.00" cy="612.44" r="4" fill="#76B7B2"/>
<polyline fill="none" stroke="#59A14F" stroke-width="3" points="194.00,622.29 402.00,622.83 610.00,621.96 818.00,623.77 1026.00,619.48"/>
<circle cx="194.00" cy="622.29" r="4" fill="#59A14F"/>
<circle cx="402.00" cy="622.83" r="4" fill="#59A14F"/>
<circle cx="610.00" cy="621.96" r="4" fill="#59A14F"/>
<circle cx="818.00" cy="623.77" r="4" fill="#59A14F"/>
<circle cx="1026.00" cy="619.48" r="4" fill="#59A14F"/>
</svg>