<svg xmlns="http://www.w3.org/2000/svg" width="1200" height="720" viewBox="0 0 1200 720">
<rect x="0" y="0" width="100%" height="100%" fill="#ffffff"/>
<text x="40" y="42" font-size="26" font-family="Arial, PingFang SC, Microsoft YaHei, sans-serif" fill="#222">净利润趋势图</text>
<rect x="40" y="60" width="22" height="10" fill="#4E79A7"/>
<text x="68" y="70" font-size="16" font-family="Arial, PingFang SC, Microsoft YaHei, sans-serif" fill="#333">净利润</text>
<rect x="210" y="60" width="22" height="10" fill="#F28E2B"/>
<text x="238" y="70" font-size="16" font-family="Arial, PingFang SC, Microsoft YaHei, sans-serif" fill="#333">营业收入</text>
<line x1="90" y1="130" x2="90" y2="630" stroke="#555" stroke-width="1"/>
<line x1="90" y1="535.138036809816" x2="1130" y2="535.138036809816" stroke="#555" stroke-width="1"/>
<line x1="90" y1="630.0" x2="1130" y2="630.0" stroke="#eee" stroke-width="1"/>
<text x="78" y="635.0" text-anchor="end" font-size="14" font-family="Arial, PingFang SC, Microsoft YaHei, sans-serif" fill="#666">-61.85</text>
<line x1="90" y1="529.9999999999999" x2="1130" y2="529.9999999999999" stroke="#eee" stroke-width="1"/>
<text x="78" y="534.9999999999999" text-anchor="end" font-size="14" font-family="Arial, PingFang SC, Microsoft YaHei, sans-serif" fill="#666">3.35</text>
<line x1="90" y1="429.99999999999994" x2="1130" y2="429.99999999999994" stroke="#eee" stroke-width="1"/>
<text x="78" y="434.99999999999994" text-anchor="end" font-size="14" font-family="Arial, PingFang SC, Microsoft YaHei, sans-serif" fill="#666">68.55</text>
<line x1="90" y1="329.99999999999994" x2="1130" y2="329.99999999999994" stroke="#eee" stroke-width="1"/>
<text x="78" y="334.99999999999994" text-anchor="end" font-size="14" font-family="Arial, PingFang SC, Microsoft YaHei, sans-serif" fill="#666">133.75</text>
<line x1="90" y1="229.99999999999994" x2="1130" y2="229.99999999999994" stroke="#eee" stroke-width="1"/>
<text x="78" y="234.99999999999994" text-anchor="end" font-size="14" font-family="Arial, PingFang SC, Microsoft YaHei, sans-serif" fill="#666">198.95</text>
<line x1="90" y1="130.0" x2="1130" y2="130.0" stroke="#eee" stroke-width="1"/>
<text x="78" y="135.0" text-anchor="end" font-size="14" font-family="Arial, PingFang SC, Microsoft YaHei, sans-serif" fill="#666">264.15</text>
<text x="194.0" y="658" text-anchor="middle" font-size="14" font-family="Arial, PingFang SC, Microsoft YaHei, sans-serif" fill="#666">2021</text>
<text x="402.0" y="658" text-anchor="middle" font-size="14" font-family="Arial, PingFang SC, Microsoft YaHei, sans-serif" fill="#666">2022</text>
<text x="610.0" y="658" text-anchor="middle" font-size="14" font-family="Arial, PingFang SC, Microsoft YaHei, sans-serif" fill="#666">2023</text>
<text x="818.0" y="658" text-anchor="middle" font-size="14" font-family="Arial, PingFang SC, Microsoft YaHei, sans-serif" fill="#666">2024</text>
<text x="1026.0" y="658" text-anchor="middle" font-size="14" font-family="Arial, PingFang SC, Microsoft YaHei, sans-serif" fill="#666">2025</text>
<rect x="123.28" y="517.30" width="130.12" height="17.84" fill="#4E79A7" opacity="0.85"/>
<rect x="331.28" y="506.56" width="130.12" height="28.57" fill="#4E79A7" opacity="0.85"/>
<rect x="539.28" y="535.14" width="130.12" height="94.86" fill="#4E79A7" opacity="0.85"/>
<rect x="747.28" y="523.65" width="130.12" height="11.49" fill="#4E79A7" opacity="0.85"/>
<rect x="955.28" y="535.14" width="130.12" height="11.01" fill="#4E79A7" opacity="0.85"/>
<polyline fill="none" stroke="#F28E2B" stroke-width="3" points="194.00,185.57 402.00,138.59 610.00,166.09 818.00,130.00 1026.00,281.84"/>
<circle cx="194.00" cy="185.57" r="4" fill="#F28E2B"/>
<circle cx="402.00" cy="138.59" r="4" fill="#F28E2B"/>
<circle cx="610.00" cy="166.09" r="4" fill="#F28E2B"/>
<circle cx="818.00" cy="130.00" r="4" fill="#F28E2B"/>
<circle cx="1026.00" cy="281.84" r="4" fill="#F28E2B"/>
</svg>