<svg xmlns="http://www.w3.org/2000/svg" width="1200" height="720" viewBox="0 0 1200 720">
<rect x="0" y="0" width="100%" height="100%" fill="#ffffff"/>
<text x="40" y="42" font-size="26" font-family="Arial, PingFang SC, Microsoft YaHei, sans-serif" fill="#222">分产品收入变化图</text>
<rect x="40" y="60" width="22" height="10" fill="#4E79A7"/>
<text x="68" y="70" font-size="16" font-family="Arial, PingFang SC, Microsoft YaHei, sans-serif" fill="#333">长江以北</text>
<rect x="210" y="60" width="22" height="10" fill="#F28E2B"/>
<text x="238" y="70" font-size="16" font-family="Arial, PingFang SC, Microsoft YaHei, sans-serif" fill="#333">屠宰及肉类蛋类加工业</text>
<rect x="380" y="60" width="22" height="10" fill="#E15759"/>
<text x="408" y="70" font-size="16" font-family="Arial, PingFang SC, Microsoft YaHei, sans-serif" fill="#333">生鲜冻品</text>
<rect x="550" y="60" width="22" height="10" fill="#76B7B2"/>
<text x="578" y="70" font-size="16" font-family="Arial, PingFang SC, Microsoft YaHei, sans-serif" fill="#333">包装肉制品</text>
<rect x="720" y="60" width="22" height="10" fill="#59A14F"/>
<text x="748" y="70" font-size="16" font-family="Arial, PingFang SC, Microsoft YaHei, sans-serif" fill="#333">肉制品行业</text>
<line x1="90" y1="130" x2="90" y2="630" stroke="#555" stroke-width="1"/>
<line x1="90" y1="630.0" x2="1130" y2="630.0" stroke="#555" stroke-width="1"/>
<line x1="90" y1="630.0" x2="1130" y2="630.0" stroke="#eee" stroke-width="1"/>
<text x="78" y="635.0" text-anchor="end" font-size="14" font-family="Arial, PingFang SC, Microsoft YaHei, sans-serif" fill="#666">0.00</text>
<line x1="90" y1="530.0" x2="1130" y2="530.0" stroke="#eee" stroke-width="1"/>
<text x="78" y="535.0" text-anchor="end" font-size="14" font-family="Arial, PingFang SC, Microsoft YaHei, sans-serif" fill="#666">136.51</text>
<line x1="90" y1="430.0" x2="1130" y2="430.0" stroke="#eee" stroke-width="1"/>
<text x="78" y="435.0" text-anchor="end" font-size="14" font-family="Arial, PingFang SC, Microsoft YaHei, sans-serif" fill="#666">273.01</text>
<line x1="90" y1="330.0" x2="1130" y2="330.0" stroke="#eee" stroke-width="1"/>
<text x="78" y="335.0" text-anchor="end" font-size="14" font-family="Arial, PingFang SC, Microsoft YaHei, sans-serif" fill="#666">409.52</text>
<line x1="90" y1="229.99999999999997" x2="1130" y2="229.99999999999997" stroke="#eee" stroke-width="1"/>
<text x="78" y="234.99999999999997" text-anchor="end" font-size="14" font-family="Arial, PingFang SC, Microsoft YaHei, sans-serif" fill="#666">546.02</text>
<line x1="90" y1="130.0" x2="1130" y2="130.0" stroke="#eee" stroke-width="1"/>
<text x="78" y="135.0" text-anchor="end" font-size="14" font-family="Arial, PingFang SC, Microsoft YaHei, sans-serif" fill="#666">682.53</text>
<text x="194.0" y="658" text-anchor="middle" font-size="14" font-family="Arial, PingFang SC, Microsoft YaHei, sans-serif" fill="#666">2021</text>
<text x="402.0" y="658" text-anchor="middle" font-size="14" font-family="Arial, PingFang SC, Microsoft YaHei, sans-serif" fill="#666">2022</text>
<text x="610.0" y="658" text-anchor="middle" font-size="14" font-family="Arial, PingFang SC, Microsoft YaHei, sans-serif" fill="#666">2023</text>
<text x="818.0" y="658" text-anchor="middle" font-size="14" font-family="Arial, PingFang SC, Microsoft YaHei, sans-serif" fill="#666">2024</text>
<text x="1026.0" y="658" text-anchor="middle" font-size="14" font-family="Arial, PingFang SC, Microsoft YaHei, sans-serif" fill="#666">2025</text>
<rect x="123.28" y="130.00" width="26.02" height="500.00" fill="#4E79A7" opacity="0.85"/>
<rect x="331.28" y="189.41" width="26.02" height="440.59" fill="#4E79A7" opacity="0.85"/>
<rect x="539.28" y="191.21" width="26.02" height="438.79" fill="#4E79A7" opacity="0.85"/>
<rect x="747.28" y="220.96" width="26.02" height="409.04" fill="#4E79A7" opacity="0.85"/>
<rect x="955.28" y="225.75" width="26.02" height="404.25" fill="#4E79A7" opacity="0.85"/>
<rect x="151.57" y="189.99" width="26.02" height="440.01" fill="#F28E2B" opacity="0.85"/>
<rect x="359.57" y="280.67" width="26.02" height="349.33" fill="#F28E2B" opacity="0.85"/>
<rect x="567.57" y="286.72" width="26.02" height="343.28" fill="#F28E2B" opacity="0.85"/>
<rect x="775.57" y="310.17" width="26.02" height="319.83" fill="#F28E2B" opacity="0.85"/>
<rect x="983.57" y="314.86" width="26.02" height="315.14" fill="#F28E2B" opacity="0.85"/>
<rect x="179.86" y="189.99" width="26.02" height="440.01" fill="#E15759" opacity="0.85"/>
<rect x="387.86" y="280.67" width="26.02" height="349.33" fill="#E15759" opacity="0.85"/>
<rect x="595.86" y="286.72" width="26.02" height="343.28" fill="#E15759" opacity="0.85"/>
<rect x="803.86" y="310.17" width="26.02" height="319.83" fill="#E15759" opacity="0.85"/>
<rect x="1011.86" y="314.86" width="26.02" height="315.14" fill="#E15759" opacity="0.85"/>
<rect x="208.14" y="329.59" width="26.02" height="300.41" fill="#76B7B2" opacity="0.85"/>
<rect x="416.14" y="333.73" width="26.02" height="296.27" fill="#76B7B2" opacity="0.85"/>
<rect x="624.14" y="336.19" width="26.02" height="293.81" fill="#76B7B2" opacity="0.85"/>
<rect x="832.14" y="357.77" width="26.02" height="272.23" fill="#76B7B2" opacity="0.85"/>
<rect x="1040.14" y="375.55" width="26.02" height="254.45" fill="#76B7B2" opacity="0.85"/>
<rect x="236.43" y="329.59" width="26.02" height="300.41" fill="#59A14F" opacity="0.85"/>
<rect x="444.43" y="333.73" width="26.02" height="296.27" fill="#59A14F" opacity="0.85"/>
<rect x="652.43" y="336.19" width="26.02" height="293.81" fill="#59A14F" opacity="0.85"/>
<rect x="860.43" y="357.77" width="26.02" height="272.23" fill="#59A14F" opacity="0.85"/>
<rect x="1068.43" y="375.55" width="26.02" height="254.45" fill="#59A14F" opacity="0.85"/>
</svg>