<svg xmlns="http://www.w3.org/2000/svg" width="1200" height="720" viewBox="0 0 1200 720">
<rect x="0" y="0" width="100%" height="100%" fill="#ffffff"/>
<text x="40" y="42" font-size="26" font-family="Arial, PingFang SC, Microsoft YaHei, sans-serif" fill="#222">财务比率分析图</text>
<rect x="40" y="60" width="22" height="10" fill="#4E79A7"/>
<text x="68" y="70" font-size="16" font-family="Arial, PingFang SC, Microsoft YaHei, sans-serif" fill="#333">资产负债率</text>
<rect x="210" y="60" width="22" height="10" fill="#F28E2B"/>
<text x="238" y="70" font-size="16" font-family="Arial, PingFang SC, Microsoft YaHei, sans-serif" fill="#333">流动比率</text>
<rect x="380" y="60" width="22" height="10" fill="#E15759"/>
<text x="408" y="70" font-size="16" font-family="Arial, PingFang SC, Microsoft YaHei, sans-serif" fill="#333">速动比率</text>
<rect x="550" y="60" width="22" height="10" fill="#76B7B2"/>
<text x="578" y="70" font-size="16" font-family="Arial, PingFang SC, Microsoft YaHei, sans-serif" fill="#333">应收周转率</text>
<rect x="720" y="60" width="22" height="10" fill="#59A14F"/>
<text x="748" y="70" font-size="16" font-family="Arial, PingFang SC, Microsoft YaHei, sans-serif" fill="#333">存货周转率</text>
<line x1="90" y1="130" x2="90" y2="630" stroke="#555" stroke-width="1"/>
<line x1="90" y1="630.0" x2="1130" y2="630.0" stroke="#555" stroke-width="1"/>
<line x1="90" y1="630.0" x2="1130" y2="630.0" stroke="#eee" stroke-width="1"/>
<text x="78" y="635.0" text-anchor="end" font-size="14" font-family="Arial, PingFang SC, Microsoft YaHei, sans-serif" fill="#666">0.00</text>
<line x1="90" y1="530.0" x2="1130" y2="530.0" stroke="#eee" stroke-width="1"/>
<text x="78" y="535.0" text-anchor="end" font-size="14" font-family="Arial, PingFang SC, Microsoft YaHei, sans-serif" fill="#666">5.94</text>
<line x1="90" y1="430.0" x2="1130" y2="430.0" stroke="#eee" stroke-width="1"/>
<text x="78" y="435.0" text-anchor="end" font-size="14" font-family="Arial, PingFang SC, Microsoft YaHei, sans-serif" fill="#666">11.88</text>
<line x1="90" y1="330.0" x2="1130" y2="330.0" stroke="#eee" stroke-width="1"/>
<text x="78" y="335.0" text-anchor="end" font-size="14" font-family="Arial, PingFang SC, Microsoft YaHei, sans-serif" fill="#666">17.81</text>
<line x1="90" y1="229.99999999999997" x2="1130" y2="229.99999999999997" stroke="#eee" stroke-width="1"/>
<text x="78" y="234.99999999999997" text-anchor="end" font-size="14" font-family="Arial, PingFang SC, Microsoft YaHei, sans-serif" fill="#666">23.75</text>
<line x1="90" y1="129.99999999999994" x2="1130" y2="129.99999999999994" stroke="#eee" stroke-width="1"/>
<text x="78" y="134.99999999999994" text-anchor="end" font-size="14" font-family="Arial, PingFang SC, Microsoft YaHei, sans-serif" fill="#666">29.69</text>
<text x="194.0" y="658" text-anchor="middle" font-size="14" font-family="Arial, PingFang SC, Microsoft YaHei, sans-serif" fill="#666">2021</text>
<text x="402.0" y="658" text-anchor="middle" font-size="14" font-family="Arial, PingFang SC, Microsoft YaHei, sans-serif" fill="#666">2022</text>
<text x="610.0" y="658" text-anchor="middle" font-size="14" font-family="Arial, PingFang SC, Microsoft YaHei, sans-serif" fill="#666">2023</text>
<text x="818.0" y="658" text-anchor="middle" font-size="14" font-family="Arial, PingFang SC, Microsoft YaHei, sans-serif" fill="#666">2024</text>
<text x="1026.0" y="658" text-anchor="middle" font-size="14" font-family="Arial, PingFang SC, Microsoft YaHei, sans-serif" fill="#666">2025</text>
<rect x="123.28" y="536.87" width="65.06" height="93.13" fill="#4E79A7" opacity="0.85"/>
<rect x="331.28" y="504.87" width="65.06" height="125.13" fill="#4E79A7" opacity="0.85"/>
<rect x="539.28" y="531.99" width="65.06" height="98.01" fill="#4E79A7" opacity="0.85"/>
<rect x="747.28" y="546.64" width="65.06" height="83.36" fill="#4E79A7" opacity="0.85"/>
<rect x="955.28" y="529.29" width="65.06" height="100.71" fill="#4E79A7" opacity="0.85"/>
<rect x="194.00" y="580.32" width="65.06" height="49.68" fill="#F28E2B" opacity="0.85"/>
<rect x="402.00" y="568.03" width="65.06" height="61.97" fill="#F28E2B" opacity="0.85"/>
<rect x="610.00" y="567.02" width="65.06" height="62.98" fill="#F28E2B" opacity="0.85"/>
<rect x="818.00" y="567.35" width="65.06" height="62.65" fill="#F28E2B" opacity="0.85"/>
<rect x="1026.00" y="579.48" width="65.06" height="50.52" fill="#F28E2B" opacity="0.85"/>
<polyline fill="none" stroke="#E15759" stroke-width="3" points="194.00,130.00 402.00,167.55 610.00,215.05 818.00,184.73 1026.00,256.47"/>
<circle cx="194.00" cy="130.00" r="4" fill="#E15759"/>
<circle cx="402.00" cy="167.55" r="4" fill="#E15759"/>
<circle cx="610.00" cy="215.05" r="4" fill="#E15759"/>
<circle cx="818.00" cy="184.73" r="4" fill="#E15759"/>
<circle cx="1026.00" cy="256.47" r="4" fill="#E15759"/>
<polyline fill="none" stroke="#76B7B2" stroke-width="3" points="194.00,601.54 402.00,602.04 610.00,595.31 818.00,589.92 1026.00,575.94"/>
<circle cx="194.00" cy="601.54" r="4" fill="#76B7B2"/>
<circle cx="402.00" cy="602.04" r="4" fill="#76B7B2"/>
<circle cx="610.00" cy="595.31" r="4" fill="#76B7B2"/>
<circle cx="818.00" cy="589.92" r="4" fill="#76B7B2"/>
<circle cx="1026.00" cy="575.94" r="4" fill="#76B7B2"/>
<polyline fill="none" stroke="#59A14F" stroke-width="3" points="194.00,609.12 402.00,608.78 610.00,600.70 818.00,595.48 1026.00,583.86"/>
<circle cx="194.00" cy="609.12" r="4" fill="#59A14F"/>
<circle cx="402.00" cy="608.78" r="4" fill="#59A14F"/>
<circle cx="610.00" cy="600.70" r="4" fill="#59A14F"/>
<circle cx="818.00" cy="595.48" r="4" fill="#59A14F"/>
<circle cx="1026.00" cy="583.86" r="4" fill="#59A14F"/>
</svg>