<svg xmlns="http://www.w3.org/2000/svg" width="1200" height="720" viewBox="0 0 1200 720">
<rect x="0" y="0" width="100%" height="100%" fill="#ffffff"/>
<text x="40" y="42" font-size="26" font-family="Arial, PingFang SC, Microsoft YaHei, sans-serif" fill="#222">分产品利润结构图</text>
<rect x="40" y="60" width="22" height="10" fill="#4E79A7"/>
<text x="68" y="70" font-size="16" font-family="Arial, PingFang SC, Microsoft YaHei, sans-serif" fill="#333">利润</text>
<rect x="210" y="60" width="22" height="10" fill="#F28E2B"/>
<text x="238" y="70" font-size="16" font-family="Arial, PingFang SC, Microsoft YaHei, sans-serif" fill="#333">毛利率</text>
<line x1="90" y1="130" x2="90" y2="630" stroke="#555" stroke-width="1"/>
<line x1="90" y1="630.0" x2="1130" y2="630.0" stroke="#555" stroke-width="1"/>
<line x1="90" y1="630.0" x2="1130" y2="630.0" stroke="#eee" stroke-width="1"/>
<text x="78" y="635.0" text-anchor="end" font-size="14" font-family="Arial, PingFang SC, Microsoft YaHei, sans-serif" fill="#666">0.00</text>
<line x1="90" y1="530.0" x2="1130" y2="530.0" stroke="#eee" stroke-width="1"/>
<text x="78" y="535.0" text-anchor="end" font-size="14" font-family="Arial, PingFang SC, Microsoft YaHei, sans-serif" fill="#666">34.25</text>
<line x1="90" y1="430.0" x2="1130" y2="430.0" stroke="#eee" stroke-width="1"/>
<text x="78" y="435.0" text-anchor="end" font-size="14" font-family="Arial, PingFang SC, Microsoft YaHei, sans-serif" fill="#666">68.49</text>
<line x1="90" y1="330.0" x2="1130" y2="330.0" stroke="#eee" stroke-width="1"/>
<text x="78" y="335.0" text-anchor="end" font-size="14" font-family="Arial, PingFang SC, Microsoft YaHei, sans-serif" fill="#666">102.74</text>
<line x1="90" y1="230.00000000000003" x2="1130" y2="230.00000000000003" stroke="#eee" stroke-width="1"/>
<text x="78" y="235.00000000000003" text-anchor="end" font-size="14" font-family="Arial, PingFang SC, Microsoft YaHei, sans-serif" fill="#666">136.98</text>
<line x1="90" y1="130.0" x2="1130" y2="130.0" stroke="#eee" stroke-width="1"/>
<text x="78" y="135.0" text-anchor="end" font-size="14" font-family="Arial, PingFang SC, Microsoft YaHei, sans-serif" fill="#666">171.23</text>
<text x="155.0" y="658" text-anchor="middle" font-size="14" font-family="Arial, PingFang SC, Microsoft YaHei, sans-serif" fill="#666">药品制造与研发(行业)</text>
<text x="285.0" y="658" text-anchor="middle" font-size="14" font-family="Arial, PingFang SC, Microsoft YaHei, sans-serif" fill="#666">其他业务</text>
<text x="415.0" y="658" text-anchor="middle" font-size="14" font-family="Arial, PingFang SC, Microsoft YaHei, sans-serif" fill="#666">国外</text>
<text x="545.0" y="658" text-anchor="middle" font-size="14" font-family="Arial, PingFang SC, Microsoft YaHei, sans-serif" fill="#666">抗肿瘤治疗领域核心产品</text>
<text x="675.0" y="658" text-anchor="middle" font-size="14" font-family="Arial, PingFang SC, Microsoft YaHei, sans-serif" fill="#666">医疗服务(行业)</text>
<text x="805.0" y="658" text-anchor="middle" font-size="14" font-family="Arial, PingFang SC, Microsoft YaHei, sans-serif" fill="#666">医学诊断与医疗器械制造产品</text>
<text x="935.0" y="658" text-anchor="middle" font-size="14" font-family="Arial, PingFang SC, Microsoft YaHei, sans-serif" fill="#666">抗感染疾病治疗领域核心产品</text>
<text x="1065.0" y="658" text-anchor="middle" font-size="14" font-family="Arial, PingFang SC, Microsoft YaHei, sans-serif" fill="#666">代谢及消化系统疾病治疗领域核心产品</text>
<rect x="110.80" y="130.00" width="81.33" height="500.00" fill="#4E79A7" opacity="0.85"/>
<rect x="240.80" y="410.94" width="81.33" height="219.06" fill="#4E79A7" opacity="0.85"/>
<rect x="370.80" y="456.52" width="81.33" height="173.48" fill="#4E79A7" opacity="0.85"/>
<rect x="500.80" y="413.01" width="81.33" height="216.99" fill="#4E79A7" opacity="0.85"/>
<rect x="630.80" y="585.41" width="81.33" height="44.59" fill="#4E79A7" opacity="0.85"/>
<rect x="760.80" y="566.34" width="81.33" height="63.66" fill="#4E79A7" opacity="0.85"/>
<rect x="890.80" y="577.29" width="81.33" height="52.71" fill="#4E79A7" opacity="0.85"/>
<rect x="1020.80" y="574.40" width="81.33" height="55.60" fill="#4E79A7" opacity="0.85"/>
<polyline fill="none" stroke="#F28E2B" stroke-width="3" points="155.00,462.42 285.00,531.92 415.00,496.32 545.00,406.47 675.00,569.53 805.00,482.65 935.00,451.32 1065.00,416.08"/>
<circle cx="155.00" cy="462.42" r="4" fill="#F28E2B"/>
<circle cx="285.00" cy="531.92" r="4" fill="#F28E2B"/>
<circle cx="415.00" cy="496.32" r="4" fill="#F28E2B"/>
<circle cx="545.00" cy="406.47" r="4" fill="#F28E2B"/>
<circle cx="675.00" cy="569.53" r="4" fill="#F28E2B"/>
<circle cx="805.00" cy="482.65" r="4" fill="#F28E2B"/>
<circle cx="935.00" cy="451.32" r="4" fill="#F28E2B"/>
<circle cx="1065.00" cy="416.08" r="4" fill="#F28E2B"/>
</svg>