<svg xmlns="http://www.w3.org/2000/svg" width="1200" height="720" viewBox="0 0 1200 720">
<rect x="0" y="0" width="100%" height="100%" fill="#ffffff"/>
<text x="40" y="42" font-size="26" font-family="Arial, PingFang SC, Microsoft YaHei, sans-serif" fill="#222">分产品收入变化图</text>
<rect x="40" y="60" width="22" height="10" fill="#4E79A7"/>
<text x="68" y="70" font-size="16" font-family="Arial, PingFang SC, Microsoft YaHei, sans-serif" fill="#333">药品制造与研发(行业)</text>
<rect x="210" y="60" width="22" height="10" fill="#F28E2B"/>
<text x="238" y="70" font-size="16" font-family="Arial, PingFang SC, Microsoft YaHei, sans-serif" fill="#333">其他业务</text>
<rect x="380" y="60" width="22" height="10" fill="#E15759"/>
<text x="408" y="70" font-size="16" font-family="Arial, PingFang SC, Microsoft YaHei, sans-serif" fill="#333">国外</text>
<rect x="550" y="60" width="22" height="10" fill="#76B7B2"/>
<text x="578" y="70" font-size="16" font-family="Arial, PingFang SC, Microsoft YaHei, sans-serif" fill="#333">抗肿瘤治疗领域核心产品</text>
<rect x="720" y="60" width="22" height="10" fill="#59A14F"/>
<text x="748" y="70" font-size="16" font-family="Arial, PingFang SC, Microsoft YaHei, sans-serif" fill="#333">医疗服务(行业)</text>
<line x1="90" y1="130" x2="90" y2="630" stroke="#555" stroke-width="1"/>
<line x1="90" y1="630.0" x2="1130" y2="630.0" stroke="#555" stroke-width="1"/>
<line x1="90" y1="630.0" x2="1130" y2="630.0" stroke="#eee" stroke-width="1"/>
<text x="78" y="635.0" text-anchor="end" font-size="14" font-family="Arial, PingFang SC, Microsoft YaHei, sans-serif" fill="#666">0.00</text>
<line x1="90" y1="530.0" x2="1130" y2="530.0" stroke="#eee" stroke-width="1"/>
<text x="78" y="535.0" text-anchor="end" font-size="14" font-family="Arial, PingFang SC, Microsoft YaHei, sans-serif" fill="#666">92.43</text>
<line x1="90" y1="430.0" x2="1130" y2="430.0" stroke="#eee" stroke-width="1"/>
<text x="78" y="435.0" text-anchor="end" font-size="14" font-family="Arial, PingFang SC, Microsoft YaHei, sans-serif" fill="#666">184.87</text>
<line x1="90" y1="330.0" x2="1130" y2="330.0" stroke="#eee" stroke-width="1"/>
<text x="78" y="335.0" text-anchor="end" font-size="14" font-family="Arial, PingFang SC, Microsoft YaHei, sans-serif" fill="#666">277.30</text>
<line x1="90" y1="230.0" x2="1130" y2="230.0" stroke="#eee" stroke-width="1"/>
<text x="78" y="235.0" text-anchor="end" font-size="14" font-family="Arial, PingFang SC, Microsoft YaHei, sans-serif" fill="#666">369.74</text>
<line x1="90" y1="130.00000000000006" x2="1130" y2="130.00000000000006" stroke="#eee" stroke-width="1"/>
<text x="78" y="135.00000000000006" text-anchor="end" font-size="14" font-family="Arial, PingFang SC, Microsoft YaHei, sans-serif" fill="#666">462.17</text>
<text x="194.0" y="658" text-anchor="middle" font-size="14" font-family="Arial, PingFang SC, Microsoft YaHei, sans-serif" fill="#666">2021</text>
<text x="402.0" y="658" text-anchor="middle" font-size="14" font-family="Arial, PingFang SC, Microsoft YaHei, sans-serif" fill="#666">2022</text>
<text x="610.0" y="658" text-anchor="middle" font-size="14" font-family="Arial, PingFang SC, Microsoft YaHei, sans-serif" fill="#666">2023</text>
<text x="818.0" y="658" text-anchor="middle" font-size="14" font-family="Arial, PingFang SC, Microsoft YaHei, sans-serif" fill="#666">2024</text>
<text x="1026.0" y="658" text-anchor="middle" font-size="14" font-family="Arial, PingFang SC, Microsoft YaHei, sans-serif" fill="#666">2025</text>
<rect x="123.28" y="184.80" width="26.02" height="445.20" fill="#4E79A7" opacity="0.85"/>
<rect x="331.28" y="141.66" width="26.02" height="488.34" fill="#4E79A7" opacity="0.85"/>
<rect x="539.28" y="130.00" width="26.02" height="500.00" fill="#4E79A7" opacity="0.85"/>
<rect x="747.28" y="158.30" width="26.02" height="471.70" fill="#4E79A7" opacity="0.85"/>
<rect x="955.28" y="156.86" width="26.02" height="473.14" fill="#4E79A7" opacity="0.85"/>
<rect x="151.57" y="322.86" width="26.02" height="307.14" fill="#F28E2B" opacity="0.85"/>
<rect x="359.57" y="259.71" width="26.02" height="370.29" fill="#F28E2B" opacity="0.85"/>
<rect x="567.57" y="269.79" width="26.02" height="360.21" fill="#F28E2B" opacity="0.85"/>
<rect x="775.57" y="257.53" width="26.02" height="372.47" fill="#F28E2B" opacity="0.85"/>
<rect x="983.57" y="277.92" width="26.02" height="352.08" fill="#F28E2B" opacity="0.85"/>
<rect x="179.86" y="426.64" width="26.02" height="203.36" fill="#E15759" opacity="0.85"/>
<rect x="387.86" y="397.08" width="26.02" height="232.92" fill="#E15759" opacity="0.85"/>
<rect x="595.86" y="466.02" width="26.02" height="163.98" fill="#E15759" opacity="0.85"/>
<rect x="803.86" y="448.17" width="26.02" height="181.83" fill="#E15759" opacity="0.85"/>
<rect x="1011.86" y="430.34" width="26.02" height="199.66" fill="#E15759" opacity="0.85"/>
<rect x="208.14" y="568.97" width="26.02" height="61.03" fill="#76B7B2" opacity="0.85"/>
<rect x="416.14" y="542.67" width="26.02" height="87.33" fill="#76B7B2" opacity="0.85"/>
<rect x="624.14" y="507.35" width="26.02" height="122.65" fill="#76B7B2" opacity="0.85"/>
<rect x="832.14" y="498.71" width="26.02" height="131.29" fill="#76B7B2" opacity="0.85"/>
<rect x="1040.14" y="478.30" width="26.02" height="151.70" fill="#76B7B2" opacity="0.85"/>
<rect x="236.43" y="565.50" width="26.02" height="64.50" fill="#59A14F" opacity="0.85"/>
<rect x="444.43" y="532.65" width="26.02" height="97.35" fill="#59A14F" opacity="0.85"/>
<rect x="652.43" y="523.96" width="26.02" height="106.04" fill="#59A14F" opacity="0.85"/>
<rect x="860.43" y="507.69" width="26.02" height="122.31" fill="#59A14F" opacity="0.85"/>
<rect x="1068.43" y="511.37" width="26.02" height="118.63" fill="#59A14F" opacity="0.85"/>
</svg>