<svg xmlns="http://www.w3.org/2000/svg" width="1200" height="720" viewBox="0 0 1200 720">
<rect x="0" y="0" width="100%" height="100%" fill="#ffffff"/>
<text x="40" y="42" font-size="26" font-family="Arial, PingFang SC, Microsoft YaHei, sans-serif" fill="#222">财务比率分析图</text>
<rect x="40" y="60" width="22" height="10" fill="#4E79A7"/>
<text x="68" y="70" font-size="16" font-family="Arial, PingFang SC, Microsoft YaHei, sans-serif" fill="#333">资产负债率</text>
<rect x="210" y="60" width="22" height="10" fill="#F28E2B"/>
<text x="238" y="70" font-size="16" font-family="Arial, PingFang SC, Microsoft YaHei, sans-serif" fill="#333">流动比率</text>
<rect x="380" y="60" width="22" height="10" fill="#E15759"/>
<text x="408" y="70" font-size="16" font-family="Arial, PingFang SC, Microsoft YaHei, sans-serif" fill="#333">速动比率</text>
<rect x="550" y="60" width="22" height="10" fill="#76B7B2"/>
<text x="578" y="70" font-size="16" font-family="Arial, PingFang SC, Microsoft YaHei, sans-serif" fill="#333">应收周转率</text>
<rect x="720" y="60" width="22" height="10" fill="#59A14F"/>
<text x="748" y="70" font-size="16" font-family="Arial, PingFang SC, Microsoft YaHei, sans-serif" fill="#333">存货周转率</text>
<line x1="90" y1="130" x2="90" y2="630" stroke="#555" stroke-width="1"/>
<line x1="90" y1="630.0" x2="1130" y2="630.0" stroke="#555" stroke-width="1"/>
<line x1="90" y1="630.0" x2="1130" y2="630.0" stroke="#eee" stroke-width="1"/>
<text x="78" y="635.0" text-anchor="end" font-size="14" font-family="Arial, PingFang SC, Microsoft YaHei, sans-serif" fill="#666">0.00</text>
<line x1="90" y1="530.0" x2="1130" y2="530.0" stroke="#eee" stroke-width="1"/>
<text x="78" y="535.0" text-anchor="end" font-size="14" font-family="Arial, PingFang SC, Microsoft YaHei, sans-serif" fill="#666">12.77</text>
<line x1="90" y1="430.00000000000006" x2="1130" y2="430.00000000000006" stroke="#eee" stroke-width="1"/>
<text x="78" y="435.00000000000006" text-anchor="end" font-size="14" font-family="Arial, PingFang SC, Microsoft YaHei, sans-serif" fill="#666">25.54</text>
<line x1="90" y1="330.0" x2="1130" y2="330.0" stroke="#eee" stroke-width="1"/>
<text x="78" y="335.0" text-anchor="end" font-size="14" font-family="Arial, PingFang SC, Microsoft YaHei, sans-serif" fill="#666">38.32</text>
<line x1="90" y1="230.0" x2="1130" y2="230.0" stroke="#eee" stroke-width="1"/>
<text x="78" y="235.0" text-anchor="end" font-size="14" font-family="Arial, PingFang SC, Microsoft YaHei, sans-serif" fill="#666">51.09</text>
<line x1="90" y1="130.0" x2="1130" y2="130.0" stroke="#eee" stroke-width="1"/>
<text x="78" y="135.0" text-anchor="end" font-size="14" font-family="Arial, PingFang SC, Microsoft YaHei, sans-serif" fill="#666">63.86</text>
<text x="194.0" y="658" text-anchor="middle" font-size="14" font-family="Arial, PingFang SC, Microsoft YaHei, sans-serif" fill="#666">2021</text>
<text x="402.0" y="658" text-anchor="middle" font-size="14" font-family="Arial, PingFang SC, Microsoft YaHei, sans-serif" fill="#666">2022</text>
<text x="610.0" y="658" text-anchor="middle" font-size="14" font-family="Arial, PingFang SC, Microsoft YaHei, sans-serif" fill="#666">2023</text>
<text x="818.0" y="658" text-anchor="middle" font-size="14" font-family="Arial, PingFang SC, Microsoft YaHei, sans-serif" fill="#666">2024</text>
<text x="1026.0" y="658" text-anchor="middle" font-size="14" font-family="Arial, PingFang SC, Microsoft YaHei, sans-serif" fill="#666">2025</text>
<rect x="123.28" y="149.03" width="65.06" height="480.97" fill="#4E79A7" opacity="0.85"/>
<rect x="331.28" y="135.64" width="65.06" height="494.36" fill="#4E79A7" opacity="0.85"/>
<rect x="539.28" y="130.00" width="65.06" height="500.00" fill="#4E79A7" opacity="0.85"/>
<rect x="747.28" y="163.43" width="65.06" height="466.57" fill="#4E79A7" opacity="0.85"/>
<rect x="955.28" y="216.83" width="65.06" height="413.17" fill="#4E79A7" opacity="0.85"/>
<rect x="194.00" y="573.55" width="65.06" height="56.45" fill="#F28E2B" opacity="0.85"/>
<rect x="402.00" y="578.64" width="65.06" height="51.36" fill="#F28E2B" opacity="0.85"/>
<rect x="610.00" y="578.40" width="65.06" height="51.60" fill="#F28E2B" opacity="0.85"/>
<rect x="818.00" y="580.05" width="65.06" height="49.95" fill="#F28E2B" opacity="0.85"/>
<rect x="1026.00" y="585.45" width="65.06" height="44.55" fill="#F28E2B" opacity="0.85"/>
<polyline fill="none" stroke="#E15759" stroke-width="3" points="194.00,391.27 402.00,430.81 610.00,419.93 818.00,453.52 1026.00,430.50"/>
<circle cx="194.00" cy="391.27" r="4" fill="#E15759"/>
<circle cx="402.00" cy="430.81" r="4" fill="#E15759"/>
<circle cx="610.00" cy="419.93" r="4" fill="#E15759"/>
<circle cx="818.00" cy="453.52" r="4" fill="#E15759"/>
<circle cx="1026.00" cy="430.50" r="4" fill="#E15759"/>
<polyline fill="none" stroke="#76B7B2" stroke-width="3" points="194.00,607.53 402.00,604.01 610.00,604.79 818.00,600.87 1026.00,602.83"/>
<circle cx="194.00" cy="607.53" r="4" fill="#76B7B2"/>
<circle cx="402.00" cy="604.01" r="4" fill="#76B7B2"/>
<circle cx="610.00" cy="604.79" r="4" fill="#76B7B2"/>
<circle cx="818.00" cy="600.87" r="4" fill="#76B7B2"/>
<circle cx="1026.00" cy="602.83" r="4" fill="#76B7B2"/>
<polyline fill="none" stroke="#59A14F" stroke-width="3" points="194.00,609.88 402.00,606.51 610.00,606.98 818.00,603.69 1026.00,605.26"/>
<circle cx="194.00" cy="609.88" r="4" fill="#59A14F"/>
<circle cx="402.00" cy="606.51" r="4" fill="#59A14F"/>
<circle cx="610.00" cy="606.98" r="4" fill="#59A14F"/>
<circle cx="818.00" cy="603.69" r="4" fill="#59A14F"/>
<circle cx="1026.00" cy="605.26" r="4" fill="#59A14F"/>
</svg>