<svg xmlns="http://www.w3.org/2000/svg" width="1200" height="720" viewBox="0 0 1200 720">
<rect x="0" y="0" width="100%" height="100%" fill="#ffffff"/>
<text x="40" y="42" font-size="26" font-family="Arial, PingFang SC, Microsoft YaHei, sans-serif" fill="#222">毛利率和净利率对比图</text>
<rect x="40" y="60" width="22" height="10" fill="#4E79A7"/>
<text x="68" y="70" font-size="16" font-family="Arial, PingFang SC, Microsoft YaHei, sans-serif" fill="#333">毛利率</text>
<rect x="210" y="60" width="22" height="10" fill="#F28E2B"/>
<text x="238" y="70" font-size="16" font-family="Arial, PingFang SC, Microsoft YaHei, sans-serif" fill="#333">净利率</text>
<line x1="90" y1="130" x2="90" y2="630" stroke="#555" stroke-width="1"/>
<line x1="90" y1="629.2307692307693" x2="1130" y2="629.2307692307693" stroke="#555" stroke-width="1"/>
<line x1="90" y1="630.0" x2="1130" y2="630.0" stroke="#eee" stroke-width="1"/>
<text x="78" y="635.0" text-anchor="end" font-size="14" font-family="Arial, PingFang SC, Microsoft YaHei, sans-serif" fill="#666">-0.05</text>
<line x1="90" y1="530.0" x2="1130" y2="530.0" stroke="#eee" stroke-width="1"/>
<text x="78" y="535.0" text-anchor="end" font-size="14" font-family="Arial, PingFang SC, Microsoft YaHei, sans-serif" fill="#666">6.45</text>
<line x1="90" y1="430.00000000000006" x2="1130" y2="430.00000000000006" stroke="#eee" stroke-width="1"/>
<text x="78" y="435.00000000000006" text-anchor="end" font-size="14" font-family="Arial, PingFang SC, Microsoft YaHei, sans-serif" fill="#666">12.95</text>
<line x1="90" y1="330.00000000000006" x2="1130" y2="330.00000000000006" stroke="#eee" stroke-width="1"/>
<text x="78" y="335.00000000000006" text-anchor="end" font-size="14" font-family="Arial, PingFang SC, Microsoft YaHei, sans-serif" fill="#666">19.45</text>
<line x1="90" y1="230.00000000000006" x2="1130" y2="230.00000000000006" stroke="#eee" stroke-width="1"/>
<text x="78" y="235.00000000000006" text-anchor="end" font-size="14" font-family="Arial, PingFang SC, Microsoft YaHei, sans-serif" fill="#666">25.95</text>
<line x1="90" y1="130.0" x2="1130" y2="130.0" stroke="#eee" stroke-width="1"/>
<text x="78" y="135.0" text-anchor="end" font-size="14" font-family="Arial, PingFang SC, Microsoft YaHei, sans-serif" fill="#666">32.45</text>
<text x="194.0" y="658" text-anchor="middle" font-size="14" font-family="Arial, PingFang SC, Microsoft YaHei, sans-serif" fill="#666">2021</text>
<text x="402.0" y="658" text-anchor="middle" font-size="14" font-family="Arial, PingFang SC, Microsoft YaHei, sans-serif" fill="#666">2022</text>
<text x="610.0" y="658" text-anchor="middle" font-size="14" font-family="Arial, PingFang SC, Microsoft YaHei, sans-serif" fill="#666">2023</text>
<text x="818.0" y="658" text-anchor="middle" font-size="14" font-family="Arial, PingFang SC, Microsoft YaHei, sans-serif" fill="#666">2024</text>
<text x="1026.0" y="658" text-anchor="middle" font-size="14" font-family="Arial, PingFang SC, Microsoft YaHei, sans-serif" fill="#666">2025</text>
<rect x="123.28" y="142.15" width="65.06" height="487.08" fill="#4E79A7" opacity="0.85"/>
<rect x="331.28" y="130.00" width="65.06" height="499.23" fill="#4E79A7" opacity="0.85"/>
<rect x="539.28" y="156.00" width="65.06" height="473.23" fill="#4E79A7" opacity="0.85"/>
<rect x="747.28" y="306.92" width="65.06" height="322.31" fill="#4E79A7" opacity="0.85"/>
<rect x="955.28" y="298.31" width="65.06" height="330.92" fill="#4E79A7" opacity="0.85"/>
<rect x="194.00" y="469.23" width="65.06" height="160.00" fill="#F28E2B" opacity="0.85"/>
<rect x="402.00" y="421.38" width="65.06" height="207.85" fill="#F28E2B" opacity="0.85"/>
<rect x="610.00" y="448.00" width="65.06" height="181.23" fill="#F28E2B" opacity="0.85"/>
<rect x="818.00" y="629.23" width="65.06" height="0.77" fill="#F28E2B" opacity="0.85"/>
<rect x="1026.00" y="601.08" width="65.06" height="28.15" fill="#F28E2B" opacity="0.85"/>
</svg>