<svg xmlns="http://www.w3.org/2000/svg" width="1200" height="720" viewBox="0 0 1200 720">
<rect x="0" y="0" width="100%" height="100%" fill="#ffffff"/>
<text x="40" y="42" font-size="26" font-family="Arial, PingFang SC, Microsoft YaHei, sans-serif" fill="#222">分产品收入变化图</text>
<rect x="40" y="60" width="22" height="10" fill="#4E79A7"/>
<text x="68" y="70" font-size="16" font-family="Arial, PingFang SC, Microsoft YaHei, sans-serif" fill="#333">光伏行业</text>
<rect x="210" y="60" width="22" height="10" fill="#F28E2B"/>
<text x="238" y="70" font-size="16" font-family="Arial, PingFang SC, Microsoft YaHei, sans-serif" fill="#333">国外</text>
<rect x="380" y="60" width="22" height="10" fill="#E15759"/>
<text x="408" y="70" font-size="16" font-family="Arial, PingFang SC, Microsoft YaHei, sans-serif" fill="#333">户用系统销售</text>
<rect x="550" y="60" width="22" height="10" fill="#76B7B2"/>
<text x="578" y="70" font-size="16" font-family="Arial, PingFang SC, Microsoft YaHei, sans-serif" fill="#333">光伏并网逆变器</text>
<rect x="720" y="60" width="22" height="10" fill="#59A14F"/>
<text x="748" y="70" font-size="16" font-family="Arial, PingFang SC, Microsoft YaHei, sans-serif" fill="#333">储能电池</text>
<line x1="90" y1="130" x2="90" y2="630" stroke="#555" stroke-width="1"/>
<line x1="90" y1="630.0" x2="1130" y2="630.0" stroke="#555" stroke-width="1"/>
<line x1="90" y1="630.0" x2="1130" y2="630.0" stroke="#eee" stroke-width="1"/>
<text x="78" y="635.0" text-anchor="end" font-size="14" font-family="Arial, PingFang SC, Microsoft YaHei, sans-serif" fill="#666">0.00</text>
<line x1="90" y1="530.0" x2="1130" y2="530.0" stroke="#eee" stroke-width="1"/>
<text x="78" y="535.0" text-anchor="end" font-size="14" font-family="Arial, PingFang SC, Microsoft YaHei, sans-serif" fill="#666">17.61</text>
<line x1="90" y1="430.0" x2="1130" y2="430.0" stroke="#eee" stroke-width="1"/>
<text x="78" y="435.0" text-anchor="end" font-size="14" font-family="Arial, PingFang SC, Microsoft YaHei, sans-serif" fill="#666">35.22</text>
<line x1="90" y1="330.0" x2="1130" y2="330.0" stroke="#eee" stroke-width="1"/>
<text x="78" y="335.0" text-anchor="end" font-size="14" font-family="Arial, PingFang SC, Microsoft YaHei, sans-serif" fill="#666">52.84</text>
<line x1="90" y1="229.99999999999994" x2="1130" y2="229.99999999999994" stroke="#eee" stroke-width="1"/>
<text x="78" y="234.99999999999994" text-anchor="end" font-size="14" font-family="Arial, PingFang SC, Microsoft YaHei, sans-serif" fill="#666">70.45</text>
<line x1="90" y1="130.0" x2="1130" y2="130.0" stroke="#eee" stroke-width="1"/>
<text x="78" y="135.0" text-anchor="end" font-size="14" font-family="Arial, PingFang SC, Microsoft YaHei, sans-serif" fill="#666">88.06</text>
<text x="194.0" y="658" text-anchor="middle" font-size="14" font-family="Arial, PingFang SC, Microsoft YaHei, sans-serif" fill="#666">2021</text>
<text x="402.0" y="658" text-anchor="middle" font-size="14" font-family="Arial, PingFang SC, Microsoft YaHei, sans-serif" fill="#666">2022</text>
<text x="610.0" y="658" text-anchor="middle" font-size="14" font-family="Arial, PingFang SC, Microsoft YaHei, sans-serif" fill="#666">2023</text>
<text x="818.0" y="658" text-anchor="middle" font-size="14" font-family="Arial, PingFang SC, Microsoft YaHei, sans-serif" fill="#666">2024</text>
<text x="1026.0" y="658" text-anchor="middle" font-size="14" font-family="Arial, PingFang SC, Microsoft YaHei, sans-serif" fill="#666">2025</text>
<rect x="123.28" y="478.91" width="26.02" height="151.09" fill="#4E79A7" opacity="0.85"/>
<rect x="331.28" y="363.70" width="26.02" height="266.30" fill="#4E79A7" opacity="0.85"/>
<rect x="539.28" y="215.68" width="26.02" height="414.32" fill="#4E79A7" opacity="0.85"/>
<rect x="747.28" y="250.32" width="26.02" height="379.68" fill="#4E79A7" opacity="0.85"/>
<rect x="955.28" y="130.00" width="26.02" height="500.00" fill="#4E79A7" opacity="0.85"/>
<rect x="151.57" y="533.47" width="26.02" height="96.53" fill="#F28E2B" opacity="0.85"/>
<rect x="359.57" y="417.53" width="26.02" height="212.47" fill="#F28E2B" opacity="0.85"/>
<rect x="567.57" y="383.97" width="26.02" height="246.03" fill="#F28E2B" opacity="0.85"/>
<rect x="775.57" y="516.16" width="26.02" height="113.84" fill="#F28E2B" opacity="0.85"/>
<rect x="983.57" y="423.38" width="26.02" height="206.62" fill="#F28E2B" opacity="0.85"/>
<rect x="179.86" y="620.06" width="26.02" height="9.94" fill="#E15759" opacity="0.85"/>
<rect x="387.86" y="618.08" width="26.02" height="11.92" fill="#E15759" opacity="0.85"/>
<rect x="595.86" y="536.09" width="26.02" height="93.91" fill="#E15759" opacity="0.85"/>
<rect x="803.86" y="456.25" width="26.02" height="173.75" fill="#E15759" opacity="0.85"/>
<rect x="1011.86" y="453.47" width="26.02" height="176.53" fill="#E15759" opacity="0.85"/>
<rect x="208.14" y="519.05" width="26.02" height="110.95" fill="#76B7B2" opacity="0.85"/>
<rect x="416.14" y="516.38" width="26.02" height="113.62" fill="#76B7B2" opacity="0.85"/>
<rect x="624.14" y="467.55" width="26.02" height="162.45" fill="#76B7B2" opacity="0.85"/>
<rect x="832.14" y="504.12" width="26.02" height="125.88" fill="#76B7B2" opacity="0.85"/>
<rect x="1040.14" y="484.59" width="26.02" height="145.41" fill="#76B7B2" opacity="0.85"/>
<rect x="236.43" y="630.00" width="26.02" height="0.00" fill="#59A14F" opacity="0.85"/>
<rect x="444.43" y="594.40" width="26.02" height="35.60" fill="#59A14F" opacity="0.85"/>
<rect x="652.43" y="580.66" width="26.02" height="49.34" fill="#59A14F" opacity="0.85"/>
<rect x="860.43" y="603.14" width="26.02" height="26.86" fill="#59A14F" opacity="0.85"/>
<rect x="1068.43" y="542.22" width="26.02" height="87.78" fill="#59A14F" opacity="0.85"/>
</svg>