<svg xmlns="http://www.w3.org/2000/svg" width="1200" height="720" viewBox="0 0 1200 720">
<rect x="0" y="0" width="100%" height="100%" fill="#ffffff"/>
<text x="40" y="42" font-size="26" font-family="Arial, PingFang SC, Microsoft YaHei, sans-serif" fill="#222">分产品收入变化图</text>
<rect x="40" y="60" width="22" height="10" fill="#4E79A7"/>
<text x="68" y="70" font-size="16" font-family="Arial, PingFang SC, Microsoft YaHei, sans-serif" fill="#333">汽车电子</text>
<rect x="210" y="60" width="22" height="10" fill="#F28E2B"/>
<text x="238" y="70" font-size="16" font-family="Arial, PingFang SC, Microsoft YaHei, sans-serif" fill="#333">智能座舱</text>
<rect x="380" y="60" width="22" height="10" fill="#E15759"/>
<text x="408" y="70" font-size="16" font-family="Arial, PingFang SC, Microsoft YaHei, sans-serif" fill="#333">智能驾驶</text>
<rect x="550" y="60" width="22" height="10" fill="#76B7B2"/>
<text x="578" y="70" font-size="16" font-family="Arial, PingFang SC, Microsoft YaHei, sans-serif" fill="#333">国外</text>
<rect x="720" y="60" width="22" height="10" fill="#59A14F"/>
<text x="748" y="70" font-size="16" font-family="Arial, PingFang SC, Microsoft YaHei, sans-serif" fill="#333">其他主营业务</text>
<line x1="90" y1="130" x2="90" y2="630" stroke="#555" stroke-width="1"/>
<line x1="90" y1="630.0" x2="1130" y2="630.0" stroke="#555" stroke-width="1"/>
<line x1="90" y1="630.0" x2="1130" y2="630.0" stroke="#eee" stroke-width="1"/>
<text x="78" y="635.0" text-anchor="end" font-size="14" font-family="Arial, PingFang SC, Microsoft YaHei, sans-serif" fill="#666">0.00</text>
<line x1="90" y1="530.0" x2="1130" y2="530.0" stroke="#eee" stroke-width="1"/>
<text x="78" y="535.0" text-anchor="end" font-size="14" font-family="Arial, PingFang SC, Microsoft YaHei, sans-serif" fill="#666">94.40</text>
<line x1="90" y1="430.00000000000006" x2="1130" y2="430.00000000000006" stroke="#eee" stroke-width="1"/>
<text x="78" y="435.00000000000006" text-anchor="end" font-size="14" font-family="Arial, PingFang SC, Microsoft YaHei, sans-serif" fill="#666">188.80</text>
<line x1="90" y1="330.0" x2="1130" y2="330.0" stroke="#eee" stroke-width="1"/>
<text x="78" y="335.0" text-anchor="end" font-size="14" font-family="Arial, PingFang SC, Microsoft YaHei, sans-serif" fill="#666">283.21</text>
<line x1="90" y1="230.0" x2="1130" y2="230.0" stroke="#eee" stroke-width="1"/>
<text x="78" y="235.0" text-anchor="end" font-size="14" font-family="Arial, PingFang SC, Microsoft YaHei, sans-serif" fill="#666">377.61</text>
<line x1="90" y1="129.99999999999994" x2="1130" y2="129.99999999999994" stroke="#eee" stroke-width="1"/>
<text x="78" y="134.99999999999994" text-anchor="end" font-size="14" font-family="Arial, PingFang SC, Microsoft YaHei, sans-serif" fill="#666">472.01</text>
<text x="194.0" y="658" text-anchor="middle" font-size="14" font-family="Arial, PingFang SC, Microsoft YaHei, sans-serif" fill="#666">2021</text>
<text x="402.0" y="658" text-anchor="middle" font-size="14" font-family="Arial, PingFang SC, Microsoft YaHei, sans-serif" fill="#666">2022</text>
<text x="610.0" y="658" text-anchor="middle" font-size="14" font-family="Arial, PingFang SC, Microsoft YaHei, sans-serif" fill="#666">2023</text>
<text x="818.0" y="658" text-anchor="middle" font-size="14" font-family="Arial, PingFang SC, Microsoft YaHei, sans-serif" fill="#666">2024</text>
<text x="1026.0" y="658" text-anchor="middle" font-size="14" font-family="Arial, PingFang SC, Microsoft YaHei, sans-serif" fill="#666">2025</text>
<rect x="123.28" y="485.38" width="26.02" height="144.62" fill="#4E79A7" opacity="0.85"/>
<rect x="331.28" y="403.95" width="26.02" height="226.05" fill="#4E79A7" opacity="0.85"/>
<rect x="539.28" y="305.52" width="26.02" height="324.48" fill="#4E79A7" opacity="0.85"/>
<rect x="747.28" y="213.59" width="26.02" height="416.41" fill="#4E79A7" opacity="0.85"/>
<rect x="955.28" y="130.00" width="26.02" height="500.00" fill="#4E79A7" opacity="0.85"/>
<rect x="151.57" y="511.03" width="26.02" height="118.97" fill="#F28E2B" opacity="0.85"/>
<rect x="359.57" y="449.93" width="26.02" height="180.07" fill="#F28E2B" opacity="0.85"/>
<rect x="567.57" y="396.39" width="26.02" height="233.61" fill="#F28E2B" opacity="0.85"/>
<rect x="775.57" y="352.52" width="26.02" height="277.48" fill="#F28E2B" opacity="0.85"/>
<rect x="983.57" y="311.73" width="26.02" height="318.27" fill="#F28E2B" opacity="0.85"/>
<rect x="179.86" y="609.26" width="26.02" height="20.74" fill="#E15759" opacity="0.85"/>
<rect x="387.86" y="593.62" width="26.02" height="36.38" fill="#E15759" opacity="0.85"/>
<rect x="595.86" y="563.01" width="26.02" height="66.99" fill="#E15759" opacity="0.85"/>
<rect x="803.86" y="524.27" width="26.02" height="105.73" fill="#E15759" opacity="0.85"/>
<rect x="1011.86" y="483.32" width="26.02" height="146.68" fill="#E15759" opacity="0.85"/>
<rect x="208.14" y="617.45" width="26.02" height="12.55" fill="#76B7B2" opacity="0.85"/>
<rect x="416.14" y="613.19" width="26.02" height="16.81" fill="#76B7B2" opacity="0.85"/>
<rect x="624.14" y="605.42" width="26.02" height="24.58" fill="#76B7B2" opacity="0.85"/>
<rect x="832.14" y="603.88" width="26.02" height="26.12" fill="#76B7B2" opacity="0.85"/>
<rect x="1040.14" y="593.48" width="26.02" height="36.52" fill="#76B7B2" opacity="0.85"/>
<rect x="236.43" y="625.10" width="26.02" height="4.90" fill="#59A14F" opacity="0.85"/>
<rect x="444.43" y="620.40" width="26.02" height="9.60" fill="#59A14F" opacity="0.85"/>
<rect x="652.43" y="606.10" width="26.02" height="23.90" fill="#59A14F" opacity="0.85"/>
<rect x="860.43" y="596.79" width="26.02" height="33.21" fill="#59A14F" opacity="0.85"/>
<rect x="1068.43" y="594.94" width="26.02" height="35.06" fill="#59A14F" opacity="0.85"/>
</svg>