<svg xmlns="http://www.w3.org/2000/svg" width="1200" height="720" viewBox="0 0 1200 720">
<rect x="0" y="0" width="100%" height="100%" fill="#ffffff"/>
<text x="40" y="42" font-size="26" font-family="Arial, PingFang SC, Microsoft YaHei, sans-serif" fill="#222">净利润趋势图</text>
<rect x="40" y="60" width="22" height="10" fill="#4E79A7"/>
<text x="68" y="70" font-size="16" font-family="Arial, PingFang SC, Microsoft YaHei, sans-serif" fill="#333">净利润</text>
<rect x="210" y="60" width="22" height="10" fill="#F28E2B"/>
<text x="238" y="70" font-size="16" font-family="Arial, PingFang SC, Microsoft YaHei, sans-serif" fill="#333">营业收入</text>
<line x1="90" y1="130" x2="90" y2="630" stroke="#555" stroke-width="1"/>
<line x1="90" y1="630.0" x2="1130" y2="630.0" stroke="#555" stroke-width="1"/>
<line x1="90" y1="630.0" x2="1130" y2="630.0" stroke="#eee" stroke-width="1"/>
<text x="78" y="635.0" text-anchor="end" font-size="14" font-family="Arial, PingFang SC, Microsoft YaHei, sans-serif" fill="#666">0.00</text>
<line x1="90" y1="530.0" x2="1130" y2="530.0" stroke="#eee" stroke-width="1"/>
<text x="78" y="535.0" text-anchor="end" font-size="14" font-family="Arial, PingFang SC, Microsoft YaHei, sans-serif" fill="#666">67.87</text>
<line x1="90" y1="430.00000000000006" x2="1130" y2="430.00000000000006" stroke="#eee" stroke-width="1"/>
<text x="78" y="435.00000000000006" text-anchor="end" font-size="14" font-family="Arial, PingFang SC, Microsoft YaHei, sans-serif" fill="#666">135.75</text>
<line x1="90" y1="330.0" x2="1130" y2="330.0" stroke="#eee" stroke-width="1"/>
<text x="78" y="335.0" text-anchor="end" font-size="14" font-family="Arial, PingFang SC, Microsoft YaHei, sans-serif" fill="#666">203.62</text>
<line x1="90" y1="230.00000000000003" x2="1130" y2="230.00000000000003" stroke="#eee" stroke-width="1"/>
<text x="78" y="235.00000000000003" text-anchor="end" font-size="14" font-family="Arial, PingFang SC, Microsoft YaHei, sans-serif" fill="#666">271.50</text>
<line x1="90" y1="130.0" x2="1130" y2="130.0" stroke="#eee" stroke-width="1"/>
<text x="78" y="135.0" text-anchor="end" font-size="14" font-family="Arial, PingFang SC, Microsoft YaHei, sans-serif" fill="#666">339.37</text>
<text x="194.0" y="658" text-anchor="middle" font-size="14" font-family="Arial, PingFang SC, Microsoft YaHei, sans-serif" fill="#666">2021</text>
<text x="402.0" y="658" text-anchor="middle" font-size="14" font-family="Arial, PingFang SC, Microsoft YaHei, sans-serif" fill="#666">2022</text>
<text x="610.0" y="658" text-anchor="middle" font-size="14" font-family="Arial, PingFang SC, Microsoft YaHei, sans-serif" fill="#666">2023</text>
<text x="818.0" y="658" text-anchor="middle" font-size="14" font-family="Arial, PingFang SC, Microsoft YaHei, sans-serif" fill="#666">2024</text>
<text x="1026.0" y="658" text-anchor="middle" font-size="14" font-family="Arial, PingFang SC, Microsoft YaHei, sans-serif" fill="#666">2025</text>
<rect x="123.28" y="583.52" width="130.12" height="46.48" fill="#4E79A7" opacity="0.85"/>
<rect x="331.28" y="575.33" width="130.12" height="54.67" fill="#4E79A7" opacity="0.85"/>
<rect x="539.28" y="567.12" width="130.12" height="62.88" fill="#4E79A7" opacity="0.85"/>
<rect x="747.28" y="565.98" width="130.12" height="64.02" fill="#4E79A7" opacity="0.85"/>
<rect x="955.28" y="562.40" width="130.12" height="67.60" fill="#4E79A7" opacity="0.85"/>
<polyline fill="none" stroke="#F28E2B" stroke-width="3" points="194.00,185.54 402.00,156.00 610.00,130.00 818.00,156.50 1026.00,151.57"/>
<circle cx="194.00" cy="185.54" r="4" fill="#F28E2B"/>
<circle cx="402.00" cy="156.00" r="4" fill="#F28E2B"/>
<circle cx="610.00" cy="130.00" r="4" fill="#F28E2B"/>
<circle cx="818.00" cy="156.50" r="4" fill="#F28E2B"/>
<circle cx="1026.00" cy="151.57" r="4" fill="#F28E2B"/>
</svg>