<svg xmlns="http://www.w3.org/2000/svg" width="1200" height="720" viewBox="0 0 1200 720">
<rect x="0" y="0" width="100%" height="100%" fill="#ffffff"/>
<text x="40" y="42" font-size="26" font-family="Arial, PingFang SC, Microsoft YaHei, sans-serif" fill="#222">分产品收入变化图</text>
<rect x="40" y="60" width="22" height="10" fill="#4E79A7"/>
<text x="68" y="70" font-size="16" font-family="Arial, PingFang SC, Microsoft YaHei, sans-serif" fill="#333">啤酒</text>
<rect x="210" y="60" width="22" height="10" fill="#F28E2B"/>
<text x="238" y="70" font-size="16" font-family="Arial, PingFang SC, Microsoft YaHei, sans-serif" fill="#333">啤酒(行业)</text>
<rect x="380" y="60" width="22" height="10" fill="#E15759"/>
<text x="408" y="70" font-size="16" font-family="Arial, PingFang SC, Microsoft YaHei, sans-serif" fill="#333">山东</text>
<rect x="550" y="60" width="22" height="10" fill="#76B7B2"/>
<text x="578" y="70" font-size="16" font-family="Arial, PingFang SC, Microsoft YaHei, sans-serif" fill="#333">东南</text>
<rect x="720" y="60" width="22" height="10" fill="#59A14F"/>
<text x="748" y="70" font-size="16" font-family="Arial, PingFang SC, Microsoft YaHei, sans-serif" fill="#333">其他业务</text>
<line x1="90" y1="130" x2="90" y2="630" stroke="#555" stroke-width="1"/>
<line x1="90" y1="630.0" x2="1130" y2="630.0" stroke="#555" stroke-width="1"/>
<line x1="90" y1="630.0" x2="1130" y2="630.0" stroke="#eee" stroke-width="1"/>
<text x="78" y="635.0" text-anchor="end" font-size="14" font-family="Arial, PingFang SC, Microsoft YaHei, sans-serif" fill="#666">0.00</text>
<line x1="90" y1="530.0" x2="1130" y2="530.0" stroke="#eee" stroke-width="1"/>
<text x="78" y="535.0" text-anchor="end" font-size="14" font-family="Arial, PingFang SC, Microsoft YaHei, sans-serif" fill="#666">109.54</text>
<line x1="90" y1="430.0" x2="1130" y2="430.0" stroke="#eee" stroke-width="1"/>
<text x="78" y="435.0" text-anchor="end" font-size="14" font-family="Arial, PingFang SC, Microsoft YaHei, sans-serif" fill="#666">219.08</text>
<line x1="90" y1="330.0" x2="1130" y2="330.0" stroke="#eee" stroke-width="1"/>
<text x="78" y="335.0" text-anchor="end" font-size="14" font-family="Arial, PingFang SC, Microsoft YaHei, sans-serif" fill="#666">328.63</text>
<line x1="90" y1="230.0" x2="1130" y2="230.0" stroke="#eee" stroke-width="1"/>
<text x="78" y="235.0" text-anchor="end" font-size="14" font-family="Arial, PingFang SC, Microsoft YaHei, sans-serif" fill="#666">438.17</text>
<line x1="90" y1="130.0" x2="1130" y2="130.0" stroke="#eee" stroke-width="1"/>
<text x="78" y="135.0" text-anchor="end" font-size="14" font-family="Arial, PingFang SC, Microsoft YaHei, sans-serif" fill="#666">547.71</text>
<text x="194.0" y="658" text-anchor="middle" font-size="14" font-family="Arial, PingFang SC, Microsoft YaHei, sans-serif" fill="#666">2021</text>
<text x="402.0" y="658" text-anchor="middle" font-size="14" font-family="Arial, PingFang SC, Microsoft YaHei, sans-serif" fill="#666">2022</text>
<text x="610.0" y="658" text-anchor="middle" font-size="14" font-family="Arial, PingFang SC, Microsoft YaHei, sans-serif" fill="#666">2023</text>
<text x="818.0" y="658" text-anchor="middle" font-size="14" font-family="Arial, PingFang SC, Microsoft YaHei, sans-serif" fill="#666">2024</text>
<text x="1026.0" y="658" text-anchor="middle" font-size="14" font-family="Arial, PingFang SC, Microsoft YaHei, sans-serif" fill="#666">2025</text>
<rect x="123.28" y="194.51" width="26.02" height="435.49" fill="#4E79A7" opacity="0.85"/>
<rect x="331.28" y="166.57" width="26.02" height="463.43" fill="#4E79A7" opacity="0.85"/>
<rect x="539.28" y="130.00" width="26.02" height="500.00" fill="#4E79A7" opacity="0.85"/>
<rect x="747.28" y="160.71" width="26.02" height="469.29" fill="#4E79A7" opacity="0.85"/>
<rect x="955.28" y="154.89" width="26.02" height="475.11" fill="#4E79A7" opacity="0.85"/>
<rect x="151.57" y="359.12" width="26.02" height="270.88" fill="#F28E2B" opacity="0.85"/>
<rect x="359.57" y="340.64" width="26.02" height="289.36" fill="#F28E2B" opacity="0.85"/>
<rect x="567.57" y="325.04" width="26.02" height="304.96" fill="#F28E2B" opacity="0.85"/>
<rect x="775.57" y="341.72" width="26.02" height="288.28" fill="#F28E2B" opacity="0.85"/>
<rect x="983.57" y="339.43" width="26.02" height="290.57" fill="#F28E2B" opacity="0.85"/>
<rect x="179.86" y="347.99" width="26.02" height="282.01" fill="#E15759" opacity="0.85"/>
<rect x="387.86" y="327.09" width="26.02" height="302.91" fill="#E15759" opacity="0.85"/>
<rect x="595.86" y="298.83" width="26.02" height="331.17" fill="#E15759" opacity="0.85"/>
<rect x="803.86" y="310.43" width="26.02" height="319.57" fill="#E15759" opacity="0.85"/>
<rect x="1011.86" y="306.54" width="26.02" height="323.46" fill="#E15759" opacity="0.85"/>
<rect x="208.14" y="617.48" width="26.02" height="12.52" fill="#76B7B2" opacity="0.85"/>
<rect x="416.14" y="617.30" width="26.02" height="12.70" fill="#76B7B2" opacity="0.85"/>
<rect x="624.14" y="617.28" width="26.02" height="12.72" fill="#76B7B2" opacity="0.85"/>
<rect x="832.14" y="620.61" width="26.02" height="9.39" fill="#76B7B2" opacity="0.85"/>
<rect x="1040.14" y="620.67" width="26.02" height="9.33" fill="#76B7B2" opacity="0.85"/>
<rect x="236.43" y="623.12" width="26.02" height="6.88" fill="#59A14F" opacity="0.85"/>
<rect x="444.43" y="623.80" width="26.02" height="6.20" fill="#59A14F" opacity="0.85"/>
<rect x="652.43" y="623.09" width="26.02" height="6.91" fill="#59A14F" opacity="0.85"/>
<rect x="860.43" y="622.71" width="26.02" height="7.29" fill="#59A14F" opacity="0.85"/>
<rect x="1068.43" y="621.59" width="26.02" height="8.41" fill="#59A14F" opacity="0.85"/>
</svg>