<svg xmlns="http://www.w3.org/2000/svg" width="1200" height="720" viewBox="0 0 1200 720">
<rect x="0" y="0" width="100%" height="100%" fill="#ffffff"/>
<text x="40" y="42" font-size="26" font-family="Arial, PingFang SC, Microsoft YaHei, sans-serif" fill="#222">财务比率分析图</text>
<rect x="40" y="60" width="22" height="10" fill="#4E79A7"/>
<text x="68" y="70" font-size="16" font-family="Arial, PingFang SC, Microsoft YaHei, sans-serif" fill="#333">资产负债率</text>
<rect x="210" y="60" width="22" height="10" fill="#F28E2B"/>
<text x="238" y="70" font-size="16" font-family="Arial, PingFang SC, Microsoft YaHei, sans-serif" fill="#333">流动比率</text>
<rect x="380" y="60" width="22" height="10" fill="#E15759"/>
<text x="408" y="70" font-size="16" font-family="Arial, PingFang SC, Microsoft YaHei, sans-serif" fill="#333">速动比率</text>
<rect x="550" y="60" width="22" height="10" fill="#76B7B2"/>
<text x="578" y="70" font-size="16" font-family="Arial, PingFang SC, Microsoft YaHei, sans-serif" fill="#333">应收周转率</text>
<rect x="720" y="60" width="22" height="10" fill="#59A14F"/>
<text x="748" y="70" font-size="16" font-family="Arial, PingFang SC, Microsoft YaHei, sans-serif" fill="#333">存货周转率</text>
<line x1="90" y1="130" x2="90" y2="630" stroke="#555" stroke-width="1"/>
<line x1="90" y1="630.0" x2="1130" y2="630.0" stroke="#555" stroke-width="1"/>
<line x1="90" y1="630.0" x2="1130" y2="630.0" stroke="#eee" stroke-width="1"/>
<text x="78" y="635.0" text-anchor="end" font-size="14" font-family="Arial, PingFang SC, Microsoft YaHei, sans-serif" fill="#666">0.00</text>
<line x1="90" y1="530.0" x2="1130" y2="530.0" stroke="#eee" stroke-width="1"/>
<text x="78" y="535.0" text-anchor="end" font-size="14" font-family="Arial, PingFang SC, Microsoft YaHei, sans-serif" fill="#666">12.58</text>
<line x1="90" y1="430.0" x2="1130" y2="430.0" stroke="#eee" stroke-width="1"/>
<text x="78" y="435.0" text-anchor="end" font-size="14" font-family="Arial, PingFang SC, Microsoft YaHei, sans-serif" fill="#666">25.15</text>
<line x1="90" y1="330.0" x2="1130" y2="330.0" stroke="#eee" stroke-width="1"/>
<text x="78" y="335.0" text-anchor="end" font-size="14" font-family="Arial, PingFang SC, Microsoft YaHei, sans-serif" fill="#666">37.73</text>
<line x1="90" y1="230.0" x2="1130" y2="230.0" stroke="#eee" stroke-width="1"/>
<text x="78" y="235.0" text-anchor="end" font-size="14" font-family="Arial, PingFang SC, Microsoft YaHei, sans-serif" fill="#666">50.30</text>
<line x1="90" y1="129.99999999999994" x2="1130" y2="129.99999999999994" stroke="#eee" stroke-width="1"/>
<text x="78" y="134.99999999999994" text-anchor="end" font-size="14" font-family="Arial, PingFang SC, Microsoft YaHei, sans-serif" fill="#666">62.88</text>
<text x="194.0" y="658" text-anchor="middle" font-size="14" font-family="Arial, PingFang SC, Microsoft YaHei, sans-serif" fill="#666">2021</text>
<text x="402.0" y="658" text-anchor="middle" font-size="14" font-family="Arial, PingFang SC, Microsoft YaHei, sans-serif" fill="#666">2022</text>
<text x="610.0" y="658" text-anchor="middle" font-size="14" font-family="Arial, PingFang SC, Microsoft YaHei, sans-serif" fill="#666">2023</text>
<text x="818.0" y="658" text-anchor="middle" font-size="14" font-family="Arial, PingFang SC, Microsoft YaHei, sans-serif" fill="#666">2024</text>
<text x="1026.0" y="658" text-anchor="middle" font-size="14" font-family="Arial, PingFang SC, Microsoft YaHei, sans-serif" fill="#666">2025</text>
<rect x="123.28" y="510.73" width="65.06" height="119.27" fill="#4E79A7" opacity="0.85"/>
<rect x="331.28" y="528.62" width="65.06" height="101.38" fill="#4E79A7" opacity="0.85"/>
<rect x="539.28" y="533.78" width="65.06" height="96.22" fill="#4E79A7" opacity="0.85"/>
<rect x="747.28" y="554.70" width="65.06" height="75.30" fill="#4E79A7" opacity="0.85"/>
<rect x="955.28" y="547.30" width="65.06" height="82.70" fill="#4E79A7" opacity="0.85"/>
<rect x="194.00" y="183.51" width="65.06" height="446.49" fill="#F28E2B" opacity="0.85"/>
<rect x="402.00" y="247.13" width="65.06" height="382.87" fill="#F28E2B" opacity="0.85"/>
<rect x="610.00" y="131.67" width="65.06" height="498.33" fill="#F28E2B" opacity="0.85"/>
<rect x="818.00" y="187.09" width="65.06" height="442.91" fill="#F28E2B" opacity="0.85"/>
<rect x="1026.00" y="274.40" width="65.06" height="355.60" fill="#F28E2B" opacity="0.85"/>
<polyline fill="none" stroke="#E15759" stroke-width="3" points="194.00,295.39 402.00,310.42 610.00,130.00 818.00,146.62 1026.00,166.66"/>
<circle cx="194.00" cy="295.39" r="4" fill="#E15759"/>
<circle cx="402.00" cy="310.42" r="4" fill="#E15759"/>
<circle cx="610.00" cy="130.00" r="4" fill="#E15759"/>
<circle cx="818.00" cy="146.62" r="4" fill="#E15759"/>
<circle cx="1026.00" cy="166.66" r="4" fill="#E15759"/>
<polyline fill="none" stroke="#76B7B2" stroke-width="3" points="194.00,627.30 402.00,627.69 610.00,629.05 818.00,629.13 1026.00,629.05"/>
<circle cx="194.00" cy="627.30" r="4" fill="#76B7B2"/>
<circle cx="402.00" cy="627.69" r="4" fill="#76B7B2"/>
<circle cx="610.00" cy="629.05" r="4" fill="#76B7B2"/>
<circle cx="818.00" cy="629.13" r="4" fill="#76B7B2"/>
<circle cx="1026.00" cy="629.05" r="4" fill="#76B7B2"/>
<polyline fill="none" stroke="#59A14F" stroke-width="3" points="194.00,627.38 402.00,627.77 610.00,629.05 818.00,629.20 1026.00,629.13"/>
<circle cx="194.00" cy="627.38" r="4" fill="#59A14F"/>
<circle cx="402.00" cy="627.77" r="4" fill="#59A14F"/>
<circle cx="610.00" cy="629.05" r="4" fill="#59A14F"/>
<circle cx="818.00" cy="629.20" r="4" fill="#59A14F"/>
<circle cx="1026.00" cy="629.13" r="4" fill="#59A14F"/>
</svg>