<svg xmlns="http://www.w3.org/2000/svg" width="1200" height="720" viewBox="0 0 1200 720">
<rect x="0" y="0" width="100%" height="100%" fill="#ffffff"/>
<text x="40" y="42" font-size="26" font-family="Arial, PingFang SC, Microsoft YaHei, sans-serif" fill="#222">毛利率和净利率对比图</text>
<rect x="40" y="60" width="22" height="10" fill="#4E79A7"/>
<text x="68" y="70" font-size="16" font-family="Arial, PingFang SC, Microsoft YaHei, sans-serif" fill="#333">毛利率</text>
<rect x="210" y="60" width="22" height="10" fill="#F28E2B"/>
<text x="238" y="70" font-size="16" font-family="Arial, PingFang SC, Microsoft YaHei, sans-serif" fill="#333">净利率</text>
<line x1="90" y1="130" x2="90" y2="630" stroke="#555" stroke-width="1"/>
<line x1="90" y1="630.0" x2="1130" y2="630.0" stroke="#555" stroke-width="1"/>
<line x1="90" y1="630.0" x2="1130" y2="630.0" stroke="#eee" stroke-width="1"/>
<text x="78" y="635.0" text-anchor="end" font-size="14" font-family="Arial, PingFang SC, Microsoft YaHei, sans-serif" fill="#666">0.00</text>
<line x1="90" y1="530.0" x2="1130" y2="530.0" stroke="#eee" stroke-width="1"/>
<text x="78" y="535.0" text-anchor="end" font-size="14" font-family="Arial, PingFang SC, Microsoft YaHei, sans-serif" fill="#666">11.19</text>
<line x1="90" y1="430.0" x2="1130" y2="430.0" stroke="#eee" stroke-width="1"/>
<text x="78" y="435.0" text-anchor="end" font-size="14" font-family="Arial, PingFang SC, Microsoft YaHei, sans-serif" fill="#666">22.38</text>
<line x1="90" y1="329.99999999999994" x2="1130" y2="329.99999999999994" stroke="#eee" stroke-width="1"/>
<text x="78" y="334.99999999999994" text-anchor="end" font-size="14" font-family="Arial, PingFang SC, Microsoft YaHei, sans-serif" fill="#666">33.57</text>
<line x1="90" y1="229.99999999999997" x2="1130" y2="229.99999999999997" stroke="#eee" stroke-width="1"/>
<text x="78" y="234.99999999999997" text-anchor="end" font-size="14" font-family="Arial, PingFang SC, Microsoft YaHei, sans-serif" fill="#666">44.76</text>
<line x1="90" y1="130.0" x2="1130" y2="130.0" stroke="#eee" stroke-width="1"/>
<text x="78" y="135.0" text-anchor="end" font-size="14" font-family="Arial, PingFang SC, Microsoft YaHei, sans-serif" fill="#666">55.95</text>
<text x="220.0" y="658" text-anchor="middle" font-size="14" font-family="Arial, PingFang SC, Microsoft YaHei, sans-serif" fill="#666">2022</text>
<text x="480.0" y="658" text-anchor="middle" font-size="14" font-family="Arial, PingFang SC, Microsoft YaHei, sans-serif" fill="#666">2023</text>
<text x="740.0" y="658" text-anchor="middle" font-size="14" font-family="Arial, PingFang SC, Microsoft YaHei, sans-serif" fill="#666">2024</text>
<text x="1000.0" y="658" text-anchor="middle" font-size="14" font-family="Arial, PingFang SC, Microsoft YaHei, sans-serif" fill="#666">2025</text>
<rect x="131.60" y="169.86" width="81.33" height="460.14" fill="#4E79A7" opacity="0.85"/>
<rect x="391.60" y="130.00" width="81.33" height="500.00" fill="#4E79A7" opacity="0.85"/>
<rect x="651.60" y="163.51" width="81.33" height="466.49" fill="#4E79A7" opacity="0.85"/>
<rect x="911.60" y="221.24" width="81.33" height="408.76" fill="#4E79A7" opacity="0.85"/>
<rect x="220.00" y="451.63" width="81.33" height="178.37" fill="#F28E2B" opacity="0.85"/>
<rect x="480.00" y="426.16" width="81.33" height="203.84" fill="#F28E2B" opacity="0.85"/>
<rect x="740.00" y="470.48" width="81.33" height="159.52" fill="#F28E2B" opacity="0.85"/>
<rect x="1000.00" y="548.68" width="81.33" height="81.32" fill="#F28E2B" opacity="0.85"/>
</svg>