<svg xmlns="http://www.w3.org/2000/svg" width="1200" height="720" viewBox="0 0 1200 720">
<rect x="0" y="0" width="100%" height="100%" fill="#ffffff"/>
<text x="40" y="42" font-size="26" font-family="Arial, PingFang SC, Microsoft YaHei, sans-serif" fill="#222">分产品收入变化图</text>
<rect x="40" y="60" width="22" height="10" fill="#4E79A7"/>
<text x="68" y="70" font-size="16" font-family="Arial, PingFang SC, Microsoft YaHei, sans-serif" fill="#333">谐波减速器及金属部件</text>
<rect x="210" y="60" width="22" height="10" fill="#F28E2B"/>
<text x="238" y="70" font-size="16" font-family="Arial, PingFang SC, Microsoft YaHei, sans-serif" fill="#333">机器人</text>
<rect x="380" y="60" width="22" height="10" fill="#E15759"/>
<text x="408" y="70" font-size="16" font-family="Arial, PingFang SC, Microsoft YaHei, sans-serif" fill="#333">机械装备</text>
<rect x="550" y="60" width="22" height="10" fill="#76B7B2"/>
<text x="578" y="70" font-size="16" font-family="Arial, PingFang SC, Microsoft YaHei, sans-serif" fill="#333">机电一体化产品</text>
<rect x="720" y="60" width="22" height="10" fill="#59A14F"/>
<text x="748" y="70" font-size="16" font-family="Arial, PingFang SC, Microsoft YaHei, sans-serif" fill="#333">国外</text>
<line x1="90" y1="130" x2="90" y2="630" stroke="#555" stroke-width="1"/>
<line x1="90" y1="630.0" x2="1130" y2="630.0" stroke="#555" stroke-width="1"/>
<line x1="90" y1="630.0" x2="1130" y2="630.0" stroke="#eee" stroke-width="1"/>
<text x="78" y="635.0" text-anchor="end" font-size="14" font-family="Arial, PingFang SC, Microsoft YaHei, sans-serif" fill="#666">0.00</text>
<line x1="90" y1="530.0" x2="1130" y2="530.0" stroke="#eee" stroke-width="1"/>
<text x="78" y="535.0" text-anchor="end" font-size="14" font-family="Arial, PingFang SC, Microsoft YaHei, sans-serif" fill="#666">1.35</text>
<line x1="90" y1="430.0" x2="1130" y2="430.0" stroke="#eee" stroke-width="1"/>
<text x="78" y="435.0" text-anchor="end" font-size="14" font-family="Arial, PingFang SC, Microsoft YaHei, sans-serif" fill="#666">2.69</text>
<line x1="90" y1="330.0" x2="1130" y2="330.0" stroke="#eee" stroke-width="1"/>
<text x="78" y="335.0" text-anchor="end" font-size="14" font-family="Arial, PingFang SC, Microsoft YaHei, sans-serif" fill="#666">4.04</text>
<line x1="90" y1="230.0" x2="1130" y2="230.0" stroke="#eee" stroke-width="1"/>
<text x="78" y="235.0" text-anchor="end" font-size="14" font-family="Arial, PingFang SC, Microsoft YaHei, sans-serif" fill="#666">5.38</text>
<line x1="90" y1="129.99999999999994" x2="1130" y2="129.99999999999994" stroke="#eee" stroke-width="1"/>
<text x="78" y="134.99999999999994" text-anchor="end" font-size="14" font-family="Arial, PingFang SC, Microsoft YaHei, sans-serif" fill="#666">6.73</text>
<text x="194.0" y="658" text-anchor="middle" font-size="14" font-family="Arial, PingFang SC, Microsoft YaHei, sans-serif" fill="#666">2021</text>
<text x="402.0" y="658" text-anchor="middle" font-size="14" font-family="Arial, PingFang SC, Microsoft YaHei, sans-serif" fill="#666">2022</text>
<text x="610.0" y="658" text-anchor="middle" font-size="14" font-family="Arial, PingFang SC, Microsoft YaHei, sans-serif" fill="#666">2023</text>
<text x="818.0" y="658" text-anchor="middle" font-size="14" font-family="Arial, PingFang SC, Microsoft YaHei, sans-serif" fill="#666">2024</text>
<text x="1026.0" y="658" text-anchor="middle" font-size="14" font-family="Arial, PingFang SC, Microsoft YaHei, sans-serif" fill="#666">2025</text>
<rect x="123.28" y="191.66" width="26.02" height="438.34" fill="#4E79A7" opacity="0.85"/>
<rect x="331.28" y="149.32" width="26.02" height="480.68" fill="#4E79A7" opacity="0.85"/>
<rect x="539.28" y="280.82" width="26.02" height="349.18" fill="#4E79A7" opacity="0.85"/>
<rect x="747.28" y="279.33" width="26.02" height="350.67" fill="#4E79A7" opacity="0.85"/>
<rect x="955.28" y="130.00" width="26.02" height="500.00" fill="#4E79A7" opacity="0.85"/>
<rect x="151.57" y="363.28" width="26.02" height="266.72" fill="#F28E2B" opacity="0.85"/>
<rect x="359.57" y="361.80" width="26.02" height="268.20" fill="#F28E2B" opacity="0.85"/>
<rect x="567.57" y="432.38" width="26.02" height="197.62" fill="#F28E2B" opacity="0.85"/>
<rect x="775.57" y="424.21" width="26.02" height="205.79" fill="#F28E2B" opacity="0.85"/>
<rect x="983.57" y="315.74" width="26.02" height="314.26" fill="#F28E2B" opacity="0.85"/>
<rect x="179.86" y="596.57" width="26.02" height="33.43" fill="#E15759" opacity="0.85"/>
<rect x="387.86" y="598.80" width="26.02" height="31.20" fill="#E15759" opacity="0.85"/>
<rect x="595.86" y="600.28" width="26.02" height="29.72" fill="#E15759" opacity="0.85"/>
<rect x="803.86" y="580.22" width="26.02" height="49.78" fill="#E15759" opacity="0.85"/>
<rect x="1011.86" y="553.48" width="26.02" height="76.52" fill="#E15759" opacity="0.85"/>
<rect x="208.14" y="607.71" width="26.02" height="22.29" fill="#76B7B2" opacity="0.85"/>
<rect x="416.14" y="602.51" width="26.02" height="27.49" fill="#76B7B2" opacity="0.85"/>
<rect x="624.14" y="593.60" width="26.02" height="36.40" fill="#76B7B2" opacity="0.85"/>
<rect x="832.14" y="572.79" width="26.02" height="57.21" fill="#76B7B2" opacity="0.85"/>
<rect x="1040.14" y="543.82" width="26.02" height="86.18" fill="#76B7B2" opacity="0.85"/>
<rect x="236.43" y="548.28" width="26.02" height="81.72" fill="#59A14F" opacity="0.85"/>
<rect x="444.43" y="561.65" width="26.02" height="68.35" fill="#59A14F" opacity="0.85"/>
<rect x="652.43" y="598.05" width="26.02" height="31.95" fill="#59A14F" opacity="0.85"/>
<rect x="860.43" y="577.99" width="26.02" height="52.01" fill="#59A14F" opacity="0.85"/>
<rect x="1068.43" y="565.36" width="26.02" height="64.64" fill="#59A14F" opacity="0.85"/>
</svg>