<svg xmlns="http://www.w3.org/2000/svg" width="1200" height="720" viewBox="0 0 1200 720">
<rect x="0" y="0" width="100%" height="100%" fill="#ffffff"/>
<text x="40" y="42" font-size="26" font-family="Arial, PingFang SC, Microsoft YaHei, sans-serif" fill="#222">财务比率分析图</text>
<rect x="40" y="60" width="22" height="10" fill="#4E79A7"/>
<text x="68" y="70" font-size="16" font-family="Arial, PingFang SC, Microsoft YaHei, sans-serif" fill="#333">资产负债率</text>
<rect x="210" y="60" width="22" height="10" fill="#F28E2B"/>
<text x="238" y="70" font-size="16" font-family="Arial, PingFang SC, Microsoft YaHei, sans-serif" fill="#333">流动比率</text>
<rect x="380" y="60" width="22" height="10" fill="#E15759"/>
<text x="408" y="70" font-size="16" font-family="Arial, PingFang SC, Microsoft YaHei, sans-serif" fill="#333">速动比率</text>
<rect x="550" y="60" width="22" height="10" fill="#76B7B2"/>
<text x="578" y="70" font-size="16" font-family="Arial, PingFang SC, Microsoft YaHei, sans-serif" fill="#333">应收周转率</text>
<rect x="720" y="60" width="22" height="10" fill="#59A14F"/>
<text x="748" y="70" font-size="16" font-family="Arial, PingFang SC, Microsoft YaHei, sans-serif" fill="#333">存货周转率</text>
<line x1="90" y1="130" x2="90" y2="630" stroke="#555" stroke-width="1"/>
<line x1="90" y1="630.0" x2="1130" y2="630.0" stroke="#555" stroke-width="1"/>
<line x1="90" y1="630.0" x2="1130" y2="630.0" stroke="#eee" stroke-width="1"/>
<text x="78" y="635.0" text-anchor="end" font-size="14" font-family="Arial, PingFang SC, Microsoft YaHei, sans-serif" fill="#666">0.00</text>
<line x1="90" y1="530.0" x2="1130" y2="530.0" stroke="#eee" stroke-width="1"/>
<text x="78" y="535.0" text-anchor="end" font-size="14" font-family="Arial, PingFang SC, Microsoft YaHei, sans-serif" fill="#666">5.65</text>
<line x1="90" y1="430.0" x2="1130" y2="430.0" stroke="#eee" stroke-width="1"/>
<text x="78" y="435.0" text-anchor="end" font-size="14" font-family="Arial, PingFang SC, Microsoft YaHei, sans-serif" fill="#666">11.30</text>
<line x1="90" y1="330.0" x2="1130" y2="330.0" stroke="#eee" stroke-width="1"/>
<text x="78" y="335.0" text-anchor="end" font-size="14" font-family="Arial, PingFang SC, Microsoft YaHei, sans-serif" fill="#666">16.95</text>
<line x1="90" y1="229.99999999999997" x2="1130" y2="229.99999999999997" stroke="#eee" stroke-width="1"/>
<text x="78" y="234.99999999999997" text-anchor="end" font-size="14" font-family="Arial, PingFang SC, Microsoft YaHei, sans-serif" fill="#666">22.60</text>
<line x1="90" y1="130.0" x2="1130" y2="130.0" stroke="#eee" stroke-width="1"/>
<text x="78" y="135.0" text-anchor="end" font-size="14" font-family="Arial, PingFang SC, Microsoft YaHei, sans-serif" fill="#666">28.25</text>
<text x="194.0" y="658" text-anchor="middle" font-size="14" font-family="Arial, PingFang SC, Microsoft YaHei, sans-serif" fill="#666">2020</text>
<text x="402.0" y="658" text-anchor="middle" font-size="14" font-family="Arial, PingFang SC, Microsoft YaHei, sans-serif" fill="#666">2021</text>
<text x="610.0" y="658" text-anchor="middle" font-size="14" font-family="Arial, PingFang SC, Microsoft YaHei, sans-serif" fill="#666">2022</text>
<text x="818.0" y="658" text-anchor="middle" font-size="14" font-family="Arial, PingFang SC, Microsoft YaHei, sans-serif" fill="#666">2023</text>
<text x="1026.0" y="658" text-anchor="middle" font-size="14" font-family="Arial, PingFang SC, Microsoft YaHei, sans-serif" fill="#666">2024</text>
<rect x="123.28" y="530.00" width="65.06" height="100.00" fill="#4E79A7" opacity="0.85"/>
<rect x="331.28" y="475.84" width="65.06" height="154.16" fill="#4E79A7" opacity="0.85"/>
<rect x="539.28" y="514.60" width="65.06" height="115.40" fill="#4E79A7" opacity="0.85"/>
<rect x="747.28" y="556.73" width="65.06" height="73.27" fill="#4E79A7" opacity="0.85"/>
<rect x="955.28" y="573.72" width="65.06" height="56.28" fill="#4E79A7" opacity="0.85"/>
<rect x="194.00" y="614.78" width="65.06" height="15.22" fill="#F28E2B" opacity="0.85"/>
<rect x="402.00" y="605.75" width="65.06" height="24.25" fill="#F28E2B" opacity="0.85"/>
<rect x="610.00" y="611.06" width="65.06" height="18.94" fill="#F28E2B" opacity="0.85"/>
<rect x="818.00" y="615.31" width="65.06" height="14.69" fill="#F28E2B" opacity="0.85"/>
<rect x="1026.00" y="612.83" width="65.06" height="17.17" fill="#F28E2B" opacity="0.85"/>
<polyline fill="none" stroke="#E15759" stroke-width="3" points="194.00,505.75 402.00,417.61 610.00,277.79 818.00,130.00 1026.00,476.73"/>
<circle cx="194.00" cy="505.75" r="4" fill="#E15759"/>
<circle cx="402.00" cy="417.61" r="4" fill="#E15759"/>
<circle cx="610.00" cy="277.79" r="4" fill="#E15759"/>
<circle cx="818.00" cy="130.00" r="4" fill="#E15759"/>
<circle cx="1026.00" cy="476.73" r="4" fill="#E15759"/>
<polyline fill="none" stroke="#76B7B2" stroke-width="3" points="194.00,329.47 402.00,500.27 610.00,549.82 818.00,581.68 1026.00,458.67"/>
<circle cx="194.00" cy="329.47" r="4" fill="#76B7B2"/>
<circle cx="402.00" cy="500.27" r="4" fill="#76B7B2"/>
<circle cx="610.00" cy="549.82" r="4" fill="#76B7B2"/>
<circle cx="818.00" cy="581.68" r="4" fill="#76B7B2"/>
<circle cx="1026.00" cy="458.67" r="4" fill="#76B7B2"/>
<polyline fill="none" stroke="#59A14F" stroke-width="3" points="194.00,355.31 402.00,515.66 610.00,562.92 818.00,589.12 1026.00,477.79"/>
<circle cx="194.00" cy="355.31" r="4" fill="#59A14F"/>
<circle cx="402.00" cy="515.66" r="4" fill="#59A14F"/>
<circle cx="610.00" cy="562.92" r="4" fill="#59A14F"/>
<circle cx="818.00" cy="589.12" r="4" fill="#59A14F"/>
<circle cx="1026.00" cy="477.79" r="4" fill="#59A14F"/>
</svg>