<svg xmlns="http://www.w3.org/2000/svg" width="1200" height="720" viewBox="0 0 1200 720">
<rect x="0" y="0" width="100%" height="100%" fill="#ffffff"/>
<text x="40" y="42" font-size="26" font-family="Arial, PingFang SC, Microsoft YaHei, sans-serif" fill="#222">财务比率分析图</text>
<rect x="40" y="60" width="22" height="10" fill="#4E79A7"/>
<text x="68" y="70" font-size="16" font-family="Arial, PingFang SC, Microsoft YaHei, sans-serif" fill="#333">资产负债率</text>
<rect x="210" y="60" width="22" height="10" fill="#F28E2B"/>
<text x="238" y="70" font-size="16" font-family="Arial, PingFang SC, Microsoft YaHei, sans-serif" fill="#333">流动比率</text>
<rect x="380" y="60" width="22" height="10" fill="#E15759"/>
<text x="408" y="70" font-size="16" font-family="Arial, PingFang SC, Microsoft YaHei, sans-serif" fill="#333">速动比率</text>
<rect x="550" y="60" width="22" height="10" fill="#76B7B2"/>
<text x="578" y="70" font-size="16" font-family="Arial, PingFang SC, Microsoft YaHei, sans-serif" fill="#333">应收周转率</text>
<rect x="720" y="60" width="22" height="10" fill="#59A14F"/>
<text x="748" y="70" font-size="16" font-family="Arial, PingFang SC, Microsoft YaHei, sans-serif" fill="#333">存货周转率</text>
<line x1="90" y1="130" x2="90" y2="630" stroke="#555" stroke-width="1"/>
<line x1="90" y1="630.0" x2="1130" y2="630.0" stroke="#555" stroke-width="1"/>
<line x1="90" y1="630.0" x2="1130" y2="630.0" stroke="#eee" stroke-width="1"/>
<text x="78" y="635.0" text-anchor="end" font-size="14" font-family="Arial, PingFang SC, Microsoft YaHei, sans-serif" fill="#666">0.00</text>
<line x1="90" y1="530.0" x2="1130" y2="530.0" stroke="#eee" stroke-width="1"/>
<text x="78" y="535.0" text-anchor="end" font-size="14" font-family="Arial, PingFang SC, Microsoft YaHei, sans-serif" fill="#666">14.46</text>
<line x1="90" y1="430.0" x2="1130" y2="430.0" stroke="#eee" stroke-width="1"/>
<text x="78" y="435.0" text-anchor="end" font-size="14" font-family="Arial, PingFang SC, Microsoft YaHei, sans-serif" fill="#666">28.91</text>
<line x1="90" y1="330.0" x2="1130" y2="330.0" stroke="#eee" stroke-width="1"/>
<text x="78" y="335.0" text-anchor="end" font-size="14" font-family="Arial, PingFang SC, Microsoft YaHei, sans-serif" fill="#666">43.37</text>
<line x1="90" y1="230.0" x2="1130" y2="230.0" stroke="#eee" stroke-width="1"/>
<text x="78" y="235.0" text-anchor="end" font-size="14" font-family="Arial, PingFang SC, Microsoft YaHei, sans-serif" fill="#666">57.82</text>
<line x1="90" y1="130.0" x2="1130" y2="130.0" stroke="#eee" stroke-width="1"/>
<text x="78" y="135.0" text-anchor="end" font-size="14" font-family="Arial, PingFang SC, Microsoft YaHei, sans-serif" fill="#666">72.28</text>
<text x="194.0" y="658" text-anchor="middle" font-size="14" font-family="Arial, PingFang SC, Microsoft YaHei, sans-serif" fill="#666">2021</text>
<text x="402.0" y="658" text-anchor="middle" font-size="14" font-family="Arial, PingFang SC, Microsoft YaHei, sans-serif" fill="#666">2022</text>
<text x="610.0" y="658" text-anchor="middle" font-size="14" font-family="Arial, PingFang SC, Microsoft YaHei, sans-serif" fill="#666">2023</text>
<text x="818.0" y="658" text-anchor="middle" font-size="14" font-family="Arial, PingFang SC, Microsoft YaHei, sans-serif" fill="#666">2024</text>
<text x="1026.0" y="658" text-anchor="middle" font-size="14" font-family="Arial, PingFang SC, Microsoft YaHei, sans-serif" fill="#666">2025</text>
<rect x="123.28" y="457.06" width="65.06" height="172.94" fill="#4E79A7" opacity="0.85"/>
<rect x="331.28" y="471.80" width="65.06" height="158.20" fill="#4E79A7" opacity="0.85"/>
<rect x="539.28" y="482.66" width="65.06" height="147.34" fill="#4E79A7" opacity="0.85"/>
<rect x="747.28" y="483.76" width="65.06" height="146.24" fill="#4E79A7" opacity="0.85"/>
<rect x="955.28" y="508.32" width="65.06" height="121.68" fill="#4E79A7" opacity="0.85"/>
<rect x="194.00" y="552.66" width="65.06" height="77.34" fill="#F28E2B" opacity="0.85"/>
<rect x="402.00" y="551.56" width="65.06" height="78.44" fill="#F28E2B" opacity="0.85"/>
<rect x="610.00" y="563.25" width="65.06" height="66.75" fill="#F28E2B" opacity="0.85"/>
<rect x="818.00" y="564.35" width="65.06" height="65.65" fill="#F28E2B" opacity="0.85"/>
<rect x="1026.00" y="571.69" width="65.06" height="58.31" fill="#F28E2B" opacity="0.85"/>
<polyline fill="none" stroke="#E15759" stroke-width="3" points="194.00,154.14 402.00,140.03 610.00,142.87 818.00,135.95 1026.00,130.00"/>
<circle cx="194.00" cy="154.14" r="4" fill="#E15759"/>
<circle cx="402.00" cy="140.03" r="4" fill="#E15759"/>
<circle cx="610.00" cy="142.87" r="4" fill="#E15759"/>
<circle cx="818.00" cy="135.95" r="4" fill="#E15759"/>
<circle cx="1026.00" cy="130.00" r="4" fill="#E15759"/>
<polyline fill="none" stroke="#76B7B2" stroke-width="3" points="194.00,624.88 402.00,624.81 610.00,625.43 818.00,625.64 1026.00,626.20"/>
<circle cx="194.00" cy="624.88" r="4" fill="#76B7B2"/>
<circle cx="402.00" cy="624.81" r="4" fill="#76B7B2"/>
<circle cx="610.00" cy="625.43" r="4" fill="#76B7B2"/>
<circle cx="818.00" cy="625.64" r="4" fill="#76B7B2"/>
<circle cx="1026.00" cy="626.20" r="4" fill="#76B7B2"/>
<polyline fill="none" stroke="#59A14F" stroke-width="3" points="194.00,626.47 402.00,626.54 610.00,627.03 818.00,627.16 1026.00,627.72"/>
<circle cx="194.00" cy="626.47" r="4" fill="#59A14F"/>
<circle cx="402.00" cy="626.54" r="4" fill="#59A14F"/>
<circle cx="610.00" cy="627.03" r="4" fill="#59A14F"/>
<circle cx="818.00" cy="627.16" r="4" fill="#59A14F"/>
<circle cx="1026.00" cy="627.72" r="4" fill="#59A14F"/>
</svg>