<svg xmlns="http://www.w3.org/2000/svg" width="1200" height="720" viewBox="0 0 1200 720">
<rect x="0" y="0" width="100%" height="100%" fill="#ffffff"/>
<text x="40" y="42" font-size="26" font-family="Arial, PingFang SC, Microsoft YaHei, sans-serif" fill="#222">分产品收入变化图</text>
<rect x="40" y="60" width="22" height="10" fill="#4E79A7"/>
<text x="68" y="70" font-size="16" font-family="Arial, PingFang SC, Microsoft YaHei, sans-serif" fill="#333">化纤行业</text>
<rect x="210" y="60" width="22" height="10" fill="#F28E2B"/>
<text x="238" y="70" font-size="16" font-family="Arial, PingFang SC, Microsoft YaHei, sans-serif" fill="#333">涤纶产品</text>
<rect x="380" y="60" width="22" height="10" fill="#E15759"/>
<text x="408" y="70" font-size="16" font-family="Arial, PingFang SC, Microsoft YaHei, sans-serif" fill="#333">国外</text>
<rect x="550" y="60" width="22" height="10" fill="#76B7B2"/>
<text x="578" y="70" font-size="16" font-family="Arial, PingFang SC, Microsoft YaHei, sans-serif" fill="#333">石化行业</text>
<rect x="720" y="60" width="22" height="10" fill="#59A14F"/>
<text x="748" y="70" font-size="16" font-family="Arial, PingFang SC, Microsoft YaHei, sans-serif" fill="#333">炼油产品</text>
<line x1="90" y1="130" x2="90" y2="630" stroke="#555" stroke-width="1"/>
<line x1="90" y1="630.0" x2="1130" y2="630.0" stroke="#555" stroke-width="1"/>
<line x1="90" y1="630.0" x2="1130" y2="630.0" stroke="#eee" stroke-width="1"/>
<text x="78" y="635.0" text-anchor="end" font-size="14" font-family="Arial, PingFang SC, Microsoft YaHei, sans-serif" fill="#666">0.00</text>
<line x1="90" y1="530.0" x2="1130" y2="530.0" stroke="#eee" stroke-width="1"/>
<text x="78" y="535.0" text-anchor="end" font-size="14" font-family="Arial, PingFang SC, Microsoft YaHei, sans-serif" fill="#666">180.82</text>
<line x1="90" y1="430.0" x2="1130" y2="430.0" stroke="#eee" stroke-width="1"/>
<text x="78" y="435.0" text-anchor="end" font-size="14" font-family="Arial, PingFang SC, Microsoft YaHei, sans-serif" fill="#666">361.64</text>
<line x1="90" y1="330.0" x2="1130" y2="330.0" stroke="#eee" stroke-width="1"/>
<text x="78" y="335.0" text-anchor="end" font-size="14" font-family="Arial, PingFang SC, Microsoft YaHei, sans-serif" fill="#666">542.47</text>
<line x1="90" y1="230.0" x2="1130" y2="230.0" stroke="#eee" stroke-width="1"/>
<text x="78" y="235.0" text-anchor="end" font-size="14" font-family="Arial, PingFang SC, Microsoft YaHei, sans-serif" fill="#666">723.29</text>
<line x1="90" y1="130.0" x2="1130" y2="130.0" stroke="#eee" stroke-width="1"/>
<text x="78" y="135.0" text-anchor="end" font-size="14" font-family="Arial, PingFang SC, Microsoft YaHei, sans-serif" fill="#666">904.11</text>
<text x="194.0" y="658" text-anchor="middle" font-size="14" font-family="Arial, PingFang SC, Microsoft YaHei, sans-serif" fill="#666">2021</text>
<text x="402.0" y="658" text-anchor="middle" font-size="14" font-family="Arial, PingFang SC, Microsoft YaHei, sans-serif" fill="#666">2022</text>
<text x="610.0" y="658" text-anchor="middle" font-size="14" font-family="Arial, PingFang SC, Microsoft YaHei, sans-serif" fill="#666">2023</text>
<text x="818.0" y="658" text-anchor="middle" font-size="14" font-family="Arial, PingFang SC, Microsoft YaHei, sans-serif" fill="#666">2024</text>
<text x="1026.0" y="658" text-anchor="middle" font-size="14" font-family="Arial, PingFang SC, Microsoft YaHei, sans-serif" fill="#666">2025</text>
<rect x="123.28" y="266.95" width="26.02" height="363.05" fill="#4E79A7" opacity="0.85"/>
<rect x="331.28" y="252.78" width="26.02" height="377.22" fill="#4E79A7" opacity="0.85"/>
<rect x="539.28" y="208.63" width="26.02" height="421.37" fill="#4E79A7" opacity="0.85"/>
<rect x="747.28" y="139.37" width="26.02" height="490.63" fill="#4E79A7" opacity="0.85"/>
<rect x="955.28" y="130.00" width="26.02" height="500.00" fill="#4E79A7" opacity="0.85"/>
<rect x="151.57" y="630.00" width="26.02" height="0.00" fill="#F28E2B" opacity="0.85"/>
<rect x="359.57" y="630.00" width="26.02" height="0.00" fill="#F28E2B" opacity="0.85"/>
<rect x="567.57" y="630.00" width="26.02" height="0.00" fill="#F28E2B" opacity="0.85"/>
<rect x="775.57" y="630.00" width="26.02" height="0.00" fill="#F28E2B" opacity="0.85"/>
<rect x="983.57" y="299.60" width="26.02" height="330.40" fill="#F28E2B" opacity="0.85"/>
<rect x="179.86" y="358.34" width="26.02" height="271.66" fill="#E15759" opacity="0.85"/>
<rect x="387.86" y="178.14" width="26.02" height="451.86" fill="#E15759" opacity="0.85"/>
<rect x="595.86" y="216.68" width="26.02" height="413.32" fill="#E15759" opacity="0.85"/>
<rect x="803.86" y="191.70" width="26.02" height="438.30" fill="#E15759" opacity="0.85"/>
<rect x="1011.86" y="234.16" width="26.02" height="395.84" fill="#E15759" opacity="0.85"/>
<rect x="208.14" y="345.73" width="26.02" height="284.27" fill="#76B7B2" opacity="0.85"/>
<rect x="416.14" y="137.47" width="26.02" height="492.53" fill="#76B7B2" opacity="0.85"/>
<rect x="624.14" y="179.64" width="26.02" height="450.36" fill="#76B7B2" opacity="0.85"/>
<rect x="832.14" y="178.50" width="26.02" height="451.50" fill="#76B7B2" opacity="0.85"/>
<rect x="1040.14" y="251.20" width="26.02" height="378.80" fill="#76B7B2" opacity="0.85"/>
<rect x="236.43" y="439.45" width="26.02" height="190.55" fill="#59A14F" opacity="0.85"/>
<rect x="444.43" y="283.36" width="26.02" height="346.64" fill="#59A14F" opacity="0.85"/>
<rect x="652.43" y="380.88" width="26.02" height="249.12" fill="#59A14F" opacity="0.85"/>
<rect x="860.43" y="356.83" width="26.02" height="273.17" fill="#59A14F" opacity="0.85"/>
<rect x="1068.43" y="396.43" width="26.02" height="233.57" fill="#59A14F" opacity="0.85"/>
</svg>