<svg xmlns="http://www.w3.org/2000/svg" width="1200" height="720" viewBox="0 0 1200 720">
<rect x="0" y="0" width="100%" height="100%" fill="#ffffff"/>
<text x="40" y="42" font-size="26" font-family="Arial, PingFang SC, Microsoft YaHei, sans-serif" fill="#222">分产品利润结构图</text>
<rect x="40" y="60" width="22" height="10" fill="#4E79A7"/>
<text x="68" y="70" font-size="16" font-family="Arial, PingFang SC, Microsoft YaHei, sans-serif" fill="#333">利润</text>
<rect x="210" y="60" width="22" height="10" fill="#F28E2B"/>
<text x="238" y="70" font-size="16" font-family="Arial, PingFang SC, Microsoft YaHei, sans-serif" fill="#333">毛利率</text>
<line x1="90" y1="130" x2="90" y2="630" stroke="#555" stroke-width="1"/>
<line x1="90" y1="604.750974447813" x2="1130" y2="604.750974447813" stroke="#555" stroke-width="1"/>
<line x1="90" y1="630.0" x2="1130" y2="630.0" stroke="#eee" stroke-width="1"/>
<text x="78" y="635.0" text-anchor="end" font-size="14" font-family="Arial, PingFang SC, Microsoft YaHei, sans-serif" fill="#666">-5.83</text>
<line x1="90" y1="530.0" x2="1130" y2="530.0" stroke="#eee" stroke-width="1"/>
<text x="78" y="535.0" text-anchor="end" font-size="14" font-family="Arial, PingFang SC, Microsoft YaHei, sans-serif" fill="#666">17.26</text>
<line x1="90" y1="430.00000000000006" x2="1130" y2="430.00000000000006" stroke="#eee" stroke-width="1"/>
<text x="78" y="435.00000000000006" text-anchor="end" font-size="14" font-family="Arial, PingFang SC, Microsoft YaHei, sans-serif" fill="#666">40.35</text>
<line x1="90" y1="329.99999999999994" x2="1130" y2="329.99999999999994" stroke="#eee" stroke-width="1"/>
<text x="78" y="334.99999999999994" text-anchor="end" font-size="14" font-family="Arial, PingFang SC, Microsoft YaHei, sans-serif" fill="#666">63.44</text>
<line x1="90" y1="230.0" x2="1130" y2="230.0" stroke="#eee" stroke-width="1"/>
<text x="78" y="235.0" text-anchor="end" font-size="14" font-family="Arial, PingFang SC, Microsoft YaHei, sans-serif" fill="#666">86.53</text>
<line x1="90" y1="130.0" x2="1130" y2="130.0" stroke="#eee" stroke-width="1"/>
<text x="78" y="135.0" text-anchor="end" font-size="14" font-family="Arial, PingFang SC, Microsoft YaHei, sans-serif" fill="#666">109.62</text>
<text x="155.0" y="658" text-anchor="middle" font-size="14" font-family="Arial, PingFang SC, Microsoft YaHei, sans-serif" fill="#666">冶炼(行业)</text>
<text x="285.0" y="658" text-anchor="middle" font-size="14" font-family="Arial, PingFang SC, Microsoft YaHei, sans-serif" fill="#666">黄金</text>
<text x="415.0" y="658" text-anchor="middle" font-size="14" font-family="Arial, PingFang SC, Microsoft YaHei, sans-serif" fill="#666">采矿</text>
<text x="545.0" y="658" text-anchor="middle" font-size="14" font-family="Arial, PingFang SC, Microsoft YaHei, sans-serif" fill="#666">其他主营业务</text>
<text x="675.0" y="658" text-anchor="middle" font-size="14" font-family="Arial, PingFang SC, Microsoft YaHei, sans-serif" fill="#666">其中:矿山铜</text>
<text x="805.0" y="658" text-anchor="middle" font-size="14" font-family="Arial, PingFang SC, Microsoft YaHei, sans-serif" fill="#666">其他业务</text>
<text x="935.0" y="658" text-anchor="middle" font-size="14" font-family="Arial, PingFang SC, Microsoft YaHei, sans-serif" fill="#666">其他(行业)</text>
<text x="1065.0" y="658" text-anchor="middle" font-size="14" font-family="Arial, PingFang SC, Microsoft YaHei, sans-serif" fill="#666">内部抵销</text>
<rect x="110.80" y="484.18" width="81.33" height="120.57" fill="#4E79A7" opacity="0.85"/>
<rect x="240.80" y="232.12" width="81.33" height="372.63" fill="#4E79A7" opacity="0.85"/>
<rect x="370.80" y="130.00" width="81.33" height="474.75" fill="#4E79A7" opacity="0.85"/>
<rect x="500.80" y="497.69" width="81.33" height="107.06" fill="#4E79A7" opacity="0.85"/>
<rect x="630.80" y="483.83" width="81.33" height="120.92" fill="#4E79A7" opacity="0.85"/>
<rect x="760.80" y="602.59" width="81.33" height="2.17" fill="#4E79A7" opacity="0.85"/>
<rect x="890.80" y="599.38" width="81.33" height="5.37" fill="#4E79A7" opacity="0.85"/>
<rect x="1020.80" y="604.75" width="81.33" height="25.25" fill="#4E79A7" opacity="0.85"/>
<polyline fill="none" stroke="#F28E2B" stroke-width="3" points="155.00,587.82 285.00,530.39 415.00,371.66 545.00,454.64 675.00,336.76 805.00,538.14 935.00,171.66 1065.00,584.44"/>
<circle cx="155.00" cy="587.82" r="4" fill="#F28E2B"/>
<circle cx="285.00" cy="530.39" r="4" fill="#F28E2B"/>
<circle cx="415.00" cy="371.66" r="4" fill="#F28E2B"/>
<circle cx="545.00" cy="454.64" r="4" fill="#F28E2B"/>
<circle cx="675.00" cy="336.76" r="4" fill="#F28E2B"/>
<circle cx="805.00" cy="538.14" r="4" fill="#F28E2B"/>
<circle cx="935.00" cy="171.66" r="4" fill="#F28E2B"/>
<circle cx="1065.00" cy="584.44" r="4" fill="#F28E2B"/>
</svg>