<svg xmlns="http://www.w3.org/2000/svg" width="1200" height="720" viewBox="0 0 1200 720">
<rect x="0" y="0" width="100%" height="100%" fill="#ffffff"/>
<text x="40" y="42" font-size="26" font-family="Arial, PingFang SC, Microsoft YaHei, sans-serif" fill="#222">分产品收入变化图</text>
<rect x="40" y="60" width="22" height="10" fill="#4E79A7"/>
<text x="68" y="70" font-size="16" font-family="Arial, PingFang SC, Microsoft YaHei, sans-serif" fill="#333">冶炼(行业)</text>
<rect x="210" y="60" width="22" height="10" fill="#F28E2B"/>
<text x="238" y="70" font-size="16" font-family="Arial, PingFang SC, Microsoft YaHei, sans-serif" fill="#333">黄金</text>
<rect x="380" y="60" width="22" height="10" fill="#E15759"/>
<text x="408" y="70" font-size="16" font-family="Arial, PingFang SC, Microsoft YaHei, sans-serif" fill="#333">采矿</text>
<rect x="550" y="60" width="22" height="10" fill="#76B7B2"/>
<text x="578" y="70" font-size="16" font-family="Arial, PingFang SC, Microsoft YaHei, sans-serif" fill="#333">其他主营业务</text>
<rect x="720" y="60" width="22" height="10" fill="#59A14F"/>
<text x="748" y="70" font-size="16" font-family="Arial, PingFang SC, Microsoft YaHei, sans-serif" fill="#333">其中:矿山铜</text>
<line x1="90" y1="130" x2="90" y2="630" stroke="#555" stroke-width="1"/>
<line x1="90" y1="630.0" x2="1130" y2="630.0" stroke="#555" stroke-width="1"/>
<line x1="90" y1="630.0" x2="1130" y2="630.0" stroke="#eee" stroke-width="1"/>
<text x="78" y="635.0" text-anchor="end" font-size="14" font-family="Arial, PingFang SC, Microsoft YaHei, sans-serif" fill="#666">0.00</text>
<line x1="90" y1="530.0" x2="1130" y2="530.0" stroke="#eee" stroke-width="1"/>
<text x="78" y="535.0" text-anchor="end" font-size="14" font-family="Arial, PingFang SC, Microsoft YaHei, sans-serif" fill="#666">208.51</text>
<line x1="90" y1="430.00000000000006" x2="1130" y2="430.00000000000006" stroke="#eee" stroke-width="1"/>
<text x="78" y="435.00000000000006" text-anchor="end" font-size="14" font-family="Arial, PingFang SC, Microsoft YaHei, sans-serif" fill="#666">417.01</text>
<line x1="90" y1="330.0" x2="1130" y2="330.0" stroke="#eee" stroke-width="1"/>
<text x="78" y="335.0" text-anchor="end" font-size="14" font-family="Arial, PingFang SC, Microsoft YaHei, sans-serif" fill="#666">625.52</text>
<line x1="90" y1="230.0" x2="1130" y2="230.0" stroke="#eee" stroke-width="1"/>
<text x="78" y="235.0" text-anchor="end" font-size="14" font-family="Arial, PingFang SC, Microsoft YaHei, sans-serif" fill="#666">834.02</text>
<line x1="90" y1="130.0" x2="1130" y2="130.0" stroke="#eee" stroke-width="1"/>
<text x="78" y="135.0" text-anchor="end" font-size="14" font-family="Arial, PingFang SC, Microsoft YaHei, sans-serif" fill="#666">1042.53</text>
<text x="194.0" y="658" text-anchor="middle" font-size="14" font-family="Arial, PingFang SC, Microsoft YaHei, sans-serif" fill="#666">2021</text>
<text x="402.0" y="658" text-anchor="middle" font-size="14" font-family="Arial, PingFang SC, Microsoft YaHei, sans-serif" fill="#666">2022</text>
<text x="610.0" y="658" text-anchor="middle" font-size="14" font-family="Arial, PingFang SC, Microsoft YaHei, sans-serif" fill="#666">2023</text>
<text x="818.0" y="658" text-anchor="middle" font-size="14" font-family="Arial, PingFang SC, Microsoft YaHei, sans-serif" fill="#666">2024</text>
<text x="1026.0" y="658" text-anchor="middle" font-size="14" font-family="Arial, PingFang SC, Microsoft YaHei, sans-serif" fill="#666">2025</text>
<rect x="123.28" y="261.45" width="26.02" height="368.55" fill="#4E79A7" opacity="0.85"/>
<rect x="331.28" y="270.03" width="26.02" height="359.97" fill="#4E79A7" opacity="0.85"/>
<rect x="539.28" y="265.65" width="26.02" height="364.35" fill="#4E79A7" opacity="0.85"/>
<rect x="747.28" y="241.31" width="26.02" height="388.69" fill="#4E79A7" opacity="0.85"/>
<rect x="955.28" y="130.00" width="26.02" height="500.00" fill="#4E79A7" opacity="0.85"/>
<rect x="151.57" y="462.24" width="26.02" height="167.76" fill="#F28E2B" opacity="0.85"/>
<rect x="359.57" y="451.40" width="26.02" height="178.60" fill="#F28E2B" opacity="0.85"/>
<rect x="567.57" y="477.31" width="26.02" height="152.69" fill="#F28E2B" opacity="0.85"/>
<rect x="775.57" y="453.64" width="26.02" height="176.36" fill="#F28E2B" opacity="0.85"/>
<rect x="983.57" y="389.71" width="26.02" height="240.29" fill="#F28E2B" opacity="0.85"/>
<rect x="179.86" y="541.83" width="26.02" height="88.17" fill="#E15759" opacity="0.85"/>
<rect x="387.86" y="535.60" width="26.02" height="94.40" fill="#E15759" opacity="0.85"/>
<rect x="595.86" y="525.19" width="26.02" height="104.81" fill="#E15759" opacity="0.85"/>
<rect x="803.86" y="513.73" width="26.02" height="116.27" fill="#E15759" opacity="0.85"/>
<rect x="1011.86" y="485.46" width="26.02" height="144.54" fill="#E15759" opacity="0.85"/>
<rect x="208.14" y="610.49" width="26.02" height="19.51" fill="#76B7B2" opacity="0.85"/>
<rect x="416.14" y="609.32" width="26.02" height="20.68" fill="#76B7B2" opacity="0.85"/>
<rect x="624.14" y="608.10" width="26.02" height="21.90" fill="#76B7B2" opacity="0.85"/>
<rect x="832.14" y="604.11" width="26.02" height="25.89" fill="#76B7B2" opacity="0.85"/>
<rect x="1040.14" y="595.79" width="26.02" height="34.21" fill="#76B7B2" opacity="0.85"/>
<rect x="236.43" y="612.74" width="26.02" height="17.26" fill="#59A14F" opacity="0.85"/>
<rect x="444.43" y="610.01" width="26.02" height="19.99" fill="#59A14F" opacity="0.85"/>
<rect x="652.43" y="605.96" width="26.02" height="24.04" fill="#59A14F" opacity="0.85"/>
<rect x="860.43" y="606.84" width="26.02" height="23.16" fill="#59A14F" opacity="0.85"/>
<rect x="1068.43" y="608.36" width="26.02" height="21.64" fill="#59A14F" opacity="0.85"/>
</svg>