<svg xmlns="http://www.w3.org/2000/svg" width="1200" height="720" viewBox="0 0 1200 720">
<rect x="0" y="0" width="100%" height="100%" fill="#ffffff"/>
<text x="40" y="42" font-size="26" font-family="Arial, PingFang SC, Microsoft YaHei, sans-serif" fill="#222">分产品收入变化图</text>
<rect x="40" y="60" width="22" height="10" fill="#4E79A7"/>
<text x="68" y="70" font-size="16" font-family="Arial, PingFang SC, Microsoft YaHei, sans-serif" fill="#333">医药制造</text>
<rect x="210" y="60" width="22" height="10" fill="#F28E2B"/>
<text x="238" y="70" font-size="16" font-family="Arial, PingFang SC, Microsoft YaHei, sans-serif" fill="#333">肝病用药</text>
<rect x="380" y="60" width="22" height="10" fill="#E15759"/>
<text x="408" y="70" font-size="16" font-family="Arial, PingFang SC, Microsoft YaHei, sans-serif" fill="#333">医药商业</text>
<rect x="550" y="60" width="22" height="10" fill="#76B7B2"/>
<text x="578" y="70" font-size="16" font-family="Arial, PingFang SC, Microsoft YaHei, sans-serif" fill="#333">医药流通业</text>
<rect x="720" y="60" width="22" height="10" fill="#59A14F"/>
<text x="748" y="70" font-size="16" font-family="Arial, PingFang SC, Microsoft YaHei, sans-serif" fill="#333">化妆品、护肤品</text>
<line x1="90" y1="130" x2="90" y2="630" stroke="#555" stroke-width="1"/>
<line x1="90" y1="630.0" x2="1130" y2="630.0" stroke="#555" stroke-width="1"/>
<line x1="90" y1="630.0" x2="1130" y2="630.0" stroke="#eee" stroke-width="1"/>
<text x="78" y="635.0" text-anchor="end" font-size="14" font-family="Arial, PingFang SC, Microsoft YaHei, sans-serif" fill="#666">0.00</text>
<line x1="90" y1="530.0" x2="1130" y2="530.0" stroke="#eee" stroke-width="1"/>
<text x="78" y="535.0" text-anchor="end" font-size="14" font-family="Arial, PingFang SC, Microsoft YaHei, sans-serif" fill="#666">18.01</text>
<line x1="90" y1="430.0" x2="1130" y2="430.0" stroke="#eee" stroke-width="1"/>
<text x="78" y="435.0" text-anchor="end" font-size="14" font-family="Arial, PingFang SC, Microsoft YaHei, sans-serif" fill="#666">36.02</text>
<line x1="90" y1="330.0" x2="1130" y2="330.0" stroke="#eee" stroke-width="1"/>
<text x="78" y="335.0" text-anchor="end" font-size="14" font-family="Arial, PingFang SC, Microsoft YaHei, sans-serif" fill="#666">54.03</text>
<line x1="90" y1="230.00000000000003" x2="1130" y2="230.00000000000003" stroke="#eee" stroke-width="1"/>
<text x="78" y="235.00000000000003" text-anchor="end" font-size="14" font-family="Arial, PingFang SC, Microsoft YaHei, sans-serif" fill="#666">72.04</text>
<line x1="90" y1="130.0" x2="1130" y2="130.0" stroke="#eee" stroke-width="1"/>
<text x="78" y="135.0" text-anchor="end" font-size="14" font-family="Arial, PingFang SC, Microsoft YaHei, sans-serif" fill="#666">90.05</text>
<text x="194.0" y="658" text-anchor="middle" font-size="14" font-family="Arial, PingFang SC, Microsoft YaHei, sans-serif" fill="#666">2021</text>
<text x="402.0" y="658" text-anchor="middle" font-size="14" font-family="Arial, PingFang SC, Microsoft YaHei, sans-serif" fill="#666">2022</text>
<text x="610.0" y="658" text-anchor="middle" font-size="14" font-family="Arial, PingFang SC, Microsoft YaHei, sans-serif" fill="#666">2023</text>
<text x="818.0" y="658" text-anchor="middle" font-size="14" font-family="Arial, PingFang SC, Microsoft YaHei, sans-serif" fill="#666">2024</text>
<text x="1026.0" y="658" text-anchor="middle" font-size="14" font-family="Arial, PingFang SC, Microsoft YaHei, sans-serif" fill="#666">2025</text>
<rect x="123.28" y="130.00" width="26.02" height="500.00" fill="#4E79A7" opacity="0.85"/>
<rect x="331.28" y="300.91" width="26.02" height="329.09" fill="#4E79A7" opacity="0.85"/>
<rect x="539.28" y="225.78" width="26.02" height="404.22" fill="#4E79A7" opacity="0.85"/>
<rect x="747.28" y="154.88" width="26.02" height="475.12" fill="#4E79A7" opacity="0.85"/>
<rect x="955.28" y="217.62" width="26.02" height="412.38" fill="#4E79A7" opacity="0.85"/>
<rect x="151.57" y="163.48" width="26.02" height="466.52" fill="#F28E2B" opacity="0.85"/>
<rect x="359.57" y="321.23" width="26.02" height="308.77" fill="#F28E2B" opacity="0.85"/>
<rect x="567.57" y="257.21" width="26.02" height="372.79" fill="#F28E2B" opacity="0.85"/>
<rect x="775.57" y="188.58" width="26.02" height="441.42" fill="#F28E2B" opacity="0.85"/>
<rect x="983.57" y="232.22" width="26.02" height="397.78" fill="#F28E2B" opacity="0.85"/>
<rect x="179.86" y="241.16" width="26.02" height="388.84" fill="#E15759" opacity="0.85"/>
<rect x="387.86" y="300.63" width="26.02" height="329.37" fill="#E15759" opacity="0.85"/>
<rect x="595.86" y="279.36" width="26.02" height="350.64" fill="#E15759" opacity="0.85"/>
<rect x="803.86" y="277.31" width="26.02" height="352.69" fill="#E15759" opacity="0.85"/>
<rect x="1011.86" y="311.68" width="26.02" height="318.32" fill="#E15759" opacity="0.85"/>
<rect x="208.14" y="241.16" width="26.02" height="388.84" fill="#76B7B2" opacity="0.85"/>
<rect x="416.14" y="300.63" width="26.02" height="329.37" fill="#76B7B2" opacity="0.85"/>
<rect x="624.14" y="279.36" width="26.02" height="350.64" fill="#76B7B2" opacity="0.85"/>
<rect x="832.14" y="277.31" width="26.02" height="352.69" fill="#76B7B2" opacity="0.85"/>
<rect x="1040.14" y="311.68" width="26.02" height="318.32" fill="#76B7B2" opacity="0.85"/>
<rect x="236.43" y="528.28" width="26.02" height="101.72" fill="#59A14F" opacity="0.85"/>
<rect x="444.43" y="575.36" width="26.02" height="54.64" fill="#59A14F" opacity="0.85"/>
<rect x="652.43" y="575.59" width="26.02" height="54.41" fill="#59A14F" opacity="0.85"/>
<rect x="860.43" y="566.81" width="26.02" height="63.19" fill="#59A14F" opacity="0.85"/>
<rect x="1068.43" y="580.75" width="26.02" height="49.25" fill="#59A14F" opacity="0.85"/>
</svg>