<svg xmlns="http://www.w3.org/2000/svg" width="1200" height="720" viewBox="0 0 1200 720">
<rect x="0" y="0" width="100%" height="100%" fill="#ffffff"/>
<text x="40" y="42" font-size="26" font-family="Arial, PingFang SC, Microsoft YaHei, sans-serif" fill="#222">财务比率分析图</text>
<rect x="40" y="60" width="22" height="10" fill="#4E79A7"/>
<text x="68" y="70" font-size="16" font-family="Arial, PingFang SC, Microsoft YaHei, sans-serif" fill="#333">资产负债率</text>
<rect x="210" y="60" width="22" height="10" fill="#F28E2B"/>
<text x="238" y="70" font-size="16" font-family="Arial, PingFang SC, Microsoft YaHei, sans-serif" fill="#333">流动比率</text>
<rect x="380" y="60" width="22" height="10" fill="#E15759"/>
<text x="408" y="70" font-size="16" font-family="Arial, PingFang SC, Microsoft YaHei, sans-serif" fill="#333">速动比率</text>
<rect x="550" y="60" width="22" height="10" fill="#76B7B2"/>
<text x="578" y="70" font-size="16" font-family="Arial, PingFang SC, Microsoft YaHei, sans-serif" fill="#333">应收周转率</text>
<rect x="720" y="60" width="22" height="10" fill="#59A14F"/>
<text x="748" y="70" font-size="16" font-family="Arial, PingFang SC, Microsoft YaHei, sans-serif" fill="#333">存货周转率</text>
<line x1="90" y1="130" x2="90" y2="630" stroke="#555" stroke-width="1"/>
<line x1="90" y1="630.0" x2="1130" y2="630.0" stroke="#555" stroke-width="1"/>
<line x1="90" y1="630.0" x2="1130" y2="630.0" stroke="#eee" stroke-width="1"/>
<text x="78" y="635.0" text-anchor="end" font-size="14" font-family="Arial, PingFang SC, Microsoft YaHei, sans-serif" fill="#666">0.00</text>
<line x1="90" y1="530.0" x2="1130" y2="530.0" stroke="#eee" stroke-width="1"/>
<text x="78" y="535.0" text-anchor="end" font-size="14" font-family="Arial, PingFang SC, Microsoft YaHei, sans-serif" fill="#666">3.81</text>
<line x1="90" y1="430.0" x2="1130" y2="430.0" stroke="#eee" stroke-width="1"/>
<text x="78" y="435.0" text-anchor="end" font-size="14" font-family="Arial, PingFang SC, Microsoft YaHei, sans-serif" fill="#666">7.62</text>
<line x1="90" y1="330.0" x2="1130" y2="330.0" stroke="#eee" stroke-width="1"/>
<text x="78" y="335.0" text-anchor="end" font-size="14" font-family="Arial, PingFang SC, Microsoft YaHei, sans-serif" fill="#666">11.42</text>
<line x1="90" y1="230.0" x2="1130" y2="230.0" stroke="#eee" stroke-width="1"/>
<text x="78" y="235.0" text-anchor="end" font-size="14" font-family="Arial, PingFang SC, Microsoft YaHei, sans-serif" fill="#666">15.23</text>
<line x1="90" y1="130.0" x2="1130" y2="130.0" stroke="#eee" stroke-width="1"/>
<text x="78" y="135.0" text-anchor="end" font-size="14" font-family="Arial, PingFang SC, Microsoft YaHei, sans-serif" fill="#666">19.04</text>
<text x="194.0" y="658" text-anchor="middle" font-size="14" font-family="Arial, PingFang SC, Microsoft YaHei, sans-serif" fill="#666">2021</text>
<text x="402.0" y="658" text-anchor="middle" font-size="14" font-family="Arial, PingFang SC, Microsoft YaHei, sans-serif" fill="#666">2022</text>
<text x="610.0" y="658" text-anchor="middle" font-size="14" font-family="Arial, PingFang SC, Microsoft YaHei, sans-serif" fill="#666">2023</text>
<text x="818.0" y="658" text-anchor="middle" font-size="14" font-family="Arial, PingFang SC, Microsoft YaHei, sans-serif" fill="#666">2024</text>
<text x="1026.0" y="658" text-anchor="middle" font-size="14" font-family="Arial, PingFang SC, Microsoft YaHei, sans-serif" fill="#666">2025</text>
<rect x="123.28" y="254.47" width="65.06" height="375.53" fill="#4E79A7" opacity="0.85"/>
<rect x="331.28" y="293.34" width="65.06" height="336.66" fill="#4E79A7" opacity="0.85"/>
<rect x="539.28" y="310.93" width="65.06" height="319.07" fill="#4E79A7" opacity="0.85"/>
<rect x="747.28" y="294.92" width="65.06" height="335.08" fill="#4E79A7" opacity="0.85"/>
<rect x="955.28" y="630.00" width="65.06" height="0.00" fill="#4E79A7" opacity="0.85"/>
<rect x="194.00" y="585.09" width="65.06" height="44.91" fill="#F28E2B" opacity="0.85"/>
<rect x="402.00" y="580.89" width="65.06" height="49.11" fill="#F28E2B" opacity="0.85"/>
<rect x="610.00" y="583.26" width="65.06" height="46.74" fill="#F28E2B" opacity="0.85"/>
<rect x="818.00" y="591.13" width="65.06" height="38.87" fill="#F28E2B" opacity="0.85"/>
<rect x="1026.00" y="630.00" width="65.06" height="0.00" fill="#F28E2B" opacity="0.85"/>
<polyline fill="none" stroke="#E15759" stroke-width="3" points="194.00,134.20 402.00,130.00 610.00,144.18 818.00,225.59 1026.00,630.00"/>
<circle cx="194.00" cy="134.20" r="4" fill="#E15759"/>
<circle cx="402.00" cy="130.00" r="4" fill="#E15759"/>
<circle cx="610.00" cy="144.18" r="4" fill="#E15759"/>
<circle cx="818.00" cy="225.59" r="4" fill="#E15759"/>
<circle cx="1026.00" cy="630.00" r="4" fill="#E15759"/>
<polyline fill="none" stroke="#76B7B2" stroke-width="3" points="194.00,499.22 402.00,497.12 610.00,492.39 818.00,504.74 1026.00,630.00"/>
<circle cx="194.00" cy="499.22" r="4" fill="#76B7B2"/>
<circle cx="402.00" cy="497.12" r="4" fill="#76B7B2"/>
<circle cx="610.00" cy="492.39" r="4" fill="#76B7B2"/>
<circle cx="818.00" cy="504.74" r="4" fill="#76B7B2"/>
<circle cx="1026.00" cy="630.00" r="4" fill="#76B7B2"/>
<polyline fill="none" stroke="#59A14F" stroke-width="3" points="194.00,529.16 402.00,524.70 610.00,523.12 818.00,559.62 1026.00,630.00"/>
<circle cx="194.00" cy="529.16" r="4" fill="#59A14F"/>
<circle cx="402.00" cy="524.70" r="4" fill="#59A14F"/>
<circle cx="610.00" cy="523.12" r="4" fill="#59A14F"/>
<circle cx="818.00" cy="559.62" r="4" fill="#59A14F"/>
<circle cx="1026.00" cy="630.00" r="4" fill="#59A14F"/>
</svg>