<svg xmlns="http://www.w3.org/2000/svg" width="1200" height="720" viewBox="0 0 1200 720">
<rect x="0" y="0" width="100%" height="100%" fill="#ffffff"/>
<text x="40" y="42" font-size="26" font-family="Arial, PingFang SC, Microsoft YaHei, sans-serif" fill="#222">分产品收入结构图</text>
<path d="M 380.00 390.00 L 380.00 170.00 A 220.00 220.00 0 0 1 599.96 385.96 Z" fill="#4E79A7" stroke="#fff" stroke-width="1"/>
<path d="M 380.00 390.00 L 599.96 385.96 A 220.00 220.00 0 0 1 401.35 608.96 Z" fill="#F28E2B" stroke="#fff" stroke-width="1"/>
<path d="M 380.00 390.00 L 401.35 608.96 A 220.00 220.00 0 0 1 173.74 466.54 Z" fill="#E15759" stroke="#fff" stroke-width="1"/>
<path d="M 380.00 390.00 L 173.74 466.54 A 220.00 220.00 0 0 1 253.34 210.12 Z" fill="#76B7B2" stroke="#fff" stroke-width="1"/>
<path d="M 380.00 390.00 L 253.34 210.12 A 220.00 220.00 0 0 1 291.24 188.70 Z" fill="#59A14F" stroke="#fff" stroke-width="1"/>
<path d="M 380.00 390.00 L 291.24 188.70 A 220.00 220.00 0 0 1 332.62 175.16 Z" fill="#EDC948" stroke="#fff" stroke-width="1"/>
<path d="M 380.00 390.00 L 332.62 175.16 A 220.00 220.00 0 0 1 364.17 170.57 Z" fill="#B07AA1" stroke="#fff" stroke-width="1"/>
<path d="M 380.00 390.00 L 364.17 170.57 A 220.00 220.00 0 0 1 380.00 170.00 Z" fill="#FF9DA7" stroke="#fff" stroke-width="1"/>
<rect x="700" y="179" width="20" height="12" fill="#4E79A7"/>
<text x="728" y="190" font-size="14" font-family="Arial, PingFang SC, Microsoft YaHei, sans-serif" fill="#333">医药制造  44.41 (24.7%)</text>
<rect x="700" y="209" width="20" height="12" fill="#F28E2B"/>
<text x="728" y="220" font-size="14" font-family="Arial, PingFang SC, Microsoft YaHei, sans-serif" fill="#333">肝病用药  42.68 (23.7%)</text>
<rect x="700" y="239" width="20" height="12" fill="#E15759"/>
<text x="728" y="250" font-size="14" font-family="Arial, PingFang SC, Microsoft YaHei, sans-serif" fill="#333">医药商业  37.55 (20.9%)</text>
<rect x="700" y="269" width="20" height="12" fill="#76B7B2"/>
<text x="728" y="280" font-size="14" font-family="Arial, PingFang SC, Microsoft YaHei, sans-serif" fill="#333">医药流通业  37.55 (20.9%)</text>
<rect x="700" y="299" width="20" height="12" fill="#59A14F"/>
<text x="728" y="310" font-size="14" font-family="Arial, PingFang SC, Microsoft YaHei, sans-serif" fill="#333">化妆品、护肤品  5.67 (3.2%)</text>
<rect x="700" y="329" width="20" height="12" fill="#EDC948"/>
<text x="728" y="340" font-size="14" font-family="Arial, PingFang SC, Microsoft YaHei, sans-serif" fill="#333">日用品、化妆品销售  5.67 (3.2%)</text>
<rect x="700" y="359" width="20" height="12" fill="#B07AA1"/>
<text x="728" y="370" font-size="14" font-family="Arial, PingFang SC, Microsoft YaHei, sans-serif" fill="#333">国外  4.15 (2.3%)</text>
<rect x="700" y="389" width="20" height="12" fill="#FF9DA7"/>
<text x="728" y="400" font-size="14" font-family="Arial, PingFang SC, Microsoft YaHei, sans-serif" fill="#333">其他(行业)  2.06 (1.1%)</text>
</svg>