<svg xmlns="http://www.w3.org/2000/svg" width="1200" height="720" viewBox="0 0 1200 720">
<rect x="0" y="0" width="100%" height="100%" fill="#ffffff"/>
<text x="40" y="42" font-size="26" font-family="Arial, PingFang SC, Microsoft YaHei, sans-serif" fill="#222">分产品收入变化图</text>
<rect x="40" y="60" width="22" height="10" fill="#4E79A7"/>
<text x="68" y="70" font-size="16" font-family="Arial, PingFang SC, Microsoft YaHei, sans-serif" fill="#333">制造业</text>
<rect x="210" y="60" width="22" height="10" fill="#F28E2B"/>
<text x="238" y="70" font-size="16" font-family="Arial, PingFang SC, Microsoft YaHei, sans-serif" fill="#333">五粮液系列</text>
<rect x="380" y="60" width="22" height="10" fill="#E15759"/>
<text x="408" y="70" font-size="16" font-family="Arial, PingFang SC, Microsoft YaHei, sans-serif" fill="#333">高价位酒</text>
<rect x="550" y="60" width="22" height="10" fill="#76B7B2"/>
<text x="578" y="70" font-size="16" font-family="Arial, PingFang SC, Microsoft YaHei, sans-serif" fill="#333">南部</text>
<rect x="720" y="60" width="22" height="10" fill="#59A14F"/>
<text x="748" y="70" font-size="16" font-family="Arial, PingFang SC, Microsoft YaHei, sans-serif" fill="#333">东部</text>
<line x1="90" y1="130" x2="90" y2="630" stroke="#555" stroke-width="1"/>
<line x1="90" y1="630.0" x2="1130" y2="630.0" stroke="#555" stroke-width="1"/>
<line x1="90" y1="630.0" x2="1130" y2="630.0" stroke="#eee" stroke-width="1"/>
<text x="78" y="635.0" text-anchor="end" font-size="14" font-family="Arial, PingFang SC, Microsoft YaHei, sans-serif" fill="#666">0.00</text>
<line x1="90" y1="530.0" x2="1130" y2="530.0" stroke="#eee" stroke-width="1"/>
<text x="78" y="535.0" text-anchor="end" font-size="14" font-family="Arial, PingFang SC, Microsoft YaHei, sans-serif" fill="#666">279.65</text>
<line x1="90" y1="430.0" x2="1130" y2="430.0" stroke="#eee" stroke-width="1"/>
<text x="78" y="435.0" text-anchor="end" font-size="14" font-family="Arial, PingFang SC, Microsoft YaHei, sans-serif" fill="#666">559.29</text>
<line x1="90" y1="329.99999999999994" x2="1130" y2="329.99999999999994" stroke="#eee" stroke-width="1"/>
<text x="78" y="334.99999999999994" text-anchor="end" font-size="14" font-family="Arial, PingFang SC, Microsoft YaHei, sans-serif" fill="#666">838.94</text>
<line x1="90" y1="229.99999999999997" x2="1130" y2="229.99999999999997" stroke="#eee" stroke-width="1"/>
<text x="78" y="234.99999999999997" text-anchor="end" font-size="14" font-family="Arial, PingFang SC, Microsoft YaHei, sans-serif" fill="#666">1118.58</text>
<line x1="90" y1="130.0" x2="1130" y2="130.0" stroke="#eee" stroke-width="1"/>
<text x="78" y="135.0" text-anchor="end" font-size="14" font-family="Arial, PingFang SC, Microsoft YaHei, sans-serif" fill="#666">1398.23</text>
<text x="194.0" y="658" text-anchor="middle" font-size="14" font-family="Arial, PingFang SC, Microsoft YaHei, sans-serif" fill="#666">2021</text>
<text x="402.0" y="658" text-anchor="middle" font-size="14" font-family="Arial, PingFang SC, Microsoft YaHei, sans-serif" fill="#666">2022</text>
<text x="610.0" y="658" text-anchor="middle" font-size="14" font-family="Arial, PingFang SC, Microsoft YaHei, sans-serif" fill="#666">2023</text>
<text x="818.0" y="658" text-anchor="middle" font-size="14" font-family="Arial, PingFang SC, Microsoft YaHei, sans-serif" fill="#666">2024</text>
<text x="1026.0" y="658" text-anchor="middle" font-size="14" font-family="Arial, PingFang SC, Microsoft YaHei, sans-serif" fill="#666">2025</text>
<rect x="123.28" y="261.82" width="26.02" height="368.18" fill="#4E79A7" opacity="0.85"/>
<rect x="331.28" y="218.08" width="26.02" height="411.92" fill="#4E79A7" opacity="0.85"/>
<rect x="539.28" y="169.50" width="26.02" height="460.50" fill="#4E79A7" opacity="0.85"/>
<rect x="747.28" y="130.00" width="26.02" height="500.00" fill="#4E79A7" opacity="0.85"/>
<rect x="955.28" y="441.29" width="26.02" height="188.71" fill="#4E79A7" opacity="0.85"/>
<rect x="151.57" y="357.33" width="26.02" height="272.67" fill="#F28E2B" opacity="0.85"/>
<rect x="359.57" y="317.79" width="26.02" height="312.21" fill="#F28E2B" opacity="0.85"/>
<rect x="567.57" y="279.62" width="26.02" height="350.38" fill="#F28E2B" opacity="0.85"/>
<rect x="775.57" y="247.09" width="26.02" height="382.91" fill="#F28E2B" opacity="0.85"/>
<rect x="983.57" y="483.39" width="26.02" height="146.61" fill="#F28E2B" opacity="0.85"/>
<rect x="179.86" y="532.96" width="26.02" height="97.04" fill="#E15759" opacity="0.85"/>
<rect x="387.86" y="317.79" width="26.02" height="312.21" fill="#E15759" opacity="0.85"/>
<rect x="595.86" y="504.20" width="26.02" height="125.80" fill="#E15759" opacity="0.85"/>
<rect x="803.86" y="247.09" width="26.02" height="382.91" fill="#E15759" opacity="0.85"/>
<rect x="1011.86" y="483.39" width="26.02" height="146.61" fill="#E15759" opacity="0.85"/>
<rect x="208.14" y="590.07" width="26.02" height="39.93" fill="#76B7B2" opacity="0.85"/>
<rect x="416.14" y="589.47" width="26.02" height="40.53" fill="#76B7B2" opacity="0.85"/>
<rect x="624.14" y="593.07" width="26.02" height="36.93" fill="#76B7B2" opacity="0.85"/>
<rect x="832.14" y="476.83" width="26.02" height="153.17" fill="#76B7B2" opacity="0.85"/>
<rect x="1040.14" y="551.74" width="26.02" height="78.26" fill="#76B7B2" opacity="0.85"/>
<rect x="236.43" y="527.31" width="26.02" height="102.69" fill="#59A14F" opacity="0.85"/>
<rect x="444.43" y="524.40" width="26.02" height="105.60" fill="#59A14F" opacity="0.85"/>
<rect x="652.43" y="508.05" width="26.02" height="121.95" fill="#59A14F" opacity="0.85"/>
<rect x="860.43" y="469.65" width="26.02" height="160.35" fill="#59A14F" opacity="0.85"/>
<rect x="1068.43" y="558.09" width="26.02" height="71.91" fill="#59A14F" opacity="0.85"/>
</svg>