<svg xmlns="http://www.w3.org/2000/svg" width="1200" height="720" viewBox="0 0 1200 720">
<rect x="0" y="0" width="100%" height="100%" fill="#ffffff"/>
<text x="40" y="42" font-size="26" font-family="Arial, PingFang SC, Microsoft YaHei, sans-serif" fill="#222">分产品收入变化图</text>
<rect x="40" y="60" width="22" height="10" fill="#4E79A7"/>
<text x="68" y="70" font-size="16" font-family="Arial, PingFang SC, Microsoft YaHei, sans-serif" fill="#333">智慧显示</text>
<rect x="210" y="60" width="22" height="10" fill="#F28E2B"/>
<text x="238" y="70" font-size="16" font-family="Arial, PingFang SC, Microsoft YaHei, sans-serif" fill="#333">智能照明</text>
<rect x="380" y="60" width="22" height="10" fill="#E15759"/>
<text x="408" y="70" font-size="16" font-family="Arial, PingFang SC, Microsoft YaHei, sans-serif" fill="#333">其他主营业务</text>
<line x1="90" y1="130" x2="90" y2="630" stroke="#555" stroke-width="1"/>
<line x1="90" y1="630.0" x2="1130" y2="630.0" stroke="#555" stroke-width="1"/>
<line x1="90" y1="630.0" x2="1130" y2="630.0" stroke="#eee" stroke-width="1"/>
<text x="78" y="635.0" text-anchor="end" font-size="14" font-family="Arial, PingFang SC, Microsoft YaHei, sans-serif" fill="#666">0.00</text>
<line x1="90" y1="530.0" x2="1130" y2="530.0" stroke="#eee" stroke-width="1"/>
<text x="78" y="535.0" text-anchor="end" font-size="14" font-family="Arial, PingFang SC, Microsoft YaHei, sans-serif" fill="#666">22.12</text>
<line x1="90" y1="430.0" x2="1130" y2="430.0" stroke="#eee" stroke-width="1"/>
<text x="78" y="435.0" text-anchor="end" font-size="14" font-family="Arial, PingFang SC, Microsoft YaHei, sans-serif" fill="#666">44.25</text>
<line x1="90" y1="330.0" x2="1130" y2="330.0" stroke="#eee" stroke-width="1"/>
<text x="78" y="335.0" text-anchor="end" font-size="14" font-family="Arial, PingFang SC, Microsoft YaHei, sans-serif" fill="#666">66.37</text>
<line x1="90" y1="229.99999999999997" x2="1130" y2="229.99999999999997" stroke="#eee" stroke-width="1"/>
<text x="78" y="234.99999999999997" text-anchor="end" font-size="14" font-family="Arial, PingFang SC, Microsoft YaHei, sans-serif" fill="#666">88.50</text>
<line x1="90" y1="130.0" x2="1130" y2="130.0" stroke="#eee" stroke-width="1"/>
<text x="78" y="135.0" text-anchor="end" font-size="14" font-family="Arial, PingFang SC, Microsoft YaHei, sans-serif" fill="#666">110.62</text>
<text x="194.0" y="658" text-anchor="middle" font-size="14" font-family="Arial, PingFang SC, Microsoft YaHei, sans-serif" fill="#666">2021</text>
<text x="402.0" y="658" text-anchor="middle" font-size="14" font-family="Arial, PingFang SC, Microsoft YaHei, sans-serif" fill="#666">2022</text>
<text x="610.0" y="658" text-anchor="middle" font-size="14" font-family="Arial, PingFang SC, Microsoft YaHei, sans-serif" fill="#666">2023</text>
<text x="818.0" y="658" text-anchor="middle" font-size="14" font-family="Arial, PingFang SC, Microsoft YaHei, sans-serif" fill="#666">2024</text>
<text x="1026.0" y="658" text-anchor="middle" font-size="14" font-family="Arial, PingFang SC, Microsoft YaHei, sans-serif" fill="#666">2025</text>
<rect x="123.28" y="236.63" width="43.37" height="393.37" fill="#4E79A7" opacity="0.85"/>
<rect x="331.28" y="209.87" width="43.37" height="420.13" fill="#4E79A7" opacity="0.85"/>
<rect x="539.28" y="192.19" width="43.37" height="437.81" fill="#4E79A7" opacity="0.85"/>
<rect x="747.28" y="163.67" width="43.37" height="466.33" fill="#4E79A7" opacity="0.85"/>
<rect x="955.28" y="130.00" width="43.37" height="500.00" fill="#4E79A7" opacity="0.85"/>
<rect x="170.43" y="593.48" width="43.37" height="36.52" fill="#F28E2B" opacity="0.85"/>
<rect x="378.43" y="599.40" width="43.37" height="30.60" fill="#F28E2B" opacity="0.85"/>
<rect x="586.43" y="594.88" width="43.37" height="35.12" fill="#F28E2B" opacity="0.85"/>
<rect x="794.43" y="598.68" width="43.37" height="31.32" fill="#F28E2B" opacity="0.85"/>
<rect x="1002.43" y="603.29" width="43.37" height="26.71" fill="#F28E2B" opacity="0.85"/>
<rect x="217.57" y="626.52" width="43.37" height="3.48" fill="#E15759" opacity="0.85"/>
<rect x="425.57" y="625.30" width="43.37" height="4.70" fill="#E15759" opacity="0.85"/>
<rect x="633.57" y="624.94" width="43.37" height="5.06" fill="#E15759" opacity="0.85"/>
<rect x="841.57" y="625.34" width="43.37" height="4.66" fill="#E15759" opacity="0.85"/>
<rect x="1049.57" y="626.43" width="43.37" height="3.57" fill="#E15759" opacity="0.85"/>
</svg>