<svg xmlns="http://www.w3.org/2000/svg" width="1200" height="720" viewBox="0 0 1200 720">
<rect x="0" y="0" width="100%" height="100%" fill="#ffffff"/>
<text x="40" y="42" font-size="26" font-family="Arial, PingFang SC, Microsoft YaHei, sans-serif" fill="#222">分产品收入变化图</text>
<rect x="40" y="60" width="22" height="10" fill="#4E79A7"/>
<text x="68" y="70" font-size="16" font-family="Arial, PingFang SC, Microsoft YaHei, sans-serif" fill="#333">LED光电行业</text>
<rect x="210" y="60" width="22" height="10" fill="#F28E2B"/>
<text x="238" y="70" font-size="16" font-family="Arial, PingFang SC, Microsoft YaHei, sans-serif" fill="#333">智慧显示</text>
<rect x="380" y="60" width="22" height="10" fill="#E15759"/>
<text x="408" y="70" font-size="16" font-family="Arial, PingFang SC, Microsoft YaHei, sans-serif" fill="#333">国外</text>
<rect x="550" y="60" width="22" height="10" fill="#76B7B2"/>
<text x="578" y="70" font-size="16" font-family="Arial, PingFang SC, Microsoft YaHei, sans-serif" fill="#333">智能照明</text>
<rect x="720" y="60" width="22" height="10" fill="#59A14F"/>
<text x="748" y="70" font-size="16" font-family="Arial, PingFang SC, Microsoft YaHei, sans-serif" fill="#333">其他主营业务</text>
<line x1="90" y1="130" x2="90" y2="630" stroke="#555" stroke-width="1"/>
<line x1="90" y1="630.0" x2="1130" y2="630.0" stroke="#555" stroke-width="1"/>
<line x1="90" y1="630.0" x2="1130" y2="630.0" stroke="#eee" stroke-width="1"/>
<text x="78" y="635.0" text-anchor="end" font-size="14" font-family="Arial, PingFang SC, Microsoft YaHei, sans-serif" fill="#666">0.00</text>
<line x1="90" y1="530.0" x2="1130" y2="530.0" stroke="#eee" stroke-width="1"/>
<text x="78" y="535.0" text-anchor="end" font-size="14" font-family="Arial, PingFang SC, Microsoft YaHei, sans-serif" fill="#666">23.50</text>
<line x1="90" y1="430.0" x2="1130" y2="430.0" stroke="#eee" stroke-width="1"/>
<text x="78" y="435.0" text-anchor="end" font-size="14" font-family="Arial, PingFang SC, Microsoft YaHei, sans-serif" fill="#666">47.00</text>
<line x1="90" y1="330.0" x2="1130" y2="330.0" stroke="#eee" stroke-width="1"/>
<text x="78" y="335.0" text-anchor="end" font-size="14" font-family="Arial, PingFang SC, Microsoft YaHei, sans-serif" fill="#666">70.51</text>
<line x1="90" y1="229.99999999999997" x2="1130" y2="229.99999999999997" stroke="#eee" stroke-width="1"/>
<text x="78" y="234.99999999999997" text-anchor="end" font-size="14" font-family="Arial, PingFang SC, Microsoft YaHei, sans-serif" fill="#666">94.01</text>
<line x1="90" y1="129.99999999999994" x2="1130" y2="129.99999999999994" stroke="#eee" stroke-width="1"/>
<text x="78" y="134.99999999999994" text-anchor="end" font-size="14" font-family="Arial, PingFang SC, Microsoft YaHei, sans-serif" fill="#666">117.51</text>
<text x="194.0" y="658" text-anchor="middle" font-size="14" font-family="Arial, PingFang SC, Microsoft YaHei, sans-serif" fill="#666">2021</text>
<text x="402.0" y="658" text-anchor="middle" font-size="14" font-family="Arial, PingFang SC, Microsoft YaHei, sans-serif" fill="#666">2022</text>
<text x="610.0" y="658" text-anchor="middle" font-size="14" font-family="Arial, PingFang SC, Microsoft YaHei, sans-serif" fill="#666">2023</text>
<text x="818.0" y="658" text-anchor="middle" font-size="14" font-family="Arial, PingFang SC, Microsoft YaHei, sans-serif" fill="#666">2024</text>
<text x="1026.0" y="658" text-anchor="middle" font-size="14" font-family="Arial, PingFang SC, Microsoft YaHei, sans-serif" fill="#666">2025</text>
<rect x="123.28" y="197.65" width="26.02" height="432.35" fill="#4E79A7" opacity="0.85"/>
<rect x="331.28" y="194.25" width="26.02" height="435.75" fill="#4E79A7" opacity="0.85"/>
<rect x="539.28" y="174.34" width="26.02" height="455.66" fill="#4E79A7" opacity="0.85"/>
<rect x="747.28" y="154.30" width="26.02" height="475.70" fill="#4E79A7" opacity="0.85"/>
<rect x="955.28" y="130.00" width="26.02" height="500.00" fill="#4E79A7" opacity="0.85"/>
<rect x="151.57" y="259.69" width="26.02" height="370.31" fill="#F28E2B" opacity="0.85"/>
<rect x="359.57" y="234.50" width="26.02" height="395.50" fill="#F28E2B" opacity="0.85"/>
<rect x="567.57" y="217.86" width="26.02" height="412.14" fill="#F28E2B" opacity="0.85"/>
<rect x="775.57" y="191.02" width="26.02" height="438.98" fill="#F28E2B" opacity="0.85"/>
<rect x="983.57" y="159.32" width="26.02" height="470.68" fill="#F28E2B" opacity="0.85"/>
<rect x="179.86" y="459.76" width="26.02" height="170.24" fill="#E15759" opacity="0.85"/>
<rect x="387.86" y="381.94" width="26.02" height="248.06" fill="#E15759" opacity="0.85"/>
<rect x="595.86" y="380.83" width="26.02" height="249.17" fill="#E15759" opacity="0.85"/>
<rect x="803.86" y="334.37" width="26.02" height="295.63" fill="#E15759" opacity="0.85"/>
<rect x="1011.86" y="337.39" width="26.02" height="292.61" fill="#E15759" opacity="0.85"/>
<rect x="208.14" y="595.62" width="26.02" height="34.38" fill="#76B7B2" opacity="0.85"/>
<rect x="416.14" y="601.19" width="26.02" height="28.81" fill="#76B7B2" opacity="0.85"/>
<rect x="624.14" y="596.94" width="26.02" height="33.06" fill="#76B7B2" opacity="0.85"/>
<rect x="832.14" y="600.51" width="26.02" height="29.49" fill="#76B7B2" opacity="0.85"/>
<rect x="1040.14" y="604.85" width="26.02" height="25.15" fill="#76B7B2" opacity="0.85"/>
<rect x="236.43" y="626.72" width="26.02" height="3.28" fill="#59A14F" opacity="0.85"/>
<rect x="444.43" y="625.57" width="26.02" height="4.43" fill="#59A14F" opacity="0.85"/>
<rect x="652.43" y="625.23" width="26.02" height="4.77" fill="#59A14F" opacity="0.85"/>
<rect x="860.43" y="625.62" width="26.02" height="4.38" fill="#59A14F" opacity="0.85"/>
<rect x="1068.43" y="626.64" width="26.02" height="3.36" fill="#59A14F" opacity="0.85"/>
</svg>