<svg xmlns="http://www.w3.org/2000/svg" width="1200" height="720" viewBox="0 0 1200 720">
<rect x="0" y="0" width="100%" height="100%" fill="#ffffff"/>
<text x="40" y="42" font-size="26" font-family="Arial, PingFang SC, Microsoft YaHei, sans-serif" fill="#222">财务比率分析图</text>
<rect x="40" y="60" width="22" height="10" fill="#4E79A7"/>
<text x="68" y="70" font-size="16" font-family="Arial, PingFang SC, Microsoft YaHei, sans-serif" fill="#333">资产负债率</text>
<rect x="210" y="60" width="22" height="10" fill="#F28E2B"/>
<text x="238" y="70" font-size="16" font-family="Arial, PingFang SC, Microsoft YaHei, sans-serif" fill="#333">流动比率</text>
<rect x="380" y="60" width="22" height="10" fill="#E15759"/>
<text x="408" y="70" font-size="16" font-family="Arial, PingFang SC, Microsoft YaHei, sans-serif" fill="#333">速动比率</text>
<rect x="550" y="60" width="22" height="10" fill="#76B7B2"/>
<text x="578" y="70" font-size="16" font-family="Arial, PingFang SC, Microsoft YaHei, sans-serif" fill="#333">应收周转率</text>
<rect x="720" y="60" width="22" height="10" fill="#59A14F"/>
<text x="748" y="70" font-size="16" font-family="Arial, PingFang SC, Microsoft YaHei, sans-serif" fill="#333">存货周转率</text>
<line x1="90" y1="130" x2="90" y2="630" stroke="#555" stroke-width="1"/>
<line x1="90" y1="630.0" x2="1130" y2="630.0" stroke="#555" stroke-width="1"/>
<line x1="90" y1="630.0" x2="1130" y2="630.0" stroke="#eee" stroke-width="1"/>
<text x="78" y="635.0" text-anchor="end" font-size="14" font-family="Arial, PingFang SC, Microsoft YaHei, sans-serif" fill="#666">0.00</text>
<line x1="90" y1="530.0" x2="1130" y2="530.0" stroke="#eee" stroke-width="1"/>
<text x="78" y="535.0" text-anchor="end" font-size="14" font-family="Arial, PingFang SC, Microsoft YaHei, sans-serif" fill="#666">11.42</text>
<line x1="90" y1="430.0" x2="1130" y2="430.0" stroke="#eee" stroke-width="1"/>
<text x="78" y="435.0" text-anchor="end" font-size="14" font-family="Arial, PingFang SC, Microsoft YaHei, sans-serif" fill="#666">22.85</text>
<line x1="90" y1="330.0" x2="1130" y2="330.0" stroke="#eee" stroke-width="1"/>
<text x="78" y="335.0" text-anchor="end" font-size="14" font-family="Arial, PingFang SC, Microsoft YaHei, sans-serif" fill="#666">34.27</text>
<line x1="90" y1="230.0" x2="1130" y2="230.0" stroke="#eee" stroke-width="1"/>
<text x="78" y="235.0" text-anchor="end" font-size="14" font-family="Arial, PingFang SC, Microsoft YaHei, sans-serif" fill="#666">45.70</text>
<line x1="90" y1="130.00000000000006" x2="1130" y2="130.00000000000006" stroke="#eee" stroke-width="1"/>
<text x="78" y="135.00000000000006" text-anchor="end" font-size="14" font-family="Arial, PingFang SC, Microsoft YaHei, sans-serif" fill="#666">57.12</text>
<text x="194.0" y="658" text-anchor="middle" font-size="14" font-family="Arial, PingFang SC, Microsoft YaHei, sans-serif" fill="#666">2021</text>
<text x="402.0" y="658" text-anchor="middle" font-size="14" font-family="Arial, PingFang SC, Microsoft YaHei, sans-serif" fill="#666">2022</text>
<text x="610.0" y="658" text-anchor="middle" font-size="14" font-family="Arial, PingFang SC, Microsoft YaHei, sans-serif" fill="#666">2023</text>
<text x="818.0" y="658" text-anchor="middle" font-size="14" font-family="Arial, PingFang SC, Microsoft YaHei, sans-serif" fill="#666">2024</text>
<text x="1026.0" y="658" text-anchor="middle" font-size="14" font-family="Arial, PingFang SC, Microsoft YaHei, sans-serif" fill="#666">2025</text>
<rect x="123.28" y="592.27" width="65.06" height="37.73" fill="#4E79A7" opacity="0.85"/>
<rect x="331.28" y="595.60" width="65.06" height="34.40" fill="#4E79A7" opacity="0.85"/>
<rect x="539.28" y="595.34" width="65.06" height="34.66" fill="#4E79A7" opacity="0.85"/>
<rect x="747.28" y="597.35" width="65.06" height="32.65" fill="#4E79A7" opacity="0.85"/>
<rect x="955.28" y="593.41" width="65.06" height="36.59" fill="#4E79A7" opacity="0.85"/>
<rect x="194.00" y="611.27" width="65.06" height="18.73" fill="#F28E2B" opacity="0.85"/>
<rect x="402.00" y="613.54" width="65.06" height="16.46" fill="#F28E2B" opacity="0.85"/>
<rect x="610.00" y="608.99" width="65.06" height="21.01" fill="#F28E2B" opacity="0.85"/>
<rect x="818.00" y="605.67" width="65.06" height="24.33" fill="#F28E2B" opacity="0.85"/>
<rect x="1026.00" y="602.25" width="65.06" height="27.75" fill="#F28E2B" opacity="0.85"/>
<polyline fill="none" stroke="#E15759" stroke-width="3" points="194.00,130.00 402.00,162.91 610.00,152.85 818.00,145.06 1026.00,143.22"/>
<circle cx="194.00" cy="130.00" r="4" fill="#E15759"/>
<circle cx="402.00" cy="162.91" r="4" fill="#E15759"/>
<circle cx="610.00" cy="152.85" r="4" fill="#E15759"/>
<circle cx="818.00" cy="145.06" r="4" fill="#E15759"/>
<circle cx="1026.00" cy="143.22" r="4" fill="#E15759"/>
<polyline fill="none" stroke="#76B7B2" stroke-width="3" points="194.00,618.71 402.00,618.27 610.00,618.71 818.00,619.76 1026.00,620.55"/>
<circle cx="194.00" cy="618.71" r="4" fill="#76B7B2"/>
<circle cx="402.00" cy="618.27" r="4" fill="#76B7B2"/>
<circle cx="610.00" cy="618.71" r="4" fill="#76B7B2"/>
<circle cx="818.00" cy="619.76" r="4" fill="#76B7B2"/>
<circle cx="1026.00" cy="620.55" r="4" fill="#76B7B2"/>
<polyline fill="none" stroke="#59A14F" stroke-width="3" points="194.00,622.56 402.00,621.68 610.00,621.33 818.00,622.65 1026.00,623.26"/>
<circle cx="194.00" cy="622.56" r="4" fill="#59A14F"/>
<circle cx="402.00" cy="621.68" r="4" fill="#59A14F"/>
<circle cx="610.00" cy="621.33" r="4" fill="#59A14F"/>
<circle cx="818.00" cy="622.65" r="4" fill="#59A14F"/>
<circle cx="1026.00" cy="623.26" r="4" fill="#59A14F"/>
</svg>