<svg xmlns="http://www.w3.org/2000/svg" width="1200" height="720" viewBox="0 0 1200 720">
<rect x="0" y="0" width="100%" height="100%" fill="#ffffff"/>
<text x="40" y="42" font-size="26" font-family="Arial, PingFang SC, Microsoft YaHei, sans-serif" fill="#222">分产品收入变化图</text>
<rect x="40" y="60" width="22" height="10" fill="#4E79A7"/>
<text x="68" y="70" font-size="16" font-family="Arial, PingFang SC, Microsoft YaHei, sans-serif" fill="#333">互联网软件与服务</text>
<rect x="210" y="60" width="22" height="10" fill="#F28E2B"/>
<text x="238" y="70" font-size="16" font-family="Arial, PingFang SC, Microsoft YaHei, sans-serif" fill="#333">移动游戏</text>
<rect x="380" y="60" width="22" height="10" fill="#E15759"/>
<text x="408" y="70" font-size="16" font-family="Arial, PingFang SC, Microsoft YaHei, sans-serif" fill="#333">用户平台</text>
<rect x="550" y="60" width="22" height="10" fill="#76B7B2"/>
<text x="578" y="70" font-size="16" font-family="Arial, PingFang SC, Microsoft YaHei, sans-serif" fill="#333">国外</text>
<rect x="720" y="60" width="22" height="10" fill="#59A14F"/>
<text x="748" y="70" font-size="16" font-family="Arial, PingFang SC, Microsoft YaHei, sans-serif" fill="#333">网页游戏</text>
<line x1="90" y1="130" x2="90" y2="630" stroke="#555" stroke-width="1"/>
<line x1="90" y1="630.0" x2="1130" y2="630.0" stroke="#555" stroke-width="1"/>
<line x1="90" y1="630.0" x2="1130" y2="630.0" stroke="#eee" stroke-width="1"/>
<text x="78" y="635.0" text-anchor="end" font-size="14" font-family="Arial, PingFang SC, Microsoft YaHei, sans-serif" fill="#666">0.00</text>
<line x1="90" y1="530.0" x2="1130" y2="530.0" stroke="#eee" stroke-width="1"/>
<text x="78" y="535.0" text-anchor="end" font-size="14" font-family="Arial, PingFang SC, Microsoft YaHei, sans-serif" fill="#666">15.81</text>
<line x1="90" y1="430.0" x2="1130" y2="430.0" stroke="#eee" stroke-width="1"/>
<text x="78" y="435.0" text-anchor="end" font-size="14" font-family="Arial, PingFang SC, Microsoft YaHei, sans-serif" fill="#666">31.61</text>
<line x1="90" y1="330.0" x2="1130" y2="330.0" stroke="#eee" stroke-width="1"/>
<text x="78" y="335.0" text-anchor="end" font-size="14" font-family="Arial, PingFang SC, Microsoft YaHei, sans-serif" fill="#666">47.42</text>
<line x1="90" y1="229.99999999999997" x2="1130" y2="229.99999999999997" stroke="#eee" stroke-width="1"/>
<text x="78" y="234.99999999999997" text-anchor="end" font-size="14" font-family="Arial, PingFang SC, Microsoft YaHei, sans-serif" fill="#666">63.22</text>
<line x1="90" y1="130.0" x2="1130" y2="130.0" stroke="#eee" stroke-width="1"/>
<text x="78" y="135.0" text-anchor="end" font-size="14" font-family="Arial, PingFang SC, Microsoft YaHei, sans-serif" fill="#666">79.03</text>
<text x="194.0" y="658" text-anchor="middle" font-size="14" font-family="Arial, PingFang SC, Microsoft YaHei, sans-serif" fill="#666">2021</text>
<text x="402.0" y="658" text-anchor="middle" font-size="14" font-family="Arial, PingFang SC, Microsoft YaHei, sans-serif" fill="#666">2022</text>
<text x="610.0" y="658" text-anchor="middle" font-size="14" font-family="Arial, PingFang SC, Microsoft YaHei, sans-serif" fill="#666">2023</text>
<text x="818.0" y="658" text-anchor="middle" font-size="14" font-family="Arial, PingFang SC, Microsoft YaHei, sans-serif" fill="#666">2024</text>
<text x="1026.0" y="658" text-anchor="middle" font-size="14" font-family="Arial, PingFang SC, Microsoft YaHei, sans-serif" fill="#666">2025</text>
<rect x="123.28" y="479.74" width="26.02" height="150.26" fill="#4E79A7" opacity="0.85"/>
<rect x="331.28" y="267.16" width="26.02" height="362.84" fill="#4E79A7" opacity="0.85"/>
<rect x="539.28" y="233.19" width="26.02" height="396.81" fill="#4E79A7" opacity="0.85"/>
<rect x="747.28" y="144.55" width="26.02" height="485.45" fill="#4E79A7" opacity="0.85"/>
<rect x="955.28" y="130.00" width="26.02" height="500.00" fill="#4E79A7" opacity="0.85"/>
<rect x="151.57" y="487.78" width="26.02" height="142.22" fill="#F28E2B" opacity="0.85"/>
<rect x="359.57" y="306.58" width="26.02" height="323.42" fill="#F28E2B" opacity="0.85"/>
<rect x="567.57" y="296.33" width="26.02" height="333.67" fill="#F28E2B" opacity="0.85"/>
<rect x="775.57" y="240.91" width="26.02" height="389.09" fill="#F28E2B" opacity="0.85"/>
<rect x="983.57" y="255.08" width="26.02" height="374.92" fill="#F28E2B" opacity="0.85"/>
<rect x="179.86" y="630.00" width="26.02" height="0.00" fill="#E15759" opacity="0.85"/>
<rect x="387.86" y="630.00" width="26.02" height="0.00" fill="#E15759" opacity="0.85"/>
<rect x="595.86" y="630.00" width="26.02" height="0.00" fill="#E15759" opacity="0.85"/>
<rect x="803.86" y="630.00" width="26.02" height="0.00" fill="#E15759" opacity="0.85"/>
<rect x="1011.86" y="552.62" width="26.02" height="77.38" fill="#E15759" opacity="0.85"/>
<rect x="208.14" y="625.95" width="26.02" height="4.05" fill="#76B7B2" opacity="0.85"/>
<rect x="416.14" y="628.86" width="26.02" height="1.14" fill="#76B7B2" opacity="0.85"/>
<rect x="624.14" y="620.76" width="26.02" height="9.24" fill="#76B7B2" opacity="0.85"/>
<rect x="832.14" y="598.30" width="26.02" height="31.70" fill="#76B7B2" opacity="0.85"/>
<rect x="1040.14" y="589.32" width="26.02" height="40.68" fill="#76B7B2" opacity="0.85"/>
<rect x="236.43" y="617.41" width="26.02" height="12.59" fill="#59A14F" opacity="0.85"/>
<rect x="444.43" y="621.33" width="26.02" height="8.67" fill="#59A14F" opacity="0.85"/>
<rect x="652.43" y="624.50" width="26.02" height="5.50" fill="#59A14F" opacity="0.85"/>
<rect x="860.43" y="618.30" width="26.02" height="11.70" fill="#59A14F" opacity="0.85"/>
<rect x="1068.43" y="623.80" width="26.02" height="6.20" fill="#59A14F" opacity="0.85"/>
</svg>