<svg xmlns="http://www.w3.org/2000/svg" width="1200" height="720" viewBox="0 0 1200 720">
<rect x="0" y="0" width="100%" height="100%" fill="#ffffff"/>
<text x="40" y="42" font-size="26" font-family="Arial, PingFang SC, Microsoft YaHei, sans-serif" fill="#222">分产品收入变化图</text>
<rect x="40" y="60" width="22" height="10" fill="#4E79A7"/>
<text x="68" y="70" font-size="16" font-family="Arial, PingFang SC, Microsoft YaHei, sans-serif" fill="#333">其他主营业务</text>
<rect x="210" y="60" width="22" height="10" fill="#F28E2B"/>
<text x="238" y="70" font-size="16" font-family="Arial, PingFang SC, Microsoft YaHei, sans-serif" fill="#333">国外</text>
<rect x="380" y="60" width="22" height="10" fill="#E15759"/>
<text x="408" y="70" font-size="16" font-family="Arial, PingFang SC, Microsoft YaHei, sans-serif" fill="#333">冶炼加工金</text>
<rect x="550" y="60" width="22" height="10" fill="#76B7B2"/>
<text x="578" y="70" font-size="16" font-family="Arial, PingFang SC, Microsoft YaHei, sans-serif" fill="#333">冶炼产铜</text>
<rect x="720" y="60" width="22" height="10" fill="#59A14F"/>
<text x="748" y="70" font-size="16" font-family="Arial, PingFang SC, Microsoft YaHei, sans-serif" fill="#333">铜精矿</text>
<line x1="90" y1="130" x2="90" y2="630" stroke="#555" stroke-width="1"/>
<line x1="90" y1="630.0" x2="1130" y2="630.0" stroke="#555" stroke-width="1"/>
<line x1="90" y1="630.0" x2="1130" y2="630.0" stroke="#eee" stroke-width="1"/>
<text x="78" y="635.0" text-anchor="end" font-size="14" font-family="Arial, PingFang SC, Microsoft YaHei, sans-serif" fill="#666">0.00</text>
<line x1="90" y1="530.0" x2="1130" y2="530.0" stroke="#eee" stroke-width="1"/>
<text x="78" y="535.0" text-anchor="end" font-size="14" font-family="Arial, PingFang SC, Microsoft YaHei, sans-serif" fill="#666">593.58</text>
<line x1="90" y1="430.0" x2="1130" y2="430.0" stroke="#eee" stroke-width="1"/>
<text x="78" y="435.0" text-anchor="end" font-size="14" font-family="Arial, PingFang SC, Microsoft YaHei, sans-serif" fill="#666">1187.17</text>
<line x1="90" y1="330.0" x2="1130" y2="330.0" stroke="#eee" stroke-width="1"/>
<text x="78" y="335.0" text-anchor="end" font-size="14" font-family="Arial, PingFang SC, Microsoft YaHei, sans-serif" fill="#666">1780.75</text>
<line x1="90" y1="229.99999999999994" x2="1130" y2="229.99999999999994" stroke="#eee" stroke-width="1"/>
<text x="78" y="234.99999999999994" text-anchor="end" font-size="14" font-family="Arial, PingFang SC, Microsoft YaHei, sans-serif" fill="#666">2374.34</text>
<line x1="90" y1="130.0" x2="1130" y2="130.0" stroke="#eee" stroke-width="1"/>
<text x="78" y="135.0" text-anchor="end" font-size="14" font-family="Arial, PingFang SC, Microsoft YaHei, sans-serif" fill="#666">2967.92</text>
<text x="194.0" y="658" text-anchor="middle" font-size="14" font-family="Arial, PingFang SC, Microsoft YaHei, sans-serif" fill="#666">2021</text>
<text x="402.0" y="658" text-anchor="middle" font-size="14" font-family="Arial, PingFang SC, Microsoft YaHei, sans-serif" fill="#666">2022</text>
<text x="610.0" y="658" text-anchor="middle" font-size="14" font-family="Arial, PingFang SC, Microsoft YaHei, sans-serif" fill="#666">2023</text>
<text x="818.0" y="658" text-anchor="middle" font-size="14" font-family="Arial, PingFang SC, Microsoft YaHei, sans-serif" fill="#666">2024</text>
<text x="1026.0" y="658" text-anchor="middle" font-size="14" font-family="Arial, PingFang SC, Microsoft YaHei, sans-serif" fill="#666">2025</text>
<rect x="123.28" y="316.26" width="26.02" height="313.74" fill="#4E79A7" opacity="0.85"/>
<rect x="331.28" y="201.88" width="26.02" height="428.12" fill="#4E79A7" opacity="0.85"/>
<rect x="539.28" y="276.02" width="26.02" height="353.98" fill="#4E79A7" opacity="0.85"/>
<rect x="747.28" y="245.09" width="26.02" height="384.91" fill="#4E79A7" opacity="0.85"/>
<rect x="955.28" y="130.00" width="26.02" height="500.00" fill="#4E79A7" opacity="0.85"/>
<rect x="151.57" y="516.43" width="26.02" height="113.57" fill="#F28E2B" opacity="0.85"/>
<rect x="359.57" y="485.75" width="26.02" height="144.25" fill="#F28E2B" opacity="0.85"/>
<rect x="567.57" y="479.78" width="26.02" height="150.22" fill="#F28E2B" opacity="0.85"/>
<rect x="775.57" y="408.51" width="26.02" height="221.49" fill="#F28E2B" opacity="0.85"/>
<rect x="983.57" y="295.29" width="26.02" height="334.71" fill="#F28E2B" opacity="0.85"/>
<rect x="179.86" y="380.23" width="26.02" height="249.77" fill="#E15759" opacity="0.85"/>
<rect x="387.86" y="375.91" width="26.02" height="254.09" fill="#E15759" opacity="0.85"/>
<rect x="595.86" y="355.60" width="26.02" height="274.40" fill="#E15759" opacity="0.85"/>
<rect x="803.86" y="418.57" width="26.02" height="211.43" fill="#E15759" opacity="0.85"/>
<rect x="1011.86" y="418.03" width="26.02" height="211.97" fill="#E15759" opacity="0.85"/>
<rect x="208.14" y="535.53" width="26.02" height="94.47" fill="#76B7B2" opacity="0.85"/>
<rect x="416.14" y="523.61" width="26.02" height="106.39" fill="#76B7B2" opacity="0.85"/>
<rect x="624.14" y="519.64" width="26.02" height="110.36" fill="#76B7B2" opacity="0.85"/>
<rect x="832.14" y="546.84" width="26.02" height="83.16" fill="#76B7B2" opacity="0.85"/>
<rect x="1040.14" y="545.82" width="26.02" height="84.18" fill="#76B7B2" opacity="0.85"/>
<rect x="236.43" y="582.60" width="26.02" height="47.40" fill="#59A14F" opacity="0.85"/>
<rect x="444.43" y="555.12" width="26.02" height="74.88" fill="#59A14F" opacity="0.85"/>
<rect x="652.43" y="549.08" width="26.02" height="80.92" fill="#59A14F" opacity="0.85"/>
<rect x="860.43" y="571.11" width="26.02" height="58.89" fill="#59A14F" opacity="0.85"/>
<rect x="1068.43" y="558.61" width="26.02" height="71.39" fill="#59A14F" opacity="0.85"/>
</svg>