<svg xmlns="http://www.w3.org/2000/svg" width="1200" height="720" viewBox="0 0 1200 720">
<rect x="0" y="0" width="100%" height="100%" fill="#ffffff"/>
<text x="40" y="42" font-size="26" font-family="Arial, PingFang SC, Microsoft YaHei, sans-serif" fill="#222">财务比率分析图</text>
<rect x="40" y="60" width="22" height="10" fill="#4E79A7"/>
<text x="68" y="70" font-size="16" font-family="Arial, PingFang SC, Microsoft YaHei, sans-serif" fill="#333">资产负债率</text>
<rect x="210" y="60" width="22" height="10" fill="#F28E2B"/>
<text x="238" y="70" font-size="16" font-family="Arial, PingFang SC, Microsoft YaHei, sans-serif" fill="#333">流动比率</text>
<rect x="380" y="60" width="22" height="10" fill="#E15759"/>
<text x="408" y="70" font-size="16" font-family="Arial, PingFang SC, Microsoft YaHei, sans-serif" fill="#333">速动比率</text>
<rect x="550" y="60" width="22" height="10" fill="#76B7B2"/>
<text x="578" y="70" font-size="16" font-family="Arial, PingFang SC, Microsoft YaHei, sans-serif" fill="#333">应收周转率</text>
<rect x="720" y="60" width="22" height="10" fill="#59A14F"/>
<text x="748" y="70" font-size="16" font-family="Arial, PingFang SC, Microsoft YaHei, sans-serif" fill="#333">存货周转率</text>
<line x1="90" y1="130" x2="90" y2="630" stroke="#555" stroke-width="1"/>
<line x1="90" y1="630.0" x2="1130" y2="630.0" stroke="#555" stroke-width="1"/>
<line x1="90" y1="630.0" x2="1130" y2="630.0" stroke="#eee" stroke-width="1"/>
<text x="78" y="635.0" text-anchor="end" font-size="14" font-family="Arial, PingFang SC, Microsoft YaHei, sans-serif" fill="#666">0.00</text>
<line x1="90" y1="530.0" x2="1130" y2="530.0" stroke="#eee" stroke-width="1"/>
<text x="78" y="535.0" text-anchor="end" font-size="14" font-family="Arial, PingFang SC, Microsoft YaHei, sans-serif" fill="#666">25.10</text>
<line x1="90" y1="430.0" x2="1130" y2="430.0" stroke="#eee" stroke-width="1"/>
<text x="78" y="435.0" text-anchor="end" font-size="14" font-family="Arial, PingFang SC, Microsoft YaHei, sans-serif" fill="#666">50.21</text>
<line x1="90" y1="330.0" x2="1130" y2="330.0" stroke="#eee" stroke-width="1"/>
<text x="78" y="335.0" text-anchor="end" font-size="14" font-family="Arial, PingFang SC, Microsoft YaHei, sans-serif" fill="#666">75.31</text>
<line x1="90" y1="230.0" x2="1130" y2="230.0" stroke="#eee" stroke-width="1"/>
<text x="78" y="235.0" text-anchor="end" font-size="14" font-family="Arial, PingFang SC, Microsoft YaHei, sans-serif" fill="#666">100.42</text>
<line x1="90" y1="129.99999999999994" x2="1130" y2="129.99999999999994" stroke="#eee" stroke-width="1"/>
<text x="78" y="134.99999999999994" text-anchor="end" font-size="14" font-family="Arial, PingFang SC, Microsoft YaHei, sans-serif" fill="#666">125.52</text>
<text x="194.0" y="658" text-anchor="middle" font-size="14" font-family="Arial, PingFang SC, Microsoft YaHei, sans-serif" fill="#666">2021</text>
<text x="402.0" y="658" text-anchor="middle" font-size="14" font-family="Arial, PingFang SC, Microsoft YaHei, sans-serif" fill="#666">2022</text>
<text x="610.0" y="658" text-anchor="middle" font-size="14" font-family="Arial, PingFang SC, Microsoft YaHei, sans-serif" fill="#666">2023</text>
<text x="818.0" y="658" text-anchor="middle" font-size="14" font-family="Arial, PingFang SC, Microsoft YaHei, sans-serif" fill="#666">2024</text>
<text x="1026.0" y="658" text-anchor="middle" font-size="14" font-family="Arial, PingFang SC, Microsoft YaHei, sans-serif" fill="#666">2025</text>
<rect x="123.28" y="130.00" width="65.06" height="500.00" fill="#4E79A7" opacity="0.85"/>
<rect x="331.28" y="422.14" width="65.06" height="207.86" fill="#4E79A7" opacity="0.85"/>
<rect x="539.28" y="481.06" width="65.06" height="148.94" fill="#4E79A7" opacity="0.85"/>
<rect x="747.28" y="464.21" width="65.06" height="165.79" fill="#4E79A7" opacity="0.85"/>
<rect x="955.28" y="457.48" width="65.06" height="172.52" fill="#4E79A7" opacity="0.85"/>
<rect x="194.00" y="589.41" width="65.06" height="40.59" fill="#F28E2B" opacity="0.85"/>
<rect x="402.00" y="592.68" width="65.06" height="37.32" fill="#F28E2B" opacity="0.85"/>
<rect x="610.00" y="597.06" width="65.06" height="32.94" fill="#F28E2B" opacity="0.85"/>
<rect x="818.00" y="600.24" width="65.06" height="29.76" fill="#F28E2B" opacity="0.85"/>
<rect x="1026.00" y="603.19" width="65.06" height="26.81" fill="#F28E2B" opacity="0.85"/>
<polyline fill="none" stroke="#E15759" stroke-width="3" points="194.00,409.04 402.00,393.66 610.00,392.35 818.00,410.15 1026.00,424.61"/>
<circle cx="194.00" cy="409.04" r="4" fill="#E15759"/>
<circle cx="402.00" cy="393.66" r="4" fill="#E15759"/>
<circle cx="610.00" cy="392.35" r="4" fill="#E15759"/>
<circle cx="818.00" cy="410.15" r="4" fill="#E15759"/>
<circle cx="1026.00" cy="424.61" r="4" fill="#E15759"/>
<polyline fill="none" stroke="#76B7B2" stroke-width="3" points="194.00,626.26 402.00,625.54 610.00,626.34 818.00,626.06 1026.00,625.46"/>
<circle cx="194.00" cy="626.26" r="4" fill="#76B7B2"/>
<circle cx="402.00" cy="625.54" r="4" fill="#76B7B2"/>
<circle cx="610.00" cy="626.34" r="4" fill="#76B7B2"/>
<circle cx="818.00" cy="626.06" r="4" fill="#76B7B2"/>
<circle cx="1026.00" cy="625.46" r="4" fill="#76B7B2"/>
<polyline fill="none" stroke="#59A14F" stroke-width="3" points="194.00,627.81 402.00,627.13 610.00,627.73 818.00,627.37 1026.00,626.65"/>
<circle cx="194.00" cy="627.81" r="4" fill="#59A14F"/>
<circle cx="402.00" cy="627.13" r="4" fill="#59A14F"/>
<circle cx="610.00" cy="627.73" r="4" fill="#59A14F"/>
<circle cx="818.00" cy="627.37" r="4" fill="#59A14F"/>
<circle cx="1026.00" cy="626.65" r="4" fill="#59A14F"/>
</svg>