<svg xmlns="http://www.w3.org/2000/svg" width="1200" height="720" viewBox="0 0 1200 720">
<rect x="0" y="0" width="100%" height="100%" fill="#ffffff"/>
<text x="40" y="42" font-size="26" font-family="Arial, PingFang SC, Microsoft YaHei, sans-serif" fill="#222">分产品收入变化图</text>
<rect x="40" y="60" width="22" height="10" fill="#4E79A7"/>
<text x="68" y="70" font-size="16" font-family="Arial, PingFang SC, Microsoft YaHei, sans-serif" fill="#333">医疗行业</text>
<rect x="210" y="60" width="22" height="10" fill="#F28E2B"/>
<text x="238" y="70" font-size="16" font-family="Arial, PingFang SC, Microsoft YaHei, sans-serif" fill="#333">医疗服务-屈光项目</text>
<rect x="380" y="60" width="22" height="10" fill="#E15759"/>
<text x="408" y="70" font-size="16" font-family="Arial, PingFang SC, Microsoft YaHei, sans-serif" fill="#333">视光服务</text>
<rect x="550" y="60" width="22" height="10" fill="#76B7B2"/>
<text x="578" y="70" font-size="16" font-family="Arial, PingFang SC, Microsoft YaHei, sans-serif" fill="#333">医疗服务-白内障手术</text>
<rect x="720" y="60" width="22" height="10" fill="#59A14F"/>
<text x="748" y="70" font-size="16" font-family="Arial, PingFang SC, Microsoft YaHei, sans-serif" fill="#333">医疗服务-眼前段手术</text>
<line x1="90" y1="130" x2="90" y2="630" stroke="#555" stroke-width="1"/>
<line x1="90" y1="630.0" x2="1130" y2="630.0" stroke="#555" stroke-width="1"/>
<line x1="90" y1="630.0" x2="1130" y2="630.0" stroke="#eee" stroke-width="1"/>
<text x="78" y="635.0" text-anchor="end" font-size="14" font-family="Arial, PingFang SC, Microsoft YaHei, sans-serif" fill="#666">0.00</text>
<line x1="90" y1="530.0" x2="1130" y2="530.0" stroke="#eee" stroke-width="1"/>
<text x="78" y="535.0" text-anchor="end" font-size="14" font-family="Arial, PingFang SC, Microsoft YaHei, sans-serif" fill="#666">44.56</text>
<line x1="90" y1="430.0" x2="1130" y2="430.0" stroke="#eee" stroke-width="1"/>
<text x="78" y="435.0" text-anchor="end" font-size="14" font-family="Arial, PingFang SC, Microsoft YaHei, sans-serif" fill="#666">89.12</text>
<line x1="90" y1="330.0" x2="1130" y2="330.0" stroke="#eee" stroke-width="1"/>
<text x="78" y="335.0" text-anchor="end" font-size="14" font-family="Arial, PingFang SC, Microsoft YaHei, sans-serif" fill="#666">133.69</text>
<line x1="90" y1="230.0" x2="1130" y2="230.0" stroke="#eee" stroke-width="1"/>
<text x="78" y="235.0" text-anchor="end" font-size="14" font-family="Arial, PingFang SC, Microsoft YaHei, sans-serif" fill="#666">178.25</text>
<line x1="90" y1="130.0" x2="1130" y2="130.0" stroke="#eee" stroke-width="1"/>
<text x="78" y="135.0" text-anchor="end" font-size="14" font-family="Arial, PingFang SC, Microsoft YaHei, sans-serif" fill="#666">222.81</text>
<text x="194.0" y="658" text-anchor="middle" font-size="14" font-family="Arial, PingFang SC, Microsoft YaHei, sans-serif" fill="#666">2021</text>
<text x="402.0" y="658" text-anchor="middle" font-size="14" font-family="Arial, PingFang SC, Microsoft YaHei, sans-serif" fill="#666">2022</text>
<text x="610.0" y="658" text-anchor="middle" font-size="14" font-family="Arial, PingFang SC, Microsoft YaHei, sans-serif" fill="#666">2023</text>
<text x="818.0" y="658" text-anchor="middle" font-size="14" font-family="Arial, PingFang SC, Microsoft YaHei, sans-serif" fill="#666">2024</text>
<text x="1026.0" y="658" text-anchor="middle" font-size="14" font-family="Arial, PingFang SC, Microsoft YaHei, sans-serif" fill="#666">2025</text>
<rect x="123.28" y="294.00" width="26.02" height="336.00" fill="#4E79A7" opacity="0.85"/>
<rect x="331.28" y="269.40" width="26.02" height="360.60" fill="#4E79A7" opacity="0.85"/>
<rect x="539.28" y="174.16" width="26.02" height="455.84" fill="#4E79A7" opacity="0.85"/>
<rect x="747.28" y="160.77" width="26.02" height="469.23" fill="#4E79A7" opacity="0.85"/>
<rect x="955.28" y="130.00" width="26.02" height="500.00" fill="#4E79A7" opacity="0.85"/>
<rect x="151.57" y="442.28" width="26.02" height="187.72" fill="#F28E2B" opacity="0.85"/>
<rect x="359.57" y="410.64" width="26.02" height="219.36" fill="#F28E2B" opacity="0.85"/>
<rect x="567.57" y="372.85" width="26.02" height="257.15" fill="#F28E2B" opacity="0.85"/>
<rect x="775.57" y="366.14" width="26.02" height="263.86" fill="#F28E2B" opacity="0.85"/>
<rect x="983.57" y="338.25" width="26.02" height="291.75" fill="#F28E2B" opacity="0.85"/>
<rect x="179.86" y="519.97" width="26.02" height="110.03" fill="#E15759" opacity="0.85"/>
<rect x="387.86" y="505.63" width="26.02" height="124.37" fill="#E15759" opacity="0.85"/>
<rect x="595.86" y="467.06" width="26.02" height="162.94" fill="#E15759" opacity="0.85"/>
<rect x="803.86" y="458.33" width="26.02" height="171.67" fill="#E15759" opacity="0.85"/>
<rect x="1011.86" y="439.07" width="26.02" height="190.93" fill="#E15759" opacity="0.85"/>
<rect x="208.14" y="556.75" width="26.02" height="73.25" fill="#76B7B2" opacity="0.85"/>
<rect x="416.14" y="558.46" width="26.02" height="71.54" fill="#76B7B2" opacity="0.85"/>
<rect x="624.14" y="517.77" width="26.02" height="112.23" fill="#76B7B2" opacity="0.85"/>
<rect x="832.14" y="512.77" width="26.02" height="117.23" fill="#76B7B2" opacity="0.85"/>
<rect x="1040.14" y="511.98" width="26.02" height="118.02" fill="#76B7B2" opacity="0.85"/>
<rect x="236.43" y="581.39" width="26.02" height="48.61" fill="#59A14F" opacity="0.85"/>
<rect x="444.43" y="584.67" width="26.02" height="45.33" fill="#59A14F" opacity="0.85"/>
<rect x="652.43" y="570.29" width="26.02" height="59.71" fill="#59A14F" opacity="0.85"/>
<rect x="860.43" y="566.94" width="26.02" height="63.06" fill="#59A14F" opacity="0.85"/>
<rect x="1068.43" y="561.31" width="26.02" height="68.69" fill="#59A14F" opacity="0.85"/>
</svg>