<svg xmlns="http://www.w3.org/2000/svg" width="1200" height="720" viewBox="0 0 1200 720">
<rect x="0" y="0" width="100%" height="100%" fill="#ffffff"/>
<text x="40" y="42" font-size="26" font-family="Arial, PingFang SC, Microsoft YaHei, sans-serif" fill="#222">分产品收入变化图</text>
<rect x="40" y="60" width="22" height="10" fill="#4E79A7"/>
<text x="68" y="70" font-size="16" font-family="Arial, PingFang SC, Microsoft YaHei, sans-serif" fill="#333">网络游戏行业</text>
<rect x="210" y="60" width="22" height="10" fill="#F28E2B"/>
<text x="238" y="70" font-size="16" font-family="Arial, PingFang SC, Microsoft YaHei, sans-serif" fill="#333">移动游戏</text>
<rect x="380" y="60" width="22" height="10" fill="#E15759"/>
<text x="408" y="70" font-size="16" font-family="Arial, PingFang SC, Microsoft YaHei, sans-serif" fill="#333">国外</text>
<rect x="550" y="60" width="22" height="10" fill="#76B7B2"/>
<text x="578" y="70" font-size="16" font-family="Arial, PingFang SC, Microsoft YaHei, sans-serif" fill="#333">网页游戏</text>
<rect x="720" y="60" width="22" height="10" fill="#59A14F"/>
<text x="748" y="70" font-size="16" font-family="Arial, PingFang SC, Microsoft YaHei, sans-serif" fill="#333">其他业务</text>
<line x1="90" y1="130" x2="90" y2="630" stroke="#555" stroke-width="1"/>
<line x1="90" y1="630.0" x2="1130" y2="630.0" stroke="#555" stroke-width="1"/>
<line x1="90" y1="630.0" x2="1130" y2="630.0" stroke="#eee" stroke-width="1"/>
<text x="78" y="635.0" text-anchor="end" font-size="14" font-family="Arial, PingFang SC, Microsoft YaHei, sans-serif" fill="#666">0.00</text>
<line x1="90" y1="530.0" x2="1130" y2="530.0" stroke="#eee" stroke-width="1"/>
<text x="78" y="535.0" text-anchor="end" font-size="14" font-family="Arial, PingFang SC, Microsoft YaHei, sans-serif" fill="#666">53.05</text>
<line x1="90" y1="430.0" x2="1130" y2="430.0" stroke="#eee" stroke-width="1"/>
<text x="78" y="435.0" text-anchor="end" font-size="14" font-family="Arial, PingFang SC, Microsoft YaHei, sans-serif" fill="#666">106.10</text>
<line x1="90" y1="330.0" x2="1130" y2="330.0" stroke="#eee" stroke-width="1"/>
<text x="78" y="335.0" text-anchor="end" font-size="14" font-family="Arial, PingFang SC, Microsoft YaHei, sans-serif" fill="#666">159.15</text>
<line x1="90" y1="230.0" x2="1130" y2="230.0" stroke="#eee" stroke-width="1"/>
<text x="78" y="235.0" text-anchor="end" font-size="14" font-family="Arial, PingFang SC, Microsoft YaHei, sans-serif" fill="#666">212.20</text>
<line x1="90" y1="130.0" x2="1130" y2="130.0" stroke="#eee" stroke-width="1"/>
<text x="78" y="135.0" text-anchor="end" font-size="14" font-family="Arial, PingFang SC, Microsoft YaHei, sans-serif" fill="#666">265.25</text>
<text x="194.0" y="658" text-anchor="middle" font-size="14" font-family="Arial, PingFang SC, Microsoft YaHei, sans-serif" fill="#666">2021</text>
<text x="402.0" y="658" text-anchor="middle" font-size="14" font-family="Arial, PingFang SC, Microsoft YaHei, sans-serif" fill="#666">2022</text>
<text x="610.0" y="658" text-anchor="middle" font-size="14" font-family="Arial, PingFang SC, Microsoft YaHei, sans-serif" fill="#666">2023</text>
<text x="818.0" y="658" text-anchor="middle" font-size="14" font-family="Arial, PingFang SC, Microsoft YaHei, sans-serif" fill="#666">2024</text>
<text x="1026.0" y="658" text-anchor="middle" font-size="14" font-family="Arial, PingFang SC, Microsoft YaHei, sans-serif" fill="#666">2025</text>
<rect x="123.28" y="182.21" width="26.02" height="447.79" fill="#4E79A7" opacity="0.85"/>
<rect x="331.28" y="168.21" width="26.02" height="461.79" fill="#4E79A7" opacity="0.85"/>
<rect x="539.28" y="171.81" width="26.02" height="458.19" fill="#4E79A7" opacity="0.85"/>
<rect x="747.28" y="130.00" width="26.02" height="500.00" fill="#4E79A7" opacity="0.85"/>
<rect x="955.28" y="172.53" width="26.02" height="457.47" fill="#4E79A7" opacity="0.85"/>
<rect x="151.57" y="207.17" width="26.02" height="422.83" fill="#F28E2B" opacity="0.85"/>
<rect x="359.57" y="189.45" width="26.02" height="440.55" fill="#F28E2B" opacity="0.85"/>
<rect x="567.57" y="189.38" width="26.02" height="440.62" fill="#F28E2B" opacity="0.85"/>
<rect x="775.57" y="142.89" width="26.02" height="487.11" fill="#F28E2B" opacity="0.85"/>
<rect x="983.57" y="181.97" width="26.02" height="448.03" fill="#F28E2B" opacity="0.85"/>
<rect x="179.86" y="501.40" width="26.02" height="128.60" fill="#E15759" opacity="0.85"/>
<rect x="387.86" y="459.84" width="26.02" height="170.16" fill="#E15759" opacity="0.85"/>
<rect x="595.86" y="463.46" width="26.02" height="166.54" fill="#E15759" opacity="0.85"/>
<rect x="803.86" y="467.51" width="26.02" height="162.49" fill="#E15759" opacity="0.85"/>
<rect x="1011.86" y="477.22" width="26.02" height="152.78" fill="#E15759" opacity="0.85"/>
<rect x="208.14" y="605.68" width="26.02" height="24.32" fill="#76B7B2" opacity="0.85"/>
<rect x="416.14" y="612.28" width="26.02" height="17.72" fill="#76B7B2" opacity="0.85"/>
<rect x="624.14" y="615.86" width="26.02" height="14.14" fill="#76B7B2" opacity="0.85"/>
<rect x="832.14" y="618.24" width="26.02" height="11.76" fill="#76B7B2" opacity="0.85"/>
<rect x="1040.14" y="620.56" width="26.02" height="9.44" fill="#76B7B2" opacity="0.85"/>
<rect x="236.43" y="630.00" width="26.02" height="0.00" fill="#59A14F" opacity="0.85"/>
<rect x="444.43" y="630.00" width="26.02" height="0.00" fill="#59A14F" opacity="0.85"/>
<rect x="652.43" y="630.00" width="26.02" height="0.00" fill="#59A14F" opacity="0.85"/>
<rect x="860.43" y="627.21" width="26.02" height="2.79" fill="#59A14F" opacity="0.85"/>
<rect x="1068.43" y="626.55" width="26.02" height="3.45" fill="#59A14F" opacity="0.85"/>
</svg>