<svg xmlns="http://www.w3.org/2000/svg" width="1200" height="720" viewBox="0 0 1200 720">
<rect x="0" y="0" width="100%" height="100%" fill="#ffffff"/>
<text x="40" y="42" font-size="26" font-family="Arial, PingFang SC, Microsoft YaHei, sans-serif" fill="#222">财务比率分析图</text>
<rect x="40" y="60" width="22" height="10" fill="#4E79A7"/>
<text x="68" y="70" font-size="16" font-family="Arial, PingFang SC, Microsoft YaHei, sans-serif" fill="#333">资产负债率</text>
<rect x="210" y="60" width="22" height="10" fill="#F28E2B"/>
<text x="238" y="70" font-size="16" font-family="Arial, PingFang SC, Microsoft YaHei, sans-serif" fill="#333">流动比率</text>
<rect x="380" y="60" width="22" height="10" fill="#E15759"/>
<text x="408" y="70" font-size="16" font-family="Arial, PingFang SC, Microsoft YaHei, sans-serif" fill="#333">速动比率</text>
<rect x="550" y="60" width="22" height="10" fill="#76B7B2"/>
<text x="578" y="70" font-size="16" font-family="Arial, PingFang SC, Microsoft YaHei, sans-serif" fill="#333">应收周转率</text>
<rect x="720" y="60" width="22" height="10" fill="#59A14F"/>
<text x="748" y="70" font-size="16" font-family="Arial, PingFang SC, Microsoft YaHei, sans-serif" fill="#333">存货周转率</text>
<line x1="90" y1="130" x2="90" y2="630" stroke="#555" stroke-width="1"/>
<line x1="90" y1="630.0" x2="1130" y2="630.0" stroke="#555" stroke-width="1"/>
<line x1="90" y1="630.0" x2="1130" y2="630.0" stroke="#eee" stroke-width="1"/>
<text x="78" y="635.0" text-anchor="end" font-size="14" font-family="Arial, PingFang SC, Microsoft YaHei, sans-serif" fill="#666">0.00</text>
<line x1="90" y1="530.0" x2="1130" y2="530.0" stroke="#eee" stroke-width="1"/>
<text x="78" y="535.0" text-anchor="end" font-size="14" font-family="Arial, PingFang SC, Microsoft YaHei, sans-serif" fill="#666">8.94</text>
<line x1="90" y1="430.0" x2="1130" y2="430.0" stroke="#eee" stroke-width="1"/>
<text x="78" y="435.0" text-anchor="end" font-size="14" font-family="Arial, PingFang SC, Microsoft YaHei, sans-serif" fill="#666">17.88</text>
<line x1="90" y1="330.0" x2="1130" y2="330.0" stroke="#eee" stroke-width="1"/>
<text x="78" y="335.0" text-anchor="end" font-size="14" font-family="Arial, PingFang SC, Microsoft YaHei, sans-serif" fill="#666">26.83</text>
<line x1="90" y1="230.0" x2="1130" y2="230.0" stroke="#eee" stroke-width="1"/>
<text x="78" y="235.0" text-anchor="end" font-size="14" font-family="Arial, PingFang SC, Microsoft YaHei, sans-serif" fill="#666">35.77</text>
<line x1="90" y1="130.0" x2="1130" y2="130.0" stroke="#eee" stroke-width="1"/>
<text x="78" y="135.0" text-anchor="end" font-size="14" font-family="Arial, PingFang SC, Microsoft YaHei, sans-serif" fill="#666">44.71</text>
<text x="194.0" y="658" text-anchor="middle" font-size="14" font-family="Arial, PingFang SC, Microsoft YaHei, sans-serif" fill="#666">2021</text>
<text x="402.0" y="658" text-anchor="middle" font-size="14" font-family="Arial, PingFang SC, Microsoft YaHei, sans-serif" fill="#666">2022</text>
<text x="610.0" y="658" text-anchor="middle" font-size="14" font-family="Arial, PingFang SC, Microsoft YaHei, sans-serif" fill="#666">2023</text>
<text x="818.0" y="658" text-anchor="middle" font-size="14" font-family="Arial, PingFang SC, Microsoft YaHei, sans-serif" fill="#666">2024</text>
<text x="1026.0" y="658" text-anchor="middle" font-size="14" font-family="Arial, PingFang SC, Microsoft YaHei, sans-serif" fill="#666">2025</text>
<rect x="123.28" y="130.00" width="65.06" height="500.00" fill="#4E79A7" opacity="0.85"/>
<rect x="331.28" y="302.56" width="65.06" height="327.44" fill="#4E79A7" opacity="0.85"/>
<rect x="539.28" y="308.60" width="65.06" height="321.40" fill="#4E79A7" opacity="0.85"/>
<rect x="747.28" y="426.47" width="65.06" height="203.53" fill="#4E79A7" opacity="0.85"/>
<rect x="955.28" y="436.08" width="65.06" height="193.92" fill="#4E79A7" opacity="0.85"/>
<rect x="194.00" y="561.00" width="65.06" height="69.00" fill="#F28E2B" opacity="0.85"/>
<rect x="402.00" y="571.62" width="65.06" height="58.38" fill="#F28E2B" opacity="0.85"/>
<rect x="610.00" y="576.43" width="65.06" height="53.57" fill="#F28E2B" opacity="0.85"/>
<rect x="818.00" y="574.87" width="65.06" height="55.13" fill="#F28E2B" opacity="0.85"/>
<rect x="1026.00" y="571.85" width="65.06" height="58.15" fill="#F28E2B" opacity="0.85"/>
<polyline fill="none" stroke="#E15759" stroke-width="3" points="194.00,480.03 402.00,498.26 610.00,397.05 818.00,334.88 1026.00,308.37"/>
<circle cx="194.00" cy="480.03" r="4" fill="#E15759"/>
<circle cx="402.00" cy="498.26" r="4" fill="#E15759"/>
<circle cx="610.00" cy="397.05" r="4" fill="#E15759"/>
<circle cx="818.00" cy="334.88" r="4" fill="#E15759"/>
<circle cx="1026.00" cy="308.37" r="4" fill="#E15759"/>
<polyline fill="none" stroke="#76B7B2" stroke-width="3" points="194.00,573.86 402.00,562.34 610.00,595.44 818.00,600.36 1026.00,599.25"/>
<circle cx="194.00" cy="573.86" r="4" fill="#76B7B2"/>
<circle cx="402.00" cy="562.34" r="4" fill="#76B7B2"/>
<circle cx="610.00" cy="595.44" r="4" fill="#76B7B2"/>
<circle cx="818.00" cy="600.36" r="4" fill="#76B7B2"/>
<circle cx="1026.00" cy="599.25" r="4" fill="#76B7B2"/>
<polyline fill="none" stroke="#59A14F" stroke-width="3" points="194.00,579.00 402.00,568.83 610.00,599.02 818.00,604.06 1026.00,604.61"/>
<circle cx="194.00" cy="579.00" r="4" fill="#59A14F"/>
<circle cx="402.00" cy="568.83" r="4" fill="#59A14F"/>
<circle cx="610.00" cy="599.02" r="4" fill="#59A14F"/>
<circle cx="818.00" cy="604.06" r="4" fill="#59A14F"/>
<circle cx="1026.00" cy="604.61" r="4" fill="#59A14F"/>
</svg>