<svg xmlns="http://www.w3.org/2000/svg" width="1200" height="720" viewBox="0 0 1200 720">
<rect x="0" y="0" width="100%" height="100%" fill="#ffffff"/>
<text x="40" y="42" font-size="26" font-family="Arial, PingFang SC, Microsoft YaHei, sans-serif" fill="#222">分产品收入结构图</text>
<path d="M 380.00 390.00 L 380.00 170.00 A 220.00 220.00 0 0 1 565.09 271.09 Z" fill="#4E79A7" stroke="#fff" stroke-width="1"/>
<path d="M 380.00 390.00 L 565.09 271.09 A 220.00 220.00 0 0 1 580.09 481.45 Z" fill="#F28E2B" stroke="#fff" stroke-width="1"/>
<path d="M 380.00 390.00 L 580.09 481.45 A 220.00 220.00 0 0 1 448.83 598.95 Z" fill="#E15759" stroke="#fff" stroke-width="1"/>
<path d="M 380.00 390.00 L 448.83 598.95 A 220.00 220.00 0 0 1 273.44 582.47 Z" fill="#76B7B2" stroke="#fff" stroke-width="1"/>
<path d="M 380.00 390.00 L 273.44 582.47 A 220.00 220.00 0 0 1 166.37 442.57 Z" fill="#59A14F" stroke="#fff" stroke-width="1"/>
<path d="M 380.00 390.00 L 166.37 442.57 A 220.00 220.00 0 0 1 196.29 268.96 Z" fill="#EDC948" stroke="#fff" stroke-width="1"/>
<path d="M 380.00 390.00 L 196.29 268.96 A 220.00 220.00 0 0 1 335.19 174.61 Z" fill="#B07AA1" stroke="#fff" stroke-width="1"/>
<path d="M 380.00 390.00 L 335.19 174.61 A 220.00 220.00 0 0 1 380.00 170.00 Z" fill="#FF9DA7" stroke="#fff" stroke-width="1"/>
<rect x="700" y="179" width="20" height="12" fill="#4E79A7"/>
<text x="728" y="190" font-size="14" font-family="Arial, PingFang SC, Microsoft YaHei, sans-serif" fill="#333">工业自动化  112.44 (15.9%)</text>
<rect x="700" y="209" width="20" height="12" fill="#F28E2B"/>
<text x="728" y="220" font-size="14" font-family="Arial, PingFang SC, Microsoft YaHei, sans-serif" fill="#333">智能制造（通用自动化、智慧电梯等）  112.44 (15.9%)</text>
<rect x="700" y="239" width="20" height="12" fill="#E15759"/>
<text x="728" y="250" font-size="14" font-family="Arial, PingFang SC, Microsoft YaHei, sans-serif" fill="#333">新能源  92.66 (13.1%)</text>
<rect x="700" y="269" width="20" height="12" fill="#76B7B2"/>
<text x="728" y="280" font-size="14" font-family="Arial, PingFang SC, Microsoft YaHei, sans-serif" fill="#333">新能源&amp;轨道交通  92.66 (13.1%)</text>
<rect x="700" y="299" width="20" height="12" fill="#59A14F"/>
<text x="728" y="310" font-size="14" font-family="Arial, PingFang SC, Microsoft YaHei, sans-serif" fill="#333">新能源汽车&amp;轨道交通类  92.66 (13.1%)</text>
<rect x="700" y="329" width="20" height="12" fill="#EDC948"/>
<text x="728" y="340" font-size="14" font-family="Arial, PingFang SC, Microsoft YaHei, sans-serif" fill="#333">电驱&amp;电源系统、牵引系统  92.66 (13.1%)</text>
<rect x="700" y="359" width="20" height="12" fill="#B07AA1"/>
<text x="728" y="370" font-size="14" font-family="Arial, PingFang SC, Microsoft YaHei, sans-serif" fill="#333">通用自动化行业  88.07 (12.5%)</text>
<rect x="700" y="389" width="20" height="12" fill="#FF9DA7"/>
<text x="728" y="400" font-size="14" font-family="Arial, PingFang SC, Microsoft YaHei, sans-serif" fill="#333">智慧电梯电气类  23.07 (3.3%)</text>
</svg>