<svg xmlns="http://www.w3.org/2000/svg" width="1200" height="720" viewBox="0 0 1200 720">
<rect x="0" y="0" width="100%" height="100%" fill="#ffffff"/>
<text x="40" y="42" font-size="26" font-family="Arial, PingFang SC, Microsoft YaHei, sans-serif" fill="#222">分产品利润结构图</text>
<rect x="40" y="60" width="22" height="10" fill="#4E79A7"/>
<text x="68" y="70" font-size="16" font-family="Arial, PingFang SC, Microsoft YaHei, sans-serif" fill="#333">利润</text>
<rect x="210" y="60" width="22" height="10" fill="#F28E2B"/>
<text x="238" y="70" font-size="16" font-family="Arial, PingFang SC, Microsoft YaHei, sans-serif" fill="#333">毛利率</text>
<line x1="90" y1="130" x2="90" y2="630" stroke="#555" stroke-width="1"/>
<line x1="90" y1="630.0" x2="1130" y2="630.0" stroke="#555" stroke-width="1"/>
<line x1="90" y1="630.0" x2="1130" y2="630.0" stroke="#eee" stroke-width="1"/>
<text x="78" y="635.0" text-anchor="end" font-size="14" font-family="Arial, PingFang SC, Microsoft YaHei, sans-serif" fill="#666">0.00</text>
<line x1="90" y1="530.0" x2="1130" y2="530.0" stroke="#eee" stroke-width="1"/>
<text x="78" y="535.0" text-anchor="end" font-size="14" font-family="Arial, PingFang SC, Microsoft YaHei, sans-serif" fill="#666">9.16</text>
<line x1="90" y1="430.0" x2="1130" y2="430.0" stroke="#eee" stroke-width="1"/>
<text x="78" y="435.0" text-anchor="end" font-size="14" font-family="Arial, PingFang SC, Microsoft YaHei, sans-serif" fill="#666">18.33</text>
<line x1="90" y1="330.0" x2="1130" y2="330.0" stroke="#eee" stroke-width="1"/>
<text x="78" y="335.0" text-anchor="end" font-size="14" font-family="Arial, PingFang SC, Microsoft YaHei, sans-serif" fill="#666">27.49</text>
<line x1="90" y1="230.0" x2="1130" y2="230.0" stroke="#eee" stroke-width="1"/>
<text x="78" y="235.0" text-anchor="end" font-size="14" font-family="Arial, PingFang SC, Microsoft YaHei, sans-serif" fill="#666">36.66</text>
<line x1="90" y1="130.0" x2="1130" y2="130.0" stroke="#eee" stroke-width="1"/>
<text x="78" y="135.0" text-anchor="end" font-size="14" font-family="Arial, PingFang SC, Microsoft YaHei, sans-serif" fill="#666">45.82</text>
<text x="155.0" y="658" text-anchor="middle" font-size="14" font-family="Arial, PingFang SC, Microsoft YaHei, sans-serif" fill="#666">工业自动化</text>
<text x="285.0" y="658" text-anchor="middle" font-size="14" font-family="Arial, PingFang SC, Microsoft YaHei, sans-serif" fill="#666">智能制造（通用自动化、智慧电梯等）</text>
<text x="415.0" y="658" text-anchor="middle" font-size="14" font-family="Arial, PingFang SC, Microsoft YaHei, sans-serif" fill="#666">新能源</text>
<text x="545.0" y="658" text-anchor="middle" font-size="14" font-family="Arial, PingFang SC, Microsoft YaHei, sans-serif" fill="#666">新能源&amp;轨道交通</text>
<text x="675.0" y="658" text-anchor="middle" font-size="14" font-family="Arial, PingFang SC, Microsoft YaHei, sans-serif" fill="#666">新能源汽车&amp;轨道交通类</text>
<text x="805.0" y="658" text-anchor="middle" font-size="14" font-family="Arial, PingFang SC, Microsoft YaHei, sans-serif" fill="#666">电驱&amp;电源系统、牵引系统</text>
<text x="935.0" y="658" text-anchor="middle" font-size="14" font-family="Arial, PingFang SC, Microsoft YaHei, sans-serif" fill="#666">通用自动化行业</text>
<text x="1065.0" y="658" text-anchor="middle" font-size="14" font-family="Arial, PingFang SC, Microsoft YaHei, sans-serif" fill="#666">智慧电梯电气类</text>
<rect x="110.80" y="130.00" width="81.33" height="500.00" fill="#4E79A7" opacity="0.85"/>
<rect x="240.80" y="130.00" width="81.33" height="500.00" fill="#4E79A7" opacity="0.85"/>
<rect x="370.80" y="453.55" width="81.33" height="176.45" fill="#4E79A7" opacity="0.85"/>
<rect x="500.80" y="453.55" width="81.33" height="176.45" fill="#4E79A7" opacity="0.85"/>
<rect x="630.80" y="453.55" width="81.33" height="176.45" fill="#4E79A7" opacity="0.85"/>
<rect x="760.80" y="453.55" width="81.33" height="176.45" fill="#4E79A7" opacity="0.85"/>
<rect x="890.80" y="202.24" width="81.33" height="427.76" fill="#4E79A7" opacity="0.85"/>
<rect x="1020.80" y="568.67" width="81.33" height="61.33" fill="#4E79A7" opacity="0.85"/>
<polyline fill="none" stroke="#F28E2B" stroke-width="3" points="155.00,185.33 285.00,185.33 415.00,439.58 545.00,439.58 675.00,439.58 805.00,439.58 935.00,144.30 1065.00,363.96"/>
<circle cx="155.00" cy="185.33" r="4" fill="#F28E2B"/>
<circle cx="285.00" cy="185.33" r="4" fill="#F28E2B"/>
<circle cx="415.00" cy="439.58" r="4" fill="#F28E2B"/>
<circle cx="545.00" cy="439.58" r="4" fill="#F28E2B"/>
<circle cx="675.00" cy="439.58" r="4" fill="#F28E2B"/>
<circle cx="805.00" cy="439.58" r="4" fill="#F28E2B"/>
<circle cx="935.00" cy="144.30" r="4" fill="#F28E2B"/>
<circle cx="1065.00" cy="363.96" r="4" fill="#F28E2B"/>
</svg>