<svg xmlns="http://www.w3.org/2000/svg" width="1200" height="720" viewBox="0 0 1200 720">
<rect x="0" y="0" width="100%" height="100%" fill="#ffffff"/>
<text x="40" y="42" font-size="26" font-family="Arial, PingFang SC, Microsoft YaHei, sans-serif" fill="#222">分产品收入变化图</text>
<rect x="40" y="60" width="22" height="10" fill="#4E79A7"/>
<text x="68" y="70" font-size="16" font-family="Arial, PingFang SC, Microsoft YaHei, sans-serif" fill="#333">智能制造（通用自动化、智慧电梯等）</text>
<rect x="210" y="60" width="22" height="10" fill="#F28E2B"/>
<text x="238" y="70" font-size="16" font-family="Arial, PingFang SC, Microsoft YaHei, sans-serif" fill="#333">通用自动化行业</text>
<rect x="380" y="60" width="22" height="10" fill="#E15759"/>
<text x="408" y="70" font-size="16" font-family="Arial, PingFang SC, Microsoft YaHei, sans-serif" fill="#333">新能源&amp;轨道交通</text>
<rect x="550" y="60" width="22" height="10" fill="#76B7B2"/>
<text x="578" y="70" font-size="16" font-family="Arial, PingFang SC, Microsoft YaHei, sans-serif" fill="#333">新能源汽车&amp;轨道交通类</text>
<rect x="720" y="60" width="22" height="10" fill="#59A14F"/>
<text x="748" y="70" font-size="16" font-family="Arial, PingFang SC, Microsoft YaHei, sans-serif" fill="#333">国外</text>
<line x1="90" y1="130" x2="90" y2="630" stroke="#555" stroke-width="1"/>
<line x1="90" y1="630.0" x2="1130" y2="630.0" stroke="#555" stroke-width="1"/>
<line x1="90" y1="630.0" x2="1130" y2="630.0" stroke="#eee" stroke-width="1"/>
<text x="78" y="635.0" text-anchor="end" font-size="14" font-family="Arial, PingFang SC, Microsoft YaHei, sans-serif" fill="#666">0.00</text>
<line x1="90" y1="530.0" x2="1130" y2="530.0" stroke="#eee" stroke-width="1"/>
<text x="78" y="535.0" text-anchor="end" font-size="14" font-family="Arial, PingFang SC, Microsoft YaHei, sans-serif" fill="#666">70.57</text>
<line x1="90" y1="430.0" x2="1130" y2="430.0" stroke="#eee" stroke-width="1"/>
<text x="78" y="435.0" text-anchor="end" font-size="14" font-family="Arial, PingFang SC, Microsoft YaHei, sans-serif" fill="#666">141.14</text>
<line x1="90" y1="329.99999999999994" x2="1130" y2="329.99999999999994" stroke="#eee" stroke-width="1"/>
<text x="78" y="334.99999999999994" text-anchor="end" font-size="14" font-family="Arial, PingFang SC, Microsoft YaHei, sans-serif" fill="#666">211.70</text>
<line x1="90" y1="229.99999999999997" x2="1130" y2="229.99999999999997" stroke="#eee" stroke-width="1"/>
<text x="78" y="234.99999999999997" text-anchor="end" font-size="14" font-family="Arial, PingFang SC, Microsoft YaHei, sans-serif" fill="#666">282.27</text>
<line x1="90" y1="130.0" x2="1130" y2="130.0" stroke="#eee" stroke-width="1"/>
<text x="78" y="135.0" text-anchor="end" font-size="14" font-family="Arial, PingFang SC, Microsoft YaHei, sans-serif" fill="#666">352.84</text>
<text x="194.0" y="658" text-anchor="middle" font-size="14" font-family="Arial, PingFang SC, Microsoft YaHei, sans-serif" fill="#666">2021</text>
<text x="402.0" y="658" text-anchor="middle" font-size="14" font-family="Arial, PingFang SC, Microsoft YaHei, sans-serif" fill="#666">2022</text>
<text x="610.0" y="658" text-anchor="middle" font-size="14" font-family="Arial, PingFang SC, Microsoft YaHei, sans-serif" fill="#666">2023</text>
<text x="818.0" y="658" text-anchor="middle" font-size="14" font-family="Arial, PingFang SC, Microsoft YaHei, sans-serif" fill="#666">2024</text>
<text x="1026.0" y="658" text-anchor="middle" font-size="14" font-family="Arial, PingFang SC, Microsoft YaHei, sans-serif" fill="#666">2025</text>
<rect x="123.28" y="324.78" width="26.02" height="305.22" fill="#4E79A7" opacity="0.85"/>
<rect x="331.28" y="266.38" width="26.02" height="363.62" fill="#4E79A7" opacity="0.85"/>
<rect x="539.28" y="208.09" width="26.02" height="421.91" fill="#4E79A7" opacity="0.85"/>
<rect x="747.28" y="199.89" width="26.02" height="430.11" fill="#4E79A7" opacity="0.85"/>
<rect x="955.28" y="130.00" width="26.02" height="500.00" fill="#4E79A7" opacity="0.85"/>
<rect x="151.57" y="630.00" width="26.02" height="0.00" fill="#F28E2B" opacity="0.85"/>
<rect x="359.57" y="467.53" width="26.02" height="162.47" fill="#F28E2B" opacity="0.85"/>
<rect x="567.57" y="319.76" width="26.02" height="310.24" fill="#F28E2B" opacity="0.85"/>
<rect x="775.57" y="307.43" width="26.02" height="322.57" fill="#F28E2B" opacity="0.85"/>
<rect x="983.57" y="189.97" width="26.02" height="440.03" fill="#F28E2B" opacity="0.85"/>
<rect x="179.86" y="563.71" width="26.02" height="66.29" fill="#E15759" opacity="0.85"/>
<rect x="387.86" y="520.25" width="26.02" height="109.75" fill="#E15759" opacity="0.85"/>
<rect x="595.86" y="444.39" width="26.02" height="185.61" fill="#E15759" opacity="0.85"/>
<rect x="803.86" y="305.89" width="26.02" height="324.11" fill="#E15759" opacity="0.85"/>
<rect x="1011.86" y="210.72" width="26.02" height="419.28" fill="#E15759" opacity="0.85"/>
<rect x="208.14" y="580.15" width="26.02" height="49.85" fill="#76B7B2" opacity="0.85"/>
<rect x="416.14" y="520.28" width="26.02" height="109.72" fill="#76B7B2" opacity="0.85"/>
<rect x="624.14" y="444.45" width="26.02" height="185.55" fill="#76B7B2" opacity="0.85"/>
<rect x="832.14" y="305.89" width="26.02" height="324.11" fill="#76B7B2" opacity="0.85"/>
<rect x="1040.14" y="210.72" width="26.02" height="419.28" fill="#76B7B2" opacity="0.85"/>
<rect x="236.43" y="617.18" width="26.02" height="12.82" fill="#59A14F" opacity="0.85"/>
<rect x="444.43" y="612.60" width="26.02" height="17.40" fill="#59A14F" opacity="0.85"/>
<rect x="652.43" y="593.85" width="26.02" height="36.15" fill="#59A14F" opacity="0.85"/>
<rect x="860.43" y="587.69" width="26.02" height="42.31" fill="#59A14F" opacity="0.85"/>
<rect x="1068.43" y="573.77" width="26.02" height="56.23" fill="#59A14F" opacity="0.85"/>
</svg>