<svg xmlns="http://www.w3.org/2000/svg" width="1200" height="720" viewBox="0 0 1200 720">
<rect x="0" y="0" width="100%" height="100%" fill="#ffffff"/>
<text x="40" y="42" font-size="26" font-family="Arial, PingFang SC, Microsoft YaHei, sans-serif" fill="#222">分产品收入变化图</text>
<rect x="40" y="60" width="22" height="10" fill="#4E79A7"/>
<text x="68" y="70" font-size="16" font-family="Arial, PingFang SC, Microsoft YaHei, sans-serif" fill="#333">汽车零部件</text>
<rect x="210" y="60" width="22" height="10" fill="#F28E2B"/>
<text x="238" y="70" font-size="16" font-family="Arial, PingFang SC, Microsoft YaHei, sans-serif" fill="#333">内饰功能件</text>
<rect x="380" y="60" width="22" height="10" fill="#E15759"/>
<text x="408" y="70" font-size="16" font-family="Arial, PingFang SC, Microsoft YaHei, sans-serif" fill="#333">底盘系统</text>
<rect x="550" y="60" width="22" height="10" fill="#76B7B2"/>
<text x="578" y="70" font-size="16" font-family="Arial, PingFang SC, Microsoft YaHei, sans-serif" fill="#333">国外</text>
<rect x="720" y="60" width="22" height="10" fill="#59A14F"/>
<text x="748" y="70" font-size="16" font-family="Arial, PingFang SC, Microsoft YaHei, sans-serif" fill="#333">减震器</text>
<line x1="90" y1="130" x2="90" y2="630" stroke="#555" stroke-width="1"/>
<line x1="90" y1="630.0" x2="1130" y2="630.0" stroke="#555" stroke-width="1"/>
<line x1="90" y1="630.0" x2="1130" y2="630.0" stroke="#eee" stroke-width="1"/>
<text x="78" y="635.0" text-anchor="end" font-size="14" font-family="Arial, PingFang SC, Microsoft YaHei, sans-serif" fill="#666">0.00</text>
<line x1="90" y1="530.0" x2="1130" y2="530.0" stroke="#eee" stroke-width="1"/>
<text x="78" y="535.0" text-anchor="end" font-size="14" font-family="Arial, PingFang SC, Microsoft YaHei, sans-serif" fill="#666">79.40</text>
<line x1="90" y1="430.0" x2="1130" y2="430.0" stroke="#eee" stroke-width="1"/>
<text x="78" y="435.0" text-anchor="end" font-size="14" font-family="Arial, PingFang SC, Microsoft YaHei, sans-serif" fill="#666">158.80</text>
<line x1="90" y1="330.0" x2="1130" y2="330.0" stroke="#eee" stroke-width="1"/>
<text x="78" y="335.0" text-anchor="end" font-size="14" font-family="Arial, PingFang SC, Microsoft YaHei, sans-serif" fill="#666">238.21</text>
<line x1="90" y1="230.0" x2="1130" y2="230.0" stroke="#eee" stroke-width="1"/>
<text x="78" y="235.0" text-anchor="end" font-size="14" font-family="Arial, PingFang SC, Microsoft YaHei, sans-serif" fill="#666">317.61</text>
<line x1="90" y1="130.0" x2="1130" y2="130.0" stroke="#eee" stroke-width="1"/>
<text x="78" y="135.0" text-anchor="end" font-size="14" font-family="Arial, PingFang SC, Microsoft YaHei, sans-serif" fill="#666">397.01</text>
<text x="194.0" y="658" text-anchor="middle" font-size="14" font-family="Arial, PingFang SC, Microsoft YaHei, sans-serif" fill="#666">2021</text>
<text x="402.0" y="658" text-anchor="middle" font-size="14" font-family="Arial, PingFang SC, Microsoft YaHei, sans-serif" fill="#666">2022</text>
<text x="610.0" y="658" text-anchor="middle" font-size="14" font-family="Arial, PingFang SC, Microsoft YaHei, sans-serif" fill="#666">2023</text>
<text x="818.0" y="658" text-anchor="middle" font-size="14" font-family="Arial, PingFang SC, Microsoft YaHei, sans-serif" fill="#666">2024</text>
<text x="1026.0" y="658" text-anchor="middle" font-size="14" font-family="Arial, PingFang SC, Microsoft YaHei, sans-serif" fill="#666">2025</text>
<rect x="123.28" y="431.15" width="26.02" height="198.85" fill="#4E79A7" opacity="0.85"/>
<rect x="331.28" y="355.23" width="26.02" height="274.77" fill="#4E79A7" opacity="0.85"/>
<rect x="539.28" y="284.53" width="26.02" height="345.47" fill="#4E79A7" opacity="0.85"/>
<rect x="747.28" y="170.50" width="26.02" height="459.50" fill="#4E79A7" opacity="0.85"/>
<rect x="955.28" y="130.00" width="26.02" height="500.00" fill="#4E79A7" opacity="0.85"/>
<rect x="151.57" y="565.67" width="26.02" height="64.33" fill="#F28E2B" opacity="0.85"/>
<rect x="359.57" y="534.12" width="26.02" height="95.88" fill="#F28E2B" opacity="0.85"/>
<rect x="567.57" y="507.57" width="26.02" height="122.43" fill="#F28E2B" opacity="0.85"/>
<rect x="775.57" y="474.56" width="26.02" height="155.44" fill="#F28E2B" opacity="0.85"/>
<rect x="983.57" y="453.19" width="26.02" height="176.81" fill="#F28E2B" opacity="0.85"/>
<rect x="179.86" y="585.74" width="26.02" height="44.26" fill="#E15759" opacity="0.85"/>
<rect x="387.86" y="551.55" width="26.02" height="78.45" fill="#E15759" opacity="0.85"/>
<rect x="595.86" y="516.59" width="26.02" height="113.41" fill="#E15759" opacity="0.85"/>
<rect x="803.86" y="478.97" width="26.02" height="151.03" fill="#E15759" opacity="0.85"/>
<rect x="1011.86" y="473.45" width="26.02" height="156.55" fill="#E15759" opacity="0.85"/>
<rect x="208.14" y="579.28" width="26.02" height="50.72" fill="#76B7B2" opacity="0.85"/>
<rect x="416.14" y="546.99" width="26.02" height="83.01" fill="#76B7B2" opacity="0.85"/>
<rect x="624.14" y="520.83" width="26.02" height="109.17" fill="#76B7B2" opacity="0.85"/>
<rect x="832.14" y="510.49" width="26.02" height="119.51" fill="#76B7B2" opacity="0.85"/>
<rect x="1040.14" y="515.04" width="26.02" height="114.96" fill="#76B7B2" opacity="0.85"/>
<rect x="236.43" y="566.41" width="26.02" height="63.59" fill="#59A14F" opacity="0.85"/>
<rect x="444.43" y="558.16" width="26.02" height="71.84" fill="#59A14F" opacity="0.85"/>
<rect x="652.43" y="552.99" width="26.02" height="77.01" fill="#59A14F" opacity="0.85"/>
<rect x="860.43" y="547.56" width="26.02" height="82.44" fill="#59A14F" opacity="0.85"/>
<rect x="1068.43" y="550.72" width="26.02" height="79.28" fill="#59A14F" opacity="0.85"/>
</svg>