<svg xmlns="http://www.w3.org/2000/svg" width="1200" height="720" viewBox="0 0 1200 720">
<rect x="0" y="0" width="100%" height="100%" fill="#ffffff"/>
<text x="40" y="42" font-size="26" font-family="Arial, PingFang SC, Microsoft YaHei, sans-serif" fill="#222">财务比率分析图</text>
<rect x="40" y="60" width="22" height="10" fill="#4E79A7"/>
<text x="68" y="70" font-size="16" font-family="Arial, PingFang SC, Microsoft YaHei, sans-serif" fill="#333">资产负债率</text>
<rect x="210" y="60" width="22" height="10" fill="#F28E2B"/>
<text x="238" y="70" font-size="16" font-family="Arial, PingFang SC, Microsoft YaHei, sans-serif" fill="#333">流动比率</text>
<rect x="380" y="60" width="22" height="10" fill="#E15759"/>
<text x="408" y="70" font-size="16" font-family="Arial, PingFang SC, Microsoft YaHei, sans-serif" fill="#333">速动比率</text>
<rect x="550" y="60" width="22" height="10" fill="#76B7B2"/>
<text x="578" y="70" font-size="16" font-family="Arial, PingFang SC, Microsoft YaHei, sans-serif" fill="#333">应收周转率</text>
<rect x="720" y="60" width="22" height="10" fill="#59A14F"/>
<text x="748" y="70" font-size="16" font-family="Arial, PingFang SC, Microsoft YaHei, sans-serif" fill="#333">存货周转率</text>
<line x1="90" y1="130" x2="90" y2="630" stroke="#555" stroke-width="1"/>
<line x1="90" y1="630.0" x2="1130" y2="630.0" stroke="#555" stroke-width="1"/>
<line x1="90" y1="630.0" x2="1130" y2="630.0" stroke="#eee" stroke-width="1"/>
<text x="78" y="635.0" text-anchor="end" font-size="14" font-family="Arial, PingFang SC, Microsoft YaHei, sans-serif" fill="#666">0.00</text>
<line x1="90" y1="530.0" x2="1130" y2="530.0" stroke="#eee" stroke-width="1"/>
<text x="78" y="535.0" text-anchor="end" font-size="14" font-family="Arial, PingFang SC, Microsoft YaHei, sans-serif" fill="#666">11.16</text>
<line x1="90" y1="430.0" x2="1130" y2="430.0" stroke="#eee" stroke-width="1"/>
<text x="78" y="435.0" text-anchor="end" font-size="14" font-family="Arial, PingFang SC, Microsoft YaHei, sans-serif" fill="#666">22.32</text>
<line x1="90" y1="330.0" x2="1130" y2="330.0" stroke="#eee" stroke-width="1"/>
<text x="78" y="335.0" text-anchor="end" font-size="14" font-family="Arial, PingFang SC, Microsoft YaHei, sans-serif" fill="#666">33.48</text>
<line x1="90" y1="229.99999999999997" x2="1130" y2="229.99999999999997" stroke="#eee" stroke-width="1"/>
<text x="78" y="234.99999999999997" text-anchor="end" font-size="14" font-family="Arial, PingFang SC, Microsoft YaHei, sans-serif" fill="#666">44.64</text>
<line x1="90" y1="130.0" x2="1130" y2="130.0" stroke="#eee" stroke-width="1"/>
<text x="78" y="135.0" text-anchor="end" font-size="14" font-family="Arial, PingFang SC, Microsoft YaHei, sans-serif" fill="#666">55.80</text>
<text x="194.0" y="658" text-anchor="middle" font-size="14" font-family="Arial, PingFang SC, Microsoft YaHei, sans-serif" fill="#666">2021</text>
<text x="402.0" y="658" text-anchor="middle" font-size="14" font-family="Arial, PingFang SC, Microsoft YaHei, sans-serif" fill="#666">2022</text>
<text x="610.0" y="658" text-anchor="middle" font-size="14" font-family="Arial, PingFang SC, Microsoft YaHei, sans-serif" fill="#666">2023</text>
<text x="818.0" y="658" text-anchor="middle" font-size="14" font-family="Arial, PingFang SC, Microsoft YaHei, sans-serif" fill="#666">2024</text>
<text x="1026.0" y="658" text-anchor="middle" font-size="14" font-family="Arial, PingFang SC, Microsoft YaHei, sans-serif" fill="#666">2025</text>
<rect x="123.28" y="588.51" width="65.06" height="41.49" fill="#4E79A7" opacity="0.85"/>
<rect x="331.28" y="591.83" width="65.06" height="38.17" fill="#4E79A7" opacity="0.85"/>
<rect x="539.28" y="592.28" width="65.06" height="37.72" fill="#4E79A7" opacity="0.85"/>
<rect x="747.28" y="588.33" width="65.06" height="41.67" fill="#4E79A7" opacity="0.85"/>
<rect x="955.28" y="591.47" width="65.06" height="38.53" fill="#4E79A7" opacity="0.85"/>
<rect x="194.00" y="586.72" width="65.06" height="43.28" fill="#F28E2B" opacity="0.85"/>
<rect x="402.00" y="589.50" width="65.06" height="40.50" fill="#F28E2B" opacity="0.85"/>
<rect x="610.00" y="588.15" width="65.06" height="41.85" fill="#F28E2B" opacity="0.85"/>
<rect x="818.00" y="577.85" width="65.06" height="52.15" fill="#F28E2B" opacity="0.85"/>
<rect x="1026.00" y="580.99" width="65.06" height="49.01" fill="#F28E2B" opacity="0.85"/>
<polyline fill="none" stroke="#E15759" stroke-width="3" points="194.00,243.35 402.00,130.00 610.00,136.27 818.00,201.33 1026.00,226.15"/>
<circle cx="194.00" cy="243.35" r="4" fill="#E15759"/>
<circle cx="402.00" cy="130.00" r="4" fill="#E15759"/>
<circle cx="610.00" cy="136.27" r="4" fill="#E15759"/>
<circle cx="818.00" cy="201.33" r="4" fill="#E15759"/>
<circle cx="1026.00" cy="226.15" r="4" fill="#E15759"/>
<polyline fill="none" stroke="#76B7B2" stroke-width="3" points="194.00,619.34 402.00,618.44 610.00,619.25 818.00,617.19 1026.00,618.71"/>
<circle cx="194.00" cy="619.34" r="4" fill="#76B7B2"/>
<circle cx="402.00" cy="618.44" r="4" fill="#76B7B2"/>
<circle cx="610.00" cy="619.25" r="4" fill="#76B7B2"/>
<circle cx="818.00" cy="617.19" r="4" fill="#76B7B2"/>
<circle cx="1026.00" cy="618.71" r="4" fill="#76B7B2"/>
<polyline fill="none" stroke="#59A14F" stroke-width="3" points="194.00,622.11 402.00,621.49 610.00,621.85 818.00,619.87 1026.00,621.04"/>
<circle cx="194.00" cy="622.11" r="4" fill="#59A14F"/>
<circle cx="402.00" cy="621.49" r="4" fill="#59A14F"/>
<circle cx="610.00" cy="621.85" r="4" fill="#59A14F"/>
<circle cx="818.00" cy="619.87" r="4" fill="#59A14F"/>
<circle cx="1026.00" cy="621.04" r="4" fill="#59A14F"/>
</svg>