<svg xmlns="http://www.w3.org/2000/svg" width="1200" height="720" viewBox="0 0 1200 720">
<rect x="0" y="0" width="100%" height="100%" fill="#ffffff"/>
<text x="40" y="42" font-size="26" font-family="Arial, PingFang SC, Microsoft YaHei, sans-serif" fill="#222">自由现金流与经营现金流对比图</text>
<rect x="40" y="60" width="22" height="10" fill="#4E79A7"/>
<text x="68" y="70" font-size="16" font-family="Arial, PingFang SC, Microsoft YaHei, sans-serif" fill="#333">经营现金流</text>
<rect x="210" y="60" width="22" height="10" fill="#F28E2B"/>
<text x="238" y="70" font-size="16" font-family="Arial, PingFang SC, Microsoft YaHei, sans-serif" fill="#333">自由现金流</text>
<line x1="90" y1="130" x2="90" y2="630" stroke="#555" stroke-width="1"/>
<line x1="90" y1="442.9888268156425" x2="1130" y2="442.9888268156425" stroke="#555" stroke-width="1"/>
<line x1="90" y1="630.0" x2="1130" y2="630.0" stroke="#eee" stroke-width="1"/>
<text x="78" y="635.0" text-anchor="end" font-size="14" font-family="Arial, PingFang SC, Microsoft YaHei, sans-serif" fill="#666">-26.78</text>
<line x1="90" y1="530.0" x2="1130" y2="530.0" stroke="#eee" stroke-width="1"/>
<text x="78" y="535.0" text-anchor="end" font-size="14" font-family="Arial, PingFang SC, Microsoft YaHei, sans-serif" fill="#666">-12.46</text>
<line x1="90" y1="430.0000000000001" x2="1130" y2="430.0000000000001" stroke="#eee" stroke-width="1"/>
<text x="78" y="435.0000000000001" text-anchor="end" font-size="14" font-family="Arial, PingFang SC, Microsoft YaHei, sans-serif" fill="#666">1.86</text>
<line x1="90" y1="330.00000000000006" x2="1130" y2="330.00000000000006" stroke="#eee" stroke-width="1"/>
<text x="78" y="335.00000000000006" text-anchor="end" font-size="14" font-family="Arial, PingFang SC, Microsoft YaHei, sans-serif" fill="#666">16.18</text>
<line x1="90" y1="230.00000000000006" x2="1130" y2="230.00000000000006" stroke="#eee" stroke-width="1"/>
<text x="78" y="235.00000000000006" text-anchor="end" font-size="14" font-family="Arial, PingFang SC, Microsoft YaHei, sans-serif" fill="#666">30.50</text>
<line x1="90" y1="130.00000000000006" x2="1130" y2="130.00000000000006" stroke="#eee" stroke-width="1"/>
<text x="78" y="135.00000000000006" text-anchor="end" font-size="14" font-family="Arial, PingFang SC, Microsoft YaHei, sans-serif" fill="#666">44.82</text>
<text x="194.0" y="658" text-anchor="middle" font-size="14" font-family="Arial, PingFang SC, Microsoft YaHei, sans-serif" fill="#666">2021</text>
<text x="402.0" y="658" text-anchor="middle" font-size="14" font-family="Arial, PingFang SC, Microsoft YaHei, sans-serif" fill="#666">2022</text>
<text x="610.0" y="658" text-anchor="middle" font-size="14" font-family="Arial, PingFang SC, Microsoft YaHei, sans-serif" fill="#666">2023</text>
<text x="818.0" y="658" text-anchor="middle" font-size="14" font-family="Arial, PingFang SC, Microsoft YaHei, sans-serif" fill="#666">2024</text>
<text x="1026.0" y="658" text-anchor="middle" font-size="14" font-family="Arial, PingFang SC, Microsoft YaHei, sans-serif" fill="#666">2025</text>
<polyline fill="none" stroke="#4E79A7" stroke-width="3" points="194.00,360.10 402.00,283.49 610.00,207.93 818.00,217.01 1026.00,130.00"/>
<circle cx="194.00" cy="360.10" r="4" fill="#4E79A7"/>
<circle cx="402.00" cy="283.49" r="4" fill="#4E79A7"/>
<circle cx="610.00" cy="207.93" r="4" fill="#4E79A7"/>
<circle cx="818.00" cy="217.01" r="4" fill="#4E79A7"/>
<circle cx="1026.00" cy="130.00" r="4" fill="#4E79A7"/>
<polyline fill="none" stroke="#F28E2B" stroke-width="3" points="194.00,602.63 402.00,630.00 610.00,435.03 818.00,457.51 1026.00,353.74"/>
<circle cx="194.00" cy="602.63" r="4" fill="#F28E2B"/>
<circle cx="402.00" cy="630.00" r="4" fill="#F28E2B"/>
<circle cx="610.00" cy="435.03" r="4" fill="#F28E2B"/>
<circle cx="818.00" cy="457.51" r="4" fill="#F28E2B"/>
<circle cx="1026.00" cy="353.74" r="4" fill="#F28E2B"/>
</svg>