<svg xmlns="http://www.w3.org/2000/svg" width="1200" height="720" viewBox="0 0 1200 720">
<rect x="0" y="0" width="100%" height="100%" fill="#ffffff"/>
<text x="40" y="42" font-size="26" font-family="Arial, PingFang SC, Microsoft YaHei, sans-serif" fill="#222">分产品收入变化图</text>
<rect x="40" y="60" width="22" height="10" fill="#4E79A7"/>
<text x="68" y="70" font-size="16" font-family="Arial, PingFang SC, Microsoft YaHei, sans-serif" fill="#333">啤酒</text>
<rect x="210" y="60" width="22" height="10" fill="#F28E2B"/>
<text x="238" y="70" font-size="16" font-family="Arial, PingFang SC, Microsoft YaHei, sans-serif" fill="#333">啤酒(行业)</text>
<rect x="380" y="60" width="22" height="10" fill="#E15759"/>
<text x="408" y="70" font-size="16" font-family="Arial, PingFang SC, Microsoft YaHei, sans-serif" fill="#333">其他(行业)</text>
<rect x="550" y="60" width="22" height="10" fill="#76B7B2"/>
<text x="578" y="70" font-size="16" font-family="Arial, PingFang SC, Microsoft YaHei, sans-serif" fill="#333">其他主营业务</text>
<rect x="720" y="60" width="22" height="10" fill="#59A14F"/>
<text x="748" y="70" font-size="16" font-family="Arial, PingFang SC, Microsoft YaHei, sans-serif" fill="#333">茶饮料</text>
<line x1="90" y1="130" x2="90" y2="630" stroke="#555" stroke-width="1"/>
<line x1="90" y1="630.0" x2="1130" y2="630.0" stroke="#555" stroke-width="1"/>
<line x1="90" y1="630.0" x2="1130" y2="630.0" stroke="#eee" stroke-width="1"/>
<text x="78" y="635.0" text-anchor="end" font-size="14" font-family="Arial, PingFang SC, Microsoft YaHei, sans-serif" fill="#666">0.00</text>
<line x1="90" y1="530.0" x2="1130" y2="530.0" stroke="#eee" stroke-width="1"/>
<text x="78" y="535.0" text-anchor="end" font-size="14" font-family="Arial, PingFang SC, Microsoft YaHei, sans-serif" fill="#666">42.93</text>
<line x1="90" y1="430.0" x2="1130" y2="430.0" stroke="#eee" stroke-width="1"/>
<text x="78" y="435.0" text-anchor="end" font-size="14" font-family="Arial, PingFang SC, Microsoft YaHei, sans-serif" fill="#666">85.86</text>
<line x1="90" y1="330.0" x2="1130" y2="330.0" stroke="#eee" stroke-width="1"/>
<text x="78" y="335.0" text-anchor="end" font-size="14" font-family="Arial, PingFang SC, Microsoft YaHei, sans-serif" fill="#666">128.78</text>
<line x1="90" y1="230.0" x2="1130" y2="230.0" stroke="#eee" stroke-width="1"/>
<text x="78" y="235.0" text-anchor="end" font-size="14" font-family="Arial, PingFang SC, Microsoft YaHei, sans-serif" fill="#666">171.71</text>
<line x1="90" y1="130.00000000000006" x2="1130" y2="130.00000000000006" stroke="#eee" stroke-width="1"/>
<text x="78" y="135.00000000000006" text-anchor="end" font-size="14" font-family="Arial, PingFang SC, Microsoft YaHei, sans-serif" fill="#666">214.64</text>
<text x="194.0" y="658" text-anchor="middle" font-size="14" font-family="Arial, PingFang SC, Microsoft YaHei, sans-serif" fill="#666">2021</text>
<text x="402.0" y="658" text-anchor="middle" font-size="14" font-family="Arial, PingFang SC, Microsoft YaHei, sans-serif" fill="#666">2022</text>
<text x="610.0" y="658" text-anchor="middle" font-size="14" font-family="Arial, PingFang SC, Microsoft YaHei, sans-serif" fill="#666">2023</text>
<text x="818.0" y="658" text-anchor="middle" font-size="14" font-family="Arial, PingFang SC, Microsoft YaHei, sans-serif" fill="#666">2024</text>
<text x="1026.0" y="658" text-anchor="middle" font-size="14" font-family="Arial, PingFang SC, Microsoft YaHei, sans-serif" fill="#666">2025</text>
<rect x="123.28" y="229.28" width="26.02" height="400.72" fill="#4E79A7" opacity="0.85"/>
<rect x="331.28" y="195.99" width="26.02" height="434.01" fill="#4E79A7" opacity="0.85"/>
<rect x="539.28" y="160.38" width="26.02" height="469.62" fill="#4E79A7" opacity="0.85"/>
<rect x="747.28" y="149.71" width="26.02" height="480.29" fill="#4E79A7" opacity="0.85"/>
<rect x="955.28" y="130.00" width="26.02" height="500.00" fill="#4E79A7" opacity="0.85"/>
<rect x="151.57" y="229.28" width="26.02" height="400.72" fill="#F28E2B" opacity="0.85"/>
<rect x="359.57" y="195.99" width="26.02" height="434.01" fill="#F28E2B" opacity="0.85"/>
<rect x="567.57" y="160.38" width="26.02" height="469.62" fill="#F28E2B" opacity="0.85"/>
<rect x="775.57" y="149.71" width="26.02" height="480.29" fill="#F28E2B" opacity="0.85"/>
<rect x="983.57" y="130.00" width="26.02" height="500.00" fill="#F28E2B" opacity="0.85"/>
<rect x="179.86" y="604.91" width="26.02" height="25.09" fill="#E15759" opacity="0.85"/>
<rect x="387.86" y="595.57" width="26.02" height="34.43" fill="#E15759" opacity="0.85"/>
<rect x="595.86" y="590.91" width="26.02" height="39.09" fill="#E15759" opacity="0.85"/>
<rect x="803.86" y="581.20" width="26.02" height="48.80" fill="#E15759" opacity="0.85"/>
<rect x="1011.86" y="573.46" width="26.02" height="56.54" fill="#E15759" opacity="0.85"/>
<rect x="208.14" y="621.68" width="26.02" height="8.32" fill="#76B7B2" opacity="0.85"/>
<rect x="416.14" y="618.56" width="26.02" height="11.44" fill="#76B7B2" opacity="0.85"/>
<rect x="624.14" y="599.65" width="26.02" height="30.35" fill="#76B7B2" opacity="0.85"/>
<rect x="832.14" y="590.70" width="26.02" height="39.30" fill="#76B7B2" opacity="0.85"/>
<rect x="1040.14" y="584.04" width="26.02" height="45.96" fill="#76B7B2" opacity="0.85"/>
<rect x="236.43" y="628.04" width="26.02" height="1.96" fill="#59A14F" opacity="0.85"/>
<rect x="444.43" y="627.83" width="26.02" height="2.17" fill="#59A14F" opacity="0.85"/>
<rect x="652.43" y="627.60" width="26.02" height="2.40" fill="#59A14F" opacity="0.85"/>
<rect x="860.43" y="626.55" width="26.02" height="3.45" fill="#59A14F" opacity="0.85"/>
<rect x="1068.43" y="624.71" width="26.02" height="5.29" fill="#59A14F" opacity="0.85"/>
</svg>